<?xml version="1.0" encoding="UTF-8"?>
<svg version="1.1" xmlns="http://www.w3.org/2000/svg" width="1695" height="378">
<path d="M0 0 C2.62482694 1.90110923 5.2045693 3.85212134 7.78515625 5.8125 C9.03287992 6.64923777 10.2826098 7.48299904 11.53515625 8.3125 C18.5261474 13.31798293 23.26501067 20.63478138 27.78515625 27.8125 C28.17525879 28.39233643 28.56536133 28.97217285 28.96728516 29.56958008 C32.12029673 34.36648464 34.19592808 39.03385378 35.91015625 44.5 C36.28853638 45.67574585 36.28853638 45.67574585 36.67456055 46.87524414 C46.03674473 76.51156658 45.03455169 108.76337447 30.78515625 136.8125 C26.22731536 143.95768666 20.86280668 150.99222968 13.78515625 155.8125 C13.12515625 155.8125 12.46515625 155.8125 11.78515625 155.8125 C11.78515625 156.4725 11.78515625 157.1325 11.78515625 157.8125 C12.77515625 158.1425 13.76515625 158.4725 14.78515625 158.8125 C19.96988097 163.73359465 24.09596196 169.72254862 27.78515625 175.8125 C28.17960937 176.43535889 28.5740625 177.05821777 28.98046875 177.69995117 C32.57527745 183.67859414 34.19555384 189.43960519 35.53515625 196.25 C35.74269531 197.22259766 35.95023438 198.19519531 36.1640625 199.19726562 C39.80066818 216.75855178 39.32777711 234.14294084 36.78515625 251.8125 C36.68283691 252.53727539 36.58051758 253.26205078 36.47509766 254.00878906 C33.71079136 271.98297801 23.81269316 287.39089504 10.78515625 299.8125 C10.20765625 300.39644531 9.63015625 300.98039062 9.03515625 301.58203125 C-1.79920877 311.98548403 -14.64520492 317.83113663 -29.21484375 320.8125 C-29.942106 320.98024115 -30.66936825 321.14798229 -31.41866875 321.3208065 C-34.98858703 321.94855892 -38.54695179 322.15221515 -42.16067505 322.33584595 C-42.95550128 322.37799343 -43.75032751 322.42014091 -44.56923938 322.46356559 C-47.23353176 322.60061702 -49.89811316 322.72880625 -52.56298828 322.85400391 C-53.96954095 322.92049444 -53.96954095 322.92049444 -55.40450883 322.98832822 C-79.88366818 324.11317236 -104.3630789 324.14181107 -128.86346197 324.14701414 C-132.69652834 324.14845707 -136.52958124 324.15276472 -140.3626442 324.15800858 C-153.08759593 324.17538628 -165.81250366 324.18486839 -178.53746556 324.18334763 C-179.55194257 324.18322776 -179.55194257 324.18322776 -180.58691406 324.18310547 C-181.26408042 324.18302371 -181.94124677 324.18294195 -182.63893332 324.18285771 C-193.71973874 324.18203708 -204.80041086 324.2014126 -215.88117753 324.2293822 C-227.3442957 324.25808453 -238.8073212 324.27155863 -250.27048123 324.27019465 C-256.67353529 324.26968553 -263.07643567 324.27534913 -269.47945786 324.29655075 C-275.46359649 324.3158444 -281.44743247 324.31611887 -287.4315815 324.30151749 C-289.62582528 324.29942096 -291.82008774 324.30418021 -294.01429939 324.3162384 C-297.00369789 324.33160923 -299.99204006 324.32243871 -302.98141479 324.30697632 C-303.85189229 324.31726344 -304.72236978 324.32755057 -305.61922538 324.33814943 C-309.65073671 324.2919168 -311.69564976 324.14132882 -315.17669868 321.93662453 C-317.38746954 319.63259197 -319.04839018 317.34870831 -320.71484375 314.625 C-321.31167969 313.65304687 -321.90851563 312.68109375 -322.5234375 311.6796875 C-324.40086252 308.49717026 -326.21201776 305.28704281 -327.98046875 302.04296875 C-333.79489303 291.53652488 -340.28775606 281.34814766 -346.77734375 271.25 C-349.88245306 266.40092519 -352.77845075 261.44741371 -355.65625 256.4609375 C-356.82298818 254.47835984 -358.06380515 252.5390579 -359.33984375 250.625 C-360.95114264 248.20805166 -362.33481025 245.80097101 -363.71484375 243.25 C-365.09673741 240.71371955 -366.37499728 238.61731289 -368.21484375 236.375 C-370.69843321 233.192901 -372.24387023 229.78901391 -373.9921875 226.1640625 C-375.4238912 223.41043429 -377.25681298 221.21266675 -379.21484375 218.8125 C-379.88676532 217.53421018 -380.5304996 216.24088533 -381.15234375 214.9375 C-382.48726545 212.14152226 -383.93596391 209.67942721 -385.77734375 207.1875 C-387.9799072 204.18462622 -389.8882208 201.32414899 -391.21484375 197.8125 C-389.97337195 194.08808461 -387.63928078 192.2883044 -384.58984375 189.9375 C-383.69652344 189.24269531 -382.80320312 188.54789063 -381.8828125 187.83203125 C-378.97850148 185.63359963 -376.0604539 183.45652811 -373.1015625 181.33203125 C-371.08102982 179.76383252 -371.08102982 179.76383252 -368.95703125 177.5234375 C-365.70077015 174.30428479 -362.22556075 171.48143906 -358.65234375 168.625 C-357.22084575 167.4719851 -355.78986062 166.31833317 -354.359375 165.1640625 C-353.65635254 164.59719727 -352.95333008 164.03033203 -352.22900391 163.44628906 C-349.40875404 161.15863911 -346.62336245 158.83223486 -343.83984375 156.5 C-341.96526249 154.93699764 -340.09027916 153.37447736 -338.21484375 151.8125 C-336.81878906 150.64460938 -336.81878906 150.64460938 -335.39453125 149.453125 C-334.51023437 148.72609375 -333.6259375 147.9990625 -332.71484375 147.25 C-331.94140625 146.60933594 -331.16796875 145.96867188 -330.37109375 145.30859375 C-328.25457254 143.84006545 -326.73353491 143.23037376 -324.21484375 142.8125 C-315.96616167 153.63523889 -308.14311707 164.66349811 -300.8984375 176.19140625 C-298.66109739 179.674597 -296.28242584 183.04756144 -293.890625 186.42578125 C-292.33779876 188.63738225 -290.83019839 190.87099258 -289.33984375 193.125 C-281.04392814 205.63506423 -272.35791346 217.90641472 -263.21484375 229.8125 C-262.68986864 230.6624545 -262.16489353 231.512409 -261.62401009 232.3881197 C-258.88145022 235.14799892 -257.35942773 235.41076879 -253.53668964 235.48587912 C-252.40295042 235.47017189 -252.40295042 235.47017189 -251.24630737 235.45414734 C-250.43731841 235.46265286 -249.62832945 235.47115838 -248.79482567 235.47992164 C-246.08006091 235.50223238 -243.36666167 235.48874261 -240.65185547 235.4753418 C-238.70691443 235.48375311 -236.76198155 235.49427739 -234.81706238 235.50675964 C-229.52946241 235.53386836 -224.24233316 235.52908933 -218.95469427 235.51705909 C-214.53897642 235.50993514 -210.12334604 235.51842268 -205.70763505 235.52696449 C-195.28515347 235.54693773 -184.86290112 235.54132714 -174.44042969 235.51928711 C-163.69760545 235.49695513 -152.95538311 235.51447882 -142.21261585 235.55233639 C-132.98523252 235.58360858 -123.75803514 235.59147368 -114.53060544 235.58038265 C-109.02156523 235.57390324 -103.51287182 235.57586032 -98.00387192 235.59970665 C-92.8178267 235.62100986 -87.63262667 235.61291387 -82.44663429 235.58261299 C-80.54801967 235.57630167 -78.64933899 235.58010738 -76.75077248 235.59502411 C-62.35801056 235.88885 -62.35801056 235.88885 -50.21484375 228.8125 C-45.63021066 222.44827039 -43.69903339 216.67860802 -44.21484375 208.8125 C-44.91511847 205.67156192 -45.66897681 202.64466668 -47.21484375 199.8125 C-49.07046663 198.74222054 -49.07046663 198.74222054 -51.21484375 197.8125 C-52.12456279 197.39794855 -52.12456279 197.39794855 -53.05265999 196.97502232 C-60.26017398 194.20641154 -67.42653017 194.38509911 -75.05029297 194.41186523 C-76.53442434 194.40611408 -78.01855104 194.39902779 -79.50267029 194.39071655 C-82.6815919 194.37567493 -85.86034635 194.36982292 -89.03930283 194.37124443 C-94.06488044 194.37328619 -99.09023443 194.3536604 -104.11575317 194.33106995 C-113.86740794 194.29020155 -123.61904462 194.27150477 -133.37076569 194.25489807 C-145.80543453 194.23249861 -158.24005149 194.19906689 -170.67463505 194.14769894 C-175.67233177 194.12776383 -180.66991028 194.11819657 -185.66764522 194.11674678 C-188.76964224 194.11400149 -191.87157358 194.10318364 -194.97354317 194.09023666 C-196.41391073 194.08594871 -197.85429317 194.08510254 -199.29466438 194.08791161 C-201.25714776 194.09130072 -203.21964082 194.08140623 -205.18209839 194.07078552 C-206.28116957 194.06915122 -207.38024075 194.06751692 -208.51261711 194.06583309 C-211.21484375 193.8125 -211.21484375 193.8125 -214.21484375 191.8125 C-215.16445094 190.20027802 -216.106247 188.58276459 -217.00097656 186.93945312 C-219.97294531 181.73193267 -223.52705812 176.85122476 -226.90625 171.90234375 C-230.55707961 166.49341398 -233.84091108 161.01856734 -236.85986328 155.23144531 C-238.15363794 152.92176615 -239.62883736 150.92534017 -241.21484375 148.8125 C-241.87958966 147.18387252 -242.54411685 145.55515508 -243.20703125 143.92578125 C-244.94632015 140.2786677 -247.23779255 136.97746038 -249.44140625 133.59765625 C-251.47597039 130.40240464 -253.29886294 127.12957653 -255.07421875 123.78515625 C-256.19881812 121.72924278 -256.19881812 121.72924278 -257.85546875 119.74609375 C-259.21484375 117.8125 -259.21484375 117.8125 -259.21484375 114.8125 C-258.20362268 114.81195523 -257.19240162 114.81141047 -256.15053749 114.81084919 C-231.528593 114.79644437 -206.90682511 114.75338871 -182.28498268 114.68040943 C-170.37795596 114.64577805 -158.47104479 114.62040632 -146.56396484 114.61694336 C-136.18396604 114.61390091 -125.80417312 114.59337243 -115.42425382 114.55197543 C-109.92973127 114.53066949 -104.43550125 114.51803258 -98.94093704 114.52634621 C-93.76486002 114.53390138 -88.589375 114.51800348 -83.41340637 114.48443985 C-81.51803201 114.47622433 -79.62259859 114.47643562 -77.72723007 114.48590279 C-63.69315606 114.71424468 -63.69315606 114.71424468 -51.21484375 108.8125 C-48.9292425 106.6158169 -48.9292425 106.6158169 -47.65234375 104.1875 C-47.19730469 103.43210937 -46.74226563 102.67671875 -46.2734375 101.8984375 C-43.90093946 97.22347826 -43.60656416 92.95371244 -44.21484375 87.8125 C-45.2141988 84.90763895 -46.58203624 82.4067865 -48.21484375 79.8125 C-49.05015625 78.45125 -49.05015625 78.45125 -49.90234375 77.0625 C-57.49022574 69.6796959 -67.17694386 70.23053672 -77.10766602 70.26660156 C-78.70504253 70.25785539 -80.30241031 70.24736598 -81.89976501 70.23527527 C-86.21321443 70.20752227 -90.52637645 70.20400821 -94.83990216 70.20499516 C-99.35629977 70.20185682 -103.8725697 70.17621948 -108.38890076 70.15301514 C-116.93093069 70.112522 -125.47288442 70.09213017 -134.01499552 70.07904124 C-143.74422879 70.06314851 -153.47333279 70.02472332 -163.20249093 69.98444796 C-183.20656584 69.90214056 -203.21063457 69.84799126 -223.21484375 69.8125 C-221.79039137 65.53914285 -218.62642839 64.21770951 -214.96484375 61.9375 C-214.21122559 61.45990234 -213.45760742 60.98230469 -212.68115234 60.49023438 C-210.19815755 58.92160102 -207.70694347 57.36662085 -205.21484375 55.8125 C-203.50388114 54.73701911 -201.79294385 53.66149794 -200.08203125 52.5859375 C-189.26565296 45.81570465 -178.31583097 39.31303543 -167.23925781 32.97900391 C-164.48383674 31.39128057 -161.75780404 29.75518047 -159.02734375 28.125 C-151.94036663 23.98928494 -144.59890364 20.381643 -137.21484375 16.8125 C-136.60801758 16.51875488 -136.00119141 16.22500977 -135.37597656 15.92236328 C-111.2455438 4.30768765 -86.18376361 -6.45882045 -60.21484375 -13.1875 C-59.15354248 -13.46352051 -59.15354248 -13.46352051 -58.07080078 -13.74511719 C-36.29962808 -19.0450208 -17.94238803 -12.20867229 0 0 Z " fill="#FFFFFF" transform="translate(640.21484375,49.1875)"/>
<path d="M0 0 C1.65239937 -0.01210762 1.65239937 -0.01210762 3.33818054 -0.02445984 C5.66887868 -0.03825631 7.99959664 -0.04899819 10.33032227 -0.05688477 C12.68162075 -0.06834507 15.03289446 -0.08870097 17.3840332 -0.1184082 C31.70304106 -0.29897195 44.77792138 0.27339207 58.57421875 4.23828125 C60.09680298 4.64614868 60.09680298 4.64614868 61.65014648 5.06225586 C91.14966576 13.28360971 115.50316879 32.76491681 131.26953125 59.06640625 C134.37476826 64.65271203 137.09160342 70.3528534 139.57421875 76.23828125 C140.02152344 77.25664063 140.46882812 78.275 140.9296875 79.32421875 C141.38988281 80.38898438 141.85007812 81.45375 142.32421875 82.55078125 C142.96617187 84.02998047 142.96617187 84.02998047 143.62109375 85.5390625 C144.57421875 88.23828125 144.57421875 88.23828125 144.57421875 92.23828125 C141.57421875 91.23828125 141.57421875 91.23828125 139.92578125 88.5078125 C139.35601563 87.36699219 138.78625 86.22617188 138.19921875 85.05078125 C135.74103247 80.25406644 133.17837387 76.24289805 129.57421875 72.23828125 C128.91873047 71.10326172 128.91873047 71.10326172 128.25 69.9453125 C115.96378762 50.09835403 91.53063547 35.31844711 69.19921875 29.86328125 C66.66328187 29.28139376 64.12519953 28.75448614 61.57421875 28.23828125 C60.57648437 28.02558594 59.57875 27.81289063 58.55078125 27.59375 C17.87193227 19.4929477 -26.94757793 30.88065437 -64.55273438 46.48583984 C-67.57624087 47.70044451 -70.65764359 48.74139166 -73.73828125 49.80078125 C-79.8133501 51.95265643 -85.60467289 54.47949964 -91.40917969 57.27490234 C-93.72212699 58.37985271 -96.04631538 59.45923061 -98.37109375 60.5390625 C-130.65555148 75.63406481 -161.35909858 93.56595893 -191.48828125 112.55078125 C-192.24947266 113.03023193 -193.01066406 113.50968262 -193.79492188 114.00366211 C-198.32175205 116.86863778 -202.79934688 119.79877304 -207.24975586 122.78100586 C-209.29789129 124.15263386 -211.35248884 125.5138212 -213.41015625 126.87109375 C-214.34794922 127.49177734 -214.34794922 127.49177734 -215.3046875 128.125 C-216.56654608 128.96009221 -217.82959562 129.79338724 -219.09375 130.625 C-222.68737719 133.00829953 -226.06382471 135.53231623 -229.42578125 138.23828125 C-231.07566962 139.16221874 -232.72589539 140.08556688 -234.37890625 141.00390625 C-237.79591165 143.06454309 -240.94884233 145.47829901 -244.15625 147.84765625 C-247.2220741 150.10477496 -250.3344662 152.29169068 -253.45288086 154.4753418 C-261.96360539 160.43544575 -270.31445879 166.58047976 -278.59619141 172.85400391 C-281.36589644 174.94957737 -284.14601476 177.03107223 -286.92578125 179.11328125 C-287.87453125 179.82613281 -288.82328125 180.53898438 -289.80078125 181.2734375 C-291.46240495 182.51718262 -293.12853752 183.75494581 -294.80078125 184.984375 C-295.50203125 185.50128906 -296.20328125 186.01820313 -296.92578125 186.55078125 C-297.51359375 186.98003906 -298.10140625 187.40929687 -298.70703125 187.8515625 C-300.51511031 189.259593 -300.51511031 189.259593 -302.328125 191.14453125 C-304.60058605 193.41276053 -306.99173951 195.40722247 -309.48828125 197.42578125 C-310.46410156 198.21855469 -311.43992187 199.01132813 -312.4453125 199.828125 C-314.31717445 201.34180629 -316.18950059 202.85491391 -318.0625 204.3671875 C-324.10362056 209.27051854 -330.00199954 214.31596496 -335.86474609 219.42944336 C-340.48156874 223.44691591 -345.1825901 227.33426191 -349.9375 231.1875 C-353.13562722 233.82331913 -356.22632409 236.56628238 -359.30859375 239.3359375 C-361.35447862 241.17421412 -363.41688699 242.99133374 -365.48828125 244.80078125 C-366.143125 245.373125 -366.79796875 245.94546875 -367.47265625 246.53515625 C-368.75258622 247.65125519 -370.03379162 248.76589355 -371.31640625 249.87890625 C-376.19012961 254.11864934 -380.97081117 258.4541338 -385.7421875 262.80859375 C-388.71769281 265.50257382 -391.73789175 268.13978481 -394.7734375 270.765625 C-396.17026711 272.01055351 -397.49501313 273.33565082 -398.80078125 274.67578125 C-400.42578125 276.23828125 -400.42578125 276.23828125 -402.42578125 276.23828125 C-402.75578125 277.22828125 -403.08578125 278.21828125 -403.42578125 279.23828125 C-405.1328125 280.9921875 -405.1328125 280.9921875 -407.23828125 282.80078125 C-408.26888672 283.69990234 -408.26888672 283.69990234 -409.3203125 284.6171875 C-411.2913397 286.13476874 -413.16542386 287.21731083 -415.42578125 288.23828125 C-415.42578125 288.89828125 -415.42578125 289.55828125 -415.42578125 290.23828125 C-416.859375 291.6484375 -416.859375 291.6484375 -418.86328125 293.30078125 C-422.07922309 296.02721689 -425.09456321 298.85687276 -428.05078125 301.86328125 C-430.51285535 304.35919829 -432.9582678 306.77246259 -435.67578125 308.98828125 C-439.43895675 312.06724302 -442.69045295 315.32408931 -445.73828125 319.11328125 C-448.30429454 322.26211144 -451.26010847 324.82077006 -454.36328125 327.4296875 C-456.83311736 329.59547182 -459.11818136 331.9001396 -461.42578125 334.23828125 C-462.47711193 335.2911167 -463.52923467 336.34316165 -464.58203125 337.39453125 C-465.12988281 337.94238281 -465.67773438 338.49023438 -466.2421875 339.0546875 C-467.91796875 340.73046875 -469.59375 342.40625 -471.26953125 344.08203125 C-471.80723145 344.62029541 -472.34493164 345.15855957 -472.89892578 345.71313477 C-474.24494311 347.05764552 -475.59664628 348.39645889 -476.94921875 349.734375 C-479.88141995 352.69895066 -482.72309603 355.73686796 -485.55078125 358.80078125 C-486.07542969 359.36474609 -486.60007812 359.92871094 -487.140625 360.50976562 C-489.28196542 362.82729228 -491.31310564 365.08291017 -493.16796875 367.640625 C-493.58304687 368.16785156 -493.998125 368.69507813 -494.42578125 369.23828125 C-495.08578125 369.23828125 -495.74578125 369.23828125 -496.42578125 369.23828125 C-496.73515625 370.07359375 -496.73515625 370.07359375 -497.05078125 370.92578125 C-498.96916722 374.15215765 -501.16683542 376.41794931 -504.42578125 378.23828125 C-507.84246569 378.93748032 -511.17673398 378.87164053 -514.65380859 378.8059082 C-516.17667984 378.8070034 -516.17667984 378.8070034 -517.73031616 378.80812073 C-521.07466693 378.80464677 -524.41761231 378.76579273 -527.76171875 378.7265625 C-530.0848413 378.71723374 -532.40797371 378.71011793 -534.73110962 378.7051239 C-540.83708998 378.68605932 -546.94247297 378.63696207 -553.04821777 378.581604 C-559.28206298 378.53040053 -565.51600499 378.50760744 -571.75 378.48242188 C-583.97552247 378.42884371 -596.20060213 378.34353657 -608.42578125 378.23828125 C-606.78189617 374.77084654 -604.85362257 372.31519062 -602.23828125 369.48828125 C-601.02785156 368.16763672 -601.02785156 368.16763672 -599.79296875 366.8203125 C-599.01179687 365.96824219 -598.230625 365.11617188 -597.42578125 364.23828125 C-596.23323403 362.8885573 -595.04525273 361.53477611 -593.86328125 360.17578125 C-586.44805878 351.67666315 -579.01329097 343.61491401 -570.55078125 336.140625 C-568.07750007 333.92649277 -565.74391148 331.61436474 -563.42578125 329.23828125 C-558.92260569 324.65232673 -554.5061065 320.18964533 -549.42578125 316.23828125 C-548.55953125 315.35140625 -547.69328125 314.46453125 -546.80078125 313.55078125 C-544.42578125 311.23828125 -544.42578125 311.23828125 -541.42578125 310.23828125 C-541.42578125 309.57828125 -541.42578125 308.91828125 -541.42578125 308.23828125 C-540.76578125 308.23828125 -540.10578125 308.23828125 -539.42578125 308.23828125 C-539.09578125 307.24828125 -538.76578125 306.25828125 -538.42578125 305.23828125 C-536.97265625 304.02734375 -536.97265625 304.02734375 -535.17578125 302.86328125 C-530.95033971 299.98308232 -527.62563058 296.5029873 -524.11328125 292.80078125 C-521.38691905 290.20122659 -518.55444809 288.03927062 -515.48828125 285.86328125 C-512.92491757 283.84366138 -510.72999011 281.54923743 -508.42578125 279.23828125 C-506.23199092 277.25895797 -503.988854 275.34009704 -501.73828125 273.42578125 C-501.1232373 272.90097168 -500.50819336 272.37616211 -499.87451172 271.83544922 C-493.42083293 266.35007441 -486.86360958 261.02276101 -480.05078125 255.98828125 C-477.26411531 253.92346251 -474.83869758 251.73737317 -472.42578125 249.23828125 C-468.78292411 246.23828125 -468.78292411 246.23828125 -466.42578125 246.23828125 C-466.09578125 245.24828125 -465.76578125 244.25828125 -465.42578125 243.23828125 C-463.89013672 241.87451172 -463.89013672 241.87451172 -461.91796875 240.48046875 C-460.83273926 239.69687988 -460.83273926 239.69687988 -459.72558594 238.89746094 C-458.96665039 238.34993164 -458.20771484 237.80240234 -457.42578125 237.23828125 C-455.96493789 236.12254988 -454.50921899 235.00007835 -453.05859375 233.87109375 C-452.32294189 233.29931396 -451.58729004 232.72753418 -450.8293457 232.13842773 C-450.07741943 231.55262939 -449.32549316 230.96683105 -448.55078125 230.36328125 C-447.7621167 229.74976807 -446.97345215 229.13625488 -446.16088867 228.50415039 C-441.99479684 225.25832959 -437.84925494 221.99108261 -433.73828125 218.67578125 C-423.23223286 210.23828125 -423.23223286 210.23828125 -420.42578125 210.23828125 C-420.42578125 209.57828125 -420.42578125 208.91828125 -420.42578125 208.23828125 C-418.37446754 206.63303724 -416.32176274 205.14503671 -414.17578125 203.67578125 C-412.88195606 202.77205823 -411.58900161 201.86708746 -410.296875 200.9609375 C-409.64444824 200.50477051 -408.99202148 200.04860352 -408.31982422 199.57861328 C-405.58529253 197.64350385 -402.91093879 195.63270055 -400.23828125 193.61328125 C-391.1784112 186.78261607 -381.96313287 180.18694568 -372.68261719 173.66088867 C-368.75276734 170.89419407 -364.85256415 168.0963025 -360.98828125 165.23828125 C-354.13776698 160.23174 -347.036885 155.59907512 -339.96142578 150.91943359 C-337.29789573 149.15349214 -334.6404402 147.37870987 -331.984375 145.6015625 C-315.58471663 134.63017506 -315.58471663 134.63017506 -308.015625 129.87109375 C-305.44956894 128.25327862 -302.89982807 126.61138649 -300.35229492 124.96459961 C-293.70688173 120.67151319 -287.00805273 116.47611775 -280.25390625 112.35546875 C-278.23594361 111.12226936 -276.22140288 109.88358718 -274.20703125 108.64453125 C-265.25715508 103.14688945 -256.25638584 97.74819293 -247.1875 92.44921875 C-244.17925006 90.689128 -241.20499728 88.88017548 -238.23828125 87.05078125 C-234.57787861 84.83979979 -230.83046178 82.92760676 -226.98828125 81.05078125 C-220.21778017 77.73219867 -213.73344664 74.01278435 -207.26196289 70.14575195 C-202.80153604 67.50691537 -198.33300397 65.22006482 -193.5715332 63.17456055 C-190.28966321 61.7425465 -187.11494684 60.11383083 -183.92578125 58.48828125 C-175.50063051 54.24085005 -166.99330056 50.18995934 -158.42578125 46.23828125 C-157.65250488 45.88121094 -156.87922852 45.52414063 -156.08251953 45.15625 C-138.39453616 37.01855556 -120.49275623 29.34661157 -102.03320312 23.125 C-98.92290922 22.06726709 -95.82363299 20.97927047 -92.72265625 19.89453125 C-68.46283325 11.50243662 -43.81120211 5.22433468 -18.42578125 1.23828125 C-16.90827271 0.97567505 -16.90827271 0.97567505 -15.36010742 0.70776367 C-10.23049947 0.09564849 -5.16200785 0.03649495 0 0 Z " fill="#FFFFFF" transform="translate(608.42578125,-0.23828125)"/>
<path d="M0 0 C0.66 0 1.32 0 2 0 C3.15885779 1.76516741 4.22628875 3.59066957 5.25 5.4375 C9.27961615 12.53928218 13.73155353 19.20911591 18.4375 25.875 C22.80958982 32.09201563 26.82445593 38.52370958 30.85546875 44.96484375 C31.46003906 45.92519531 32.06460938 46.88554688 32.6875 47.875 C33.22761719 48.73867187 33.76773438 49.60234375 34.32421875 50.4921875 C35.98636472 53.06121647 35.98636472 53.06121647 38.05078125 55.5390625 C39.84029742 57.79837149 41.17234066 59.95232937 42.5 62.5 C43.88353442 65.06460038 45.17215302 67.21519127 47 69.5 C49.34104681 72.42630851 51.00648152 75.51062242 52.75390625 78.81640625 C53.96019206 81.05695513 53.96019206 81.05695513 55.65234375 83.08984375 C57 85 57 85 57 88 C55.15625 89.4375 55.15625 89.4375 52.5 91 C47.62686836 93.97142173 42.88371012 97.0683293 38.1875 100.3125 C37.50792236 100.78147705 36.82834473 101.2504541 36.12817383 101.73364258 C28.26120475 107.18129319 20.43825969 112.69924045 12.75390625 118.40234375 C11.76261719 119.13582031 10.77132812 119.86929688 9.75 120.625 C8.44289062 121.60339844 8.44289062 121.60339844 7.109375 122.6015625 C5 124 5 124 3 124 C3 124.66 3 125.32 3 126 C1.34765625 127.26171875 1.34765625 127.26171875 -0.9375 128.6875 C-4.88776975 131.23744193 -8.5845007 133.9556802 -12.26953125 136.87109375 C-16.57248057 140.22603993 -20.95393757 143.47590454 -25.32836914 146.73681641 C-29.87557956 150.13320675 -34.33465452 153.60575727 -38.6875 157.25 C-41 159 -41 159 -43 159 C-43 159.66 -43 160.32 -43 161 C-44.4609375 162.2890625 -44.4609375 162.2890625 -46.375 163.625 C-47.00148438 164.07101563 -47.62796875 164.51703125 -48.2734375 164.9765625 C-50 166 -50 166 -52 166 C-52.33 166.99 -52.66 167.98 -53 169 C-54.390625 170.21875 -54.390625 170.21875 -56.25 171.5 C-60.08938543 174.26792903 -63.71623324 177.23921109 -67.3125 180.3125 C-68.43083553 181.26450391 -69.54932573 182.21632617 -70.66796875 183.16796875 C-71.22145996 183.63895996 -71.77495117 184.10995117 -72.34521484 184.59521484 C-74.92657901 186.78659422 -77.52001899 188.96165816 -80.125 191.125 C-80.99382812 191.84945312 -81.86265625 192.57390625 -82.7578125 193.3203125 C-85 195 -85 195 -88 196 C-88.33 196.99 -88.66 197.98 -89 199 C-90.390625 200.18359375 -90.390625 200.18359375 -92.25 201.4375 C-96.27962689 204.33651215 -99.88039312 207.55392046 -103.5 210.9375 C-104.06678467 211.46714355 -104.63356934 211.99678711 -105.2175293 212.54248047 C-106.32067285 213.57353045 -107.42378286 214.60461631 -108.52685547 215.63574219 C-110.34056114 217.31538874 -112.19231622 218.94609898 -114.0625 220.5625 C-117.9731886 223.9440468 -121.7710573 227.44520427 -125.57177734 230.94897461 C-128.40495717 233.5555539 -131.26624612 236.11773619 -134.1875 238.625 C-137.96856683 241.89404737 -141.44762884 245.42838946 -144.953125 248.98828125 C-147.17503262 251.17202633 -149.55480577 253.07348333 -152 255 C-152.66 255.99 -153.32 256.98 -154 258 C-154.66 258 -155.32 258 -156 258 C-156.33 258.99 -156.66 259.98 -157 261 C-157.66 261 -158.32 261 -159 261 C-157.53039355 253.56750762 -152.09492429 247.10277125 -147.9375 240.9375 C-145.08741292 236.70851365 -142.49612065 232.44220095 -140.08203125 227.953125 C-138.55201786 225.19136798 -136.76361643 222.61697922 -135 220 C-134.0539801 218.34082663 -133.10842568 216.68138442 -132.16625977 215.02001953 C-129.56391769 210.5126345 -126.79519297 206.10336515 -124.06640625 201.671875 C-121.96338761 198.24645959 -119.88012638 194.82034187 -117.91015625 191.31640625 C-115.45112017 187.04703686 -112.68416006 183.02811096 -109.90234375 178.96484375 C-107.95459312 176.04570127 -107.95459312 176.04570127 -106.47265625 172.94140625 C-105.02888691 170.05769721 -103.40001861 167.60002547 -101.5 165 C-98.9551444 161.43507702 -96.92654645 157.93685579 -95 154 C-94.0576685 152.55195981 -93.0974904 151.11546059 -92.125 149.6875 C-89.56210296 145.9192801 -87.32397677 142.06189167 -85.15234375 138.05859375 C-83.58939876 135.26648524 -81.78752863 132.65246184 -80 130 C-79.02156841 128.26407299 -78.04324242 126.52807898 -77.0703125 124.7890625 C-75.95299697 122.92143289 -74.72687917 121.19012917 -73.4375 119.4375 C-71.90310464 117.34049301 -70.73509746 115.47019491 -69.5625 113.125 C-68.22539278 110.45078557 -66.80200888 108.14967334 -65.125 105.6875 C-62.56210296 101.9192801 -60.32397677 98.06189167 -58.15234375 94.05859375 C-56.58939876 91.26648524 -54.78752863 88.65246184 -53 86 C-52.04045586 84.30480535 -51.08123728 82.60941358 -50.12890625 80.91015625 C-48.85458862 78.7539579 -47.47081438 76.69605055 -46.0625 74.625 C-43.58245301 70.95154694 -41.39090614 67.19961097 -39.2734375 63.30859375 C-34.18217733 54.07873253 -28.40725325 45.23233609 -22.66015625 36.40234375 C-22.26030518 35.78584961 -21.8604541 35.16935547 -21.44848633 34.53417969 C-20.6711431 33.33641554 -19.89118642 32.14034189 -19.1081543 30.94628906 C-16.80813338 27.39988809 -14.87596312 23.78301956 -13 20 C-12.06999676 18.54401133 -11.11269996 17.10498292 -10.125 15.6875 C-7.51702713 11.85987812 -5.24339383 7.94001434 -3.078125 3.84765625 C-2 2 -2 2 0 0 Z " fill="#FFFFFF" transform="translate(212,30)"/>
<path d="M0 0 C6.59782356 -0.07677759 13.19552971 -0.12890148 19.79370117 -0.16479492 C22.03300278 -0.17977622 24.27227558 -0.20016833 26.51147461 -0.22631836 C62.8620232 -0.63985349 62.8620232 -0.63985349 76.9375 12.25 C84.43871896 20.62941045 87.31247264 30.97650886 86.87890625 42.109375 C85.81471411 50.57902791 82.99559964 58.57690419 76.3828125 64.2421875 C73.97226906 65.9425425 71.55193465 67.52229871 69 69 C69.70125 69.556875 70.4025 70.11375 71.125 70.6875 C72.07375 71.450625 73.0225 72.21375 74 73 C74.99 73.721875 75.98 74.44375 77 75.1875 C82.49942412 79.79397639 85.74967348 87.06637112 87 94 C88.13073414 107.76016466 85.14431431 120.85835051 76.546875 131.859375 C67.19767977 142.11625909 54.63997385 146.60550864 41.00712585 147.26199341 C36.70471793 147.3796251 32.40476881 147.33889899 28.1015625 147.29296875 C26.52973847 147.28735606 24.95790909 147.2830939 23.38607788 147.28010559 C19.29916243 147.26878821 15.2125797 147.23943839 11.12579346 147.20599365 C6.93547056 147.17500574 2.74509257 147.16153964 -1.4453125 147.14648438 C-9.63035904 147.11455243 -17.81513785 147.06352038 -26 147 C-25.68932373 144.7692765 -25.37638515 142.538868 -25.0625 140.30859375 C-24.88847656 139.06650146 -24.71445313 137.82440918 -24.53515625 136.54467773 C-24.10402069 133.6889947 -23.60716288 130.88441505 -23 128.0625 C-22.17625617 124.14981547 -21.63564901 120.25424968 -21.15234375 116.28515625 C-20.1357427 108.34307216 -18.61817793 100.53008292 -17.0295105 92.68560791 C-14.75047094 81.40970116 -12.59325017 70.17401973 -11.13525391 58.75854492 C-9.92373082 49.6794532 -7.98126238 40.74102587 -6.12963867 31.77612305 C-4.50945313 23.84073936 -3.17689131 15.99608935 -2.421875 7.93359375 C-1.99980058 4.99861326 -1.14294638 2.71951308 0 0 Z M32 29 C28.46397516 42.3572978 28.46397516 42.3572978 27 56 C37.7946526 56.77333717 37.7946526 56.77333717 47 52 C50.25888916 46.4283508 50.83014616 41.56962848 49.375 35.3125 C47.36617723 31.93402533 45.55073734 30.71196265 42 29 C38.63680121 28.68375892 35.36626486 28.7605029 32 29 Z M22 85 C21.17508674 88.43463886 20.3674579 91.87313443 19.5625 95.3125 C19.33240234 96.26962891 19.10230469 97.22675781 18.86523438 98.21289062 C17.33484383 104.80022382 16.4351168 111.25197412 16 118 C23.4945863 120.49819543 33.55588329 119.3128262 41 117 C45.20651349 114.04458916 48.36195383 110.91413851 50 106 C50.56384129 100.30737162 50.30719906 95.85055862 47 91 C42.70331181 86.55888531 39.44616034 85.06505746 33.328125 84.90234375 C31.96871551 84.90894283 30.6093229 84.92079754 29.25 84.9375 C28.55261719 84.94201172 27.85523438 84.94652344 27.13671875 84.95117188 C25.42444197 84.9628998 23.71220967 84.98083347 22 85 Z " fill="#FFFFFF" transform="translate(1180,85)"/>
<path d="M0 0 C0.85665756 -0.00287018 1.71331512 -0.00574036 2.59593201 -0.00869751 C4.4056769 -0.0107381 6.21544384 -0.00520857 8.02514648 0.00732422 C10.80176828 0.02339799 13.57693878 0.00746568 16.35351562 -0.01171875 C18.11068031 -0.0097367 19.86784408 -0.00589382 21.625 0 C22.87501549 -0.00910904 22.87501549 -0.00910904 24.15028381 -0.0184021 C26.48657227 0.01025391 26.48657227 0.01025391 30.24609375 0.3984375 C32.67953663 4.04860182 32.90449953 7.25296274 33.359375 11.5 C33.50136574 12.72518089 33.50136574 12.72518089 33.64622498 13.97511292 C33.8502704 15.73770635 34.05095731 17.50069112 34.24865723 19.26400757 C34.77209736 23.92430496 35.32141789 28.58147946 35.875 33.23828125 C35.98677582 34.17950333 36.09855164 35.1207254 36.2137146 36.09046936 C37.44149622 46.26951308 38.98987084 56.39302635 40.6340332 66.51220703 C41.55538231 72.29223015 42.33605364 77.98252284 42.6640625 83.828125 C43.32018287 94.41457516 45.17696966 104.86481136 46.80859375 115.3359375 C47.46174093 119.53165329 48.10786123 123.72836833 48.75 127.92578125 C48.9749691 129.34781105 48.9749691 129.34781105 49.20448303 130.79856873 C49.95890425 135.73148079 50.41007939 140.40822168 50.24609375 145.3984375 C43.62448275 146.24978749 37.16869265 146.55199356 30.49609375 146.5234375 C29.11744141 146.52923828 29.11744141 146.52923828 27.7109375 146.53515625 C26.82019531 146.53386719 25.92945313 146.53257812 25.01171875 146.53125 C24.21540039 146.53012207 23.41908203 146.52899414 22.59863281 146.52783203 C20.07101865 146.38880801 17.7139909 145.94947352 15.24609375 145.3984375 C13.63369357 140.77622365 13.02026524 136.52279366 12.6796875 131.62890625 C12.5964624 130.46125732 12.5132373 129.2936084 12.42749023 128.09057617 C12.36762939 127.20217041 12.30776855 126.31376465 12.24609375 125.3984375 C5.78584937 125.31319725 -0.67185461 125.29802849 -7.13256836 125.33129883 C-9.32954489 125.33437878 -11.52660472 125.32148756 -13.72338867 125.29223633 C-16.88487842 125.25292321 -20.04162017 125.27127996 -23.203125 125.30078125 C-24.18351242 125.27620346 -25.16389984 125.25162567 -26.17399597 125.2263031 C-28.97320157 125.28511335 -31.12728069 125.42115292 -33.75390625 126.3984375 C-36.15803663 129.13138921 -37.46862527 132.01794084 -38.75390625 135.3984375 C-42.0596239 143.53059853 -42.0596239 143.53059853 -45.75390625 146.3984375 C-49.02197266 146.8684082 -49.02197266 146.8684082 -52.85546875 146.82421875 C-53.53314301 146.82093063 -54.21081726 146.81764252 -54.9090271 146.81425476 C-56.33625954 146.80386094 -57.7634506 146.78395644 -59.19042969 146.75512695 C-61.37849056 146.71094589 -63.56545395 146.69367318 -65.75390625 146.68164062 C-76.39323845 146.5787714 -76.39323845 146.5787714 -78.75390625 145.3984375 C-76.81277969 136.89630318 -72.70862171 129.10802908 -68.75390625 121.3984375 C-64.0752604 112.15400786 -59.52720455 102.86123876 -55.11914062 93.48461914 C-52.36317217 87.63889591 -49.51743884 81.84462083 -46.58007812 76.08789062 C-44.29175238 71.57549019 -42.19592998 66.9896375 -40.11474609 62.37841797 C-37.71383969 57.12088953 -35.19887208 51.91826591 -32.69140625 46.7109375 C-32.17513672 45.63521484 -31.65886719 44.55949219 -31.12695312 43.45117188 C-28.38281855 37.74267282 -25.61058002 32.05144852 -22.75390625 26.3984375 C-21.73695265 24.38250115 -20.72032334 22.3664067 -19.70507812 20.34960938 C-19.02693785 19.00247523 -18.34723873 17.65612471 -17.66601562 16.31054688 C-16.05613684 13.10635873 -14.53745258 9.91594105 -13.1953125 6.58984375 C-10.19456938 -0.054078 -6.89999585 -0.05040368 0 0 Z M2.24609375 49.3984375 C2.00487793 49.91639893 1.76366211 50.43436035 1.51513672 50.96801758 C-2.62214032 59.83178443 -6.76439587 68.63507227 -11.54296875 77.17578125 C-14.21381758 82.0780812 -15.98429988 87.08961838 -17.75390625 92.3984375 C-9.50390625 92.3984375 -1.25390625 92.3984375 7.24609375 92.3984375 C6.74843693 77.86685829 5.45714113 63.76504546 3.24609375 49.3984375 C2.91609375 49.3984375 2.58609375 49.3984375 2.24609375 49.3984375 Z " fill="#FFFFFF" transform="translate(786.75390625,85.6015625)"/>
<path d="M0 0 C0 -1.65 0 -3.3 0 -5 C10.56 -5 21.12 -5 32 -5 C32 3.99479709 32 3.99479709 31.1953125 8.5390625 C31.02386719 9.53292969 30.85242187 10.52679688 30.67578125 11.55078125 C30.49402344 12.56527344 30.31226563 13.57976562 30.125 14.625 C29.77166336 16.63771018 29.42011832 18.65073566 29.0703125 20.6640625 C28.80105957 22.21347534 28.80105957 22.21347534 28.52636719 23.79418945 C27.98822521 27.07171373 27.53114486 30.35317687 27.0859375 33.64453125 C25.88944332 42.18352316 24.19155519 50.6108976 22.5 59.0625 C22.03279658 61.40217094 21.5668178 63.74205876 21.10412598 66.08262634 C20.81962131 67.52144337 20.53270907 68.95978805 20.24255371 70.3974762 C18.95209072 76.91630938 18.01407562 83.40850844 17 90 C6.11 90 -4.78 90 -16 90 C-16.33 89.01 -16.66 88.02 -17 87 C-17.52207031 87.26554687 -18.04414062 87.53109375 -18.58203125 87.8046875 C-30.20767744 93.38336886 -42.52457909 94.56792782 -54.9375 90.625 C-56.29953095 90.10342372 -57.65493269 89.56388302 -59 89 C-60.485 88.4121875 -60.485 88.4121875 -62 87.8125 C-72.66123231 81.37133881 -78.0365631 72.63246892 -82 61 C-82.91210379 56.3588531 -83.16071702 51.84951822 -83.1875 47.125 C-83.20167969 45.99320313 -83.21585938 44.86140625 -83.23046875 43.6953125 C-82.74459452 35.9048545 -80.68225313 29.41525162 -77 22.5625 C-76.60482178 21.82604248 -76.20964355 21.08958496 -75.80249023 20.33081055 C-69.2232108 8.58108266 -59.35156104 -0.07178577 -46.3125 -3.8125 C-30.61270527 -7.52972159 -14.69172743 -7.17502968 0 0 Z M-42.37109375 31.1484375 C-46.80305407 36.18620534 -46.42607687 41.1395496 -46.3046875 47.640625 C-45.91584958 51.92781228 -45.13736782 54.01950057 -42 57 C-36.13770586 61.35878811 -30.12164752 61.86355307 -23 61 C-17.46318857 59.36618679 -13.34149865 56.70363823 -10 52 C-6.94884102 45.36582865 -7.78639008 38.38533293 -10.1875 31.6875 C-12.79396584 27.82274031 -15.49623682 25.64598033 -20.07421875 24.46484375 C-29.18236703 23.08193118 -35.6008249 24.93893839 -42.37109375 31.1484375 Z " fill="#FFFFFF" transform="translate(1361,142)"/>
<path d="M0 0 C0.66 -1.32 1.32 -2.64 2 -4 C12.56 -4 23.12 -4 34 -4 C34 1.58780988 33.78136727 6.37768667 32.79296875 11.76953125 C32.66799515 12.48334961 32.54302155 13.19716797 32.41426086 13.93261719 C32.01143281 16.22703509 31.59952431 18.51971753 31.1875 20.8125 C30.62630964 23.98912811 30.06925313 27.16647851 29.51171875 30.34375 C29.375914 31.11354691 29.24010925 31.88334381 29.10018921 32.6764679 C28.15605821 38.04464249 27.29688477 43.42047697 26.5 48.8125 C25.2260756 57.25836898 23.54920893 65.6263656 21.875 74 C21.74053467 74.67423004 21.60606934 75.34846008 21.4675293 76.04312134 C19.18855446 87.43433662 19.18855446 87.43433662 18 91 C7.44 91 -3.12 91 -14 91 C-14.33 90.01 -14.66 89.02 -15 88 C-15.52207031 88.26554687 -16.04414062 88.53109375 -16.58203125 88.8046875 C-29.32097756 94.91759694 -42.45424676 95.32162892 -55.8515625 90.8125 C-61.41034492 88.71026956 -64.95110929 86.36853998 -69 82 C-69.94939453 81.18982422 -69.94939453 81.18982422 -70.91796875 80.36328125 C-73.77770022 77.11724459 -75.11258246 73.61890853 -76.6875 69.625 C-76.99494141 68.8825 -77.30238281 68.14 -77.61914062 67.375 C-82.26292027 55.87224604 -82.99282108 41.79253648 -78.24902344 30.15820312 C-71.56317153 14.86144783 -62.90254814 4.8920305 -47.4765625 -2.15234375 C-32.25561665 -7.36203657 -14.68668463 -6.1980504 0 0 Z M-40.30078125 32.078125 C-44.16348004 36.44697053 -45.59997562 41.13409347 -45.3515625 46.94921875 C-44.48044639 52.03072939 -42.15324646 55.8755847 -38.5 59.4375 C-33.1778116 62.76386775 -27.10929055 62.616844 -21 62 C-16.28031219 60.48938682 -11.94484542 58.03552891 -9 54 C-6.27262073 48.26113945 -5.21724568 43.16081084 -7 37 C-8.4444179 33.04386032 -9.99196845 29.91908759 -13.125 27.0625 C-23.3795283 23.27278302 -32.39462704 24.56028878 -40.30078125 32.078125 Z " fill="#FFFFFF" transform="translate(1544,141)"/>
<path d="M0 0 C8.14740975 8.22767979 10.2665158 16.14139194 10.24658203 27.58764648 C10.00101581 41.86580824 6.69013003 55.97833242 3.9375 69.9375 C3.80784851 70.5996048 3.67819702 71.26170959 3.5446167 71.94387817 C3.16964897 73.84784945 2.78613538 75.75013151 2.40234375 77.65234375 C2.06964478 79.30737915 2.06964478 79.30737915 1.73022461 80.99584961 C1.04607864 83.81043208 0.15097216 86.34663496 -1 89 C-5.66308199 89.02468646 -10.32612608 89.04285349 -14.98925781 89.05493164 C-16.57617861 89.05996588 -18.16309477 89.06679369 -19.75 89.07543945 C-22.02865749 89.08754482 -24.30725376 89.09323733 -26.5859375 89.09765625 C-27.65320572 89.10539818 -27.65320572 89.10539818 -28.74203491 89.11329651 C-33.77225659 89.11387171 -33.77225659 89.11387171 -36 88 C-35.86424561 87.26700684 -35.72849121 86.53401367 -35.58862305 85.77880859 C-33.26955848 73.19520896 -30.96736754 60.61051531 -29.1875 47.9375 C-29.00223755 46.66688721 -29.00223755 46.66688721 -28.81323242 45.37060547 C-27.11311849 33.42390837 -27.11311849 33.42390837 -30 22 C-33.60170838 18.83486234 -37.02748625 18.47857629 -41.65234375 18.6484375 C-46.49785505 19.37405483 -50.5681299 21.12755449 -53.57421875 25.05859375 C-55.50811671 29.04825173 -56.45844274 33.06403488 -57.4375 37.375 C-57.64995361 38.28967041 -57.86240723 39.20434082 -58.08129883 40.14672852 C-61.31777279 54.42230097 -63.83048553 68.8988554 -65.41015625 83.453125 C-66.1009344 86.43582271 -66.52744257 87.22926018 -69 89 C-72.15454102 89.35644531 -72.15454102 89.35644531 -76.00390625 89.328125 C-76.68299545 89.32625183 -77.36208466 89.32437866 -78.06175232 89.32244873 C-79.49491295 89.31573521 -80.92805546 89.30183441 -82.36108398 89.28125 C-84.55795263 89.25006455 -86.7541037 89.24027515 -88.95117188 89.234375 C-99.67243382 89.16378309 -99.67243382 89.16378309 -102 88 C-101.61933767 76.65186598 -99.53129845 66.04158952 -97.0625 55 C-96.33857094 51.73055983 -95.62089715 48.45983261 -94.91015625 45.1875 C-94.65215744 44.00000908 -94.65215744 44.00000908 -94.38894653 42.78852844 C-93.14931802 36.96994974 -92.23802945 31.146482 -91.45874023 25.24755859 C-90.70178814 19.88886952 -89.61079031 14.60726713 -88.5 9.3125 C-88.28730469 8.25611328 -88.07460938 7.19972656 -87.85546875 6.11132812 C-87.64535156 5.10134766 -87.43523438 4.09136719 -87.21875 3.05078125 C-87.03248047 2.15012939 -86.84621094 1.24947754 -86.65429688 0.3215332 C-86 -2 -86 -2 -84 -5 C-81.44604513 -5.26711404 -79.13725626 -5.34849029 -76.5859375 -5.29296875 C-75.85629791 -5.28872391 -75.12665833 -5.28447906 -74.37490845 -5.28010559 C-72.04123241 -5.26329353 -69.7084156 -5.22563868 -67.375 -5.1875 C-65.79428329 -5.17245634 -64.21355307 -5.15876738 -62.6328125 -5.14648438 C-58.75487656 -5.11338201 -54.87758402 -5.06158404 -51 -5 C-51 -3.02 -51 -1.04 -51 1 C-50.23429688 0.38511719 -50.23429688 0.38511719 -49.453125 -0.2421875 C-36.38766983 -9.92545037 -12.86463423 -10.77039145 0 0 Z " fill="#FFFFFF" transform="translate(949,143)"/>
<path d="M0 0 C1.47057839 0.00031709 2.94118001 0.01164091 4.41162109 0.03173828 C5.18565277 0.03456818 5.95968445 0.03739807 6.75717163 0.04031372 C9.23329016 0.05152325 11.70904909 0.07662875 14.18505859 0.10205078 C15.86213671 0.1120796 17.53922049 0.12120562 19.21630859 0.12939453 C23.33103082 0.15146504 27.44548371 0.18599977 31.56005859 0.22705078 C30.59982237 12.40085079 29.05661813 24.22362824 26.41162109 36.15283203 C23.81739558 48.23775254 21.9249767 60.49389129 20.18505859 72.72705078 C18.84011523 82.13585716 17.00347963 91.44188239 15.15686035 100.76205444 C13.40638183 109.60954696 11.85059687 118.44877412 10.60961914 127.38232422 C9.40869079 135.78075071 7.4916839 143.9676874 5.56005859 152.22705078 C-6.31994141 152.22705078 -18.19994141 152.22705078 -30.43994141 152.22705078 C-31.57898596 148.80991712 -31.26843129 147.42829201 -30.54931641 143.94970703 C-30.3361377 142.89017822 -30.12295898 141.83064941 -29.90332031 140.73901367 C-29.66790527 139.60069092 -29.43249023 138.46236816 -29.18994141 137.28955078 C-27.62411168 129.47372611 -26.13568606 121.68876919 -25.06494141 113.78955078 C-23.54183285 102.75610077 -21.22508234 91.87200541 -18.95214844 80.97338867 C-17.30900189 73.02844606 -15.98896039 65.14422259 -14.9831543 57.08764648 C-13.84067139 48.96805894 -12.09911991 40.94921035 -10.47167969 32.91552734 C-10.00926061 30.62429659 -9.55119094 28.3322661 -9.09619141 26.03955078 C-8.94915771 25.30115967 -8.80212402 24.56276855 -8.65063477 23.80200195 C-7.44397421 17.58759718 -6.63200259 11.36270857 -5.94970703 5.07080078 C-5.18614349 0.81122792 -4.31008941 0.28448426 0 0 Z " fill="#FFFFFF" transform="translate(1431.43994140625,79.77294921875)"/>
<path d="M0 0 C1.43352212 0.00015908 2.86704998 0.00585132 4.30053711 0.01586914 C5.43041298 0.01799156 5.43041298 0.01799156 6.58311462 0.02015686 C8.99807646 0.02577163 11.41294687 0.03832656 13.82788086 0.05102539 C15.46134307 0.05603849 17.09480672 0.06060173 18.72827148 0.06469727 C22.74067671 0.07574585 26.75301326 0.09302033 30.76538086 0.11352539 C32.24447992 4.02867831 31.30215419 7.47860435 30.43725586 11.42211914 C30.28867126 12.13585693 30.14008667 12.84959473 29.98699951 13.58496094 C29.66858877 15.11366351 29.34663659 16.64163192 29.02148438 18.16891479 C28.16986048 22.1773088 27.3481815 26.19173501 26.53100586 30.20727539 C26.29039429 31.38911659 26.29039429 31.38911659 26.04492188 32.59483337 C24.91216453 38.22506106 23.97836698 43.85136958 23.26538086 49.55102539 C21.84205461 60.82523638 19.53150773 71.93271282 17.27709961 83.06445312 C15.66656234 91.07403865 14.32976176 99.03275415 13.31298828 107.14428711 C12.37208233 114.28010513 10.99447735 121.35133362 9.67871094 128.42553711 C9.19467129 131.03274502 8.71900506 133.64139551 8.24389648 136.25024414 C7.9377472 137.91049107 7.63112515 139.57065091 7.32397461 141.23071289 C7.18229355 142.0096994 7.04061249 142.78868591 6.89463806 143.59127808 C5.88032419 148.99858206 5.88032419 148.99858206 4.76538086 150.11352539 C2.17178764 150.20204068 -0.39501605 150.22878484 -2.98852539 150.21118164 C-3.76397202 150.20976669 -4.53941864 150.20835175 -5.33836365 150.20689392 C-7.82465408 150.20127884 -10.31085574 150.18872385 -12.79711914 150.17602539 C-14.47875847 150.17101233 -16.1603992 150.16644909 -17.84204102 150.16235352 C-21.9729348 150.15130452 -26.1037619 150.13402984 -30.23461914 150.11352539 C-30.39859528 144.87142664 -29.81351691 140.07952157 -28.73852539 134.94165039 C-28.58552475 134.17858582 -28.43252411 133.41552124 -28.27488708 132.6293335 C-27.7886519 130.20606068 -27.29386816 127.7846632 -26.79711914 125.36352539 C-24.06909775 112.16745258 -24.06909775 112.16745258 -22.51513672 98.79614258 C-21.92524204 93.15492172 -20.54143845 87.63985479 -19.29711914 82.11352539 C-16.90707285 71.34377908 -14.63007644 60.70057562 -13.36352539 49.73461914 C-12.29887197 40.68581463 -10.53904946 31.79496344 -8.72070312 22.87158203 C-8.16251101 20.12881428 -7.61500946 17.38405368 -7.06860352 14.63891602 C-6.71700477 12.89204737 -6.3648145 11.14529765 -6.01196289 9.39868164 C-5.84840805 8.57908463 -5.68485321 7.75948761 -5.51634216 6.91505432 C-4.12784765 0.14487502 -4.12784765 0.14487502 0 0 Z " fill="#FFFFFF" transform="translate(1053.234619140625,80.886474609375)"/>
<path d="M0 0 C11.88 0 23.76 0 36 0 C36 6.90073839 35.7878662 12.43809886 34.35546875 18.98828125 C34.1859671 19.80523468 34.01646545 20.62218811 33.84182739 21.46389771 C33.48271999 23.1929782 33.11957169 24.92122389 32.75259399 26.64865112 C31.79900599 31.14385787 30.87826647 35.64571078 29.9609375 40.1484375 C29.78272964 41.02203415 29.60452179 41.8956308 29.4209137 42.79570007 C28.1717377 48.98509673 27.10977931 55.17234579 26.3125 61.4375 C25.25530222 69.73061041 23.67716925 77.85574641 21.98242188 86.04101562 C19.96555249 95.89520928 18.30614556 105.79708715 16.69970703 115.72436523 C16.50618652 116.91747314 16.31266602 118.11058105 16.11328125 119.33984375 C15.94610596 120.38519287 15.77893066 121.43054199 15.60668945 122.50756836 C14.82270228 127.02062126 13.89833783 131.50831084 13 136 C0.79 136 -11.42 136 -24 136 C-23.33138268 129.31382684 -22.55651264 122.83788383 -21.375 116.25 C-21.20822754 115.30552002 -21.04145508 114.36104004 -20.86962891 113.38793945 C-19.07878328 103.31384424 -17.22526907 93.25082355 -15.375 83.1875 C-15.22311218 82.36117065 -15.07122437 81.53484131 -14.91473389 80.68347168 C-14.47283563 78.28227846 -14.02975063 75.88130874 -13.5859375 73.48046875 C-13.4452182 72.7181192 -13.3044989 71.95576965 -13.15951538 71.1703186 C-12.45424595 67.37016897 -11.71356708 63.58245351 -10.9140625 59.80078125 C-10.12472009 55.94495819 -9.61544233 52.08941787 -9.1328125 48.18359375 C-7.87176543 38.38024841 -5.85684874 28.74119499 -3.875 19.0625 C-3.4982437 17.20386806 -3.12193876 15.34514456 -2.74609375 13.48632812 C-1.83673818 8.98962493 -0.91820625 4.49493989 0 0 Z " fill="#FFFFFF" transform="translate(1599,138)"/>
<path d="M0 0 C11.88 0 23.76 0 36 0 C35.3220933 6.77906697 34.47853806 13.18392865 33.125 19.8125 C31.7086765 26.95904557 30.51760925 34.0903888 29.5625 41.3125 C28.38726453 50.12135978 26.65633801 58.75083698 24.7746582 67.43359375 C23.29021064 74.35987953 22.15449402 81.23272795 21.359375 88.26953125 C21 91 21 91 20 94 C8.12 94 -3.76 94 -16 94 C-14.85282136 75.6451417 -14.85282136 75.6451417 -13.1875 67.63671875 C-13.01371826 66.75321243 -12.83993652 65.86970612 -12.66088867 64.95942688 C-12.1169714 62.20007556 -11.55965872 59.44369752 -11 56.6875 C-10.26369213 53.02612907 -9.53410669 49.36351569 -8.8125 45.69921875 C-8.64109497 44.8299324 -8.46968994 43.96064606 -8.29309082 43.0650177 C-7.29229291 37.87075727 -6.59590286 32.76190078 -6.23828125 27.48022461 C-5.7651406 22.55539277 -4.59151983 17.75578041 -3.5 12.9375 C-3.27441406 11.90689453 -3.04882812 10.87628906 -2.81640625 9.81445312 C-1.1476996 2.2953992 -1.1476996 2.2953992 0 0 Z " fill="#FFFFFF" transform="translate(1651,138)"/>
<path d="M0 0 C1.43352212 0.00015908 2.86704998 0.00585132 4.30053711 0.01586914 C5.43041298 0.01799156 5.43041298 0.01799156 6.58311462 0.02015686 C8.99807646 0.02577163 11.41294687 0.03832656 13.82788086 0.05102539 C15.46134307 0.05603849 17.09480672 0.06060173 18.72827148 0.06469727 C22.74067671 0.07574585 26.75301326 0.09302033 30.76538086 0.11352539 C30.15242067 7.76848761 29.24866956 15.33694341 28.07788086 22.92602539 C27.82276733 24.58915771 27.82276733 24.58915771 27.5625 26.28588867 C25.97133306 36.3537122 23.97331347 46.32477896 21.91601562 56.30615234 C20.23937711 64.50823154 18.78973954 72.70035081 17.70263672 81.00170898 C17.13317909 85.2358491 16.4029633 89.15399769 14.76538086 93.11352539 C11.81112515 94.59065324 9.15277882 94.24342537 5.85913086 94.24633789 C5.17862671 94.24729462 4.49812256 94.24825134 3.79699707 94.24923706 C2.35790922 94.2499177 0.91881829 94.24807146 -0.52026367 94.24389648 C-2.72590007 94.23854654 -4.93133284 94.2438453 -7.13696289 94.25024414 C-8.53409876 94.24958334 -9.9312345 94.24830213 -11.32836914 94.24633789 C-12.60389648 94.24520996 -13.87942383 94.24408203 -15.19360352 94.24291992 C-18.23461914 94.11352539 -18.23461914 94.11352539 -20.23461914 93.11352539 C-18.5568996 76.95948299 -15.86663742 61.12572155 -12.74804688 45.19873047 C-12.45042493 43.67687385 -12.15297708 42.15498318 -11.85571289 40.63305664 C-11.71181122 39.89732925 -11.56790955 39.16160187 -11.41964722 38.40357971 C-10.36613506 32.95377595 -9.50037399 27.4882535 -8.68847656 21.99707031 C-8.01931758 17.74562508 -7.12657067 13.55875722 -6.17211914 9.36352539 C-5.99874023 8.57204102 -5.82536133 7.78055664 -5.64672852 6.96508789 C-4.11737154 0.14450734 -4.11737154 0.14450734 0 0 Z " fill="#FFFFFF" transform="translate(985.234619140625,137.886474609375)"/>
<path d="M0 0 C4.55320682 -0.04979112 9.10625181 -0.08590298 13.65966797 -0.10986328 C15.20559453 -0.11986197 16.75150246 -0.13346538 18.29736328 -0.15087891 C20.53162255 -0.17539951 22.76562975 -0.18654451 25 -0.1953125 C25.68054443 -0.20563507 26.36108887 -0.21595764 27.06225586 -0.22659302 C36.24006285 -0.22869339 44.0222247 2.29190102 50.73046875 8.63671875 C57.33449729 15.89299703 58.73450613 23.29641145 58.4140625 32.921875 C57.9722437 38.87392456 55.85672755 43.80939424 53 49 C52.56558594 49.81082031 52.13117188 50.62164062 51.68359375 51.45703125 C46.07120737 60.84298796 37.39739006 66.90699489 27 70 C22.61919571 71.10145937 18.34338396 71.12896764 13.85546875 71.09765625 C13.08568192 71.0962413 12.31589508 71.09482635 11.52278137 71.09336853 C9.07764712 71.08779606 6.63260632 71.07524871 4.1875 71.0625 C2.52408987 71.05748144 0.8606783 71.05291915 -0.80273438 71.04882812 C-4.86852528 71.03783566 -8.93424683 71.0205901 -13 71 C-12.87995605 70.34032227 -12.75991211 69.68064453 -12.63623047 69.00097656 C-10.48327642 57.13643772 -8.35853734 45.26971467 -6.40234375 33.37109375 C-6.20327423 32.16252213 -6.20327423 32.16252213 -6.00018311 30.92953491 C-5.3462374 26.95363483 -4.69772124 22.97693896 -4.05615234 18.99902344 C-3.81490143 17.52406845 -3.57353318 16.04913265 -3.33203125 14.57421875 C-3.12296143 13.28088623 -2.9138916 11.98755371 -2.69848633 10.6550293 C-2.0001061 7.00055522 -1.07736997 3.55689894 0 0 Z M15 16 C14.88930176 16.70495605 14.77860352 17.40991211 14.66455078 18.13623047 C14.15349776 21.38282641 13.6392679 24.62891181 13.125 27.875 C12.95097656 28.98359375 12.77695313 30.0921875 12.59765625 31.234375 C11.65768265 37.15272731 10.63973947 43.02764196 9.36279297 48.88330078 C8.88737849 51.29915765 8.88737849 51.29915765 9 55 C20.20044945 55.70163475 20.20044945 55.70163475 30 51 C35.35196843 46.00907706 38.66189261 41.5894948 39.2109375 34.13671875 C39.48336282 26.55967821 39.48336282 26.55967821 36 20 C33.93232739 18.55428647 33.93232739 18.55428647 31.5 17.6875 C30.7265625 17.36136719 29.953125 17.03523438 29.15625 16.69921875 C24.45060791 15.65675596 19.79980214 15.8713204 15 16 Z " fill="#FFFFFF" transform="translate(1522,284)"/>
<path d="M0 0 C6.27 0 12.54 0 19 0 C19.26554687 1.75699219 19.53109375 3.51398438 19.8046875 5.32421875 C21.16510342 14.16692221 22.64663426 22.98888902 24.125 31.8125 C24.40502447 33.48761741 24.68497288 35.16274754 24.96484375 36.83789062 C25.64235451 40.89207387 26.32088696 44.94608486 27 49 C27.53109375 47.9378125 28.0621875 46.875625 28.609375 45.78125 C32.859375 37.28125 32.859375 37.28125 33.92762756 35.14476013 C34.64805193 33.70390115 35.36845981 32.26303392 36.08885193 30.82215881 C36.43650101 30.12682541 36.78415009 29.431492 37.14233398 28.71508789 C37.45234848 28.09501358 37.76236298 27.47493927 38.08177185 26.83607483 C39.0449885 24.9100417 40.00878592 22.98429982 40.97265625 21.05859375 C42.40264084 18.1993252 43.82594279 15.33682111 45.24609375 12.47265625 C45.61283203 11.73466797 45.97957031 10.99667969 46.35742188 10.23632812 C47.06478033 8.81265732 47.77057001 7.38820572 48.47460938 5.96289062 C50.8875378 1.1124622 50.8875378 1.1124622 52 0 C53.41570123 -0.08651611 54.835595 -0.10704904 56.25390625 -0.09765625 C57.53491211 -0.09282227 57.53491211 -0.09282227 58.84179688 -0.08789062 C59.73962891 -0.07951172 60.63746094 -0.07113281 61.5625 -0.0625 C62.46419922 -0.05798828 63.36589844 -0.05347656 64.29492188 -0.04882812 C66.53001314 -0.03700225 68.76497437 -0.0205222 71 0 C69.51287456 5.01709163 67.35800736 9.36566335 64.875 13.9375 C64.47466553 14.68402832 64.07433105 15.43055664 63.66186523 16.19970703 C62.83848504 17.73458008 62.0132102 19.26843827 61.18603516 20.80126953 C59.46764634 23.98690346 57.76506722 27.18089166 56.0625 30.375 C55.74273193 30.97352783 55.42296387 31.57205566 55.09350586 32.1887207 C52.35285635 37.32263244 49.64397674 42.47301 46.9375 47.625 C43.95376319 53.30037549 40.96548607 58.97308001 37.9375 64.625 C37.38964844 65.64851563 36.84179688 66.67203125 36.27734375 67.7265625 C35 70 35 70 34 71 C32.29227642 71.08713831 30.58101351 71.10700007 28.87109375 71.09765625 C27.31938477 71.09282227 27.31938477 71.09282227 25.73632812 71.08789062 C24.64771484 71.07951172 23.55910156 71.07113281 22.4375 71.0625 C20.7987793 71.05573242 20.7987793 71.05573242 19.12695312 71.04882812 C16.41791505 71.03699826 13.70898401 71.02051543 11 71 C10.90275635 70.23228271 10.8055127 69.46456543 10.70532227 68.67358398 C9.72761626 61.38547045 8.50842453 54.18627258 7.08984375 46.97265625 C6.9165152 46.08847015 6.74318665 45.20428406 6.56460571 44.29330444 C5.84390223 40.6298825 5.11938949 36.96729799 4.38354492 33.30688477 C2.14778455 22.14993395 0.46722835 11.37880735 0 0 Z " fill="#FFFFFF" transform="translate(1231,284)"/>
<path d="M0 0 C-0.5777905 4.27096492 -2.07534358 7.18835792 -4.375 10.8125 C-5.28378906 12.27623047 -5.28378906 12.27623047 -6.2109375 13.76953125 C-6.80132813 14.50558594 -7.39171875 15.24164063 -8 16 C-11 16 -11 16 -13.125 15 C-17.01764972 13.64603488 -20.92041751 13.28951091 -25 14 C-26.91419106 15.15854713 -26.91419106 15.15854713 -28 17 C-28.33742556 19.11886354 -28.33742556 19.11886354 -27 21 C-24.54541464 22.00278792 -22.29362001 22.75968036 -19.75 23.4375 C-13.42644029 25.125001 -9.3100761 27.13006545 -5.78515625 33.03515625 C-3.03306633 40.75588417 -4.56906696 47.62302836 -7.0625 55.25 C-12.20368316 62.54716319 -19.18608338 68.11969779 -28 70 C-40.97373689 71.27872561 -51.65395881 69.27683296 -62 61 C-60.66189532 58.07289602 -59.14313267 55.83245076 -57 53.4375 C-55.12253722 51.33004803 -53.57778314 49.36667471 -52 47 C-48.58156442 47.41435583 -46.75593024 48.15792749 -43.8125 50.0625 C-38.86694217 53.05586395 -33.2097338 52.7247786 -27.69921875 51.48046875 C-27.13847656 51.32191406 -26.57773437 51.16335938 -26 51 C-25.9071875 49.1128125 -25.9071875 49.1128125 -25.8125 47.1875 C-25.77769531 46.47980469 -25.74289062 45.77210938 -25.70703125 45.04296875 C-25.85012784 42.95239696 -25.85012784 42.95239696 -27.14453125 41.36328125 C-29.59059654 39.56606696 -31.9712314 38.86895819 -34.875 38 C-40.62411606 36.27094254 -44.71620659 34.76955308 -48.3125 29.8125 C-50.74795048 25.07082702 -50.84658321 20.75377347 -49.3046875 15.73828125 C-45.95164664 7.44020953 -41.07999431 1.82736573 -33 -2 C-22.61563275 -6.23851724 -9.9262197 -4.96310985 0 0 Z " fill="#FFFFFF" transform="translate(855,287)"/>
<path d="M0 0 C4.83801979 -0.07463717 9.67569804 -0.12883014 14.51416016 -0.16479492 C16.15712326 -0.17980136 17.80004686 -0.20021312 19.44287109 -0.22631836 C21.81618042 -0.26306359 24.18895625 -0.27980772 26.5625 -0.29296875 C27.28679199 -0.30845261 28.01108398 -0.32393646 28.75732422 -0.33988953 C35.24406018 -0.34198894 40.59560115 1.129912 45.8125 5.1875 C49.77086012 10.27682016 51.34834893 14.6460993 50.8125 21.125 C49.39481295 30.71265675 45.59740041 36.43466907 37.9375 42.375 C31.74654223 45.79978515 26.54026972 46.2683788 19.625 46.125 C18.79355469 46.11597656 17.96210937 46.10695313 17.10546875 46.09765625 C15.07018663 46.0742622 13.03505436 46.03839725 11 46 C10.70996094 47.7015625 10.70996094 47.7015625 10.4140625 49.4375 C10.15119775 50.95836032 9.88816808 52.47919214 9.625 54 C9.43550781 55.11568359 9.43550781 55.11568359 9.2421875 56.25390625 C9.11328125 56.99511719 8.984375 57.73632812 8.8515625 58.5 C8.73635254 59.1703125 8.62114258 59.840625 8.50244141 60.53125 C7.78689963 64.04707042 6.87019245 67.5192302 6 71 C0.06 71 -5.88 71 -12 71 C-11.41343448 64.27843795 -10.47392309 57.79340545 -9.125 51.1875 C-7.68835717 43.9381588 -6.47977074 36.69972511 -5.5 29.375 C-4.16755746 19.46244922 -2.16890316 9.75848198 0 0 Z M15 16 C14.60056824 18.52195967 14.24920152 21.02963656 13.9375 23.5625 C13.84662109 24.27341797 13.75574219 24.98433594 13.66210938 25.71679688 C13.43760497 27.47738403 13.21831603 29.23863478 13 31 C14.89551022 31.05441656 16.7914792 31.09298035 18.6875 31.125 C19.74324219 31.14820313 20.79898437 31.17140625 21.88671875 31.1953125 C25.05522823 30.99653524 27.18862338 30.44874543 30 29 C31.26237731 26.47524538 31.09856404 24.68799534 31.0625 21.875 C31.05347656 20.96492188 31.04445313 20.05484375 31.03515625 19.1171875 C31.02355469 18.41851562 31.01195312 17.71984375 31 17 C27.67849055 15.0039385 25.15909894 14.75600789 21.3125 14.8125 C20.33925781 14.81894531 19.36601563 14.82539063 18.36328125 14.83203125 C16.04410878 14.73749229 16.04410878 14.73749229 15 16 Z " fill="#FFFFFF" transform="translate(1174,284)"/>
<path d="M0 0 C13.2 0 26.4 0 40 0 C38 13 38 13 37 17 C26.605 17.495 26.605 17.495 16 18 C15.67 21.3 15.34 24.6 15 28 C21.27 28 27.54 28 34 28 C32.125 41.625 32.125 41.625 31 45 C24.4 45 17.8 45 11 45 C10.34 48.63 9.68 52.26 9 56 C9.99 55.505 9.99 55.505 11 55 C12.37548156 54.91691362 13.75485796 54.89263984 15.1328125 54.90234375 C15.93847656 54.90556641 16.74414062 54.90878906 17.57421875 54.91210938 C18.83685547 54.92467773 18.83685547 54.92467773 20.125 54.9375 C21.39923828 54.94426758 21.39923828 54.94426758 22.69921875 54.95117188 C24.79950909 54.96297126 26.8997633 54.98090694 29 55 C30 60 30 60 27 72 C13.8 72 0.6 72 -13 72 C-10.71492346 57.14700248 -10.71492346 57.14700248 -9.37890625 50.59375 C-9.08128751 49.10210173 -8.78393344 47.61040063 -8.48681641 46.11865234 C-8.33545227 45.36299988 -8.18408813 44.60734741 -8.02813721 43.82879639 C-5.48291331 31.09934063 -3.1457214 18.40703941 -1.5078125 5.5234375 C-1 2 -1 2 0 0 Z " fill="#FFFFFF" transform="translate(961,284)"/>
<path d="M0 0 C1.64510941 0.00015915 3.29022379 0.00585551 4.93530273 0.01586914 C6.23164894 0.01799156 6.23164894 0.01799156 7.55418396 0.02015686 C10.32578941 0.025773 13.09731528 0.0383282 15.86889648 0.05102539 C17.74324428 0.05603831 19.61759334 0.06060158 21.49194336 0.06469727 C26.09681669 0.07489858 30.70151709 0.09447072 35.30639648 0.11352539 C34.31639648 5.72352539 33.32639648 11.33352539 32.30639648 17.11352539 C25.37639648 17.11352539 18.44639648 17.11352539 11.30639648 17.11352539 C10.97639648 20.41352539 10.64639648 23.71352539 10.30639648 27.11352539 C16.57639648 27.44352539 22.84639648 27.77352539 29.30639648 28.11352539 C27.43139648 40.73852539 27.43139648 40.73852539 26.30639648 44.11352539 C19.70639648 44.11352539 13.10639648 44.11352539 6.30639648 44.11352539 C5.97639648 47.74352539 5.64639648 51.37352539 5.30639648 55.11352539 C11.90639648 55.11352539 18.50639648 55.11352539 25.30639648 55.11352539 C24.64639648 60.72352539 23.98639648 66.33352539 23.30639648 72.11352539 C10.10639648 72.11352539 -3.09360352 72.11352539 -16.69360352 72.11352539 C-15.98927554 65.07024568 -15.18567317 58.20671886 -14.06860352 51.23852539 C-13.90255615 50.20147461 -13.73650879 49.16442383 -13.56542969 48.09594727 C-11.89062132 37.90133351 -9.96663051 27.75644412 -8.00610352 17.61352539 C-7.84994568 16.80014709 -7.69378784 15.9867688 -7.53289795 15.14874268 C-7.08715775 12.83399599 -6.63565271 10.5204602 -6.18188477 8.20727539 C-6.04660873 7.50428314 -5.9113327 6.80129089 -5.7719574 6.07699585 C-4.59295367 0.14116752 -4.59295367 0.14116752 0 0 Z " fill="#FFFFFF" transform="translate(1034.693603515625,283.886474609375)"/>
<path d="M0 0 C18.15 0 36.3 0 55 0 C54.44295592 5.01339669 53.82926937 10.02438378 53 15 C46.73 15 40.46 15 34 15 C33.7525 16.77375 33.505 18.5475 33.25 20.375 C32.95703981 22.40509032 32.66379474 24.4351406 32.36816406 26.46484375 C32.10234442 28.2952623 31.8389781 30.1260377 31.57714844 31.95703125 C29.67451297 45.19064867 27.54100688 58.10061778 24 71 C18.06 71 12.12 71 6 71 C6.44965385 65.15449999 7.24081572 59.55416698 8.4375 53.8125 C9.49758973 48.71689959 10.35644832 43.66463742 11 38.5 C11.94982205 30.89337423 13.42852447 23.50022413 15 16 C9.06 15.67 3.12 15.34 -3 15 C-2.01 10.05 -1.02 5.1 0 0 Z " fill="#FFFFFF" transform="translate(1460,284)"/>
<path d="M0 0 C18.15 0 36.3 0 55 0 C54.44295592 5.01339669 53.82926937 10.02438378 53 15 C46.73 15 40.46 15 34 15 C33.7525 16.794375 33.505 18.58875 33.25 20.4375 C26.81009615 65.37980769 26.81009615 65.37980769 24 71 C18.06 71 12.12 71 6 71 C6.43991889 65.28105437 7.19398467 59.8019603 8.375 54.1875 C9.87520172 46.9938498 10.94748081 39.78089425 11.90966797 32.49682617 C12.6631262 26.91215102 13.70874826 21.48643441 15 16 C9.39 15.67 3.78 15.34 -2 15 C-1.125 3.375 -1.125 3.375 0 0 Z " fill="#FFFFFF" transform="translate(1304,284)"/>
<path d="M0 0 C15.51 0 31.02 0 47 0 C46 15 46 15 45 17 C40.05 17 35.1 17 30 17 C29.90525391 18.55654297 29.90525391 18.55654297 29.80859375 20.14453125 C28.49072716 37.70305044 24.61346605 54.8022204 21 72 C14.73 72 8.46 72 2 72 C3.12159674 61.9056293 3.12159674 61.9056293 4.12109375 57.25 C4.43965332 55.73055786 4.43965332 55.73055786 4.76464844 54.18041992 C4.98668945 53.13088135 5.20873047 52.08134277 5.4375 51 C7.27916795 42.09181799 8.74714648 33.28140611 9.640625 24.23046875 C10 21 10 21 11 17 C6.71 17 2.42 17 -2 17 C-1.45281496 11.29364168 -0.8115976 5.68118323 0 0 Z " fill="#FFFFFF" transform="translate(884,284)"/>
<path d="M0 0 C6.27 0 12.54 0 19 0 C18.56008111 5.71894563 17.80601533 11.1980397 16.625 16.8125 C15.31148814 23.14182432 14.28068656 29.47485257 13.375 35.875 C13.25205566 36.74229736 13.12911133 37.60959473 13.00244141 38.50317383 C12.24070493 43.99345513 11.59010149 49.48867477 11 55 C16.61 55 22.22 55 28 55 C27.125 66.375 27.125 66.375 26 72 C7.19 72.495 7.19 72.495 -12 73 C-10.87603433 59.51241199 -10.87603433 59.51241199 -9.6953125 53.49609375 C-9.57157257 52.8537529 -9.44783264 52.21141205 -9.32034302 51.54960632 C-9.05996381 50.19998394 -8.79696063 48.85086522 -8.53137207 47.5022583 C-7.8380226 43.97938068 -7.16516417 40.45259833 -6.4921875 36.92578125 C-6.36030029 36.23639465 -6.22841309 35.54700806 -6.0925293 34.83673096 C-4.89494716 28.53542899 -3.8694464 22.21645459 -2.90942383 15.87548828 C-2.10021026 10.54296248 -1.12409017 5.27457696 0 0 Z " fill="#FFFFFF" transform="translate(1099,284)"/>
<path d="M0 0 C6.27 0 12.54 0 19 0 C17.77813975 11.45110231 16.10451979 22.67753283 13.91333008 33.98071289 C13.42801045 36.48649606 12.95267214 38.99403587 12.47851562 41.50195312 C12.17244093 43.10427487 11.86582199 44.70649278 11.55859375 46.30859375 C11.41691269 47.05427109 11.27523163 47.79994843 11.1292572 48.56822205 C10.11617234 53.76765532 10.11617234 53.76765532 9 56 C16.26 56 23.52 56 31 56 C30.44295592 61.01339669 29.82926937 66.02438378 29 71 C15.8 71 2.6 71 -11 71 C-9.87491904 54.12378553 -9.87491904 54.12378553 -8.6953125 48.0625 C-8.5706662 47.40902588 -8.4460199 46.75555176 -8.31759644 46.08227539 C-7.92847519 44.05311071 -7.52709332 42.02662872 -7.125 40 C-6.8650651 38.65380397 -6.60594943 37.30744949 -6.34765625 35.9609375 C-5.31949797 30.62646792 -4.27106679 25.2966831 -3.17089844 19.9765625 C-2.90567383 18.68492187 -2.64044922 17.39328125 -2.3671875 16.0625 C-2.1285498 14.91910156 -1.88991211 13.77570313 -1.64404297 12.59765625 C-0.89779864 8.42909808 -0.46765838 4.20892545 0 0 Z " fill="#FFFFFF" transform="translate(1416,284)"/>
<path d="M0 0 C4.31026799 5.0461674 5.43661669 9.9273352 5.33984375 16.421875 C4.61561073 21.91605656 2.51450252 27.77761508 -1.71484375 31.515625 C-3.5 32.5625 -3.5 32.5625 -7 34 C-7.763125 34.4125 -8.52625 34.825 -9.3125 35.25 C-14.89227659 36.80714696 -20.21129045 36.50680104 -25.75 34.9375 C-30.60679141 32.04210512 -34.19495466 28.41513603 -36 23 C-36.81589606 14.90380067 -34.90812739 9.13698502 -29.8125 2.75 C-21.57871027 -6.17570484 -10.09443661 -5.82440059 0 0 Z " fill="#FFFFFF" transform="translate(1690,87)"/>
<path d="M0 0 C4.85838853 4.63904819 7.12961208 8.36289305 7.3125 15.1875 C7.23839638 22.1995552 5.05776238 26.42779702 0.75 31.8125 C-5.52239938 36.8019086 -12.11436687 37.89011121 -20 37 C-24.84637934 36.06117259 -27.94356407 34.54871184 -30.9375 30.5625 C-34.00816718 25.90965855 -34.36803972 21.52059573 -34 16 C-31.9080319 8.41120537 -29.00527975 2.98339437 -22 -1 C-14.59353367 -4.29176281 -7.0179572 -4.10484289 0 0 Z " fill="#FFFFFF" transform="translate(1636,86)"/>
<path d="M0 0 C3.87642943 2.20169642 6.60571682 4.67560588 8.07421875 9.04296875 C9.4493562 16.24221777 9.16806079 22.75751912 5.47265625 29.12890625 C0.85182665 34.62394686 -4.16151632 37.47604987 -11.3828125 38.125 C-16.80422744 38.13487507 -21.6536382 37.15252084 -25.96484375 33.75390625 C-30.24381774 29.37056704 -30.83650613 26.37680447 -30.90234375 20.25390625 C-30.79768989 14.63166815 -30.58850125 11.29159269 -26.52734375 7.12890625 C-18.80966215 -0.2937332 -10.87115187 -3.74693488 0 0 Z " fill="#FFFFFF" transform="translate(1015.52734375,84.87109375)"/>
<path d="M0 0 C3 1.4375 3 1.4375 5 4 C5.80825788 8.71341965 5.6742662 11.9886007 3 16 C2.34 16 1.68 16 1 16 C1 16.66 1 17.32 1 18 C-2.66762608 20.34728069 -5.71698615 20.4430704 -10 20 C-13.81816742 18.16162309 -15.57905677 17.13902286 -17.0625 13.125 C-16.98407876 9.20393781 -16.19183516 7.25240056 -14 4 C-9.28730515 -0.16470708 -6.04130026 -0.76714924 0 0 Z " fill="#FFFFFF" transform="translate(1369,336)"/>
<path d="M0 0 C3.0625 1.9375 3.0625 1.9375 5 5 C5.37912292 8.22546112 5.02549565 10.92351305 4 14 C1.43464804 17.24044458 -0.086805 18.69560167 -4 20 C-8.04132399 20.37419667 -10.30843504 20.39088454 -13.875 18.375 C-16.4733089 15.4710077 -16.92095176 13.87336391 -17 10 C-15.92926805 5.50292581 -13.72582602 3.60807821 -10 1 C-6.76526043 -0.61736978 -3.49669584 -0.56721211 0 0 Z " fill="#FFFFFF" transform="translate(1597,336)"/>
</svg>
