<?xml version="1.0" encoding="UTF-8"?>
<svg version="1.1" xmlns="http://www.w3.org/2000/svg" width="1054" height="876">
<path d="M0 0 C0.65696365 -0.00335861 1.31392731 -0.00671722 1.99079895 -0.01017761 C4.17381659 -0.01971599 6.35675771 -0.02163239 8.53979492 -0.02270508 C10.05336031 -0.02591648 11.56692539 -0.02928047 13.08049011 -0.03279114 C16.25907104 -0.03879021 19.43762475 -0.04063033 22.61621094 -0.04003906 C26.6884638 -0.03993758 30.76054174 -0.05357146 34.83275318 -0.07081127 C37.96144918 -0.0819351 41.09010301 -0.08395813 44.21881676 -0.08342934 C45.7199126 -0.08460958 47.22100953 -0.08903387 48.72208595 -0.0967617 C50.8239625 -0.10656614 52.92546103 -0.10368158 55.02734375 -0.09765625 C56.22345779 -0.09908127 57.41957184 -0.10050629 58.65193176 -0.10197449 C61.6297971 0.13895563 63.17097485 0.67273888 65.70776367 2.14526367 C67.61460119 2.51301091 69.53350525 2.82104459 71.45776367 3.08276367 C75.83047168 3.7603746 79.65946326 4.68131258 83.73510742 6.37182617 C85.92553646 7.23064785 88.12581807 7.8384928 90.39526367 8.45776367 C102.39773682 12.00187294 113.56589448 18.51728879 124.70776367 24.14526367 C126.04067426 24.81277516 127.37375214 25.47995512 128.70776367 26.14526367 C128.70776367 26.80526367 128.70776367 27.46526367 128.70776367 28.14526367 C129.69776367 28.14526367 130.68776367 28.14526367 131.70776367 28.14526367 C131.70776367 28.80526367 131.70776367 29.46526367 131.70776367 30.14526367 C132.78477539 30.52811523 132.78477539 30.52811523 133.88354492 30.91870117 C142.41946507 34.62586428 150.89329965 41.84816677 157.70776367 48.14526367 C157.70776367 48.80526367 157.70776367 49.46526367 157.70776367 50.14526367 C158.28655273 50.39791992 158.8653418 50.65057617 159.46166992 50.91088867 C165.54811617 54.25578783 170.53238785 60.66508291 174.70776367 66.14526367 C174.70776367 66.80526367 174.70776367 67.46526367 174.70776367 68.14526367 C175.36776367 68.14526367 176.02776367 68.14526367 176.70776367 68.14526367 C178.54804028 70.40050461 180.26554056 72.65735096 181.95776367 75.02026367 C182.44994385 75.69903564 182.94212402 76.37780762 183.44921875 77.07714844 C187.16934506 82.26153412 190.59842951 87.56945347 193.70776367 93.14526367 C196.57501054 92.5718143 197.56921518 92.28381217 199.70776367 90.14526367 C200.69776367 90.14526367 201.68776367 90.14526367 202.70776367 90.14526367 C202.70776367 89.48526367 202.70776367 88.82526367 202.70776367 88.14526367 C206.54382294 85.54772267 210.66471908 83.40349818 214.70776367 81.14526367 C215.58174805 80.62319336 216.45573242 80.10112305 217.35620117 79.56323242 C224.17444897 75.58766948 231.23994807 73.03083861 238.69213867 70.53979492 C241.32984183 69.65299994 243.79345619 68.67615161 246.36010742 67.56713867 C254.35723358 64.17045965 263.18687326 62.71235895 271.70776367 61.14526367 C272.59326904 60.97285156 273.47877441 60.80043945 274.39111328 60.62280273 C283.26998611 59.05452555 291.92169132 58.86920334 300.90454102 58.93945312 C303.36379114 58.95799764 305.82266883 58.95996015 308.28198242 58.9597168 C309.85360027 58.96462342 311.42521558 58.97044796 312.99682617 58.97729492 C313.72801666 58.97840775 314.45920715 58.97952057 315.21255493 58.98066711 C318.31235357 59.00981154 320.74421654 59.15741463 323.70776367 60.14526367 C325.41323871 60.3214029 327.12237858 60.46337782 328.83276367 60.58276367 C333.95049576 61.01817282 338.72825531 61.9321032 343.70776367 63.14526367 C344.76479492 63.37342773 345.82182617 63.6015918 346.91088867 63.83666992 C348.04010742 64.08288086 349.16932617 64.3290918 350.33276367 64.58276367 C351.3769043 64.80834961 352.42104492 65.03393555 353.49682617 65.26635742 C357.07997371 66.24714598 360.30777074 67.65285753 363.70776367 69.14526367 C366.10185182 69.98359757 368.49779903 70.81663522 370.89526367 71.64526367 C384.1823512 76.45443753 397.37157814 83.69610131 408.70776367 92.14526367 C408.70776367 92.47526367 408.70776367 92.80526367 408.70776367 93.14526367 C390.55776367 93.14526367 372.40776367 93.14526367 353.70776367 93.14526367 C353.04776367 94.46526367 352.38776367 95.78526367 351.70776367 97.14526367 C342.93991672 110.1987862 329.74482785 127.46370697 313.63647461 130.69165039 C301.07025542 132.3516139 284.98979736 132.81189751 272.70776367 129.14526367 C269.98936794 126.86540965 268.52192902 124.16887258 266.70776367 121.14526367 C264.23611845 117.9674341 261.57383224 117.11178081 257.70776367 116.14526367 C252.44546218 115.67541532 249.15014907 116.2480558 244.70776367 119.14526367 C240.75395385 123.04578765 238.83299957 126.26672518 238.45776367 131.89526367 C238.5289391 136.19742311 239.59441542 139.35581164 241.70776367 143.14526367 C246.56852668 147.76298853 250.6420679 148.51885924 257.14135742 148.41479492 C261.10906866 147.99809466 263.75507578 146.81208909 266.70776367 144.14526367 C267.40024529 142.79021736 268.06169495 141.41901085 268.69677734 140.03613281 C270.30882677 137.39378415 271.06463308 136.33501086 274.06704712 135.44918823 C277.09615338 135.23777743 280.03676476 135.27343617 283.07104492 135.39135742 C284.17699509 135.39708267 285.28294525 135.40280792 286.42240906 135.40870667 C289.9566617 135.42887285 293.48695234 135.50023553 297.02026367 135.58276367 C300.54270454 135.66010846 304.06273132 135.72499943 307.58598328 135.74610901 C309.77573779 135.75930491 311.96560207 135.80425818 314.15388489 135.88560486 C319.23380461 135.91762004 322.79688111 135.67088673 326.80102539 132.37695312 C329.94509573 129.2144528 332.68180158 125.73782719 335.484375 122.27319336 C343.79120599 112.14306591 351.60879417 103.29596231 365.23634529 101.90384674 C372.84900709 101.40046133 380.44742026 101.7766792 388.05004883 102.26416016 C391.21629267 102.4411613 394.38090004 102.50923492 397.55115032 102.573246 C401.35848689 102.6515632 405.16386868 102.77322728 408.96948242 102.91088867 C409.68382635 102.93659187 410.39817028 102.96229507 411.134161 102.98877716 C413.15286717 103.07297866 415.17008056 103.19091593 417.18701172 103.31030273 C418.32929733 103.3738092 419.47158295 103.43731567 420.64848328 103.50274658 C424.28456496 104.2664048 426.08631735 105.54842011 428.70776367 108.14526367 C428.70776367 108.80526367 428.70776367 109.46526367 428.70776367 110.14526367 C429.36776367 110.14526367 430.02776367 110.14526367 430.70776367 110.14526367 C430.70776367 110.80526367 430.70776367 111.46526367 430.70776367 112.14526367 C431.30073242 112.40307617 431.89370117 112.66088867 432.50463867 112.92651367 C436.42776716 115.09675497 438.88629322 118.72582726 441.70776367 122.14526367 C442.29299805 122.83233398 442.87823242 123.5194043 443.48120117 124.22729492 C454.21502511 137.15770309 463.34368696 150.94499127 469.95581055 166.40063477 C470.92627569 168.65223994 471.97859632 170.86339032 473.02026367 173.08276367 C474.7559746 177.0073136 475.95302076 181.04429493 477.09448242 185.17651367 C477.53484827 187.12728415 477.53484827 187.12728415 478.70776367 188.14526367 C478.7485715 190.14484731 478.75030723 192.14571621 478.70776367 194.14526367 C479.36776367 194.14526367 480.02776367 194.14526367 480.70776367 194.14526367 C481.03776367 197.11526367 481.36776367 200.08526367 481.70776367 203.14526367 C467.80769772 204.07421437 453.91048639 204.51739728 439.98046875 204.66015625 C437.56679574 204.69220707 435.15328889 204.74036644 432.74023438 204.80371094 C429.21189998 204.89454592 425.68630513 204.93363927 422.15698242 204.96166992 C420.54142708 205.01889977 420.54142708 205.01889977 418.89323425 205.07728577 C415.95315255 205.06959281 413.5244748 204.99318735 410.70776367 204.14526367 C408.87436693 202.24149352 407.84959999 200.5162598 406.77131653 198.11070251 C405.15509765 195.12394041 402.87183947 194.05906698 399.82104492 192.76635742 C394.97769648 191.34289642 391.09707681 191.5423542 386.39526367 193.58276367 C385.50838867 194.09838867 384.62151367 194.61401367 383.70776367 195.14526367 C382.71776367 195.47526367 381.72776367 195.80526367 380.70776367 196.14526367 C377.80540583 201.71110216 376.50597073 208.13928719 378.32885742 214.21557617 C380.33247625 219.04207131 382.73437396 221.51556127 387.56713867 223.52026367 C392.72699193 225.02679017 396.93780163 224.72869988 401.89526367 222.64526367 C405.11583031 220.8711807 406.29236334 219.33320021 407.84692383 216.04003906 C410.05734032 212.37665685 410.05734032 212.37665685 412.70965576 211.43307495 C415.27163382 211.19749349 417.72283111 211.22098885 420.29370117 211.32885742 C421.27074509 211.33735214 422.247789 211.34584686 423.25444031 211.354599 C426.53234545 211.39249634 429.80605847 211.48761103 433.08276367 211.58276367 C435.39837949 211.62170097 437.71406019 211.656931 440.02978516 211.6887207 C445.11267298 211.76450159 450.19443358 211.86414777 455.27661133 211.9777832 C463.5754478 212.15930797 471.87426616 212.23897853 480.17469025 212.30817604 C486.58341398 212.36294986 492.9920275 212.43014098 499.4006424 212.49626541 C501.75965965 212.52015628 504.11868889 212.54242214 506.47772217 212.56466675 C510.23550006 212.60132452 513.99302721 212.64841551 517.75058937 212.7027607 C519.13498823 212.72135626 520.51943362 212.73682066 521.90390587 212.74876213 C533.06745646 212.84822193 543.46964388 213.4053934 553.70776367 218.14526367 C555.26415146 218.62394181 556.82744203 219.08047852 558.39526367 219.52026367 C574.71306172 224.3497465 589.64291573 233.14982319 603.95776367 242.20776367 C604.84310791 242.76222168 604.84310791 242.76222168 605.74633789 243.32788086 C607.10543245 244.21019461 608.41352354 245.17029801 609.70776367 246.14526367 C609.70776367 246.80526367 609.70776367 247.46526367 609.70776367 248.14526367 C612.18276367 249.13526367 612.18276367 249.13526367 614.70776367 250.14526367 C614.70776367 250.80526367 614.70776367 251.46526367 614.70776367 252.14526367 C615.2878418 252.40694336 615.86791992 252.66862305 616.46557617 252.93823242 C618.83875122 254.21577787 620.58784797 255.65112314 622.58276367 257.45776367 C625.07551494 259.69843897 627.5858012 261.87013478 630.20776367 263.95776367 C631.03276367 264.67963867 631.85776367 265.40151367 632.70776367 266.14526367 C632.70776367 266.80526367 632.70776367 267.46526367 632.70776367 268.14526367 C633.36776367 268.14526367 634.02776367 268.14526367 634.70776367 268.14526367 C636.10649492 269.64950266 637.42571636 271.22791517 638.70776367 272.83276367 C639.5044043 273.82791992 640.30104492 274.82307617 641.12182617 275.84838867 C645.36725635 281.24219958 649.5546003 286.68018046 653.70776367 292.14526367 C654.2981543 292.86842773 654.88854492 293.5915918 655.49682617 294.33666992 C656.70776367 296.14526367 656.70776367 296.14526367 656.70776367 299.14526367 C657.36776367 299.14526367 658.02776367 299.14526367 658.70776367 299.14526367 C659.36776367 300.79526367 660.02776367 302.44526367 660.70776367 304.14526367 C619.45776367 304.14526367 578.20776367 304.14526367 535.70776367 304.14526367 C535.70776367 304.80526367 535.70776367 305.46526367 535.70776367 306.14526367 C530.61271421 306.15838382 525.51766287 306.16992717 520.42260742 306.18041992 C519.62762974 306.18206272 518.83265205 306.18370552 518.01358414 306.1853981 C508.25266138 306.2045182 498.49188427 306.21053517 488.73095703 306.19140625 C487.36816101 306.18877352 487.36816101 306.18877352 485.97783375 306.18608761 C482.2753239 306.17867496 478.57281584 306.17093502 474.87030983 306.16178703 C464.42207112 306.13652051 453.97607597 306.14305961 443.5282774 306.24799061 C437.65084592 306.3059328 431.77405873 306.32879954 425.89634418 306.32244396 C422.51323352 306.32050167 419.13275847 306.33788197 415.75021362 306.40261841 C394.02058828 306.76526859 394.02058828 306.76526859 389.2800293 302.86914062 C386.97254759 300.07134303 385.35979155 297.36274668 383.70776367 294.14526367 C382.01740623 292.06539809 382.01740623 292.06539809 380.23120117 290.28979492 C379.44797485 289.45629517 379.44797485 289.45629517 378.64892578 288.60595703 C378.13209229 288.06205322 377.61525879 287.51814941 377.08276367 286.95776367 C375.96606446 285.76842307 374.85017233 284.57832415 373.73510742 283.38745117 C373.21287598 282.83025391 372.69064453 282.27305664 372.15258789 281.69897461 C364.58797988 273.56427279 364.58797988 273.56427279 362.10810852 269.56643677 C359.84745648 266.80957301 359.84745648 266.80957301 356.16081238 266.58004761 C354.71942739 266.58132903 353.27790866 266.6100628 351.83740234 266.66040039 C351.0482695 266.66758591 350.25913666 266.67477142 349.4460907 266.68217468 C347.73482845 266.70006957 346.02365389 266.72898429 344.3127346 266.76763535 C341.6006359 266.8254865 338.89048013 266.84714704 336.17781067 266.85818481 C328.46771775 266.89437876 320.75910556 266.98235799 313.05029297 267.12768555 C308.33144267 267.21409886 303.61467816 267.24676285 298.89507484 267.24640274 C297.10036595 267.25704328 295.30565337 267.2882414 293.5116787 267.34066391 C279.40497781 267.74625231 279.40497781 267.74625231 275.16445923 263.74615479 C273.32617188 260.7980957 273.32617188 260.7980957 272.01655579 257.86013794 C269.5021883 252.64449558 264.68606951 250.37913323 259.52026367 248.23901367 C253.2479983 246.35733406 247.60884695 247.503247 241.70776367 250.14526367 C234.87794361 254.82599703 230.47888725 259.97084717 228.70776367 268.14526367 C227.94757381 276.00055888 230.26023207 282.1360008 234.95776367 288.45776367 C239.92317285 293.31032264 245.40149714 295.76853063 252.35229492 296.23510742 C259.83778685 295.94959115 265.35204009 293.22016237 270.91870117 288.35229492 C272.60644159 286.27025707 273.64886262 284.401891 274.81958008 282.00732422 C275.17468658 281.28473923 275.52979309 280.56215424 275.8956604 279.81767273 C276.16365448 279.26577774 276.43164856 278.71388275 276.70776367 278.14526367 C286.49537249 277.87510607 296.28317438 277.63818005 306.07258701 277.44323921 C310.61863394 277.35167628 315.16383241 277.24883456 319.70898438 277.11987305 C324.09830221 276.99575379 328.48734401 276.90171179 332.87779045 276.82818222 C334.54969778 276.79495729 336.22142906 276.75103779 337.89276314 276.69607925 C352.64067978 276.22278842 352.64067978 276.22278842 357.17089844 280.04418945 C358.59962463 281.65188599 358.59962463 281.65188599 359.70776367 283.14526367 C360.33424805 283.80010742 360.96073242 284.45495117 361.60620117 285.12963867 C362.0934668 285.71229492 362.58073242 286.29495117 363.08276367 286.89526367 C365.74519332 290.02332003 368.45145131 293.09930493 371.20776367 296.14526367 C382.30070354 308.44354845 382.30070354 308.44354845 383.69777107 310.85189915 C385.91268682 314.20820743 387.60198788 315.90173217 391.60264206 316.78281975 C395.372854 317.00879491 399.110019 317.01186241 402.88305664 316.93994141 C404.33219812 316.93796542 405.7813466 316.9390781 407.23048401 316.94303894 C411.15417504 316.9450438 415.07636186 316.90395153 418.99970388 316.85502124 C423.10357588 316.81119997 427.2074841 316.80714529 431.31155396 316.79884338 C439.07840764 316.7771045 446.8445699 316.71968635 454.61111939 316.64939696 C463.45500689 316.57109841 472.29892777 316.53265326 481.1430757 316.49752891 C499.33169673 316.42440166 517.51967457 316.30131284 535.70776367 316.14526367 C535.70776367 316.80526367 535.70776367 317.46526367 535.70776367 318.14526367 C579.59776367 318.14526367 623.48776367 318.14526367 668.70776367 318.14526367 C669.03776367 319.79526367 669.36776367 321.44526367 669.70776367 323.14526367 C670.36776367 323.14526367 671.02776367 323.14526367 671.70776367 323.14526367 C671.98491211 323.99991211 672.26206055 324.85456055 672.54760742 325.73510742 C672.90983398 326.83983398 673.27206055 327.94456055 673.64526367 329.08276367 C674.00491211 330.18491211 674.36456055 331.28706055 674.73510742 332.42260742 C675.44633036 335.02649843 675.44633036 335.02649843 676.70776367 336.14526367 C676.74840199 337.81143482 676.75048467 339.47914462 676.70776367 341.14526367 C677.36776367 341.14526367 678.02776367 341.14526367 678.70776367 341.14526367 C678.90112305 342.00249023 679.09448242 342.8597168 679.29370117 343.74291992 C680.88888268 350.79323251 680.88888268 350.79323251 682.77026367 357.77026367 C683.85639735 361.68034492 684.55877624 365.59704785 685.24291992 369.59448242 C685.64406976 371.79575002 686.16508512 373.97454945 686.70776367 376.14526367 C663.60776367 376.14526367 640.50776367 376.14526367 616.70776367 376.14526367 C615.05776367 373.17526367 613.40776367 370.20526367 611.70776367 367.14526367 C606.47635752 361.67606634 600.60096757 359.56239266 593.20776367 358.77026367 C584.73970209 359.67755598 578.30104508 362.5649326 572.70776367 369.14526367 C568.9887195 375.57959615 567.93092776 382.97211129 569.70776367 390.14526367 C572.09861012 397.14548977 576.350401 402.25869427 582.95776367 405.64526367 C589.73539821 408.22721969 596.68012913 408.22721969 603.45776367 405.64526367 C609.72666355 402.4939316 613.62636873 397.30805356 616.70776367 391.14526367 C639.80776367 391.14526367 662.90776367 391.14526367 686.70776367 391.14526367 C686.76963867 400.67401367 686.76963867 400.67401367 686.83276367 410.39526367 C686.85097168 412.39492188 686.86917969 414.39458008 686.88793945 416.45483398 C686.8937821 418.04434948 686.8988782 419.63386798 686.90307617 421.22338867 C686.91842407 422.45581299 686.91842407 422.45581299 686.93408203 423.71313477 C686.93531472 427.74897103 686.90595715 430.63300152 684.70776367 434.14526367 C684.35604587 436.26115333 684.07177211 438.38869866 683.83276367 440.52026367 C682.57622308 450.07396117 679.77964099 459.03934162 676.70776367 468.14526367 C676.04776367 468.14526367 675.38776367 468.14526367 674.70776367 468.14526367 C674.58401367 469.17651367 674.46026367 470.20776367 674.33276367 471.27026367 C673.76886553 474.76643213 672.92094308 477.82923994 671.70776367 481.14526367 C671.04776367 481.14526367 670.38776367 481.14526367 669.70776367 481.14526367 C669.70776367 482.46526367 669.70776367 483.78526367 669.70776367 485.14526367 C669.04776367 485.14526367 668.38776367 485.14526367 667.70776367 485.14526367 C667.53374023 485.9728418 667.53374023 485.9728418 667.35620117 486.81713867 C664.22665296 498.05334791 656.39805307 507.80949314 649.70776367 517.14526367 C649.05678711 518.06823242 648.40581055 518.99120117 647.73510742 519.94213867 C646.45168751 521.72063702 645.09079333 523.44307332 643.70776367 525.14526367 C643.04776367 525.14526367 642.38776367 525.14526367 641.70776367 525.14526367 C641.48088867 525.68795898 641.25401367 526.2306543 641.02026367 526.78979492 C639.31506292 529.85002126 637.08054901 532.28566455 634.70776367 534.83276367 C634.21646973 535.36240723 633.72517578 535.89205078 633.21899414 536.43774414 C626.61241637 543.47329289 619.41971046 549.69609345 611.83276367 555.64526367 C611.28507324 556.07919434 610.73738281 556.513125 610.1730957 556.96020508 C607.43505718 559.06463395 605.17648491 560.67606466 601.70776367 561.14526367 C601.70776367 561.80526367 601.70776367 562.46526367 601.70776367 563.14526367 C600.71776367 563.14526367 599.72776367 563.14526367 598.70776367 563.14526367 C598.70776367 563.80526367 598.70776367 564.46526367 598.70776367 565.14526367 C597.71776367 565.14526367 596.72776367 565.14526367 595.70776367 565.14526367 C595.70776367 565.80526367 595.70776367 566.46526367 595.70776367 567.14526367 C592.89942942 568.5494308 590.09098134 569.95336384 587.28198242 571.35620117 C584.86573132 572.56564708 582.45152891 573.77846812 580.03979492 574.99682617 C579.12834717 575.45593384 579.12834717 575.45593384 578.19848633 575.92431641 C576.47567123 576.79225507 574.75380324 577.66207295 573.03198242 578.53198242 C562.60820861 583.59075867 562.60820861 583.59075867 557.70776367 583.14526367 C557.70776367 583.80526367 557.70776367 584.46526367 557.70776367 585.14526367 C556.53020508 585.43530273 556.53020508 585.43530273 555.32885742 585.73120117 C550.87424388 586.83528944 546.43067586 587.93696694 542.02026367 589.20776367 C538.54605097 590.19103142 535.06363377 590.95533099 531.52807617 591.68041992 C529.70080025 591.98217208 529.70080025 591.98217208 528.70776367 593.14526367 C526.4162495 593.23317342 524.12203843 593.25220406 521.82885742 593.24291992 C521.14219498 593.24150497 520.45553253 593.24009003 519.74806213 593.2386322 C517.54708566 593.23301846 515.34620958 593.22046374 513.14526367 593.20776367 C511.65633285 593.20275044 510.16740043 593.19818722 508.6784668 593.1940918 C505.02153292 593.1830446 501.36465809 593.1657708 497.70776367 593.14526367 C497.70776367 592.81526367 497.70776367 592.48526367 497.70776367 592.14526367 C501.66776367 591.81526367 505.62776367 591.48526367 509.70776367 591.14526367 C509.6230481 589.07245117 509.6230481 589.07245117 509.53662109 586.95776367 C509.33311802 581.80730232 509.16437743 576.65617626 509.00585938 571.50415039 C508.93258965 569.27888564 508.8500248 567.05390601 508.7578125 564.8293457 C508.62652384 561.62245877 508.52923791 558.41601632 508.43823242 555.20776367 C508.39055222 554.22098633 508.34287201 553.23420898 508.29374695 552.2175293 C508.15399037 545.77471998 509.17192132 540.96999492 513.70776367 536.14526367 C514.36776367 536.14526367 515.02776367 536.14526367 515.70776367 536.14526367 C516.00432861 536.99008301 516.30089355 537.83490234 516.60644531 538.70532227 C517.99131979 542.64472328 519.37952818 546.58292852 520.77026367 550.52026367 C521.01942535 551.22589447 521.26858704 551.93152527 521.52529907 552.65853882 C524.78689758 561.88241999 528.11397538 571.06658056 531.77636719 580.14086914 C533.70776367 584.95527788 533.70776367 584.95527788 533.70776367 587.14526367 C535.87480884 586.68872326 538.04138097 586.22993731 540.20776367 585.77026367 C542.01760742 585.38741211 542.01760742 585.38741211 543.86401367 584.99682617 C547.83378766 584.11734372 551.76754004 583.1477542 555.70776367 582.14526367 C550.40586003 567.48959506 544.3627612 553.15603037 538.29516602 538.80395508 C537.3583425 536.58774067 536.42324727 534.3707948 535.48999023 532.15307617 C534.61195255 530.06670049 533.72996439 527.98198171 532.84350586 525.89916992 C532.24844238 524.4837793 532.24844238 524.4837793 531.64135742 523.03979492 C531.11626587 521.79999878 531.11626587 521.79999878 530.58056641 520.53515625 C529.6697548 518.04118846 529.01763609 515.78468867 528.70776367 513.14526367 C529.93108088 510.59464728 531.18735677 508.38441603 532.70776367 506.02026367 C533.62817104 504.52646831 534.54454917 503.03018587 535.45776367 501.53198242 C535.96952148 500.6945752 536.4812793 499.85716797 537.00854492 498.99438477 C540.37491266 493.34991472 543.52802557 487.58366011 546.70776367 481.83276367 C547.37300588 480.63396529 548.03836813 479.4352335 548.70385742 478.23657227 C552.31667963 471.74935551 552.31667963 471.74935551 555.70776367 465.14526367 C555.04776367 464.15526367 554.38776367 463.16526367 553.70776367 462.14526367 C551.58081702 461.72999243 551.58081702 461.72999243 549.13745117 461.85229492 C548.24155273 461.86196289 547.3456543 461.87163086 546.42260742 461.8815918 C545.01688477 461.91929687 545.01688477 461.91929687 543.58276367 461.95776367 C542.16543945 461.97806641 542.16543945 461.97806641 540.71948242 461.9987793 C538.38167588 462.03420061 536.0450013 462.08359096 533.70776367 462.14526367 C532.72504805 464.00850988 531.74252251 465.8718565 530.76074219 467.7355957 C529.88216442 469.4025394 529.00241844 471.06886784 528.12158203 472.73461914 C525.53525192 477.6352711 522.98519055 482.55162061 520.47729492 487.49291992 C519.94330078 488.53762451 519.40930664 489.5823291 518.85913086 490.65869141 C517.8089166 492.71538789 516.7664463 494.77605908 515.73217773 496.84082031 C515.25103516 497.77917725 514.76989258 498.71753418 514.27416992 499.68432617 C513.85079346 500.5217334 513.42741699 501.35914063 512.99121094 502.22192383 C511.70776367 504.14526367 511.70776367 504.14526367 508.70776367 505.14526367 C508.71109459 503.57005699 508.71109459 503.57005699 508.7144928 501.96302795 C508.73472382 492.08880786 508.74973562 482.21459195 508.75957584 472.34035587 C508.76480477 467.26335349 508.77190259 462.18636778 508.78320312 457.109375 C508.79403166 452.21405815 508.80004043 447.31875738 508.80264091 442.42342949 C508.80449523 440.55143417 508.80811595 438.67943977 508.81349373 436.80745125 C508.82070372 434.19485668 508.82175463 431.5823294 508.82128906 428.96972656 C508.82488434 428.1878598 508.82847961 427.40599304 508.83218384 426.60043335 C509.15060329 423.08003548 509.15060329 423.08003548 507.70776367 420.14526367 C506.30427632 420.04666236 504.8959589 420.01447431 503.48901367 420.01245117 C502.63952148 420.01116211 501.7900293 420.00987305 500.91479492 420.00854492 C500.02147461 420.01241211 499.1281543 420.0162793 498.20776367 420.02026367 C497.31444336 420.01639648 496.42112305 420.0125293 495.50073242 420.00854492 C494.22649414 420.01047852 494.22649414 420.01047852 492.92651367 420.01245117 C492.14211914 420.0135791 491.35772461 420.01470703 490.54956055 420.01586914 C488.69023379 419.94418925 488.69023379 419.94418925 487.70776367 421.14526367 C487.60638461 423.33025176 487.57698313 425.51858061 487.5740509 427.70591736 C487.57178535 428.39956455 487.56951979 429.09321175 487.56718558 429.80787855 C487.56081791 432.14944212 487.5616767 434.49094822 487.5625 436.83251953 C487.55951023 438.50427832 487.55610813 440.17603641 487.55232239 441.84779358 C487.54345969 446.40144611 487.54114333 450.95507987 487.5405066 455.50874019 C487.53955941 459.30370012 487.53588332 463.09865563 487.53233451 466.89361387 C487.52418135 475.84330344 487.52175106 484.79298293 487.52246094 493.74267578 C487.52306199 502.9897593 487.5125067 512.23678452 487.49671727 521.48385328 C487.48366325 529.40995654 487.47827614 537.3360407 487.47891635 545.26215464 C487.47917196 550.00181121 487.47628597 554.74141602 487.4657383 559.48106194 C487.45609315 563.93710611 487.45595334 568.39304865 487.46325493 572.8490963 C487.46430525 574.48822934 487.46191157 576.1273686 487.45589447 577.76649094 C487.44823433 579.99699091 487.45277914 582.22713464 487.46052551 584.45762634 C487.45970836 586.33337042 487.45970836 586.33337042 487.4588747 588.24700832 C487.4052775 591.27211974 487.4052775 591.27211974 489.70776367 593.14526367 C476.17776367 593.14526367 462.64776367 593.14526367 448.70776367 593.14526367 C450.35776367 591.82526367 452.00776367 590.50526367 453.70776367 589.14526367 C459.8234115 583.6120585 462.4272153 578.15837285 462.88476562 569.98242188 C462.93953696 566.82161402 462.98430058 563.66124492 463.00292969 560.5 C463.0144106 559.14735419 463.03480093 557.7947523 463.06445312 556.44238281 C463.31798502 544.84931806 462.11519479 535.78379175 453.95581055 527.11499023 C448.70988541 522.51853889 442.59500424 519.04570894 436.65795898 515.42163086 C434.91155192 514.34934265 433.17683972 513.25979088 431.44213867 512.16870117 C430.41314453 511.53883301 429.38415039 510.90896484 428.32397461 510.26000977 C425.2849456 507.80348968 424.11853798 505.76491254 422.70776367 502.14526367 C422.42381883 499.35870696 422.28615976 496.85569624 422.33276367 494.08276367 C422.32116211 493.38860352 422.30956055 492.69444336 422.29760742 491.97924805 C422.32298706 487.52512112 422.95586902 484.66588007 425.70776367 481.14526367 C429.22029513 478.80357603 430.57245723 478.6490269 434.70776367 479.14526367 C438.04537412 481.29616819 439.442473 482.34939166 440.70776367 486.14526367 C440.96651668 489.6024913 441.15064409 493.05382811 441.31323242 496.51635742 C441.17896722 500.13319488 441.17896722 500.13319488 442.70776367 503.14526367 C444.26949112 503.2321197 445.83505711 503.25228587 447.39916992 503.24291992 C448.81552734 503.23808594 448.81552734 503.23808594 450.26049805 503.2331543 C451.75033203 503.22058594 451.75033203 503.22058594 453.27026367 503.20776367 C454.26735352 503.20325195 455.26444336 503.19874023 456.29174805 503.1940918 C458.76381216 503.18226374 461.23575885 503.16578216 463.70776367 503.14526367 C463.59257186 500.16543343 463.46585565 497.18680576 463.33276367 494.20776367 C463.30182617 493.37696289 463.27088867 492.54616211 463.23901367 491.69018555 C462.77894829 481.83711863 461.33978846 473.772858 454.70776367 466.14526367 C447.7649656 460.1360937 437.56038053 459.72204943 428.80151367 459.89135742 C421.27963887 460.508683 413.43770454 461.97434143 407.70776367 467.14526367 C401.2141729 475.31227279 400.36049286 483.90891094 400.39526367 494.02026367 C400.37915039 494.94967773 400.36303711 495.8790918 400.34643555 496.83666992 C400.33950645 506.77299623 402.42417169 515.56949149 409.40307617 522.93432617 C414.72006837 528.00871797 420.66412457 531.80938562 426.94702148 535.55639648 C439.01279917 542.7934961 439.01279917 542.7934961 441.24291992 549.77416992 C442.7014377 557.21383626 442.29568337 565.0284845 439.70776367 572.14526367 C437.83168813 574.54664037 436.56641719 575.02033986 433.58666992 575.45385742 C429.66236784 575.66650433 427.45003793 575.68341251 424.20776367 573.33276367 C420.86563465 568.45882552 421.35328972 562.81885403 421.10229492 557.12963867 C421.27130809 553.32462395 421.27130809 553.32462395 419.70776367 550.14526367 C418.14603622 550.05840764 416.58047023 550.03824148 415.01635742 550.04760742 C414.07211914 550.05083008 413.12788086 550.05405273 412.1550293 550.05737305 C411.16180664 550.06575195 410.16858398 550.07413086 409.14526367 550.08276367 C408.14817383 550.08727539 407.15108398 550.09178711 406.1237793 550.09643555 C403.65171519 550.1082636 401.17976849 550.12474518 398.70776367 550.14526367 C398.44267196 570.96791278 398.44267196 570.96791278 407.92260742 588.61791992 C410.03888781 590.42856682 411.99517492 591.4876664 414.70776367 592.14526367 C414.70776367 592.47526367 414.70776367 592.80526367 414.70776367 593.14526367 C397.54776367 593.14526367 380.38776367 593.14526367 362.70776367 593.14526367 C365.70776367 591.14526367 365.70776367 591.14526367 368.58276367 589.58276367 C374.49407628 584.97193984 376.66867576 579.79636713 377.71118164 572.40405273 C378.11763669 568.98983035 378.4274587 565.5718661 378.70776367 562.14526367 C378.87405273 560.31415039 378.87405273 560.31415039 379.04370117 558.44604492 C379.28592977 555.68005623 379.50322468 552.91420295 379.70776367 550.14526367 C376.22861426 550.11638553 372.74949537 550.0985068 369.27026367 550.08276367 C368.27704102 550.07438477 367.28381836 550.06600586 366.26049805 550.05737305 C365.31625977 550.05415039 364.37202148 550.05092773 363.39916992 550.04760742 C362.52462158 550.04237061 361.65007324 550.03713379 360.74902344 550.03173828 C358.71336161 549.91741559 358.71336161 549.91741559 357.70776367 551.14526367 C357.50355019 554.42402459 357.36173977 557.69545163 357.27807617 560.97924805 C357.06906249 565.69511932 356.29366386 569.05807073 353.70776367 573.14526367 C350.57841656 575.23149508 349.4642208 575.51280931 345.83276367 575.64526367 C344.9897168 575.69682617 344.14666992 575.74838867 343.27807617 575.80151367 C340.12085428 574.99541446 338.76268694 573.46671975 336.76379395 570.95440674 C334.94340546 567.83579992 335.09245548 564.61496712 335.21948242 561.12182617 C335.22451782 560.45948975 335.22955322 559.79715332 335.23474121 559.11474609 C335.26068877 556.6661381 335.33049561 554.21815245 335.39526367 551.77026367 C335.49838867 546.28401367 335.60151367 540.79776367 335.70776367 535.14526367 C349.56776367 534.81526367 363.42776367 534.48526367 377.70776367 534.14526367 C378.69190056 531.192853 378.82087689 529.33902949 378.79296875 526.26586914 C378.78578323 525.27408661 378.77859772 524.28230408 378.77119446 523.26046753 C378.75670761 522.18862213 378.74222076 521.11677673 378.72729492 520.01245117 C378.70610847 518.35283859 378.70610847 518.35283859 378.68449402 516.65969849 C378.65135462 514.31434576 378.61499586 511.96903667 378.57568359 509.6237793 C378.52080395 506.05539337 378.49200467 502.48738226 378.46362305 498.91870117 C378.42813814 496.63742533 378.39107857 494.35617332 378.35229492 492.07495117 C378.34574638 490.48540115 378.34574638 490.48540115 378.33906555 488.86373901 C378.15044312 480.55565983 376.03960093 474.78018646 371.58276367 467.83276367 C363.86562637 460.61891793 353.34813512 459.81109519 343.22338867 459.93823242 C334.49478943 460.45224993 326.6660121 461.76859013 320.29370117 468.11401367 C314.5582896 475.459861 313.5596274 483.47403627 313.54663086 492.54052734 C313.54166595 493.37375519 313.53670105 494.20698303 313.53158569 495.06546021 C313.51701381 497.81472611 313.51016959 500.56393428 313.50463867 503.31323242 C313.49888217 505.23269145 313.4931245 507.15215048 313.48736572 509.0716095 C313.4768692 513.09559394 313.47101803 517.11955849 313.4675293 521.14355469 C313.4620541 526.28009849 313.43804116 531.41637595 313.40955734 536.55283642 C313.39085896 540.51901497 313.38572149 544.48513036 313.38419342 548.45134926 C313.3811815 550.34382899 313.37320276 552.236308 313.36000824 554.12874413 C312.95855657 571.76952442 312.95855657 571.76952442 320.70776367 587.14526367 C322.78358586 588.6114874 324.88493682 589.91669889 327.09838867 591.16479492 C327.62948242 591.48834961 328.16057617 591.8119043 328.70776367 592.14526367 C328.70776367 592.47526367 328.70776367 592.80526367 328.70776367 593.14526367 C306.26776367 593.14526367 283.82776367 593.14526367 260.70776367 593.14526367 C260.70776367 592.81526367 260.70776367 592.48526367 260.70776367 592.14526367 C261.26463867 592.05889648 261.82151367 591.9725293 262.39526367 591.88354492 C269.53945771 590.56814433 274.73858809 587.95394328 280.02026367 582.95776367 C284.82454385 574.95063004 285.14742699 566.46374347 285.11181641 557.34277344 C285.11867966 556.10077179 285.12554291 554.85877014 285.13261414 553.57913208 C285.14768983 550.20080621 285.14940118 546.82303635 285.14367175 543.4447186 C285.1405618 540.61196082 285.14669224 537.77925197 285.1527105 534.9465012 C285.166713 528.25774901 285.16523013 521.56912466 285.15380859 514.88037109 C285.1423303 508.00698355 285.15640768 501.13398635 285.18320507 494.26065022 C285.20543884 488.33333409 285.21198229 482.4061398 285.20612866 476.47878498 C285.20277628 472.95006668 285.20505839 469.42159848 285.22237968 465.89291573 C285.24087364 461.95417386 285.22658298 458.01590366 285.20947266 454.07714844 C285.22397461 452.35066826 285.22397461 452.35066826 285.23876953 450.58930969 C285.16028419 441.92128052 283.4522343 434.53187097 278.82104492 427.12963867 C276.32231157 424.78332343 274.07888946 423.65400147 270.89526367 422.39526367 C269.4005957 421.78424805 269.4005957 421.78424805 267.87573242 421.16088867 C261.3432588 419.06663079 254.57341571 418.89834715 247.77026367 418.58276367 C246.89563477 418.53958008 246.02100586 418.49639648 245.11987305 418.4519043 C242.98264372 418.34679466 240.84522129 418.24562382 238.70776367 418.14526367 C238.47814941 417.05511963 238.24853516 415.96497559 238.01196289 414.84179688 C232.08370574 387.08970206 232.08370574 387.08970206 221.58276367 360.83276367 C221.02186035 359.7110376 220.46095703 358.58931152 219.88305664 357.43359375 C212.34837562 343.04512906 202.86980575 329.39330409 191.84448242 317.46948242 C189.98476239 315.44656941 188.21838732 313.37866483 186.45776367 311.27026367 C170.96627371 293.57079123 150.57277869 278.81353406 129.70776367 268.14526367 C128.71260742 267.61674805 127.71745117 267.08823242 126.69213867 266.54370117 C93.84762387 249.49879894 60.3883235 242.00196733 23.70776367 239.14526367 C23.70776367 238.48526367 23.70776367 237.82526367 23.70776367 237.14526367 C19.74776367 237.14526367 15.78776367 237.14526367 11.70776367 237.14526367 C11.70776367 237.80526367 11.70776367 238.46526367 11.70776367 239.14526367 C10.73540771 239.31131104 9.76305176 239.4773584 8.76123047 239.6484375 C5.10175409 240.27484362 1.44354281 240.90839442 -2.21435547 241.54394531 C-3.78792013 241.81635795 -5.36180728 242.08691527 -6.93603516 242.35546875 C-35.10159767 247.16466019 -62.71900292 256.45134548 -87.29223633 271.14526367 C-88.83016568 271.98547428 -90.37139222 272.81970535 -91.91723633 273.64526367 C-101.37120232 278.88967152 -110.00010114 285.23927645 -118.29223633 292.14526367 C-119.3002832 292.96768555 -120.30833008 293.79010742 -121.34692383 294.63745117 C-159.14168214 325.73831496 -182.46070774 368.10136504 -190.83081055 416.05419922 C-191.29223633 418.14526367 -191.29223633 418.14526367 -192.29223633 419.14526367 C-193.80898753 419.25423269 -195.33030065 419.30107765 -196.85083008 419.32104492 C-197.79506836 419.34489258 -198.73930664 419.36874023 -199.7121582 419.39331055 C-201.68851695 419.43552403 -203.66513621 419.46717413 -205.6418457 419.48706055 C-214.37739397 419.74035021 -221.90735527 421.43923722 -228.22973633 427.77026367 C-234.87779032 435.2513662 -234.72526747 445.85174548 -234.66455078 455.27075195 C-234.66820145 456.54683319 -234.67185211 457.82291443 -234.6756134 459.13766479 C-234.68494529 462.6086762 -234.67566362 466.07940181 -234.66228127 469.55039072 C-234.6508863 473.19813433 -234.65508034 476.84586551 -234.6570282 480.49362183 C-234.65790842 486.61469133 -234.64688599 492.73564951 -234.62841797 498.85668945 C-234.60723557 505.91748751 -234.60374614 512.97812286 -234.60997993 520.03894627 C-234.61568792 526.85518788 -234.61001226 533.67137264 -234.59880638 540.48760605 C-234.5941813 543.37815282 -234.5932774 546.26866458 -234.59539223 549.15921402 C-234.59763747 553.19908312 -234.58311935 557.23872733 -234.56689453 561.27856445 C-234.56937195 562.46838928 -234.57184937 563.65821411 -234.57440186 564.88409424 C-234.53546595 570.96899899 -234.24440932 576.35568354 -232.29223633 582.14526367 C-230.30511583 583.84738752 -230.30511583 583.84738752 -227.66723633 584.45776367 C-226.68754883 584.74780273 -225.70786133 585.0378418 -224.69848633 585.33666992 C-210.65727266 588.69343808 -210.65727266 588.69343808 -196.29223633 589.14526367 C-195.96223633 588.81526367 -195.63223633 588.48526367 -195.29223633 588.14526367 C-193.29258651 588.05768364 -191.28987523 588.03829791 -189.28833008 588.04760742 C-188.19447998 588.05010498 -187.10062988 588.05260254 -185.97363281 588.05517578 C-184.57314697 588.06427979 -183.17266113 588.07338379 -181.72973633 588.08276367 C-177.29536133 588.10338867 -172.86098633 588.12401367 -168.29223633 588.14526367 C-168.29223633 573.29526367 -168.29223633 558.44526367 -168.29223633 543.14526367 C-174.13942383 543.11432617 -174.13942383 543.11432617 -180.10473633 543.08276367 C-181.94322144 543.06910767 -181.94322144 543.06910767 -183.81884766 543.05517578 C-185.26940552 543.05142944 -185.26940552 543.05142944 -186.74926758 543.04760742 C-187.73902588 543.04237061 -188.72878418 543.03713379 -189.74853516 543.03173828 C-192.41616367 543.03456408 -192.41616367 543.03456408 -195.29223633 544.14526367 C-195.26867065 545.34070801 -195.26867065 545.34070801 -195.24462891 546.56030273 C-195.18226044 550.17188418 -195.14323894 553.78335229 -195.10473633 557.39526367 C-195.07959961 558.64952148 -195.05446289 559.9037793 -195.02856445 561.19604492 C-195.0140625 563.00395508 -195.0140625 563.00395508 -194.99926758 564.84838867 C-194.9757019 566.51369629 -194.9757019 566.51369629 -194.95166016 568.21264648 C-195.33298561 571.49614562 -195.92994005 572.85945562 -198.29223633 575.14526367 C-201.72973633 575.70776367 -201.72973633 575.70776367 -205.29223633 575.14526367 C-207.95948121 572.96158049 -209.14049828 571.14965239 -209.65870667 567.71951294 C-209.81534385 564.56450117 -209.83237613 561.43305692 -209.80981445 558.27416992 C-209.81682373 557.0720285 -209.82383301 555.86988708 -209.83105469 554.63131714 C-209.84562734 551.34190775 -209.84223454 548.05314386 -209.82953835 544.76374435 C-209.81939368 541.31741759 -209.82880808 537.87113319 -209.83508301 534.42480469 C-209.84235519 528.63786099 -209.83278316 522.85112164 -209.8137207 517.06420898 C-209.79195253 510.37880736 -209.79900423 503.69389372 -209.82102633 497.00850391 C-209.83919274 491.26310716 -209.84173266 485.51785711 -209.83127165 479.77244091 C-209.82504344 476.34333996 -209.82418225 472.9144682 -209.8374176 469.48538208 C-209.84756394 465.66203716 -209.83210667 461.83963224 -209.80981445 458.01635742 C-209.81791138 456.88269745 -209.8260083 455.74903748 -209.83435059 454.58102417 C-209.75206236 446.97178799 -209.75206236 446.97178799 -207.4864502 442.89941406 C-205.29223633 441.14526367 -205.29223633 441.14526367 -201.66723633 441.20776367 C-198.29223633 442.14526367 -198.29223633 442.14526367 -196.29223633 444.14526367 C-195.23657473 447.2532706 -195.1166143 450.26734764 -195.01098633 453.53198242 C-194.97360352 454.55227539 -194.9362207 455.57256836 -194.89770508 456.6237793 C-194.82700784 458.77480835 -194.7566995 460.92585022 -194.68676758 463.0769043 C-194.63069336 464.60154297 -194.63069336 464.60154297 -194.57348633 466.15698242 C-194.54319336 467.08986084 -194.51290039 468.02273926 -194.48168945 468.98388672 C-194.5273524 471.12436826 -194.5273524 471.12436826 -193.29223633 472.14526367 C-191.51152387 472.2325259 -189.72740493 472.25225408 -187.94458008 472.24291992 C-186.86499023 472.23969727 -185.78540039 472.23647461 -184.6730957 472.2331543 C-183.53678711 472.22477539 -182.40047852 472.21639648 -181.22973633 472.20776367 C-180.08956055 472.20325195 -178.94938477 472.19874023 -177.7746582 472.1940918 C-174.94713281 472.18226115 -172.11970993 472.16577777 -169.29223633 472.14526367 C-169.30182121 471.22770546 -169.30182121 471.22770546 -169.31159973 470.29161072 C-169.34644422 464.38524039 -169.15154237 458.54023943 -168.74145508 452.64916992 C-168.68198196 451.77614731 -168.62250885 450.90312469 -168.56123352 450.00364685 C-168.43447547 448.16571145 -168.30580444 446.32790706 -168.17529297 444.49023438 C-167.98243718 441.74619266 -167.8021194 439.00151527 -167.62231445 436.2565918 C-167.01548969 427.39458889 -166.20676027 418.60986821 -164.84692383 409.82885742 C-164.67449409 408.70127769 -164.67449409 408.70127769 -164.49858093 407.55091858 C-160.38647175 382.62268696 -143.92643449 351.2685809 -125.29223633 334.14526367 C-124.46723633 333.32026367 -123.64223633 332.49526367 -122.79223633 331.64526367 C-121.17761939 330.03064674 -119.55323607 328.42571079 -117.91723633 326.83276367 C-115.81594245 324.68143899 -113.90790547 322.5075754 -111.97973633 320.20776367 C-109.09738264 316.8924384 -106.13255811 314.29240051 -102.55786133 311.75463867 C-99.93438436 309.89106538 -97.40382699 307.92181713 -94.85473633 305.95776367 C-80.18450293 294.98746303 -64.91950385 285.72645378 -47.66333008 279.38745117 C-45.34948617 278.53484125 -43.05023942 277.64186293 -40.76489258 276.71557617 C4.70616594 258.40175654 52.89443349 261.23798771 97.60131836 280.20239258 C103.48745295 282.83709955 109.08754165 285.99404092 114.70776367 289.14526367 C115.64749023 289.63639648 116.5872168 290.1275293 117.55541992 290.63354492 C140.48662242 302.6226125 161.87555629 319.67471428 177.70776367 340.14526367 C178.66682617 341.27061523 178.66682617 341.27061523 179.64526367 342.41870117 C190.37266503 355.0926068 198.15756495 369.97063663 204.70776367 385.14526367 C205.13895508 386.13768066 205.13895508 386.13768066 205.57885742 387.15014648 C217.4493847 414.76143055 216.87108191 443.54836164 216.7523632 473.05280304 C216.73377776 477.68532089 216.72439784 482.31783172 216.71644592 486.95037842 C216.69250325 500.10668264 216.65624188 513.26293918 216.61181641 526.41918945 C216.58723919 533.72136502 216.56990038 541.02352302 216.56025702 548.3257339 C216.55374442 552.92596288 216.53825536 557.52604403 216.51593959 562.12622213 C216.50417926 564.98364606 216.50084063 567.84103457 216.49984169 570.69848061 C216.49668573 572.6447893 216.48352856 574.59107381 216.47003174 576.53733826 C216.47198799 578.29017876 216.47198799 578.29017876 216.47398376 580.07843018 C216.47084136 581.08708256 216.46769896 582.09573494 216.46446133 583.13495255 C216.66722951 586.87068415 216.66722951 586.87068415 218.70776367 593.14526367 C198.57776367 593.14526367 178.44776367 593.14526367 157.70776367 593.14526367 C158.36776367 592.81526367 159.02776367 592.48526367 159.70776367 592.14526367 C159.37776367 535.38526367 159.04776367 478.62526367 158.70776367 420.14526367 C152.10776367 420.14526367 145.50776367 420.14526367 138.70776367 420.14526367 C138.37776367 434.99526367 138.04776367 449.84526367 137.70776367 465.14526367 C134.49120151 464.34112313 132.003475 463.42304702 129.02026367 462.08276367 C121.47569497 459.05609922 114.75692088 459.4232269 107.07104492 461.98120117 C101.3401077 464.80404298 97.96564574 469.74667116 95.83276367 475.64526367 C93.82703485 482.24639651 93.55794519 489.17124597 93.5625 496.02319336 C93.55914139 496.76586456 93.55578278 497.50853577 93.55232239 498.27371216 C93.54290087 500.70487182 93.54087365 503.13596194 93.53979492 505.56713867 C93.5365759 507.27573677 93.53321136 508.98433459 93.52970886 510.69293213 C93.52373932 514.26689288 93.52186669 517.84082954 93.52246094 521.41479492 C93.52256236 525.96471889 93.50892109 530.51448611 93.49168873 535.06437302 C93.48049704 538.59227184 93.47854393 542.12013365 93.47907066 545.6480484 C93.4779009 547.32395212 93.47353647 548.99985712 93.4657383 550.6757431 C93.20869346 570.33807729 93.20869346 570.33807729 100.70776367 588.14526367 C102.64450417 589.86326642 104.40666115 590.91444139 106.70776367 592.14526367 C106.70776367 592.47526367 106.70776367 592.80526367 106.70776367 593.14526367 C93.17776367 593.14526367 79.64776367 593.14526367 65.70776367 593.14526367 C66.03776367 592.48526367 66.36776367 591.82526367 66.70776367 591.14526367 C66.80081938 589.44737793 66.82968202 587.7458127 66.82801819 586.04537964 C66.82939285 584.96561859 66.83076752 583.88585754 66.83218384 582.77337646 C66.82858856 581.58367249 66.82499329 580.39396851 66.82128906 579.16821289 C66.8215081 577.29508926 66.8215081 577.29508926 66.82173157 575.38412476 C66.82115319 571.95457704 66.81612886 568.5250891 66.80915761 565.09555197 C66.80291745 561.5134203 66.80231975 557.93128788 66.8011322 554.34915161 C66.79802085 547.56351117 66.78981008 540.77788679 66.77978271 533.99225342 C66.76861552 526.26805151 66.76310959 518.54384885 66.75808728 510.81964087 C66.74762732 494.9281725 66.73003164 479.03672015 66.70776367 463.14526367 C64.42885334 462.00580851 63.13994263 462.01632154 60.61010742 462.01245117 C59.80895508 462.01116211 59.00780273 462.00987305 58.18237305 462.00854492 C57.34512695 462.01241211 56.50788086 462.0162793 55.64526367 462.02026367 C54.80415039 462.01639648 53.96303711 462.0125293 53.09643555 462.00854492 C49.08355497 461.60922483 49.08355497 461.60922483 45.70776367 463.14526367 C45.59834753 466.17185481 45.55352414 469.17645939 45.55004883 472.20385742 C45.54496811 473.1551503 45.53988739 474.10644318 45.53465271 475.08656311 C45.52392104 477.1611335 45.51531192 479.23571566 45.50853348 481.31030273 C45.49677238 484.59779961 45.47732371 487.88516344 45.45541382 491.17260742 C45.39372563 500.52298523 45.33985414 509.8733523 45.30639648 519.22387695 C45.28539893 524.93747198 45.25004594 530.65082943 45.20563889 536.36428833 C45.19150936 538.53945102 45.18276336 540.7146558 45.1795845 542.88986206 C45.17465172 545.94399666 45.15142953 548.99750687 45.12426758 552.05151367 C45.12727371 552.94330826 45.13027985 553.83510284 45.13337708 554.75392151 C45.04249325 561.66814641 44.12293457 568.31606348 39.52026367 573.70776367 C35.49810677 575.76353276 33.2113452 575.71714704 28.70776367 575.14526367 C25.4613198 572.81448346 24.44694489 570.97572849 23.70776367 567.14526367 C23.61117486 565.67106276 23.56203461 564.19331237 23.54954529 562.71600342 C23.53486206 561.3951474 23.53486206 561.3951474 23.5198822 560.04760742 C23.51412674 559.08951172 23.50837128 558.13141602 23.50244141 557.14428711 C23.49254181 556.12933167 23.48264221 555.11437622 23.47244263 554.06866455 C23.44085621 550.71401298 23.41608139 547.35934726 23.39135742 544.00463867 C23.37078544 541.67864616 23.3497889 539.35265736 23.3283844 537.02667236 C23.27318904 530.90453096 23.22376852 524.78235595 23.17553711 518.66015625 C23.12530362 512.41297414 23.06962719 506.16584082 23.0144043 499.91870117 C22.90685371 487.66093035 22.8054018 475.40311717 22.70776367 463.14526367 C19.42631849 461.50454108 15.80986371 462.00251934 12.20776367 462.02026367 C11.42272461 462.01639648 10.63768555 462.0125293 9.82885742 462.00854492 C5.63506044 461.90718748 5.63506044 461.90718748 1.70776367 463.14526367 C1.63804263 476.74139479 1.58484043 490.33748288 1.55232716 503.93375683 C1.53671704 510.24805739 1.5155641 516.56223501 1.48144531 522.87646484 C1.44868554 528.97784434 1.4308757 535.07910608 1.42313194 541.18056679 C1.41761817 543.5003984 1.40685163 545.82022406 1.3905735 548.14000511 C0.55757911 569.58655252 0.55757911 569.58655252 9.11010742 588.55932617 C10.99903022 590.50723071 10.99903022 590.50723071 14.70776367 593.14526367 C-3.44223633 593.14526367 -21.59223633 593.14526367 -40.29223633 593.14526367 C-39.30223633 592.48526367 -38.31223633 591.82526367 -37.29223633 591.14526367 C-30.38821949 586.1154231 -26.64880402 580.63940345 -25.29223633 572.14526367 C-25.18930892 569.2776664 -25.13511788 566.43402026 -25.13110352 563.56640625 C-25.12613861 562.71367126 -25.12117371 561.86093628 -25.11605835 560.98236084 C-25.10148398 558.1681639 -25.09464186 555.35402337 -25.08911133 552.53979492 C-25.08335507 550.5754954 -25.0775974 548.61119588 -25.07183838 546.64689636 C-25.06134118 542.52875508 -25.05549044 538.41063324 -25.05200195 534.29248047 C-25.04652633 529.03487106 -25.02251274 523.7775218 -24.99403 518.51999378 C-24.97533489 514.46116911 -24.97019432 510.40240618 -24.96866608 506.3435421 C-24.96565347 504.40640532 -24.95767237 502.46926927 -24.9444809 500.53217506 C-24.54697709 483.08507162 -24.54697709 483.08507162 -31.78833008 467.61010742 C-38.34013685 461.22847745 -48.00724306 460.05906636 -56.72973633 459.89526367 C-66.09706089 460.05941071 -74.45549802 461.22980885 -81.91723633 467.27026367 C-88.12626576 474.78645719 -89.43954015 482.92075857 -89.45336914 492.43286133 C-89.45833405 493.25472931 -89.46329895 494.07659729 -89.46841431 494.92337036 C-89.48298642 497.63536426 -89.48983092 500.34729959 -89.49536133 503.05932617 C-89.5011184 504.95396932 -89.50687606 506.84861247 -89.51263428 508.74325562 C-89.52313128 512.71596547 -89.52898194 516.68865518 -89.5324707 520.66137695 C-89.53794191 525.72832182 -89.56194605 530.79499615 -89.59044266 535.86185646 C-89.60915844 539.7774633 -89.61427945 543.69300625 -89.61580658 547.60865402 C-89.61881528 549.47518766 -89.62678285 551.34172066 -89.63999176 553.20820999 C-90.02257127 571.27501189 -90.02257127 571.27501189 -82.29223633 587.14526367 C-79.72639111 589.39820094 -77.13315518 591.25131777 -74.29223633 593.14526367 C-85.84223633 593.14526367 -97.39223633 593.14526367 -109.29223633 593.14526367 C-108.63223633 592.48526367 -107.97223633 591.82526367 -107.29223633 591.14526367 C-107.0484575 587.78782255 -107.0484575 587.78782255 -107.16723633 584.02026367 C-107.1852832 582.73893555 -107.20333008 581.45760742 -107.22192383 580.13745117 C-107.24512695 579.1500293 -107.26833008 578.16260742 -107.29223633 577.14526367 C-110.02239551 575.62653876 -111.19381315 575.14329521 -114.41723633 575.20776367 C-115.36598633 575.18713867 -116.31473633 575.16651367 -117.29223633 575.14526367 C-119.63272865 571.6345252 -119.54813385 570.21300034 -119.5639801 566.0586853 C-119.57855759 564.14886116 -119.57855759 564.14886116 -119.59342957 562.20045471 C-119.5941998 560.78671273 -119.59478879 559.37297064 -119.59521484 557.95922852 C-119.60287473 556.47273801 -119.61142085 554.98625184 -119.62078857 553.49977112 C-119.63907619 550.29786069 -119.6511089 547.09600877 -119.6583271 543.89405441 C-119.66979676 538.83593112 -119.69524436 533.77793767 -119.72264099 528.71987915 C-119.76430301 520.72426605 -119.7967143 512.72864678 -119.82511514 504.73297656 C-119.87609664 490.40237494 -119.93811571 476.07182694 -120.01045555 461.74131739 C-120.03543592 456.70797795 -120.05484095 451.67465582 -120.06983769 446.64127707 C-120.08000912 443.5175386 -120.09415451 440.39382703 -120.10931396 437.27010918 C-120.11549296 435.8160064 -120.11993903 434.36189512 -120.12257195 432.9077816 C-120.12635697 430.93113218 -120.13671887 428.95449853 -120.1474762 426.97787476 C-120.15133111 425.86916708 -120.15518602 424.7604594 -120.15915775 423.61815453 C-120.01304763 421.20175665 -120.01304763 421.20175665 -121.29223633 420.14526367 C-122.69572368 420.04666236 -124.1040411 420.01447431 -125.51098633 420.01245117 C-126.36047852 420.01116211 -127.2099707 420.00987305 -128.08520508 420.00854492 C-128.97852539 420.01241211 -129.8718457 420.0162793 -130.79223633 420.02026367 C-131.68555664 420.01639648 -132.57887695 420.0125293 -133.49926758 420.00854492 C-134.77350586 420.01047852 -134.77350586 420.01047852 -136.07348633 420.01245117 C-136.85788086 420.0135791 -137.64227539 420.01470703 -138.45043945 420.01586914 C-140.30976621 419.94418925 -140.30976621 419.94418925 -141.29223633 421.14526367 C-141.39775131 423.14976122 -141.43191671 425.15802445 -141.43940735 427.1652832 C-141.44656265 428.47467361 -141.45371796 429.78406403 -141.46109009 431.13313293 C-141.46393073 432.59811378 -141.46664242 434.06309487 -141.46923828 435.52807617 C-141.4755002 437.06040095 -141.48214676 438.59272421 -141.489151 440.12504578 C-141.50659351 444.30107221 -141.51712297 448.47708715 -141.52535653 452.65314102 C-141.53050296 455.26285248 -141.53657905 457.87256035 -141.54286766 460.48226929 C-141.5619343 468.64883221 -141.57615867 476.81538605 -141.58447963 484.98196697 C-141.59423908 494.40507769 -141.62051849 503.82795268 -141.66098052 513.25098038 C-141.69117911 520.53431012 -141.70595231 527.81757248 -141.70926064 535.10096359 C-141.71160814 539.45024811 -141.72052829 543.79928126 -141.74572182 548.14849854 C-141.76907119 552.24597485 -141.77320839 556.34303559 -141.76296043 560.44056129 C-141.76246652 561.93969928 -141.76874426 563.43885817 -141.78251648 564.93793297 C-141.86339726 574.26853624 -141.54311096 582.26926042 -135.16723633 589.58276367 C-134.54848633 590.09838867 -133.92973633 590.61401367 -133.29223633 591.14526367 C-132.63223633 591.80526367 -131.97223633 592.46526367 -131.29223633 593.14526367 C-142.18223633 593.14526367 -153.07223633 593.14526367 -164.29223633 593.14526367 C-163.98286133 596.50713867 -163.67348633 599.86901367 -163.35473633 603.33276367 C-163.25942627 604.38359131 -163.16411621 605.43441895 -163.06591797 606.51708984 C-162.98720459 607.35731689 -162.90849121 608.19754395 -162.82739258 609.06323242 C-162.70956421 610.34363403 -162.70956421 610.34363403 -162.58935547 611.64990234 C-162.28736501 614.18617551 -161.79987091 616.6431858 -161.29223633 619.14526367 C-161.00105747 622.52212956 -160.78800607 625.8994658 -160.57348633 629.28198242 C-160.4702483 632.08726973 -160.4702483 632.08726973 -159.29223633 634.14526367 C-159.11097416 635.64139581 -158.97123252 637.14270053 -158.85473633 638.64526367 C-158.1372258 646.317107 -156.63514736 653.47279838 -154.07348633 660.73510742 C-153.1802328 663.49079455 -152.51736839 666.26297615 -151.85473633 669.08276367 C-150.69240778 673.92992101 -149.11234234 678.35244475 -147.06176758 682.89135742 C-146.19580834 685.42769489 -146.15609395 687.48344547 -146.29223633 690.14526367 C-145.63223633 690.14526367 -144.97223633 690.14526367 -144.29223633 690.14526367 C-144.06149414 690.82331055 -143.83075195 691.50135742 -143.59301758 692.19995117 C-141.56766438 697.97981286 -139.26660163 703.4205336 -136.45629883 708.86010742 C-134.46629143 712.76666557 -132.7908138 716.77417562 -131.29223633 720.89526367 C-130.43283647 723.1916318 -130.43283647 723.1916318 -128.72973633 724.70776367 C-126.99776901 726.43973099 -126.70235951 727.76654921 -126.29223633 730.14526367 C-125.63223633 730.14526367 -124.97223633 730.14526367 -124.29223633 730.14526367 C-124.04473633 730.86713867 -123.79723633 731.58901367 -123.54223633 732.33276367 C-122.17270417 735.41421102 -120.43226611 737.55128818 -118.29223633 740.14526367 C-117.8359082 740.91741211 -117.37958008 741.68956055 -116.90942383 742.48510742 C-115.23175911 745.24474431 -113.37949206 747.69333573 -111.35473633 750.20776367 C-110.68571289 751.04436523 -110.01668945 751.8809668 -109.32739258 752.74291992 C-107.41272246 755.00303916 -105.39372686 757.06078926 -103.29223633 759.14526367 C-102.30561546 760.32657772 -101.32656192 761.51424843 -100.35473633 762.70776367 C-91.52532199 772.86348488 -79.58463413 782.64603308 -67.29223633 788.14526367 C-67.29223633 788.80526367 -67.29223633 789.46526367 -67.29223633 790.14526367 C-66.75856445 790.2406543 -66.22489258 790.33604492 -65.67504883 790.43432617 C-62.55158101 791.36624608 -59.99662473 792.90444427 -57.16723633 794.52026367 C-52.36565757 797.15737236 -47.91349992 799.07888247 -42.63208008 800.46557617 C-40.16302318 801.18279804 -37.93736332 802.12995626 -35.60473633 803.20776367 C-28.90937621 806.27549836 -22.208633 807.56799972 -14.96411133 808.68041992 C-12.29223633 809.14526367 -12.29223633 809.14526367 -9.29223633 810.14526367 C-9.10105225 809.26124878 -9.10105225 809.26124878 -8.90600586 808.359375 C-5.92705554 797.61311389 2.74847341 786.90927094 12.20776367 781.33276367 C18.14121942 778.08928879 24.02724357 776.89654347 30.75366211 776.87060547 C31.41976501 776.86549454 32.08586792 776.86038361 32.77215576 776.8551178 C34.95391059 776.84132473 37.13534567 776.8421713 39.31713867 776.84448242 C40.85020055 776.84058866 42.38326136 776.8362526 43.9163208 776.83149719 C47.1238556 776.82405617 50.3312803 776.82430995 53.53881836 776.82958984 C57.62152386 776.83536898 61.7037734 776.81848113 65.78640366 776.79524517 C68.95227636 776.78041023 72.11804186 776.77964951 75.28394318 776.7827549 C76.7876297 776.78224615 78.29132294 776.77709368 79.79497528 776.76694298 C94.15411091 776.68192407 107.00220274 778.54168475 117.77026367 788.77026367 C120.70776367 791.71442467 120.70776367 791.71442467 120.70776367 795.14526367 C121.36776367 795.14526367 122.02776367 795.14526367 122.70776367 795.14526367 C127.47826478 801.50593181 128.0179438 809.07742482 128.00854492 816.73901367 C128.01283005 817.52997437 128.01711517 818.32093506 128.02153015 819.13586426 C128.02723409 820.79637704 128.02780303 822.4569148 128.0234375 824.11743164 C128.02027171 826.63886541 128.04380525 829.15913017 128.0690918 831.68041992 C128.07136484 833.30411638 128.07206826 834.92781595 128.07104492 836.55151367 C128.08485954 837.66592834 128.08485954 837.66592834 128.09895325 838.80285645 C128.03605258 846.01655097 125.83767492 851.98875132 121.70776367 857.95776367 C121.21276367 858.68608398 120.71776367 859.4144043 120.20776367 860.16479492 C118.80835981 862.01244533 117.46380906 863.63258327 115.70776367 865.14526367 C115.04776367 865.14526367 114.38776367 865.14526367 113.70776367 865.14526367 C113.70776367 865.80526367 113.70776367 866.46526367 113.70776367 867.14526367 C111.36401367 868.80151367 111.36401367 868.80151367 108.20776367 870.64526367 C107.18682617 871.25370117 106.16588867 871.86213867 105.11401367 872.48901367 C96.6836214 876.58819523 88.65269193 876.42635004 79.43432617 876.37573242 C78.06049645 876.3745383 76.68666591 876.37408795 75.31283569 876.37434387 C72.45012212 876.37278825 69.58753525 876.36456477 66.72485352 876.35107422 C63.05284076 876.3339889 59.38096549 876.33026314 55.70891762 876.3310194 C52.8796965 876.33074797 50.05050552 876.32527261 47.2212944 876.31801796 C45.86648155 876.31483504 44.51166529 876.31286476 43.15684891 876.31212425 C41.27097596 876.30996219 39.38511578 876.3004272 37.49926758 876.29052734 C36.4264151 876.28671555 35.35356262 876.28290375 34.24819946 876.27897644 C31.70776367 876.14526367 31.70776367 876.14526367 29.70776367 875.14526367 C28.56694336 875.18006836 27.42612305 875.21487305 26.25073242 875.25073242 C18.80804481 875.4717938 13.00946354 875.24771661 7.16992188 870.24145508 C1.22728352 864.49142259 -3.91864327 858.22459079 -7.43676758 850.69604492 C-9.54688019 846.15945299 -9.54688019 846.15945299 -13.25317383 842.98510742 C-15.59151286 842.16873993 -17.86019802 841.61130644 -20.29223633 841.14526367 C-21.3847168 840.93063477 -21.3847168 840.93063477 -22.49926758 840.71166992 C-24.101418 840.40324914 -25.70435283 840.09888775 -27.30786133 839.79760742 C-42.42658501 836.49286023 -57.66075974 831.4520494 -71.29223633 824.14526367 C-72.54949376 823.49315072 -73.80735341 822.8421981 -75.06567383 822.19213867 C-76.41239667 821.48972007 -77.7587511 820.78659466 -79.10473633 820.08276367 C-79.73951904 819.75429443 -80.37430176 819.4258252 -81.02832031 819.08740234 C-84.79132835 817.09516307 -88.03429159 814.87754711 -91.29223633 812.14526367 C-92.94756255 811.12660138 -94.61483771 810.12715555 -96.29223633 809.14526367 C-103.86134202 804.20217424 -103.86134202 804.20217424 -106.29223633 802.14526367 C-106.29223633 801.48526367 -106.29223633 800.82526367 -106.29223633 800.14526367 C-107.01411133 799.91838867 -107.73598633 799.69151367 -108.47973633 799.45776367 C-111.8565605 797.88191239 -113.84990672 795.93649751 -116.29223633 793.14526367 C-116.29223633 792.48526367 -116.29223633 791.82526367 -116.29223633 791.14526367 C-117.09661133 790.87713867 -117.90098633 790.60901367 -118.72973633 790.33276367 C-119.99817383 789.74495117 -119.99817383 789.74495117 -121.29223633 789.14526367 C-121.62223633 788.15526367 -121.95223633 787.16526367 -122.29223633 786.14526367 C-122.95223633 786.14526367 -123.61223633 786.14526367 -124.29223633 786.14526367 C-125.63624563 784.15242229 -126.96764925 782.15106696 -128.29223633 780.14526367 C-129.65348633 778.78401367 -129.65348633 778.78401367 -131.04223633 777.39526367 C-131.78473633 776.65276367 -132.52723633 775.91026367 -133.29223633 775.14526367 C-133.29223633 774.48526367 -133.29223633 773.82526367 -133.29223633 773.14526367 C-133.95223633 773.14526367 -134.61223633 773.14526367 -135.29223633 773.14526367 C-135.29223633 772.48526367 -135.29223633 771.82526367 -135.29223633 771.14526367 C-135.95223633 771.14526367 -136.61223633 771.14526367 -137.29223633 771.14526367 C-139.58872282 768.58379797 -140.29223633 767.66558795 -140.29223633 764.14526367 C-140.95223633 764.14526367 -141.61223633 764.14526367 -142.29223633 764.14526367 C-158.29223633 745.40347963 -158.29223633 745.40347963 -158.29223633 737.14526367 C-158.95223633 737.14526367 -159.61223633 737.14526367 -160.29223633 737.14526367 C-160.29223633 735.82526367 -160.29223633 734.50526367 -160.29223633 733.14526367 C-160.95223633 733.14526367 -161.61223633 733.14526367 -162.29223633 733.14526367 C-163.13548305 731.56718767 -163.96647551 729.98255947 -164.79223633 728.39526367 C-165.25629883 727.51354492 -165.72036133 726.63182617 -166.19848633 725.72338867 C-167.29223633 723.14526367 -167.29223633 723.14526367 -167.29223633 719.14526367 C-167.95223633 719.14526367 -168.61223633 719.14526367 -169.29223633 719.14526367 C-170.28223633 715.51526367 -171.27223633 711.88526367 -172.29223633 708.14526367 C-172.95223633 708.14526367 -173.61223633 708.14526367 -174.29223633 708.14526367 C-174.39536133 707.46463867 -174.49848633 706.78401367 -174.60473633 706.08276367 C-175.26487742 703.26216083 -176.29239641 700.85728486 -177.47192383 698.22338867 C-178.79569592 694.8698327 -179.62854819 691.39432472 -180.54223633 687.91088867 C-181.80307183 683.26155776 -183.32123301 678.68403278 -185.04223633 674.18432617 C-187.2354696 668.2214732 -188.27590371 662.15985002 -189.2902832 655.90893555 C-189.88810859 651.90754433 -189.88810859 651.90754433 -191.29223633 648.14526367 C-191.5662955 646.00934218 -191.73668876 643.87329906 -191.91333008 641.72729492 C-192.25026578 638.99106979 -192.25026578 638.99106979 -193.29223633 635.83276367 C-194.35332269 631.92000769 -194.66524029 628.37668976 -194.85473633 624.33276367 C-194.90786374 619.57152181 -194.90786374 619.57152181 -196.29223633 615.14526367 C-196.44446606 613.47960618 -196.54140848 611.80869871 -196.60864258 610.13745117 C-196.65053711 609.15131836 -196.69243164 608.16518555 -196.7355957 607.14916992 C-196.77491211 606.11663086 -196.81422852 605.0840918 -196.85473633 604.02026367 C-196.89791992 602.97999023 -196.94110352 601.9397168 -196.9855957 600.86791992 C-197.09186512 598.29383839 -197.19390216 595.71965859 -197.29223633 593.14526367 C-198.11208008 593.1684668 -198.93192383 593.19166992 -199.77661133 593.21557617 C-201.3930957 593.24264648 -201.3930957 593.24264648 -203.04223633 593.27026367 C-204.10958008 593.2934668 -205.17692383 593.31666992 -206.27661133 593.34057617 C-209.32261905 593.14329588 -210.66318799 592.54846606 -213.29223633 591.14526367 C-215.19907385 590.77751644 -217.1179779 590.46948276 -219.04223633 590.20776367 C-223.41494434 589.53015275 -227.24393592 588.60921477 -231.31958008 586.91870117 C-233.51000912 586.05987949 -235.71029072 585.45203454 -237.97973633 584.83276367 C-249.98220948 581.2886544 -261.15036714 574.77323855 -272.29223633 569.14526367 C-273.62514692 568.47775219 -274.9582248 567.81057222 -276.29223633 567.14526367 C-276.29223633 566.48526367 -276.29223633 565.82526367 -276.29223633 565.14526367 C-277.28223633 565.14526367 -278.27223633 565.14526367 -279.29223633 565.14526367 C-279.29223633 564.48526367 -279.29223633 563.82526367 -279.29223633 563.14526367 C-280.28223633 563.14526367 -281.27223633 563.14526367 -282.29223633 563.14526367 C-282.29223633 562.48526367 -282.29223633 561.82526367 -282.29223633 561.14526367 C-283.32670898 560.80301758 -283.32670898 560.80301758 -284.38208008 560.45385742 C-287.95236319 558.8484281 -290.82525765 556.64205327 -293.85473633 554.20776367 C-294.77065552 553.47795288 -294.77065552 553.47795288 -295.70507812 552.73339844 C-305.23821867 545.05327212 -314.77014146 536.85180528 -322.29223633 527.14526367 C-322.29223633 526.48526367 -322.29223633 525.82526367 -322.29223633 525.14526367 C-322.95223633 525.14526367 -323.61223633 525.14526367 -324.29223633 525.14526367 C-326.07149985 522.97364973 -327.72414228 520.80031512 -329.35473633 518.52026367 C-329.84208252 517.84600342 -330.32942871 517.17174316 -330.83154297 516.47705078 C-348.29223633 492.10370786 -348.29223633 492.10370786 -348.29223633 485.14526367 C-348.95223633 485.14526367 -349.61223633 485.14526367 -350.29223633 485.14526367 C-350.29223633 483.82526367 -350.29223633 482.50526367 -350.29223633 481.14526367 C-350.95223633 481.14526367 -351.61223633 481.14526367 -352.29223633 481.14526367 C-352.79981495 479.73129465 -353.29798558 478.31394638 -353.79223633 476.89526367 C-354.07067383 476.10635742 -354.34911133 475.31745117 -354.63598633 474.50463867 C-355.29223633 472.14526367 -355.29223633 472.14526367 -355.29223633 468.14526367 C-355.95223633 468.14526367 -356.61223633 468.14526367 -357.29223633 468.14526367 C-357.56487305 467.11079102 -357.56487305 467.11079102 -357.84301758 466.05541992 C-359.03937821 461.58287172 -360.24833672 457.17659934 -361.85473633 452.83276367 C-363.61526464 447.77124476 -364.15216638 442.58644066 -364.76489258 437.28198242 C-365.09452605 434.26333791 -365.09452605 434.26333791 -366.309021 432.30065918 C-367.5503355 429.57946106 -367.54623183 427.5096357 -367.55102539 424.5222168 C-367.55732971 423.39424683 -367.56363403 422.26627686 -367.57012939 421.10412598 C-367.56608093 419.89051392 -367.56203247 418.67690186 -367.55786133 417.42651367 C-367.55977478 416.1764856 -367.56168823 414.92645752 -367.56365967 413.6385498 C-367.56502068 410.9956273 -367.56233516 408.35307472 -367.55297852 405.71020508 C-367.54158421 402.32741769 -367.54814728 398.94494769 -367.56012344 395.56217194 C-367.56909965 392.32944122 -367.56280976 389.09674853 -367.55786133 385.86401367 C-367.56190979 384.65040161 -367.56595825 383.43678955 -367.57012939 382.18640137 C-367.56382507 381.0584314 -367.55752075 379.93046143 -367.55102539 378.76831055 C-367.5494342 377.77665894 -367.54784302 376.78500732 -367.54620361 375.76330566 C-367.28289995 373.04901892 -366.5930719 371.5051804 -365.29223633 369.14526367 C-364.91904248 366.92545138 -364.61303121 364.69385938 -364.35473633 362.45776367 C-363.68787917 357.36636217 -362.73230074 352.79677643 -360.95629883 347.98901367 C-360.14813919 345.7451822 -359.67157706 343.49717624 -359.29223633 341.14526367 C-358.63223633 341.14526367 -357.97223633 341.14526367 -357.29223633 341.14526367 C-357.33219727 340.4259668 -357.3721582 339.70666992 -357.41333008 338.96557617 C-357.28092296 335.88177176 -356.56819032 333.84445909 -355.35473633 331.02026367 C-354.24349718 328.39949177 -353.19315985 325.84803424 -352.29223633 323.14526367 C-351.63223633 323.14526367 -350.97223633 323.14526367 -350.29223633 323.14526367 C-350.17436768 322.41605713 -350.05649902 321.68685059 -349.93505859 320.93554688 C-349.28691035 318.12214531 -348.36940472 316.03569094 -347.00708008 313.50073242 C-346.33515625 312.2390625 -346.33515625 312.2390625 -345.6496582 310.9519043 C-344.94679688 309.65542969 -344.94679688 309.65542969 -344.22973633 308.33276367 C-343.52107422 307.00728516 -343.52107422 307.00728516 -342.7980957 305.6550293 C-341.63520349 303.48194789 -340.46645258 301.31224083 -339.29223633 299.14526367 C-338.63223633 299.14526367 -337.97223633 299.14526367 -337.29223633 299.14526367 C-337.14915039 298.30801758 -337.14915039 298.30801758 -337.00317383 297.45385742 C-334.50157572 289.33053608 -326.48326446 281.85593958 -320.97436523 275.47363281 C-318.9206815 273.09337728 -317.03938226 270.76598257 -315.29223633 268.14526367 C-314.63223633 268.14526367 -313.97223633 268.14526367 -313.29223633 268.14526367 C-313.29223633 267.48526367 -313.29223633 266.82526367 -313.29223633 266.14526367 C-311.82348633 264.66479492 -311.82348633 264.66479492 -309.79223633 262.95776367 C-306.11830701 259.84603706 -302.52360593 256.66373612 -298.95629883 253.43041992 C-297.29223633 252.14526367 -297.29223633 252.14526367 -295.29223633 252.14526367 C-295.29223633 251.48526367 -295.29223633 250.82526367 -295.29223633 250.14526367 C-293.64223633 249.48526367 -291.99223633 248.82526367 -290.29223633 248.14526367 C-290.29223633 247.48526367 -290.29223633 246.82526367 -290.29223633 246.14526367 C-287.86347015 244.46983688 -285.44041943 242.91658228 -282.91723633 241.39526367 C-281.81230835 240.71983521 -281.81230835 240.71983521 -280.68505859 240.03076172 C-279.21525628 239.13352587 -277.74368502 238.23918068 -276.27026367 237.34790039 C-274.68035472 236.38123889 -273.10325205 235.39352962 -271.53051758 234.39916992 C-258.22605974 226.06411909 -243.45352916 220.05257217 -228.29223633 216.14526367 C-227.07536133 215.79463867 -225.85848633 215.44401367 -224.60473633 215.08276367 C-218.43645471 213.33702359 -212.58019668 211.93813834 -206.17504883 211.39135742 C-204.20576197 211.23849371 -204.20576197 211.23849371 -202.29223633 210.14526367 C-198.2687929 209.68936351 -194.23013795 209.43644354 -190.19067383 209.16040039 C-188.19525494 209.02220415 -186.20075535 208.87093523 -184.20629883 208.71948242 C-177.72499583 208.26684082 -171.69812277 207.98796612 -165.29223633 209.14526367 C-165.30270996 208.23462158 -165.31318359 207.32397949 -165.32397461 206.38574219 C-165.66052537 172.69445473 -165.66052537 172.69445473 -163.29223633 159.14526367 C-163.11305664 158.09209961 -162.93387695 157.03893555 -162.74926758 155.95385742 C-161.5346638 149.38769115 -161.5346638 149.38769115 -160.29223633 148.14526367 C-160.10661133 146.62932617 -160.10661133 146.62932617 -159.91723633 145.08276367 C-159.36582231 141.60885535 -158.46861102 138.73660261 -157.16333008 135.48901367 C-156.12820305 132.70391853 -155.35067118 129.87927793 -154.54223633 127.02026367 C-152.65193927 120.74360163 -150.01361739 115.21221118 -146.97583008 109.43432617 C-145.24961696 106.06200264 -143.78266132 102.62692851 -142.29223633 99.14526367 C-141.42404007 97.48468547 -140.53172306 95.83625387 -139.60473633 94.20776367 C-139.16774414 93.43561523 -138.73075195 92.6634668 -138.28051758 91.86791992 C-137.95438477 91.29944336 -137.62825195 90.7309668 -137.29223633 90.14526367 C-136.63223633 90.14526367 -135.97223633 90.14526367 -135.29223633 90.14526367 C-135.05375977 89.45561523 -134.8152832 88.7659668 -134.56958008 88.05541992 C-133.05192939 84.59777539 -131.03453314 81.64293076 -128.85473633 78.58276367 C-128.45963867 78.01879883 -128.06454102 77.45483398 -127.6574707 76.8737793 C-126.54495381 75.29108055 -125.4189712 73.71787223 -124.29223633 72.14526367 C-123.74438477 71.35249023 -123.1965332 70.5597168 -122.63208008 69.74291992 C-122.18993164 69.21569336 -121.7477832 68.6884668 -121.29223633 68.14526367 C-120.63223633 68.14526367 -119.97223633 68.14526367 -119.29223633 68.14526367 C-118.85911133 67.24807617 -118.85911133 67.24807617 -118.41723633 66.33276367 C-117.29223633 64.14526367 -117.29223633 64.14526367 -115.29223633 61.14526367 C-114.63223633 61.14526367 -113.97223633 61.14526367 -113.29223633 61.14526367 C-113.06536133 60.58838867 -112.83848633 60.03151367 -112.60473633 59.45776367 C-110.91673597 56.4836678 -108.82547116 54.42517502 -106.29223633 52.14526367 C-105.63223633 52.14526367 -104.97223633 52.14526367 -104.29223633 52.14526367 C-104.29223633 51.48526367 -104.29223633 50.82526367 -104.29223633 50.14526367 C-103.63223633 50.14526367 -102.97223633 50.14526367 -102.29223633 50.14526367 C-102.29223633 49.48526367 -102.29223633 48.82526367 -102.29223633 48.14526367 C-100.55831682 46.53892352 -98.75414533 45.00773497 -96.91723633 43.52026367 C-95.42063477 42.29436523 -95.42063477 42.29436523 -93.89379883 41.04370117 C-91.29223633 39.14526367 -91.29223633 39.14526367 -89.29223633 39.14526367 C-89.29223633 38.48526367 -89.29223633 37.82526367 -89.29223633 37.14526367 C-86.95629883 35.41870117 -86.95629883 35.41870117 -83.91723633 33.52026367 C-82.91950195 32.88862305 -81.92176758 32.25698242 -80.89379883 31.60620117 C-78.29223633 30.14526367 -78.29223633 30.14526367 -76.29223633 30.14526367 C-76.29223633 29.48526367 -76.29223633 28.82526367 -76.29223633 28.14526367 C-75.30223633 28.14526367 -74.31223633 28.14526367 -73.29223633 28.14526367 C-73.29223633 27.48526367 -73.29223633 26.82526367 -73.29223633 26.14526367 C-70.48390208 24.74109655 -67.67545399 23.3371635 -64.86645508 21.93432617 C-62.45020398 20.72488026 -60.03600157 19.51205922 -57.62426758 18.29370117 C-57.01663574 17.98762939 -56.40900391 17.68155762 -55.78295898 17.36621094 C-54.06014388 16.49827227 -52.33827589 15.62845439 -50.61645508 14.75854492 C-45.63466792 12.34082683 -40.6935308 10.13763883 -35.35473633 8.64526367 C-32.32671657 7.77493464 -29.53433087 6.83696314 -26.60473633 5.64526367 C-21.99863278 3.83708253 -17.15652488 3.03071233 -12.30712891 2.1472168 C-0.67370375 0.00215126 -0.67370375 0.00215126 0 0 Z " fill="#FFFFFF" transform="translate(367.292236328125,-0.145263671875)"/>
<path d="M0 0 C0.95390625 -0.04898437 1.9078125 -0.09796875 2.890625 -0.1484375 C7.0653667 0.61579117 8.22461592 1.95315542 10.75 5.375 C11.500093 9.27097134 11.42254288 13.1211774 11.38110352 17.07836914 C11.38825882 18.26260971 11.39541412 19.44685028 11.40278625 20.66697693 C11.41678106 23.9068803 11.40838253 27.14574711 11.38869596 30.3855927 C11.37228726 33.77899812 11.38112524 37.17235222 11.38621521 40.56578064 C11.39073312 46.26281892 11.37488403 51.95952854 11.34692383 57.65649414 C11.3148575 64.24082178 11.31489433 70.82455725 11.3321386 77.40892702 C11.34800642 83.74735308 11.34126962 90.08556223 11.32420158 96.42397881 C11.31733322 99.11971251 11.31836113 101.81527225 11.32574654 104.51100349 C11.33118403 108.27471999 11.31086874 112.03742417 11.28344727 115.80102539 C11.28997314 116.91957916 11.29649902 118.03813293 11.30322266 119.19058228 C11.2904982 120.21538193 11.27777374 121.24018158 11.2646637 122.29603577 C11.26185678 123.18552445 11.25904985 124.07501314 11.25615788 124.99145603 C10.55677223 128.28492732 9.48498058 129.43145085 6.75 131.375 C3.515625 131.765625 3.515625 131.765625 0 131.625 C-1.17046875 131.58890625 -2.3409375 131.5528125 -3.546875 131.515625 C-4.43890625 131.46921875 -5.3309375 131.4228125 -6.25 131.375 C-6.27332869 114.44237796 -6.29097903 97.50976092 -6.30181217 80.5771265 C-6.30697519 72.71555609 -6.31401801 64.85399565 -6.32543945 56.99243164 C-6.3353861 50.14274525 -6.34185338 43.29306608 -6.34408849 36.44337267 C-6.34539563 32.81430604 -6.34848169 29.18526006 -6.35573006 25.55620003 C-6.36374356 21.51149696 -6.36399115 17.46683011 -6.36352539 13.42211914 C-6.36712067 12.21011841 -6.37071594 10.99811768 -6.37442017 9.74938965 C-6.3730455 8.65417496 -6.37167084 7.55896027 -6.37025452 6.43055725 C-6.37117631 5.47281434 -6.3720981 4.51507143 -6.37304783 3.52830601 C-6.13626899 -0.61526398 -3.62137055 0.12587652 0 0 Z " fill="#FFFFFF" transform="translate(616.25,439.625)"/>
<path d="M0 0 C4.27684384 1.73110346 6.03908413 4.20130677 8.203125 8.0859375 C10.01745395 12.4438845 10.13294019 16.796765 10.16113281 21.4675293 C10.17074036 22.75624435 10.1803479 24.04495941 10.19024658 25.37272644 C10.19509634 26.77322206 10.19937473 28.17371976 10.203125 29.57421875 C10.20595238 30.285301 10.20877975 30.99638325 10.21169281 31.72901344 C10.22665374 35.49472038 10.23590177 39.26038934 10.24023438 43.02612305 C10.24570351 46.89148824 10.26970712 50.75649843 10.29820633 54.62175274 C10.31695147 57.61514761 10.32204465 60.60845915 10.32357025 63.60190773 C10.32657239 65.02548976 10.33451714 66.44907119 10.34775543 67.87259483 C10.42929039 77.3168426 10.32975083 86.10330761 4.875 94.125 C1.41142846 96.383851 -0.83319472 96.72283091 -4.91015625 96.4921875 C-7 96 -7 96 -9.5 93.75 C-12.06227841 89.05248959 -12.14870652 84.86570681 -12.14526367 79.58862305 C-12.14862228 78.84825806 -12.1519809 78.10789307 -12.15544128 77.34509277 C-12.16492991 74.90061763 -12.16689346 72.45621116 -12.16796875 70.01171875 C-12.17118318 68.30784578 -12.17454739 66.6039731 -12.17805481 64.90010071 C-12.18404113 61.32833212 -12.18589526 57.75658771 -12.18530273 54.18481445 C-12.18520123 49.61858903 -12.19884343 45.05251951 -12.21607494 40.48633099 C-12.2272206 36.9663472 -12.22922114 33.44640077 -12.22869301 29.92640114 C-12.22986964 28.24357377 -12.23427357 26.56074533 -12.24202538 24.87793541 C-12.25187558 22.51836773 -12.24892737 20.15913416 -12.24291992 17.79956055 C-12.24853943 17.11100479 -12.25415894 16.42244904 -12.25994873 15.71302795 C-12.22629195 10.48349959 -11.87159334 5.0721212 -8.25 1.0625 C-5.2497993 -0.35426144 -3.2886971 -0.4026976 0 0 Z " fill="#FFFFFF" transform="translate(495,479)"/>
<path d="M0 0 C1.16015625 0.10054688 1.16015625 0.10054688 2.34375 0.203125 C4.92663325 0.85820408 5.87266266 1.66621438 7.5 3.75 C8.72042558 7.41127674 8.6713775 10.80060935 8.69287109 14.61450195 C8.70104858 15.41484863 8.70922607 16.21519531 8.71765137 17.03979492 C8.74247055 19.68928279 8.75901184 22.33871724 8.7734375 24.98828125 C8.77876118 25.8937438 8.78408485 26.79920635 8.78956985 27.73210716 C8.81628545 32.52411426 8.83566603 37.31609544 8.85009766 42.1081543 C8.86344206 46.07258145 8.89130593 50.03649451 8.93212891 54.00073242 C8.98144028 58.78937799 9.00621668 63.57755691 9.01332474 68.36644554 C9.02003724 70.18970012 9.03525934 72.0129443 9.05921555 73.83605385 C9.0908668 76.39035861 9.09090455 78.94286474 9.08349609 81.49731445 C9.09990143 82.24714096 9.11630676 82.99696747 9.13320923 83.76951599 C9.08691043 87.6782892 8.52484272 90.20050952 6.12197876 93.22038269 C3.5 95.75 3.5 95.75 0.96484375 96.4765625 C-5.86056959 96.20228005 -5.86056959 96.20228005 -9.0625 93.9375 C-11.81177891 89.7538147 -11.65961957 85.80334829 -11.67700195 80.97729492 C-11.68357315 80.18670181 -11.69014435 79.3961087 -11.69691467 78.58155823 C-11.71662949 75.96452742 -11.72830588 73.34755394 -11.73828125 70.73046875 C-11.74439454 69.38882377 -11.74439454 69.38882377 -11.75063133 68.02007484 C-11.77148379 63.28641618 -11.78578938 58.55278644 -11.79516602 53.8190918 C-11.80623198 48.93311211 -11.84063631 44.04758766 -11.88033772 39.16176891 C-11.90649643 35.40162821 -11.91485716 31.64159614 -11.91844749 27.88137245 C-11.92331496 26.08046708 -11.93493354 24.27956662 -11.95348549 22.47875023 C-11.97786273 19.95576363 -11.97691488 17.43395726 -11.9699707 14.91088867 C-11.98278076 14.1704129 -11.99559082 13.42993713 -12.00878906 12.66702271 C-11.95787056 7.57890178 -10.77740183 4.62622544 -7.5 0.75 C-4.51786685 -0.24404438 -3.05541462 -0.30554146 0 0 Z " fill="#FFFFFF" transform="translate(311.5,479.25)"/>
<path d="M0 0 C4.24472697 3.41936339 7.96685454 7.42328906 9.25 12.8125 C9.0623541 18.62952305 8.04397269 23.28172682 4.25 27.8125 C0.33859655 31.38967267 -3.44147138 33.13532222 -8.75 33.4375 C-14.7979571 33.09323167 -19.06218907 30.7356842 -23.1328125 26.30859375 C-26.56790455 21.32410704 -26.62335782 15.65252905 -25.75 9.8125 C-23.16227674 4.54121187 -19.5187597 1.42760983 -14.5 -1.5 C-9.49551477 -2.75112131 -4.70649276 -2.03234915 0 0 Z " fill="#FFFFFF" transform="translate(628.75,256.1875)"/>
<path d="M0 0 C4.2536078 2.90018713 8.13546447 6.88461747 9.75 11.875 C10.2029394 17.49144852 9.98524321 21.07431653 6.75 25.875 C2.20974502 30.36270574 -0.99556534 33.01866905 -7.5 33.1875 C-12.60960384 33.12746549 -15.36263542 32.39213938 -19.25 28.875 C-23.75832889 24.17012271 -25.59094548 20.58497077 -25.45703125 13.92578125 C-24.85697972 7.98187455 -21.30263866 4.69529677 -16.96875 1.07421875 C-12.00660411 -2.38800577 -5.47141194 -1.89395029 0 0 Z " fill="#FFFFFF" transform="translate(968.25,367.125)"/>
<path d="M0 0 C4.52407531 2.61391018 5.66984456 5.06676981 7 10 C7.24291992 13.14379883 7.24291992 13.14379883 7.23046875 16.45703125 C7.22853516 17.65134766 7.22660156 18.84566406 7.22460938 20.07617188 C7.20624023 21.9256543 7.20624023 21.9256543 7.1875 23.8125 C7.18685547 25.06482422 7.18621094 26.31714844 7.18554688 27.60742188 C7.14036515 36.85963485 7.14036515 36.85963485 6 38 C4.5112814 38.08669432 3.018555 38.10703494 1.52734375 38.09765625 C0.62822266 38.09443359 -0.27089844 38.09121094 -1.19726562 38.08789062 C-2.61555664 38.07532227 -2.61555664 38.07532227 -4.0625 38.0625 C-5.01189453 38.05798828 -5.96128906 38.05347656 -6.93945312 38.04882812 C-9.29303065 38.0370011 -11.64648477 38.02052025 -14 38 C-14.0744013 33.67671196 -14.12871968 29.35376745 -14.16479492 25.0300293 C-14.17984066 23.56056218 -14.20028238 22.09113966 -14.22631836 20.62182617 C-14.26288955 18.5042823 -14.27976801 16.38733435 -14.29296875 14.26953125 C-14.3086792 12.99698486 -14.32438965 11.72443848 -14.34057617 10.41333008 C-13.97573582 6.75681904 -13.18099868 4.91658792 -11 2 C-7.57905881 -0.56570589 -4.15226516 -0.43708054 0 0 Z " fill="#FFFFFF" transform="translate(717,479)"/>
<path d="M0 0 C3.18618806 2.09998758 4.35911202 3.2580085 5.75 6.8125 C6.38649848 10.63856307 6.61264172 14.13691608 4.80078125 17.65625 C2.27363212 20.90885835 -0.2331001 22.95173574 -4.25 23.8125 C-10.35561978 23.70148873 -13.04169162 21.92061056 -17.25 17.8125 C-19.10110583 14.11028834 -18.71454795 9.85343083 -18.25 5.8125 C-14.01045737 -1.45528737 -7.82093809 -2.85765046 0 0 Z " fill="#FFFFFF" transform="translate(628.25,121.1875)"/>
<path d="M0 0 C3.75212276 2.01502889 5.63644095 3.45466142 8 7 C8.70351326 11.82642815 8.73487541 15.7836545 6.1875 20 C1.83275289 23.98148307 -0.85928502 24.43214912 -6.5546875 24.32421875 C-9.99796232 23.86768231 -11.68540018 22.53159355 -14 20 C-16.8288298 15.7567553 -16.65268001 11.98265471 -16 7 C-12.26369403 0.59490405 -7.26751941 -1.16000791 0 0 Z " fill="#FFFFFF" transform="translate(765,196)"/>
<path d="M0 0 C0.99 2.97 1.98 5.94 3 9 C-1.62 9 -6.24 9 -11 9 C-9.33333333 7.33333333 -7.66666667 5.66666667 -6 4 C-5.278125 3.236875 -4.55625 2.47375 -3.8125 1.6875 C-2 0 -2 0 0 0 Z " fill="#FFFFFF" transform="translate(509,584)"/>
<path d="M0 0 C0.99 0.33 1.98 0.66 3 1 C4.03131735 3.60862624 4.43057449 6.24047635 5 9 C0.38 9 -4.24 9 -9 9 C-7.35 7.68 -5.7 6.36 -4 5 C-2.62631655 3.36643049 -1.28062485 1.7074998 0 0 Z " fill="#FFFFFF" transform="translate(414,584)"/>
<path d="M0 0 C0.99 0 1.98 0 3 0 C3 2.64 3 5.28 3 8 C2.34 8 1.68 8 1 8 C0.67 5.36 0.34 2.72 0 0 Z " fill="#FFFFFF" transform="translate(227,631)"/>
<path d="M0 0 C2.64 0 5.28 0 8 0 C7.67 0.99 7.34 1.98 7 3 C5.02 3 3.04 3 1 3 C0.67 2.01 0.34 1.02 0 0 Z " fill="#FFFFFF" transform="translate(495,770)"/>
<path d="M0 0 C0.33 0 0.66 0 1 0 C1 3.3 1 6.6 1 10 C0.34 9.67 -0.32 9.34 -1 9 C-1.09765625 2.84765625 -1.09765625 2.84765625 -1 1 C-0.67 0.67 -0.34 0.34 0 0 Z " fill="#FFFFFF" transform="translate(231,638)"/>
</svg>
