<?xml version="1.0" encoding="UTF-8"?>
<svg version="1.1" xmlns="http://www.w3.org/2000/svg" width="1623" height="238">
<path d="M0 0 C1.14936035 -0.00095673 2.2987207 -0.00191345 3.48291016 -0.00289917 C5.89290421 -0.00357425 8.30290015 -0.00176734 10.71289062 0.00244141 C14.36592764 0.00779919 18.01884173 0.00247331 21.671875 -0.00390625 C24.03125027 -0.00324535 26.39062546 -0.00196394 28.75 0 C30.3599585 -0.00303635 30.3599585 -0.00303635 32.00244141 -0.00613403 C47.71779997 0.04158158 47.71779997 0.04158158 54.375 1.1328125 C54.705 1.7928125 55.035 2.4528125 55.375 3.1328125 C57.23992402 3.52276352 57.23992402 3.52276352 59.375 3.6328125 C61.5625 3.7890625 61.5625 3.7890625 63.375 4.1328125 C63.705 4.7928125 64.035 5.4528125 64.375 6.1328125 C66.69656597 6.54010478 69.0318787 6.87719927 71.375 7.1328125 C71.375 7.7928125 71.375 8.4528125 71.375 9.1328125 C74.015 9.4628125 76.655 9.7928125 79.375 10.1328125 C79.375 10.7928125 79.375 11.4528125 79.375 12.1328125 C81.025 12.4628125 82.675 12.7928125 84.375 13.1328125 C84.375 13.7928125 84.375 14.4528125 84.375 15.1328125 C86.685 15.1328125 88.995 15.1328125 91.375 15.1328125 C91.045 16.1228125 90.715 17.1128125 90.375 18.1328125 C92.355 18.1328125 94.335 18.1328125 96.375 18.1328125 C96.045 19.1228125 95.715 20.1128125 95.375 21.1328125 C97.025 21.1328125 98.675 21.1328125 100.375 21.1328125 C100.375 22.1228125 100.375 23.1128125 100.375 24.1328125 C101.695 24.1328125 103.015 24.1328125 104.375 24.1328125 C104.375 25.1228125 104.375 26.1128125 104.375 27.1328125 C105.695 27.1328125 107.015 27.1328125 108.375 27.1328125 C108.705 27.7928125 109.035 28.4528125 109.375 29.1328125 C110.365 29.4628125 111.355 29.7928125 112.375 30.1328125 C112.99375 30.9165625 113.6125 31.7003125 114.25 32.5078125 C116.22536443 35.26023961 116.22536443 35.26023961 119.125 36.7578125 C119.8675 37.2115625 120.61 37.6653125 121.375 38.1328125 C121.375 39.1228125 121.375 40.1128125 121.375 41.1328125 C122.365 41.1328125 123.355 41.1328125 124.375 41.1328125 C124.375 42.1228125 124.375 43.1128125 124.375 44.1328125 C125.365 44.1328125 126.355 44.1328125 127.375 44.1328125 C127.375 45.1228125 127.375 46.1128125 127.375 47.1328125 C128.365 47.1328125 129.355 47.1328125 130.375 47.1328125 C130.375 48.1228125 130.375 49.1128125 130.375 50.1328125 C131.365 50.1328125 132.355 50.1328125 133.375 50.1328125 C133.705 51.7828125 134.035 53.4328125 134.375 55.1328125 C135.035 55.1328125 135.695 55.1328125 136.375 55.1328125 C137.035 56.1228125 137.695 57.1128125 138.375 58.1328125 C139.07625 58.7515625 139.7775 59.3703125 140.5 60.0078125 C142.375 62.1328125 142.375 62.1328125 142.625 64.8828125 C142.5425 65.6253125 142.46 66.3678125 142.375 67.1328125 C143.365 67.1328125 144.355 67.1328125 145.375 67.1328125 C145.375 69.1128125 145.375 71.0928125 145.375 73.1328125 C146.365 73.1328125 147.355 73.1328125 148.375 73.1328125 C148.375 75.1128125 148.375 77.0928125 148.375 79.1328125 C149.365 79.4628125 150.355 79.7928125 151.375 80.1328125 C151.560625 81.463125 151.560625 81.463125 151.75 82.8203125 C152.31912736 85.83668752 153.14114436 88.33607304 154.375 91.1328125 C155.95772601 89.55008649 155.72235747 87.75247247 155.9375 85.5703125 C156.02128906 84.74402344 156.10507813 83.91773437 156.19140625 83.06640625 C156.25199219 82.42832031 156.31257813 81.79023437 156.375 81.1328125 C157.035 81.1328125 157.695 81.1328125 158.375 81.1328125 C158.705 79.1528125 159.035 77.1728125 159.375 75.1328125 C160.035 75.1328125 160.695 75.1328125 161.375 75.1328125 C161.49875 74.1840625 161.6225 73.2353125 161.75 72.2578125 C162.375 69.1328125 162.375 69.1328125 164.375 67.1328125 C164.705 66.1428125 165.035 65.1528125 165.375 64.1328125 C166.365 64.1328125 167.355 64.1328125 168.375 64.1328125 C168.375 62.4828125 168.375 60.8328125 168.375 59.1328125 C169.365 59.1328125 170.355 59.1328125 171.375 59.1328125 C171.375 58.1428125 171.375 57.1528125 171.375 56.1328125 C172.75 54.4453125 172.75 54.4453125 174.375 53.1328125 C175.035 53.1328125 175.695 53.1328125 176.375 53.1328125 C176.705 51.1528125 177.035 49.1728125 177.375 47.1328125 C178.365 47.1328125 179.355 47.1328125 180.375 47.1328125 C180.375 46.1428125 180.375 45.1528125 180.375 44.1328125 C181.365 44.1328125 182.355 44.1328125 183.375 44.1328125 C183.375 43.1428125 183.375 42.1528125 183.375 41.1328125 C184.365 41.1328125 185.355 41.1328125 186.375 41.1328125 C186.375 40.1428125 186.375 39.1528125 186.375 38.1328125 C187.365 38.1328125 188.355 38.1328125 189.375 38.1328125 C189.375 37.4728125 189.375 36.8128125 189.375 36.1328125 C190.014375 36.0296875 190.65375 35.9265625 191.3125 35.8203125 C191.993125 35.5934375 192.67375 35.3665625 193.375 35.1328125 C193.705 34.1428125 194.035 33.1528125 194.375 32.1328125 C195.035 32.1328125 195.695 32.1328125 196.375 32.1328125 C196.375 31.4728125 196.375 30.8128125 196.375 30.1328125 C197.695 30.1328125 199.015 30.1328125 200.375 30.1328125 C200.375 29.1428125 200.375 28.1528125 200.375 27.1328125 C201.86 26.1428125 201.86 26.1428125 203.375 25.1328125 C203.375 24.8028125 203.375 24.4728125 203.375 24.1328125 C205.025 24.1328125 206.675 24.1328125 208.375 24.1328125 C208.375 23.1428125 208.375 22.1528125 208.375 21.1328125 C209.695 20.4728125 211.015 19.8128125 212.375 19.1328125 C212.375 18.8028125 212.375 18.4728125 212.375 18.1328125 C214.025 17.8028125 215.675 17.4728125 217.375 17.1328125 C217.375 16.4728125 217.375 15.8128125 217.375 15.1328125 C221.35560777 13.96204551 225.29121717 12.87531847 229.375 12.1328125 C229.375 11.4728125 229.375 10.8128125 229.375 10.1328125 C232.015 9.8028125 234.655 9.4728125 237.375 9.1328125 C237.375 8.4728125 237.375 7.8128125 237.375 7.1328125 C238.509375 7.0090625 239.64375 6.8853125 240.8125 6.7578125 C241.988125 6.5515625 243.16375 6.3453125 244.375 6.1328125 C244.705 5.4728125 245.035 4.8128125 245.375 4.1328125 C247.43765822 3.7416187 249.46943267 3.62606731 251.5625 3.4765625 C252.160625 3.363125 252.75875 3.2496875 253.375 3.1328125 C253.705 2.4728125 254.035 1.8128125 254.375 1.1328125 C262.52924508 -0.34064113 271.11539888 -0.01485699 279.375 0 C280.57253906 -0.00095673 281.77007813 -0.00191345 283.00390625 -0.00289917 C285.51822971 -0.00357511 288.03255497 -0.00176206 290.546875 0.00244141 C294.36462374 0.00779794 298.18225486 0.0024763 302 -0.00390625 C304.45833359 -0.00324536 306.91666711 -0.00196399 309.375 0 C310.50035156 -0.00202423 311.62570312 -0.00404846 312.78515625 -0.00613403 C328.32256176 0.03915061 328.32256176 0.03915061 334.375 1.1328125 C334.705 1.7928125 335.035 2.4528125 335.375 3.1328125 C337.27033342 3.59804313 337.27033342 3.59804313 339.4375 3.7578125 C340.736875 3.8815625 342.03625 4.0053125 343.375 4.1328125 C343.375 4.7928125 343.375 5.4528125 343.375 6.1328125 C344.674375 6.2565625 345.97375 6.3803125 347.3125 6.5078125 C349.52734375 6.71875 349.52734375 6.71875 351.375 7.1328125 C351.705 7.7928125 352.035 8.4528125 352.375 9.1328125 C355.40434491 9.79053678 355.40434491 9.79053678 358.375 10.1328125 C358.375 10.7928125 358.375 11.4528125 358.375 12.1328125 C360.355 12.4628125 362.335 12.7928125 364.375 13.1328125 C364.375 13.7928125 364.375 14.4528125 364.375 15.1328125 C366.355 15.1328125 368.335 15.1328125 370.375 15.1328125 C370.375 16.1228125 370.375 17.1128125 370.375 18.1328125 C372.025 18.1328125 373.675 18.1328125 375.375 18.1328125 C375.375 19.1228125 375.375 20.1128125 375.375 21.1328125 C377.025 21.1328125 378.675 21.1328125 380.375 21.1328125 C380.375 21.7928125 380.375 22.4528125 380.375 23.1328125 C380.9525 23.4009375 381.53 23.6690625 382.125 23.9453125 C385.36600039 25.65584048 387.88463607 27.62758906 390.4375 30.2578125 C392.32742885 32.3572292 392.32742885 32.3572292 395.375 33.1328125 C395.375 34.1228125 395.375 35.1128125 395.375 36.1328125 C396.365 36.1328125 397.355 36.1328125 398.375 36.1328125 C398.375 36.7928125 398.375 37.4528125 398.375 38.1328125 C399.365 38.1328125 400.355 38.1328125 401.375 38.1328125 C401.375 39.1228125 401.375 40.1128125 401.375 41.1328125 C402.365 41.1328125 403.355 41.1328125 404.375 41.1328125 C404.375 42.1228125 404.375 43.1128125 404.375 44.1328125 C405.365 44.4628125 406.355 44.7928125 407.375 45.1328125 C409.375 47.1328125 409.375 47.1328125 409.375 50.1328125 C410.365 50.1328125 411.355 50.1328125 412.375 50.1328125 C412.375 51.1228125 412.375 52.1128125 412.375 53.1328125 C413.365 53.1328125 414.355 53.1328125 415.375 53.1328125 C415.705 54.7828125 416.035 56.4328125 416.375 58.1328125 C417.035 58.1328125 417.695 58.1328125 418.375 58.1328125 C418.375 59.1228125 418.375 60.1128125 418.375 61.1328125 C419.365 61.4628125 420.355 61.7928125 421.375 62.1328125 C421.375 63.7828125 421.375 65.4328125 421.375 67.1328125 C422.365 67.1328125 423.355 67.1328125 424.375 67.1328125 C425.035 68.4528125 425.695 69.7728125 426.375 71.1328125 C426.705 71.1328125 427.035 71.1328125 427.375 71.1328125 C427.375 73.7728125 427.375 76.4128125 427.375 79.1328125 C428.86 78.6378125 428.86 78.6378125 430.375 78.1328125 C430.375 80.4428125 430.375 82.7528125 430.375 85.1328125 C431.365 85.1328125 432.355 85.1328125 433.375 85.1328125 C434.37926071 91.786663 434.52051819 98.28504743 434.5078125 105.0078125 C434.50876923 106.13171387 434.50972595 107.25561523 434.51071167 108.41357422 C434.51138954 110.78027401 434.50956279 113.1469757 434.50537109 115.51367188 C434.50001733 119.12113653 434.50532951 122.72847669 434.51171875 126.3359375 C434.5110579 128.64322944 434.50977659 130.9505213 434.5078125 133.2578125 C434.51084885 134.86438721 434.51084885 134.86438721 434.51394653 136.50341797 C434.49643021 142.14177235 434.2167134 147.55593884 433.375 153.1328125 C432.385 153.1328125 431.395 153.1328125 430.375 153.1328125 C430.375 155.1128125 430.375 157.0928125 430.375 159.1328125 C429.385 159.1328125 428.395 159.1328125 427.375 159.1328125 C427.375 161.1128125 427.375 163.0928125 427.375 165.1328125 C426.385 165.1328125 425.395 165.1328125 424.375 165.1328125 C424.375 167.1128125 424.375 169.0928125 424.375 171.1328125 C423.385 171.1328125 422.395 171.1328125 421.375 171.1328125 C421.375 172.1228125 421.375 173.1128125 421.375 174.1328125 C420.715 174.1328125 420.055 174.1328125 419.375 174.1328125 C419.271875 174.8959375 419.16875 175.6590625 419.0625 176.4453125 C418.32788806 179.31697734 417.7033935 180.36323344 415.375 182.1328125 C414.715 182.1328125 414.055 182.1328125 413.375 182.1328125 C413.045 184.1128125 412.715 186.0928125 412.375 188.1328125 C411.385 188.1328125 410.395 188.1328125 409.375 188.1328125 C409.375 189.1228125 409.375 190.1128125 409.375 191.1328125 C408.385 191.1328125 407.395 191.1328125 406.375 191.1328125 C406.375 192.1228125 406.375 193.1128125 406.375 194.1328125 C405.385 194.1328125 404.395 194.1328125 403.375 194.1328125 C403.375 195.1228125 403.375 196.1128125 403.375 197.1328125 C402.385 197.1328125 401.395 197.1328125 400.375 197.1328125 C400.375 198.1228125 400.375 199.1128125 400.375 200.1328125 C399.385 200.1328125 398.395 200.1328125 397.375 200.1328125 C397.375 200.7928125 397.375 201.4528125 397.375 202.1328125 C392.90441176 206.1328125 392.90441176 206.1328125 390.375 206.1328125 C390.375 206.7928125 390.375 207.4528125 390.375 208.1328125 C389.385 208.4628125 388.395 208.7928125 387.375 209.1328125 C387.045 209.7928125 386.715 210.4528125 386.375 211.1328125 C384.89 212.1228125 384.89 212.1228125 383.375 213.1328125 C383.375 213.4628125 383.375 213.7928125 383.375 214.1328125 C381.725 214.1328125 380.075 214.1328125 378.375 214.1328125 C378.375 215.1228125 378.375 216.1128125 378.375 217.1328125 C376.725 217.1328125 375.075 217.1328125 373.375 217.1328125 C373.705 218.1228125 374.035 219.1128125 374.375 220.1328125 C372.395 220.4628125 370.415 220.7928125 368.375 221.1328125 C368.375 221.7928125 368.375 222.4528125 368.375 223.1328125 C366.395 223.1328125 364.415 223.1328125 362.375 223.1328125 C362.375 223.7928125 362.375 224.4528125 362.375 225.1328125 C360.065 225.4628125 357.755 225.7928125 355.375 226.1328125 C355.375 226.7928125 355.375 227.4528125 355.375 228.1328125 C353.065 228.4628125 350.755 228.7928125 348.375 229.1328125 C348.375 229.7928125 348.375 230.4528125 348.375 231.1328125 C343.92 232.1228125 343.92 232.1228125 339.375 233.1328125 C339.375 233.4628125 339.375 233.7928125 339.375 234.1328125 C338.59253906 234.18179688 337.81007813 234.23078125 337.00390625 234.28125 C335.99199219 234.35601562 334.98007813 234.43078125 333.9375 234.5078125 C332.42349609 234.61222656 332.42349609 234.61222656 330.87890625 234.71875 C330.05261719 234.85539063 329.22632813 234.99203125 328.375 235.1328125 C328.045 235.7928125 327.715 236.4528125 327.375 237.1328125 C320.61056153 238.58901864 313.35627234 238.28037706 306.46875 238.265625 C305.4634021 238.26658173 304.4580542 238.26753845 303.42224121 238.26852417 C301.31127865 238.26920016 299.20031395 238.26738676 297.08935547 238.26318359 C293.88374094 238.25782711 290.67826649 238.26314851 287.47265625 238.26953125 C285.40885386 238.26887037 283.34505156 238.26758899 281.28125 238.265625 C280.33616577 238.26764923 279.39108154 238.26967346 278.4173584 238.27175903 C265.4566695 238.22676263 265.4566695 238.22676263 260.375 237.1328125 C260.045 236.4728125 259.715 235.8128125 259.375 235.1328125 C256.82008177 234.74068212 256.82008177 234.74068212 253.875 234.6328125 C250.84375 234.4765625 250.84375 234.4765625 248.375 234.1328125 C248.045 233.4728125 247.715 232.8128125 247.375 232.1328125 C245.51007598 231.74286148 245.51007598 231.74286148 243.375 231.6328125 C241.1875 231.4765625 241.1875 231.4765625 239.375 231.1328125 C239.045 230.4728125 238.715 229.8128125 238.375 229.1328125 C237.385 228.9678125 236.395 228.8028125 235.375 228.6328125 C234.385 228.4678125 233.395 228.3028125 232.375 228.1328125 C232.045 227.4728125 231.715 226.8128125 231.375 226.1328125 C228.34565509 225.47508822 228.34565509 225.47508822 225.375 225.1328125 C225.375 224.4728125 225.375 223.8128125 225.375 223.1328125 C223.725 223.1328125 222.075 223.1328125 220.375 223.1328125 C220.375 222.1428125 220.375 221.1528125 220.375 220.1328125 C218.395 220.1328125 216.415 220.1328125 214.375 220.1328125 C214.375 219.4728125 214.375 218.8128125 214.375 218.1328125 C212.725 217.8028125 211.075 217.4728125 209.375 217.1328125 C209.375 216.4728125 209.375 215.8128125 209.375 215.1328125 C208.055 214.8028125 206.735 214.4728125 205.375 214.1328125 C205.375 213.1428125 205.375 212.1528125 205.375 211.1328125 C204.055 211.1328125 202.735 211.1328125 201.375 211.1328125 C201.045 210.4728125 200.715 209.8128125 200.375 209.1328125 C199.385 208.8028125 198.395 208.4728125 197.375 208.1328125 C197.375 207.1428125 197.375 206.1528125 197.375 205.1328125 C196.385 205.1328125 195.395 205.1328125 194.375 205.1328125 C193.02067325 203.82080846 191.68766518 202.48649846 190.375 201.1328125 C189.385 200.8028125 188.395 200.4728125 187.375 200.1328125 C187.375 199.1428125 187.375 198.1528125 187.375 197.1328125 C186.385 196.8028125 185.395 196.4728125 184.375 196.1328125 C182.8125 194.6953125 182.8125 194.6953125 181.375 193.1328125 C180.715 192.4728125 180.055 191.8128125 179.375 191.1328125 C179.375 190.1428125 179.375 189.1528125 179.375 188.1328125 C178.715 188.1328125 178.055 188.1328125 177.375 188.1328125 C177.375 187.1428125 177.375 186.1528125 177.375 185.1328125 C176.385 185.1328125 175.395 185.1328125 174.375 185.1328125 C174.375 184.1428125 174.375 183.1528125 174.375 182.1328125 C173.385 182.1328125 172.395 182.1328125 171.375 182.1328125 C171.375 180.4828125 171.375 178.8328125 171.375 177.1328125 C170.385 177.1328125 169.395 177.1328125 168.375 177.1328125 C168.375 176.1428125 168.375 175.1528125 168.375 174.1328125 C167.385 173.8028125 166.395 173.4728125 165.375 173.1328125 C165.375 171.4828125 165.375 169.8328125 165.375 168.1328125 C164.385 168.1328125 163.395 168.1328125 162.375 168.1328125 C162.375 166.1528125 162.375 164.1728125 162.375 162.1328125 C161.385 162.1328125 160.395 162.1328125 159.375 162.1328125 C159.375 160.1528125 159.375 158.1728125 159.375 156.1328125 C158.385 156.1328125 157.395 156.1328125 156.375 156.1328125 C155.715 152.5028125 155.055 148.8728125 154.375 145.1328125 C154.045 147.1128125 153.715 149.0928125 153.375 151.1328125 C152.715 151.1328125 152.055 151.1328125 151.375 151.1328125 C151.375 153.1128125 151.375 155.0928125 151.375 157.1328125 C150.385 157.1328125 149.395 157.1328125 148.375 157.1328125 C148.375 159.7728125 148.375 162.4128125 148.375 165.1328125 C147.385 165.1328125 146.395 165.1328125 145.375 165.1328125 C145.375 166.7828125 145.375 168.4328125 145.375 170.1328125 C144.385 170.4628125 143.395 170.7928125 142.375 171.1328125 C142.375 172.1228125 142.375 173.1128125 142.375 174.1328125 C141.385 174.1328125 140.395 174.1328125 139.375 174.1328125 C139.375 175.7828125 139.375 177.4328125 139.375 179.1328125 C138.385 179.1328125 137.395 179.1328125 136.375 179.1328125 C136.375 180.1228125 136.375 181.1128125 136.375 182.1328125 C135.385 182.1328125 134.395 182.1328125 133.375 182.1328125 C133.436875 183.0815625 133.49875 184.0303125 133.5625 185.0078125 C133.500625 186.0390625 133.43875 187.0703125 133.375 188.1328125 C130.375 190.1328125 130.375 190.1328125 127.375 191.1328125 C127.375 192.1228125 127.375 193.1128125 127.375 194.1328125 C126.385 194.1328125 125.395 194.1328125 124.375 194.1328125 C124.375 195.1228125 124.375 196.1128125 124.375 197.1328125 C123.385 197.1328125 122.395 197.1328125 121.375 197.1328125 C121.375 198.1228125 121.375 199.1128125 121.375 200.1328125 C120.385 200.1328125 119.395 200.1328125 118.375 200.1328125 C118.375 200.7928125 118.375 201.4528125 118.375 202.1328125 C117.735625 202.2359375 117.09625 202.3390625 116.4375 202.4453125 C115.756875 202.6721875 115.07625 202.8990625 114.375 203.1328125 C114.045 204.1228125 113.715 205.1128125 113.375 206.1328125 C112.715 206.1328125 112.055 206.1328125 111.375 206.1328125 C111.375 206.7928125 111.375 207.4528125 111.375 208.1328125 C110.055 208.1328125 108.735 208.1328125 107.375 208.1328125 C107.375 209.1228125 107.375 210.1128125 107.375 211.1328125 C106.385 211.4628125 105.395 211.7928125 104.375 212.1328125 C104.045 212.7928125 103.715 213.4528125 103.375 214.1328125 C101.3125 215.2578125 101.3125 215.2578125 99.375 216.1328125 C99.375 216.4628125 99.375 216.7928125 99.375 217.1328125 C97.395 217.1328125 95.415 217.1328125 93.375 217.1328125 C93.705 218.1228125 94.035 219.1128125 94.375 220.1328125 C92.395 220.1328125 90.415 220.1328125 88.375 220.1328125 C88.375 221.1228125 88.375 222.1128125 88.375 223.1328125 C86.395 223.1328125 84.415 223.1328125 82.375 223.1328125 C82.375 223.7928125 82.375 224.4528125 82.375 225.1328125 C80.395 225.4628125 78.415 225.7928125 76.375 226.1328125 C76.375 226.7928125 76.375 227.4528125 76.375 228.1328125 C73.735 228.4628125 71.095 228.7928125 68.375 229.1328125 C68.375 229.7928125 68.375 230.4528125 68.375 231.1328125 C65.405 231.4628125 62.435 231.7928125 59.375 232.1328125 C59.375 232.7928125 59.375 233.4528125 59.375 234.1328125 C55.745 234.4628125 52.115 234.7928125 48.375 235.1328125 C48.375 235.7928125 48.375 236.4528125 48.375 237.1328125 C41.3111552 237.97463214 34.3604791 238.28051008 27.25 238.265625 C26.22245605 238.26658173 25.19491211 238.26753845 24.13623047 238.26852417 C21.97818948 238.2692003 19.82014638 238.26738588 17.66210938 238.26318359 C14.38406752 238.25782732 11.10616266 238.26314801 7.828125 238.26953125 C5.7187497 238.26887037 3.60937449 238.267589 1.5 238.265625 C0.53304199 238.26764923 -0.43391602 238.26967346 -1.43017578 238.27175903 C-7.55125534 238.2509666 -13.54690638 237.85715721 -19.625 237.1328125 C-19.625 236.4728125 -19.625 235.8128125 -19.625 235.1328125 C-20.79869141 235.05933594 -20.79869141 235.05933594 -21.99609375 234.984375 C-23.51396484 234.87222656 -23.51396484 234.87222656 -25.0625 234.7578125 C-26.07183594 234.68820313 -27.08117188 234.61859375 -28.12109375 234.546875 C-28.94738281 234.41023437 -29.77367187 234.27359375 -30.625 234.1328125 C-30.955 233.4728125 -31.285 232.8128125 -31.625 232.1328125 C-33.52033342 231.66758187 -33.52033342 231.66758187 -35.6875 231.5078125 C-36.986875 231.3840625 -38.28625 231.2603125 -39.625 231.1328125 C-39.625 230.4728125 -39.625 229.8128125 -39.625 229.1328125 C-41.935 228.8028125 -44.245 228.4728125 -46.625 228.1328125 C-46.625 227.4728125 -46.625 226.8128125 -46.625 226.1328125 C-48.935 225.8028125 -51.245 225.4728125 -53.625 225.1328125 C-53.625 224.4728125 -53.625 223.8128125 -53.625 223.1328125 C-55.605 223.1328125 -57.585 223.1328125 -59.625 223.1328125 C-59.625 222.4728125 -59.625 221.8128125 -59.625 221.1328125 C-61.275 220.8028125 -62.925 220.4728125 -64.625 220.1328125 C-64.625 219.1428125 -64.625 218.1528125 -64.625 217.1328125 C-66.275 217.1328125 -67.925 217.1328125 -69.625 217.1328125 C-69.625 216.1428125 -69.625 215.1528125 -69.625 214.1328125 C-70.945 214.1328125 -72.265 214.1328125 -73.625 214.1328125 C-73.955 213.4728125 -74.285 212.8128125 -74.625 212.1328125 C-76.64963255 211.48067958 -76.64963255 211.48067958 -78.625 211.1328125 C-78.625 210.1428125 -78.625 209.1528125 -78.625 208.1328125 C-79.615 208.1328125 -80.605 208.1328125 -81.625 208.1328125 C-81.955 207.4728125 -82.285 206.8128125 -82.625 206.1328125 C-83.615 205.8028125 -84.605 205.4728125 -85.625 205.1328125 C-85.625 204.4728125 -85.625 203.8128125 -85.625 203.1328125 C-86.615 202.8028125 -87.605 202.4728125 -88.625 202.1328125 C-88.625 201.4728125 -88.625 200.8128125 -88.625 200.1328125 C-89.945 200.1328125 -91.265 200.1328125 -92.625 200.1328125 C-92.625 199.1428125 -92.625 198.1528125 -92.625 197.1328125 C-93.615 196.8028125 -94.605 196.4728125 -95.625 196.1328125 C-98.07996347 194.07064318 -99.2083151 191.96618231 -100.625 189.1328125 C-101.285 188.8028125 -101.945 188.4728125 -102.625 188.1328125 C-102.625 187.1428125 -102.625 186.1528125 -102.625 185.1328125 C-103.285 185.1328125 -103.945 185.1328125 -104.625 185.1328125 C-106.25 183.8203125 -106.25 183.8203125 -107.625 182.1328125 C-107.625 181.1428125 -107.625 180.1528125 -107.625 179.1328125 C-108.615 178.8028125 -109.605 178.4728125 -110.625 178.1328125 C-110.625 176.8128125 -110.625 175.4928125 -110.625 174.1328125 C-111.615 174.1328125 -112.605 174.1328125 -113.625 174.1328125 C-113.810625 172.92625 -113.810625 172.92625 -114 171.6953125 C-114.20625 170.8496875 -114.4125 170.0040625 -114.625 169.1328125 C-115.285 168.8028125 -115.945 168.4728125 -116.625 168.1328125 C-117.25 165.5703125 -117.25 165.5703125 -117.625 163.1328125 C-118.285 163.1328125 -118.945 163.1328125 -119.625 163.1328125 C-119.955 161.1528125 -120.285 159.1728125 -120.625 157.1328125 C-121.285 157.1328125 -121.945 157.1328125 -122.625 157.1328125 C-122.625 154.1628125 -122.625 151.1928125 -122.625 148.1328125 C-123.615 148.1328125 -124.605 148.1328125 -125.625 148.1328125 C-125.625 144.1728125 -125.625 140.2128125 -125.625 136.1328125 C-126.615 135.8028125 -127.605 135.4728125 -128.625 135.1328125 C-128.955 129.8528125 -129.285 124.5728125 -129.625 119.1328125 C-130.285 119.1328125 -130.945 119.1328125 -131.625 119.1328125 C-131.295 121.4428125 -130.965 123.7528125 -130.625 126.1328125 C-131.615 125.8028125 -132.605 125.4728125 -133.625 125.1328125 C-133.625 127.7728125 -133.625 130.4128125 -133.625 133.1328125 C-134.615 133.1328125 -135.605 133.1328125 -136.625 133.1328125 C-136.625 135.1128125 -136.625 137.0928125 -136.625 139.1328125 C-137.615 139.1328125 -138.605 139.1328125 -139.625 139.1328125 C-139.625 141.7728125 -139.625 144.4128125 -139.625 147.1328125 C-140.615 147.4628125 -141.605 147.7928125 -142.625 148.1328125 C-142.625 149.7828125 -142.625 151.4328125 -142.625 153.1328125 C-143.285 153.4628125 -143.945 153.7928125 -144.625 154.1328125 C-145.28055119 156.66014485 -145.28055119 156.66014485 -145.625 159.1328125 C-146.285 159.1328125 -146.945 159.1328125 -147.625 159.1328125 C-147.955 162.1028125 -148.285 165.0728125 -148.625 168.1328125 C-149.615 168.1328125 -150.605 168.1328125 -151.625 168.1328125 C-151.625 170.1128125 -151.625 172.0928125 -151.625 174.1328125 C-152.285 174.1328125 -152.945 174.1328125 -153.625 174.1328125 C-153.625 176.4428125 -153.625 178.7528125 -153.625 181.1328125 C-154.615 181.4628125 -155.605 181.7928125 -156.625 182.1328125 C-156.625 184.1128125 -156.625 186.0928125 -156.625 188.1328125 C-157.615 188.1328125 -158.605 188.1328125 -159.625 188.1328125 C-159.625 190.4428125 -159.625 192.7528125 -159.625 195.1328125 C-160.615 194.8028125 -161.605 194.4728125 -162.625 194.1328125 C-162.625 196.7728125 -162.625 199.4128125 -162.625 202.1328125 C-163.615 202.1328125 -164.605 202.1328125 -165.625 202.1328125 C-165.625 204.1128125 -165.625 206.0928125 -165.625 208.1328125 C-166.285 208.4628125 -166.945 208.7928125 -167.625 209.1328125 C-168.09023063 211.02814592 -168.09023063 211.02814592 -168.25 213.1953125 C-168.37375 214.4946875 -168.4975 215.7940625 -168.625 217.1328125 C-169.615 217.1328125 -170.605 217.1328125 -171.625 217.1328125 C-171.625 219.1128125 -171.625 221.0928125 -171.625 223.1328125 C-175.40887383 224.87974102 -178.37395658 225.38513162 -182.52929688 225.39160156 C-184.27635925 225.40105804 -184.27635925 225.40105804 -186.05871582 225.41070557 C-187.3077771 225.4066571 -188.55683838 225.40260864 -189.84375 225.3984375 C-191.13438354 225.40035095 -192.42501709 225.4022644 -193.75476074 225.40423584 C-196.4815756 225.40717794 -199.20825906 225.40291903 -201.93505859 225.39355469 C-205.42196869 225.38216055 -208.90857085 225.38872494 -212.39546967 225.40069962 C-215.73242082 225.40968376 -219.06929011 225.40338477 -222.40625 225.3984375 C-223.65531128 225.40248596 -224.90437256 225.40653442 -226.19128418 225.41070557 C-227.35599243 225.40440125 -228.52070068 225.39809692 -229.72070312 225.39160156 C-230.74264771 225.39001038 -231.76459229 225.38841919 -232.81750488 225.38677979 C-235.76394204 225.12024374 -237.95103901 224.3673195 -240.625 223.1328125 C-240.625 222.1428125 -240.625 221.1528125 -240.625 220.1328125 C-241.615 219.8028125 -242.605 219.4728125 -243.625 219.1328125 C-243.295 217.4828125 -242.965 215.8328125 -242.625 214.1328125 C-243.285 214.1328125 -243.945 214.1328125 -244.625 214.1328125 C-244.625 213.4728125 -244.625 212.8128125 -244.625 212.1328125 C-245.285 211.8028125 -245.945 211.4728125 -246.625 211.1328125 C-246.625 209.4828125 -246.625 207.8328125 -246.625 206.1328125 C-247.285 206.1328125 -247.945 206.1328125 -248.625 206.1328125 C-248.810625 205.17375 -248.810625 205.17375 -249 204.1953125 C-249.20625 203.5146875 -249.4125 202.8340625 -249.625 202.1328125 C-250.285 201.8028125 -250.945 201.4728125 -251.625 201.1328125 C-252.03229228 198.81124653 -252.36938677 196.4759338 -252.625 194.1328125 C-253.285 194.1328125 -253.945 194.1328125 -254.625 194.1328125 C-254.810625 192.92625 -254.810625 192.92625 -255 191.6953125 C-255.20625 190.8496875 -255.4125 190.0040625 -255.625 189.1328125 C-256.285 188.8028125 -256.945 188.4728125 -257.625 188.1328125 C-257.95833333 186.46614583 -258.29166667 184.79947917 -258.625 183.1328125 C-259.285 182.8028125 -259.945 182.4728125 -260.625 182.1328125 C-260.95833333 180.46614583 -261.29166667 178.79947917 -261.625 177.1328125 C-262.285 176.8028125 -262.945 176.4728125 -263.625 176.1328125 C-263.625 174.4828125 -263.625 172.8328125 -263.625 171.1328125 C-264.615 171.1328125 -265.605 171.1328125 -266.625 171.1328125 C-266.625 169.1528125 -266.625 167.1728125 -266.625 165.1328125 C-267.285 165.1328125 -267.945 165.1328125 -268.625 165.1328125 C-268.810625 163.92625 -268.810625 163.92625 -269 162.6953125 C-269.20625 161.8496875 -269.4125 161.0040625 -269.625 160.1328125 C-270.285 159.8028125 -270.945 159.4728125 -271.625 159.1328125 C-271.95833333 157.46614583 -272.29166667 155.79947917 -272.625 154.1328125 C-273.285 153.8028125 -273.945 153.4728125 -274.625 153.1328125 C-274.625 151.4828125 -274.625 149.8328125 -274.625 148.1328125 C-275.615 148.1328125 -276.605 148.1328125 -277.625 148.1328125 C-277.955 145.1628125 -278.285 142.1928125 -278.625 139.1328125 C-279.285 139.1328125 -279.945 139.1328125 -280.625 139.1328125 C-280.625 141.1128125 -280.625 143.0928125 -280.625 145.1328125 C-281.615 145.1328125 -282.605 145.1328125 -283.625 145.1328125 C-283.625 147.4428125 -283.625 149.7528125 -283.625 152.1328125 C-284.285 152.4628125 -284.945 152.7928125 -285.625 153.1328125 C-285.79 153.9578125 -285.955 154.7828125 -286.125 155.6328125 C-286.29 156.4578125 -286.455 157.2828125 -286.625 158.1328125 C-287.285 158.4628125 -287.945 158.7928125 -288.625 159.1328125 C-289.28272428 162.16215741 -289.28272428 162.16215741 -289.625 165.1328125 C-290.615 165.1328125 -291.605 165.1328125 -292.625 165.1328125 C-292.625 167.1128125 -292.625 169.0928125 -292.625 171.1328125 C-293.285 171.1328125 -293.945 171.1328125 -294.625 171.1328125 C-294.769375 171.9371875 -294.91375 172.7415625 -295.0625 173.5703125 C-295.625 176.1328125 -295.625 176.1328125 -296.625 177.1328125 C-296.99260731 179.46099214 -297.32741581 181.794651 -297.625 184.1328125 C-298.615 184.4628125 -299.605 184.7928125 -300.625 185.1328125 C-300.625 187.1128125 -300.625 189.0928125 -300.625 191.1328125 C-301.615 191.1328125 -302.605 191.1328125 -303.625 191.1328125 C-303.625 193.1128125 -303.625 195.0928125 -303.625 197.1328125 C-304.615 197.1328125 -305.605 197.1328125 -306.625 197.1328125 C-306.625 199.1128125 -306.625 201.0928125 -306.625 203.1328125 C-307.285 203.1328125 -307.945 203.1328125 -308.625 203.1328125 C-308.955 205.1128125 -309.285 207.0928125 -309.625 209.1328125 C-310.285 209.1328125 -310.945 209.1328125 -311.625 209.1328125 C-311.955 211.7728125 -312.285 214.4128125 -312.625 217.1328125 C-313.615 217.1328125 -314.605 217.1328125 -315.625 217.1328125 C-315.5940625 218.339375 -315.5940625 218.339375 -315.5625 219.5703125 C-315.625 222.1328125 -315.625 222.1328125 -316.625 223.1328125 C-318.83367831 223.22714235 -321.04541521 223.25023681 -323.25610352 223.24633789 C-323.94875305 223.24648392 -324.64140259 223.24662994 -325.3550415 223.2467804 C-327.65469446 223.24608124 -329.95426737 223.23828878 -332.25390625 223.23046875 C-333.84431412 223.22860458 -335.43472257 223.22718067 -337.02513123 223.22618103 C-341.2189593 223.22235579 -345.41275295 223.21252545 -349.60656738 223.20147705 C-353.88288914 223.19126307 -358.15921644 223.18668344 -362.43554688 223.18164062 C-370.83204708 223.17090319 -379.22851926 223.15382669 -387.625 223.1328125 C-387.625 222.4728125 -387.625 221.8128125 -387.625 221.1328125 C-388.285 221.1328125 -388.945 221.1328125 -389.625 221.1328125 C-389.625 218.8228125 -389.625 216.5128125 -389.625 214.1328125 C-390.615 214.1328125 -391.605 214.1328125 -392.625 214.1328125 C-392.625 212.1528125 -392.625 210.1728125 -392.625 208.1328125 C-393.615 208.1328125 -394.605 208.1328125 -395.625 208.1328125 C-395.625 205.4928125 -395.625 202.8528125 -395.625 200.1328125 C-396.615 199.8028125 -397.605 199.4728125 -398.625 199.1328125 C-399.8125 195.5703125 -399.8125 195.5703125 -400.625 192.1328125 C-400.955 192.1328125 -401.285 192.1328125 -401.625 192.1328125 C-401.625 189.8228125 -401.625 187.5128125 -401.625 185.1328125 C-402.615 185.1328125 -403.605 185.1328125 -404.625 185.1328125 C-405.285 182.8228125 -405.945 180.5128125 -406.625 178.1328125 C-406.955 178.1328125 -407.285 178.1328125 -407.625 178.1328125 C-407.625 175.8228125 -407.625 173.5128125 -407.625 171.1328125 C-408.615 170.8028125 -409.605 170.4728125 -410.625 170.1328125 C-410.295 168.4828125 -409.965 166.8328125 -409.625 165.1328125 C-410.615 165.1328125 -411.605 165.1328125 -412.625 165.1328125 C-412.955 162.1628125 -413.285 159.1928125 -413.625 156.1328125 C-414.285 156.1328125 -414.945 156.1328125 -415.625 156.1328125 C-415.625 154.4828125 -415.625 152.8328125 -415.625 151.1328125 C-416.615 151.1328125 -417.605 151.1328125 -418.625 151.1328125 C-418.8203125 149.08203125 -419.015625 147.03125 -419.2109375 144.98046875 C-419.34757813 144.37074219 -419.48421875 143.76101562 -419.625 143.1328125 C-420.285 142.8028125 -420.945 142.4728125 -421.625 142.1328125 C-421.625 140.1528125 -421.625 138.1728125 -421.625 136.1328125 C-422.615 136.1328125 -423.605 136.1328125 -424.625 136.1328125 C-424.810625 134.43125 -424.810625 134.43125 -425 132.6953125 C-425.20625 131.5196875 -425.4125 130.3440625 -425.625 129.1328125 C-426.285 128.8028125 -426.945 128.4728125 -427.625 128.1328125 C-427.625 126.1528125 -427.625 124.1728125 -427.625 122.1328125 C-428.615 121.8028125 -429.605 121.4728125 -430.625 121.1328125 C-430.625 119.4828125 -430.625 117.8328125 -430.625 116.1328125 C-431.285 116.1328125 -431.945 116.1328125 -432.625 116.1328125 C-432.810625 114.4621875 -432.810625 114.4621875 -433 112.7578125 C-433.2715813 109.10177573 -433.2715813 109.10177573 -435.625 107.1328125 C-436.3386591 104.81342043 -436.9997292 102.47757801 -437.625 100.1328125 C-438.54914941 96.85716887 -438.54914941 96.85716887 -439.625 94.1328125 C-440.285 93.8028125 -440.945 93.4728125 -441.625 93.1328125 C-442.35575648 90.8187503 -443.02638258 88.48452381 -443.625 86.1328125 C-443.955 86.1328125 -444.285 86.1328125 -444.625 86.1328125 C-444.625 83.8228125 -444.625 81.5128125 -444.625 79.1328125 C-445.615 79.1328125 -446.605 79.1328125 -447.625 79.1328125 C-447.625 77.1528125 -447.625 75.1728125 -447.625 73.1328125 C-491.515 73.1328125 -535.405 73.1328125 -580.625 73.1328125 C-580.295 73.7928125 -579.965 74.4528125 -579.625 75.1328125 C-579.54127341 76.65429576 -579.51769973 78.17937028 -579.52734375 79.703125 C-579.53056641 80.59902344 -579.53378906 81.49492188 -579.53710938 82.41796875 C-579.54548828 83.35511719 -579.55386719 84.29226562 -579.5625 85.2578125 C-579.56701172 86.20269531 -579.57152344 87.14757812 -579.57617188 88.12109375 C-579.58797643 90.45839637 -579.60444241 92.79557311 -579.625 95.1328125 C-579.01262765 95.13189071 -578.4002553 95.13096891 -577.76932621 95.13001919 C-562.88948512 95.10796355 -548.0096456 95.09140075 -533.12979221 95.08100033 C-525.93409705 95.07583747 -518.73841278 95.06879497 -511.54272461 95.05737305 C-505.27315306 95.0474259 -499.00358939 95.040959 -492.73401016 95.03872401 C-489.41234379 95.03741695 -486.09070534 95.03381253 -482.76904488 95.02708244 C-479.06680053 95.01987622 -475.36460369 95.01882138 -471.66235352 95.01928711 C-470.55321091 95.01569183 -469.4440683 95.01209656 -468.30131531 95.00839233 C-467.29865631 95.009767 -466.29599731 95.01114166 -465.26295471 95.01255798 C-464.38632958 95.01163619 -463.50970446 95.0107144 -462.60651493 95.00976467 C-460.625 95.1328125 -460.625 95.1328125 -459.625 96.1328125 C-459.625 113.2928125 -459.625 130.4528125 -459.625 148.1328125 C-499.555 148.1328125 -539.485 148.1328125 -580.625 148.1328125 C-580.295 148.7928125 -579.965 149.4528125 -579.625 150.1328125 C-579.52690142 152.81032668 -579.4859603 155.45590967 -579.5 158.1328125 C-579.49613281 158.87015625 -579.49226562 159.6075 -579.48828125 160.3671875 C-579.4983402 165.8794929 -579.4983402 165.8794929 -580.625 168.1328125 C-535.745 168.1328125 -490.865 168.1328125 -444.625 168.1328125 C-444.625 186.6128125 -444.625 205.0928125 -444.625 224.1328125 C-446.4398514 225.9476639 -449.25573525 225.26490811 -451.69712353 225.26982689 C-452.34143854 225.27247872 -452.98575355 225.27513054 -453.64959326 225.27786273 C-455.83543551 225.28559778 -458.02122197 225.28611649 -460.20707703 225.28671265 C-461.77933878 225.29072452 -463.35159949 225.29516227 -464.92385894 225.2999922 C-469.26541636 225.3119945 -473.60696264 225.3176146 -477.94853342 225.32217336 C-482.62284669 225.32811572 -487.29714655 225.33972901 -491.97145081 225.35046387 C-503.27111925 225.37502032 -514.57079214 225.3896203 -525.87047908 225.40252393 C-529.0601807 225.40623367 -532.24988188 225.41020709 -535.43958306 225.4142766 C-555.23175229 225.43951222 -575.02392217 225.46157332 -594.81610394 225.47400475 C-599.40368846 225.47693463 -603.99127295 225.47989626 -608.57885742 225.48291016 C-610.28927064 225.48402923 -610.28927064 225.48402923 -612.03423766 225.48517092 C-630.51150034 225.49782807 -648.98866687 225.53105387 -667.46588459 225.57271199 C-686.42077389 225.61509791 -705.37561392 225.63869597 -724.33055049 225.64392531 C-734.97921338 225.64734336 -745.62772605 225.65914475 -756.27634239 225.69202805 C-765.34439706 225.71998392 -774.41227075 225.73104759 -783.48036518 225.71983258 C-788.10899412 225.71463434 -792.7372438 225.71760796 -797.36581802 225.74229813 C-801.60192436 225.76470654 -805.83737716 225.76411678 -810.07349429 225.74509425 C-811.6072173 225.74228236 -813.14098383 225.7479586 -814.67463657 225.76290719 C-827.57648526 225.88098818 -827.57648526 225.88098818 -831.5760622 222.59481239 C-832.59028641 221.37612245 -832.59028641 221.37612245 -833.625 220.1328125 C-833.295 219.1428125 -832.965 218.1528125 -832.625 217.1328125 C-833.615 217.1328125 -834.605 217.1328125 -835.625 217.1328125 C-835.74875 216.3284375 -835.8725 215.5240625 -836 214.6953125 C-836.309375 213.426875 -836.309375 213.426875 -836.625 212.1328125 C-837.285 211.8028125 -837.945 211.4728125 -838.625 211.1328125 C-839.25 208.5703125 -839.25 208.5703125 -839.625 206.1328125 C-840.285 206.1328125 -840.945 206.1328125 -841.625 206.1328125 C-841.625 204.8128125 -841.625 203.4928125 -841.625 202.1328125 C-842.615 202.1328125 -843.605 202.1328125 -844.625 202.1328125 C-844.625 200.4828125 -844.625 198.8328125 -844.625 197.1328125 C-845.615 197.1328125 -846.605 197.1328125 -847.625 197.1328125 C-847.625 196.1428125 -847.625 195.1528125 -847.625 194.1328125 C-848.615 193.8028125 -849.605 193.4728125 -850.625 193.1328125 C-850.625 191.4828125 -850.625 189.8328125 -850.625 188.1328125 C-851.285 188.1328125 -851.945 188.1328125 -852.625 188.1328125 C-852.955 186.1528125 -853.285 184.1728125 -853.625 182.1328125 C-854.615 182.4628125 -855.605 182.7928125 -856.625 183.1328125 C-856.625 181.1528125 -856.625 179.1728125 -856.625 177.1328125 C-857.285 177.1328125 -857.945 177.1328125 -858.625 177.1328125 C-858.955 179.7728125 -859.285 182.4128125 -859.625 185.1328125 C-860.285 185.1328125 -860.945 185.1328125 -861.625 185.1328125 C-861.625 187.4428125 -861.625 189.7528125 -861.625 192.1328125 C-862.615 191.8028125 -863.605 191.4728125 -864.625 191.1328125 C-864.625 193.7728125 -864.625 196.4128125 -864.625 199.1328125 C-865.285 199.4628125 -865.945 199.7928125 -866.625 200.1328125 C-867.28055119 202.66014485 -867.28055119 202.66014485 -867.625 205.1328125 C-868.615 205.1328125 -869.605 205.1328125 -870.625 205.1328125 C-870.625 207.1128125 -870.625 209.0928125 -870.625 211.1328125 C-871.615 211.1328125 -872.605 211.1328125 -873.625 211.1328125 C-873.58375 212.2465625 -873.5425 213.3603125 -873.5 214.5078125 C-873.625 218.1328125 -873.625 218.1328125 -875.625 220.1328125 C-875.955 221.1228125 -876.285 222.1128125 -876.625 223.1328125 C-877.945 223.1328125 -879.265 223.1328125 -880.625 223.1328125 C-880.625 223.7928125 -880.625 224.4528125 -880.625 225.1328125 C-908.675 225.1328125 -936.725 225.1328125 -965.625 225.1328125 C-965.625 222.4928125 -965.625 219.8528125 -965.625 217.1328125 C-964.635 217.1328125 -963.645 217.1328125 -962.625 217.1328125 C-962.625 215.1528125 -962.625 213.1728125 -962.625 211.1328125 C-961.635 211.1328125 -960.645 211.1328125 -959.625 211.1328125 C-959.625 209.4828125 -959.625 207.8328125 -959.625 206.1328125 C-958.635 205.8028125 -957.645 205.4728125 -956.625 205.1328125 C-956.439375 203.988125 -956.439375 203.988125 -956.25 202.8203125 C-955.625 200.1328125 -955.625 200.1328125 -953.625 197.1328125 C-954.94111677 198.08617271 -956.25278961 199.04567024 -957.5625 200.0078125 C-958.29339844 200.54148438 -959.02429688 201.07515625 -959.77734375 201.625 C-961.73598235 203.01293354 -961.73598235 203.01293354 -962.625 205.1328125 C-963.615 205.4628125 -964.605 205.7928125 -965.625 206.1328125 C-966.24375 206.9578125 -966.8625 207.7828125 -967.5 208.6328125 C-969.94062604 211.50413725 -971.01788413 211.64536441 -974.625 212.1328125 C-974.955 212.7928125 -975.285 213.4528125 -975.625 214.1328125 C-978.1875 214.7578125 -978.1875 214.7578125 -980.625 215.1328125 C-980.625 215.7928125 -980.625 216.4528125 -980.625 217.1328125 C-982.935 217.1328125 -985.245 217.1328125 -987.625 217.1328125 C-987.295 218.1228125 -986.965 219.1128125 -986.625 220.1328125 C-989.595 220.1328125 -992.565 220.1328125 -995.625 220.1328125 C-995.625 221.1228125 -995.625 222.1128125 -995.625 223.1328125 C-998.265 223.1328125 -1000.905 223.1328125 -1003.625 223.1328125 C-1003.625 223.7928125 -1003.625 224.4528125 -1003.625 225.1328125 C-1007.585 225.4628125 -1011.545 225.7928125 -1015.625 226.1328125 C-1015.625 226.7928125 -1015.625 227.4528125 -1015.625 228.1328125 C-1021.895 228.4628125 -1028.165 228.7928125 -1034.625 229.1328125 C-1034.625 229.7928125 -1034.625 230.4528125 -1034.625 231.1328125 C-1085.445 231.1328125 -1136.265 231.1328125 -1188.625 231.1328125 C-1188.625 157.2128125 -1188.625 83.2928125 -1188.625 7.1328125 C-1137.145 7.1328125 -1085.665 7.1328125 -1032.625 7.1328125 C-1032.625 7.7928125 -1032.625 8.4528125 -1032.625 9.1328125 C-1025.695 9.4628125 -1018.765 9.7928125 -1011.625 10.1328125 C-1011.625 10.7928125 -1011.625 11.4528125 -1011.625 12.1328125 C-1008.325 12.4628125 -1005.025 12.7928125 -1001.625 13.1328125 C-1001.625 13.7928125 -1001.625 14.4528125 -1001.625 15.1328125 C-998.655 15.1328125 -995.685 15.1328125 -992.625 15.1328125 C-992.625 16.1228125 -992.625 17.1128125 -992.625 18.1328125 C-990.315 18.1328125 -988.005 18.1328125 -985.625 18.1328125 C-985.625 18.7928125 -985.625 19.4528125 -985.625 20.1328125 C-983.645 20.4628125 -981.665 20.7928125 -979.625 21.1328125 C-979.625 21.7928125 -979.625 22.4528125 -979.625 23.1328125 C-978.985625 23.2565625 -978.34625 23.3803125 -977.6875 23.5078125 C-977.006875 23.7140625 -976.32625 23.9203125 -975.625 24.1328125 C-975.295 24.7928125 -974.965 25.4528125 -974.625 26.1328125 C-972.60036745 26.78494542 -972.60036745 26.78494542 -970.625 27.1328125 C-970.625 28.1228125 -970.625 29.1128125 -970.625 30.1328125 C-969.305 30.1328125 -967.985 30.1328125 -966.625 30.1328125 C-966.295 30.7928125 -965.965 31.4528125 -965.625 32.1328125 C-964.635 32.4628125 -963.645 32.7928125 -962.625 33.1328125 C-962.625 34.1228125 -962.625 35.1128125 -962.625 36.1328125 C-961.635 36.1328125 -960.645 36.1328125 -959.625 36.1328125 C-959.625 36.7928125 -959.625 37.4528125 -959.625 38.1328125 C-958.635 38.1328125 -957.645 38.1328125 -956.625 38.1328125 C-954.9375 39.4453125 -954.9375 39.4453125 -953.625 41.1328125 C-953.625 42.1228125 -953.625 43.1128125 -953.625 44.1328125 C-952.635 44.1328125 -951.645 44.1328125 -950.625 44.1328125 C-950.625 45.1228125 -950.625 46.1128125 -950.625 47.1328125 C-949.965 47.1328125 -949.305 47.1328125 -948.625 47.1328125 C-948.625 48.1228125 -948.625 49.1128125 -948.625 50.1328125 C-947.635 50.1328125 -946.645 50.1328125 -945.625 50.1328125 C-945.625 51.1228125 -945.625 52.1128125 -945.625 53.1328125 C-944.635 53.1328125 -943.645 53.1328125 -942.625 53.1328125 C-941.965 54.1228125 -941.305 55.1128125 -940.625 56.1328125 C-940.295 56.1328125 -939.965 56.1328125 -939.625 56.1328125 C-938.35246564 59.78074434 -937.29670806 63.3264668 -936.625 67.1328125 C-935.635 67.1328125 -934.645 67.1328125 -933.625 67.1328125 C-933.625 69.1128125 -933.625 71.0928125 -933.625 73.1328125 C-932.965 73.1328125 -932.305 73.1328125 -931.625 73.1328125 C-929.63802694 79.81853945 -928.19521375 86.17620479 -927.625 93.1328125 C-926.965 93.1328125 -926.305 93.1328125 -925.625 93.1328125 C-925.48098978 97.6859866 -925.33863603 102.23920851 -925.19775391 106.79248047 C-925.14969613 108.3383928 -925.10120183 109.88429163 -925.05224609 111.43017578 C-924.98157167 113.66435308 -924.91251687 115.89857576 -924.84375 118.1328125 C-924.81093933 119.15362915 -924.81093933 119.15362915 -924.77746582 120.19506836 C-924.63646517 124.84383411 -924.60683516 129.48261376 -924.625 134.1328125 C-923.965 132.1528125 -923.305 130.1728125 -922.625 128.1328125 C-921.635 128.1328125 -920.645 128.1328125 -919.625 128.1328125 C-919.625 126.1528125 -919.625 124.1728125 -919.625 122.1328125 C-918.635 122.1328125 -917.645 122.1328125 -916.625 122.1328125 C-916.625 120.1528125 -916.625 118.1728125 -916.625 116.1328125 C-915.965 116.1328125 -915.305 116.1328125 -914.625 116.1328125 C-914.50125 115.1634375 -914.3775 114.1940625 -914.25 113.1953125 C-913.940625 111.679375 -913.940625 111.679375 -913.625 110.1328125 C-912.965 109.8028125 -912.305 109.4728125 -911.625 109.1328125 C-910.96944881 106.60548015 -910.96944881 106.60548015 -910.625 104.1328125 C-909.965 104.1328125 -909.305 104.1328125 -908.625 104.1328125 C-908.295 101.4928125 -907.965 98.8528125 -907.625 96.1328125 C-906.635 96.1328125 -905.645 96.1328125 -904.625 96.1328125 C-904.955 95.1428125 -905.285 94.1528125 -905.625 93.1328125 C-904.965 92.1428125 -904.305 91.1528125 -903.625 90.1328125 C-902.965 90.1328125 -902.305 90.1328125 -901.625 90.1328125 C-901.955 88.4828125 -902.285 86.8328125 -902.625 85.1328125 C-901.635 85.1328125 -900.645 85.1328125 -899.625 85.1328125 C-899.625 83.4828125 -899.625 81.8328125 -899.625 80.1328125 C-898.14 79.6378125 -898.14 79.6378125 -896.625 79.1328125 C-896.625 77.1528125 -896.625 75.1728125 -896.625 73.1328125 C-895.635 73.1328125 -894.645 73.1328125 -893.625 73.1328125 C-893.625 71.1528125 -893.625 69.1728125 -893.625 67.1328125 C-892.635 67.1328125 -891.645 67.1328125 -890.625 67.1328125 C-890.625 65.4828125 -890.625 63.8328125 -890.625 62.1328125 C-889.14 61.6378125 -889.14 61.6378125 -887.625 61.1328125 C-887.625 59.4828125 -887.625 57.8328125 -887.625 56.1328125 C-886.965 56.1328125 -886.305 56.1328125 -885.625 56.1328125 C-885.295 54.1528125 -884.965 52.1728125 -884.625 50.1328125 C-883.965 50.1328125 -883.305 50.1328125 -882.625 50.1328125 C-882.295 48.1528125 -881.965 46.1728125 -881.625 44.1328125 C-880.965 44.1328125 -880.305 44.1328125 -879.625 44.1328125 C-879.625 41.8228125 -879.625 39.5128125 -879.625 37.1328125 C-878.965 37.1328125 -878.305 37.1328125 -877.625 37.1328125 C-877.295 35.4828125 -876.965 33.8328125 -876.625 32.1328125 C-875.635 32.1328125 -874.645 32.1328125 -873.625 32.1328125 C-873.625 29.4928125 -873.625 26.8528125 -873.625 24.1328125 C-872.635 24.1328125 -871.645 24.1328125 -870.625 24.1328125 C-870.625 22.4828125 -870.625 20.8328125 -870.625 19.1328125 C-869.635 18.8028125 -868.645 18.4728125 -867.625 18.1328125 C-867.625 17.1428125 -867.625 16.1528125 -867.625 15.1328125 C-866.305 15.1328125 -864.985 15.1328125 -863.625 15.1328125 C-863.625 14.4728125 -863.625 13.8128125 -863.625 13.1328125 C-826.665 13.1328125 -789.705 13.1328125 -751.625 13.1328125 C-751.625 13.7928125 -751.625 14.4528125 -751.625 15.1328125 C-750.305 15.1328125 -748.985 15.1328125 -747.625 15.1328125 C-747.295 17.1128125 -746.965 19.0928125 -746.625 21.1328125 C-745.635 21.1328125 -744.645 21.1328125 -743.625 21.1328125 C-743.625 23.1128125 -743.625 25.0928125 -743.625 27.1328125 C-742.965 27.1328125 -742.305 27.1328125 -741.625 27.1328125 C-741.295 29.1128125 -740.965 31.0928125 -740.625 33.1328125 C-739.965 33.1328125 -739.305 33.1328125 -738.625 33.1328125 C-738.50125 33.9371875 -738.3775 34.7415625 -738.25 35.5703125 C-738.04375 36.4159375 -737.8375 37.2615625 -737.625 38.1328125 C-736.965 38.4628125 -736.305 38.7928125 -735.625 39.1328125 C-735.03144386 41.78141677 -734.88290731 44.42478572 -734.625 47.1328125 C-733.965 47.1328125 -733.305 47.1328125 -732.625 47.1328125 C-731.965 48.4528125 -731.305 49.7728125 -730.625 51.1328125 C-730.295 51.1328125 -729.965 51.1328125 -729.625 51.1328125 C-729.625 53.7728125 -729.625 56.4128125 -729.625 59.1328125 C-728.635 59.1328125 -727.645 59.1328125 -726.625 59.1328125 C-726.625 60.7828125 -726.625 62.4328125 -726.625 64.1328125 C-725.635 64.4628125 -724.645 64.7928125 -723.625 65.1328125 C-723.625 66.7828125 -723.625 68.4328125 -723.625 70.1328125 C-722.635 70.4628125 -721.645 70.7928125 -720.625 71.1328125 C-719.87258891 74.78738065 -719.22450296 78.45015147 -718.625 82.1328125 C-717.635 82.4628125 -716.645 82.7928125 -715.625 83.1328125 C-715.50125 84.1021875 -715.3775 85.0715625 -715.25 86.0703125 C-714.940625 87.58625 -714.940625 87.58625 -714.625 89.1328125 C-713.965 89.4628125 -713.305 89.7928125 -712.625 90.1328125 C-712.29166667 91.79947917 -711.95833333 93.46614583 -711.625 95.1328125 C-710.965 95.4628125 -710.305 95.7928125 -709.625 96.1328125 C-709.625 98.1128125 -709.625 100.0928125 -709.625 102.1328125 C-708.635 102.1328125 -707.645 102.1328125 -706.625 102.1328125 C-706.625 104.1128125 -706.625 106.0928125 -706.625 108.1328125 C-705.635 108.1328125 -704.645 108.1328125 -703.625 108.1328125 C-703.625 109.7828125 -703.625 111.4328125 -703.625 113.1328125 C-702.635 113.4628125 -701.645 113.7928125 -700.625 114.1328125 C-700.295 116.4428125 -699.965 118.7528125 -699.625 121.1328125 C-698.965 120.8028125 -698.305 120.4728125 -697.625 120.1328125 C-697.625 122.7728125 -697.625 125.4128125 -697.625 128.1328125 C-696.965 128.1328125 -696.305 128.1328125 -695.625 128.1328125 C-695.295 129.7828125 -694.965 131.4328125 -694.625 133.1328125 C-693.965 133.1328125 -693.305 133.1328125 -692.625 133.1328125 C-692.625 135.1128125 -692.625 137.0928125 -692.625 139.1328125 C-691.635 139.1328125 -690.645 139.1328125 -689.625 139.1328125 C-689.625 141.1128125 -689.625 143.0928125 -689.625 145.1328125 C-688.635 145.1328125 -687.645 145.1328125 -686.625 145.1328125 C-686.625 147.1128125 -686.625 149.0928125 -686.625 151.1328125 C-685.635 151.1328125 -684.645 151.1328125 -683.625 151.1328125 C-683.625 153.7728125 -683.625 156.4128125 -683.625 159.1328125 C-682.635 159.1328125 -681.645 159.1328125 -680.625 159.1328125 C-680.625 161.1128125 -680.625 163.0928125 -680.625 165.1328125 C-679.635 165.1328125 -678.645 165.1328125 -677.625 165.1328125 C-677.625 167.1128125 -677.625 169.0928125 -677.625 171.1328125 C-676.635 171.1328125 -675.645 171.1328125 -674.625 171.1328125 C-674.625 173.1128125 -674.625 175.0928125 -674.625 177.1328125 C-673.965 177.1328125 -673.305 177.1328125 -672.625 177.1328125 C-672.295 178.1228125 -671.965 179.1128125 -671.625 180.1328125 C-671.955 180.7928125 -672.285 181.4528125 -672.625 182.1328125 C-671.635 182.1328125 -670.645 182.1328125 -669.625 182.1328125 C-669.295 185.1028125 -668.965 188.0728125 -668.625 191.1328125 C-667.965 191.1328125 -667.305 191.1328125 -666.625 191.1328125 C-666.295 193.1128125 -665.965 195.0928125 -665.625 197.1328125 C-664.965 197.1328125 -664.305 197.1328125 -663.625 197.1328125 C-663.625 198.7828125 -663.625 200.4328125 -663.625 202.1328125 C-662.635 202.4628125 -661.645 202.7928125 -660.625 203.1328125 C-660.295 205.7728125 -659.965 208.4128125 -659.625 211.1328125 C-658.965 211.1328125 -658.305 211.1328125 -657.625 211.1328125 C-657.78724217 210.30526553 -657.94948435 209.47771856 -658.11664295 208.62509441 C-658.67160553 204.81264454 -658.76702321 201.09793393 -658.75871277 197.25630188 C-658.7621111 196.09410001 -658.7621111 196.09410001 -658.76557809 194.90841931 C-658.77188898 192.32215029 -658.77109062 189.73593406 -658.77026367 187.1496582 C-658.77325684 185.29159477 -658.77665973 183.43353196 -658.78044128 181.57546997 C-658.78926594 176.53652501 -658.79161865 171.49759704 -658.79225707 166.45864511 C-658.79320713 162.25344958 -658.79688626 158.04825801 -658.80042917 153.84306401 C-658.80856664 143.92719363 -658.81101391 134.01133232 -658.81030273 124.09545898 C-658.80970099 113.85706847 -658.82027371 103.61873048 -658.8360464 93.38035327 C-658.84910267 84.59299448 -658.85448749 75.80565292 -658.85384732 67.0182845 C-658.85359193 61.76838437 -658.85646664 56.518531 -658.86702538 51.26864052 C-658.87667507 46.33648015 -658.87680717 41.40441159 -658.86950874 36.47224808 C-658.86845924 34.65937479 -658.87084733 32.84649587 -658.8768692 31.03363228 C-658.88454012 28.5651028 -658.87997725 26.09689433 -658.87223816 23.62837219 C-658.87738172 22.90581421 -658.88252529 22.18325622 -658.88782471 21.43880254 C-658.8623073 17.77312796 -658.71797793 16.27227939 -656.625 13.1328125 C-654.71588743 12.76021701 -654.71588743 12.76021701 -652.33400536 12.76366901 C-651.4278238 12.75769587 -650.52164225 12.75172272 -649.58800066 12.74556857 C-648.58607073 12.7543071 -647.5841408 12.76304562 -646.55184937 12.77204895 C-645.49250045 12.76948568 -644.43315154 12.7669224 -643.34170115 12.76428145 C-639.768502 12.75931403 -636.19571924 12.7758854 -632.62255859 12.79223633 C-630.070572 12.79308196 -627.51858468 12.79260871 -624.96659851 12.79090881 C-619.46027644 12.7902242 -613.95409005 12.79876954 -608.44779587 12.81562233 C-600.48658746 12.83997291 -592.52543065 12.84781355 -584.56418903 12.8515863 C-571.64855777 12.858157 -558.73298325 12.87813487 -545.81738281 12.90649414 C-533.2688831 12.93401875 -520.72039879 12.95526014 -508.171875 12.96801758 C-507.39876859 12.96880575 -506.62566218 12.96959392 -505.82912831 12.97040597 C-501.95079522 12.974321 -498.07246202 12.97811215 -494.19412875 12.98184168 C-462.00437792 13.01295682 -429.81469683 13.06580938 -397.625 13.1328125 C-397.625 13.7928125 -397.625 14.4528125 -397.625 15.1328125 C-395.15 15.6278125 -395.15 15.6278125 -392.625 16.1328125 C-392.625 17.7828125 -392.625 19.4328125 -392.625 21.1328125 C-391.635 21.4628125 -390.645 21.7928125 -389.625 22.1328125 C-389.955 23.7828125 -390.285 25.4328125 -390.625 27.1328125 C-389.965 27.1328125 -389.305 27.1328125 -388.625 27.1328125 C-387.965 30.1028125 -387.305 33.0728125 -386.625 36.1328125 C-385.965 36.1328125 -385.305 36.1328125 -384.625 36.1328125 C-384.625 37.7828125 -384.625 39.4328125 -384.625 41.1328125 C-383.635 41.1328125 -382.645 41.1328125 -381.625 41.1328125 C-381.4296875 43.18359375 -381.234375 45.234375 -381.0390625 47.28515625 C-380.90242187 47.89488281 -380.76578125 48.50460938 -380.625 49.1328125 C-379.965 49.4628125 -379.305 49.7928125 -378.625 50.1328125 C-378.625 52.1128125 -378.625 54.0928125 -378.625 56.1328125 C-377.635 56.1328125 -376.645 56.1328125 -375.625 56.1328125 C-375.439375 57.834375 -375.439375 57.834375 -375.25 59.5703125 C-375.04375 60.7459375 -374.8375 61.9215625 -374.625 63.1328125 C-373.965 63.4628125 -373.305 63.7928125 -372.625 64.1328125 C-372.625 66.1128125 -372.625 68.0928125 -372.625 70.1328125 C-371.635 70.1328125 -370.645 70.1328125 -369.625 70.1328125 C-369.625 72.1128125 -369.625 74.0928125 -369.625 76.1328125 C-368.965 76.1328125 -368.305 76.1328125 -367.625 76.1328125 C-366.1466774 79.08945769 -366.56467217 81.87510987 -366.625 85.1328125 C-365.965 85.1328125 -365.305 85.1328125 -364.625 85.1328125 C-364.625 86.7828125 -364.625 88.4328125 -364.625 90.1328125 C-363.635 90.4628125 -362.645 90.7928125 -361.625 91.1328125 C-361.295 93.7728125 -360.965 96.4128125 -360.625 99.1328125 C-359.965 99.1328125 -359.305 99.1328125 -358.625 99.1328125 C-358.625 101.1128125 -358.625 103.0928125 -358.625 105.1328125 C-357.635 105.1328125 -356.645 105.1328125 -355.625 105.1328125 C-355.295 107.7728125 -354.965 110.4128125 -354.625 113.1328125 C-353.965 113.1328125 -353.305 113.1328125 -352.625 113.1328125 C-352.625 115.1128125 -352.625 117.0928125 -352.625 119.1328125 C-351.635 119.1328125 -350.645 119.1328125 -349.625 119.1328125 C-349.625 122.1028125 -349.625 125.0728125 -349.625 128.1328125 C-348.14 127.6378125 -348.14 127.6378125 -346.625 127.1328125 C-345.965 129.4428125 -345.305 131.7528125 -344.625 134.1328125 C-343.635 133.8028125 -342.645 133.4728125 -341.625 133.1328125 C-341.295 131.4828125 -340.965 129.8328125 -340.625 128.1328125 C-339.965 128.1328125 -339.305 128.1328125 -338.625 128.1328125 C-338.625 125.8228125 -338.625 123.5128125 -338.625 121.1328125 C-337.635 121.4628125 -336.645 121.7928125 -335.625 122.1328125 C-335.625 119.8228125 -335.625 117.5128125 -335.625 115.1328125 C-334.965 115.1328125 -334.305 115.1328125 -333.625 115.1328125 C-332.965 113.4828125 -332.305 111.8328125 -331.625 110.1328125 C-330.965 110.1328125 -330.305 110.1328125 -329.625 110.1328125 C-329.625 108.4828125 -329.625 106.8328125 -329.625 105.1328125 C-328.965 104.8028125 -328.305 104.4728125 -327.625 104.1328125 C-326.96944881 101.60548015 -326.96944881 101.60548015 -326.625 99.1328125 C-325.965 99.1328125 -325.305 99.1328125 -324.625 99.1328125 C-324.50125 98.1840625 -324.3775 97.2353125 -324.25 96.2578125 C-323.625 93.1328125 -323.625 93.1328125 -321.625 91.1328125 C-320.9824765 89.06407216 -320.9824765 89.06407216 -320.625 87.1328125 C-319.965 87.1328125 -319.305 87.1328125 -318.625 87.1328125 C-318.295 85.4828125 -317.965 83.8328125 -317.625 82.1328125 C-316.965 82.1328125 -316.305 82.1328125 -315.625 82.1328125 C-315.625 79.8228125 -315.625 77.5128125 -315.625 75.1328125 C-314.635 75.4628125 -313.645 75.7928125 -312.625 76.1328125 C-312.625 73.1628125 -312.625 70.1928125 -312.625 67.1328125 C-313.285 67.1328125 -313.945 67.1328125 -314.625 67.1328125 C-314.955 65.1528125 -315.285 63.1728125 -315.625 61.1328125 C-316.285 61.1328125 -316.945 61.1328125 -317.625 61.1328125 C-317.625 59.4828125 -317.625 57.8328125 -317.625 56.1328125 C-318.615 56.1328125 -319.605 56.1328125 -320.625 56.1328125 C-320.625 54.1528125 -320.625 52.1728125 -320.625 50.1328125 C-321.615 50.1328125 -322.605 50.1328125 -323.625 50.1328125 C-324.285 47.8228125 -324.945 45.5128125 -325.625 43.1328125 C-325.955 43.1328125 -326.285 43.1328125 -326.625 43.1328125 C-326.955 40.8228125 -327.285 38.5128125 -327.625 36.1328125 C-328.285 36.1328125 -328.945 36.1328125 -329.625 36.1328125 C-329.625 34.1528125 -329.625 32.1728125 -329.625 30.1328125 C-330.615 30.1328125 -331.605 30.1328125 -332.625 30.1328125 C-332.625 28.1528125 -332.625 26.1728125 -332.625 24.1328125 C-333.615 24.1328125 -334.605 24.1328125 -335.625 24.1328125 C-335.98609542 22.48848544 -336.33870076 20.8422917 -336.6875 19.1953125 C-336.88472656 18.27878906 -337.08195313 17.36226562 -337.28515625 16.41796875 C-337.39730469 15.66386719 -337.50945313 14.90976563 -337.625 14.1328125 C-336.625 13.1328125 -336.625 13.1328125 -334.69033718 13.00976467 C-333.83583508 13.01068646 -332.98133299 13.01160826 -332.10093689 13.01255798 C-330.63481209 13.01049599 -330.63481209 13.01049599 -329.1390686 13.00839233 C-328.05797821 13.01198761 -326.97688782 13.01558289 -325.86303711 13.01928711 C-324.16569679 13.01906807 -324.16569679 13.01906807 -322.43406677 13.0188446 C-318.67347329 13.01954431 -314.91292863 13.02733939 -311.15234375 13.03515625 C-308.55302457 13.03702023 -305.95370503 13.03844422 -303.35438538 13.03944397 C-297.19911423 13.04287909 -291.0438634 13.05076994 -284.88859993 13.06079346 C-277.88266654 13.07195556 -270.87673233 13.07746529 -263.87079227 13.08248889 C-249.45551867 13.09295258 -235.04025996 13.11055142 -220.625 13.1328125 C-220.625 15.7728125 -220.625 18.4128125 -220.625 21.1328125 C-221.615 21.1328125 -222.605 21.1328125 -223.625 21.1328125 C-223.625 22.1228125 -223.625 23.1128125 -223.625 24.1328125 C-224.285 24.1328125 -224.945 24.1328125 -225.625 24.1328125 C-225.955 26.1128125 -226.285 28.0928125 -226.625 30.1328125 C-227.285 30.1328125 -227.945 30.1328125 -228.625 30.1328125 C-228.625 32.1128125 -228.625 34.0928125 -228.625 36.1328125 C-229.615 36.1328125 -230.605 36.1328125 -231.625 36.1328125 C-231.625 38.4428125 -231.625 40.7528125 -231.625 43.1328125 C-232.285 43.4628125 -232.945 43.7928125 -233.625 44.1328125 C-233.955 45.1228125 -234.285 46.1128125 -234.625 47.1328125 C-235.285 47.4628125 -235.945 47.7928125 -236.625 48.1328125 C-236.96522786 50.13165119 -237.29829097 52.13171972 -237.625 54.1328125 C-238.285 54.7928125 -238.945 55.4528125 -239.625 56.1328125 C-239.955 57.1228125 -240.285 58.1128125 -240.625 59.1328125 C-241.285 59.1328125 -241.945 59.1328125 -242.625 59.1328125 C-242.955 61.1128125 -243.285 63.0928125 -243.625 65.1328125 C-244.285 65.1328125 -244.945 65.1328125 -245.625 65.1328125 C-245.955 66.7828125 -246.285 68.4328125 -246.625 70.1328125 C-247.285 70.1328125 -247.945 70.1328125 -248.625 70.1328125 C-248.625 71.1228125 -248.625 72.1128125 -248.625 73.1328125 C-247.965 73.1328125 -247.305 73.1328125 -246.625 73.1328125 C-246.295 74.7828125 -245.965 76.4328125 -245.625 78.1328125 C-244.965 78.1328125 -244.305 78.1328125 -243.625 78.1328125 C-243.295 80.1128125 -242.965 82.0928125 -242.625 84.1328125 C-241.965 84.1328125 -241.305 84.1328125 -240.625 84.1328125 C-240.33625 84.8753125 -240.0475 85.6178125 -239.75 86.3828125 C-238.80104174 88.70248825 -237.7752482 90.90899932 -236.625 93.1328125 C-235.95405022 94.47471207 -235.30832414 95.82949939 -234.6875 97.1953125 C-233.77520819 99.29487923 -233.77520819 99.29487923 -231.625 100.1328125 C-231 102.6953125 -231 102.6953125 -230.625 105.1328125 C-229.965 105.1328125 -229.305 105.1328125 -228.625 105.1328125 C-228.625 107.7728125 -228.625 110.4128125 -228.625 113.1328125 C-227.635 113.4628125 -226.645 113.7928125 -225.625 114.1328125 C-225.955 114.7928125 -226.285 115.4528125 -226.625 116.1328125 C-225.965 116.4628125 -225.305 116.7928125 -224.625 117.1328125 C-223.2500851 120.03541061 -222.625 121.89419955 -222.625 125.1328125 C-221.965 125.1328125 -221.305 125.1328125 -220.625 125.1328125 C-220.295 126.7828125 -219.965 128.4328125 -219.625 130.1328125 C-218.965 130.1328125 -218.305 130.1328125 -217.625 130.1328125 C-216.965 133.1028125 -216.305 136.0728125 -215.625 139.1328125 C-214.20922523 137.94856924 -214.20922523 137.94856924 -214.5625 134.5703125 C-214.5934375 132.86875 -214.5934375 132.86875 -214.625 131.1328125 C-213.635 131.1328125 -212.645 131.1328125 -211.625 131.1328125 C-211.625 129.1528125 -211.625 127.1728125 -211.625 125.1328125 C-210.635 125.1328125 -209.645 125.1328125 -208.625 125.1328125 C-208.625 122.1628125 -208.625 119.1928125 -208.625 116.1328125 C-207.635 116.1328125 -206.645 116.1328125 -205.625 116.1328125 C-205.625 114.1528125 -205.625 112.1728125 -205.625 110.1328125 C-204.965 110.1328125 -204.305 110.1328125 -203.625 110.1328125 C-203.295 108.4828125 -202.965 106.8328125 -202.625 105.1328125 C-201.965 105.1328125 -201.305 105.1328125 -200.625 105.1328125 C-200.295 102.1628125 -199.965 99.1928125 -199.625 96.1328125 C-198.965 96.1328125 -198.305 96.1328125 -197.625 96.1328125 C-197.295 94.1528125 -196.965 92.1728125 -196.625 90.1328125 C-195.965 90.1328125 -195.305 90.1328125 -194.625 90.1328125 C-194.625 87.8228125 -194.625 85.5128125 -194.625 83.1328125 C-193.965 82.8028125 -193.305 82.4728125 -192.625 82.1328125 C-191.96727572 79.10346759 -191.96727572 79.10346759 -191.625 76.1328125 C-190.635 76.1328125 -189.645 76.1328125 -188.625 76.1328125 C-188.66625 75.1840625 -188.7075 74.2353125 -188.75 73.2578125 C-188.625 70.1328125 -188.625 70.1328125 -186.625 68.1328125 C-186.46 67.1221875 -186.295 66.1115625 -186.125 65.0703125 C-185.96 64.1009375 -185.795 63.1315625 -185.625 62.1328125 C-184.965 61.8028125 -184.305 61.4728125 -183.625 61.1328125 C-182.96727572 58.10346759 -182.96727572 58.10346759 -182.625 55.1328125 C-181.965 55.1328125 -181.305 55.1328125 -180.625 55.1328125 C-180.295 53.1528125 -179.965 51.1728125 -179.625 49.1328125 C-178.965 49.1328125 -178.305 49.1328125 -177.625 49.1328125 C-177.295 46.4928125 -176.965 43.8528125 -176.625 41.1328125 C-175.965 41.1328125 -175.305 41.1328125 -174.625 41.1328125 C-174.295 39.4828125 -173.965 37.8328125 -173.625 36.1328125 C-172.965 36.1328125 -172.305 36.1328125 -171.625 36.1328125 C-171.625 33.1628125 -171.625 30.1928125 -171.625 27.1328125 C-170.635 27.1328125 -169.645 27.1328125 -168.625 27.1328125 C-168.625 24.8228125 -168.625 22.5128125 -168.625 20.1328125 C-167.965 20.1328125 -167.305 20.1328125 -166.625 20.1328125 C-166.3775 19.3490625 -166.13 18.5653125 -165.875 17.7578125 C-164.38684476 14.6326865 -163.8198476 14.27926193 -160.625 13.1328125 C-157.37261963 12.89230347 -157.37261963 12.89230347 -153.46972656 12.90576172 C-152.40083443 12.90532364 -152.40083443 12.90532364 -151.31034851 12.90487671 C-148.96198219 12.90626673 -146.61393569 12.92181228 -144.265625 12.9375 C-142.63466566 12.9412313 -141.00370408 12.94407772 -139.3727417 12.94607544 C-135.08520289 12.9537027 -130.7978001 12.97334338 -126.51031494 12.9954834 C-122.13319743 13.01596138 -117.75605788 13.02508133 -113.37890625 13.03515625 C-104.79420849 13.05659015 -96.20962118 13.09071511 -87.625 13.1328125 C-87.625 16.4328125 -87.625 19.7328125 -87.625 23.1328125 C-88.285 23.4628125 -88.945 23.7928125 -89.625 24.1328125 C-89.955 25.1228125 -90.285 26.1128125 -90.625 27.1328125 C-91.285 27.7928125 -91.945 28.4528125 -92.625 29.1328125 C-92.79 30.1434375 -92.955 31.1540625 -93.125 32.1953125 C-93.29 33.1646875 -93.455 34.1340625 -93.625 35.1328125 C-94.285 35.4628125 -94.945 35.7928125 -95.625 36.1328125 C-95.96522786 38.13165119 -96.29829097 40.13171972 -96.625 42.1328125 C-97.285 42.7928125 -97.945 43.4528125 -98.625 44.1328125 C-97.635 44.1328125 -96.645 44.1328125 -95.625 44.1328125 C-95.625 43.1428125 -95.625 42.1528125 -95.625 41.1328125 C-94.635 41.1328125 -93.645 41.1328125 -92.625 41.1328125 C-92.625 40.1428125 -92.625 39.1528125 -92.625 38.1328125 C-91.635 38.1328125 -90.645 38.1328125 -89.625 38.1328125 C-89.625 37.4728125 -89.625 36.8128125 -89.625 36.1328125 C-87.97497172 34.77894314 -86.3075613 33.44603108 -84.625 32.1328125 C-84.295 31.4728125 -83.965 30.8128125 -83.625 30.1328125 C-81.03725673 28.61585955 -78.55028027 27.75965827 -75.625 27.1328125 C-75.625 26.1428125 -75.625 25.1528125 -75.625 24.1328125 C-74.305 23.4728125 -72.985 22.8128125 -71.625 22.1328125 C-71.625 21.8028125 -71.625 21.4728125 -71.625 21.1328125 C-69.975 20.8028125 -68.325 20.4728125 -66.625 20.1328125 C-66.625 19.4728125 -66.625 18.8128125 -66.625 18.1328125 C-64.975 18.1328125 -63.325 18.1328125 -61.625 18.1328125 C-61.625 17.1428125 -61.625 16.1528125 -61.625 15.1328125 C-59.645 15.1328125 -57.665 15.1328125 -55.625 15.1328125 C-55.625 14.4728125 -55.625 13.8128125 -55.625 13.1328125 C-52.655 12.6378125 -52.655 12.6378125 -49.625 12.1328125 C-49.625 11.4728125 -49.625 10.8128125 -49.625 10.1328125 C-47.315 9.8028125 -45.005 9.4728125 -42.625 9.1328125 C-42.625 8.4728125 -42.625 7.8128125 -42.625 7.1328125 C-41.490625 7.0090625 -40.35625 6.8853125 -39.1875 6.7578125 C-38.011875 6.5515625 -36.83625 6.3453125 -35.625 6.1328125 C-35.295 5.4728125 -34.965 4.8128125 -34.625 4.1328125 C-32.56234178 3.7416187 -30.53056733 3.62606731 -28.4375 3.4765625 C-27.839375 3.363125 -27.24125 3.2496875 -26.625 3.1328125 C-26.295 2.4728125 -25.965 1.8128125 -25.625 1.1328125 C-17.2302385 -0.24323498 -8.48794131 -0.01600807 0 0 Z M-99.625 44.1328125 C-99.955 45.1228125 -100.285 46.1128125 -100.625 47.1328125 C-99.965 47.1328125 -99.305 47.1328125 -98.625 47.1328125 C-98.955 46.1428125 -99.285 45.1528125 -99.625 44.1328125 Z M-101.625 47.1328125 C-101.955 48.4528125 -102.285 49.7728125 -102.625 51.1328125 C-101.965 50.8028125 -101.305 50.4728125 -100.625 50.1328125 C-100.955 49.1428125 -101.285 48.1528125 -101.625 47.1328125 Z M289.375 52.1328125 C286.98822924 52.42733834 284.58873906 52.6256342 282.1875 52.7578125 C280.91519531 52.83257812 279.64289063 52.90734375 278.33203125 52.984375 C277.35621094 53.03335938 276.38039063 53.08234375 275.375 53.1328125 C275.375 53.7928125 275.375 54.4528125 275.375 55.1328125 C273.395 55.4628125 271.415 55.7928125 269.375 56.1328125 C269.375 57.1228125 269.375 58.1128125 269.375 59.1328125 C268.59125 59.0915625 267.8075 59.0503125 267 59.0078125 C264.21383881 58.84552516 264.21383881 58.84552516 262.375 61.1328125 C261.385 61.6278125 261.385 61.6278125 260.375 62.1328125 C260.375 62.7928125 260.375 63.4528125 260.375 64.1328125 C259.385 64.1328125 258.395 64.1328125 257.375 64.1328125 C257.375 65.1228125 257.375 66.1128125 257.375 67.1328125 C256.385 67.1328125 255.395 67.1328125 254.375 67.1328125 C254.375 68.1228125 254.375 69.1128125 254.375 70.1328125 C253.385 70.1328125 252.395 70.1328125 251.375 70.1328125 C251.375 71.1228125 251.375 72.1128125 251.375 73.1328125 C250.385 73.4628125 249.395 73.7928125 248.375 74.1328125 C248.375 75.7828125 248.375 77.4328125 248.375 79.1328125 C247.385 79.1328125 246.395 79.1328125 245.375 79.1328125 C245.375 80.1228125 245.375 81.1128125 245.375 82.1328125 C244.715 82.1328125 244.055 82.1328125 243.375 82.1328125 C243.25125 82.9371875 243.1275 83.7415625 243 84.5703125 C242.79375 85.4159375 242.5875 86.2615625 242.375 87.1328125 C241.385 87.6278125 241.385 87.6278125 240.375 88.1328125 C240.375 90.7728125 240.375 93.4128125 240.375 96.1328125 C239.385 96.1328125 238.395 96.1328125 237.375 96.1328125 C237.32601563 97.10863281 237.27703125 98.08445313 237.2265625 99.08984375 C237.15179687 100.36214844 237.07703125 101.63445312 237 102.9453125 C236.93039062 104.20988281 236.86078125 105.47445312 236.7890625 106.77734375 C236.375 110.1328125 236.375 110.1328125 234.375 113.1328125 C234.05711508 116.00338501 234.05711508 116.00338501 234.125 119.1328125 C234.11984375 120.1846875 234.1146875 121.2365625 234.109375 122.3203125 C234.17032983 125.33931629 234.17032983 125.33931629 236.375 128.1328125 C236.75064504 131.52215523 236.88086599 134.89067711 237.03125 138.296875 C237.1446875 139.23273438 237.258125 140.16859375 237.375 141.1328125 C238.035 141.4628125 238.695 141.7928125 239.375 142.1328125 C239.89692054 144.12263456 240.41330786 146.11465757 240.8671875 148.12109375 C241.42121544 150.31589673 242.23502139 152.17856346 243.375 154.1328125 C244.035 154.1328125 244.695 154.1328125 245.375 154.1328125 C245.375 155.7828125 245.375 157.4328125 245.375 159.1328125 C246.365 159.1328125 247.355 159.1328125 248.375 159.1328125 C248.375 160.1228125 248.375 161.1128125 248.375 162.1328125 C249.035 162.1328125 249.695 162.1328125 250.375 162.1328125 C250.7153125 163.1846875 250.7153125 163.1846875 251.0625 164.2578125 C252.6951711 167.83413968 254.62879043 170.32273759 257.375 173.1328125 C260.04608098 174.08828831 260.04608098 174.08828831 262.375 174.1328125 C262.705 175.1228125 263.035 176.1128125 263.375 177.1328125 C266.60291555 179.2847562 267.65900809 179.33367693 271.375 179.1328125 C271.375 180.1228125 271.375 181.1128125 271.375 182.1328125 C274.015 182.4628125 276.655 182.7928125 279.375 183.1328125 C279.375 183.7928125 279.375 184.4528125 279.375 185.1328125 C288.945 185.1328125 298.515 185.1328125 308.375 185.1328125 C308.705 184.4728125 309.035 183.8128125 309.375 183.1328125 C311.70833333 182.79947917 314.04166667 182.46614583 316.375 182.1328125 C316.705 181.4728125 317.035 180.8128125 317.375 180.1328125 C319.04166667 179.79947917 320.70833333 179.46614583 322.375 179.1328125 C322.705 178.4728125 323.035 177.8128125 323.375 177.1328125 C324.365 176.8028125 325.355 176.4728125 326.375 176.1328125 C326.375 175.4728125 326.375 174.8128125 326.375 174.1328125 C327.695 173.8028125 329.015 173.4728125 330.375 173.1328125 C330.375 172.4728125 330.375 171.8128125 330.375 171.1328125 C331.365 170.8028125 332.355 170.4728125 333.375 170.1328125 C333.375 169.4728125 333.375 168.8128125 333.375 168.1328125 C334.035 168.1328125 334.695 168.1328125 335.375 168.1328125 C335.375 167.1428125 335.375 166.1528125 335.375 165.1328125 C336.365 165.1328125 337.355 165.1328125 338.375 165.1328125 C338.375 164.1428125 338.375 163.1528125 338.375 162.1328125 C339.035 162.1328125 339.695 162.1328125 340.375 162.1328125 C340.705 160.1528125 341.035 158.1728125 341.375 156.1328125 C342.365 156.1328125 343.355 156.1328125 344.375 156.1328125 C344.375 154.8128125 344.375 153.4928125 344.375 152.1328125 C345.375 151.1328125 346.375 150.1328125 347.375 149.1328125 C347.375 147.8128125 347.375 146.4928125 347.375 145.1328125 C348.035 145.1328125 348.695 145.1328125 349.375 145.1328125 C349.375 142.1628125 349.375 139.1928125 349.375 136.1328125 C350.365 136.1328125 351.355 136.1328125 352.375 136.1328125 C352.375 124.9128125 352.375 113.6928125 352.375 102.1328125 C351.715 101.8028125 351.055 101.4728125 350.375 101.1328125 C349.9838062 99.07015428 349.86825481 97.03837983 349.71875 94.9453125 C349.54859375 94.048125 349.54859375 94.048125 349.375 93.1328125 C348.715 92.8028125 348.055 92.4728125 347.375 92.1328125 C347.04166667 89.79947917 346.70833333 87.46614583 346.375 85.1328125 C345.715 84.8028125 345.055 84.4728125 344.375 84.1328125 C343.20013503 81.50664374 342.28485138 78.86236665 341.375 76.1328125 C340.385 76.1328125 339.395 76.1328125 338.375 76.1328125 C338.375 75.1428125 338.375 74.1528125 338.375 73.1328125 C337.08421589 71.6740437 337.08421589 71.6740437 335.375 70.1328125 C334.735625 69.2665625 334.09625 68.4003125 333.4375 67.5078125 C331.22913054 64.9648416 330.50161199 64.77969774 327.375 64.1328125 C326.88 62.6478125 326.88 62.6478125 326.375 61.1328125 C325.385 61.1328125 324.395 61.1328125 323.375 61.1328125 C323.375 60.4728125 323.375 59.8128125 323.375 59.1328125 C321.725 59.1328125 320.075 59.1328125 318.375 59.1328125 C318.375 58.1428125 318.375 57.1528125 318.375 56.1328125 C316.395 55.8028125 314.415 55.4728125 312.375 55.1328125 C312.375 54.4728125 312.375 53.8128125 312.375 53.1328125 C311.47136719 53.08382812 310.56773438 53.03484375 309.63671875 52.984375 C307.86748047 52.87222656 307.86748047 52.87222656 306.0625 52.7578125 C304.89074219 52.68820313 303.71898437 52.61859375 302.51171875 52.546875 C299.375 52.1328125 299.375 52.1328125 296.375 50.1328125 C292.32877498 49.76301237 292.32877498 49.76301237 289.375 52.1328125 Z M11.60546875 51.1015625 C7.69519742 52.90946378 3.42632467 52.59993932 -0.82421875 52.7890625 C-1.74847656 52.9025 -2.67273437 53.0159375 -3.625 53.1328125 C-3.955 53.7928125 -4.285 54.4528125 -4.625 55.1328125 C-6.60388961 55.85975154 -8.60454558 56.53097501 -10.625 57.1328125 C-10.625 57.4628125 -10.625 57.7928125 -10.625 58.1328125 C-12.275 58.4628125 -13.925 58.7928125 -15.625 59.1328125 C-15.625 59.7928125 -15.625 60.4528125 -15.625 61.1328125 C-16.945 61.4628125 -18.265 61.7928125 -19.625 62.1328125 C-19.625 62.7928125 -19.625 63.4528125 -19.625 64.1328125 C-20.615 64.4628125 -21.605 64.7928125 -22.625 65.1328125 C-22.625 65.7928125 -22.625 66.4528125 -22.625 67.1328125 C-23.615 67.4628125 -24.605 67.7928125 -25.625 68.1328125 C-25.625 68.7928125 -25.625 69.4528125 -25.625 70.1328125 C-26.285 70.1328125 -26.945 70.1328125 -27.625 70.1328125 C-27.625 71.1228125 -27.625 72.1128125 -27.625 73.1328125 C-28.615 73.1328125 -29.605 73.1328125 -30.625 73.1328125 C-30.625 74.1228125 -30.625 75.1128125 -30.625 76.1328125 C-31.285 76.1328125 -31.945 76.1328125 -32.625 76.1328125 C-32.955 78.1128125 -33.285 80.0928125 -33.625 82.1328125 C-34.615 82.1328125 -35.605 82.1328125 -36.625 82.1328125 C-36.625 83.7828125 -36.625 85.4328125 -36.625 87.1328125 C-37.285 87.1328125 -37.945 87.1328125 -38.625 87.1328125 C-38.74875 88.0815625 -38.8725 89.0303125 -39 90.0078125 C-39.625 93.1328125 -39.625 93.1328125 -41.625 95.1328125 C-42.08896693 98.02504753 -42.08896693 98.02504753 -42.25 101.2578125 C-42.32476563 102.35351562 -42.39953125 103.44921875 -42.4765625 104.578125 C-42.52554687 105.42117187 -42.57453125 106.26421875 -42.625 107.1328125 C-43.285 107.1328125 -43.945 107.1328125 -44.625 107.1328125 C-44.625 114.7228125 -44.625 122.3128125 -44.625 130.1328125 C-43.965 130.4628125 -43.305 130.7928125 -42.625 131.1328125 C-42.22906879 133.97631846 -42.11650146 136.7976842 -41.96875 139.6640625 C-41.8553125 140.47875 -41.741875 141.2934375 -41.625 142.1328125 C-40.965 142.4628125 -40.305 142.7928125 -39.625 143.1328125 C-39.03144386 145.78141677 -38.88290731 148.42478572 -38.625 151.1328125 C-37.965 151.1328125 -37.305 151.1328125 -36.625 151.1328125 C-36.295 152.7828125 -35.965 154.4328125 -35.625 156.1328125 C-34.965 156.1328125 -34.305 156.1328125 -33.625 156.1328125 C-33.625 157.1228125 -33.625 158.1128125 -33.625 159.1328125 C-32.635 159.1328125 -31.645 159.1328125 -30.625 159.1328125 C-30.625 160.7828125 -30.625 162.4328125 -30.625 164.1328125 C-29.635 164.4628125 -28.645 164.7928125 -27.625 165.1328125 C-27.625 166.1228125 -27.625 167.1128125 -27.625 168.1328125 C-26.635 168.1328125 -25.645 168.1328125 -24.625 168.1328125 C-24.625 169.1228125 -24.625 170.1128125 -24.625 171.1328125 C-23.635 171.1328125 -22.645 171.1328125 -21.625 171.1328125 C-21.295 172.1228125 -20.965 173.1128125 -20.625 174.1328125 C-19.635 174.1328125 -18.645 174.1328125 -17.625 174.1328125 C-17.625 174.7928125 -17.625 175.4528125 -17.625 176.1328125 C-16.305 176.4628125 -14.985 176.7928125 -13.625 177.1328125 C-13.625 177.7928125 -13.625 178.4528125 -13.625 179.1328125 C-12.4184375 179.3184375 -12.4184375 179.3184375 -11.1875 179.5078125 C-10.341875 179.7140625 -9.49625 179.9203125 -8.625 180.1328125 C-8.295 180.7928125 -7.965 181.4528125 -7.625 182.1328125 C-6.47 182.2978125 -5.315 182.4628125 -4.125 182.6328125 C-2.97 182.7978125 -1.815 182.9628125 -0.625 183.1328125 C-0.295 183.7928125 0.035 184.4528125 0.375 185.1328125 C9.945 185.1328125 19.515 185.1328125 29.375 185.1328125 C29.375 184.4728125 29.375 183.8128125 29.375 183.1328125 C32.015 182.8028125 34.655 182.4728125 37.375 182.1328125 C37.375 181.1428125 37.375 180.1528125 37.375 179.1328125 C39.025 179.1328125 40.675 179.1328125 42.375 179.1328125 C42.375 178.4728125 42.375 177.8128125 42.375 177.1328125 C43.695 176.8028125 45.015 176.4728125 46.375 176.1328125 C46.375 175.4728125 46.375 174.8128125 46.375 174.1328125 C47.695 174.1328125 49.015 174.1328125 50.375 174.1328125 C50.375 173.1428125 50.375 172.1528125 50.375 171.1328125 C51.365 171.1328125 52.355 171.1328125 53.375 171.1328125 C53.375 170.1428125 53.375 169.1528125 53.375 168.1328125 C54.365 168.1328125 55.355 168.1328125 56.375 168.1328125 C56.375 167.1428125 56.375 166.1528125 56.375 165.1328125 C57.365 165.1328125 58.355 165.1328125 59.375 165.1328125 C61.73410353 160.8690844 61.73410353 160.8690844 62.375 156.1328125 C63.035 156.1328125 63.695 156.1328125 64.375 156.1328125 C64.375 154.4828125 64.375 152.8328125 64.375 151.1328125 C65.365 151.1328125 66.355 151.1328125 67.375 151.1328125 C67.375 149.1528125 67.375 147.1728125 67.375 145.1328125 C68.365 145.1328125 69.355 145.1328125 70.375 145.1328125 C70.44847656 143.95912109 70.44847656 143.95912109 70.5234375 142.76171875 C70.59820313 141.74980469 70.67296875 140.73789063 70.75 139.6953125 C70.81960938 138.68597656 70.88921875 137.67664063 70.9609375 136.63671875 C71.16589844 135.39728516 71.16589844 135.39728516 71.375 134.1328125 C72.035 133.8028125 72.695 133.4728125 73.375 133.1328125 C73.375 123.8928125 73.375 114.6528125 73.375 105.1328125 C71.89 104.6378125 71.89 104.6378125 70.375 104.1328125 C70.375 100.5028125 70.375 96.8728125 70.375 93.1328125 C69.385 93.1328125 68.395 93.1328125 67.375 93.1328125 C67.375 91.1528125 67.375 89.1728125 67.375 87.1328125 C66.385 87.1328125 65.395 87.1328125 64.375 87.1328125 C64.705 85.4828125 65.035 83.8328125 65.375 82.1328125 C64.385 82.1328125 63.395 82.1328125 62.375 82.1328125 C61.88 79.1628125 61.88 79.1628125 61.375 76.1328125 C60.715 76.1328125 60.055 76.1328125 59.375 76.1328125 C59.375 75.1428125 59.375 74.1528125 59.375 73.1328125 C58.385 73.1328125 57.395 73.1328125 56.375 73.1328125 C56.375 72.1428125 56.375 71.1528125 56.375 70.1328125 C55.715 70.1328125 55.055 70.1328125 54.375 70.1328125 C53.88 68.6478125 53.88 68.6478125 53.375 67.1328125 C52.715 67.1328125 52.055 67.1328125 51.375 67.1328125 C50.88 65.6478125 50.88 65.6478125 50.375 64.1328125 C49.715 64.1328125 49.055 64.1328125 48.375 64.1328125 C47.88 62.6478125 47.88 62.6478125 47.375 61.1328125 C46.385 61.1328125 45.395 61.1328125 44.375 61.1328125 C44.375 60.4728125 44.375 59.8128125 44.375 59.1328125 C43.570625 59.0090625 42.76625 58.8853125 41.9375 58.7578125 C41.091875 58.5515625 40.24625 58.3453125 39.375 58.1328125 C38.88 57.1428125 38.88 57.1428125 38.375 56.1328125 C37.55 55.9678125 36.725 55.8028125 35.875 55.6328125 C35.05 55.4678125 34.225 55.3028125 33.375 55.1328125 C32.88 54.1428125 32.88 54.1428125 32.375 53.1328125 C29.42858673 52.73901676 29.42858673 52.73901676 26 52.6328125 C19.70635392 52.35371511 19.70635392 52.35371511 16.375 50.1328125 C13.47735159 49.89270839 13.47735159 49.89270839 11.60546875 51.1015625 Z M-1109.625 65.1328125 C-1109.625 100.1128125 -1109.625 135.0928125 -1109.625 171.1328125 C-1084.26210418 173.78809787 -1084.26210418 173.78809787 -1060.625 169.1328125 C-1057.35527293 168.8237513 -1054.12914597 168.67071331 -1050.84960938 168.56640625 C-1049.10387068 168.48744462 -1047.36276021 168.31727921 -1045.625 168.1328125 C-1045.295 167.4728125 -1044.965 166.8128125 -1044.625 166.1328125 C-1042.56234178 165.7416187 -1040.53056733 165.62606731 -1038.4375 165.4765625 C-1037.839375 165.363125 -1037.24125 165.2496875 -1036.625 165.1328125 C-1036.295 164.4728125 -1035.965 163.8128125 -1035.625 163.1328125 C-1033.0625 162.5078125 -1033.0625 162.5078125 -1030.625 162.1328125 C-1030.625 161.4728125 -1030.625 160.8128125 -1030.625 160.1328125 C-1028.975 159.8028125 -1027.325 159.4728125 -1025.625 159.1328125 C-1025.625 158.1428125 -1025.625 157.1528125 -1025.625 156.1328125 C-1025.00625 156.0503125 -1024.3875 155.9678125 -1023.75 155.8828125 C-1021.44527141 155.33886812 -1021.44527141 155.33886812 -1020.5625 153.1328125 C-1020.0984375 152.1428125 -1020.0984375 152.1428125 -1019.625 151.1328125 C-1018.635 150.8028125 -1017.645 150.4728125 -1016.625 150.1328125 C-1016.625 149.4728125 -1016.625 148.8128125 -1016.625 148.1328125 C-1015.635 147.8028125 -1014.645 147.4728125 -1013.625 147.1328125 C-1011.4730563 143.90489695 -1011.42413557 142.84880441 -1011.625 139.1328125 C-1010.635 139.1328125 -1009.645 139.1328125 -1008.625 139.1328125 C-1008.55152344 138.21048828 -1008.55152344 138.21048828 -1008.4765625 137.26953125 C-1008.40179687 136.46128906 -1008.32703125 135.65304688 -1008.25 134.8203125 C-1008.18039062 134.01980469 -1008.11078125 133.21929687 -1008.0390625 132.39453125 C-1007.625 130.1328125 -1007.625 130.1328125 -1005.625 127.1328125 C-1005.45558364 124.26134881 -1005.39202289 121.50026419 -1005.4375 118.6328125 C-1005.43814453 117.86066406 -1005.43878906 117.08851562 -1005.43945312 116.29296875 C-1005.46516512 112.99611911 -1005.57614 110.27939251 -1006.625 107.1328125 C-1007.285 107.1328125 -1007.945 107.1328125 -1008.625 107.1328125 C-1008.625 104.4928125 -1008.625 101.8528125 -1008.625 99.1328125 C-1009.615 99.1328125 -1010.605 99.1328125 -1011.625 99.1328125 C-1011.625 97.1528125 -1011.625 95.1728125 -1011.625 93.1328125 C-1012.285 93.1328125 -1012.945 93.1328125 -1013.625 93.1328125 C-1014.12 91.6478125 -1014.12 91.6478125 -1014.625 90.1328125 C-1015.285 90.1328125 -1015.945 90.1328125 -1016.625 90.1328125 C-1017.0271875 88.988125 -1017.0271875 88.988125 -1017.4375 87.8203125 C-1018.5916095 85.20838048 -1019.33787883 83.80417028 -1021.625 82.1328125 C-1022.945 82.1328125 -1024.265 82.1328125 -1025.625 82.1328125 C-1025.625 81.1428125 -1025.625 80.1528125 -1025.625 79.1328125 C-1028.00733524 77.8500166 -1030.21610551 76.94736763 -1032.8125 76.1328125 C-1035.625 75.1328125 -1035.625 75.1328125 -1036.625 73.1328125 C-1038.935 73.1328125 -1041.245 73.1328125 -1043.625 73.1328125 C-1044.12 71.6478125 -1044.12 71.6478125 -1044.625 70.1328125 C-1045.718125 70.0090625 -1046.81125 69.8853125 -1047.9375 69.7578125 C-1051.625 69.1328125 -1051.625 69.1328125 -1054.625 67.1328125 C-1057.07011074 66.84280095 -1057.07011074 66.84280095 -1059.83081055 66.90576172 C-1060.89168381 66.90591278 -1061.95255707 66.90606384 -1063.045578 66.90621948 C-1064.76131767 66.92170334 -1064.76131767 66.92170334 -1066.51171875 66.9375 C-1068.26993706 66.94174484 -1068.26993706 66.94174484 -1070.06367493 66.94607544 C-1073.81338643 66.95728497 -1077.56286049 66.98239122 -1081.3125 67.0078125 C-1083.8522101 67.01784129 -1086.39192393 67.02696731 -1088.93164062 67.03515625 C-1095.16284165 67.05722683 -1101.39390386 67.09071211 -1107.625 67.1328125 C-1107.625 66.4728125 -1107.625 65.8128125 -1107.625 65.1328125 C-1108.285 65.1328125 -1108.945 65.1328125 -1109.625 65.1328125 Z M-809.625 70.1328125 C-810.92133621 71.19926365 -810.92133621 71.19926365 -810.6875 73.6953125 C-810.666875 74.4996875 -810.64625 75.3040625 -810.625 76.1328125 C-811.285 76.1328125 -811.945 76.1328125 -812.625 76.1328125 C-812.810625 77.834375 -812.810625 77.834375 -813 79.5703125 C-813.20625 80.7459375 -813.4125 81.9215625 -813.625 83.1328125 C-814.285 83.4628125 -814.945 83.7928125 -815.625 84.1328125 C-815.8725 85.3703125 -815.8725 85.3703125 -816.125 86.6328125 C-816.29 87.4578125 -816.455 88.2828125 -816.625 89.1328125 C-817.615 89.6278125 -817.615 89.6278125 -818.625 90.1328125 C-818.625 92.1128125 -818.625 94.0928125 -818.625 96.1328125 C-819.615 96.1328125 -820.605 96.1328125 -821.625 96.1328125 C-821.74875 97.0609375 -821.8725 97.9890625 -822 98.9453125 C-822.70150612 102.52299374 -824.18071197 104.50055646 -826.25 107.4453125 C-827.84951103 110.57162951 -827.86669899 112.66846036 -827.625 116.1328125 C-828.615 116.1328125 -829.605 116.1328125 -830.625 116.1328125 C-830.625 118.1128125 -830.625 120.0928125 -830.625 122.1328125 C-831.285 122.1328125 -831.945 122.1328125 -832.625 122.1328125 C-832.955 124.1128125 -833.285 126.0928125 -833.625 128.1328125 C-834.285 128.1328125 -834.945 128.1328125 -835.625 128.1328125 C-835.955 130.7728125 -836.285 133.4128125 -836.625 136.1328125 C-838.11 136.6278125 -838.11 136.6278125 -839.625 137.1328125 C-839.625 138.4528125 -839.625 139.7728125 -839.625 141.1328125 C-840.615 141.6278125 -840.615 141.6278125 -841.625 142.1328125 C-841.79 142.9578125 -841.955 143.7828125 -842.125 144.6328125 C-842.29 145.4578125 -842.455 146.2828125 -842.625 147.1328125 C-843.615 147.6278125 -843.615 147.6278125 -844.625 148.1328125 C-844.79 148.9578125 -844.955 149.7828125 -845.125 150.6328125 C-845.29 151.4578125 -845.455 152.2828125 -845.625 153.1328125 C-846.615 153.6278125 -846.615 153.6278125 -847.625 154.1328125 C-847.625 155.7828125 -847.625 157.4328125 -847.625 159.1328125 C-849.11 159.6278125 -849.11 159.6278125 -850.625 160.1328125 C-850.625 162.1128125 -850.625 164.0928125 -850.625 166.1328125 C-851.615 166.1328125 -852.605 166.1328125 -853.625 166.1328125 C-853.625 166.7928125 -853.625 167.4528125 -853.625 168.1328125 C-822.935 168.1328125 -792.245 168.1328125 -760.625 168.1328125 C-760.955 167.1428125 -761.285 166.1528125 -761.625 165.1328125 C-762.285 165.1328125 -762.945 165.1328125 -763.625 165.1328125 C-763.955 163.4828125 -764.285 161.8328125 -764.625 160.1328125 C-765.285 160.1328125 -765.945 160.1328125 -766.625 160.1328125 C-766.955 158.1528125 -767.285 156.1728125 -767.625 154.1328125 C-768.285 154.1328125 -768.945 154.1328125 -769.625 154.1328125 C-769.955 152.8128125 -770.285 151.4928125 -770.625 150.1328125 C-771.285 150.1328125 -771.945 150.1328125 -772.625 150.1328125 C-773.12 146.1728125 -773.12 146.1728125 -773.625 142.1328125 C-773.955 142.1328125 -774.285 142.1328125 -774.625 142.1328125 C-775.285 140.1528125 -775.945 138.1728125 -776.625 136.1328125 C-777.285 136.1328125 -777.945 136.1328125 -778.625 136.1328125 C-778.955 134.4828125 -779.285 132.8328125 -779.625 131.1328125 C-780.285 131.1328125 -780.945 131.1328125 -781.625 131.1328125 C-781.625 129.1528125 -781.625 127.1728125 -781.625 125.1328125 C-782.615 125.1328125 -783.605 125.1328125 -784.625 125.1328125 C-784.625 123.1528125 -784.625 121.1728125 -784.625 119.1328125 C-785.285 118.8028125 -785.945 118.4728125 -786.625 118.1328125 C-787.25 116.0703125 -787.25 116.0703125 -787.625 114.1328125 C-788.285 114.1328125 -788.945 114.1328125 -789.625 114.1328125 C-790.12 110.6678125 -790.12 110.6678125 -790.625 107.1328125 C-791.285 107.1328125 -791.945 107.1328125 -792.625 107.1328125 C-792.955 105.4828125 -793.285 103.8328125 -793.625 102.1328125 C-794.285 102.1328125 -794.945 102.1328125 -795.625 102.1328125 C-796.12 99.1628125 -796.12 99.1628125 -796.625 96.1328125 C-797.285 96.1328125 -797.945 96.1328125 -798.625 96.1328125 C-798.625 94.4828125 -798.625 92.8328125 -798.625 91.1328125 C-799.615 90.8028125 -800.605 90.4728125 -801.625 90.1328125 C-801.955 88.4828125 -802.285 86.8328125 -802.625 85.1328125 C-802.955 85.1328125 -803.285 85.1328125 -803.625 85.1328125 C-804.12 82.1628125 -804.12 82.1628125 -804.625 79.1328125 C-805.615 79.1328125 -806.605 79.1328125 -807.625 79.1328125 C-808.12 74.6778125 -808.12 74.6778125 -808.625 70.1328125 C-808.955 70.1328125 -809.285 70.1328125 -809.625 70.1328125 Z M-128.625 113.1328125 C-127.625 116.1328125 -127.625 116.1328125 -127.625 116.1328125 Z M-951.625 191.1328125 C-951.295 192.1228125 -950.965 193.1128125 -950.625 194.1328125 C-950.295 193.1428125 -949.965 192.1528125 -949.625 191.1328125 C-950.285 191.1328125 -950.945 191.1328125 -951.625 191.1328125 Z M-953.625 194.1328125 C-953.295 194.7928125 -952.965 195.4528125 -952.625 196.1328125 C-952.295 195.4728125 -951.965 194.8128125 -951.625 194.1328125 C-952.285 194.1328125 -952.945 194.1328125 -953.625 194.1328125 Z " fill="#FFFFFF" transform="translate(1188.625,-0.1328125)"/>
<path d="M0 0 C37.95 0 75.9 0 115 0 C115 0.33 115 0.66 115 1 C77.05 1 39.1 1 0 1 C0 0.67 0 0.34 0 0 Z " fill="#FFFFFF" transform="translate(611,93)"/>
<path d="M0 0 C0.33 0 0.66 0 1 0 C1 1.98 1 3.96 1 6 C0.67 6 0.34 6 0 6 C0 4.02 0 2.04 0 0 Z " fill="#FFFFFF" transform="translate(528,17)"/>
<path d="" fill="#FFFFFF" transform="translate(0,0)"/>
</svg>
