<?xml version="1.0" encoding="UTF-8"?>
<svg version="1.1" xmlns="http://www.w3.org/2000/svg" width="1216" height="584">
<path d="M0 0 C2.96875 -0.3984375 2.96875 -0.3984375 6.5 -0.375 C7.6653125 -0.38273437 8.830625 -0.39046875 10.03125 -0.3984375 C11.0109375 -0.26695313 11.990625 -0.13546875 13 0 C13.99 1.485 13.99 1.485 15 3 C16.89815255 3.03330092 18.7981402 3.05386849 20.6953125 2.984375 C24.51599255 3.01027792 28.45112864 3.54783601 32 5 C32.495 6.485 32.495 6.485 33 8 C33.928125 7.938125 34.85625 7.87625 35.8125 7.8125 C39.58412562 8.03436033 39.50274442 8.50274442 42 11 C44.48901793 12.2122949 44.48901793 12.2122949 47.1875 13.1875 C48.08855469 13.53167969 48.98960937 13.87585938 49.91796875 14.23046875 C50.60503906 14.48441406 51.29210937 14.73835938 52 15 C52 15.66 52 16.32 52 17 C53.32 17 54.64 17 56 17 C56.4021875 17.928125 56.4021875 17.928125 56.8125 18.875 C57.95556848 21.2995233 57.95556848 21.2995233 61 23 C61 23.66 61 24.32 61 25 C61.680625 25.04125 62.36125 25.0825 63.0625 25.125 C69.66719914 27.09235719 74.10806398 33.05791692 78.421875 38.16796875 C81.6103903 41.91574957 81.6103903 41.91574957 86 44 C86 45.32 86 46.64 86 48 C87.32267727 49.01405257 88.65724831 50.01268258 90 51 C91.72592217 54.36554823 92 56.12819409 92 60 C92.99 60.33 93.98 60.66 95 61 C95 62.32 95 63.64 95 65 C95.66 65 96.32 65 97 65 C98.81235534 70.41511708 99.27124681 75.08956789 99.1953125 80.77734375 C99.1924826 81.58869278 99.18965271 82.40004181 99.18673706 83.23597717 C99.17562663 85.80330753 99.15053971 88.37027678 99.125 90.9375 C99.11495836 92.68814597 99.10583459 94.43879746 99.09765625 96.18945312 C99.07571734 100.45977254 99.0412516 104.72982525 99 109 C98.34 109 97.68 109 97 109 C97 111.31 97 113.62 97 116 C96.34 116 95.68 116 95 116 C94.67 117.65 94.34 119.3 94 121 C93.34 121 92.68 121 92 121 C91.67 122.65 91.34 124.3 91 126 C90.01 126.33 89.02 126.66 88 127 C88 128.98 88 130.96 88 133 C87.154375 133.33 86.30875 133.66 85.4375 134 C81.51941569 136.27961269 79.31797603 138.85252996 76.515625 142.35546875 C75.76539063 143.16951172 75.76539063 143.16951172 75 144 C74.34 144 73.68 144 73 144 C71.47700477 146.93720508 70.19899698 149.9168649 69 153 C69.66 152.67 70.32 152.34 71 152 C73.37338901 151.90197193 75.74958829 151.86922124 78.125 151.8671875 C78.8277002 151.86623077 79.53040039 151.86527405 80.25439453 151.86428833 C81.74056081 151.86360762 83.22673006 151.8654543 84.71289062 151.86962891 C86.99095319 151.87497875 89.26881859 151.86968028 91.546875 151.86328125 C92.98958377 151.86394205 94.43229242 151.86522325 95.875 151.8671875 C97.19242188 151.86831543 98.50984375 151.86944336 99.8671875 151.87060547 C103 152 103 152 105 153 C105.33 152.01 105.66 151.02 106 150 C109.15504009 148.42247996 112.59106733 148.70777291 116.0625 148.5625 C123.93162799 148.16013407 130.93020975 147.2309225 138.3125 144.375 C142 143 142 143 146 143 C146 142.34 146 141.68 146 141 C153.625 139 153.625 139 157 139 C157.33 138.01 157.66 137.02 158 136 C159.77734375 135.12109375 159.77734375 135.12109375 161.9375 134.4375 C164.72850228 133.54093484 165.87774645 133.12225355 168 131 C169.32 130.67 170.64 130.34 172 130 C172.33 107.23 172.66 84.46 173 61 C169.7 61 166.4 61 163 61 C162 60 162 60 161.88647461 58.23413086 C161.89171143 57.48526611 161.89694824 56.73640137 161.90234375 55.96484375 C161.90556641 55.15595703 161.90878906 54.34707031 161.91210938 53.51367188 C161.92048828 52.66353516 161.92886719 51.81339844 161.9375 50.9375 C161.94201172 50.08349609 161.94652344 49.22949219 161.95117188 48.34960938 C161.96299627 46.23304337 161.98093231 44.11651315 162 42 C165.29109371 40.35445315 168.9473456 40.86418757 172.56456757 40.87415886 C173.46617924 40.87270542 174.36779091 40.87125198 175.29672414 40.86975449 C178.35176325 40.86607262 181.40675315 40.869591 184.46179199 40.87301636 C186.66061157 40.8718654 188.85943097 40.87027805 191.05824995 40.86828911 C197.12691404 40.86409227 203.19556251 40.86618808 209.26422668 40.86927533 C215.12846812 40.87129674 220.99270616 40.86864533 226.85694714 40.86612797 C239.59725127 40.8608528 252.3375504 40.86132236 265.07785501 40.86420688 C276.22686624 40.86671883 287.37587563 40.86738082 298.52488708 40.86618423 C299.26338219 40.86610785 300.00187729 40.86603146 300.76275104 40.86595276 C303.76026885 40.86564144 306.75778665 40.86532305 309.75530445 40.864993 C337.8952289 40.86193149 366.03515014 40.86471143 394.17507409 40.8700899 C419.19565658 40.87483578 444.21623397 40.87441116 469.23681641 40.86962891 C497.32407792 40.8642785 525.41133662 40.86214858 553.49859858 40.86524117 C556.49077002 40.8655619 559.48294147 40.86587474 562.47511292 40.86618423 C563.58029995 40.86630285 563.58029995 40.86630285 564.707814 40.86642386 C575.85195795 40.86756308 586.99609986 40.86622781 598.14024353 40.86370468 C610.80700532 40.86085118 623.4737613 40.86154793 636.14052236 40.86698543 C642.6094887 40.86962264 649.07844469 40.87062717 655.54741096 40.86733627 C661.46016105 40.86437372 667.3728911 40.86596545 673.28563935 40.87131383 C675.4336492 40.87243818 677.58166072 40.87184642 679.72966951 40.86943804 C682.63161514 40.86643195 685.53349058 40.86948079 688.43543243 40.87415886 C689.28472283 40.87181769 690.13401323 40.86947653 691.0090397 40.86706442 C696.77169927 40.88584963 696.77169927 40.88584963 699 42 C699 48.27 699 54.54 699 61 C680.19 61.33 661.38 61.66 642 62 C642.08338664 94.68925723 642.17385972 127.37845847 642.28005161 160.06764748 C642.29257094 163.92424847 642.30500364 167.78084973 642.31738281 171.63745117 C642.31984881 172.40525224 642.3223148 173.1730533 642.32485552 173.96412107 C642.36461208 186.40691264 642.39734658 198.84971334 642.42749982 211.29253147 C642.45858057 224.05380345 642.4971754 236.81503664 642.54279006 249.57626504 C642.57071337 257.45476706 642.59272968 265.33324061 642.60726251 273.2117789 C642.61902083 279.24639743 642.64121809 285.28093079 642.66738319 291.31550598 C642.67648571 293.7959612 642.68215539 296.27643163 642.68421364 298.75690269 C642.68751732 302.13221789 642.70294327 305.50726213 642.7215271 308.88252258 C642.71959237 309.87375777 642.71765763 310.86499296 642.71566427 311.88626558 C642.72312976 312.78747138 642.73059525 313.68867719 642.73828697 314.61719227 C642.74170446 315.78654103 642.74170446 315.78654103 642.74519098 316.97951299 C642.88691507 319.31379231 642.88691507 319.31379231 645 322 C645.33926947 324.33247761 645.67240066 326.66585471 646 329 C646.94978897 331.15028304 646.94978897 331.15028304 648 333 C648.165 333.721875 648.33 334.44375 648.5 335.1875 C648.665 335.785625 648.83 336.38375 649 337 C649.66 337.33 650.32 337.66 651 338 C651.45375 338.78375 651.9075 339.5675 652.375 340.375 C654.01864647 343.03012121 655.51404901 344.19982859 658 346 C658 346.66 658 347.32 658 348 C659.32 348.33 660.64 348.66 662 349 C662 351.97 662 354.94 662 358 C626.03 358 590.06 358 553 358 C553 354.7 553 351.4 553 348 C554.32 348 555.64 348 557 348 C557 347.01 557 346.02 557 345 C557.99 345 558.98 345 560 345 C560 344.34 560 343.68 560 343 C560.66 343 561.32 343 562 343 C562.66 341.02 563.32 339.04 564 337 C564.66 337 565.32 337 566 337 C566.13277344 336.36191406 566.26554687 335.72382813 566.40234375 335.06640625 C566.57894531 334.24011719 566.75554688 333.41382813 566.9375 332.5625 C567.11152344 331.73878906 567.28554687 330.91507812 567.46484375 330.06640625 C568 328 568 328 569 327 C570.91404582 320.06855453 571.29283723 313.26688067 571.2784729 306.1166687 C571.2842653 305.0668186 571.2900577 304.0169685 571.29602563 302.93530476 C571.3129349 299.44235239 571.31589432 295.94953286 571.31884766 292.45654297 C571.32815208 289.94278137 571.33832152 287.42902284 571.34928894 284.91526794 C571.37090767 279.51609056 571.38654482 274.11694935 571.39665604 268.71773911 C571.41128533 260.9115466 571.43683387 253.10541934 571.46498732 245.29926528 C571.51037837 232.63214471 571.54702484 219.9650147 571.578125 207.29785156 C571.60834211 194.99803004 571.64270683 182.69823155 571.68261719 170.3984375 C571.68507874 169.63938086 571.68754028 168.88032423 571.69007643 168.09826587 C571.70245164 164.29003382 571.71490806 160.48180205 571.72740483 156.67357039 C571.83085746 125.11574093 571.91847903 93.55789564 572 62 C551.87 62 531.74 62 511 62 C511.01160156 70.99636719 511.02320313 79.99273437 511.03515625 89.26171875 C511.04027252 94.99934925 511.04512865 100.73697807 511.04882812 106.47460938 C511.0547331 115.55916924 511.06162708 124.64371974 511.07543945 133.72827148 C511.08549957 140.34815552 511.09187997 146.96803188 511.09408849 153.58792335 C511.09537665 157.08348882 511.09833916 160.57903234 511.10573006 164.07459068 C511.13126416 176.69585716 511.14615377 189.30972002 510.59155273 201.92114258 C510.55741052 202.7464104 510.5232683 203.57167822 510.48809147 204.42195415 C510.15508795 210.86846099 509.02463589 216.84969098 507 223 C506.34 223 505.68 223 505 223 C504.97873047 223.94359375 504.97873047 223.94359375 504.95703125 224.90625 C504.57819419 231.70483948 502.88074643 235.53527543 499 241 C497.20930556 243.92165936 495.42863555 246.84928044 493.6484375 249.77734375 C492 252 492 252 489 253 C488.731875 253.5775 488.46375 254.155 488.1875 254.75 C486.4455689 258.05050103 483.97187944 259.80080921 481 262 C479.67323492 262.35858516 478.34164079 262.7018576 477 263 C476.67 263.99 476.34 264.98 476 266 C475.01 266 474.02 266 473 266 C472.67 266.66 472.34 267.32 472 268 C469 270 469 270 465 270 C465 270.66 465 271.32 465 272 C463.35 272 461.7 272 460 272 C460 272.66 460 273.32 460 274 C455.126739 275.5912689 451.19209404 276.21192221 446 276 C445.67 276.99 445.34 277.98 445 279 C436.86621371 279.79473106 428.82666887 280.14841913 420.65625 280.1328125 C418.95982361 280.13424759 418.95982361 280.13424759 417.22912598 280.13571167 C414.85603784 280.13638722 412.48294779 280.13457697 410.10986328 280.13037109 C406.50939726 280.12501398 402.90905596 280.13033756 399.30859375 280.13671875 C396.9869789 280.13605786 394.66536412 280.13477647 392.34375 280.1328125 C391.28401978 280.13483673 390.22428955 280.13686096 389.13244629 280.13894653 C369.07705695 280.07705695 369.07705695 280.07705695 366 277 C363.67145135 276.63473747 361.33701038 276.30649316 359 276 C356.6368615 275.40921538 354.33050743 274.71342064 352 274 C352 273.34 352 272.68 352 272 C350.35 272 348.7 272 347 272 C347 271.34 347 270.68 347 270 C346.05125 269.855625 345.1025 269.71125 344.125 269.5625 C341 269 341 269 339 268 C339 267.34 339 266.68 339 266 C337.68 266 336.36 266 335 266 C333.28769752 264.38025441 331.62836738 262.7041054 330 261 C328.83103232 260.12064143 327.64260034 259.26665023 326.4375 258.4375 C322.32280228 255.57510159 318.85482386 252.7916283 317 248 C317 247.01 317 246.02 317 245 C316.01 245 315.02 245 314 245 C312.18757677 240.9811485 310.66498383 237.38889325 310 233 C309.34 233 308.68 233 308 233 C308 231.02 308 229.04 308 227 C307.34 227 306.68 227 306 227 C305.855625 225.865625 305.71125 224.73125 305.5625 223.5625 C305.38828522 220.19222799 305.38828522 220.19222799 304 219 C303.92820036 217.48071962 303.91607993 215.95832518 303.9375 214.4375 C303.94652344 213.61121094 303.95554687 212.78492188 303.96484375 211.93359375 C303.98224609 210.97646484 303.98224609 210.97646484 304 210 C303.34 210 302.68 210 302 210 C302 160.83 302 111.66 302 61 C282.2 61.33 262.4 61.66 242 62 C241.97797365 94.0862896 241.95950217 126.1725719 241.94893467 158.25886678 C241.94768389 162.0429392 241.94638958 165.82701159 241.94506836 169.61108398 C241.94480605 170.3644566 241.94454374 171.11782921 241.94427348 171.89403129 C241.93991664 184.10862669 241.93202902 196.32321741 241.9228472 208.53781002 C241.91351105 221.06174199 241.90794447 233.5856715 241.90591151 246.1096068 C241.9045362 253.84378852 241.90018519 261.57795699 241.89208353 269.31213463 C241.88619586 275.23266723 241.88554094 281.15319295 241.88689232 287.07372856 C241.88661579 289.50988344 241.88460807 291.94603879 241.88079453 294.3821907 C241.87586417 297.69242972 241.87699927 301.00261077 241.87974548 304.31285095 C241.87683264 305.29045708 241.8739198 306.26806321 241.87091869 307.27529377 C241.87290974 308.1551005 241.87490079 309.03490723 241.87695217 309.94137478 C241.87657245 310.70651124 241.87619273 311.47164771 241.8758015 312.25997013 C241.81119488 314.02951793 241.81119488 314.02951793 243 315 C243.21149183 316.36882212 243.36912448 317.74613294 243.5 319.125 C243.90105683 323.10373843 244.41095774 327.04500194 245 331 C245.99 331.33 246.98 331.66 248 332 C249.25 334.4375 249.25 334.4375 250 337 C249.67 337.66 249.34 338.32 249 339 C249.99 339.33 250.98 339.66 252 340 C257 345.46511628 257 345.46511628 257 348 C258.32 348.33 259.64 348.66 261 349 C262.125 354.625 262.125 354.625 261 358 C225.36 358 189.72 358 153 358 C153 354.7 153 351.4 153 348 C153.99 348 154.98 348 156 348 C156.33 347.01 156.66 346.02 157 345 C158.64639965 343.64172029 160.31295807 342.30745749 162 341 C162.33 340.34 162.66 339.68 163 339 C163.66 339 164.32 339 165 339 C165.33 336.69 165.66 334.38 166 332 C166.99 331.67 167.98 331.34 169 331 C168.9690625 329.329375 168.9690625 329.329375 168.9375 327.625 C169 324 169 324 170 322 C170.2322646 319.28737884 170.41936235 316.59226874 170.5625 313.875 C170.60568359 313.12089844 170.64886719 312.36679687 170.69335938 311.58984375 C170.7994832 309.72678112 170.90025001 307.86341476 171 306 C171.66 306 172.32 306 173 306 C173 288.18 173 270.36 173 252 C172.34 252 171.68 252 171 252 C171 236.82 171 221.64 171 206 C171.66 206 172.32 206 173 206 C173 200.06 173 194.12 173 188 C165.52174919 188.32917961 165.52174919 188.32917961 162 191 C160.00039988 191.039992 157.99952758 191.04346799 156 191 C155.67 191.33 155.34 191.66 155 192 C152.64686445 192.07271741 150.29166332 192.08370868 147.9375 192.0625 C146.64714844 192.05347656 145.35679687 192.04445313 144.02734375 192.03515625 C142.52880859 192.01775391 142.52880859 192.01775391 141 192 C140.67 192.99 140.34 193.98 140 195 C125.81 195 111.62 195 97 195 C96.67 194.01 96.34 193.02 96 192 C95.01257813 192.01160156 94.02515625 192.02320313 93.0078125 192.03515625 C91.08582031 192.04869141 91.08582031 192.04869141 89.125 192.0625 C87.84882812 192.07410156 86.57265625 192.08570313 85.2578125 192.09765625 C82 192 82 192 80 191 C78.845 191.020625 77.69 191.04125 76.5 191.0625 C73 191 73 191 71 189 C68.8625599 188.61405508 68.8625599 188.61405508 66.5 188.5 C62.22222222 188.22222222 62.22222222 188.22222222 60 186 C58.03790555 185.77108898 56.07525601 185.5452807 54.109375 185.3515625 C51.07420895 184.84570149 48.6461833 183.5215554 46 182 C46 181.34 46 180.68 46 180 C45.154375 180.04125 44.30875 180.0825 43.4375 180.125 C39.64640816 179.98714211 36.57145139 179.26051226 33 178 C32.67 177.34 32.34 176.68 32 176 C29.67843403 175.59270772 27.3431213 175.25561323 25 175 C24.67 175.99 24.34 176.98 24 178 C22.33333333 178.66666667 20.66666667 179.33333333 19 180 C18.67 180.99 18.34 181.98 18 183 C14.67908998 184.70533217 12.81507216 185 9 185 C9 185.66 9 186.32 9 187 C8.05125 187.0825 7.1025 187.165 6.125 187.25 C2.89538209 187.65074923 2.89538209 187.65074923 1.625 190.0625 C1.41875 190.701875 1.2125 191.34125 1 192 C0.34 192 -0.32 192 -1 192 C-1.33 192.99 -1.66 193.98 -2 195 C-3.65204456 195.70211894 -5.31923769 196.36971413 -7 197 C-7.33 197.66 -7.66 198.32 -8 199 C-9.6396875 199.61875 -9.6396875 199.61875 -11.3125 200.25 C-15.37168981 201.88690343 -16.7492657 204.24877617 -19 208 C-21.625 210.875 -21.625 210.875 -24 213 C-24.66 213 -25.32 213 -26 213 C-26.33 214.65 -26.66 216.3 -27 218 C-27.66 218 -28.32 218 -29 218 C-29 218.66 -29 219.32 -29 220 C-29.66 220 -30.32 220 -31 220 C-31 222.31 -31 224.62 -31 227 C-31.99 227.33 -32.98 227.66 -34 228 C-33.814375 228.78375 -33.62875 229.5675 -33.4375 230.375 C-33 233 -33 233 -34 235 C-34.66 235 -35.32 235 -36 235 C-36 242.26 -36 249.52 -36 257 C-35.01 257.33 -34.02 257.66 -33 258 C-32.9175 259.11375 -32.835 260.2275 -32.75 261.375 C-32.5025 262.57125 -32.255 263.7675 -32 265 C-30.06669397 266.09166275 -30.06669397 266.09166275 -28 267 C-27.33333333 269 -26.66666667 271 -26 273 C-23.66666667 275.66666667 -23.66666667 275.66666667 -21 278 C-20.443125 278.680625 -19.88625 279.36125 -19.3125 280.0625 C-15.69978818 283.08936666 -11.40101595 284.42100955 -7 286 C-7 286.66 -7 287.32 -7 288 C-5.35 288.33 -3.7 288.66 -2 289 C-2 289.66 -2 290.32 -2 291 C-1.34 290.67 -0.68 290.34 0 290 C5.3825188 289.64896617 5.3825188 289.64896617 7.7109375 290.97265625 C10.96856237 292.43469608 14.23538385 292.46554672 17.75 292.625 C18.44738281 292.66367187 19.14476562 292.70234375 19.86328125 292.7421875 C21.57510818 292.83598624 23.28751682 292.91906174 25 293 C25 292.34 25 291.68 25 291 C33.57142857 289.71428571 33.57142857 289.71428571 37 291 C37.33 290.01 37.66 289.02 38 288 C41.07617188 287.70703125 41.07617188 287.70703125 44.15234375 287.4140625 C44.76207031 287.27742188 45.37179687 287.14078125 46 287 C47.21693876 284.56612247 47.31959896 282.58161154 47.5625 279.875 C47.64628906 278.96492188 47.73007812 278.05484375 47.81640625 277.1171875 C47.87699219 276.41851562 47.93757812 275.71984375 48 275 C47.34 275 46.68 275 46 275 C46 269.06 46 263.12 46 257 C46.66 257 47.32 257 48 257 C48 254.69 48 252.38 48 250 C48.639375 249.79375 49.27875 249.5875 49.9375 249.375 C52.34925077 248.10461791 52.34925077 248.10461791 52.75 244.875 C52.8325 243.92625 52.915 242.9775 53 242 C54.98 241.34 56.96 240.68 59 240 C59 239.01 59 238.02 59 237 C63.30985841 235.53406177 67.60881218 234.0800661 72 232.875 C74.85798939 232.30228815 74.85798939 232.30228815 76 231 C77.64230364 230.8754514 79.29052276 230.82431476 80.9375 230.8125 C81.83339844 230.79832031 82.72929688 230.78414062 83.65234375 230.76953125 C86 231 86 231 88 233 C89.093125 233.309375 90.18625 233.61875 91.3125 233.9375 C94.78109572 234.93692589 96.98546521 236.08834379 100 238 C102.09726299 239.07060282 104.20944517 240.10533243 106.328125 241.1328125 C108 242 108 242 109 243 C109.04063832 244.66617115 109.042721 246.33388095 109 248 C109.8971875 248.3403125 109.8971875 248.3403125 110.8125 248.6875 C113.63240835 250.37944501 114.59597086 252.05153881 116 255 C116 256.32 116 257.64 116 259 C116.66 259 117.32 259 118 259 C118 261.31 118 263.62 118 266 C118.99 266.33 119.98 266.66 121 267 C121 272.61 121 278.22 121 284 C120.34 284.33 119.68 284.66 119 285 C118.53476937 286.89533342 118.53476937 286.89533342 118.375 289.0625 C118.189375 291.0115625 118.189375 291.0115625 118 293 C117.34 293 116.68 293 116 293 C115.87625 293.70125 115.7525 294.4025 115.625 295.125 C113.81355932 303.45762712 113.81355932 303.45762712 110 306 C109.84660156 306.63421875 109.69320312 307.2684375 109.53515625 307.921875 C108.83288477 310.64894382 107.6115786 311.51073712 105.4375 313.25 C104.79683594 313.77078125 104.15617188 314.2915625 103.49609375 314.828125 C103.00238281 315.21484375 102.50867188 315.6015625 102 316 C102.165 316.598125 102.33 317.19625 102.5 317.8125 C103 320 103 320 103 323 C104.85241234 325.99914379 105.57701423 326.85900474 109 328 C109 329.65 109 331.3 109 333 C109.66 333 110.32 333 111 333 C111 333.66 111 334.32 111 335 C111.99 335.33 112.98 335.66 114 336 C115.70533217 339.32091002 116 341.18492784 116 345 C116.66 345 117.32 345 118 345 C118 347.31 118 349.62 118 352 C118.99 352 119.98 352 121 352 C121 354.97 121 357.94 121 361 C121.66 361 122.32 361 123 361 C124.64072259 364.28144519 124.14274434 367.89789996 124.125 371.5 C124.12886719 372.28503906 124.13273438 373.07007813 124.13671875 373.87890625 C124.12665394 379.74669213 124.12665394 379.74669213 123 382 C122.34 382 121.68 382 121 382 C121 384.64 121 387.28 121 390 C120.34 390.33 119.68 390.66 119 391 C118.7421875 391.72574219 118.484375 392.45148438 118.21875 393.19921875 C116.65836976 396.78509258 114.26435225 399.13743561 111.5 401.8125 C111.00113281 402.31458984 110.50226563 402.81667969 109.98828125 403.33398438 C106.26740009 407 106.26740009 407 104 407 C103.67 407.99 103.34 408.98 103 410 C101.68 410 100.36 410 99 410 C98.67 410.99 98.34 411.98 98 413 C96.02 413 94.04 413 92 413 C92 413.66 92 414.32 92 415 C86.39 415 80.78 415 75 415 C75 414.34 75 413.68 75 413 C73.02 413 71.04 413 69 413 C68.67 412.01 68.34 411.02 68 410 C66.35 410 64.7 410 63 410 C63 409.01 63 408.02 63 407 C61.9790625 406.938125 61.9790625 406.938125 60.9375 406.875 C57.3225078 405.79819381 55.38765973 403.99497174 52.6484375 401.47265625 C50.85839375 399.80400335 50.85839375 399.80400335 48 398 C47.8125 395.375 47.8125 395.375 48 393 C47.34 393 46.68 393 46 393 C46 391.68 46 390.36 46 389 C45.01 389 44.02 389 43 389 C43 386.69 43 384.38 43 382 C43.804375 381.855625 44.60875 381.71125 45.4375 381.5625 C47.92103706 381.25864751 47.92103706 381.25864751 49 380 C51.33297433 379.95907063 53.66705225 379.95758277 56 380 C56 379.34 56 378.68 56 378 C56.7425 377.7525 57.485 377.505 58.25 377.25 C61.05973975 376.16702747 61.05973975 376.16702747 62.9375 374.0625 C65 372 65 372 68.1875 370.5625 C71.24577021 369.28111995 71.24577021 369.28111995 71.875 366.3125 C71.91625 365.549375 71.9575 364.78625 72 364 C72.66 364 73.32 364 74 364 C74 362.35 74 360.7 74 359 C74.99 358.67 75.98 358.34 77 358 C77 350.74 77 343.48 77 336 C76.01 335.67 75.02 335.34 74 335 C74 333.68 74 332.36 74 331 C72.52093108 330.97310784 71.04172517 330.95365379 69.5625 330.9375 C68.32693359 330.92009766 68.32693359 330.92009766 67.06640625 330.90234375 C65.00836062 330.76732652 65.00836062 330.76732652 64 332 C60.90918535 332.1011692 57.84117445 332.13968558 54.75 332.1328125 C53.82155273 332.13376923 52.89310547 332.13472595 51.93652344 332.13571167 C49.96940035 332.13639355 48.00227504 332.13453872 46.03515625 332.13037109 C43.01296974 332.12502295 39.99093185 332.13031582 36.96875 332.13671875 C35.06249967 332.13605797 33.15624943 332.13477681 31.25 332.1328125 C29.88439941 332.13584885 29.88439941 332.13584885 28.49121094 332.13894653 C22.11494969 332.11494969 22.11494969 332.11494969 21 331 C18.68047431 330.71898054 16.36114486 330.55217375 14.03125 330.37890625 C13.3609375 330.25386719 12.690625 330.12882812 12 330 C11.67 329.34 11.34 328.68 11 328 C8.8477837 327.58344201 6.67609175 327.26491552 4.5 327 C2.32390825 326.73508448 0.1522163 326.41655799 -2 326 C-2.33 325.34 -2.66 324.68 -3 324 C-4.98982206 323.47807946 -6.98184507 322.96169214 -8.98828125 322.5078125 C-11.18308423 321.95378456 -13.04575096 321.13997861 -15 320 C-15 319.34 -15 318.68 -15 318 C-16.65 317.67 -18.3 317.34 -20 317 C-20 316.34 -20 315.68 -20 315 C-20.7425 314.855625 -21.485 314.71125 -22.25 314.5625 C-23.1575 314.376875 -24.065 314.19125 -25 314 C-25.721875 313.87625 -26.44375 313.7525 -27.1875 313.625 C-29 313 -29 313 -31 310 C-33.55183404 308.79549696 -33.55183404 308.79549696 -36 308 C-36 307.34 -36 306.68 -36 306 C-37.010625 305.835 -38.02125 305.67 -39.0625 305.5 C-43.48451345 304.26076639 -45.50701261 301.49743524 -48.3125 298.015625 C-50.57931121 295.30804494 -53.28697751 293.25123143 -56 291 C-57.51770347 289.28751105 -58.96514978 287.52870583 -60.4140625 285.7578125 C-62.08109527 283.91011608 -63.85218992 282.46574174 -65.8125 280.9375 C-68.52221359 278.72317457 -68.94827238 278.18621943 -69.9375 274.625 C-69.958125 273.75875 -69.97875 272.8925 -70 272 C-70.66 272 -71.32 272 -72 272 C-72 271.34 -72 270.68 -72 270 C-72.99 270 -73.98 270 -75 270 C-75 268.68 -75 267.36 -75 266 C-75.66 266 -76.32 266 -77 266 C-78.02996297 263.42509258 -79.0521419 260.85660978 -80 258.25 C-80.78431361 255.84296517 -80.78431361 255.84296517 -83 255 C-82.67 253.02 -82.34 251.04 -82 249 C-82.99 249 -83.98 249 -85 249 C-86.125 242.375 -86.125 242.375 -85 239 C-85.66 239 -86.32 239 -87 239 C-87.0247345 234.92489562 -87.04287637 230.84982036 -87.05493164 226.7746582 C-87.05995777 225.38858275 -87.06677966 224.00251259 -87.07543945 222.61645508 C-87.08758018 220.62323285 -87.09271021 218.62997181 -87.09765625 216.63671875 C-87.10289307 215.43748779 -87.10812988 214.23825684 -87.11352539 213.00268555 C-87 210 -87 210 -86 207 C-86.00537892 205.66602663 -86.04932749 204.33183616 -86.125 203 C-86.18693545 199.23570121 -86.18693545 199.23570121 -84.5625 197.1875 C-83.7890625 196.5996875 -83.7890625 196.5996875 -83 196 C-82.67 195.01 -82.34 194.02 -82 193 C-81.01 193 -80.02 193 -79 193 C-79.20625 192.4225 -79.4125 191.845 -79.625 191.25 C-80.09218275 188.44690349 -79.4366626 187.39443767 -78 185 C-77.505 184.01 -77.505 184.01 -77 183 C-76.01 182.67 -75.02 182.34 -74 182 C-73.34 181.01 -72.68 180.02 -72 179 C-71.34 179 -70.68 179 -70 179 C-70.495 177.02 -70.495 177.02 -71 175 C-70.31292969 174.38511719 -69.62585938 173.77023438 -68.91796875 173.13671875 C-68.01691406 172.32847656 -67.11585938 171.52023438 -66.1875 170.6875 C-65.29417969 169.88699219 -64.40085937 169.08648437 -63.48046875 168.26171875 C-62.06305176 166.96930232 -60.66550654 165.65215821 -59.3359375 164.26953125 C-58 163 -58 163 -55.4375 162 C-52.68761678 161.13727591 -52.68761678 161.13727591 -51 158 C-50.34 158 -49.68 158 -49 158 C-48.67 157.01 -48.34 156.02 -48 155 C-46.01753602 153.96567096 -44.01586684 152.96761608 -42 152 C-40.98131338 151.01904252 -39.97648017 150.02297922 -39 149 C-38.01 148.67 -37.02 148.34 -36 148 C-35.34 147.01 -34.68 146.02 -34 145 C-30.875 144.3125 -30.875 144.3125 -28 144 C-28.02126462 140.59385054 -28.02126462 140.59385054 -29 137 C-31.93449408 134.98958997 -31.93449408 134.98958997 -35 134 C-35 133.34 -35 132.68 -35 132 C-35.66 132 -36.32 132 -37 132 C-37.226875 131.278125 -37.45375 130.55625 -37.6875 129.8125 C-39.25209743 126.45979122 -41.36536173 124.56877231 -44 122 C-45.3125 119.6875 -45.3125 119.6875 -46 118 C-46.99 118 -47.98 118 -49 118 C-49.268125 117.2575 -49.53625 116.515 -49.8125 115.75 C-50.95261823 113.1097262 -52.25142927 111.25857053 -54 109 C-55.86177761 105.86437455 -56 104.87191434 -56 101 C-56.66 101 -57.32 101 -58 101 C-58 99.68 -58 98.36 -58 97 C-58.99 97 -59.98 97 -61 97 C-61 95.35 -61 93.7 -61 92 C-61.66 92 -62.32 92 -63 92 C-63.309375 90.865625 -63.61875 89.73125 -63.9375 88.5625 C-64.62924531 85.21224901 -64.62924531 85.21224901 -66 84 C-66.23659529 80.81910775 -66.39625615 77.64590563 -66.51757812 74.45898438 C-66.60874135 70.27511917 -66.60874135 70.27511917 -69 67 C-68.625 64.375 -68.625 64.375 -68 62 C-67.34 62 -66.68 62 -66 62 C-66.02320313 60.89140625 -66.04640625 59.7828125 -66.0703125 58.640625 C-66.08907577 57.17709008 -66.10727537 55.71354786 -66.125 54.25 C-66.15013672 53.15558594 -66.15013672 53.15558594 -66.17578125 52.0390625 C-66.21072239 48.1955376 -66.17499684 45.25393228 -64 42 C-63.01 42 -62.02 42 -61 42 C-61 39.69 -61 37.38 -61 35 C-59.515 34.505 -59.515 34.505 -58 34 C-57.731875 32.9275 -57.46375 31.855 -57.1875 30.75 C-55.66778301 25.95089372 -54.07838084 24.80388682 -50 22 C-49.34 22 -48.68 22 -48 22 C-47.79375 21.401875 -47.5875 20.80375 -47.375 20.1875 C-45.49625845 17.19859299 -43.13805167 16.50364976 -40 15 C-39.34 14.01 -38.68 13.02 -38 12 C-35.03125 10.68359375 -35.03125 10.68359375 -31.5 9.4375 C-26.82325748 7.90074125 -26.82325748 7.90074125 -23 5 C-16.79848953 3.03396341 -10.69597108 2.84725168 -4.25 3.22265625 C-3.5075 3.14917969 -2.765 3.07570313 -2 3 C-1.34 2.01 -0.68 1.02 0 0 Z M10 44 C9.29875 44.144375 8.5975 44.28875 7.875 44.4375 C5.77917672 44.90475673 5.77917672 44.90475673 4 47 C3.37609375 47.29003906 2.7521875 47.58007812 2.109375 47.87890625 C-0.41281731 49.21940476 -1.87756703 50.78900319 -3.75 52.9375 C-4.36359375 53.62714844 -4.9771875 54.31679687 -5.609375 55.02734375 C-7.28808737 57.00640538 -7.28808737 57.00640538 -7 60 C-7.66 60.33 -8.32 60.66 -9 61 C-9.165 62.155 -9.33 63.31 -9.5 64.5 C-9.665 65.655 -9.83 66.81 -10 68 C-10.66 68.33 -11.32 68.66 -12 69 C-12 71.31 -12 73.62 -12 76 C-13.485 76.495 -13.485 76.495 -15 77 C-14.8863485 79.62594784 -14.75960946 82.25011547 -14.625 84.875 C-14.5940625 85.62136719 -14.563125 86.36773437 -14.53125 87.13671875 C-14.44356169 91.53473188 -14.44356169 91.53473188 -12 95 C-11.875 98.625 -11.875 98.625 -12 102 C-11.01 102.33 -10.02 102.66 -9 103 C-9 104.65 -9 106.3 -9 108 C-8.34 108 -7.68 108 -7 108 C-6.62875 109.3303125 -6.62875 109.3303125 -6.25 110.6875 C-4.95035375 114.13156256 -3.51270773 116.33024803 -1 119 C-0.34 119 0.32 119 1 119 C1 119.99 1 120.98 1 122 C3.62315032 123.31157516 5.23033436 122.89649988 8.125 122.5625 C9.03507813 122.46066406 9.94515625 122.35882813 10.8828125 122.25390625 C11.58148437 122.17011719 12.28015625 122.08632812 13 122 C13.495 120.515 13.495 120.515 14 119 C15.65 119 17.3 119 19 119 C19.226875 118.38125 19.45375 117.7625 19.6875 117.125 C21 115 21 115 23.25 114.125 C26.508608 112.79193309 28.08191666 111.04327652 30.375 108.4375 C32 107 32 107 34.38671875 106.08203125 C37.54292784 104.77520028 39.38686733 103.08095181 41.8125 100.6875 C42.60269531 99.92824219 43.39289063 99.16898438 44.20703125 98.38671875 C46.26917951 95.64168044 46.39726873 94.35010199 46 91 C46.66 91 47.32 91 48 91 C48 89.35 48 87.7 48 86 C49.485 85.505 49.485 85.505 51 85 C51 77.08 51 69.16 51 61 C50.01 61 49.02 61 48 61 C48 59.68 48 58.36 48 57 C47.34 57 46.68 57 46 57 C46 55.35 46 53.7 46 52 C45.34 52 44.68 52 44 52 C43.773125 51.360625 43.54625 50.72125 43.3125 50.0625 C42.14749104 47.72806339 42.14749104 47.72806339 39.375 47.25 C38.199375 47.12625 38.199375 47.12625 37 47 C36.505 45.515 36.505 45.515 36 44 C31.27003206 43.0658684 26.6801336 42.84825529 21.875 42.875 C21.17246094 42.87113281 20.46992187 42.86726563 19.74609375 42.86328125 C16.34739466 42.86970601 13.25064558 42.9706289 10 44 Z M368 61 C368.14909258 86.38088731 368.14909258 86.38088731 368.30664062 111.76171875 C368.37282499 122.12189346 368.43810748 132.48206791 368.49731445 142.84228516 C368.54045169 150.38981536 368.58679989 157.93731813 368.63687855 165.48480558 C368.66324413 169.47483128 368.68808701 173.46485237 368.70907402 177.45491028 C368.72894977 181.22399541 368.75317545 184.99302948 368.78049088 188.76206779 C368.7940333 190.7771567 368.8031856 192.79227369 368.81211853 194.80738831 C368.86459153 201.46538558 369.03775526 208.10934746 369.38783264 214.75793457 C369.48946764 216.72848186 369.48946764 216.72848186 369.59315586 218.7388382 C369.77055974 222.14055535 369.77055974 222.14055535 372 225 C372.58297786 228.4762754 372.95311193 231.95391685 373.33984375 235.45703125 C374.01954679 239.10490499 375.19037203 241.78014423 377 245 C377.66 245 378.32 245 379 245 C379.103125 245.928125 379.20625 246.85625 379.3125 247.8125 C380.00531495 251.02464205 380.3879169 252.11930017 383 254 C383.66 254 384.32 254 385 254 C385.33 254.99 385.66 255.98 386 257 C387.98723268 257.70381157 389.98777953 258.3711811 392 259 C392.495 259.99 392.495 259.99 393 261 C401.95301232 262.65796524 411.02860421 262.35417295 420 261 C420 260.34 420 259.68 420 259 C421.03125 258.814375 422.0625 258.62875 423.125 258.4375 C428.95326045 256.80605996 431.79733775 251.80399337 435 247 C435 245.68 435 244.36 435 243 C435.66 243 436.32 243 437 243 C438.58516884 238.66720517 439.37390321 234.56156234 440 230 C440.33 229.67 440.66 229.34 441 229 C441.28538322 225.67052907 441.44892633 222.34102372 441.62109375 219.00390625 C442 216 442 216 444 214 C444.29970934 211.23917443 444.29970934 211.23917443 444.24050903 207.95101929 C444.24325836 206.66090439 444.24600769 205.37078949 444.24884033 204.0415802 C444.24176155 202.60372833 444.23449192 201.16587739 444.22705078 199.72802734 C444.2264869 198.22036242 444.22680278 196.71269695 444.22793579 195.20503235 C444.22851119 191.10399411 444.2167267 187.00307213 444.20278788 182.90206099 C444.19031163 178.61925306 444.18911248 174.33644267 444.18673706 170.05361938 C444.18051314 161.93986209 444.16409001 153.82615849 444.14403808 145.71242487 C444.11753448 134.75090017 444.10671381 123.78936085 444.09503365 112.82781219 C444.07621003 95.55183455 444.03637046 78.27597024 444 61 C418.92 61 393.84 61 368 61 Z " fill="#FFFFFF" transform="translate(517,76)"/>
<path d="M0 0 C1.74765537 -0.00067654 3.49531065 -0.00164945 5.2429657 -0.00289917 C8.88098051 -0.00436088 12.51897053 -0.0022721 16.15698242 0.00244141 C20.76199233 0.00812485 25.36694374 0.00485859 29.97195148 -0.00113106 C33.57474691 -0.0047893 37.17752906 -0.00357405 40.78032494 -0.00100327 C42.4755574 -0.00034778 44.17079117 -0.00111263 45.86602211 -0.00348282 C54.90623798 -0.01335116 63.91968176 0.13129813 72.94995117 0.57861328 C73.76609799 0.61733488 74.58224482 0.65605648 75.42312336 0.69595146 C81.14039886 1.00965256 81.14039886 1.00965256 83.38671875 2.1328125 C86.61286299 2.39647014 89.83219251 2.5771159 93.06445312 2.73828125 C98.28592706 3.03202081 98.28592706 3.03202081 99.38671875 4.1328125 C101.23563821 4.36645131 103.09159906 4.54584885 104.94921875 4.6953125 C105.96113281 4.77910156 106.97304688 4.86289063 108.015625 4.94921875 C109.18931641 5.04009766 109.18931641 5.04009766 110.38671875 5.1328125 C110.38671875 5.7928125 110.38671875 6.4528125 110.38671875 7.1328125 C111.32644531 7.09800781 111.32644531 7.09800781 112.28515625 7.0625 C113.10242188 7.04445313 113.9196875 7.02640625 114.76171875 7.0078125 C115.57382812 6.98460937 116.3859375 6.96140625 117.22265625 6.9375 C119.38671875 7.1328125 119.38671875 7.1328125 121.38671875 9.1328125 C123.54055572 9.54090793 125.71119422 9.86327849 127.88671875 10.1328125 C134.16449653 10.91059028 134.16449653 10.91059028 136.38671875 13.1328125 C138.24155329 13.73995053 140.1209326 14.27412302 142.01171875 14.7578125 C143.01460937 15.01820312 144.0175 15.27859375 145.05078125 15.546875 C146.20707031 15.83691406 146.20707031 15.83691406 147.38671875 16.1328125 C147.38671875 16.7928125 147.38671875 17.4528125 147.38671875 18.1328125 C149.03671875 18.1328125 150.68671875 18.1328125 152.38671875 18.1328125 C152.38671875 18.7928125 152.38671875 19.4528125 152.38671875 20.1328125 C154.05734375 20.349375 154.05734375 20.349375 155.76171875 20.5703125 C159.38671875 21.1328125 159.38671875 21.1328125 161.38671875 22.1328125 C161.38671875 22.7928125 161.38671875 23.4528125 161.38671875 24.1328125 C162.70671875 24.4628125 164.02671875 24.7928125 165.38671875 25.1328125 C165.38671875 25.7928125 165.38671875 26.4528125 165.38671875 27.1328125 C166.23234375 27.3390625 167.07796875 27.5453125 167.94921875 27.7578125 C172.15181391 29.43885056 175.32315987 31.79734011 178.38671875 35.1328125 C178.38671875 35.7928125 178.38671875 36.4528125 178.38671875 37.1328125 C179.70671875 37.7928125 181.02671875 38.4528125 182.38671875 39.1328125 C182.38671875 39.7928125 182.38671875 40.4528125 182.38671875 41.1328125 C183.37671875 41.4628125 184.36671875 41.7928125 185.38671875 42.1328125 C186.95703125 44.05859375 186.95703125 44.05859375 188.51171875 46.4453125 C189.02992188 47.22519531 189.548125 48.00507812 190.08203125 48.80859375 C193.32809697 54.59125574 192.60798231 61.03555592 192.62695312 67.49511719 C192.636653 69.49426222 192.6678631 71.49326484 192.69921875 73.4921875 C192.704375 74.76320313 192.70953125 76.03421875 192.71484375 77.34375 C192.72418945 78.50181152 192.73353516 79.65987305 192.74316406 80.85302734 C192.34462696 84.52011461 191.21244272 86.95436565 189.38671875 90.1328125 C188.72671875 90.1328125 188.06671875 90.1328125 187.38671875 90.1328125 C187.13921875 91.1021875 186.89171875 92.0715625 186.63671875 93.0703125 C186.01796875 94.58625 186.01796875 94.58625 185.38671875 96.1328125 C183.26171875 97.0078125 183.26171875 97.0078125 181.38671875 97.1328125 C181.38671875 97.7928125 181.38671875 98.4528125 181.38671875 99.1328125 C180.39671875 99.1328125 179.40671875 99.1328125 178.38671875 99.1328125 C178.38671875 99.7928125 178.38671875 100.4528125 178.38671875 101.1328125 C177.39671875 101.1328125 176.40671875 101.1328125 175.38671875 101.1328125 C175.38671875 101.7928125 175.38671875 102.4528125 175.38671875 103.1328125 C166.47739439 106.10258729 159.47292381 107.31539503 150.01171875 107.3203125 C148.16320312 107.33868164 148.16320312 107.33868164 146.27734375 107.35742188 C145.08882812 107.35935547 143.9003125 107.36128906 142.67578125 107.36328125 C141.58990723 107.36739014 140.5040332 107.37149902 139.38525391 107.37573242 C136.33534682 107.12865071 134.14375036 106.42251547 131.38671875 105.1328125 C131.38671875 102.4928125 131.38671875 99.8528125 131.38671875 97.1328125 C132.04671875 97.1328125 132.70671875 97.1328125 133.38671875 97.1328125 C133.38671875 90.2028125 133.38671875 83.2728125 133.38671875 76.1328125 C132.72671875 76.1328125 132.06671875 76.1328125 131.38671875 76.1328125 C131.15885417 74.08203125 130.93098958 72.03125 130.703125 69.98046875 C130.56785261 68.12141021 130.56785261 68.12141021 129.38671875 67.1328125 C129.34608043 65.46664135 129.34399775 63.79893155 129.38671875 62.1328125 C128.39671875 61.8028125 127.40671875 61.4728125 126.38671875 61.1328125 C126.05671875 58.8228125 125.72671875 56.5128125 125.38671875 54.1328125 C124.39671875 53.8028125 123.40671875 53.4728125 122.38671875 53.1328125 C122.05338542 51.79947917 121.72005208 50.46614583 121.38671875 49.1328125 C120.39671875 48.8028125 119.40671875 48.4728125 118.38671875 48.1328125 C116.19921875 46.1953125 116.19921875 46.1953125 114.38671875 44.1328125 C114.38671875 43.4728125 114.38671875 42.8128125 114.38671875 42.1328125 C113.58234375 41.8646875 112.77796875 41.5965625 111.94921875 41.3203125 C111.10359375 40.9284375 110.25796875 40.5365625 109.38671875 40.1328125 C109.05671875 39.1428125 108.72671875 38.1528125 108.38671875 37.1328125 C106.40671875 36.8028125 104.42671875 36.4728125 102.38671875 36.1328125 C102.38671875 35.1428125 102.38671875 34.1528125 102.38671875 33.1328125 C101.45859375 32.9884375 100.53046875 32.8440625 99.57421875 32.6953125 C96.38671875 32.1328125 96.38671875 32.1328125 93.38671875 31.1328125 C93.38671875 30.4728125 93.38671875 29.8128125 93.38671875 29.1328125 C89.7321506 28.38040141 86.06937978 27.73231546 82.38671875 27.1328125 C82.38671875 26.4728125 82.38671875 25.8128125 82.38671875 25.1328125 C80.07671875 25.1328125 77.76671875 25.1328125 75.38671875 25.1328125 C75.38671875 24.4728125 75.38671875 23.8128125 75.38671875 23.1328125 C74.76023437 23.15601562 74.13375 23.17921875 73.48828125 23.203125 C72.26238281 23.23019531 72.26238281 23.23019531 71.01171875 23.2578125 C69.79355469 23.29261719 69.79355469 23.29261719 68.55078125 23.328125 C66.38671875 23.1328125 66.38671875 23.1328125 64.38671875 21.1328125 C55.59826294 19.72422775 46.4759889 19.9848843 37.59765625 20 C36.33257233 19.99904327 35.0674884 19.99808655 33.7640686 19.99710083 C31.11025449 19.99642516 28.45653478 19.99772064 25.80273438 20.00244141 C22.43330879 20.00814936 19.06396273 20.00484146 15.69454002 19.99886894 C12.43307607 19.99435043 9.17162124 19.99752976 5.91015625 20 C4.71715912 19.99797577 3.52416199 19.99595154 2.29501343 19.99386597 C-9.99275497 19.11618958 -9.99275497 19.11618958 -20.61328125 23.1328125 C-23.3016751 23.40273156 -25.90470061 23.22018607 -28.61328125 23.1328125 C-28.61328125 23.7928125 -28.61328125 24.4528125 -28.61328125 25.1328125 C-30.92328125 25.1328125 -33.23328125 25.1328125 -35.61328125 25.1328125 C-35.61328125 25.7928125 -35.61328125 26.4528125 -35.61328125 27.1328125 C-39.23301527 28.44907942 -41.70895256 29.1328125 -45.61328125 29.1328125 C-45.61328125 29.7928125 -45.61328125 30.4528125 -45.61328125 31.1328125 C-48.51928386 32.38946228 -50.40932709 33.1328125 -53.61328125 33.1328125 C-53.94328125 34.1228125 -54.27328125 35.1128125 -54.61328125 36.1328125 C-56.27682915 36.80722381 -57.94395067 37.4728446 -59.61328125 38.1328125 C-60.98890979 39.42246426 -62.32094518 40.75970543 -63.61328125 42.1328125 C-68.27994792 46.1328125 -68.27994792 46.1328125 -70.61328125 46.1328125 C-70.94328125 47.4528125 -71.27328125 48.7728125 -71.61328125 50.1328125 C-72.27328125 50.1328125 -72.93328125 50.1328125 -73.61328125 50.1328125 C-73.98453125 50.9371875 -73.98453125 50.9371875 -74.36328125 51.7578125 C-75.61328125 54.1328125 -75.61328125 54.1328125 -77.61328125 57.0703125 C-79.37166193 59.76283291 -80.44314729 62.16847314 -81.61328125 65.1328125 C-82.12890625 65.8134375 -82.64453125 66.4940625 -83.17578125 67.1953125 C-84.67031924 69.20968979 -85.17666337 70.68775239 -85.61328125 73.1328125 C-86.27328125 73.1328125 -86.93328125 73.1328125 -87.61328125 73.1328125 C-87.73703125 74.1640625 -87.86078125 75.1953125 -87.98828125 76.2578125 C-88.61328125 80.1328125 -88.61328125 80.1328125 -89.61328125 83.0078125 C-90.89606742 87.01651928 -91.26035657 90.95344132 -91.61328125 95.1328125 C-92.27328125 95.1328125 -92.93328125 95.1328125 -93.61328125 95.1328125 C-93.60542603 96.03374634 -93.60542603 96.03374634 -93.59741211 96.95288086 C-93.57670111 99.65868088 -93.56364 102.36446427 -93.55078125 105.0703125 C-93.54240234 106.01583984 -93.53402344 106.96136719 -93.52539062 107.93554688 C-93.52055664 109.28422852 -93.52055664 109.28422852 -93.515625 110.66015625 C-93.50776978 111.90913696 -93.50776978 111.90913696 -93.49975586 113.18334961 C-93.61328125 115.1328125 -93.61328125 115.1328125 -94.61328125 116.1328125 C-75.80328125 116.4628125 -56.99328125 116.7928125 -37.61328125 117.1328125 C-37.28328125 118.1228125 -36.95328125 119.1128125 -36.61328125 120.1328125 C-37.60328125 121.4528125 -38.59328125 122.7728125 -39.61328125 124.1328125 C-39.61328125 128.4228125 -39.61328125 132.7128125 -39.61328125 137.1328125 C-58.42328125 137.1328125 -77.23328125 137.1328125 -96.61328125 137.1328125 C-96.28328125 216.0028125 -95.95328125 294.8728125 -95.61328125 376.1328125 C-94.95328125 376.1328125 -94.29328125 376.1328125 -93.61328125 376.1328125 C-93.61328125 383.7228125 -93.61328125 391.3128125 -93.61328125 399.1328125 C-92.95328125 399.1328125 -92.29328125 399.1328125 -91.61328125 399.1328125 C-91.61328125 401.7728125 -91.61328125 404.4128125 -91.61328125 407.1328125 C-90.95328125 407.1328125 -90.29328125 407.1328125 -89.61328125 407.1328125 C-88.62328125 410.4328125 -87.63328125 413.7328125 -86.61328125 417.1328125 C-85.95328125 417.1328125 -85.29328125 417.1328125 -84.61328125 417.1328125 C-84.28328125 418.4528125 -83.95328125 419.7728125 -83.61328125 421.1328125 C-82.29328125 421.4628125 -80.97328125 421.7928125 -79.61328125 422.1328125 C-79.61328125 422.7928125 -79.61328125 423.4528125 -79.61328125 424.1328125 C-78.97390625 424.2771875 -78.33453125 424.4215625 -77.67578125 424.5703125 C-75.61328125 425.1328125 -75.61328125 425.1328125 -74.61328125 426.1328125 C-74.61328125 428.7728125 -74.61328125 431.4128125 -74.61328125 434.1328125 C-110.58328125 434.1328125 -146.55328125 434.1328125 -183.61328125 434.1328125 C-183.61328125 430.8328125 -183.61328125 427.5328125 -183.61328125 424.1328125 C-182.62328125 424.1328125 -181.63328125 424.1328125 -180.61328125 424.1328125 C-180.28328125 423.1428125 -179.95328125 422.1528125 -179.61328125 421.1328125 C-177.94661458 419.46614583 -176.27994792 417.79947917 -174.61328125 416.1328125 C-173.3180813 413.96660706 -173.3180813 413.96660706 -172.61328125 412.1328125 C-171.95328125 412.1328125 -171.29328125 412.1328125 -170.61328125 412.1328125 C-170.46890625 411.0603125 -170.32453125 409.9878125 -170.17578125 408.8828125 C-169.77578683 406.21618301 -169.33736201 403.71881521 -168.61328125 401.1328125 C-167.95328125 401.1328125 -167.29328125 401.1328125 -166.61328125 401.1328125 C-166.63648438 400.46894531 -166.6596875 399.80507813 -166.68359375 399.12109375 C-166.70164062 398.23808594 -166.7196875 397.35507812 -166.73828125 396.4453125 C-166.76148438 395.57519531 -166.7846875 394.70507812 -166.80859375 393.80859375 C-166.61328125 391.1328125 -166.61328125 391.1328125 -165.61847878 389.09396839 C-164.14802922 384.76225224 -164.32559353 380.62362095 -164.33480835 376.07853699 C-164.32611975 374.54692199 -164.32611975 374.54692199 -164.31725562 372.98436528 C-164.30023403 369.55879953 -164.29737722 366.13336832 -164.29443359 362.70776367 C-164.28513692 360.25385202 -164.27496864 357.79994353 -164.26399231 355.34603882 C-164.24231548 350.0608169 -164.2267101 344.77563033 -164.21662521 339.49037743 C-164.20203373 331.8488184 -164.1764956 324.20732674 -164.14829393 316.56580726 C-164.10283447 304.16766864 -164.06621616 291.76952033 -164.03515625 279.37133789 C-164.00496724 267.32835181 -163.97061536 255.28538946 -163.93066406 243.24243164 C-163.92820251 242.49998336 -163.92574097 241.75753508 -163.92320482 240.99258836 C-163.91083015 237.26790756 -163.89837363 233.54322704 -163.88587642 229.81854665 C-163.78232127 198.92333034 -163.69474236 168.02809723 -163.61328125 137.1328125 C-192.32328125 137.1328125 -221.03328125 137.1328125 -250.61328125 137.1328125 C-250.61328125 164.8528125 -250.61328125 192.5728125 -250.61328125 221.1328125 C-251.27328125 221.1328125 -251.93328125 221.1328125 -252.61328125 221.1328125 C-252.61328125 222.1228125 -252.61328125 223.1128125 -252.61328125 224.1328125 C-255.58328125 224.1328125 -258.55328125 224.1328125 -261.61328125 224.1328125 C-261.94328125 223.1428125 -262.27328125 222.1528125 -262.61328125 221.1328125 C-263.81984375 221.16375 -263.81984375 221.16375 -265.05078125 221.1953125 C-267.61328125 221.1328125 -267.61328125 221.1328125 -268.61328125 220.1328125 C-270.29512073 219.89994242 -271.98452285 219.72017084 -273.67578125 219.5703125 C-274.59488281 219.48652344 -275.51398438 219.40273437 -276.4609375 219.31640625 C-277.17121094 219.25582031 -277.88148438 219.19523438 -278.61328125 219.1328125 C-278.61328125 218.4728125 -278.61328125 217.8128125 -278.61328125 217.1328125 C-290.16328125 217.1328125 -301.71328125 217.1328125 -313.61328125 217.1328125 C-313.61328125 217.7928125 -313.61328125 218.4528125 -313.61328125 219.1328125 C-315.6640625 219.36067708 -317.71484375 219.58854167 -319.765625 219.81640625 C-321.62468354 219.95167864 -321.62468354 219.95167864 -322.61328125 221.1328125 C-324.2794524 221.17345082 -325.9471622 221.1755335 -327.61328125 221.1328125 C-327.94328125 222.1228125 -328.27328125 223.1128125 -328.61328125 224.1328125 C-331.25328125 224.4628125 -333.89328125 224.7928125 -336.61328125 225.1328125 C-336.94328125 226.1228125 -337.27328125 227.1128125 -337.61328125 228.1328125 C-338.60328125 228.1328125 -339.59328125 228.1328125 -340.61328125 228.1328125 C-340.61328125 228.7928125 -340.61328125 229.4528125 -340.61328125 230.1328125 C-341.60328125 230.1328125 -342.59328125 230.1328125 -343.61328125 230.1328125 C-343.61328125 230.7928125 -343.61328125 231.4528125 -343.61328125 232.1328125 C-346.61328125 234.1328125 -346.61328125 234.1328125 -349.61328125 234.1328125 C-349.61328125 235.1228125 -349.61328125 236.1128125 -349.61328125 237.1328125 C-351.59588551 238.82013527 -353.59651545 240.48647307 -355.61328125 242.1328125 C-355.94328125 243.1228125 -356.27328125 244.1128125 -356.61328125 245.1328125 C-357.27328125 245.4628125 -357.93328125 245.7928125 -358.61328125 246.1328125 C-359.74678659 248.14951077 -359.74678659 248.14951077 -360.61328125 250.1328125 C-361.27328125 250.1328125 -361.93328125 250.1328125 -362.61328125 250.1328125 C-363.01546875 251.7415625 -363.01546875 251.7415625 -363.42578125 253.3828125 C-364.50169708 256.78044145 -365.46624077 258.4256745 -367.61328125 261.1328125 C-368.31842971 263.28015177 -368.31842971 263.28015177 -368.61328125 265.1328125 C-369.27328125 265.1328125 -369.93328125 265.1328125 -370.61328125 265.1328125 C-370.61328125 267.1128125 -370.61328125 269.0928125 -370.61328125 271.1328125 C-371.27328125 271.1328125 -371.93328125 271.1328125 -372.61328125 271.1328125 C-372.59265625 272.2465625 -372.57203125 273.3603125 -372.55078125 274.5078125 C-372.61328125 278.1328125 -372.61328125 278.1328125 -373.61328125 280.1328125 C-374.27328125 280.1328125 -374.93328125 280.1328125 -375.61328125 280.1328125 C-375.11828125 287.5578125 -375.11828125 287.5578125 -374.61328125 295.1328125 C-374.94328125 295.1328125 -375.27328125 295.1328125 -375.61328125 295.1328125 C-375.64031687 297.71621634 -375.66013736 300.29933558 -375.67578125 302.8828125 C-375.68834961 303.97722656 -375.68834961 303.97722656 -375.70117188 305.09375 C-375.7172586 308.63282877 -375.50231262 311.72471293 -374.61328125 315.1328125 C-374.58540316 317.46660687 -374.67660948 319.77775638 -374.7734375 322.109375 C-374.81529584 324.36353709 -374.81529584 324.36353709 -372.61328125 326.1328125 C-372.34336219 328.82120635 -372.52590768 331.42423186 -372.61328125 334.1328125 C-371.95328125 334.1328125 -371.29328125 334.1328125 -370.61328125 334.1328125 C-369.19069313 337.95601807 -368.37285849 341.04562555 -368.61328125 345.1328125 C-367.95328125 345.1328125 -367.29328125 345.1328125 -366.61328125 345.1328125 C-365.93919817 346.39972757 -365.27427628 347.67151999 -364.61328125 348.9453125 C-364.24203125 349.65300781 -363.87078125 350.36070312 -363.48828125 351.08984375 C-362.61328125 353.1328125 -362.61328125 353.1328125 -362.61328125 356.1328125 C-361.62328125 356.4628125 -360.63328125 356.7928125 -359.61328125 357.1328125 C-359.27994792 358.46614583 -358.94661458 359.79947917 -358.61328125 361.1328125 C-357.62328125 361.4628125 -356.63328125 361.7928125 -355.61328125 362.1328125 C-354.59461896 363.78813873 -353.59517312 365.45541388 -352.61328125 367.1328125 C-351.62328125 367.7928125 -350.63328125 368.4528125 -349.61328125 369.1328125 C-349.61328125 369.7928125 -349.61328125 370.4528125 -349.61328125 371.1328125 C-348.62328125 371.1328125 -347.63328125 371.1328125 -346.61328125 371.1328125 C-346.61328125 371.7928125 -346.61328125 372.4528125 -346.61328125 373.1328125 C-344.63328125 373.7928125 -342.65328125 374.4528125 -340.61328125 375.1328125 C-340.61328125 375.7928125 -340.61328125 376.4528125 -340.61328125 377.1328125 C-340.030625 377.26945312 -339.44796875 377.40609375 -338.84765625 377.546875 C-334.70447848 378.63337267 -330.65704041 380.2301522 -326.73828125 381.9609375 C-313.75581303 387.47848649 -298.32287311 384.86618586 -284.61328125 384.1328125 C-284.61328125 381.8228125 -284.61328125 379.5128125 -284.61328125 377.1328125 C-285.60328125 376.8028125 -286.59328125 376.4728125 -287.61328125 376.1328125 C-287.73445312 375.37355469 -287.855625 374.61429687 -287.98046875 373.83203125 C-288.14804687 372.83816406 -288.315625 371.84429687 -288.48828125 370.8203125 C-288.65070313 369.83417969 -288.813125 368.84804688 -288.98046875 367.83203125 C-289.49413579 364.93221423 -289.49413579 364.93221423 -291.61328125 362.1328125 C-291.61328125 360.1328125 -291.61328125 358.1328125 -291.61328125 356.1328125 C-291.93683594 355.49472656 -292.26039063 354.85664063 -292.59375 354.19921875 C-295.46593142 348.37782423 -293.46107082 341.42671218 -291.546875 335.57421875 C-290.15594144 331.9368402 -288.45535662 328.56288389 -286.61328125 325.1328125 C-285.95328125 325.1328125 -285.29328125 325.1328125 -284.61328125 325.1328125 C-284.57203125 324.5759375 -284.53078125 324.0190625 -284.48828125 323.4453125 C-283.14703447 319.90058886 -280.60403403 318.34596955 -277.61328125 316.1328125 C-276.62328125 315.8028125 -275.63328125 315.4728125 -274.61328125 315.1328125 C-274.28328125 314.4728125 -273.95328125 313.8128125 -273.61328125 313.1328125 C-272.29328125 313.1328125 -270.97328125 313.1328125 -269.61328125 313.1328125 C-269.28328125 312.4728125 -268.95328125 311.8128125 -268.61328125 311.1328125 C-259.02093414 309.61753789 -248.69821137 309.2717172 -239.61328125 313.1328125 C-239.28328125 313.7928125 -238.95328125 314.4528125 -238.61328125 315.1328125 C-236.63439164 315.85975154 -234.63373567 316.53097501 -232.61328125 317.1328125 C-232.61328125 318.1228125 -232.61328125 319.1128125 -232.61328125 320.1328125 C-231.74703125 320.1946875 -231.74703125 320.1946875 -230.86328125 320.2578125 C-227.4444865 321.58734379 -226.3866148 324.02947879 -224.61328125 327.1328125 C-224.61328125 327.7928125 -224.61328125 328.4528125 -224.61328125 329.1328125 C-223.95328125 329.1328125 -223.29328125 329.1328125 -222.61328125 329.1328125 C-217.64013545 339.7895535 -217.93388363 350.91903729 -220.61328125 362.1328125 C-221.24711482 363.81224015 -221.90473753 365.48351325 -222.61328125 367.1328125 C-223.27328125 367.1328125 -223.93328125 367.1328125 -224.61328125 367.1328125 C-224.61328125 368.4528125 -224.61328125 369.7728125 -224.61328125 371.1328125 C-226.48828125 373.1953125 -226.48828125 373.1953125 -228.61328125 375.1328125 C-229.27328125 376.1228125 -229.93328125 377.1128125 -230.61328125 378.1328125 C-232.73828125 379.3203125 -232.73828125 379.3203125 -234.61328125 380.1328125 C-234.61328125 380.7928125 -234.61328125 381.4528125 -234.61328125 382.1328125 C-236.07421875 383.3515625 -236.07421875 383.3515625 -237.98828125 384.6328125 C-240.09595399 386.05527476 -241.80483098 387.32436223 -243.61328125 389.1328125 C-244.93075449 389.83029833 -246.26242318 390.50241207 -247.61328125 391.1328125 C-247.11828125 391.7309375 -246.62328125 392.3290625 -246.11328125 392.9453125 C-244.61328125 395.1328125 -244.61328125 395.1328125 -244.61328125 398.1328125 C-243.62328125 398.4628125 -242.63328125 398.7928125 -241.61328125 399.1328125 C-241.61328125 400.1228125 -241.61328125 401.1128125 -241.61328125 402.1328125 C-240.95328125 402.1328125 -240.29328125 402.1328125 -239.61328125 402.1328125 C-239.40832031 402.69871094 -239.20335937 403.26460938 -238.9921875 403.84765625 C-238.72277344 404.58113281 -238.45335937 405.31460937 -238.17578125 406.0703125 C-237.90894531 406.80121094 -237.64210937 407.53210938 -237.3671875 408.28515625 C-236.75941177 410.11586928 -236.75941177 410.11586928 -235.61328125 411.1328125 C-235.57264293 412.79898365 -235.57056025 414.46669345 -235.61328125 416.1328125 C-234.62328125 416.4628125 -233.63328125 416.7928125 -232.61328125 417.1328125 C-231.67958352 423.4744875 -231.43016591 429.66432376 -231.42578125 436.0703125 C-231.41353516 437.00810547 -231.40128906 437.94589844 -231.38867188 438.91210938 C-231.37606154 444.96086692 -232.09342595 450.27566263 -233.61328125 456.1328125 C-233.94328125 456.1328125 -234.27328125 456.1328125 -234.61328125 456.1328125 C-234.69578125 457.0196875 -234.77828125 457.9065625 -234.86328125 458.8203125 C-235.74714248 462.72403295 -236.97079263 464.14262801 -239.61328125 467.1328125 C-240.80725265 468.66947273 -241.99424342 470.21157166 -243.17578125 471.7578125 C-247.43907939 477.3219388 -247.43907939 477.3219388 -249.61328125 479.1328125 C-250.60328125 479.1328125 -251.59328125 479.1328125 -252.61328125 479.1328125 C-252.61328125 479.7928125 -252.61328125 480.4528125 -252.61328125 481.1328125 C-255.61328125 483.1328125 -255.61328125 483.1328125 -258.61328125 483.1328125 C-258.61328125 483.7928125 -258.61328125 484.4528125 -258.61328125 485.1328125 C-261.98425508 486.63102309 -263.81770244 487.1328125 -267.61328125 487.1328125 C-267.94328125 488.1228125 -268.27328125 489.1128125 -268.61328125 490.1328125 C-286.57572268 493.73172742 -305.60327715 493.13895327 -323.61328125 490.1328125 C-323.94328125 489.1428125 -324.27328125 488.1528125 -324.61328125 487.1328125 C-325.89203125 486.9884375 -327.17078125 486.8440625 -328.48828125 486.6953125 C-330.87021019 486.42638504 -332.45780816 486.21054904 -334.61328125 485.1328125 C-334.61328125 484.4728125 -334.61328125 483.8128125 -334.61328125 483.1328125 C-335.39703125 482.9884375 -336.18078125 482.8440625 -336.98828125 482.6953125 C-339.61328125 482.1328125 -339.61328125 482.1328125 -341.61328125 481.1328125 C-341.61328125 480.4728125 -341.61328125 479.8128125 -341.61328125 479.1328125 C-342.17015625 479.0296875 -342.72703125 478.9265625 -343.30078125 478.8203125 C-349.10577315 477.0945041 -351.95386104 473.68236195 -355.61328125 469.1328125 C-356.27328125 468.8028125 -356.93328125 468.4728125 -357.61328125 468.1328125 C-357.73828125 461.3828125 -357.73828125 461.3828125 -356.61328125 459.1328125 C-355.62328125 459.1328125 -354.63328125 459.1328125 -353.61328125 459.1328125 C-353.61328125 458.4728125 -353.61328125 457.8128125 -353.61328125 457.1328125 C-352.62328125 457.1328125 -351.63328125 457.1328125 -350.61328125 457.1328125 C-350.61328125 457.7928125 -350.61328125 458.4528125 -350.61328125 459.1328125 C-342.03328125 459.1328125 -333.45328125 459.1328125 -324.61328125 459.1328125 C-324.61328125 458.4728125 -324.61328125 457.8128125 -324.61328125 457.1328125 C-324.03320312 457.08382813 -323.453125 457.03484375 -322.85546875 456.984375 C-315.89973886 456.31864508 -309.40020224 455.03611859 -303.73828125 450.6953125 C-301.61328125 449.1328125 -301.61328125 449.1328125 -298.80078125 447.9453125 C-293.74568629 445.07084674 -289.47135673 440.70703893 -287.61328125 435.1328125 C-286.95328125 434.8028125 -286.29328125 434.4728125 -285.61328125 434.1328125 C-284.70047987 431.55843669 -284.70047987 431.55843669 -283.98828125 428.5703125 C-283.72789062 427.55839844 -283.4675 426.54648437 -283.19921875 425.50390625 C-282.90917969 424.33021484 -282.90917969 424.33021484 -282.61328125 423.1328125 C-282.28328125 423.1328125 -281.95328125 423.1328125 -281.61328125 423.1328125 C-280.05334026 416.15094067 -279.12866077 409.26675002 -278.61328125 402.1328125 C-279.27328125 402.4628125 -279.93328125 402.7928125 -280.61328125 403.1328125 C-282.3203086 403.20277264 -284.02996128 403.21721404 -285.73828125 403.1953125 C-286.64835938 403.18628906 -287.5584375 403.17726563 -288.49609375 403.16796875 C-289.19476563 403.15636719 -289.8934375 403.14476562 -290.61328125 403.1328125 C-290.61328125 403.7928125 -290.61328125 404.4528125 -290.61328125 405.1328125 C-295.99285025 406.03335709 -301.16825034 406.27944476 -306.6171875 406.265625 C-307.45869858 406.26658173 -308.30020966 406.26753845 -309.16722107 406.26852417 C-310.93626989 406.26920116 -312.70532126 406.26738061 -314.47436523 406.26318359 C-317.17111823 406.25782177 -319.8677052 406.26314841 -322.56445312 406.26953125 C-324.29036495 406.26887051 -326.01627667 406.26758945 -327.7421875 406.265625 C-328.5423378 406.26764923 -329.3424881 406.26967346 -330.16688538 406.27175903 C-334.42682509 406.25403842 -338.4171255 405.97648403 -342.61328125 405.1328125 C-342.61328125 404.4728125 -342.61328125 403.8128125 -342.61328125 403.1328125 C-343.5053125 403.15601563 -344.39734375 403.17921875 -345.31640625 403.203125 C-346.486875 403.22117187 -347.65734375 403.23921875 -348.86328125 403.2578125 C-350.0234375 403.28101563 -351.18359375 403.30421875 -352.37890625 403.328125 C-355.5254625 403.13811556 -356.93015331 402.61315895 -359.61328125 401.1328125 C-361.94531937 401.0550779 -364.28167184 401.04313522 -366.61328125 401.1328125 C-366.61328125 400.8028125 -366.61328125 400.4728125 -366.61328125 400.1328125 C-368.92328125 399.8028125 -371.23328125 399.4728125 -373.61328125 399.1328125 C-374.10828125 397.6478125 -374.10828125 397.6478125 -374.61328125 396.1328125 C-375.433125 396.08382813 -376.25296875 396.03484375 -377.09765625 395.984375 C-378.1753125 395.90960938 -379.25296875 395.83484375 -380.36328125 395.7578125 C-381.430625 395.68820312 -382.49796875 395.61859375 -383.59765625 395.546875 C-386.44090156 395.15648121 -388.22465222 394.68430519 -390.61328125 393.1328125 C-390.94328125 392.4728125 -391.27328125 391.8128125 -391.61328125 391.1328125 C-393.49592006 390.22937566 -393.49592006 390.22937566 -395.67578125 389.5078125 C-396.77599609 389.11722656 -396.77599609 389.11722656 -397.8984375 388.71875 C-398.46433594 388.52539062 -399.03023438 388.33203125 -399.61328125 388.1328125 C-399.61328125 387.4728125 -399.61328125 386.8128125 -399.61328125 386.1328125 C-400.21140625 385.9884375 -400.80953125 385.8440625 -401.42578125 385.6953125 C-403.17478529 385.2455686 -404.90005148 384.70388909 -406.61328125 384.1328125 C-406.61328125 383.4728125 -406.61328125 382.8128125 -406.61328125 382.1328125 C-408.00546875 381.730625 -408.00546875 381.730625 -409.42578125 381.3203125 C-412.56637568 380.15028712 -413.41794742 379.45895638 -415.61328125 377.1328125 C-416.71071625 376.20809729 -417.81520243 375.2917 -418.92578125 374.3828125 C-422.57749 371.27808966 -425.60375278 367.85097994 -428.61328125 364.1328125 C-429.33515625 363.2665625 -430.05703125 362.4003125 -430.80078125 361.5078125 C-432.61437919 359.13137382 -434.12401644 356.72283825 -435.61328125 354.1328125 C-436.17015625 353.2665625 -436.72703125 352.4003125 -437.30078125 351.5078125 C-438.61328125 349.1328125 -438.61328125 349.1328125 -438.61328125 346.1328125 C-439.27328125 346.1328125 -439.93328125 346.1328125 -440.61328125 346.1328125 C-440.80664062 345.28976562 -441 344.44671875 -441.19921875 343.578125 C-441.45960938 342.48242188 -441.72 341.38671875 -441.98828125 340.2578125 C-442.24351562 339.16726563 -442.49875 338.07671875 -442.76171875 336.953125 C-443.4023434 334.02872795 -443.4023434 334.02872795 -445.61328125 332.1328125 C-446.17848128 329.47743878 -446.35116323 326.84136537 -446.61328125 324.1328125 C-446.94328125 324.1328125 -447.27328125 324.1328125 -447.61328125 324.1328125 C-447.61328125 309.2828125 -447.61328125 294.4328125 -447.61328125 279.1328125 C-447.28328125 279.1328125 -446.95328125 279.1328125 -446.61328125 279.1328125 C-446.28328125 276.1628125 -445.95328125 273.1928125 -445.61328125 270.1328125 C-444.62328125 269.8028125 -443.63328125 269.4728125 -442.61328125 269.1328125 C-442.57203125 267.8953125 -442.53078125 266.6578125 -442.48828125 265.3828125 C-441.57579757 257.01176654 -436.74058209 248.72505643 -431.61328125 242.1328125 C-430.95328125 242.1328125 -430.29328125 242.1328125 -429.61328125 242.1328125 C-429.94328125 241.1428125 -430.27328125 240.1528125 -430.61328125 239.1328125 C-429.95328125 239.1328125 -429.29328125 239.1328125 -428.61328125 239.1328125 C-428.61328125 238.4728125 -428.61328125 237.8128125 -428.61328125 237.1328125 C-427.95328125 236.8028125 -427.29328125 236.4728125 -426.61328125 236.1328125 C-426.28328125 235.1428125 -425.95328125 234.1528125 -425.61328125 233.1328125 C-423.67578125 230.9453125 -423.67578125 230.9453125 -421.61328125 229.1328125 C-420.95328125 229.1328125 -420.29328125 229.1328125 -419.61328125 229.1328125 C-419.28328125 228.1428125 -418.95328125 227.1528125 -418.61328125 226.1328125 C-417.23828125 224.4453125 -417.23828125 224.4453125 -415.61328125 223.1328125 C-414.62328125 223.1328125 -413.63328125 223.1328125 -412.61328125 223.1328125 C-412.28328125 222.1428125 -411.95328125 221.1528125 -411.61328125 220.1328125 C-409.55078125 219.4453125 -409.55078125 219.4453125 -407.61328125 219.1328125 C-407.61328125 218.1428125 -407.61328125 217.1528125 -407.61328125 216.1328125 C-406.71609375 215.6996875 -406.71609375 215.6996875 -405.80078125 215.2578125 C-403.42000333 214.08539224 -403.42000333 214.08539224 -400.61328125 212.1328125 C-399.62328125 212.1328125 -398.63328125 212.1328125 -397.61328125 212.1328125 C-397.61328125 211.4728125 -397.61328125 210.8128125 -397.61328125 210.1328125 C-396.62328125 210.1328125 -395.63328125 210.1328125 -394.61328125 210.1328125 C-394.61328125 209.4728125 -394.61328125 208.8128125 -394.61328125 208.1328125 C-393.29328125 208.1328125 -391.97328125 208.1328125 -390.61328125 208.1328125 C-390.61328125 207.4728125 -390.61328125 206.8128125 -390.61328125 206.1328125 C-389.29328125 206.1328125 -387.97328125 206.1328125 -386.61328125 206.1328125 C-386.28328125 205.1428125 -385.95328125 204.1528125 -385.61328125 203.1328125 C-382.64328125 202.8028125 -379.67328125 202.4728125 -376.61328125 202.1328125 C-376.28328125 201.1428125 -375.95328125 200.1528125 -375.61328125 199.1328125 C-369.17828125 198.1428125 -369.17828125 198.1428125 -362.61328125 197.1328125 C-362.61328125 196.4728125 -362.61328125 195.8128125 -362.61328125 195.1328125 C-360.5625 194.90494792 -358.51171875 194.67708333 -356.4609375 194.44921875 C-354.60187896 194.31394636 -354.60187896 194.31394636 -353.61328125 193.1328125 C-351.93144177 192.89994242 -350.24203965 192.72017084 -348.55078125 192.5703125 C-347.63167969 192.48652344 -346.71257812 192.40273437 -345.765625 192.31640625 C-345.05535156 192.25582031 -344.34507812 192.19523438 -343.61328125 192.1328125 C-343.61328125 191.8028125 -343.61328125 191.4728125 -343.61328125 191.1328125 C-335.69328125 191.1328125 -327.77328125 191.1328125 -319.61328125 191.1328125 C-319.94328125 190.4728125 -320.27328125 189.8128125 -320.61328125 189.1328125 C-320.70845095 187.54001804 -320.74122953 185.94329073 -320.74267578 184.34765625 C-320.74582794 183.3532251 -320.7489801 182.35879395 -320.75222778 181.33422852 C-320.74919144 179.71859009 -320.74919144 179.71859009 -320.74609375 178.0703125 C-320.74705048 176.9680835 -320.7480072 175.86585449 -320.74899292 174.73022461 C-320.74967431 172.39664656 -320.74782288 170.06306661 -320.74365234 167.72949219 C-320.73830355 164.14774335 -320.74359875 160.56611992 -320.75 156.984375 C-320.74933921 154.72135389 -320.74805803 152.45833286 -320.74609375 150.1953125 C-320.74811798 149.11822021 -320.75014221 148.04112793 -320.75222778 146.93139648 C-320.74749954 145.43974976 -320.74749954 145.43974976 -320.74267578 143.91796875 C-320.74188019 143.04019775 -320.74108459 142.16242676 -320.74026489 141.25805664 C-320.61328125 139.1328125 -320.61328125 139.1328125 -319.61328125 137.1328125 C-373.40328125 137.1328125 -427.19328125 137.1328125 -482.61328125 137.1328125 C-482.61328125 130.5328125 -482.61328125 123.9328125 -482.61328125 117.1328125 C-377.34328125 117.1328125 -272.07328125 117.1328125 -163.61328125 117.1328125 C-163.61328125 112.5128125 -163.61328125 107.8928125 -163.61328125 103.1328125 C-162.91328125 94.7328125 -162.91328125 94.7328125 -161.61328125 92.1328125 C-160.95328125 92.1328125 -160.29328125 92.1328125 -159.61328125 92.1328125 C-159.67515625 90.5859375 -159.67515625 90.5859375 -159.73828125 89.0078125 C-159.61521016 85.19260864 -158.96668358 82.66669636 -157.61328125 79.1328125 C-157.24203125 78.0190625 -156.87078125 76.9053125 -156.48828125 75.7578125 C-156.05515625 74.4584375 -156.05515625 74.4584375 -155.61328125 73.1328125 C-154.95328125 73.1328125 -154.29328125 73.1328125 -153.61328125 73.1328125 C-153.48953125 71.9984375 -153.36578125 70.8640625 -153.23828125 69.6953125 C-152.92890625 67.931875 -152.92890625 67.931875 -152.61328125 66.1328125 C-151.95328125 65.8028125 -151.29328125 65.4728125 -150.61328125 65.1328125 C-149.89168701 63.48918116 -149.21976704 61.82230864 -148.61328125 60.1328125 C-147.95328125 60.1328125 -147.29328125 60.1328125 -146.61328125 60.1328125 C-146.48953125 59.3490625 -146.36578125 58.5653125 -146.23828125 57.7578125 C-145.61328125 55.1328125 -145.61328125 55.1328125 -143.61328125 53.1328125 C-142.77471416 52.09535449 -141.94167726 51.05340991 -141.11328125 50.0078125 C-139.87578125 48.5846875 -139.87578125 48.5846875 -138.61328125 47.1328125 C-137.95328125 47.1328125 -137.29328125 47.1328125 -136.61328125 47.1328125 C-136.52046875 46.2975 -136.52046875 46.2975 -136.42578125 45.4453125 C-135.04800657 41.5239538 -132.12175458 38.93141603 -128.48828125 37.0078125 C-127.86953125 36.7190625 -127.25078125 36.4303125 -126.61328125 36.1328125 C-125.95199219 35.46185547 -125.95199219 35.46185547 -125.27734375 34.77734375 C-123.36387972 32.88633822 -121.34231959 31.44991338 -119.11328125 29.9453125 C-118.33984375 29.41550781 -117.56640625 28.88570312 -116.76953125 28.33984375 C-114.61328125 27.1328125 -114.61328125 27.1328125 -111.61328125 27.1328125 C-111.28328125 26.1428125 -110.95328125 25.1528125 -110.61328125 24.1328125 C-108.90625 22.96484375 -108.90625 22.96484375 -106.80078125 21.9453125 C-105.77017578 21.42904297 -105.77017578 21.42904297 -104.71875 20.90234375 C-102.61328125 20.1328125 -102.61328125 20.1328125 -98.61328125 20.1328125 C-98.61328125 19.4728125 -98.61328125 18.8128125 -98.61328125 18.1328125 C-97.29328125 18.1328125 -95.97328125 18.1328125 -94.61328125 18.1328125 C-94.61328125 17.4728125 -94.61328125 16.8128125 -94.61328125 16.1328125 C-90.79007568 14.71022438 -87.7004682 13.89238974 -83.61328125 14.1328125 C-83.28328125 13.1428125 -82.95328125 12.1528125 -82.61328125 11.1328125 C-81.77023437 11.01164063 -80.9271875 10.89046875 -80.05859375 10.765625 C-78.96289062 10.59804687 -77.8671875 10.43046875 -76.73828125 10.2578125 C-75.64773438 10.09539063 -74.5571875 9.93296875 -73.43359375 9.765625 C-70.49395411 9.37024737 -70.49395411 9.37024737 -68.61328125 7.1328125 C-66.44921875 6.9375 -66.44921875 6.9375 -63.98828125 7.0078125 C-62.76238281 7.03488281 -62.76238281 7.03488281 -61.51171875 7.0625 C-60.88523437 7.08570313 -60.25875 7.10890625 -59.61328125 7.1328125 C-59.61328125 6.4728125 -59.61328125 5.8128125 -59.61328125 5.1328125 C-58.90300781 5.07222656 -58.19273437 5.01164063 -57.4609375 4.94921875 C-56.54183594 4.86542969 -55.62273437 4.78164062 -54.67578125 4.6953125 C-53.75925781 4.61410156 -52.84273438 4.53289063 -51.8984375 4.44921875 C-49.65168393 4.37236274 -49.65168393 4.37236274 -48.61328125 3.1328125 C-46.63818252 2.9233764 -44.65756443 2.76477428 -42.67578125 2.6328125 C-38.4916071 2.45546166 -38.4916071 2.45546166 -34.61328125 1.1328125 C-23.11336978 -0.04608264 -11.54637305 -0.01607611 0 0 Z " fill="#FFFFFF" transform="translate(482.61328125,-0.1328125)"/>
<path d="M0 0 C16 0 16 0 18 1 C19.04272497 2.6402751 20.03344425 4.31371777 21 6 C21.67417969 7.07636719 22.34835937 8.15273438 23.04296875 9.26171875 C23.56987305 10.10379883 23.56987305 10.10379883 24.10742188 10.96289062 C24.8360496 12.12632333 25.56789875 13.28774391 26.30273438 14.44726562 C29 18.77590155 29 18.77590155 29 21 C29.66 21 30.32 21 31 21 C31.680625 22.4540625 31.680625 22.4540625 32.375 23.9375 C33.65786221 27.07079582 33.65786221 27.07079582 36 28 C37.36037315 30.31767278 38.6858365 32.65581645 40 35 C42.31 38.63 44.62 42.26 47 46 C47.33 30.82 47.66 15.64 48 0 C53.94 0 59.88 0 66 0 C66 25.41 66 50.82 66 77 C60.06 77 54.12 77 48 77 C48 76.34 48 75.68 48 75 C47.34 75 46.68 75 46 75 C45.71125 74.030625 45.4225 73.06125 45.125 72.0625 C44.35785318 68.89335797 44.35785318 68.89335797 42 68 C40.65909846 66.15988836 39.37595861 64.2774012 38.125 62.375 C37.4134375 61.29347656 36.701875 60.21195313 35.96875 59.09765625 C34.44342905 56.6976969 32.99656851 54.3010656 31.625 51.8125 C30.29777011 48.91941742 30.29777011 48.91941742 28 48 C26.63962685 45.68232722 25.3141635 43.34418355 24 41 C21.69 37.37 19.38 33.74 17 30 C16.67 45.51 16.34 61.02 16 77 C10.72 77 5.44 77 0 77 C0 51.59 0 26.18 0 0 Z " fill="#FFFFFF" transform="translate(768,507)"/>
<path d="M0 0 C34 0 34 0 45 2 C45 2.66 45 3.32 45 4 C45.72574219 4.10570312 46.45148437 4.21140625 47.19921875 4.3203125 C50.24109068 5.05850736 52.21691529 6.14461019 54.8125 7.875 C55.60269531 8.38804687 56.39289062 8.90109375 57.20703125 9.4296875 C57.79871094 9.94789063 58.39039063 10.46609375 59 11 C59 11.99 59 12.98 59 14 C59.99 14.33 60.98 14.66 62 15 C68.87899734 25.00581431 69.30672483 37.06053668 67.58203125 48.859375 C66.9053406 51.97316958 66.00727446 54.97817662 65 58 C64.34 58 63.68 58 63 58 C62.938125 58.556875 62.87625 59.11375 62.8125 59.6875 C61.08659391 64.59969425 56.12817975 68.03617864 52 71 C49.6875 71.75 49.6875 71.75 48 72 C48 72.66 48 73.32 48 74 C35 77 35 77 0 77 C0 51.59 0 26.18 0 0 Z M18 15 C18 30.51 18 46.02 18 62 C28.09964933 62.30946202 28.09964933 62.30946202 38 61 C38 60.34 38 59.68 38 59 C38.721875 58.95875 39.44375 58.9175 40.1875 58.875 C44.06545756 57.66852432 45.91765327 55.33631466 48 52 C50.84391112 45.36420738 51.18623622 36.84019011 49.46484375 29.81640625 C48.68473383 27.79218034 48.68473383 27.79218034 47 25 C46.38125 23.906875 45.7625 22.81375 45.125 21.6875 C42.82082066 18.77339084 41.56063167 17.89015792 38 17 C36.68 17 35.36 17 34 17 C34 16.34 34 15.68 34 15 C28.72 15 23.44 15 18 15 Z " fill="#FFFFFF" transform="translate(899,507)"/>
<path d="M0 0 C3.12498063 -0.02895976 6.2499269 -0.04678483 9.375 -0.0625 C10.26445313 -0.07087891 11.15390625 -0.07925781 12.0703125 -0.08789062 C12.92109375 -0.09111328 13.771875 -0.09433594 14.6484375 -0.09765625 C15.43395996 -0.10289307 16.21948242 -0.10812988 17.02880859 -0.11352539 C19 0 19 0 21 1 C21.8515625 3.14453125 21.8515625 3.14453125 22.625 5.8125 C23.01558594 7.12154297 23.01558594 7.12154297 23.4140625 8.45703125 C24 11 24 11 24 15 C24.66 15 25.32 15 26 15 C27.13764351 19.26616316 28 22.56486311 28 27 C28.66 27 29.32 27 30 27 C30.18175781 27.6290625 30.36351562 28.258125 30.55078125 28.90625 C31.7722165 33.0653936 33.01850798 37.15939933 34.625 41.1875 C36.02692005 44.79138872 36.59991803 48.15921309 37 52 C37.66 52 38.32 52 39 52 C39.99 56.95 39.99 56.95 41 62 C41.66 62 42.32 62 43 62 C44.13764351 66.26616316 45 69.56486311 45 74 C45.66 74 46.32 74 47 74 C47 74.99 47 75.98 47 77 C40.73 77 34.46 77 28 77 C27.01 74.03 26.02 71.06 25 68 C24.67 68 24.34 68 24 68 C24 66.35 24 64.7 24 63 C14.76 63 5.52 63 -4 63 C-4.99 65.97 -5.98 68.94 -7 72 C-7.66 73.65 -8.32 75.3 -9 77 C-14.94 77 -20.88 77 -27 77 C-25.47789668 69.96933227 -24.0448175 63.50483739 -21 57 C-20.62691369 55.67723944 -20.26953585 54.34767923 -20 53 C-19.34 53 -18.68 53 -18 53 C-17.9175 51.88625 -17.835 50.7725 -17.75 49.625 C-17.21974654 45.44108228 -15.89920049 42.00190594 -14.25390625 38.140625 C-12.57730413 33.94128511 -11.16581914 29.668129 -9.75 25.375 C-9.47969971 24.55596191 -9.20939941 23.73692383 -8.9309082 22.89306641 C-8.2849017 20.92948921 -7.64210948 18.96485501 -7 17 C-6.34 17 -5.68 17 -5 17 C-4.9175 16.05125 -4.835 15.1025 -4.75 14.125 C-4.06008234 9.11022533 -1.99662356 4.61545074 0 0 Z M9 23 C8.67 25.64 8.34 28.28 8 31 C7.34 31 6.68 31 6 31 C5.72736328 32.06927734 5.72736328 32.06927734 5.44921875 33.16015625 C5.19785156 34.11792969 4.94648437 35.07570313 4.6875 36.0625 C4.44386719 37.00222656 4.20023438 37.94195313 3.94921875 38.91015625 C2.88859402 42.36264251 1.42272974 45.68029726 0 49 C6.27 49 12.54 49 19 49 C18.34 46.36 17.68 43.72 17 41 C16.34 41 15.68 41 15 41 C14.9175 39.88625 14.835 38.7725 14.75 37.625 C14.12080974 32.3848781 12.11369129 27.79758766 10 23 C9.67 23 9.34 23 9 23 Z " fill="#FFFFFF" transform="translate(1135,507)"/>
<path d="M0 0 C5.61 0 11.22 0 17 0 C17 25.41 17 50.82 17 77 C11.39 77 5.78 77 0 77 C0 51.59 0 26.18 0 0 Z " fill="#FFFFFF" transform="translate(1030,507)"/>
<path d="M0 0 C5.28 0 10.56 0 16 0 C16 25.41 16 50.82 16 77 C10.72 77 5.44 77 0 77 C0 51.59 0 26.18 0 0 Z " fill="#FFFFFF" transform="translate(685,507)"/>
<path d="" fill="#FFFFFF" transform="translate(0,0)"/>
<path d="M0 0 C2 1 2 1 2 1 Z " fill="#FFFFFF" transform="translate(405,9)"/>
<path d="" fill="#FFFFFF" transform="translate(0,0)"/>
<path d="" fill="#FFFFFF" transform="translate(0,0)"/>
<path d="" fill="#FFFFFF" transform="translate(0,0)"/>
<path d="" fill="#FFFFFF" transform="translate(0,0)"/>
<path d="" fill="#FFFFFF" transform="translate(0,0)"/>
<path d="" fill="#FFFFFF" transform="translate(0,0)"/>
<path d="" fill="#FFFFFF" transform="translate(0,0)"/>
</svg>
