<?xml version="1.0" encoding="UTF-8"?>
<svg version="1.1" xmlns="http://www.w3.org/2000/svg" width="1870" height="490">
<path d="M0 0 C-1.26061879 8.67620371 -3.16155867 17.12442362 -5.34115601 25.60925293 C-6.25130346 29.152444 -7.14583994 32.69958866 -8.04296875 36.24609375 C-8.21723892 36.93305328 -8.39150909 37.62001282 -8.57106018 38.32778931 C-9.82807928 43.29046314 -11.03637945 48.26181096 -12.1875 53.25 C-14.15306261 61.72702991 -16.2713268 70.16357164 -18.39746094 78.6015625 C-18.9696521 80.87919863 -19.53681433 83.15800829 -20.1015625 85.4375 C-21.73610524 92.03097503 -23.39928997 98.61184346 -25.22265625 105.15625 C-25.81341848 107.31743041 -26.37929296 109.48543185 -26.93359375 111.65625 C-28.57342507 118.06943573 -30.35037 124.26593833 -32.9453125 130.37109375 C-34.22379627 133.55783293 -35.26079881 136.79397768 -36.3125 140.0625 C-38.19301516 145.84629435 -40.31776521 151.49788027 -42.625 157.125 C-43.05872925 158.19053101 -43.05872925 158.19053101 -43.5012207 159.27758789 C-45.07746746 163.06411003 -46.87457758 166.48339199 -49 170 C-49 170.66 -49 171.32 -49 172 C-46.85548495 172.48503256 -44.70930465 172.96270405 -42.5625 173.4375 C-41.36753906 173.70433594 -40.17257813 173.97117187 -38.94140625 174.24609375 C-19.93730668 178.07174938 2.21887566 177.79189181 21 173 C22.03157227 172.75056641 22.03157227 172.75056641 23.08398438 172.49609375 C42.46155803 167.74410021 62.74660687 157.83138337 76.65625 143.265625 C78 142 78 142 80 142 C80 141.34 80 140.68 80 140 C80.66 140 81.32 140 82 140 C82.25652344 139.41992188 82.51304687 138.83984375 82.77734375 138.2421875 C84.11299643 135.79277972 85.62924308 134.13246274 87.5625 132.125 C91.62221237 127.69622287 94.73854982 122.94929038 97.76586914 117.78564453 C101.10571935 112.27392864 105.16295222 110.24389258 110.95703125 107.80078125 C111.89716064 107.40020508 112.83729004 106.99962891 113.8059082 106.58691406 C114.7980835 106.16635742 115.79025879 105.74580078 116.8125 105.3125 C129.31049438 99.94230646 141.70956471 94.46956555 153.08203125 86.93359375 C155 86 155 86 158 87 C157.60007632 91.8990651 156.67617293 94.94094584 154.03100586 99.19824219 C152.98463179 101.02685706 152.30624726 102.77377251 151.62890625 104.765625 C150.11184637 108.91368651 148.12491255 112.56014191 145.8125 116.3125 C145.42247803 116.9526001 145.03245605 117.5927002 144.63061523 118.25219727 C141.07706429 124.01065803 137.43782485 129.88107014 133 135 C132.34 135 131.68 135 131 135 C130.73574219 135.5887793 130.47148437 136.17755859 130.19921875 136.78417969 C128.95631056 139.08072584 127.64993519 140.60833166 125.8125 142.453125 C125.19632812 143.071875 124.58015625 143.690625 123.9453125 144.328125 C123.30335938 144.96234375 122.66140625 145.5965625 122 146.25 C121.35804688 146.8996875 120.71609375 147.549375 120.0546875 148.21875 C119.43851562 148.83234375 118.82234375 149.4459375 118.1875 150.078125 C117.62417969 150.63918945 117.06085938 151.20025391 116.48046875 151.77832031 C115 153 115 153 113 153 C113 153.66 113 154.32 113 155 C110.70027708 157.24858932 108.06024883 159.12047977 105.5 161.0625 C104.73260498 161.64523682 103.96520996 162.22797363 103.17456055 162.82836914 C91.69326125 171.37667019 79.35692508 177.85343339 66 183 C64.89011719 183.42925781 63.78023437 183.85851562 62.63671875 184.30078125 C44.85332158 190.69014419 25.86569635 194.16786747 6.99609375 194.1328125 C5.84117935 194.13376923 4.68626495 194.13472595 3.49635315 194.13571167 C1.05136053 194.13639051 -1.39363392 194.13455689 -3.83862305 194.13037109 C-7.49857885 194.1250922 -11.15840774 194.1302878 -14.81835938 194.13671875 C-26.67297948 194.1401881 -38.48679776 193.97345981 -50.3273468 193.3901825 C-61.27643965 192.86012635 -72.23040414 192.68070294 -83.18994141 192.49731445 C-86.76081442 192.4373183 -90.33157108 192.37231394 -93.90234375 192.30664062 C-106.9362829 192.07415683 -119.96403041 191.93730793 -133 192 C-116.79462194 216.3074696 -116.79462194 216.3074696 -95 235 C-95 235.66 -95 236.32 -95 237 C-94.34 237 -93.68 237 -93 237 C-93 237.66 -93 238.32 -93 239 C-91.35 239.66 -89.7 240.32 -88 241 C-88 241.66 -88 242.32 -88 243 C-87.20142578 243.35578125 -87.20142578 243.35578125 -86.38671875 243.71875 C-83.31626417 245.36704641 -80.60508984 247.43068223 -77.8125 249.5 C-69.87554576 255.25950381 -61.57630071 260.25507057 -53 265 C-52.35337402 265.35835938 -51.70674805 265.71671875 -51.04052734 266.0859375 C-33.18694428 275.83008337 -13.90382938 282.06272725 6 286 C7.18553467 286.24556641 7.18553467 286.24556641 8.39501953 286.49609375 C33.41186561 291.50878408 60.98258362 290.44243444 86 286 C87.19351074 285.79117188 87.19351074 285.79117188 88.41113281 285.578125 C106.09782066 282.35558213 125.91993523 277.05337652 141 267 C140.13375 266.37351562 139.2675 265.74703125 138.375 265.1015625 C137.24975157 264.27638032 136.12476501 263.45084098 135 262.625 C134.42765625 262.2125 133.8553125 261.8 133.265625 261.375 C131.80684688 260.29828281 130.39899024 259.15333422 129 258 C129 257.34 129 256.68 129 256 C128.16275391 255.65195312 128.16275391 255.65195312 127.30859375 255.296875 C120.5287981 251.48825883 114.65169536 244.20226047 110 238 C110 237.34 110 236.68 110 236 C109.34 236 108.68 236 108 236 C105.88332088 233.69840173 104.16668867 231.05884743 102.375 228.5 C101.83447998 227.73042969 101.29395996 226.96085938 100.73706055 226.16796875 C96.11147751 219.43383625 92.49138985 212.46568364 89.01806641 205.09277344 C86.76128227 200.45364788 84.25832661 195.93663781 81.79223633 191.40625 C79 186.21299896 79 186.21299896 79 184 C79.96679688 183.49210938 80.93359375 182.98421875 81.9296875 182.4609375 C94.46770089 176.08779693 94.46770089 176.08779693 106.14453125 168.33203125 C108 167 108 167 110 167 C110 166.34 110 165.68 110 165 C110.66 165 111.32 165 112 165 C112.23074219 165.55236328 112.46148437 166.10472656 112.69921875 166.67382812 C117.47663464 178.06975891 122.4451159 189.27893905 128.11083984 200.26123047 C129.44243629 202.86519255 130.71566437 205.49747777 132 208.125 C144.16059085 233.20125465 144.16059085 233.20125465 163 253 C167.0616997 253 169.69266258 249.96278789 172.625 247.4375 C177.78939158 243 177.78939158 243 180 243 C180 242.34 180 241.68 180 241 C181.328125 239.6953125 181.328125 239.6953125 183.25 238.125 C193.25204394 229.56945977 201.75613597 220.22622546 209.67089844 209.74365234 C210.98039601 208.02571853 212.31649427 206.33270999 213.6640625 204.64453125 C219.1229107 197.77193943 223.74757994 190.68706704 228 183 C228.69809612 181.78116011 229.39872259 180.56376683 230.1015625 179.34765625 C233.96119297 172.69781262 233.96119297 172.69781262 237.546875 165.8984375 C239 163 239 163 240.51171875 160.60546875 C242.39058946 157.31621214 243.59913927 153.88430494 244.8125 150.3125 C245.06821777 149.56774414 245.32393555 148.82298828 245.58740234 148.05566406 C246.12476183 146.48724401 246.65988266 144.91805536 247.19287109 143.34814453 C247.96666662 141.09697533 248.76996209 138.85869461 249.58203125 136.62109375 C254.97967613 121.49480021 257.68828064 105.94211954 259.60546875 90.03125 C260 87 260 87 260.51416016 84.86547852 C261.1796191 80.94060834 261.16254041 77.09529875 261.16796875 73.12109375 C261.17129715 72.27200943 261.17462555 71.42292511 261.17805481 70.54811096 C261.18310322 68.75872335 261.18546378 66.96932637 261.18530273 65.17993164 C261.1874953 62.44336535 261.20568955 59.70719851 261.22460938 56.97070312 C261.22754252 55.22916804 261.22952784 53.48763105 261.23046875 51.74609375 C261.24124702 50.52097328 261.24124702 50.52097328 261.25224304 49.27110291 C261.23625426 45.29879335 261.05711697 42.42479147 259 39 C259 38.01 259 37.02 259 36 C258.2575 35.731875 257.515 35.46375 256.75 35.1875 C254.13363446 34.05770579 252.19812889 32.79106798 250 31 C251.06153846 23.39230769 251.06153846 23.39230769 253 20 C256.09075211 18.89118598 257.50537066 18.784217 260.54296875 20.109375 C261.85201172 20.92148438 261.85201172 20.92148438 263.1875 21.75 C279.37154249 30.97962635 295.66640048 28.95416605 313.10742188 24.45751953 C315.71660589 23.82676478 318.34635122 23.39637836 321 23 C320.67948539 30.21157864 319.25844714 34.74155286 314 40 C313.6710002 42.87310043 313.45983593 45.67092039 313.32421875 48.5546875 C313.22078501 50.36762702 313.11675492 52.18053259 313.01220703 53.9934082 C312.95985901 54.95219879 312.90751099 55.91098938 312.85357666 56.89883423 C310.81505637 93.43000187 308.27798015 134.04894093 292.171875 167.50390625 C291.04312516 169.9081434 290.10769583 172.32232094 289.1875 174.8125 C286.99391878 180.412374 283.97819862 185.51322031 280.94140625 190.68359375 C279.40516628 193.3078749 277.93476625 195.94514846 276.5 198.625 C273.35215193 204.31211218 269.65966144 209.63423305 266 215 C265.18441698 216.2184296 264.36932457 217.43718774 263.5546875 218.65625 C262.74532106 219.85452441 261.93543696 221.05244936 261.125 222.25 C260.55313965 223.10996582 260.55313965 223.10996582 259.96972656 223.98730469 C259.03098219 225.36126209 258.02132294 226.6862651 257 228 C256.34 228 255.68 228 255 228 C254.85304688 229.55847656 254.85304688 229.55847656 254.703125 231.1484375 C253.19918946 245.7425719 249.64492845 256.88630421 237.9296875 266.640625 C226.67613119 275.44974788 213.12254498 280.93164622 198.828125 282.19140625 C194.61819775 282.56333591 192.26759704 283.44958222 188.84814453 285.83203125 C174.62603567 294.81995315 157.10502376 299.65636864 141 304 C140.13729492 304.23557617 139.27458984 304.47115234 138.38574219 304.71386719 C132.29597177 306.34884576 126.17264459 307.71803163 120 309 C119.11779785 309.19754883 118.2355957 309.39509766 117.32666016 309.59863281 C83.01864049 317.05716333 43.04646606 316.20038094 9 308 C7.97616211 307.77006348 6.95232422 307.54012695 5.89746094 307.30322266 C-13.29141793 302.97883895 -31.65071665 296.35680489 -48.99902344 287.06835938 C-51.09660224 285.94842223 -53.20820011 284.85787004 -55.3203125 283.765625 C-66.37700078 277.9377987 -76.30480603 270.97052325 -86.20092773 263.35351562 C-87.76041905 262.18024654 -89.37620668 261.08252888 -91 260 C-91 259.34 -91 258.68 -91 258 C-91.598125 257.71125 -92.19625 257.4225 -92.8125 257.125 C-95 256 -95 256 -98 254 C-98 253.34 -98 252.68 -98 252 C-98.54269531 251.78214844 -99.08539063 251.56429687 -99.64453125 251.33984375 C-102.79715471 249.54656042 -105.16694761 247.12900521 -107.6875 244.5625 C-108.21641846 244.02826416 -108.74533691 243.49402832 -109.2902832 242.94360352 C-114.21253505 237.90385419 -118.6326696 232.52408278 -123 227 C-124.62202151 225.01839158 -126.24698537 223.03918765 -127.875 221.0625 C-129.25704466 219.38076465 -130.63283652 217.69385515 -132 216 C-132.58007812 215.29746094 -133.16015625 214.59492188 -133.7578125 213.87109375 C-135 212 -135 212 -135 209 C-135.66 209 -136.32 209 -137 209 C-138.56379519 206.58754176 -140.01883195 204.18334735 -141.4375 201.6875 C-142.22364846 200.3139845 -143.01388988 198.94280196 -143.80859375 197.57421875 C-144.33151001 196.65515747 -144.33151001 196.65515747 -144.86499023 195.7175293 C-145.95383976 193.92146001 -145.95383976 193.92146001 -147.64477539 192.47973633 C-149 191 -149 191 -148.875 187.75 C-147.92689146 183.6866777 -147.03901393 180.6410963 -145 177 C-141.78916127 176.06606105 -138.58994947 175.83658214 -135.26171875 175.640625 C-119.17166576 174.54545258 -99.68378137 172.53163335 -88.00390625 159.96875 C-84.37227323 155.55080358 -82.25032718 150.62057717 -80.0625 145.375 C-79.41800903 143.85265747 -79.41800903 143.85265747 -78.76049805 142.29956055 C-69.69095389 120.52079895 -64.03439356 97.92283449 -58.98925781 74.91748047 C-55.81098929 60.46873828 -51.28931261 47.88941423 -44 35 C-43.32283501 33.6719677 -42.65122381 32.34094361 -42 31 C-41.34 31 -40.68 31 -40 31 C-39.62875 29.9171875 -39.62875 29.9171875 -39.25 28.8125 C-37.16267556 24.11602001 -33.80252508 20.42227257 -30 17 C-29.34 17 -28.68 17 -28 17 C-28 16.34 -28 15.68 -28 15 C-22.76578352 10.72416119 -16.91739874 7.23782195 -11 4 C-10.3915625 3.62746094 -9.783125 3.25492188 -9.15625 2.87109375 C-5.72843995 0.78681095 -4.11792065 0 0 0 Z M-144 191 C-140 192 -140 192 -140 192 Z " fill="#FFFFFF" transform="translate(173,177)"/>
<path d="M0 0 C9.90733536 6.23560724 18.84683752 14.41427047 26.1875 23.5 C27.38963191 24.90117772 28.59805868 26.29697764 29.8125 27.6875 C30.34101562 28.29980469 30.86953125 28.91210938 31.4140625 29.54296875 C34.06464221 32.46794768 36.88582022 35.21373096 39.69287109 37.98754883 C46.08651353 44.31107254 52.38862224 50.61749356 58.1875 57.5 C62.05444101 61.98901413 65.94493275 66.35844626 70.1875 70.5 C75.76979938 75.97657402 81.09838065 81.56269409 86.1875 87.5 C86.5175 87.83 86.8475 88.16 87.1875 88.5 C87.23385203 80.22453358 87.26938373 71.94912145 87.29112434 63.67355728 C87.30155904 59.83082746 87.31571245 55.9881865 87.33837891 52.14550781 C87.36011857 48.43671547 87.37207099 44.72800856 87.37725449 41.01915741 C87.38094823 39.60457769 87.3881612 38.19000261 87.39896011 36.77545929 C87.4134891 34.79338648 87.41431704 32.8112276 87.41455078 30.82910156 C87.418992 29.70103088 87.42343323 28.57296021 87.42800903 27.41070557 C87.18995386 24.5296973 86.81256689 22.87184681 85.1875 20.5 C82.78345262 19.58400573 82.78345262 19.58400573 80.0625 19.25 C79.15242188 19.10046875 78.24234375 18.9509375 77.3046875 18.796875 C76.60601563 18.69890625 75.90734375 18.6009375 75.1875 18.5 C75.1875 17.18 75.1875 15.86 75.1875 14.5 C91.3575 14.5 107.5275 14.5 124.1875 14.5 C124.1875 15.82 124.1875 17.14 124.1875 18.5 C123.56101562 18.60957031 122.93453125 18.71914062 122.2890625 18.83203125 C121.47179688 18.99058594 120.65453125 19.14914063 119.8125 19.3125 C119.00039062 19.46332031 118.18828125 19.61414063 117.3515625 19.76953125 C114.82929359 20.37544942 114.82929359 20.37544942 113.1875 23.5 C112.97700422 26.4276686 112.88342113 29.26152342 112.88110352 32.19067383 C112.86861824 33.52286705 112.86861824 33.52286705 112.85588074 34.88197327 C112.8317474 37.82370362 112.82300413 40.76521234 112.81640625 43.70703125 C112.80744177 45.7510332 112.79831996 47.79503446 112.78904724 49.83903503 C112.77254515 54.12716263 112.76485502 58.41521205 112.76196289 62.70336914 C112.75658083 68.19479971 112.718913 73.68549406 112.67321873 79.1767168 C112.6434555 83.40010755 112.63623947 87.62332097 112.63523674 91.84680748 C112.63103224 93.87100277 112.61858878 95.89519848 112.59771919 97.91929054 C112.57082311 100.75378915 112.57562519 103.58658095 112.58813477 106.42114258 C112.57330048 107.25512573 112.55846619 108.08910889 112.54318237 108.94836426 C112.59475062 113.05757444 112.95185116 115.74807234 115.50621033 119.05570984 C118.01537404 121.86120185 118.01537404 121.86120185 121.6875 121.6875 C126.57051942 120.03076127 129.00952401 117.67531657 131.42138672 113.22143555 C132.80367109 110.25572359 134.09815377 107.26264278 135.375 104.25 C136.15230614 102.45950865 136.92964406 100.66903096 137.70779419 98.87890625 C138.57248147 96.88507331 139.43179835 94.88898386 140.29052734 92.89257812 C143.49151203 85.46394556 146.76183035 78.06548283 150.01818848 70.66101074 C151.186764 68.00167493 152.35303363 65.34133985 153.51855469 62.68066406 C156.95484211 54.8383093 160.39870407 47.00003711 163.90234375 39.1875 C164.18268463 38.56145874 164.46302551 37.93541748 164.75186157 37.29040527 C166.01979825 34.45993934 167.29198616 31.63154876 168.57226562 28.80664062 C171.12795757 23.11356474 173.32289516 17.45688938 175.1875 11.5 C178.3283423 12.53125748 179.16479618 13.46097573 180.85644531 16.36865234 C181.4227316 17.60175884 181.97482263 18.84144379 182.515625 20.0859375 C182.82139969 20.76167313 183.12717438 21.43740875 183.44221497 22.13362122 C184.45292593 24.37545546 185.44507972 26.62501619 186.4375 28.875 C187.14658537 30.45663853 187.85680953 32.03776697 188.56811523 33.6184082 C190.79187887 38.57131508 192.99102701 43.53494427 195.1875 48.5 C195.87695652 50.05557194 196.56656874 51.61107489 197.25634766 53.16650391 C198.59374026 56.18275749 199.93090581 59.19911151 201.26782227 62.21557617 C201.75909103 63.32381241 201.75909103 63.32381241 202.26028442 64.45443726 C202.91993757 65.94279098 203.57934119 67.43125533 204.23849487 68.91983032 C208.90919012 79.46305655 213.64423022 89.97433367 218.5085144 100.42984009 C219.16347162 101.83863615 219.81628488 103.24843116 220.46682739 104.65927124 C221.36304295 106.60030841 222.2679582 108.53702605 223.17578125 110.47265625 C223.94208862 112.11633179 223.94208862 112.11633179 224.72387695 113.79321289 C226.03381994 116.21578801 226.9947097 117.85710337 229.1875 119.5 C230.1775 119.5 231.1675 119.5 232.1875 119.5 C233.7099463 116.73002694 234.51240525 114.4172501 234.91481018 111.28747559 C235.02549835 110.45475632 235.13618652 109.62203705 235.25022888 108.76408386 C235.36302689 107.85902603 235.47582489 106.9539682 235.59204102 106.02148438 C235.71752319 105.06172195 235.84300537 104.10195953 235.97229004 103.1131134 C236.38540596 99.94082574 236.78833972 96.76732879 237.19140625 93.59375 C237.47691545 91.38935422 237.76313428 89.18505025 238.05003357 86.98083496 C238.80387832 81.17663477 239.54942297 75.37139998 240.29284668 69.56585693 C241.48425015 60.27275081 242.6880527 50.98124399 243.89213371 41.68977356 C244.31182017 38.44174256 244.72790749 35.19326588 245.14344788 31.94470215 C245.39967545 29.95596373 245.65597351 27.9672344 245.91235352 25.97851562 C246.02717575 25.07345779 246.14199799 24.16839996 246.26029968 23.23591614 C246.36816803 22.40319687 246.47603638 21.5704776 246.58717346 20.71252441 C246.6795205 19.99134682 246.77186754 19.27016922 246.86701298 18.52713776 C247.19108086 16.47735044 247.65371696 14.50447806 248.1875 12.5 C251.80818311 13.94408467 253.18352366 15.59117093 255.1484375 18.91796875 C255.9679187 20.28634888 255.9679187 20.28634888 256.80395508 21.68237305 C257.67443481 23.16991089 257.67443481 23.16991089 258.5625 24.6875 C259.82395155 26.80224274 261.08567762 28.91682175 262.34765625 31.03125 C262.98848145 32.11277344 263.62930664 33.19429687 264.28955078 34.30859375 C267.15412756 39.1253866 270.07754589 43.90568618 273 48.6875 C276.54295423 54.4986786 280.07810339 60.31443898 283.5945282 66.14170837 C285.15737932 68.73125855 286.72227081 71.31957327 288.28720093 73.90786743 C289.04999597 75.17088183 289.81174694 76.43452742 290.57241821 77.69882202 C291.63424907 79.4635422 292.69957282 81.22610892 293.765625 82.98828125 C294.37825195 84.00446533 294.99087891 85.02064941 295.62207031 86.06762695 C297.10172503 88.55551111 297.10172503 88.55551111 299.1875 90.5 C299.49751953 89.94465576 299.80753906 89.38931152 300.12695312 88.81713867 C307.26970149 76.04570704 314.56893315 63.38076155 322.07519531 50.81933594 C325.58185162 44.93998303 329.03548126 39.04049492 332.3984375 33.078125 C333.08345651 31.86887406 333.76851452 30.65964521 334.45361328 29.45043945 C335.75300298 27.15565225 337.03765721 24.8544245 338.31591797 22.54760742 C339.18821045 21.00617065 339.18821045 21.00617065 340.078125 19.43359375 C340.58375977 18.52665771 341.08939453 17.61972168 341.61035156 16.68530273 C343.32681692 14.30696195 344.5720686 13.68763992 347.1875 12.5 C348.53869579 18.90728667 349.64853989 25.29012817 350.46850586 31.78588867 C350.58102188 32.65392624 350.6935379 33.52196381 350.8094635 34.41630554 C351.05092596 36.28101368 351.29093885 38.14591002 351.5296154 40.01097679 C351.90866808 42.96729362 352.29319096 45.92285183 352.67933655 48.87825012 C353.77590099 57.27413053 354.86709162 65.67067755 355.9440918 74.0690918 C356.60548329 79.22351677 357.27684077 84.37656165 357.95456123 89.52886391 C358.20986554 91.4847207 358.46142222 93.44107061 358.70908928 95.39790916 C359.05570485 98.1340203 359.41499041 100.86819731 359.77709961 103.60229492 C359.87538055 104.40298401 359.9736615 105.2036731 360.07492065 106.02862549 C360.74816372 110.98518975 361.86652786 115.04643057 364.1875 119.5 C367.63200737 121.79633824 370.12562283 122.04016485 374.1875 122.5 C374.1875 123.49 374.1875 124.48 374.1875 125.5 C358.3475 125.5 342.5075 125.5 326.1875 125.5 C326.1875 124.51 326.1875 123.52 326.1875 122.5 C327.321875 122.231875 328.45625 121.96375 329.625 121.6875 C330.800625 121.295625 331.97625 120.90375 333.1875 120.5 C334.26710181 117.26119456 334.14005599 115.64338922 333.75024414 112.29418945 C333.56994408 110.70287956 333.56994408 110.70287956 333.38600159 109.079422 C333.24959763 107.93559555 333.11319366 106.7917691 332.97265625 105.61328125 C332.77076942 103.85506294 332.77076942 103.85506294 332.56480408 102.06132507 C332.13272606 98.31097032 331.69147022 94.56175962 331.25 90.8125 C330.95577596 88.27285639 330.66214855 85.73314358 330.36914062 83.19335938 C329.64885312 76.96141955 328.92102387 70.73039494 328.1875 64.5 C327.91926422 64.98668655 327.65102844 65.47337311 327.37466431 65.97480774 C322.23340398 75.29312736 317.04483448 84.56428598 311.5625 93.6875 C301.02954776 110.15532661 301.02954776 110.15532661 295.1875 128.5 C293.8675 128.5 292.5475 128.5 291.1875 128.5 C289.84155273 126.98828125 289.84155273 126.98828125 288.62109375 124.8125 C288.14486572 123.98387451 287.6686377 123.15524902 287.17797852 122.30151367 C286.66549561 121.37701416 286.1530127 120.45251465 285.625 119.5 C284.47772338 117.4954289 283.32920666 115.49156721 282.1796875 113.48828125 C281.23561035 111.82853271 281.23561035 111.82853271 280.27246094 110.13525391 C276.75828072 103.98300547 273.12745541 97.89872862 269.5083313 91.80786133 C268.27291193 89.72610794 267.04218027 87.64164409 265.81225586 85.55664062 C265.0325319 84.23949892 264.25267119 82.92243816 263.47265625 81.60546875 C263.12925201 81.02169968 262.78584778 80.4379306 262.43203735 79.83647156 C259.52381085 74.94086319 256.37573543 70.21697052 253.1875 65.5 C252.46848342 71.88554927 251.75725453 78.27193248 251.05126953 84.65893555 C250.81052252 86.82872857 250.56803543 88.9983293 250.32373047 91.16772461 C249.97158396 94.29751652 249.62583392 97.42796127 249.28125 100.55859375 C249.1718811 101.51833603 249.06251221 102.47807831 248.9498291 103.46690369 C248.32798657 109.18363217 248.08448754 114.74932949 248.1875 120.5 C250.4975 121.16 252.8075 121.82 255.1875 122.5 C255.1875 123.49 255.1875 124.48 255.1875 125.5 C232.7475 125.5 210.3075 125.5 187.1875 125.5 C187.1875 124.51 187.1875 123.52 187.1875 122.5 C190.6525 121.51 190.6525 121.51 194.1875 120.5 C195.31119938 117.19125204 195.09181781 115.4778593 193.75390625 112.27734375 C193.43486328 111.49166016 193.11582031 110.70597656 192.78710938 109.89648438 C192.44486328 109.08501953 192.10261719 108.27355469 191.75 107.4375 C191.08014587 105.82347052 190.41458782 104.20764954 189.75390625 102.58984375 C189.45427979 101.87691162 189.15465332 101.16397949 188.84594727 100.42944336 C188.1875 98.5 188.1875 98.5 188.1875 95.5 C176.3075 95.83 164.4275 96.16 152.1875 96.5 C150.846875 99.531875 149.50625 102.56375 148.125 105.6875 C147.48485962 107.10712036 147.48485962 107.10712036 146.83178711 108.55541992 C146.34077515 109.69394409 146.34077515 109.69394409 145.83984375 110.85546875 C145.49945068 111.62528076 145.15905762 112.39509277 144.80834961 113.18823242 C144.06472194 115.95717085 144.440137 117.76249189 145.1875 120.5 C147.1675 121.16 149.1475 121.82 151.1875 122.5 C151.1875 123.49 151.1875 124.48 151.1875 125.5 C141.9475 125.83 132.7075 126.16 123.1875 126.5 C129.57250083 132.88500083 134.38699076 137.56396323 142.1875 141.5 C143.79431641 142.31791016 143.79431641 142.31791016 145.43359375 143.15234375 C149.88358365 144.74989476 153.45621364 144.84352628 158.125 144.6875 C158.90423828 144.67396484 159.68347656 144.66042969 160.48632812 144.64648438 C162.38702404 144.61150224 164.28735834 144.55770959 166.1875 144.5 C166.5175 145.82 166.8475 147.14 167.1875 148.5 C153.49402379 152.8632129 142.61352039 154.37604756 129.10546875 148.05859375 C121.91973764 144.08291967 116.00847218 139.24152306 110.1875 133.5 C109.50284668 132.82904297 108.81819336 132.15808594 108.11279297 131.46679688 C93.43095323 117.04318826 93.43095323 117.04318826 86.7175293 109.24829102 C84.80364795 107.06139069 82.7728316 105.02308289 80.6875 103 C77.92189592 100.27170593 75.27462969 97.51483166 72.75 94.5625 C70.03130752 91.3896408 67.15998325 88.43661618 64.1875 85.5 C60.60191301 81.95767801 57.23858338 78.32444339 53.96484375 74.49609375 C51.24627248 71.4429291 48.31188476 68.61584617 45.40234375 65.74609375 C42.67247137 62.97770465 40.12266797 60.0837072 37.59765625 57.12890625 C36.51120902 55.87392427 35.36124345 54.67374345 34.1875 53.5 C34.1643229 61.64509342 34.14655752 69.79017304 34.13568783 77.93529129 C34.13047076 81.71745214 34.12339443 85.49959042 34.11206055 89.28173828 C34.10118992 92.93216931 34.0952143 96.58257863 34.09262276 100.2330246 C34.09077605 101.62526542 34.0871699 103.01750506 34.08176994 104.40973663 C34.07450424 106.36071106 34.07409147 108.31170736 34.07397461 110.26269531 C34.071754 111.3730011 34.06953339 112.48330688 34.06724548 113.6272583 C34.10001534 116.72168139 34.10001534 116.72168139 35.1875 120.5 C38.8175 121.16 42.4475 121.82 46.1875 122.5 C46.1875 123.49 46.1875 124.48 46.1875 125.5 C30.0175 125.5 13.8475 125.5 -2.8125 125.5 C-2.8125 124.51 -2.8125 123.52 -2.8125 122.5 C-2.18601562 122.39042969 -1.55953125 122.28085937 -0.9140625 122.16796875 C-0.09679688 122.00941406 0.72046875 121.85085938 1.5625 121.6875 C2.78066406 121.46126953 2.78066406 121.46126953 4.0234375 121.23046875 C6.54570641 120.62455058 6.54570641 120.62455058 8.1875 117.5 C8.41340944 114.58894202 8.52274599 111.77062807 8.54150391 108.85693359 C8.5546463 107.97362366 8.5677887 107.09031372 8.58132935 106.18023682 C8.62079145 103.2529669 8.64412228 100.32590244 8.6640625 97.3984375 C8.67221355 96.39742634 8.68036461 95.39641518 8.68876266 94.36507034 C8.7304882 89.06386389 8.75908632 83.76276094 8.77783203 78.46142578 C8.79992905 72.99677183 8.86868542 67.53375404 8.94817543 62.06967735 C9.00058709 57.85902984 9.01722261 53.64876923 9.02439499 49.43782425 C9.03411138 47.42440399 9.0572967 45.41100013 9.09447098 43.39789963 C9.7327671 30.74523891 9.7327671 30.74523891 4.32177734 19.81884766 C2.04231773 17.78842365 -0.2673679 16.19675474 -2.8125 14.5 C-3.1425 23.08 -3.4725 31.66 -3.8125 40.5 C-4.8025 40.5 -5.7925 40.5 -6.8125 40.5 C-6.94205078 39.50419922 -6.94205078 39.50419922 -7.07421875 38.48828125 C-7.9977828 32.68423194 -8.83429638 29.12051172 -13.8125 25.5 C-19.44218872 23.01578815 -25.13689215 23.06237366 -31.1875 22.875 C-32.20972656 22.83632812 -33.23195313 22.79765625 -34.28515625 22.7578125 C-36.79409597 22.66402036 -39.30303764 22.57832121 -41.8125 22.5 C-41.70502032 34.68705136 -41.59239122 46.87404316 -41.47316074 59.06098557 C-41.41796159 64.71967371 -41.36454631 70.37836705 -41.31518555 76.03710938 C-41.26749776 81.49657964 -41.2151532 86.9559871 -41.15955925 92.41538239 C-41.13915574 94.49979339 -41.12043935 96.5842216 -41.10342598 98.66866302 C-41.07933773 101.5848361 -41.04928903 104.50089071 -41.01782227 107.41699219 C-41.0120668 108.28158051 -41.00631134 109.14616882 -41.00038147 110.03695679 C-40.99059265 110.83338593 -40.98080383 111.62981506 -40.97071838 112.45037842 C-40.96426583 113.13987957 -40.95781328 113.82938072 -40.9511652 114.53977585 C-40.8434455 116.86772985 -40.8434455 116.86772985 -39.8125 120.5 C-36.5125 121.16 -33.2125 121.82 -29.8125 122.5 C-29.8125 123.49 -29.8125 124.48 -29.8125 125.5 C-45.9825 125.5 -62.1525 125.5 -78.8125 125.5 C-78.8125 124.51 -78.8125 123.52 -78.8125 122.5 C-75.83398438 121.9140625 -75.83398438 121.9140625 -72.85546875 121.328125 C-70.01578409 120.17704823 -69.31532917 119.20200187 -67.8125 116.5 C-67.35141468 113.47574979 -67.37505666 110.47165585 -67.38012695 107.41699219 C-67.3699353 106.49957245 -67.35974365 105.58215271 -67.34924316 104.63693237 C-67.31906736 101.60685149 -67.30984014 98.57708652 -67.30078125 95.546875 C-67.28393798 93.44507798 -67.26578822 91.34329105 -67.24638367 89.24151611 C-67.19883942 83.71121373 -67.16905858 78.18095227 -67.14294434 72.6505127 C-67.11316121 67.00650957 -67.06662315 61.36264751 -67.02148438 55.71875 C-66.93540086 44.64590706 -66.86807795 33.57303513 -66.8125 22.5 C-71.22365618 22.59426202 -75.63432045 22.70050762 -80.04492188 22.81738281 C-81.54223948 22.85542835 -83.03964089 22.89032167 -84.53710938 22.921875 C-86.70212567 22.96806201 -88.86657686 23.02596017 -91.03125 23.0859375 C-92.9793457 23.13306885 -92.9793457 23.13306885 -94.96679688 23.18115234 C-101.71145685 23.74035282 -107.50174836 25.05378932 -112.8125 29.5 C-115.86978214 33.9840138 -116.5596349 38.18384784 -115.8125 43.5 C-114.98140464 46.57123169 -113.96532305 49.53559786 -112.8125 52.5 C-115 52.4375 -115 52.4375 -117.8125 51.5 C-122.78082245 46.1463229 -124.12139187 41.18945628 -124.02734375 34 C-123.5134464 28.02010351 -120.20732196 24.29552806 -115.8125 20.5 C-108.22615092 15.49014684 -100.88140476 14.20167593 -91.93725586 14.21289062 C-91.08901749 14.20605759 -90.24077911 14.19922455 -89.36683655 14.19218445 C-87.53904268 14.17867441 -85.71121186 14.16957133 -83.88337517 14.16447449 C-80.98645487 14.15613225 -78.08984183 14.13557989 -75.19300842 14.11193848 C-68.00217198 14.05574314 -60.8112608 14.02035501 -53.62030029 13.98431396 C-47.53249254 13.95300776 -41.44483522 13.91377384 -35.35714912 13.86405945 C-32.51053429 13.84407083 -29.66403773 13.83568906 -26.81736755 13.82775879 C-25.06435724 13.8147811 -23.31135084 13.80126002 -21.55834961 13.78710938 C-20.77321991 13.78809128 -19.98809021 13.78907318 -19.1791687 13.79008484 C-14.36721444 13.73617867 -10.38396245 13.02009694 -5.8125 11.5 C-18.0384008 2.35562747 -25.84373517 1.04073108 -40.8125 1.5 C-40.57421875 -0.359375 -40.57421875 -0.359375 -39.8125 -2.5 C-27.65138051 -11.08431964 -11.8266351 -6.49984173 0 0 Z M170.1875 52.5 C166.23563394 60.02077874 162.97724612 67.72122164 159.875 75.625 C158.328125 79.54375 156.78125 83.4625 155.1875 87.5 C164.7575 87.5 174.3275 87.5 184.1875 87.5 C182.432889 82.236167 180.70237236 77.09038441 178.70703125 71.93359375 C178.26552734 70.78955078 177.82402344 69.64550781 177.36914062 68.46679688 C176.91732422 67.30212891 176.46550781 66.13746094 176 64.9375 C175.53658203 63.73802734 175.07316406 62.53855469 174.59570312 61.30273438 C173.46147475 58.3677723 172.32536515 55.4335536 171.1875 52.5 C170.8575 52.5 170.5275 52.5 170.1875 52.5 Z " fill="#FFFFFF" transform="translate(1495.8125,168.5)"/>
<path d="M0 0 C30.78372849 -0.85845383 59.30685611 5.66142761 86.06787109 21.06201172 C86.06787109 21.72201172 86.06787109 22.38201172 86.06787109 23.06201172 C86.81037109 23.30951172 87.55287109 23.55701172 88.31787109 23.81201172 C91.29810196 25.16666211 92.96706361 26.57216581 95.06787109 29.06201172 C95.06787109 29.72201172 95.06787109 30.38201172 95.06787109 31.06201172 C96.05787109 31.39201172 97.04787109 31.72201172 98.06787109 32.06201172 C108.30972552 43.3969643 109.92959637 55.98564325 109.43505859 70.66357422 C108.51189736 87.13712833 100.84356723 102.89431758 91.06787109 116.06201172 C90.40787109 116.06201172 89.74787109 116.06201172 89.06787109 116.06201172 C88.75849609 116.68076172 88.44912109 117.29951172 88.13037109 117.93701172 C87.44287109 119.31201172 86.75537109 120.68701172 86.06787109 122.06201172 C85.40787109 122.06201172 84.74787109 122.06201172 84.06787109 122.06201172 C83.79974609 122.70138672 83.53162109 123.34076172 83.25537109 123.99951172 C82.06787109 126.06201172 82.06787109 126.06201172 79.06787109 127.06201172 C79.06787109 127.72201172 79.06787109 128.38201172 79.06787109 129.06201172 C78.40787109 129.06201172 77.74787109 129.06201172 77.06787109 129.06201172 C77.06787109 129.72201172 77.06787109 130.38201172 77.06787109 131.06201172 C58.70615322 145.58121763 36.71052109 153.26301098 14.06787109 158.06201172 C14.39787109 158.94888672 14.72787109 159.83576172 15.06787109 160.74951172 C16.0294365 163.93469714 16.45373203 165.79440457 16.06787109 169.06201172 C14.35302734 171.63232422 14.35302734 171.63232422 12.13037109 174.18701172 C8.9953605 177.77374274 8.9953605 177.77374274 7.06787109 182.06201172 C3.66076681 185.8699518 -0.30969492 189.76058802 -4.93212891 192.06201172 C-6.59839465 192.09856628 -8.26594436 192.10209703 -9.93212891 192.06201172 C-10.59321196 189.75864569 -11.25355341 187.4550735 -11.91259766 185.15112305 C-12.46810015 183.21387329 -13.02670438 181.27751031 -13.58837891 179.34204102 C-15.02281604 174.3741239 -16.31509003 169.42488141 -17.43212891 164.37451172 C-18.42504566 160.58538625 -18.42504566 160.58538625 -21.74462891 158.37451172 C-24.83288341 158.07174167 -27.83181394 158.04039167 -30.93212891 158.06201172 C-31.29564453 159.893125 -31.29564453 159.893125 -31.66650391 161.76123047 C-33.38077962 170.23756349 -35.24354118 178.50158484 -37.92431641 186.73388672 C-39.35540334 191.4598017 -40.4501805 196.24953792 -41.53759766 201.06445312 C-41.99106257 203.06646259 -42.46129527 205.06402858 -42.93212891 207.06201172 C-43.21958984 208.33689453 -43.50705078 209.61177734 -43.80322266 210.92529297 C-44.93212891 214.06201172 -44.93212891 214.06201172 -46.64697266 215.55029297 C-58.91617669 220.10003295 -72.97081503 220.52768767 -85.93212891 220.06201172 C-85.66819867 218.45669486 -85.39544438 216.85282928 -85.11962891 215.24951172 C-84.89339844 213.90953125 -84.89339844 213.90953125 -84.66259766 212.54248047 C-84.05307865 209.63830165 -83.33659618 206.8322485 -82.54150391 203.97607422 C-80.821364 197.77737657 -79.40332787 191.52504584 -77.99462891 185.24951172 C-76.15584505 177.14667634 -74.18008015 169.1652564 -71.79541016 161.20654297 C-70.4871661 156.44121959 -69.63018307 151.6012637 -68.70556641 146.74951172 C-67.97852283 143.28320297 -67.07588963 139.9524474 -66.05712891 136.56201172 C-64.1891387 130.28784614 -62.78350041 123.96606842 -61.43212891 117.56201172 C-59.84657348 110.0481735 -58.05785518 102.72093081 -55.84619141 95.36669922 C-54.17994543 89.34257916 -53.06789916 83.20549629 -51.93212891 77.06201172 C-50.94212891 76.73201172 -49.95212891 76.40201172 -48.93212891 76.06201172 C-48.93212891 76.72201172 -48.93212891 77.38201172 -48.93212891 78.06201172 C-48.27212891 78.06201172 -47.61212891 78.06201172 -46.93212891 78.06201172 C-45.38134766 79.67138672 -45.38134766 79.67138672 -43.61962891 81.81201172 C-40.93269563 84.97736376 -38.24066034 87.53707984 -34.93212891 90.06201172 C-33.25436383 91.71750558 -31.586384 93.38302523 -29.93212891 95.06201172 C-29.02849609 94.35173828 -28.12486328 93.64146484 -27.19384766 92.90966797 C-26.00261041 91.98106571 -24.81119483 91.05269219 -23.61962891 90.12451172 C-23.02472656 89.6559375 -22.42982422 89.18736328 -21.81689453 88.70458984 C-19.20512006 86.67645213 -17.09320487 85.11570371 -13.93212891 84.06201172 C-13.93212891 83.40201172 -13.93212891 82.74201172 -13.93212891 82.06201172 C-13.27212891 82.06201172 -12.61212891 82.06201172 -11.93212891 82.06201172 C-12.55144244 86.89885042 -13.4681907 91.52808813 -14.68212891 96.24951172 C-15.04042447 97.65310074 -15.39848589 99.05674954 -15.75634766 100.46044922 C-16.04131104 101.57178223 -16.04131104 101.57178223 -16.33203125 102.70556641 C-16.96455036 105.18932332 -17.58467197 107.6759154 -18.20166016 110.16357422 C-22.24138615 126.44600321 -22.24138615 126.44600321 -24.45166016 133.96826172 C-25.0812383 136.35376072 -25.0812383 136.35376072 -24.93212891 140.06201172 C-10.06030543 145.80482356 9.33267276 141.08139554 23.67333984 135.64013672 C31.71887318 131.89975068 39.43415279 126.82153931 44.82177734 119.66748047 C46.06787109 118.06201172 46.06787109 118.06201172 47.97021484 116.32373047 C50.66021741 113.42333664 52.33737451 110.20553413 54.06787109 106.68701172 C54.41599854 105.98165283 54.76412598 105.27629395 55.12280273 104.54956055 C59.93380103 94.49613986 62.67844543 84.23683501 63.06787109 73.06201172 C63.10783203 72.23185547 63.14779297 71.40169922 63.18896484 70.54638672 C63.43298281 61.41724393 62.52003396 53.16747513 57.09130859 45.62060547 C56.06787109 44.06201172 56.06787109 44.06201172 56.06787109 42.06201172 C55.07787109 41.73201172 54.08787109 41.40201172 53.06787109 41.06201172 C52.38724609 40.36076172 51.70662109 39.65951172 51.00537109 38.93701172 C37.83039564 25.49078677 19.56122431 21.19665273 1.31787109 20.74951172 C-32.94313051 21.09090248 -79.38341856 38.96376762 -104.99462891 61.49951172 C-107.93212891 64.06201172 -107.93212891 64.06201172 -109.93212891 64.06201172 C-109.93212891 64.72201172 -109.93212891 65.38201172 -109.93212891 66.06201172 C-110.59212891 66.06201172 -111.25212891 66.06201172 -111.93212891 66.06201172 C-111.93212891 66.72201172 -111.93212891 67.38201172 -111.93212891 68.06201172 C-112.71587891 68.30951172 -113.49962891 68.55701172 -114.30712891 68.81201172 C-117.44578977 70.30661213 -117.50450998 71.01642467 -118.93212891 74.06201172 C-120.06892887 75.83155883 -121.23757816 77.58092546 -122.43212891 79.31201172 C-123.04056641 80.20404297 -123.64900391 81.09607422 -124.27587891 82.01513672 C-124.82244141 82.69060547 -125.36900391 83.36607422 -125.93212891 84.06201172 C-126.59212891 84.06201172 -127.25212891 84.06201172 -127.93212891 84.06201172 C-128.19380859 84.92052734 -128.45548828 85.77904297 -128.72509766 86.66357422 C-129.95916379 90.13812936 -131.50482443 93.18886234 -133.24462891 96.43701172 C-140.27906583 110.02981575 -143.52932672 124.76591322 -145.24462891 139.87451172 C-146.20133596 147.68119068 -147.46987427 155.30236821 -149.36962891 162.93701172 C-149.56274658 163.72567627 -149.75586426 164.51434082 -149.95483398 165.3269043 C-151.39729576 170.84663054 -153.48101057 175.91580682 -155.93212891 181.06201172 C-157.25212891 181.06201172 -158.57212891 181.06201172 -159.93212891 181.06201172 C-162.71153618 174.49250362 -163.93232242 168.10610287 -164.93212891 161.06201172 C-165.11130859 159.96888672 -165.29048828 158.87576172 -165.47509766 157.74951172 C-167.67218934 140.02254978 -165.47541386 121.95680298 -159.93212891 105.06201172 C-159.62275391 104.10681641 -159.31337891 103.15162109 -158.99462891 102.16748047 C-153.31533176 85.62652753 -143.7063884 69.1457707 -130.93212891 57.06201172 C-130.37525391 56.46388672 -129.81837891 55.86576172 -129.24462891 55.24951172 C-127.93212891 54.06201172 -127.93212891 54.06201172 -125.93212891 54.06201172 C-125.93212891 53.40201172 -125.93212891 52.74201172 -125.93212891 52.06201172 C-125.27212891 52.06201172 -124.61212891 52.06201172 -123.93212891 52.06201172 C-123.93212891 51.40201172 -123.93212891 50.74201172 -123.93212891 50.06201172 C-119.46154067 46.06201172 -119.46154067 46.06201172 -116.93212891 46.06201172 C-116.93212891 45.40201172 -116.93212891 44.74201172 -116.93212891 44.06201172 C-112.54751352 41.06201172 -112.54751352 41.06201172 -109.93212891 41.06201172 C-109.93212891 40.40201172 -109.93212891 39.74201172 -109.93212891 39.06201172 C-107.44504783 37.32943839 -104.96601785 35.74256231 -102.36962891 34.18701172 C-101.56895996 33.70522461 -100.76829102 33.2234375 -99.94335938 32.72705078 C-84.24396866 23.40525618 -68.50899432 15.17906032 -51.04345703 9.72753906 C-49.20917022 9.14933996 -47.38935063 8.52562718 -45.57275391 7.89404297 C-31.11285922 3.00539982 -15.23123936 0.48884695 0 0 Z " fill="#FFFFFF" transform="translate(245.93212890625,124.93798828125)"/>
<path d="M0 0 C1.25544617 -0.01455482 1.25544617 -0.01455482 2.53625488 -0.02940369 C5.23125042 -0.05423783 7.92599535 -0.06691845 10.62109375 -0.07421875 C11.99961014 -0.07814636 11.99961014 -0.07814636 13.40597534 -0.08215332 C27.67692111 -0.08651329 41.1499319 0.84892679 55.05859375 4.23828125 C56.45514507 4.54434415 57.85225958 4.84785174 59.25 5.1484375 C63.22685444 6.03689928 67.14826317 7.09388343 71.05859375 8.23828125 C71.8278418 8.46322266 72.59708984 8.68816406 73.38964844 8.91992188 C91.69886673 14.39895364 109.74305009 21.84830031 125.984375 31.99609375 C128.12848094 33.38164305 128.12848094 33.38164305 131.05859375 34.23828125 C131.05859375 34.89828125 131.05859375 35.55828125 131.05859375 36.23828125 C131.61417969 36.34011719 132.16976563 36.44195312 132.7421875 36.546875 C144.18653862 39.96281117 154.95290597 50.54722952 164.30859375 57.80078125 C164.87489502 58.23551758 165.44119629 58.67025391 166.0246582 59.11816406 C168.43937985 61.00938504 170.67640039 62.79389173 172.68334961 65.12744141 C175.90479422 68.9140529 175.90479422 68.9140529 180.38818359 70.74633789 C182.99909083 70.81898966 185.51845106 70.7046851 188.12109375 70.48828125 C199.54775029 69.74508408 199.54775029 69.74508408 204.05859375 73.23828125 C204.93359375 76.42578125 204.93359375 76.42578125 205.05859375 79.23828125 C204.1871875 79.68816406 203.31578125 80.13804688 202.41796875 80.6015625 C186.13740022 89.28897686 172.86888589 101.52113973 167.33984375 119.625 C165.83118383 124.80756679 164.41608539 130.01419366 163.05859375 135.23828125 C158.66948234 134.72791946 155.59599699 133.93323696 152.05859375 131.23828125 C151.21899414 128.71386719 151.21899414 128.71386719 150.90625 125.72265625 C150.76896484 124.63597656 150.63167969 123.54929687 150.49023438 122.4296875 C150.24584189 120.1512771 150.00362324 117.87263239 149.76367188 115.59375 C148.94783676 109.16572822 148.08347767 105.06300257 143.29858398 100.51660156 C142.05859375 99.23828125 142.05859375 99.23828125 142.05859375 97.23828125 C141.39859375 97.23828125 140.73859375 97.23828125 140.05859375 97.23828125 C138.68359375 95.8046875 138.68359375 95.8046875 137.05859375 93.80078125 C128.00625942 83.17086168 116.76870341 74.97389856 105.24609375 67.23828125 C104.52357422 66.75190186 103.80105469 66.26552246 103.05664062 65.7644043 C92.72222176 58.90492234 82.15578501 53.05544307 70.74609375 48.17578125 C70.14420227 47.91781769 69.54231079 47.65985413 68.92218018 47.39407349 C22.09483064 27.46755814 -36.34575462 25.5327868 -83.94140625 44.23828125 C-90.00941842 46.75725544 -95.98927417 49.45804807 -101.94140625 52.23828125 C-102.946875 52.70492187 -103.95234375 53.1715625 -104.98828125 53.65234375 C-109.86320807 55.99897002 -114.29354103 58.710699 -118.7421875 61.78515625 C-120.84124868 63.17210254 -122.95849892 64.33318893 -125.19140625 65.48828125 C-131.62842488 68.98714852 -137.23861012 73.67778566 -142.94140625 78.23828125 C-143.88371094 78.98464844 -144.82601562 79.73101562 -145.796875 80.5 C-155.55804127 88.345555 -164.96784611 96.5486723 -172.94140625 106.23828125 C-173.81021721 107.26905658 -174.68009462 108.29893355 -175.55078125 109.328125 C-176.47314723 110.42276356 -177.39502293 111.51781543 -178.31640625 112.61328125 C-178.75807129 113.13784912 -179.19973633 113.66241699 -179.65478516 114.20288086 C-182.04165057 117.05544611 -182.04165057 117.05544611 -183.94140625 120.23828125 C-184.60140625 120.23828125 -185.26140625 120.23828125 -185.94140625 120.23828125 C-186.20953125 120.79515625 -186.47765625 121.35203125 -186.75390625 121.92578125 C-188.05040121 124.45053459 -189.36616948 126.87542609 -190.94140625 129.23828125 C-191.60140625 129.23828125 -192.26140625 129.23828125 -192.94140625 129.23828125 C-193.20824219 129.97175781 -193.47507813 130.70523438 -193.75 131.4609375 C-194.9238978 134.19746647 -196.24801186 136.28062507 -198.00390625 138.67578125 C-204.43135564 147.6742104 -210.38742517 156.90509378 -215.5546875 166.6875 C-216.88316504 169.13115023 -218.32517426 171.45398988 -219.81640625 173.80078125 C-224.33351546 181.18913808 -227.53321152 189.29736054 -230.94140625 197.23828125 C-231.93140625 196.90828125 -232.92140625 196.57828125 -233.94140625 196.23828125 C-230.27583677 169.90405841 -219.77645 143.84592167 -205.94140625 121.23828125 C-205.03759349 119.59681629 -204.14116857 117.95125097 -203.25390625 116.30078125 C-201.43845197 112.9874274 -199.34687631 110.15920918 -196.94140625 107.23828125 C-196.44640625 105.75328125 -196.44640625 105.75328125 -195.94140625 104.23828125 C-195.28140625 104.23828125 -194.62140625 104.23828125 -193.94140625 104.23828125 C-193.74289063 103.57828125 -193.544375 102.91828125 -193.33984375 102.23828125 C-191.37837302 98.03043342 -188.53464693 94.78186374 -185.56640625 91.23828125 C-184.41269762 89.84249982 -183.25905035 88.44666767 -182.10546875 87.05078125 C-181.55922852 86.39722656 -181.01298828 85.74367188 -180.45019531 85.0703125 C-179.1478327 83.4889324 -177.89505576 81.86695502 -176.65234375 80.23828125 C-176.08773437 79.57828125 -175.523125 78.91828125 -174.94140625 78.23828125 C-174.28140625 78.23828125 -173.62140625 78.23828125 -172.94140625 78.23828125 C-172.94140625 77.57828125 -172.94140625 76.91828125 -172.94140625 76.23828125 C-172.28140625 76.23828125 -171.62140625 76.23828125 -170.94140625 76.23828125 C-170.67328125 75.59890625 -170.40515625 74.95953125 -170.12890625 74.30078125 C-168.94140625 72.23828125 -168.94140625 72.23828125 -165.94140625 71.23828125 C-165.94140625 70.57828125 -165.94140625 69.91828125 -165.94140625 69.23828125 C-164.5078125 67.79296875 -164.5078125 67.79296875 -162.50390625 66.11328125 C-159.22340377 63.33938918 -159.22340377 63.33938918 -156.0390625 60.45703125 C-148.93598465 53.81811493 -140.96378013 48.33457739 -133.04223633 42.72973633 C-131.69080799 41.77030859 -130.34388159 40.80449084 -129.00268555 39.83081055 C-123.87123904 36.1078605 -118.55423021 33.16162706 -112.94140625 30.23828125 C-112.36777344 29.93519043 -111.79414062 29.63209961 -111.203125 29.31982422 C-95.14821458 20.86693107 -78.39344875 14.19137118 -60.94140625 9.23828125 C-59.76578125 8.89152344 -58.59015625 8.54476563 -57.37890625 8.1875 C-44.14910412 4.55771319 -30.5229556 2.99561528 -16.94140625 1.23828125 C-15.04177124 0.97241211 -15.04177124 0.97241211 -13.10375977 0.70117188 C-8.73397901 0.16033555 -4.39960145 0.04254775 0 0 Z " fill="#FFFFFF" transform="translate(233.94140625,-0.23828125)"/>
<path d="M0 0 C0 0.66 0 1.32 0 2 C15.18 2 30.36 2 46 2 C46 2.99 46 3.98 46 5 C44.02 5.33 42.04 5.66 40 6 C38.77012303 10.2735415 39.27378882 12.70929506 40.83203125 16.8359375 C41.29818848 18.07053711 41.7643457 19.30513672 42.24462891 20.57714844 C45.53067055 28.91962319 48.94474741 37.20992513 52.38500977 45.48974609 C53.69861807 48.65176255 55.00691823 51.81593665 56.31445312 54.98046875 C57.15073652 57.00012638 57.98731424 59.01966217 58.82421875 61.0390625 C59.21381271 61.98069244 59.60340668 62.92232239 60.00480652 63.89248657 C60.36891129 64.76795135 60.73301605 65.64341614 61.1081543 66.54541016 C61.42616501 67.3114859 61.74417572 68.07756165 62.07182312 68.86685181 C62.97887917 70.95145984 63.96381905 72.97691259 65 75 C68.06179458 67.92074159 71.12145836 60.84056501 74.1796875 53.75976562 C75.21891787 51.35428339 76.25862429 48.94900676 77.29882812 46.54394531 C78.79945014 43.07411624 80.29832209 39.60353559 81.796875 36.1328125 C82.257453 35.06886261 82.71803101 34.00491272 83.19256592 32.90872192 C85.26331289 28.10861237 87.31654705 23.30121662 89.30957031 18.46826172 C89.79166962 17.30337723 89.79166962 17.30337723 90.2835083 16.11495972 C91.22024719 13.34986836 91.30422128 10.89010213 91 8 C88.69 7.01 86.38 6.02 84 5 C84 4.01 84 3.02 84 2 C95.55 2 107.1 2 119 2 C119 2.66 119 3.32 119 4 C119.75494751 3.7668811 119.75494751 3.7668811 120.52514648 3.52905273 C123.86494706 2.81509911 127.19637973 2.69034914 130.59765625 2.53515625 C132.12923884 2.45765913 133.6608141 2.38001698 135.19238281 2.30224609 C135.98922485 2.26315125 136.78606689 2.2240564 137.60705566 2.18377686 C151.1215951 1.51628021 164.56974507 0.70600536 178 -1 C178 0.32 178 1.64 178 3 C176.01432292 3.5859375 174.02864583 4.171875 172.04296875 4.7578125 C168.97244535 6.62478466 168.33079323 8.67883609 167 12 C166.57786305 15.01967863 166.57944625 18.00162878 166.59594727 21.04711914 C166.58908401 21.93729233 166.58222076 22.82746552 166.57514954 23.74461365 C166.55690924 26.67495861 166.56071425 29.60476693 166.56640625 32.53515625 C166.56184394 34.57726719 166.55653822 36.61937659 166.55052185 38.66148376 C166.54159681 42.93592579 166.54400799 47.21018091 166.55395508 51.48461914 C166.5654586 56.96141697 166.54520879 62.43757139 166.51603794 67.91428471 C166.49769355 72.12906487 166.49796465 76.34369023 166.50367546 80.55850029 C166.50382881 82.57791485 166.49777308 84.59733982 166.48538399 86.61671638 C166.47050487 89.43898088 166.48112747 92.26004835 166.49829102 95.08227539 C166.48862305 95.91514069 166.47895508 96.74800598 166.46899414 97.60610962 C166.5189565 101.52980451 166.74047017 103.56577395 168.79698181 107.00657654 C171.73583405 109.66582694 174.11635651 109.77594364 178 110 C178 110.99 178 111.98 178 113 C161.83 113 145.66 113 129 113 C129 112.01 129 111.02 129 110 C130.98567708 109.609375 132.97135417 109.21875 134.95703125 108.828125 C137.79460382 107.67790438 138.50097984 106.70007782 140 104 C140.43501683 101.00297517 140.37870688 98.03227664 140.34057617 95.00878906 C140.34101425 94.10112289 140.34145233 93.19345673 140.34190369 92.25828552 C140.33981499 89.26051261 140.31647991 86.26330013 140.29296875 83.265625 C140.28737309 81.18626206 140.28310285 79.10689516 140.28010559 77.02752686 C140.2686545 71.55626494 140.23918486 66.08524217 140.20599365 60.61407471 C140.17529858 55.0305098 140.16160145 49.44690622 140.14648438 43.86328125 C140.11431556 32.90874913 140.06311586 21.95439446 140 11 C137.31106733 11.08771546 134.62514692 11.19467925 131.9375 11.3125 C131.18533203 11.33505859 130.43316406 11.35761719 129.65820312 11.38085938 C124.45344075 11.6287052 120.61359122 12.52570458 116 15 C113.67463937 18.48804095 113.66542102 19.90140754 114 24 C114.64154462 26.16333493 114.64154462 26.16333493 116 28 C118.17208588 28.91160093 118.17208588 28.91160093 120.625 29.25 C121.44226563 29.39953125 122.25953125 29.5490625 123.1015625 29.703125 C123.72804688 29.80109375 124.35453125 29.8990625 125 30 C125 30.99 125 31.98 125 33 C121.27400457 34.24199848 117.87020783 34.53508555 114 34 C110.06527426 31.92127697 107.30457903 29.80523515 105 26 C104.61447842 22.31955403 104.86809249 18.69341023 105 15 C100.4187696 24.00235493 96.08618364 33.07195208 92 42.3125 C90.87289311 44.84845882 89.74326802 47.38329205 88.61328125 49.91796875 C88.32262283 50.57055664 88.03196442 51.22314453 87.73249817 51.89550781 C85.54826954 56.79200887 83.33386369 61.67423735 81.10546875 66.55078125 C80.78077103 67.26135681 80.4560733 67.97193237 80.12153625 68.70404053 C79.46795024 70.13414135 78.81435024 71.56423577 78.16073608 72.99432373 C73.73565048 82.68202956 69.32192908 92.37106848 65.1875 102.1875 C64.88030029 102.91662598 64.57310059 103.64575195 64.2565918 104.39697266 C62.67124559 108.21749548 61.25640315 112.05918426 60 116 C59.01 116 58.02 116 57 116 C53.27478894 108.75338882 49.71270562 101.48811046 46.5 94 C44.38837136 89.08591929 42.1803238 84.26806383 39.75 79.5 C32.92064972 66.05615541 26.84974108 52.22427538 20.75 38.4375 C18.28026555 32.86104359 15.7973477 27.29151395 13.25 21.75 C12.45335937 20.00976562 12.45335937 20.00976562 11.640625 18.234375 C7.75725167 10.5708347 7.75725167 10.5708347 0.5 6.5 C-0.4384375 6.1596875 -1.376875 5.819375 -2.34375 5.46875 C-4.94867207 4.80547871 -4.94867207 4.80547871 -7.21875 5.65625 C-9.35658061 7.26899941 -9.97313322 8.5417482 -11 11 C-11.30089167 12.96403645 -11.30089167 12.96403645 -11.26742554 15.02270508 C-11.28022049 16.20867783 -11.28022049 16.20867783 -11.29327393 17.41860962 C-11.29191437 18.70606583 -11.29191437 18.70606583 -11.29052734 20.01953125 C-11.29724457 20.93052582 -11.30396179 21.84152039 -11.31088257 22.78012085 C-11.32987826 25.79096938 -11.33378723 28.80159528 -11.3359375 31.8125 C-11.34236315 33.90470471 -11.34909133 35.99690852 -11.35610962 38.08911133 C-11.36808547 42.47381678 -11.37179 46.85844341 -11.37060547 51.24316406 C-11.37040199 56.86581346 -11.39773257 62.48795904 -11.43214989 68.11048889 C-11.45436657 72.43072845 -11.45844466 76.75084563 -11.45738602 81.07113647 C-11.45974878 83.14441671 -11.46861008 85.21769999 -11.48405075 87.29092407 C-11.50360954 90.18780046 -11.49791304 93.08357527 -11.48583984 95.98046875 C-11.50269836 97.26792496 -11.50269836 97.26792496 -11.51989746 98.58139038 C-11.479607 102.37870585 -11.45380003 104.36405846 -9.20401001 107.5168457 C-6.22004154 109.52486093 -3.54152879 109.72757471 0 110 C0 110.99 0 111.98 0 113 C-16.17 113 -32.34 113 -49 113 C-49 112.01 -49 111.02 -49 110 C-47.01432292 109.64192708 -45.02864583 109.28385417 -43.04296875 108.92578125 C-40.01024188 107.55148628 -39.40231707 106.01759574 -38 103 C-37.5553633 99.96513075 -37.56246497 96.95860181 -37.56762695 93.89526367 C-37.5574353 92.98745148 -37.54724365 92.07963928 -37.53674316 91.14431763 C-37.50661711 88.15213852 -37.49734773 85.16027959 -37.48828125 82.16796875 C-37.4714343 80.09002112 -37.45328403 78.01208368 -37.43388367 75.93415833 C-37.38637948 70.47127466 -37.3565727 65.00843231 -37.33044434 59.54541016 C-37.30064104 53.96834147 -37.25410987 48.39141515 -37.20898438 42.81445312 C-37.12294641 31.87637654 -37.0556032 20.93827067 -37 10 C-37.66 10.33 -38.32 10.66 -39 11 C-42.48052609 11.20015805 -45.95443738 11.34505572 -49.43945312 11.4296875 C-54.61849324 11.64756123 -58.39324089 12.57413204 -63 15 C-64.6026571 18.20531421 -64.48207377 21.52218208 -64 25 C-62.58333333 27.58333333 -62.58333333 27.58333333 -60 29 C-56.35278304 29.80765878 -56.35278304 29.80765878 -53 30 C-53 30.99 -53 31.98 -53 33 C-56.72599543 34.24199848 -60.12979217 34.53508555 -64 34 C-67.83669597 31.97306628 -70.99766408 29.89928574 -73 26 C-74.08979003 21.58170398 -74.36162914 18.10615973 -72.9375 13.75 C-68.14636 6.94967226 -62.96675029 4.62714508 -55 3 C-49.1543249 2.41167568 -43.30669708 2.16508235 -37.4375 1.9375 C-34.35246609 1.80880835 -31.26793982 1.67156592 -28.18359375 1.52734375 C-27.4285556 1.49313324 -26.67351746 1.45892273 -25.89559937 1.42367554 C-19.65028828 1.10803858 -13.47558519 0.43308931 -7.28233337 -0.42433167 C-2.20280864 -1.10140432 -2.20280864 -1.10140432 0 0 Z " fill="#FFFFFF" transform="translate(850,181)"/>
<path d="M0 0 C4.59382881 1.94358435 5.71431531 4.95406576 7.57421875 9.3671875 C8.06213394 10.48092995 8.06213394 10.48092995 8.55990601 11.61717224 C9.61447852 14.03140968 10.65086775 16.45301246 11.6875 18.875 C12.40871167 20.53338973 13.13128964 22.19118593 13.85522461 23.84838867 C15.2753478 27.1023992 16.68964204 30.35883001 18.09863281 33.61767578 C20.3728537 38.87060564 22.70446241 44.09670824 25.0625 49.3125 C25.37082764 50.00005371 25.67915527 50.68760742 25.99682617 51.39599609 C28.33923072 56.60175696 30.75894773 61.77081202 33.18041992 66.94010925 C35.08551712 71.01558742 36.96004524 75.10356776 38.81108093 79.20387268 C40.06762821 81.98290241 41.3367139 84.75611812 42.60717773 87.52880859 C43.25112782 88.94177956 43.88969361 90.35721524 44.52319336 91.77490234 C45.46084986 93.86977351 46.41784766 95.95484322 47.37890625 98.0390625 C47.79167564 98.97971054 47.79167564 98.97971054 48.21278381 99.93936157 C50.41147735 104.63287329 52.83437159 107.07768673 57 110 C60.72697218 110.88005337 60.72697218 110.88005337 64 111 C64 111.99 64 112.98 64 114 C46.84 114 29.68 114 12 114 C12 113.01 12 112.02 12 111 C15.465 110.01 15.465 110.01 19 109 C20.12369938 105.69125204 19.90431781 103.9778593 18.56640625 100.77734375 C18.24736328 99.99166016 17.92832031 99.20597656 17.59960938 98.39648438 C17.25736328 97.58501953 16.91511719 96.77355469 16.5625 95.9375 C15.89264587 94.32347052 15.22708782 92.70764954 14.56640625 91.08984375 C14.26677979 90.37691162 13.96715332 89.66397949 13.65844727 88.92944336 C13 87 13 87 13 84 C1.12 84.33 -10.76 84.66 -23 85 C-24.340625 88.031875 -25.68125 91.06375 -27.0625 94.1875 C-27.70264038 95.60712036 -27.70264038 95.60712036 -28.35571289 97.05541992 C-28.6830542 97.81443604 -29.01039551 98.57345215 -29.34765625 99.35546875 C-29.68804932 100.12528076 -30.02844238 100.89509277 -30.37915039 101.68823242 C-31.12277806 104.45717085 -30.747363 106.26249189 -30 109 C-27.03 109.99 -27.03 109.99 -24 111 C-24 111.99 -24 112.98 -24 114 C-30.18893871 114.07477342 -36.37760802 114.12889419 -42.56689453 114.16479492 C-44.66752714 114.17977873 -46.76812901 114.20017281 -48.86865234 114.22631836 C-79.17721296 114.59382587 -79.17721296 114.59382587 -90 105 C-94.42760743 100.42525838 -97.61852758 95.59130312 -100.5 89.9375 C-100.88164307 89.20378174 -101.26328613 88.47006348 -101.65649414 87.71411133 C-104.65329069 81.87253422 -107.31100265 75.92511321 -109.80859375 69.85546875 C-111.2290014 66.33754828 -111.2290014 66.33754828 -113 63 C-116.04199472 61.70768358 -116.04199472 61.70768358 -119 61 C-119 60.01 -119 59.02 -119 58 C-118.20335937 57.90203125 -117.40671875 57.8040625 -116.5859375 57.703125 C-108.91259306 56.62026861 -103.89225498 55.45463789 -98.75 49.3125 C-94.60064325 41.45836043 -94.36267165 33.66959473 -96 25 C-97.58493461 20.31280002 -99.52823902 16.45225602 -104 14 C-107.71279469 12.76240177 -111.31306346 12.64391103 -115.1875 12.4375 C-115.93708984 12.39431641 -116.68667969 12.35113281 -117.45898438 12.30664062 C-119.30578375 12.20077315 -121.15286834 12.0999024 -123 12 C-122.98513305 24.03955273 -122.94357487 36.07868878 -122.86790943 48.11802197 C-122.83361426 53.70837459 -122.80852548 59.2984532 -122.80444336 64.88891602 C-122.8001659 70.28377683 -122.77174855 75.67801923 -122.72656822 81.07268715 C-122.71357562 83.13113109 -122.70929175 85.18964898 -122.71384621 87.24812889 C-122.71873958 90.13118695 -122.69271572 93.01242881 -122.65942383 95.89526367 C-122.67236229 97.17272713 -122.67236229 97.17272713 -122.68556213 98.47599792 C-122.60216637 102.78225198 -122.38486474 104.50234244 -119.66581726 108.01826477 C-116.68459151 110.23447073 -114.67155851 110.74384476 -111 111 C-111 111.99 -111 112.98 -111 114 C-127.17 114 -143.34 114 -160 114 C-160 113.01 -160 112.02 -160 111 C-158.01432292 110.64192708 -156.02864583 110.28385417 -154.04296875 109.92578125 C-151.01654066 108.55434061 -150.40094961 107.00726032 -149 104 C-148.57312927 101.04487552 -148.60011603 98.12392807 -148.62768555 95.14233398 C-148.62403488 94.2604541 -148.62038422 93.37857422 -148.61662292 92.4699707 C-148.60853247 89.56181441 -148.62211403 86.65421788 -148.63671875 83.74609375 C-148.63723749 81.72257996 -148.63671925 79.69906566 -148.63520813 77.67555237 C-148.63529778 73.43800315 -148.64571411 69.20064446 -148.66381836 64.96313477 C-148.68651967 59.5300902 -148.68704623 54.09732361 -148.68030071 48.66424465 C-148.67696042 44.48726427 -148.68359174 40.31034733 -148.69342995 36.13337898 C-148.6972801 34.129897 -148.69843093 32.12640795 -148.6968441 30.1229229 C-148.6964735 27.32456875 -148.70909197 24.52657197 -148.7253418 21.72827148 C-148.72286438 20.89959061 -148.72038696 20.07090973 -148.71783447 19.21711731 C-148.71258889 13.77836887 -148.71258889 13.77836887 -151 9 C-153.16281282 7.8774351 -153.16281282 7.8774351 -155.625 7.25 C-156.44226562 7.00765625 -157.25953125 6.7653125 -158.1015625 6.515625 C-158.72804688 6.34546875 -159.35453125 6.1753125 -160 6 C-160 5.01 -160 4.02 -160 3 C-152.41883413 2.92991291 -144.83770264 2.87689506 -137.25628471 2.84456348 C-133.73437784 2.82903129 -130.21269561 2.80802686 -126.69091797 2.77368164 C-122.62465491 2.73428311 -118.55862084 2.72018825 -114.4921875 2.70703125 C-113.25201874 2.69154739 -112.01184998 2.67606354 -110.73410034 2.66011047 C-98.41399533 2.65778446 -85.84232663 3.94883208 -76 12 C-68.77578496 19.54027445 -67.52670001 26.98337537 -67.6875 37.234375 C-68.30293096 44.65031807 -71.02822971 50.90522534 -76.07421875 56.39453125 C-79.96068042 59.63456319 -84.49088515 61.76377231 -89 64 C-88.4445752 64.43900635 -87.88915039 64.8780127 -87.31689453 65.33032227 C-80.78395866 70.77259355 -76.39974201 76.78591858 -71.875 83.9375 C-63.16408289 98.74259306 -63.16408289 98.74259306 -50 109 C-46.10645781 105.46004112 -43.93200764 102.34003301 -41.86328125 97.515625 C-41.58635941 96.87950287 -41.30943756 96.24338074 -41.02412415 95.58798218 C-40.10928268 93.47987406 -39.2111238 91.36506584 -38.3125 89.25 C-37.66514409 87.75125228 -37.01651427 86.25305424 -36.36669922 84.75537109 C-34.97412451 81.54258161 -33.587478 78.32732175 -32.20458984 75.11035156 C-28.77279962 67.13953133 -25.27308694 59.19841914 -21.78012085 51.25427246 C-20.66167901 48.70848832 -19.5458665 46.16156924 -18.4309082 43.61425781 C-17.71709185 41.98496811 -17.00314459 40.35573575 -16.2890625 38.7265625 C-15.94125229 37.9325 -15.59344208 37.1384375 -15.23509216 36.3203125 C-13.37309086 32.08167494 -11.48590648 27.85604776 -9.56542969 23.64355469 C-8.95965591 22.31183731 -8.95965591 22.31183731 -8.34164429 20.95321655 C-7.57341446 19.26811732 -6.80142927 17.5847225 -6.02481079 15.9034729 C-3.65305457 10.69980948 -1.6988553 5.46041044 0 0 Z M-5 41 C-8.95186606 48.52077874 -12.21025388 56.22122164 -15.3125 64.125 C-16.859375 68.04375 -18.40625 71.9625 -20 76 C-10.43 76 -0.86 76 9 76 C7.245389 70.736167 5.51487236 65.59038441 3.51953125 60.43359375 C3.07802734 59.28955078 2.63652344 58.14550781 2.18164062 56.96679688 C1.72982422 55.80212891 1.27800781 54.63746094 0.8125 53.4375 C0.34908203 52.23802734 -0.11433594 51.03855469 -0.59179688 49.80273438 C-1.72602525 46.8677723 -2.86213485 43.9335536 -4 41 C-4.33 41 -4.66 41 -5 41 Z " fill="#FFFFFF" transform="translate(1342,180)"/>
<path d="M0 0 C40.19707291 -0.84132297 77.39961257 10.10863201 109.015625 35.12109375 C109.92183594 35.82105469 110.82804687 36.52101562 111.76171875 37.2421875 C113.89418135 39.01985563 115.65886888 40.82093247 117.453125 42.93359375 C118.0409375 43.62066406 118.62875 44.30773437 119.234375 45.015625 C119.8221875 45.71042969 120.41 46.40523437 121.015625 47.12109375 C122.1609842 48.4548344 123.30678147 49.78819903 124.453125 51.12109375 C125.29875 52.11109375 126.144375 53.10109375 127.015625 54.12109375 C126.685625 54.78109375 126.355625 55.44109375 126.015625 56.12109375 C119.9787233 55.83085809 114.28980725 54.78026258 108.453125 53.24609375 C96.11676147 50.03421613 83.94643897 47.86163909 71.1875 47.52734375 C67.72388519 47.08372806 65.77423159 46.23671685 63.015625 44.12109375 C63.015625 43.46109375 63.015625 42.80109375 63.015625 42.12109375 C60.68348352 40.91481367 58.51920361 39.95561995 56.015625 39.12109375 C56.015625 38.46109375 56.015625 37.80109375 56.015625 37.12109375 C55.27828125 36.85039063 54.5409375 36.5796875 53.78125 36.30078125 C51.14123387 35.17467268 49.09220611 33.9091684 46.765625 32.24609375 C22.03900077 15.50368427 -12.86802013 18.82019904 -40.7890625 23.82421875 C-50.46240388 25.73163818 -59.72690093 28.77120093 -68.984375 32.12109375 C-69.69271484 32.37117188 -70.40105469 32.62125 -71.13085938 32.87890625 C-90.21100856 39.68123172 -107.71338902 50.63906975 -122.25488281 64.71826172 C-125.79205338 68.12109375 -125.79205338 68.12109375 -127.984375 68.12109375 C-127.984375 68.78109375 -127.984375 69.44109375 -127.984375 70.12109375 C-128.644375 70.12109375 -129.304375 70.12109375 -129.984375 70.12109375 C-130.35949219 70.98347656 -130.35949219 70.98347656 -130.7421875 71.86328125 C-132.15571278 74.43251903 -133.80839952 76.15004189 -135.859375 78.24609375 C-142.53150102 85.52086341 -147.70465381 93.81002769 -152.984375 102.12109375 C-153.66886719 103.18714844 -154.35335937 104.25320312 -155.05859375 105.3515625 C-162.18160478 116.95646812 -167.29045681 129.77583751 -169.984375 143.12109375 C-170.16613281 143.92289063 -170.34789062 144.7246875 -170.53515625 145.55078125 C-172.4855387 156.71036083 -170.24506719 166.54169462 -166.984375 177.12109375 C-166.30834666 179.45185249 -165.64635057 181.78628802 -164.984375 184.12109375 C-164.324375 184.12109375 -163.664375 184.12109375 -162.984375 184.12109375 C-159.109375 190.74609375 -159.109375 190.74609375 -157.984375 194.12109375 C-156.34066748 194.84251444 -154.66916358 195.50165074 -152.984375 196.12109375 C-133.80352411 207.75855118 -133.80352411 207.75855118 -130.984375 217.12109375 C-130.37171019 223.3498527 -131.28386801 227.97007938 -134.984375 233.12109375 C-139.21410703 236.94926894 -143.43311521 237.25629635 -148.984375 237.12109375 C-161.15405097 234.96195769 -169.71253463 227.09254289 -177.0078125 217.4453125 C-184.10711499 206.73435613 -187.72981628 195.70396876 -189.984375 183.12109375 C-190.16871094 182.17234375 -190.35304687 181.22359375 -190.54296875 180.24609375 C-195.03163543 148.46792254 -181.89255867 111.86283768 -163.48046875 86.30078125 C-161.82545574 84.10456962 -161.82545574 84.10456962 -160.984375 81.12109375 C-160.324375 81.12109375 -159.664375 81.12109375 -158.984375 81.12109375 C-158.5821875 80.25677734 -158.5821875 80.25677734 -158.171875 79.375 C-156.95575059 77.06676387 -155.57559196 75.12319775 -153.984375 73.05859375 C-152.23316222 70.77763911 -150.58179649 68.51722598 -148.984375 66.12109375 C-148.324375 66.12109375 -147.664375 66.12109375 -146.984375 66.12109375 C-146.984375 65.46109375 -146.984375 64.80109375 -146.984375 64.12109375 C-146.324375 64.12109375 -145.664375 64.12109375 -144.984375 64.12109375 C-144.778125 63.58484375 -144.571875 63.04859375 -144.359375 62.49609375 C-142.45187074 59.20131366 -139.93618116 56.52745747 -136.984375 54.12109375 C-136.324375 54.12109375 -135.664375 54.12109375 -134.984375 54.12109375 C-134.7575 53.54359375 -134.530625 52.96609375 -134.296875 52.37109375 C-132.63589278 49.52369566 -130.66912939 48.00042182 -127.984375 46.12109375 C-127.324375 46.12109375 -126.664375 46.12109375 -125.984375 46.12109375 C-125.984375 45.46109375 -125.984375 44.80109375 -125.984375 44.12109375 C-122.87889084 41.49337638 -119.37996219 39.35330179 -115.984375 37.12109375 C-115.39495117 36.73324707 -114.80552734 36.34540039 -114.19824219 35.94580078 C-79.77622647 13.45424449 -41.10910794 1.24939446 0 0 Z " fill="#FFFFFF" transform="translate(191.984375,70.87890625)"/>
<path d="M0 0 C2.80368879 0.01068534 5.60673138 0.00006537 8.41040039 -0.01269531 C32.0650487 -0.03195731 53.21148855 1.96664404 71.24438477 18.83886719 C83.39718582 31.85222929 84.10574881 47.85519982 83.64233398 64.70507812 C83.38345748 69.56156423 82.3797674 73.79277446 80.50610352 78.26074219 C80.17739258 79.0921875 79.84868164 79.92363281 79.51000977 80.78027344 C73.39764042 94.54896702 61.9077386 103.04052626 48.18579102 108.43652344 C38.75734727 111.33652581 29.87469444 111.52442076 20.09594727 111.45605469 C18.51697469 111.45231811 16.93799978 111.44947419 15.35902405 111.44747925 C11.23102257 111.43989349 7.10316492 111.42028929 2.97521973 111.39807129 C-1.24818985 111.37750307 -5.47162298 111.3684542 -9.69506836 111.35839844 C-17.96140993 111.33703793 -26.22763525 111.30296413 -34.49389648 111.26074219 C-34.49389648 110.27074219 -34.49389648 109.28074219 -34.49389648 108.26074219 C-32.88514648 108.16792969 -32.88514648 108.16792969 -31.24389648 108.07324219 C-27.48673969 107.58422036 -27.48673969 107.58422036 -25.29364014 105.27900696 C-22.83331345 101.15290969 -22.92011253 97.87703175 -22.94799805 93.15600586 C-22.93766037 92.24819366 -22.92732269 91.34038147 -22.91667175 90.40505981 C-22.88723963 87.41276255 -22.88574448 84.42114159 -22.88452148 81.42871094 C-22.86954014 79.350761 -22.85281309 77.27282298 -22.83441162 75.19490051 C-22.79072098 69.7319789 -22.7707351 64.26921792 -22.75567627 58.80615234 C-22.73611147 53.22906998 -22.6941407 47.65216124 -22.65405273 42.07519531 C-22.57873195 31.1370978 -22.52845169 20.19903912 -22.49389648 9.26074219 C-25.06161727 9.87938165 -27.6276691 10.50389055 -30.19311523 11.13183594 C-31.2773175 11.39208557 -31.2773175 11.39208557 -32.38342285 11.65759277 C-38.08638971 13.0609747 -43.84365858 14.53158901 -48.06811523 18.88183594 C-49.49389648 20.26074219 -49.49389648 20.26074219 -51.49389648 20.26074219 C-51.77233398 20.83308594 -52.05077148 21.40542969 -52.33764648 21.99511719 C-53.47663441 24.22691785 -54.69326031 26.36945092 -55.99389648 28.51074219 C-56.41670898 29.21714844 -56.83952148 29.92355469 -57.27514648 30.65136719 C-57.87842773 31.44800781 -57.87842773 31.44800781 -58.49389648 32.26074219 C-59.15389648 32.26074219 -59.81389648 32.26074219 -60.49389648 32.26074219 C-60.19463226 22.83391907 -56.6116356 17.04945082 -49.93139648 10.51074219 C-36.13715025 -0.77070018 -16.83461958 -0.07610191 0 0 Z M2.50610352 9.26074219 C2.50610352 40.28074219 2.50610352 71.30074219 2.50610352 103.26074219 C26.67934286 104.64401536 26.67934286 104.64401536 45.20922852 93.90917969 C49.06480851 89.4634599 51.39746874 84.72370687 53.50610352 79.26074219 C53.84512695 78.38289063 54.18415039 77.50503906 54.53344727 76.60058594 C59.40765451 60.98964568 58.08591126 40.90816877 50.75610352 26.38574219 C46.22860882 18.72468589 40.87649886 13.47083195 32.50610352 10.26074219 C22.79929033 7.83403889 12.51165753 9.26074219 2.50610352 9.26074219 Z " fill="#FFFFFF" transform="translate(602.493896484375,182.7392578125)"/>
<path d="M0 0 C14.60942714 13.19925078 21.00333205 34.07075652 28.0625 51.8125 C29.01262767 54.18075774 29.9637942 56.54859896 30.91601562 58.91601562 C32.31082099 62.38392035 33.70553022 65.85185614 35.09767151 69.3208313 C42.82728011 88.97098042 42.82728011 88.97098042 51.9375 108 C52.56289673 109.17405396 52.56289673 109.17405396 53.20092773 110.37182617 C59.7633032 122.3588009 67.98992504 132.44209163 81.515625 136.54296875 C86.31462086 137.42580289 91.1438102 137.22185639 96 137 C95.81640625 138.859375 95.81640625 138.859375 95 141 C85.87730782 146.34494081 73.77332223 146.41176974 63.6640625 144.3046875 C44.38509574 138.40700872 30.4439303 123.50997781 21.03125 106.16015625 C16.92976905 98.12004727 14.0761687 89.45946393 11 81 C-0.88 80.67 -12.76 80.34 -25 80 C-25.99 83.3 -26.98 86.6 -28 90 C-30.1875 94.6875 -30.1875 94.6875 -31.21484375 96.8828125 C-32.39419768 100.06296091 -32.28557129 102.6445374 -32 106 C-29.69 106.66 -27.38 107.32 -25 108 C-25 108.99 -25 109.98 -25 111 C-36.55 111 -48.1 111 -60 111 C-60 110.01 -60 109.02 -60 108 C-58.07942708 107.64192708 -56.15885417 107.28385417 -54.23828125 106.92578125 C-48.80254799 104.67749367 -46.18271736 99.94061751 -43.90625 94.78515625 C-43.63785309 94.18563644 -43.36945618 93.58611664 -43.09292603 92.96842957 C-42.21729059 91.00459057 -41.35849485 89.03388493 -40.5 87.0625 C-39.88743174 85.67832304 -39.27397301 84.29453985 -38.65966797 82.91113281 C-37.07093063 79.32381623 -35.49754832 75.73000484 -33.93005371 72.13336182 C-33.02608526 70.05983451 -32.1194319 67.98750329 -31.21191406 65.91552734 C-27.83734857 58.20679612 -27.83734857 58.20679612 -24.51416016 50.47583008 C-22.18633944 45.01306032 -19.83577574 39.58872372 -17.234375 34.25 C-13.18398979 26.43317694 -13.18398979 26.43317694 -12.38671875 17.91015625 C-13.62938246 15.16473643 -15.00891798 13.25373539 -17 11 C-17.56460938 10.25234375 -18.12921875 9.5046875 -18.7109375 8.734375 C-22.03603901 4.55166813 -24.95115455 1.99058423 -30 0 C-32.7188776 -0.20597558 -35.17641622 -0.28948136 -37.875 -0.1875 C-38.90753906 -0.16719727 -38.90753906 -0.16719727 -39.9609375 -0.14648438 C-41.64097001 -0.1114837 -43.3205935 -0.05768954 -45 0 C-44.82421875 -1.86328125 -44.82421875 -1.86328125 -44 -4 C-29.25536685 -11.91236702 -12.8301652 -10.54406304 0 0 Z M-6 35 C-12.6190977 50.13184331 -12.6190977 50.13184331 -19.125 65.3125 C-19.49882813 66.19550781 -19.87265625 67.07851562 -20.2578125 67.98828125 C-21.11537581 69.95535236 -21.11537581 69.95535236 -21 72 C-11.43 72 -1.86 72 8 72 C6.27094088 66.2364696 4.6113564 60.71349894 2.51953125 55.1171875 C2.07802734 53.93125 1.63652344 52.7453125 1.18164062 51.5234375 C0.72982422 50.31945312 0.27800781 49.11546875 -0.1875 47.875 C-0.6558909 46.61990058 -1.12399176 45.36469288 -1.59179688 44.109375 C-2.72502952 41.07184421 -3.86115473 38.03542994 -5 35 C-5.33 35 -5.66 35 -6 35 Z " fill="#FFFFFF" transform="translate(740,183)"/>
<path d="M0 0 C13.86 0 27.72 0 42 0 C37.35714286 19.73214286 37.35714286 19.73214286 35 29 C39.10410468 29.05888242 43.20809827 29.09388921 47.3125 29.125 C48.46041016 29.14175781 49.60832031 29.15851563 50.79101562 29.17578125 C57.28262835 29.21256093 63.31357394 28.81516325 69.66601562 27.4453125 C72.8415804 26.83943069 75.77835059 26.85681558 79 27 C79.02703381 28.93742341 79.04641125 30.87495479 79.0625 32.8125 C79.07410156 33.89144531 79.08570313 34.97039062 79.09765625 36.08203125 C79 39 79 39 78 42 C74.25164737 42.51287503 70.50112299 43.00783138 66.75 43.5 C65.70585937 43.64308594 64.66171875 43.78617187 63.5859375 43.93359375 C53.06633349 45.29724612 43.17973915 45.17768784 32.6640625 44.01953125 C22.51696161 42.91418191 12.45571366 42.66090365 2.25390625 42.68432617 C-0.63058674 42.68750616 -3.51406842 42.66382342 -6.3984375 42.63867188 C-21.09436355 42.58874748 -34.78447127 44.33932751 -49 48 C-49.33321563 42.7981338 -49.61147189 38.40128975 -47.5 33.5625 C-41.68177507 27.59881945 -32.97083755 25.46172647 -25.25 22.875 C-23.21270159 22.18737983 -21.17620793 21.49736957 -19.140625 20.8046875 C-18.24891602 20.50546387 -17.35720703 20.20624023 -16.43847656 19.89794922 C-14.19181117 19.07063291 -12.11466611 18.11761149 -10 17 C-10 16.34 -10 15.68 -10 15 C-8.33333333 13.33333333 -6.66666667 11.66666667 -5 10 C-2.42778719 6.49893257 -1.06109868 4.24439471 0 0 Z " fill="#FFFFFF" transform="translate(148,381)"/>
<path d="M0 0 C-1.23048322 3.69144966 -2.33530715 4.08521704 -5.5625 6.125 C-18.30175085 14.78769058 -24.25461274 26.36728605 -28 41 C-30.81881979 56.0769769 -26.99956039 70.02983898 -19 83 C-9.88170036 95.36637669 2.80826156 103.34963098 17.875 106.375 C31.40601983 108.20971455 43.54213533 105.0974382 56 100 C51.67300931 109.95649389 40.56172124 115.15905353 31 119 C15.20308258 123.94420723 -1.02387689 123.24415723 -16.17578125 116.609375 C-21.71077046 113.70025204 -27.44668038 110.33152468 -32 106 C-32 105.34 -32 104.68 -32 104 C-33.485 103.505 -33.485 103.505 -35 103 C-47.73797754 88.76822978 -51.99914034 72.54261927 -51.15673828 53.984375 C-50.41706591 44.61980015 -46.24625489 35.2849151 -42 27 C-41.34 27 -40.68 27 -40 27 C-39.731875 26.443125 -39.46375 25.88625 -39.1875 25.3125 C-36.704195 20.47659025 -34.5508563 17.15059283 -30 14 C-29.34 14 -28.68 14 -28 14 C-28 13.34 -28 12.68 -28 12 C-8.31067961 0 -8.31067961 0 0 0 Z " fill="#FFFFFF" transform="translate(453,79)"/>
<path d="M0 0 C16.17 0 32.34 0 49 0 C49 0.99 49 1.98 49 3 C48.37351562 3.07476562 47.74703125 3.14953125 47.1015625 3.2265625 C46.28429688 3.35804688 45.46703125 3.48953125 44.625 3.625 C43.81289062 3.74101562 43.00078125 3.85703125 42.1640625 3.9765625 C39.74706097 4.83161278 39.74706097 4.83161278 38.88191223 7.51672363 C37.82470542 11.69235856 37.71208576 15.46874439 37.7253418 19.75585938 C37.72023087 20.61516556 37.71511993 21.47447174 37.70985413 22.3598175 C37.69600374 25.1878667 37.69691121 28.01567101 37.69921875 30.84375 C37.69532984 32.81620371 37.69099477 34.7886566 37.68623352 36.7611084 C37.6787815 40.89008299 37.67905561 45.01897206 37.68432617 49.14794922 C37.69012504 54.43397127 37.67317472 59.71964341 37.6499815 65.0056076 C37.63523824 69.07714884 37.63437318 73.14860587 37.63749123 77.22016907 C37.6369785 79.1689778 37.63174987 81.11779131 37.62167931 83.0665741 C37.60931829 85.79266015 37.61610412 88.51806516 37.62768555 91.24414062 C37.62004181 92.04535843 37.61239807 92.84657623 37.60452271 93.67207336 C37.64974699 98.49756643 38.3329502 101.81640441 41 106 C42.9909859 107.12405381 42.9909859 107.12405381 45.1875 107.375 C46.445625 107.58125 47.70375 107.7875 49 108 C49 108.99 49 109.98 49 111 C32.83 111 16.66 111 0 111 C0 110.01 0 109.02 0 108 C1.98567708 107.57682292 3.97135417 107.15364583 5.95703125 106.73046875 C8.37280048 105.86670423 9.37672977 104.97455028 11 103 C11.29643514 99.96332681 11.40958706 97.13179518 11.38818359 94.09399414 C11.39344055 93.1831456 11.39869751 92.27229706 11.40411377 91.33384705 C11.41733707 88.31744326 11.40856665 85.30156558 11.3984375 82.28515625 C11.40045774 80.1915222 11.40336876 78.09788884 11.40713501 76.0042572 C11.41156167 71.61352854 11.40511688 67.22298281 11.39111328 62.83227539 C11.37403185 57.20180965 11.38385396 51.57177322 11.40183067 45.94132328 C11.41266821 41.61678327 11.4092221 37.29234512 11.4014473 32.96780205 C11.39944467 30.89174791 11.40190676 28.81568456 11.40888596 26.73964119 C11.41649865 23.83797827 11.40489807 20.93701143 11.38818359 18.03540039 C11.39425629 17.17552521 11.40032898 16.31565002 11.40658569 15.42971802 C11.35701452 10.75551649 11.35701452 10.75551649 9.60342407 6.48704529 C7.69497543 4.71711454 6.3522714 4.24962716 3.8125 3.75 C1.9253125 3.37875 1.9253125 3.37875 0 3 C0 2.01 0 1.02 0 0 Z " fill="#FFFFFF" transform="translate(1033,183)"/>
<path d="M0 0 C1.81640625 0.15234375 1.81640625 0.15234375 4 1 C5.52734375 3.44140625 5.52734375 3.44140625 6.9375 6.5625 C8.64450839 10.1904276 10.31900235 13.69633 12.5 17.0625 C14.93364408 20.83196133 17.06665813 24.72338658 19.1953125 28.671875 C21.45513511 32.83934007 23.7574265 36.98243778 26.0625 41.125 C26.67967896 42.23464111 26.67967896 42.23464111 27.30932617 43.36669922 C27.7138501 44.0938916 28.11837402 44.82108398 28.53515625 45.5703125 C29.13287842 46.65554199 29.13287842 46.65554199 29.74267578 47.76269531 C30.6225231 49.32831101 31.52958752 50.87879928 32.45654297 52.41699219 C32.92334473 53.20493164 33.39014648 53.99287109 33.87109375 54.8046875 C34.30220459 55.51351074 34.73331543 56.22233398 35.17749023 56.95263672 C36.17681395 59.44011926 35.73943085 60.48961417 35 63 C8.31217355 63.11498798 -18.32915955 63.02391628 -45 62 C-44.2945668 58.90335575 -43.49466343 57.05028856 -41.5 54.5625 C-39.46491394 51.95936808 -37.52046721 49.3272982 -35.671875 46.58984375 C-35.07149414 45.70220337 -35.07149414 45.70220337 -34.45898438 44.79663086 C-33.6583451 43.60682786 -32.86268943 42.41365483 -32.07226562 41.21704102 C-31.09785958 39.77647605 -30.05426318 38.3831933 -29 37 C-28.34 37 -27.68 37 -27 37 C-26.5978125 36.14728516 -26.5978125 36.14728516 -26.1875 35.27734375 C-19.56523494 22.5774078 -8.97696071 11.10836199 0 0 Z " fill="#FFFFFF" transform="translate(494,82)"/>
<path d="M0 0 C12.21 0 24.42 0 37 0 C37 0.99 37 1.98 37 3 C36.2265625 3.13535156 35.453125 3.27070313 34.65625 3.41015625 C23.27509968 5.76244846 18.19351089 11.17591296 11.26953125 20.12109375 C8.57898337 23.53406068 5.77284477 26.83215761 2.9375 30.125 C2.42316406 30.72272217 1.90882812 31.32044434 1.37890625 31.9362793 C-2.39220918 36.30992711 -6.18003619 40.66891427 -10 45 C-8.34234922 48.65917593 -6.09583273 51.82326031 -3.75 55.0625 C-3.31526367 55.66682861 -2.88052734 56.27115723 -2.43261719 56.89379883 C2.43445544 63.63901882 7.37470214 70.33079028 12.32421875 77.015625 C14.84808773 80.4276848 17.34749941 83.85607334 19.83203125 87.296875 C20.4569043 88.15772705 21.08177734 89.0185791 21.72558594 89.90551758 C22.9204401 91.5524916 24.11018279 93.20319019 25.29394531 94.8581543 C29.35733864 100.43959957 32.98803681 104.71284681 39.8125 106.75 C40.99779297 107.11351562 40.99779297 107.11351562 42.20703125 107.484375 C42.79871094 107.65453125 43.39039063 107.8246875 44 108 C44 108.99 44 109.98 44 111 C40.22931943 111.08849232 36.45891235 111.14088454 32.6875 111.1875 C31.63498047 111.21263672 30.58246094 111.23777344 29.49804688 111.26367188 C18.87607676 111.36172083 8.7153278 109.40007431 0 103 C-4.98217741 98.01993338 -9.12266395 92.2945689 -13.1875 86.5625 C-13.73486816 85.79405762 -14.28223633 85.02561523 -14.84619141 84.23388672 C-15.98680045 82.6319371 -17.12611462 81.02906475 -18.26416016 79.42529297 C-20.00195534 76.99726803 -21.76842313 74.59266657 -23.54296875 72.19140625 C-24.65382144 70.66939899 -25.76450503 69.14726829 -26.875 67.625 C-27.40504639 66.91802979 -27.93509277 66.21105957 -28.48120117 65.48266602 C-28.95920166 64.82065186 -29.43720215 64.1586377 -29.9296875 63.4765625 C-30.35491699 62.89986816 -30.78014648 62.32317383 -31.21826172 61.72900391 C-32 60 -32 60 -31.79614258 58.01147461 C-30.90827701 55.76825951 -29.84324453 54.21964564 -28.33203125 52.33984375 C-27.77531738 51.63794922 -27.21860352 50.93605469 -26.64501953 50.21289062 C-26.04028809 49.46201172 -25.43555664 48.71113281 -24.8125 47.9375 C-18.99597793 40.59950217 -13.36919793 33.15164671 -7.86425781 25.57739258 C-4.16971488 20.51459843 -0.35164742 15.67267536 3.83984375 11.0078125 C5.27437179 8.98362676 5.27437179 8.98362676 4.69140625 6.2421875 C4.34916016 5.13230469 4.34916016 5.13230469 4 4 C2.68 3.67 1.36 3.34 0 3 C0 2.01 0 1.02 0 0 Z " fill="#FFFFFF" transform="translate(1106,183)"/>
<path d="M0 0 C2.26321702 -0.11635194 4.52487187 -0.19302013 6.79003906 -0.26025391 C7.87200562 -0.31765747 7.87200562 -0.31765747 8.97583008 -0.3762207 C12.95973411 -0.43806957 14.64891633 -0.04712859 17.80566406 2.46240234 C19.88910487 5.16212812 20.56467463 6.75632774 20.85253906 10.11474609 C21.51253906 10.11474609 22.17253906 10.11474609 22.85253906 10.11474609 C24.25489425 12.91945648 25.65606698 15.72467815 27.05175781 18.53271484 C28.27748697 20.98757229 29.53343751 23.42401379 30.80957031 25.85302734 C31.12917725 26.46968262 31.44878418 27.08633789 31.77807617 27.72167969 C32.68988583 29.47965058 33.61086358 31.23285703 34.53222656 32.98583984 C35.83737104 36.07880057 36.30081097 37.81994756 35.85253906 41.11474609 C33.97753906 44.42724609 33.97753906 44.42724609 31.85253906 47.11474609 C31.19253906 47.11474609 30.53253906 47.11474609 29.85253906 47.11474609 C29.60117187 47.67677734 29.34980469 48.23880859 29.09082031 48.81787109 C27.66402647 51.46441614 25.9930942 53.57933549 24.04003906 55.86474609 C23.37359375 56.66396484 22.70714844 57.46318359 22.02050781 58.28662109 C19.85253906 60.11474609 19.85253906 60.11474609 17.27441406 60.61865234 C14.85253906 60.11474609 14.85253906 60.11474609 13.26269531 58.53271484 C12.81796875 57.79666016 12.37324219 57.06060547 11.91503906 56.30224609 C11.41101563 55.47982422 10.90699219 54.65740234 10.38769531 53.81005859 C8.32906059 50.19566175 6.32249725 46.55795514 4.36425781 42.88818359 C2.86857441 40.14416494 1.28867109 37.47221876 -0.33496094 34.80224609 C-6.14746094 25.20628153 -6.14746094 25.20628153 -6.14746094 22.11474609 C-6.80746094 22.11474609 -7.46746094 22.11474609 -8.14746094 22.11474609 C-9.11091537 20.24237238 -10.06799196 18.36671619 -11.02246094 16.48974609 C-11.55613281 15.44560547 -12.08980469 14.40146484 -12.63964844 13.32568359 C-14.08028169 10.25780656 -15.34445856 7.40982481 -16.14746094 4.11474609 C-14.14746094 1.11474609 -14.14746094 1.11474609 -11.92480469 0.60302734 C-7.95087586 0.35704826 -3.97523128 0.21241004 0 0 Z " fill="#FFFFFF" transform="translate(517.1474609375,77.88525390625)"/>
<path d="M0 0 C0.89847656 0.09023437 1.79695313 0.18046875 2.72265625 0.2734375 C4.9375 0.625 4.9375 0.625 5.9375 1.625 C9.46821729 1.69808082 12.98871564 1.62104202 16.51953125 1.5625 C19.30741393 1.61347843 21.29581348 1.93712102 23.9375 2.625 C25.175 2.439375 26.4125 2.25375 27.6875 2.0625 C30.94321862 1.97666184 31.80351293 2.5033568 34.26953125 4.7421875 C36.39044794 7.3051166 38.3271469 9.71168314 39.9375 12.625 C39.6075 13.615 39.2775 14.605 38.9375 15.625 C37.31286158 15.67895478 35.68771459 15.71777195 34.0625 15.75 C32.70511719 15.78480469 32.70511719 15.78480469 31.3203125 15.8203125 C28.9375 15.625 28.9375 15.625 26.9375 13.625 C26.9375 14.285 26.9375 14.945 26.9375 15.625 C28.02302366 16.93762571 28.02302366 16.93762571 30.66015625 16.72265625 C31.76230469 16.71105469 32.86445313 16.69945312 34 16.6875 C35.10472656 16.67847656 36.20945313 16.66945312 37.34765625 16.66015625 C38.62962891 16.64275391 38.62962891 16.64275391 39.9375 16.625 C39.56640625 18.546875 39.56640625 18.546875 38.9375 20.625 C36.875 21.875 36.875 21.875 34.9375 22.625 C34.9375 23.285 34.9375 23.945 34.9375 24.625 C33.38861498 26.04206502 31.76988466 27.38309496 30.125 28.6875 C29.1246875 29.4815625 28.124375 30.275625 27.09375 31.09375 C26.57167969 31.50753906 26.04960937 31.92132813 25.51171875 32.34765625 C23.96679908 33.6012263 22.46699763 34.9097547 20.96875 36.21875 C20.0303125 37.0334375 19.091875 37.848125 18.125 38.6875 C17.27292969 39.44160156 16.42085937 40.19570312 15.54296875 40.97265625 C12.36898038 42.98554543 10.63117329 43.17576661 6.9375 42.625 C4.62491767 40.9147647 3.58906085 39.05376595 1.9375 36.625 C1.9375 35.965 1.9375 35.305 1.9375 34.625 C1.2775 34.625 0.6175 34.625 -0.0625 34.625 C-1.76713142 32.23732811 -3.36857746 29.84959794 -4.9375 27.375 C-7.71696539 23.01198163 -10.38458648 19.28642064 -14.0625 15.625 C-15.0625 12.125 -15.0625 12.125 -15.0625 8.625 C-13.25 6.1875 -13.25 6.1875 -11.0625 4.625 C-10.4025 4.625 -9.7425 4.625 -9.0625 4.625 C-9.0625 3.965 -9.0625 3.305 -9.0625 2.625 C-8.4025 2.625 -7.7425 2.625 -7.0625 2.625 C-7.0625 1.965 -7.0625 1.305 -7.0625 0.625 C-4.46138792 -0.67555604 -2.87508678 -0.30612435 0 0 Z M25.9375 10.625 C26.9375 12.625 26.9375 12.625 26.9375 12.625 Z M-11.0625 11.625 C-7.0625 12.625 -7.0625 12.625 -7.0625 12.625 Z M-3.0625 12.625 C-2.0725 14.11 -2.0725 14.11 -1.0625 15.625 C-0.4025 14.635 0.2575 13.645 0.9375 12.625 C-0.3825 12.625 -1.7025 12.625 -3.0625 12.625 Z M7.9375 13.625 C7.9375 13.955 7.9375 14.285 7.9375 14.625 C9.5875 14.625 11.2375 14.625 12.9375 14.625 C12.9375 14.295 12.9375 13.965 12.9375 13.625 C11.2875 13.625 9.6375 13.625 7.9375 13.625 Z M-1.0625 15.625 C-0.0625 17.625 -0.0625 17.625 -0.0625 17.625 Z M-0.0625 19.625 C0.9375 21.625 0.9375 21.625 0.9375 21.625 Z M0.9375 21.625 C1.9375 23.625 1.9375 23.625 1.9375 23.625 Z M1.9375 24.625 C2.9375 26.625 2.9375 26.625 2.9375 26.625 Z M2.9375 26.625 C3.9375 28.625 3.9375 28.625 3.9375 28.625 Z " fill="#FFFFFF" transform="translate(206.0625,174.375)"/>
<path d="M0 0 C2.00097165 5.82100843 -0.68966026 10.30911439 -3.22119141 15.5078125 C-5.42715801 18.59846678 -6.82079024 18.97112099 -10.4453125 19.9375 C-17.03835914 21.91481842 -22.82563308 24.75007415 -28.875 28 C-29.86757812 28.52078125 -30.86015625 29.0415625 -31.8828125 29.578125 C-35.87318427 31.69067476 -39.80349319 33.78267852 -43.515625 36.359375 C-46.29194728 38.19279537 -47.73915548 38.38362877 -51 38 C-50.95875 36.783125 -50.9175 35.56625 -50.875 34.3125 C-50.8624045 30.74797463 -51.50756959 28.26469152 -53 25 C-53 24.01 -53 23.02 -53 22 C-53.59167969 22.15597656 -54.18335938 22.31195313 -54.79296875 22.47265625 C-62.64147627 24.4059754 -62.64147627 24.4059754 -67 23 C-66.68817931 21.58318366 -66.37551263 20.16655349 -66.0625 18.75 C-65.88847656 17.96109375 -65.71445313 17.1721875 -65.53515625 16.359375 C-65.0524228 14.23111951 -64.53292972 12.11610189 -64 10 C-62.75017334 9.81207886 -62.75017334 9.81207886 -61.47509766 9.62036133 C-57.52422866 9.02309915 -53.57430691 8.41999643 -49.625 7.8125 C-48.54838104 7.64701157 -48.54838104 7.64701157 -47.45001221 7.47817993 C-36.29295102 5.75456838 -25.21118591 3.79852868 -14.15087891 1.5246582 C-9.36272922 0.55713893 -4.91643888 -0.29364396 0 0 Z " fill="#FFFFFF" transform="translate(191,111)"/>
<path d="M0 0 C0.99 0 1.98 0 3 0 C3.29390625 0.804375 3.29390625 0.804375 3.59375 1.625 C6.07390356 8.12471277 9.0723306 14.25289409 12.35742188 20.37695312 C15.83043799 27.05381019 15.83043799 27.05381019 15 31 C13.13671875 33.9375 13.13671875 33.9375 10.6875 37 C7.28927079 41.28637461 7.28927079 41.28637461 4.33203125 45.875 C3.89246094 46.57625 3.45289063 47.2775 3 48 C2.34 48 1.68 48 1 48 C0.76023437 48.70125 0.52046875 49.4025 0.2734375 50.125 C-1.21704462 53.49001485 -3.13460574 56.08227724 -5.375 59 C-6.14585937 60.010625 -6.91671875 61.02125 -7.7109375 62.0625 C-9.18885931 63.95908225 -10.69258525 65.83596255 -12.2265625 67.6875 C-14.16713749 69.95744156 -14.16713749 69.95744156 -15 73 C-15.66 73 -16.32 73 -17 73 C-17.309375 73.78375 -17.61875 74.5675 -17.9375 75.375 C-19 78 -19 78 -20 80 C-20.66 80 -21.32 80 -22 80 C-22.20625 80.66 -22.4125 81.32 -22.625 82 C-24.49124252 86.07180186 -26.97561527 89.68796998 -30 93 C-30.66 93 -31.32 93 -32 93 C-31.32264158 87.51874439 -29.60411756 82.60581612 -27.75 77.4375 C-27.27312744 76.09099365 -27.27312744 76.09099365 -26.78662109 74.71728516 C-25.13347534 70.07527861 -23.42905101 65.46082197 -21.625 60.875 C-17.8075588 51.11792166 -14.52681628 41.1605176 -11.12109375 31.25439453 C-9.46839642 26.4568215 -7.79967609 21.66493867 -6.125 16.875 C-5.85123535 16.08923584 -5.5774707 15.30347168 -5.29541016 14.49389648 C-3.59635529 9.6363692 -1.82246868 4.81262688 0 0 Z " fill="#FFFFFF" transform="translate(478,46)"/>
<path d="M0 0 C12.7899972 -0.05826667 25.56664527 0.07495105 38.35327148 0.37231445 C41.19572877 0.43768926 44.03826996 0.49732339 46.88085938 0.55664062 C51.41513898 0.65469635 55.94788761 0.78144148 60.480896 0.92645264 C62.90343114 0.99718059 65.3253622 1.04056616 67.74853516 1.08251953 C69.18266998 1.1275817 70.61675732 1.17419328 72.05078125 1.22265625 C73.28094971 1.25238525 74.51111816 1.28211426 75.77856445 1.31274414 C79.88255386 2.18828261 81.35571134 3.81100326 84 7 C85.25430266 8.93751949 86.44291834 10.91913585 87.5625 12.9375 C89.41859903 16.24761096 91.24430503 19.44817739 93.5 22.5 C95 25 95 25 94.75 27.375 C94.5025 27.91125 94.255 28.4475 94 29 C86.7799681 28.38365581 80.17531026 26.45116156 73.25 24.375 C71.25088129 23.78383035 69.25103828 23.19515164 67.25117493 22.60650635 C65.75918099 22.16721369 64.267398 21.72720409 62.77580261 21.28656006 C52.15436025 18.15179452 41.51085452 15.09289743 30.86975098 12.0256958 C27.33698503 11.00706 23.804683 9.98682859 20.27246094 8.96630859 C18.07358325 8.3316519 15.87469068 7.69704674 13.67578125 7.0625 C12.65726578 6.76808014 11.63875031 6.47366028 10.58937073 6.1703186 C9.64762497 5.89884003 8.70587921 5.62736145 7.7355957 5.34765625 C6.91420609 5.11054932 6.09281647 4.87344238 5.24653625 4.62915039 C3.1721605 4.04821416 1.09266983 3.51059832 -1 3 C-0.67 2.01 -0.34 1.02 0 0 Z " fill="#FFFFFF" transform="translate(453,147)"/>
<path d="M0 0 C4.14781143 0.76042457 8.29281461 1.53523229 12.4375 2.3125 C13.60216797 2.52583984 14.76683594 2.73917969 15.96679688 2.95898438 C33.04607781 6.18239796 33.04607781 6.18239796 37.015625 9.875 C37.42296875 10.57625 37.8303125 11.2775 38.25 12 C38.71148438 12.78761719 39.17296875 13.57523438 39.6484375 14.38671875 C46 26.66763006 46 26.66763006 46 32 C37.58881514 33.15306329 29.17533536 34.16714371 20.6875 34.5 C19.49511719 34.5515625 18.30273438 34.603125 17.07421875 34.65625 C14 34 14 34 11.73046875 31.3203125 C10.19093484 28.36635353 8.83025707 25.47789585 7.625 22.375 C5.44184891 16.90347758 2.85974887 11.76269252 0.0390625 6.59375 C-1.12114771 3.69758617 -0.88239688 2.87064984 0 0 Z " fill="#FFFFFF" transform="translate(485,43)"/>
<path d="M0 0 C2.0625 0.4375 2.0625 0.4375 4 1 C4.33 2.32 4.66 3.64 5 5 C5.66 5 6.32 5 7 5 C10.75700425 10.51809999 11.74968289 14.31720726 11 21 C10.14677766 24.29684843 8.95954603 27.40669968 7.6875 30.5625 C7.37876953 31.36107422 7.07003906 32.15964844 6.75195312 32.98242188 C6.14183247 34.55845986 5.52593998 36.13227771 4.90380859 37.70361328 C3.55925548 41.11983873 2.28084791 44.55944546 1 48 C-3.12216872 47.28928126 -4.80038587 45.61205514 -7.24267578 42.33007812 C-7.83798096 41.4396582 -7.83798096 41.4396582 -8.4453125 40.53125 C-8.88230469 39.87769531 -9.31929687 39.22414062 -9.76953125 38.55078125 C-10.21683594 37.87402344 -10.66414062 37.19726562 -11.125 36.5 C-11.58003906 35.82324219 -12.03507813 35.14648438 -12.50390625 34.44921875 C-12.93832031 33.79566406 -13.37273438 33.14210937 -13.8203125 32.46875 C-14.41223389 31.57833008 -14.41223389 31.57833008 -15.01611328 30.66992188 C-16 29 -16 29 -17 26 C-16.07543945 24.01049805 -16.07543945 24.01049805 -14.61328125 21.76171875 C-14.08669922 20.94123047 -13.56011719 20.12074219 -13.01757812 19.27539062 C-12.45490234 18.42138672 -11.89222656 17.56738281 -11.3125 16.6875 C-10.76916016 15.84509766 -10.22582031 15.00269531 -9.66601562 14.13476562 C-8.12289162 11.74824131 -6.56499207 9.37222592 -5 7 C-4.58669434 6.3704541 -4.17338867 5.7409082 -3.74755859 5.09228516 C-1.13491322 1.13491322 -1.13491322 1.13491322 0 0 Z " fill="#FFFFFF" transform="translate(554,120)"/>
</svg>
