<?xml version="1.0" encoding="UTF-8"?>
<svg version="1.1" xmlns="http://www.w3.org/2000/svg" width="1100" height="406">
<path d="M0 0 C0.67498535 0.03577148 1.3499707 0.07154297 2.04541016 0.10839844 C31.48771553 1.87946137 58.16321318 12.67930248 78 35 C85.70551185 44.54380493 90.70644177 55.58418635 95 67 C95.58007812 66.02160156 95.58007812 66.02160156 96.171875 65.0234375 C99.00609071 60.26700619 101.85371779 55.55668458 105 51 C105.804375 49.824375 105.804375 49.824375 106.625 48.625 C107.07875 48.08875 107.5325 47.5525 108 47 C108.66 47 109.32 47 110 47 C110.3403125 46.17242187 110.3403125 46.17242187 110.6875 45.328125 C112.38725926 42.31307583 114.54804816 40.18769631 117 37.75 C117.886875 36.85796875 118.77375 35.9659375 119.6875 35.046875 C122 33 122 33 124 33 C124 32.34 124 31.68 124 31 C127.43049273 28.32525297 131.25010636 26.19565472 135 24 C135.62148926 23.63390625 136.24297852 23.2678125 136.88330078 22.890625 C147.82202465 16.53893249 158.81979083 12.3318693 171 9 C172.64162109 8.52433594 172.64162109 8.52433594 174.31640625 8.0390625 C208.2576677 -0.89983556 250.63618668 2.40243529 284 12 C285.54230977 13.54230977 285.16247487 15.0040971 285.20532227 17.15258789 C285.22526749 18.03342545 285.24521271 18.914263 285.26576233 19.8217926 C285.29083107 21.25772011 285.29083107 21.25772011 285.31640625 22.72265625 C285.33718735 23.69786728 285.35796844 24.67307831 285.37937927 25.67784119 C285.44498412 28.8059863 285.50381028 31.93421822 285.5625 35.0625 C285.60567483 37.1777435 285.64928877 39.29297809 285.69335938 41.40820312 C285.80067661 46.60537884 285.90191284 51.80264222 286 57 C287.98 51.72 289.96 46.44 292 41 C292.66 41 293.32 41 294 41 C294.309375 40.38125 294.61875 39.7625 294.9375 39.125 C295.625 37.75 296.3125 36.375 297 35 C297.66 35 298.32 35 299 35 C299.23976563 34.42894531 299.47953125 33.85789063 299.7265625 33.26953125 C308.03710018 18.45841961 328.93891714 11.77072627 344.29003906 7.33886719 C349.15283688 6.03055831 354.04388017 4.89504742 359 4 C360.41551147 3.73509766 360.41551147 3.73509766 361.85961914 3.46484375 C372.8214594 1.64207468 383.7255187 1.60558501 394.8125 1.625 C395.81879456 1.62454681 396.82508911 1.62409363 397.86187744 1.62362671 C421.86317406 1.65521549 444.35373855 4.56632598 468 9 C468 23.85 468 38.7 468 54 C463.50365969 53.35766567 459.32222883 52.6845562 454.9375 51.66015625 C453.81819092 51.40258545 452.69888184 51.14501465 451.5456543 50.87963867 C450.37558838 50.60998291 449.20552246 50.34032715 448 50.0625 C438.34852643 47.88247059 428.86283431 45.91941676 419 45 C417.95585938 44.89042969 416.91171875 44.78085938 415.8359375 44.66796875 C386.21528564 41.57469274 386.21528564 41.57469274 359 51 C355.15933983 54.36807894 351.83253309 57.7791766 350.875 62.9375 C350.69770226 68.58886543 351.90254069 73.60987195 355.6796875 77.9140625 C371.23258314 91.2367316 397.60269278 95.75134864 417 100.5625 C433.15601666 104.62224416 448.32569802 111.19584506 463 119 C463 119.66 463 120.32 463 121 C463.57234375 121.2578125 464.1446875 121.515625 464.734375 121.78125 C467.21128995 123.11365942 469.1341166 124.65056118 471.25 126.5 C472.30960938 127.41265625 472.30960938 127.41265625 473.390625 128.34375 C475 130 475 130 475 132 C475.66 132 476.32 132 477 132 C478.1337692 134.01592653 479.25661641 136.03799747 480.375 138.0625 C481.00148438 139.18785156 481.62796875 140.31320313 482.2734375 141.47265625 C489.29072857 155.80888665 488.71831935 175.05865538 484 190 C475.66893643 209.50526789 459.4238738 222.37579698 440.12939453 230.17285156 C433.84130833 232.61541474 427.58494165 234.52316267 421 236 C419.71754395 236.29414795 419.71754395 236.29414795 418.40917969 236.59423828 C380.58402391 244.77608574 332.96944569 244.31047668 296.72705078 230.109375 C288.00501112 226.82999243 281.67766347 228.96044246 273.125 231.8125 C260.99928068 235.66430817 248.58824385 237.38158993 236 239 C235.26128662 239.1045752 234.52257324 239.20915039 233.76147461 239.31689453 C226.51735263 240.26314157 219.23269189 240.24271499 211.9375 240.25 C211.23601837 240.25100708 210.53453674 240.25201416 209.8117981 240.25305176 C191.55962805 240.23544608 173.42990273 238.73887787 156 233 C155.01894287 232.67708984 155.01894287 232.67708984 154.01806641 232.34765625 C141.48087837 228.14186183 130.80066716 222.14939707 120.0625 214.4375 C119.43529053 213.99059814 118.80808105 213.54369629 118.16186523 213.08325195 C114.1246374 210.10762326 110.98773975 207.04223613 108 203 C108 202.34 108 201.68 108 201 C107.01 200.67 106.02 200.34 105 200 C105 199.34 105 198.68 105 198 C104.34 198 103.68 198 103 198 C102.16151196 196.54462432 101.32936066 195.08559627 100.5 193.625 C100.0359375 192.81289062 99.571875 192.00078125 99.09375 191.1640625 C98 189 98 189 98 187 C97.34 187 96.68 187 96 187 C87.97221318 169.83947817 81.89290856 151.16615937 82 132 C81.38213843 132.0154612 80.76427687 132.03092239 80.12769222 132.04685211 C64.98150921 132.42566741 49.83525012 132.80127245 34.68890285 133.17345428 C27.36377066 133.35352494 20.03866663 133.53461893 12.71362305 133.71826172 C6.31717454 133.87862138 -0.07932138 134.03691882 -6.47587818 134.19290113 C-9.85192973 134.27529515 -13.22793894 134.35891977 -16.60391426 134.44441223 C-32.74000164 134.85229114 -48.8586159 135.09313154 -65 135 C-62.4493138 154.27891066 -57.34586036 169.33520536 -41.5625 181.75 C-14.00480528 199.93549901 24.89811989 193.59670782 55.3125 188.0625 C56.36490372 187.8717691 56.36490372 187.8717691 57.43856812 187.67718506 C64.96301558 186.29946777 72.35972937 184.78218356 79.65698242 182.45092773 C82 182 82 182 87 183 C87 196.53 87 210.06 87 224 C81.52055669 227.13111046 79.0313648 228.51932958 73.2734375 229.59765625 C72.00443604 229.84040283 70.73543457 230.08314941 69.42797852 230.33325195 C68.07712612 230.57711388 66.72612994 230.82018052 65.375 231.0625 C63.97899198 231.32135605 62.58307791 231.58071924 61.18725586 231.84057617 C53.33314197 233.28788605 45.4636708 234.64681565 37.5625 235.8125 C36.81597168 235.92408447 36.06944336 236.03566895 35.30029297 236.15063477 C22.01442155 237.97290456 8.57708944 238.20793981 -4.8125 238.1875 C-5.55157593 238.18689575 -6.29065186 238.1862915 -7.05212402 238.18566895 C-23.59202208 238.14909401 -39.21125159 237.44071736 -55 232 C-55.65097656 231.77795898 -56.30195312 231.55591797 -56.97265625 231.32714844 C-70.07444307 226.80864796 -82.37475434 221.12496919 -93 212 C-93 211.34 -93 210.68 -93 210 C-93.66 210 -94.32 210 -95 210 C-95 209.34 -95 208.68 -95 208 C-95.99 207.67 -96.98 207.34 -98 207 C-105.30739115 199.70728233 -110.30510457 190.89174029 -115.046875 181.82177734 C-115.84594159 180.29446307 -116.67005583 178.780289 -117.5 177.26953125 C-123.89270381 164.70387281 -126.80426018 149.00292541 -127 135 C-127.01369629 134.15147461 -127.02739258 133.30294922 -127.04150391 132.42871094 C-127.44563383 103.76956944 -123.63193825 79.48274876 -110 54 C-109.4946875 53.04867187 -108.989375 52.09734375 -108.46875 51.1171875 C-104.81017395 44.63337772 -100.14276031 39.3542383 -95 34 C-94.175 33.13375 -93.35 32.2675 -92.5 31.375 C-66.97599703 7.12719718 -34.87867405 -1.89872072 0 0 Z M-51.515625 58.203125 C-59.97089977 68.43845761 -65.09211721 81.7144986 -65 95 C-56.40847643 94.89041711 -47.81700559 94.777457 -39.22557735 94.66066074 C-35.23235293 94.60647081 -31.23912148 94.55326901 -27.24584961 94.50268555 C-11.2890029 94.29967697 4.66912107 94.0775942 20.62164116 93.64414787 C22.64125094 93.5909589 24.66109196 93.54679411 26.68092346 93.50282288 C28.48326698 93.44909767 28.48326698 93.44909767 30.32202148 93.39428711 C31.90176003 93.35252602 31.90176003 93.35252602 33.51341248 93.30992126 C36.1724706 93.23701112 36.1724706 93.23701112 38 91 C38.24565394 79.98651495 34.35524873 67.95512321 28 59 C27.34 59 26.68 59 26 59 C25.75507812 58.4121875 25.51015625 57.824375 25.2578125 57.21875 C21.33737736 50.30319981 12.05978727 45.43047298 4.58203125 43.31640625 C-15.70141768 38.97209296 -37.00866965 42.59087782 -51.515625 58.203125 Z M163.3984375 73.30078125 C161.78818055 74.89059916 161.78818055 74.89059916 162 77 C161.34 77 160.68 77 160 77 C159.67 78.65 159.34 80.3 159 82 C158.34 82 157.68 82 157 82 C155.86038192 84.28533038 154.73863075 86.57703178 153.625 88.875 C153.30789063 89.50664062 152.99078125 90.13828125 152.6640625 90.7890625 C147.91766412 100.67739245 147.65947668 110.54678906 147.6875 121.375 C147.67138672 122.6125 147.65527344 123.85 147.63867188 125.125 C147.63313627 135.64265307 149.38258091 144.96894182 153.625 154.625 C154.05039062 155.60726562 154.47578125 156.58953125 154.9140625 157.6015625 C155.58334885 159.07977049 156.27432196 160.54864392 157 162 C157.66 162 158.32 162 159 162 C159.33 163.32 159.66 164.64 160 166 C160.66 166 161.32 166 162 166 C162.226875 166.556875 162.45375 167.11375 162.6875 167.6875 C169.10567122 178.99570644 182.85143244 185.37428487 194.8125 188.75 C221.22164474 195.6219711 258.91142941 191.92915198 283.17578125 178.6015625 C287.24630623 177.25924805 291.43990228 179.48343925 295.17578125 181.109375 C296.65256348 181.7434729 296.65256348 181.7434729 298.15917969 182.39038086 C299.72007324 183.06339233 299.72007324 183.06339233 301.3125 183.75 C317.50016364 190.57470931 332.5470759 194.89700126 350 197 C351.0209375 197.13277344 352.041875 197.26554688 353.09375 197.40234375 C373.96992945 199.64346301 398.03426784 200.41618482 415.26953125 186.62109375 C419.50394292 182.65431984 421.21677298 178.85754883 421.625 173.0625 C421.35448139 167.31179793 419.0843959 163.92305801 415 160 C404.5983532 151.1936978 390.50219484 147.27280029 377.61361694 143.61740112 C375.37557822 142.98243175 373.1413181 142.33534099 370.9074707 141.68579102 C364.57252231 139.84930169 358.2304179 138.04753479 351.859375 136.33984375 C335.12592649 131.8320326 318.39964713 126.35315556 305 115 C304.35289062 114.52304688 303.70578125 114.04609375 303.0390625 113.5546875 C293.41371226 106.19907051 287.88117771 93.75304605 286 82 C285.78414077 78.75525882 285.60942527 75.51310031 285.48242188 72.26367188 C285.37178767 68.18383904 285.37178767 68.18383904 283 65 C280.96224947 64.27469896 278.9186444 63.56352002 276.85546875 62.9140625 C274.80447559 62.25752023 272.76650005 61.55978086 270.73828125 60.8359375 C263.63015397 58.33080291 256.56388102 56.31232304 249.1875 54.75 C248.0420874 54.50552124 248.0420874 54.50552124 246.87353516 54.25610352 C216.87568077 48.18226454 185.80900435 50.75734543 163.3984375 73.30078125 Z " fill="#FFFFFF" transform="translate(578,59)"/>
<path d="M0 0 C1.80117237 1.03312715 3.61429535 2.04220928 5.43066406 3.04833984 C8.3131498 4.65513611 11.1542283 6.32905657 14 8 C14.87914062 8.49113281 15.75828125 8.98226563 16.6640625 9.48828125 C19.87546608 11.50250081 21.66892168 12.73714437 22.65234375 16.48828125 C22.81949699 19.30542481 22.90900253 21.31913466 22 24 C18.51353218 26.4465892 15.14190823 27.71152806 11.0546875 28.83203125 C9.33076782 29.3125293 9.33076782 29.3125293 7.57202148 29.80273438 C6.35200439 30.13595703 5.1319873 30.46917969 3.875 30.8125 C1.32104534 31.5253073 -1.2323408 32.24015474 -3.78515625 32.95703125 C-5.02797363 33.30588379 -6.27079102 33.65473633 -7.55126953 34.01416016 C-11.9158928 35.26181333 -16.2432202 36.60460739 -20.5625 38 C-29.40705078 40.84993271 -38.3096669 43.48959274 -47.22485352 46.109375 C-52.73018744 47.72851827 -58.22568385 49.37153953 -63.70703125 51.0703125 C-69.05217018 52.72234384 -74.41625566 54.27450069 -79.8125 55.75 C-80.61236328 55.97042969 -81.41222656 56.19085938 -82.23632812 56.41796875 C-84.15707776 56.94703751 -86.0784656 57.47378856 -88 58 C-76.82881288 64.48382469 -65.58688705 70.80039976 -54.1875 76.875 C-45.65628883 81.42359731 -37.25506304 86.13443638 -28.9375 91.0625 C-19.75680827 96.49925493 -10.40957087 101.49693536 -0.91577148 106.36279297 C5.4819093 109.65454151 11.79063317 113.05202991 18 116.6875 C18.70632568 117.09774414 19.41265137 117.50798828 20.14038086 117.93066406 C24.87322132 120.74644264 24.87322132 120.74644264 26 123 C26.37476324 126.18317417 26.58058769 129.3498236 26.74609375 132.55078125 C26.89891006 135.90664431 26.89891006 135.90664431 27.66015625 138.73046875 C28.2427951 141.81013127 28.33947144 143.12773135 27 146 C21.58019418 150.9126002 14.09609046 155.78263671 6.6875 156.17578125 C1.0470024 154.37727513 -3.83714252 151.47136906 -8.9375 148.5 C-10.04254883 147.86940674 -11.14759766 147.23881348 -12.28613281 146.58911133 C-15.530261 144.73657325 -18.76628302 142.87063932 -22 141 C-24.40466769 139.61175198 -26.81009406 138.22513387 -29.22094727 136.84765625 C-30.53153933 136.09829595 -31.83833318 135.34223512 -33.14038086 134.578125 C-36.40662845 132.70466844 -39.25355493 131.48591111 -43 131 C-43 130.01 -43 129.02 -43 128 C-43.86802246 127.73719238 -44.73604492 127.47438477 -45.63037109 127.20361328 C-48.99591536 126.00145901 -51.82852278 124.53668962 -54.9140625 122.7421875 C-56.00460938 122.11699219 -57.09515625 121.49179688 -58.21875 120.84765625 C-60.49882312 119.52720106 -62.77746006 118.204263 -65.0546875 116.87890625 C-66.14265625 116.25628906 -67.230625 115.63367188 -68.3515625 114.9921875 C-69.33979004 114.41839355 -70.32801758 113.84459961 -71.34619141 113.25341797 C-74.11365884 111.7152863 -74.11365884 111.7152863 -78 112 C-78 111.01 -78 110.02 -78 109 C-78.7209082 108.72293213 -79.44181641 108.44586426 -80.18457031 108.16040039 C-82.89496126 107.0432925 -85.4511753 105.79389244 -88.046875 104.43359375 C-88.97371094 103.94826172 -89.90054688 103.46292969 -90.85546875 102.96289062 C-91.81066406 102.45951172 -92.76585938 101.95613281 -93.75 101.4375 C-94.72066406 100.93025391 -95.69132812 100.42300781 -96.69140625 99.90039062 C-103.86921254 96.13078746 -103.86921254 96.13078746 -105 95 C-105.14361673 99.35419801 -104.66698122 103.08783358 -103.625 107.3125 C-102.73843645 110.95278366 -101.87466045 114.5881876 -101.1015625 118.25390625 C-99.94915063 123.47381568 -98.35600698 128.5298382 -96.75 133.625 C-93.93147079 142.69337564 -91.40060771 151.80101039 -89.12988281 161.02197266 C-87.72021606 166.63915706 -85.95526648 171.99706148 -83.92553711 177.41992188 C-82.65836015 180.95237403 -81.75245653 184.47507578 -80.875 188.125 C-80.71032227 188.80369141 -80.54564453 189.48238281 -80.37597656 190.18164062 C-79.18802398 195.10752718 -78.06167977 200.04549441 -77 205 C-80.65056647 207.74029535 -83.62274171 209.89405705 -88.25 210.25 C-92.90919779 208.69693407 -96.77599889 206.38556598 -100.953125 203.82421875 C-103.61366057 202.23130835 -106.25615779 200.87182845 -109.0625 199.5625 C-115.13482732 196.60999077 -125.01817368 191.67472314 -127.77026367 185.18310547 C-129.59588213 179.55123882 -131.02427576 173.90100246 -132.3125 168.125 C-134.09448293 160.38098986 -136.22286124 152.85253035 -138.69848633 145.30493164 C-140.70612662 139.11316177 -142.393782 132.86942193 -144 126.5625 C-146.4797723 116.8438859 -149.26648739 107.25470375 -152.19384766 97.66308594 C-156.01510929 85.03972982 -159.69887739 72.37670113 -163.0234375 59.61328125 C-164.3892793 54.5596666 -165.89247433 49.54825797 -167.42626953 44.54321289 C-168.31718003 41.58764711 -169 39.10596594 -169 36 C-153.38929384 30.38562322 -137.39024206 26.14582626 -121.40351868 21.76176453 C-115.363394 20.10430814 -109.33354657 18.4130826 -103.3125 16.6875 C-102.50723877 16.45724121 -101.70197754 16.22698242 -100.87231445 15.98974609 C-96.93019865 14.85779863 -92.99546907 13.70381653 -89.06640625 12.52734375 C-87.87954224 12.17313354 -87.87954224 12.17313354 -86.66870117 11.81176758 C-85.18980369 11.36896411 -83.71200596 10.92246262 -82.2355957 10.47143555 C-79.37433813 9.61309388 -77.00681602 9 -74 9 C-74 8.34 -74 7.68 -74 7 C-72.53602783 6.82778931 -72.53602783 6.82778931 -71.04248047 6.65209961 C-66.67477808 6.02504238 -62.54132222 4.82788642 -58.3203125 3.56640625 C-57.10201248 3.20940895 -57.10201248 3.20940895 -55.85910034 2.84519958 C-53.27970325 2.08884701 -50.70222919 1.32620395 -48.125 0.5625 C-45.55472966 -0.19697499 -42.98405111 -0.95496321 -40.412323 -1.70948792 C-38.81859565 -2.1772716 -37.22569586 -2.64788831 -35.63381958 -3.12193298 C-20.83954431 -7.47185354 -13.42336632 -8.43344511 0 0 Z " fill="#FFFFFF" transform="translate(169,9)"/>
<path d="M0 0 C3.44703989 1.83769635 6.7208793 3.88069691 10 6 C11.35738281 6.80824219 11.35738281 6.80824219 12.7421875 7.6328125 C15 9 15 9 16 10 C16.11793815 11.6997207 16.16733847 13.40424622 16.18945312 15.10791016 C16.21452942 16.74694809 16.21452942 16.74694809 16.2401123 18.4190979 C16.26047546 20.21098038 16.26047546 20.21098038 16.28125 22.0390625 C16.29965942 23.26724701 16.31806885 24.49543152 16.33703613 25.76083374 C16.39599702 29.71550081 16.4486612 33.67022901 16.5 37.625 C16.59573647 56.12395475 16.59573647 56.12395475 17.52734375 74.58984375 C18.45039777 86.33780402 18.10329733 98.16246651 18.0625 109.9375 C18.05747477 112.47070224 18.05291367 115.00390545 18.04882812 117.53710938 C18.03790404 123.69142761 18.02124711 129.8457092 18 136 C18.78375 135.175 19.5675 134.35 20.375 133.5 C23 131 23 131 25 131 C25.33 130.01 25.66 129.02 26 128 C26.66 128 27.32 128 28 128 C28.226875 127.443125 28.45375 126.88625 28.6875 126.3125 C30.37550036 123.33840412 32.46676517 121.27991135 35 119 C35.66 119 36.32 119 37 119 C37.20778076 118.46624756 37.41556152 117.93249512 37.62963867 117.38256836 C39.54821079 114.04685745 42.20153657 111.55334222 44.92578125 108.87890625 C45.5103862 108.2971312 46.09499115 107.71535614 46.6973114 107.11595154 C48.56438702 105.26004158 50.43828434 103.41119648 52.3125 101.5625 C53.5623092 100.32272942 54.81166318 99.08249975 56.06054688 97.84179688 C58.3660834 95.55255606 60.67425764 93.26604865 62.9855957 90.98266602 C65.66753309 88.33218466 68.33500049 85.66751868 71 83 C72.17107786 81.83903911 73.34287713 80.67880514 74.515625 79.51953125 C75.76045512 78.28389291 77.00524615 77.04821518 78.25 75.8125 C78.88679687 75.18408203 79.52359375 74.55566406 80.1796875 73.90820312 C80.78554688 73.30556641 81.39140625 72.70292969 82.015625 72.08203125 C82.56508789 71.53780518 83.11455078 70.9935791 83.68066406 70.43286133 C85.10726152 69.0161937 85.10726152 69.0161937 86 67 C86.66 67 87.32 67 88 67 C88 66.34 88 65.68 88 65 C88.66 65 89.32 65 90 65 C90.33 64.01 90.66 63.02 91 62 C91.66 62 92.32 62 93 62 C93 61.34 93 60.68 93 60 C93.66 60 94.32 60 95 60 C95 59.34 95 58.68 95 58 C97.59444399 57.02264096 98.67418334 56.86822773 101.2890625 57.92578125 C102.05992187 58.38339844 102.83078125 58.84101563 103.625 59.3125 C104.40101563 59.76238281 105.17703125 60.21226562 105.9765625 60.67578125 C108 62 108 62 110 64 C110.29529924 66.8547479 110.47063378 69.61770716 110.5546875 72.48046875 C110.58354034 73.32668289 110.61239319 74.17289703 110.64212036 75.04475403 C110.69925028 76.83932915 110.75101065 78.63408193 110.79785156 80.42895508 C110.87423849 83.16027123 110.98315301 85.8890243 111.09375 88.61914062 C111.14524017 90.36452517 111.19478097 92.10996852 111.2421875 93.85546875 C111.29655472 95.07148018 111.29655472 95.07148018 111.35202026 96.3120575 C111.45497499 102.05707341 110.34367515 105.29545729 107 110 C103.8125 112.3125 103.8125 112.3125 101 114 C100.67 114.66 100.34 115.32 100 116 C99.34 116 98.68 116 98 116 C98 116.66 98 117.32 98 118 C95.625 120.625 95.625 120.625 93 123 C92.34 123 91.68 123 91 123 C91 123.66 91 124.32 91 125 C89.37322937 126.72980985 87.7175551 128.36377759 86 130 C84.81141942 131.17206784 83.625374 132.34671018 82.44140625 133.5234375 C81.80783203 134.1525 81.17425781 134.7815625 80.52148438 135.4296875 C79.87501953 136.07164062 79.22855469 136.71359375 78.5625 137.375 C77.91990234 138.00921875 77.27730469 138.6434375 76.61523438 139.296875 C72.9363842 142.95705081 69.48820796 146.68530736 66.24194336 150.73681641 C65.83210205 151.15366699 65.42226074 151.57051758 65 152 C64.34 152 63.68 152 63 152 C62.75088867 152.57580811 62.50177734 153.15161621 62.24511719 153.74487305 C60.81993007 156.32613842 59.18709488 158.0234011 57.078125 160.08203125 C55.91023438 161.23348633 55.91023438 161.23348633 54.71875 162.40820312 C53.49671875 163.59833008 53.49671875 163.59833008 52.25 164.8125 C45.66407375 171.22388783 45.66407375 171.22388783 39.546875 178.07421875 C38.70640625 179.03972656 37.8659375 180.00523437 37 181 C36.34 181 35.68 181 35 181 C34.67 181.99 34.34 182.98 34 184 C32.91333068 185.15458616 31.81571407 186.30063908 30.66796875 187.39453125 C29.33330622 188.679183 28.03020504 189.99659413 26.73828125 191.32421875 C25.53751953 192.55591797 25.53751953 192.55591797 24.3125 193.8125 C23.54550781 194.60269531 22.77851563 195.39289063 21.98828125 196.20703125 C20 198 20 198 18 198 C18 198.66 18 199.32 18 200 C17.34 200 16.68 200 16 200 C16 200.66 16 201.32 16 202 C15.34 202 14.68 202 14 202 C13.76152344 202.56589844 13.52304688 203.13179687 13.27734375 203.71484375 C11.7277243 206.48709873 9.83964175 208.35266293 7.5625 210.5625 C6.78003906 211.32691406 5.99757813 212.09132813 5.19140625 212.87890625 C4.46824219 213.57886719 3.74507813 214.27882813 3 215 C1.99780943 215.99780462 0.99678975 216.99680002 0 218 C-0.99 217.67 -1.98 217.34 -3 217 C-3 216.34 -3 215.68 -3 215 C-3.8971875 214.566875 -3.8971875 214.566875 -4.8125 214.125 C-7 213 -7 213 -10 211 C-10 210.34 -10 209.68 -10 209 C-10.55429688 208.77441406 -11.10859375 208.54882812 -11.6796875 208.31640625 C-14.68506155 206.61133714 -16.72987003 204.42200049 -19.125 201.9375 C-22.24105765 198.53546517 -22.24105765 198.53546517 -26 196 C-26 195.34 -26 194.68 -26 194 C-26.66 194 -27.32 194 -28 194 C-29.625 192.625 -29.625 192.625 -31 191 C-31 190.34 -31 189.68 -31 189 C-31.66 189 -32.32 189 -33 189 C-33 188.34 -33 187.68 -33 187 C-33.57234375 186.7421875 -34.1446875 186.484375 -34.734375 186.21875 C-37.21128995 184.88634058 -39.1341166 183.34943882 -41.25 181.5 C-41.95640625 180.8915625 -42.6628125 180.283125 -43.390625 179.65625 C-45 178 -45 178 -45 176 C-45.66 176 -46.32 176 -47 176 C-49.625 173.625 -49.625 173.625 -52 171 C-52 170.34 -52 169.68 -52 169 C-52.66 169 -53.32 169 -54 169 C-54 168.34 -54 167.68 -54 167 C-54.66 167 -55.32 167 -56 167 C-56 166.34 -56 165.68 -56 165 C-56.99 164.67 -57.98 164.34 -59 164 C-59 163.34 -59 162.68 -59 162 C-59.556875 161.773125 -60.11375 161.54625 -60.6875 161.3125 C-63.65280356 159.62948987 -65.6182465 157.44077655 -68 155 C-69.72791784 153.24876692 -71.45707224 151.49875302 -73.1875 149.75 C-74.47720703 148.44289063 -74.47720703 148.44289063 -75.79296875 147.109375 C-77.81431066 144.97005762 -77.81431066 144.97005762 -80 144 C-80 143.34 -80 142.68 -80 142 C-80.66 142 -81.32 142 -82 142 C-84.625 139.625 -84.625 139.625 -87 137 C-87 136.34 -87 135.68 -87 135 C-87.66 135 -88.32 135 -89 135 C-89 134.34 -89 133.68 -89 133 C-89.639375 132.731875 -90.27875 132.46375 -90.9375 132.1875 C-93 131 -93 131 -94 128 C-95.31945919 127.3062784 -96.65541117 126.64366382 -98 126 C-99.39040317 124.79105797 -100.73405926 123.52722709 -102.0390625 122.2265625 C-102.78414062 121.4840625 -103.52921875 120.7415625 -104.296875 119.9765625 C-105.44929688 118.81253906 -105.44929688 118.81253906 -106.625 117.625 C-107.40101562 116.85671875 -108.17703125 116.0884375 -108.9765625 115.296875 C-109.7190625 114.55179687 -110.4615625 113.80671875 -111.2265625 113.0390625 C-112.24097412 112.02126709 -112.24097412 112.02126709 -113.27587891 110.98291016 C-116.06981634 107.76960517 -117.24264222 105.08676649 -117.30639648 100.82983398 C-117.32238388 100.01896835 -117.33837128 99.20810272 -117.35484314 98.37266541 C-117.36020584 97.50589676 -117.36556854 96.63912811 -117.37109375 95.74609375 C-117.38012222 94.84883072 -117.3891507 93.95156769 -117.39845276 93.02711487 C-117.41293952 91.13342623 -117.42183808 89.23968771 -117.42553711 87.34594727 C-117.43747336 84.44397561 -117.48670579 81.54410368 -117.53710938 78.64257812 C-117.54656932 76.80209371 -117.5538064 74.96159625 -117.55859375 73.12109375 C-117.57812607 72.25230087 -117.59765839 71.383508 -117.61778259 70.48838806 C-117.60067766 68.21518942 -117.54546345 66.20696004 -117 64 C-114.56280245 61.90649397 -113.21888792 61 -110 61 C-110 60.34 -110 59.68 -110 59 C-108.35 59 -106.7 59 -105 59 C-105 59.66 -105 60.32 -105 61 C-104.41734375 61.25394531 -103.8346875 61.50789063 -103.234375 61.76953125 C-100.75811967 63.13320333 -99.19479374 64.64225203 -97.25 66.6875 C-92.65236508 71.40433286 -87.75342596 75.68033292 -82.71875 79.921875 C-81.9865625 80.54578125 -81.254375 81.1696875 -80.5 81.8125 C-79.8296875 82.37582031 -79.159375 82.93914062 -78.46875 83.51953125 C-77 85 -77 85 -77 87 C-76.34 87 -75.68 87 -75 87 C-75 87.66 -75 88.32 -75 89 C-74.401875 89.268125 -73.80375 89.53625 -73.1875 89.8125 C-71.00152146 90.99917406 -69.58667406 92.09599113 -68 94 C-68 94.66 -68 95.32 -68 96 C-67.42765625 96.2578125 -66.8553125 96.515625 -66.265625 96.78125 C-63.78871005 98.11365942 -61.8658834 99.65056118 -59.75 101.5 C-59.04359375 102.1084375 -58.3371875 102.716875 -57.609375 103.34375 C-56 105 -56 105 -56 107 C-55.34 107 -54.68 107 -54 107 C-54 107.66 -54 108.32 -54 109 C-53.401875 109.268125 -52.80375 109.53625 -52.1875 109.8125 C-50.00152146 110.99917406 -48.58667406 112.09599113 -47 114 C-47 114.66 -47 115.32 -47 116 C-46.34 116 -45.68 116 -45 116 C-45 116.66 -45 117.32 -45 118 C-44.46375 118.226875 -43.9275 118.45375 -43.375 118.6875 C-40.17539839 120.45570089 -37.70962777 122.53670203 -35 125 C-35 125.66 -35 126.32 -35 127 C-34.41605469 127.26554688 -33.83210938 127.53109375 -33.23046875 127.8046875 C-30.94250567 129.03081132 -29.23930094 130.3946408 -27.3125 132.125 C-25.41793727 134.14257993 -25.41793727 134.14257993 -23 135 C-22.8848284 117.34590633 -23.00606125 99.71000586 -23.40009689 82.05981827 C-23.53091871 76.04316292 -23.64169957 70.02609397 -23.75385094 64.00906563 C-23.85195984 58.84522211 -23.96372129 53.68225247 -24.10083008 48.51928711 C-24.23534675 43.42408481 -24.33545325 38.32924594 -24.41195869 33.23285484 C-24.44693264 31.31448208 -24.49438061 29.39629208 -24.55491447 27.47855568 C-24.63707119 24.82213219 -24.67510711 22.16845681 -24.70288086 19.51098633 C-24.73739853 18.73348526 -24.7719162 17.95598419 -24.80747986 17.15492249 C-24.80193028 13.81990224 -24.68664223 11.81225793 -22.48608589 9.20912743 C-20.71981735 7.67546974 -18.93150136 6.31709133 -17 5 C-16.13375 4.36191406 -15.2675 3.72382813 -14.375 3.06640625 C-9.24821114 -0.17999788 -6.0561859 -2.16292354 0 0 Z " fill="#FFFFFF" transform="translate(217,185)"/>
<path d="M0 0 C3.89297825 0.8405995 7.68427232 1.9890136 11.5 3.125 C25.62597121 7.17421604 39.84870384 10.80592596 54.10424805 14.36981201 C56.59862854 14.99340714 59.0926138 15.61858557 61.58618164 16.24542236 C73.37666377 19.20802645 85.13694635 22.15283573 97.08203125 24.42407227 C100.97247031 25.19193921 104.7597801 26.19630936 108.5625 27.3125 C110.07143023 27.74283446 111.5805547 28.1724882 113.08984375 28.6015625 C113.87472168 28.82618164 114.65959961 29.05080078 115.46826172 29.28222656 C120.17795389 30.61747198 124.90196706 31.90040725 129.625 33.1875 C130.53709229 33.43733643 131.44918457 33.68717285 132.38891602 33.94458008 C136.4442533 35.05153212 140.49890545 36.12923151 144.5859375 37.11328125 C148 38 148 38 149 39 C148.47075436 45.32194796 147.07571728 51.35007323 145.5625 57.5 C145.34529297 58.39847656 145.12808594 59.29695313 144.90429688 60.22265625 C144.27562419 62.81663903 143.63902297 65.40855021 143 68 C142.68675781 69.28003906 142.37351562 70.56007813 142.05078125 71.87890625 C140.94243979 76.29778398 139.73599779 80.68961727 138.53833008 85.08496094 C135.98465875 94.45866172 133.50019565 103.82802499 131.34594727 113.30175781 C130.38723524 117.47793825 129.28160155 121.58028883 128.0625 125.6875 C125.94600226 132.86518798 124.33240405 140.13763961 122.75024414 147.44995117 C121.78936992 151.82709382 120.74105893 155.86061492 119 160 C118.31664493 162.47612466 117.67021732 164.94329543 117.0625 167.4375 C116.88920166 168.13472168 116.71590332 168.83194336 116.53735352 169.55029297 C115.1239054 175.30704753 113.92194547 181.09144046 112.80859375 186.9140625 C111.63665701 191.38667133 110.53162862 195.10343691 106.4375 197.5 C105.303125 197.995 104.16875 198.49 103 199 C101.59271774 199.81384998 100.19833799 200.65014813 98.8125 201.5 C93.62205371 204.63490258 88.41456278 207.73910025 83.1875 210.8125 C82.36290283 211.30492187 81.53830566 211.79734375 80.6887207 212.3046875 C79.89812256 212.76746094 79.10752441 213.23023438 78.29296875 213.70703125 C77.23372192 214.33315308 77.23372192 214.33315308 76.15307617 214.97192383 C73.73530728 216.1263886 71.66068259 216.69263553 69 217 C66.125 215.75 66.125 215.75 64 213 C62.90709246 204.70676047 66.53012291 195.36307115 68.609375 187.38671875 C69.99026187 182.08915204 71.25324522 176.7679573 72.5 171.4375 C74.08508884 164.69947217 75.76928512 157.99805044 77.5625 151.3125 C79.3455688 144.64981424 80.94298321 137.97091269 82.40161133 131.23022461 C84.74778991 120.4439431 87.39842611 109.72693044 90 99 C84.16264832 101.30833612 78.96969797 104.28576224 73.625 107.5625 C71.84546062 108.64260046 70.0655056 109.7220164 68.28515625 110.80078125 C67.39844238 111.33912598 66.51172852 111.8774707 65.59814453 112.43212891 C61.77350894 114.74013584 57.91922424 116.99617966 54.0625 119.25 C48.93688515 122.25658878 43.82383986 125.28167701 38.75 128.375 C37.25726563 129.28378906 37.25726563 129.28378906 35.734375 130.2109375 C32.96798261 131.9548642 32.96798261 131.9548642 30.46484375 134.0546875 C28.00206274 135.99837203 25.62435123 137.37172496 22.8125 138.75 C21.95269531 139.17796875 21.09289062 139.6059375 20.20703125 140.046875 C18 141 18 141 16 141 C16 141.66 16 142.32 16 143 C15.45214844 143.24492187 14.90429688 143.48984375 14.33984375 143.7421875 C8.75555372 146.37542995 3.61678565 149.44252993 -1.5 152.875 C-2.14251709 153.30578857 -2.78503418 153.73657715 -3.44702148 154.18041992 C-8.02629084 157.28081526 -12.48430567 160.52376739 -16.8515625 163.91796875 C-19 165 -19 165 -21.37890625 164.8671875 C-24.53001167 163.82464591 -27.36368308 162.46051533 -30.3125 160.9375 C-31.38113281 160.38964844 -32.44976562 159.84179688 -33.55078125 159.27734375 C-34.35902344 158.85582031 -35.16726562 158.43429688 -36 158 C-36 157.34 -36 156.68 -36 156 C-36.639375 155.896875 -37.27875 155.79375 -37.9375 155.6875 C-38.9584375 155.3471875 -38.9584375 155.3471875 -40 155 C-41.07281519 151.78155444 -41.28161047 149.06863797 -41.5 145.6875 C-41.77919133 141.39493337 -42.23140554 137.23367447 -43 133 C-38.15424193 128.82582887 -32.73971124 125.59831338 -27.3125 122.25 C-25.86907227 121.34701172 -25.86907227 121.34701172 -24.39648438 120.42578125 C-23.47802734 119.85730469 -22.55957031 119.28882812 -21.61328125 118.703125 C-20.77579346 118.18395508 -19.93830566 117.66478516 -19.07543945 117.12988281 C-17 116 -17 116 -15 116 C-15 115.34 -15 114.68 -15 114 C-14.10539062 113.50371094 -13.21078125 113.00742188 -12.2890625 112.49609375 C-6.60688128 109.31347281 -1.03015596 106.14187829 4.25 102.3125 C7.32664849 100.08992114 10.32313019 98.2549884 13.75 96.625 C18.50580695 94.35048363 22.8644679 91.60114955 27.26464844 88.71923828 C32.86547289 85.0576208 38.56876113 81.57943898 44.29101562 78.11157227 C49.85351692 74.72947103 55.34123608 71.24626758 60.76171875 67.640625 C64.78599227 65 64.78599227 65 67 65 C66.67 64.01 66.34 63.02 66 62 C63.41614886 60.95222066 63.41614886 60.95222066 60.14453125 60.23046875 C59.20181366 59.99433617 59.20181366 59.99433617 58.24005127 59.75343323 C56.84536343 59.40568343 55.44917511 59.06391351 54.05178833 58.72717285 C50.9611132 57.98231412 47.87759808 57.20953751 44.79319763 56.43917847 C43.07430865 56.01034603 41.35502391 55.58309749 39.63539124 55.15725708 C28.60517614 52.42177795 17.61263708 49.54090728 6.61557007 46.6756897 C0.92280178 45.19253939 -4.77064198 43.71201218 -10.46484375 42.234375 C-11.53043015 41.95765457 -12.59601654 41.68093414 -13.69389343 41.39582825 C-21.46275173 39.38388268 -29.24370122 37.42378554 -37.04026794 35.52191162 C-42.7862598 34.1068701 -42.7862598 34.1068701 -45 33 C-45.17343403 29.48969521 -45.0032528 26.38152211 -44 23 C-41.4325115 20.26466116 -38.28695508 18.75396343 -35 17 C-32.86853085 15.69803207 -30.74385919 14.38489064 -28.625 13.0625 C-26.97757813 12.05509766 -26.97757813 12.05509766 -25.296875 11.02734375 C-6.25412187 -0.68259567 -6.25412187 -0.68259567 0 0 Z " fill="#FFFFFF" transform="translate(271,0)"/>
<path d="M0 0 C1.21738609 -0.00021904 1.21738609 -0.00021904 2.45936584 -0.0004425 C5.0779206 0.00024078 7.69639946 0.00795673 10.31494141 0.01586914 C12.15581219 0.01773898 13.99668347 0.0191602 15.83755493 0.02015686 C20.63453597 0.02393751 25.43148573 0.03372865 30.22845459 0.04486084 C35.14269589 0.05517179 40.05694235 0.05967503 44.97119141 0.06469727 C54.57797582 0.07535585 64.18473724 0.09237736 73.79150391 0.11352539 C76.34448064 5.97035438 75.58904657 7.93564144 74.79150391 15.11352539 C68.52150391 15.11352539 62.25150391 15.11352539 55.79150391 15.11352539 C55.79674072 16.83498779 55.80197754 18.5564502 55.80737305 20.33007812 C55.82347173 26.00582916 55.83497666 31.68157692 55.84331608 37.35734463 C55.84854373 40.79992887 55.85563922 44.24248851 55.86694336 47.68505859 C55.87984625 51.63907582 55.88473309 55.59308295 55.88916016 59.54711914 C55.89432144 60.78876328 55.89948273 62.03040741 55.90480042 63.30967712 C55.90487595 64.45078445 55.90495148 65.59189178 55.9050293 66.76757812 C55.90724991 67.77795639 55.90947052 68.78833466 55.91175842 69.82933044 C55.79150391 72.11352539 55.79150391 72.11352539 54.79150391 73.11352539 C52.64755871 73.21270109 50.50023658 73.24322689 48.35400391 73.23852539 C47.17966797 73.24110352 46.00533203 73.24368164 44.79541016 73.24633789 C41.79150391 73.11352539 41.79150391 73.11352539 39.79150391 72.11352539 C39.46150391 53.30352539 39.13150391 34.49352539 38.79150391 15.11352539 C23.61150391 15.11352539 8.43150391 15.11352539 -7.20849609 15.11352539 C-7.20849609 19.73352539 -7.20849609 24.35352539 -7.20849609 29.11352539 C-5.55849609 28.78352539 -3.90849609 28.45352539 -2.20849609 28.11352539 C-0.51592365 28.03652253 1.17924389 28.00547472 2.87353516 28.01586914 C3.80488281 28.0190918 4.73623047 28.02231445 5.69580078 28.02563477 C6.65550781 28.03401367 7.61521484 28.04239258 8.60400391 28.05102539 C9.58304688 28.05553711 10.56208984 28.06004883 11.57080078 28.06469727 C13.97772822 28.07643838 16.38462404 28.0943725 18.79150391 28.11352539 C18.79150391 33.06352539 18.79150391 38.01352539 18.79150391 43.11352539 C10.21150391 43.11352539 1.63150391 43.11352539 -7.20849609 43.11352539 C-7.20849609 48.06352539 -7.20849609 53.01352539 -7.20849609 58.11352539 C-4.19402344 58.09612305 -4.19402344 58.09612305 -1.11865234 58.07836914 C0.82071815 58.07141799 2.76008894 58.06450143 4.69946289 58.05859375 C6.05070777 58.05355482 7.40194717 58.04672362 8.75317383 58.03808594 C10.69170825 58.0260012 12.63028191 58.02082711 14.56884766 58.01586914 C16.32056274 58.00801392 16.32056274 58.00801392 18.10766602 58 C20.79150391 58.11352539 20.79150391 58.11352539 21.79150391 59.11352539 C21.86422132 61.46666094 21.87521258 63.82186208 21.85400391 66.17602539 C21.84498047 67.46637695 21.83595703 68.75672852 21.82666016 70.08618164 C21.81505859 71.08520508 21.80345703 72.08422852 21.79150391 73.11352539 C15.86499334 73.13822393 9.93851266 73.1563847 4.01196289 73.16845703 C1.99535602 73.17348921 -0.0212472 73.18031553 -2.0378418 73.18896484 C-4.93457948 73.20107912 -7.83126897 73.20676482 -10.72802734 73.21118164 C-11.63124222 73.21634293 -12.53445709 73.22150421 -13.46504211 73.2268219 C-14.7260096 73.2269352 -14.7260096 73.2269352 -16.01245117 73.22705078 C-16.75191483 73.22927139 -17.49137848 73.231492 -18.25325012 73.23377991 C-20.20849609 73.11352539 -20.20849609 73.11352539 -23.20849609 72.11352539 C-23.20849609 48.68352539 -23.20849609 25.25352539 -23.20849609 1.11352539 C-7.12500947 -0.03529508 -7.12500947 -0.03529508 0 0 Z " fill="#FFFFFF" transform="translate(903.20849609375,332.886474609375)"/>
<path d="M0 0 C11.47031384 -0.30413711 21.57428934 1.05585129 30.4375 8.5703125 C34.54571332 13.52433445 34.09557068 19.92980819 33.5625 26.1328125 C32.33438844 31.23866211 29.85994564 34.15765783 25.5625 37.1328125 C24.9025 37.7928125 24.2425 38.4528125 23.5625 39.1328125 C23.5625 39.7928125 23.5625 40.4528125 23.5625 41.1328125 C24.2225 41.1328125 24.8825 41.1328125 25.5625 41.1328125 C29.890825 46.25182364 31.61927479 50.67750069 32.875 57.1953125 C33.04322266 57.97197266 33.21144531 58.74863281 33.38476562 59.54882812 C34.30136649 63.96721841 34.5625 67.49719223 34.5625 72.1328125 C29.6125 72.1328125 24.6625 72.1328125 19.5625 72.1328125 C18.22350575 68.36390233 16.89109288 64.59288788 15.5625 60.8203125 C15.1809375 59.74845703 14.799375 58.67660156 14.40625 57.57226562 C13.86484375 56.03022461 13.86484375 56.03022461 13.3125 54.45703125 C12.80976562 53.0352356 12.80976562 53.0352356 12.296875 51.5847168 C11.5625 49.1328125 11.5625 49.1328125 11.5625 46.1328125 C7.6025 45.4728125 3.6425 44.8128125 -0.4375 44.1328125 C-0.42589844 45.98648438 -0.41429687 47.84015625 -0.40234375 49.75 C-0.39296674 52.16926983 -0.38386644 54.58854074 -0.375 57.0078125 C-0.36662109 58.23113281 -0.35824219 59.45445312 -0.34960938 60.71484375 C-0.34477539 62.46474609 -0.34477539 62.46474609 -0.33984375 64.25 C-0.33198853 65.86817627 -0.33198853 65.86817627 -0.32397461 67.51904297 C-0.4375 70.1328125 -0.4375 70.1328125 -1.4375 72.1328125 C-6.7175 72.1328125 -11.9975 72.1328125 -17.4375 72.1328125 C-17.4600528 63.02321761 -17.47841611 53.91364113 -17.48931217 44.8040247 C-17.49454056 40.57449879 -17.5016374 36.3449929 -17.51293945 32.11547852 C-17.52376991 28.03712707 -17.52977717 23.95879493 -17.53237724 19.88043022 C-17.53423121 18.32103611 -17.53785127 16.7616431 -17.54323006 15.20225716 C-17.55044262 13.02552088 -17.55149085 10.84886536 -17.55102539 8.67211914 C-17.553246 7.43079727 -17.55546661 6.1894754 -17.55775452 4.91053772 C-17.4375 2.1328125 -17.4375 2.1328125 -16.4375 1.1328125 C-10.97726073 0.52528588 -5.48434399 0.29882644 0 0 Z M-1.4375 13.1328125 C-1.4375 19.7328125 -1.4375 26.3328125 -1.4375 33.1328125 C6.02814744 33.54496172 6.02814744 33.54496172 12 31.3203125 C12.63808594 30.98386719 13.27617188 30.64742188 13.93359375 30.30078125 C15.86555533 29.06060181 15.86555533 29.06060181 17.5625 26.1328125 C17.77535193 23.97790185 17.77535193 23.97790185 17.5 21.6953125 C17.44714844 20.93347656 17.39429688 20.17164063 17.33984375 19.38671875 C16.18937284 16.05093124 14.55474911 14.93876121 11.5625 13.1328125 C8.21255199 12.65201731 8.21255199 12.65201731 4.75 12.8828125 C1.6871875 13.0065625 1.6871875 13.0065625 -1.4375 13.1328125 Z " fill="#FFFFFF" transform="translate(842.4375,332.8671875)"/>
<path d="M0 0 C6.93 0 13.86 0 21 0 C24.3729599 8.99455974 24.3729599 8.99455974 25.71875 13.27734375 C26.15767578 14.66663086 26.15767578 14.66663086 26.60546875 16.08398438 C27.04826172 17.49647461 27.04826172 17.49647461 27.5 18.9375 C29.40108526 24.97697392 31.32121064 31.00642511 33.33447266 37.00952148 C35.93322649 44.78194996 38.22966531 52.62152514 40.25 60.5625 C40.42523193 61.24127197 40.60046387 61.92004395 40.78100586 62.61938477 C41.59575376 65.89274221 42 68.59636977 42 72 C34.08 72.495 34.08 72.495 26 73 C23.18500348 66.46194356 21.91350493 62.30803946 21 55 C14.07 54.67 7.14 54.34 0 54 C-0.66 56.97 -1.32 59.94 -2 63 C-2.90943362 66.04117939 -3.95289477 69.00147138 -5 72 C-9.95 72 -14.9 72 -20 72 C-19.38470973 64.32809946 -17.18458356 57.2307831 -15 49.875 C-14.26777229 47.39413058 -13.53849758 44.91238724 -12.8125 42.4296875 C-12.48894531 41.33897949 -12.16539062 40.24827148 -11.83203125 39.12451172 C-11.0246459 36.09255229 -10.46166084 33.10163805 -10 30 C-9.34 30 -8.68 30 -8 30 C-7.87367188 28.98679687 -7.74734375 27.97359375 -7.6171875 26.9296875 C-7.03159248 23.2011521 -6.18365847 19.74413476 -5.125 16.125 C-4.79757812 14.99320312 -4.47015625 13.86140625 -4.1328125 12.6953125 C-2.82845105 8.44039548 -1.40732646 4.22197938 0 0 Z M10 16 C8.53265808 20.32931964 7.16356693 24.67659996 5.875 29.0625 C5.52179687 30.24972656 5.16859375 31.43695313 4.8046875 32.66015625 C4.0933526 35.61254138 3.82916917 37.98768303 4 41 C6.64458379 42.32229189 8.67761301 42.09677194 11.625 42.0625 C12.62789062 42.05347656 13.63078125 42.04445313 14.6640625 42.03515625 C15.43492187 42.02355469 16.20578125 42.01195312 17 42 C16.31465992 36.194303 14.96776988 30.69920838 13.4375 25.0625 C13.08655273 23.75055664 13.08655273 23.75055664 12.72851562 22.41210938 C12.15594751 20.27374275 11.57970405 18.13644097 11 16 C10.67 16 10.34 16 10 16 Z " fill="#FFFFFF" transform="translate(988,333)"/>
<path d="M0 0 C1.76923828 0.01353516 1.76923828 0.01353516 3.57421875 0.02734375 C4.47785156 0.03894531 5.38148437 0.05054688 6.3125 0.0625 C7.60913922 2.65577843 7.43253569 4.52658068 7.42602539 7.43017578 C7.42594986 8.55118683 7.42587433 9.67219788 7.42579651 10.82717896 C7.42063522 12.04178802 7.41547394 13.25639709 7.41015625 14.5078125 C7.4087413 15.74796112 7.40732635 16.98810974 7.40586853 18.26583862 C7.40121096 21.56368133 7.39222439 24.86147546 7.38116455 28.15930176 C7.37093731 31.52416376 7.36631333 34.88903307 7.36132812 38.25390625 C7.35113217 44.8568097 7.33155907 51.4595923 7.3125 58.0625 C16.2225 58.0625 25.1325 58.0625 34.3125 58.0625 C35.40756492 61.34769475 35.41210608 63.79913415 35.375 67.25 C35.36597656 68.33667969 35.35695313 69.42335938 35.34765625 70.54296875 C35.33605469 71.37441406 35.32445312 72.20585937 35.3125 73.0625 C29.2069529 73.08714513 23.10143449 73.10533371 16.99584961 73.11743164 C14.91706844 73.12247288 12.83829084 73.12930574 10.75952148 73.13793945 C7.77847414 73.15001422 4.79747351 73.15573024 1.81640625 73.16015625 C0.41328941 73.16789818 0.41328941 73.16789818 -1.01817322 73.17579651 C-2.30939842 73.17590981 -2.30939842 73.17590981 -3.62670898 73.17602539 C-4.38837875 73.178246 -5.15004852 73.18046661 -5.93479919 73.18275452 C-7.6875 73.0625 -7.6875 73.0625 -8.6875 72.0625 C-9.82921439 63.12232692 -9.82380098 54.10222541 -9.78515625 45.10546875 C-9.7837413 43.83649246 -9.78232635 42.56751617 -9.78086853 41.26008606 C-9.77626507 37.93444787 -9.76732806 34.60888244 -9.75616455 31.28326416 C-9.74581753 27.87048969 -9.74134285 24.45770761 -9.73632812 21.04492188 C-9.72537667 14.38409503 -9.7086979 7.7233017 -9.6875 1.0625 C-6.26517028 -0.07827657 -3.60076783 -0.03565117 0 0 Z " fill="#FFFFFF" transform="translate(1064.6875,332.9375)"/>
<path d="M0 0 C1.17691406 0.00257813 2.35382813 0.00515625 3.56640625 0.0078125 C5.32791016 0.00394531 5.32791016 0.00394531 7.125 0 C10.12890625 0.1328125 10.12890625 0.1328125 12.12890625 1.1328125 C12.12890625 24.8928125 12.12890625 48.6528125 12.12890625 73.1328125 C7.50890625 73.1328125 2.88890625 73.1328125 -1.87109375 73.1328125 C-4.29575829 69.49581568 -4.11908765 67.80421815 -4.11401367 63.47412109 C-4.11591202 62.80229294 -4.11781036 62.13046478 -4.11976624 61.4382782 C-4.12346908 59.21914986 -4.11277886 57.00034921 -4.1015625 54.78125 C-4.10037053 53.24093667 -4.09991757 51.70062261 -4.10017395 50.16030884 C-4.09861005 46.93397464 -4.09032609 43.70775156 -4.0769043 40.48144531 C-4.05988607 36.33725186 -4.05609081 32.19318022 -4.05684948 28.04895592 C-4.05657818 24.86976958 -4.05110383 21.69061008 -4.04384804 18.51143265 C-4.0406572 16.98274565 -4.038693 15.4540556 -4.03795433 13.92536545 C-4.03579675 11.79442863 -4.02706615 9.66362356 -4.01635742 7.53271484 C-4.01254562 6.31820648 -4.00873383 5.10369812 -4.00480652 3.85238647 C-3.82068688 0.10759095 -3.76510255 0.17416801 0 0 Z " fill="#FFFFFF" transform="translate(1036.87109375,332.8671875)"/>
<path d="M0 0 C0.66 0 1.32 0 2 0 C2 0.99 2 1.98 2 3 C1.34 3 0.68 3 0 3 C0 2.01 0 1.02 0 0 Z " fill="#FFFFFF" transform="translate(2,33)"/>
<path d="M0 0 C0.66 0.66 1.32 1.32 2 2 C1.01 2.33 0.02 2.66 -1 3 C-0.67 2.01 -0.34 1.02 0 0 Z " fill="#FFFFFF" transform="translate(847,234)"/>
<path d="M0 0 C2 1 2 1 2 1 Z " fill="#FFFFFF" transform="translate(544,106)"/>
</svg>
