<?xml version="1.0" encoding="UTF-8"?>
<svg version="1.1" xmlns="http://www.w3.org/2000/svg" width="1563" height="453">
<path d="M0 0 C1.13795013 -0.00067474 2.27590027 -0.00134949 3.44833374 -0.00204468 C19.89361369 0.01345539 36.03071239 0.25222008 52.25 3.25 C53.18859863 3.41628906 54.12719727 3.58257812 55.09423828 3.75390625 C72.70624484 6.98053341 90.79056124 12.31786378 105.25 23.25 C105.99507812 23.80300781 106.74015625 24.35601563 107.5078125 24.92578125 C113.35594429 29.61939256 116.88421278 35.15263833 119.25 42.25 C120.45496162 55.17751684 117.67337074 64.26548107 109.6875 74.4375 C84.24401935 104.0500903 41.18813786 111.01057055 5.25 119.25 C5.25 119.91 5.25 120.57 5.25 121.25 C6.93926444 122.82579936 6.93926444 122.82579936 9.17578125 124.453125 C10.02591797 125.09685059 10.87605469 125.74057617 11.75195312 126.40380859 C13.14317383 127.44142334 13.14317383 127.44142334 14.5625 128.5 C15.50931641 129.21365723 16.45613281 129.92731445 17.43164062 130.66259766 C24.46018867 135.94805642 31.53645537 141.16894895 38.62841797 146.36889648 C44.23518438 150.48372093 49.76509354 154.68490414 55.26171875 158.9453125 C58.3206228 161.30446726 61.40545032 163.6253459 64.5 165.9375 C69.46489495 169.6479667 74.37545519 173.421759 79.25 177.25 C86.12508669 170.58975977 92.26764738 163.32799207 98.203125 155.828125 C100.25771051 153.24028829 102.34179273 150.67962127 104.4375 148.125 C116.27626303 133.69005376 116.27626303 133.69005376 127.875 119.0625 C131.83517069 113.9809727 135.93211458 109.04204883 140.12109375 104.14819336 C143.95823569 99.64488094 147.61900299 95.01793751 151.25683594 90.35302734 C155.50051997 84.91361755 159.8105201 79.53145023 164.25 74.25 C164.70089272 73.59617592 165.15178545 72.94235184 165.61634159 72.2687149 C167.95447393 69.13343678 169.82893637 66.6788844 173.6601696 65.52259827 C176.54667795 65.26659818 179.33730111 65.25952783 182.23413086 65.34179688 C183.85963364 65.34004456 183.85963364 65.34004456 185.51797485 65.33825684 C189.0849207 65.34381192 192.6484852 65.40594913 196.21484375 65.46875 C198.69346795 65.48367751 201.17211582 65.49506212 203.65077209 65.50305176 C210.16319359 65.53354448 216.67417948 65.61208692 223.18603516 65.70068359 C229.83533643 65.78697816 236.48505662 65.81908342 243.13476562 65.859375 C256.1737883 65.94508045 269.21181767 66.08001053 282.25 66.25 C281.08179675 69.75460974 280.31589546 70.16332251 277.32421875 72.15625 C276.47947998 72.72520996 275.63474121 73.29416992 274.7644043 73.88037109 C273.83152588 74.49734863 272.89864746 75.11432617 271.9375 75.75 C269.91657632 77.10663626 267.89574749 78.46341381 265.875 79.8203125 C264.25851562 80.89974121 264.25851562 80.89974121 262.609375 82.00097656 C257.45515561 85.44602671 252.33249694 88.93765519 247.20571899 92.42333984 C244.22583828 94.44843059 241.24360983 96.47005874 238.26171875 98.4921875 C231.75426584 102.90624645 225.25149911 107.32717622 218.75 111.75 C200.69276167 124.03253036 182.61994887 136.29204213 164.53753662 148.53747559 C145.99749062 161.09307273 127.46586858 173.66093023 108.99511719 186.31835938 C108.27743164 186.81013672 107.55974609 187.30191406 106.8203125 187.80859375 C106.19914551 188.23454834 105.57797852 188.66050293 104.93798828 189.09936523 C103.38227 190.15983678 101.81656738 191.20562175 100.25 192.25 C107.49893993 198.4075265 114.98880873 204.19168475 122.73608398 209.70751953 C126.9493164 212.72192437 130.90460772 215.7792636 134.6796875 219.33203125 C142.61782235 226.52253013 148.64511268 230.07979583 159.59692383 229.69238281 C165.86491735 229.15697368 172.04072126 228.24315299 178.25 227.25 C180.49127355 226.95393448 182.73345042 226.6646105 184.9765625 226.3828125 C216.10150037 222.27413362 247.01401955 214.141054 275.25 200.25 C276.01715332 199.87794434 276.78430664 199.50588867 277.57470703 199.12255859 C308.862377 183.81319779 339.6840171 160.13507819 351.4375 126.125 C355.69654888 113.33088505 355.33235352 100.76277394 349.99609375 88.328125 C342.1750106 72.89906722 328.05141906 65.03100697 312.25 59.25 C299.7769483 55.24114651 287.43762032 52.95819729 274.3527832 52.93115234 C273.21976273 52.92110672 272.08674225 52.9110611 270.91938782 52.90071106 C267.2131903 52.87007731 263.50706435 52.85289923 259.80078125 52.8359375 C257.21574801 52.81720992 254.63072079 52.79763533 252.04570007 52.7772522 C245.9616291 52.73130841 239.87756127 52.69384052 233.79340953 52.66057932 C226.85973557 52.62219341 219.92615289 52.57282714 212.99255621 52.52259517 C198.74510066 52.41961939 184.49759309 52.33169758 170.25 52.25 C170.25 37.07 170.25 21.89 170.25 6.25 C191.65363175 6.18189452 213.05717379 6.12679443 234.46088696 6.09456348 C244.40226855 6.0791906 254.34357732 6.05828795 264.28491211 6.02368164 C272.96457437 5.99348207 281.64418383 5.97435574 290.32389718 5.96773452 C294.90630256 5.96387313 299.48855704 5.95500703 304.07091331 5.93280983 C333.67302034 5.79522614 362.34509772 7.12905004 391.25 14.25 C392.43190918 14.53979736 392.43190918 14.53979736 393.63769531 14.83544922 C419.84146225 21.45192887 444.45207354 34.23921689 459.3125 57.40234375 C464.65062659 67.30688506 465.94277409 76.86298127 465.8125 88 C465.80561157 88.98978851 465.80561157 88.98978851 465.79858398 89.99957275 C465.69635503 100.68799787 464.71619533 109.50851599 460.25 119.25 C459.79995605 120.24942627 459.79995605 120.24942627 459.34082031 121.26904297 C450.72330426 140.17750709 438.56966404 156.31785696 424.25 171.25 C423.74597656 171.78125488 423.24195313 172.31250977 422.72265625 172.85986328 C415.30807567 180.6419371 407.52460293 187.50488652 398.93798828 193.96337891 C397.34153312 195.18023148 395.77700019 196.43863692 394.21484375 197.69921875 C331.52977965 247.92815398 249.7722234 265.65759965 171.26953125 265.515625 C168.58818846 265.51697682 165.90685107 265.5189196 163.22550964 265.52142334 C157.66667644 265.525016 152.1078972 265.52037984 146.54907227 265.51074219 C140.14343811 265.49976401 133.7379304 265.50346915 127.33229905 265.514395 C121.77925884 265.523482 116.22625652 265.52474929 110.67321128 265.51951766 C107.37855499 265.51641875 104.08397073 265.51673279 100.78931618 265.52259064 C97.13655599 265.52767115 93.48404076 265.51992864 89.83129883 265.50878906 C88.21913483 265.51486176 88.21913483 265.51486176 86.57440186 265.52105713 C78.43338194 265.47507913 72.54955531 264.71611291 66 259.5 C64.98550781 258.70980469 63.97101563 257.91960937 62.92578125 257.10546875 C62.35682129 256.65993652 61.78786133 256.2144043 61.20166016 255.75537109 C57.24826504 252.70600478 53.21070333 249.7687261 49.1875 246.8125 C48.35379883 246.19729492 47.52009766 245.58208984 46.66113281 244.94824219 C40.92158013 240.07975813 40.92158013 240.07975813 34.07421875 238.43359375 C29.8395889 239.33761585 26.07294827 240.71635819 22.0625 242.3125 C-8.23929181 253.86382773 -39.6669953 259.78226064 -71.79919434 263.05145264 C-73.6051103 263.23525355 -75.41049197 263.42428382 -77.21582031 263.61376953 C-136.95602019 269.61641615 -214.80896913 271.78246107 -264.6875 232.75 C-272.94746291 225.73863613 -279.04490298 217.35902277 -280.6875 206.4375 C-281.55584646 192.39199607 -274.10006004 179.15696558 -265.21875 168.83984375 C-233.36343661 135.42200708 -179.81484393 123.99370771 -136.75 113.25 C-139.85947602 110.04663217 -143.00370757 107.19065405 -146.5625 104.5 C-155.93308213 97.03695093 -164.51155923 87.46410071 -166.75 75.25 C-167.70111806 65.62967469 -165.73961497 57.13090413 -160.125 49.1875 C-159.02856293 47.85104686 -157.90062481 46.54009449 -156.75 45.25 C-156.05132813 44.45851562 -155.35265625 43.66703125 -154.6328125 42.8515625 C-118.14757834 3.97385397 -49.74478019 0.02648602 0 0 Z M-70.75 51.25 C-72.58633626 54.92267252 -72.76346869 58.27745296 -71.75 62.25 C-68.97183801 65.88553734 -65.37531664 68.50883317 -61.75 71.25 C-60.34851817 72.33146108 -58.94750581 73.41353072 -57.546875 74.49609375 C-53.9641764 77.25472088 -50.35751334 79.97916755 -46.72900391 82.67724609 C-44.75 84.25 -44.75 84.25 -42.95458984 86.01416016 C-39.83980936 89.07248469 -38.59115838 90.22040701 -34.0859375 90.37890625 C-31.99483032 89.94714031 -31.99483032 89.94714031 -29.75 89.25 C-28.83250977 88.97913574 -27.91501953 88.70827148 -26.96972656 88.42919922 C-23.74644122 87.41194314 -20.56151469 86.31456307 -17.375 85.1875 C-16.22612305 84.78337891 -15.07724609 84.37925781 -13.89355469 83.96289062 C13.34701339 74.82771567 13.34701339 74.82771567 34.25 56.25 C35.16738597 53.16249553 35.16738597 53.16249553 34.25 50.25 C28.86540956 42.71157338 18.83115638 40.68587763 10.17431641 39.12597656 C-12.43635514 35.82410072 -53.62723099 33.14878705 -70.75 51.25 Z M-105.5 150.6875 C-106.22052551 150.91175659 -106.94105103 151.13601318 -107.68341064 151.36706543 C-116.95649462 154.26917673 -126.1217158 157.32912275 -135.125 161 C-135.96514648 161.3395874 -136.80529297 161.6791748 -137.67089844 162.02905273 C-149.51868793 167.0223235 -161.98573006 173.94184284 -167.9375 185.8125 C-169.93424198 190.90738969 -170.3265495 193.99483499 -168.75 199.25 C-164.98883616 207.58604101 -156.01075853 211.98275543 -148 215.5 C-136.46712289 219.79258845 -123.67422868 221.35983735 -111.421875 221.48828125 C-110.25420341 221.50297203 -110.25420341 221.50297203 -109.0629425 221.51795959 C-77.63282657 221.83110521 -48.30223408 217.76283422 -18.3125 208 C-17.55437012 207.7539502 -16.79624023 207.50790039 -16.01513672 207.25439453 C-12.15879278 206.17449172 -12.15879278 206.17449172 -9.75 203.25 C-10.29672363 202.89228516 -10.84344727 202.53457031 -11.40673828 202.16601562 C-16.93734581 198.51749024 -22.30950793 194.70382134 -27.625 190.75 C-29.29943788 189.5103609 -30.97391825 188.27077919 -32.6484375 187.03125 C-33.4950293 186.40347656 -34.34162109 185.77570313 -35.21386719 185.12890625 C-39.21985681 182.16104948 -43.23507673 179.20575383 -47.25 176.25 C-52.07497965 172.69766865 -56.897548 169.14224521 -61.7109375 165.57421875 C-68.86464882 160.27585343 -76.02109542 154.98313195 -83.3125 149.875 C-84.83037109 148.81152344 -84.83037109 148.81152344 -86.37890625 147.7265625 C-91.79438617 144.3541549 -99.75008072 148.89734718 -105.5 150.6875 Z " fill="#FFFFFF" transform="translate(1097.75,-0.25)"/>
<path d="M0 0 C2.38538517 0.0025397 4.77077737 0.00111165 7.15615845 -0.00398254 C12.95223416 -0.0062957 18.74696606 0.03265538 24.54273492 0.0899564 C31.28935177 0.15442035 38.0357805 0.16777362 44.78266221 0.17804993 C56.81339917 0.19772321 68.84358535 0.25755013 80.87402344 0.34277344 C92.55693821 0.42544858 104.23970312 0.48912265 115.92285156 0.52734375 C116.6436027 0.52970826 117.36435385 0.53207277 118.10694593 0.53450894 C121.72292516 0.5462547 125.33890544 0.55762797 128.95488644 0.56881607 C158.92929448 0.66204046 188.90305925 0.82116251 218.87695312 1.02172852 C218.87695312 1.68172852 218.87695312 2.34172852 218.87695312 3.02172852 C217.16890668 4.30670673 215.39404231 5.5032123 213.59570312 6.65844727 C211.94441406 7.73231689 211.94441406 7.73231689 210.25976562 8.82788086 C209.40850098 9.37795807 209.40850098 9.37795807 208.54003906 9.93914795 C206.07653999 11.54275493 203.64884398 13.19723762 201.22070312 14.85375977 C200.27606201 15.49684082 199.3314209 16.13992187 198.3581543 16.80249023 C196.88245972 17.80820068 196.88245972 17.80820068 195.37695312 18.83422852 C193.17521493 20.33305112 190.97339868 21.83175846 188.77148438 23.33032227 C188.20730301 23.71436218 187.64312164 24.0984021 187.06184387 24.49407959 C181.31475698 28.40565021 175.56267743 32.30984921 169.80969238 36.21273804 C168.0595865 37.40003009 166.30957044 38.58745442 164.55957031 39.77490234 C159.14224877 43.45060356 153.72434154 47.12543812 148.30532837 50.79864502 C133.15566015 61.05487528 133.15566015 61.05487528 118.06445312 71.39672852 C110.51191976 76.60873356 102.91292587 81.75207152 95.31445312 86.89672852 C94.32339569 87.56774597 94.32339569 87.56774597 93.31231689 88.25231934 C87.8034697 91.9818421 82.29364831 95.70992485 76.78381348 99.43798828 C72.00192481 102.67359233 67.22038924 105.90971713 62.43945312 109.14672852 C61.46162872 109.80875778 61.46162872 109.80875778 60.46405029 110.48416138 C50.90692773 116.95599514 41.36805618 123.45333142 31.87695312 130.02172852 C35.81451117 131.71558269 39.73571253 132.81484348 43.89648438 133.83422852 C45.30938857 134.18504972 46.72214249 134.53647655 48.13476562 134.88842773 C48.87629883 135.07242126 49.61783203 135.25641479 50.38183594 135.44598389 C78.00092718 142.33687702 104.7634282 150.56577864 130.87695312 162.02172852 C131.77220703 162.41215332 132.66746094 162.80257812 133.58984375 163.20483398 C154.87513828 172.58941774 181.91538389 185.55193555 190.87695312 208.64672852 C192.74125229 215.23546282 191.56223089 221.08207282 188.26757812 227.02172852 C176.15379877 244.4437932 149.68764664 249.91653313 130.25195312 253.70922852 C120.38936014 255.46175143 110.51525158 256.73541668 100.54101562 257.64282227 C99.48569641 257.73960958 99.48569641 257.73960958 98.40905762 257.8383522 C82.9379217 259.22660537 67.5278877 259.50006629 52.00305557 259.40845108 C49.82856344 259.39646171 47.65410038 259.38953906 45.47958374 259.38363647 C21.84704934 259.30947615 -1.61250023 258.55018332 -25.12304688 256.02172852 C-25.93102722 255.93687195 -26.73900757 255.85201538 -27.57147217 255.7645874 C-47.02068878 253.7165256 -66.31252965 250.98233373 -85.56054688 247.52172852 C-86.78460236 247.30303604 -86.78460236 247.30303604 -88.03338623 247.07992554 C-95.99024859 245.64983301 -103.88904483 244.13142298 -111.73632812 242.18188477 C-122.12383168 239.18846821 -122.12383168 239.18846821 -132.55273438 240.14672852 C-135.41780753 242.20625936 -137.66687868 244.49275658 -140.12304688 247.02172852 C-141.80869431 248.27140646 -143.53627471 249.41432001 -145.30325317 250.545578 C-151.10832708 254.27234278 -156.80435814 258.15822781 -162.47851562 262.08032227 C-170.57897621 267.66370947 -178.72591831 273.17665955 -186.88299561 278.67687988 C-190.95899193 281.42548717 -195.03331137 284.176577 -199.10742188 286.92797852 C-199.90203827 287.46461121 -200.69665466 288.0012439 -201.51535034 288.55413818 C-208.35308761 293.17369079 -215.1743395 297.81688416 -221.98730469 302.47290039 C-230.65369708 308.39254913 -239.34763803 314.27135245 -248.03964233 320.15328979 C-256.10330608 325.61081765 -264.15506665 331.08382329 -272.16748047 336.61645508 C-276.74500299 339.77380795 -281.36845972 342.85755875 -286.00195312 345.93188477 C-289.7076077 348.41314284 -293.38638183 350.93166385 -297.06054688 353.45922852 C-298.07012451 354.15302612 -298.07012451 354.15302612 -299.10009766 354.86083984 C-302.39964712 357.13221122 -305.68954982 359.41585092 -308.96289062 361.72485352 C-309.85923218 362.35435913 -309.85923218 362.35435913 -310.77368164 362.99658203 C-312.40051844 364.1406424 -314.02362394 365.29000334 -315.64648438 366.43969727 C-318.12304688 368.02172852 -318.12304688 368.02172852 -320.12304688 368.02172852 C-318.45229696 364.18828565 -315.96191556 361.07755806 -313.37304688 357.83422852 C-312.65701294 356.92979004 -312.65701294 356.92979004 -311.92651367 356.00708008 C-306.812909 349.57723962 -301.57266374 343.25134369 -296.33789062 336.92016602 C-293.25568151 333.18949213 -290.21451471 329.42857689 -287.20507812 325.63891602 C-285.48068009 323.47128622 -283.74759802 321.31138469 -282.00976562 319.15454102 C-281.46143066 318.47278809 -280.9130957 317.79103516 -280.34814453 317.08862305 C-279.25669452 315.73176316 -278.16396174 314.37593392 -277.06982422 313.02124023 C-274.33870603 309.69344955 -274.33870603 309.69344955 -272.12304688 306.02172852 C-271.46304688 306.02172852 -270.80304688 306.02172852 -270.12304688 306.02172852 C-269.85226318 305.43633301 -269.58147949 304.8509375 -269.30249023 304.24780273 C-268.13132926 302.03736064 -266.85833828 300.31603961 -265.25195312 298.40454102 C-264.68331543 297.72238525 -264.11467773 297.04022949 -263.52880859 296.33740234 C-262.92053223 295.61447998 -262.31225586 294.89155762 -261.68554688 294.14672852 C-257.20484628 288.77115061 -252.78280033 283.3673147 -248.49804688 277.83422852 C-244.3384541 272.47601825 -239.98261981 267.32318958 -235.53491211 262.20288086 C-231.79628846 257.87318245 -228.2889399 253.40884789 -224.84155273 248.84570312 C-221.46531845 244.40137315 -217.88694941 240.15904996 -214.25244141 235.92504883 C-209.3109853 230.13502421 -204.70653221 224.09658652 -200.12304688 218.02172852 C-202.56259403 216.39536375 -204.52644069 215.36108364 -207.20117188 214.27954102 C-226.18948145 206.45841026 -244.98516772 197.89699709 -261.12304688 185.02172852 C-261.98027344 184.34625977 -262.8375 183.67079102 -263.72070312 182.97485352 C-270.91245588 176.971721 -278.00447916 169.02353219 -279.52929688 159.47875977 C-279.79970092 151.85111225 -277.99368654 146.9017764 -273.12304688 141.02172852 C-250.47143419 117.73738922 -204.61844743 113.52440177 -174.01367188 112.90844727 C-171.0459477 112.89889451 -168.08892528 112.92430915 -165.12304688 113.02172852 C-165.12304688 113.68172852 -165.12304688 114.34172852 -165.12304688 115.02172852 C-166.32743408 115.11877075 -166.32743408 115.11877075 -167.55615234 115.21777344 C-216.95891596 117.87594051 -216.95891596 117.87594051 -258.74804688 140.58422852 C-262.79327891 145.97787123 -263.65670459 150.82879759 -262.77539062 157.44360352 C-259.97043513 168.52905639 -249.14910454 176.27835302 -239.99804688 182.08422852 C-223.87267082 191.59744686 -206.27400068 200.2608226 -188.12304688 205.02172852 C-187.74599609 204.17868164 -187.74599609 204.17868164 -187.36132812 203.31860352 C-185.93471588 200.67239532 -184.2410282 198.57827763 -182.31054688 196.27172852 C-181.51003906 195.30750977 -180.70953125 194.34329102 -179.88476562 193.34985352 C-179.44438965 192.82069336 -179.00401367 192.2915332 -178.55029297 191.74633789 C-175.8838791 188.52438312 -173.25653345 185.27060158 -170.62304688 182.02172852 C-166.96458424 177.51496478 -163.3017948 173.01196495 -159.62304688 168.52172852 C-147.9445702 154.27097167 -147.9445702 154.27097167 -136.49804688 139.83422852 C-132.53787619 134.75270122 -128.44093229 129.81377735 -124.25195312 124.91992188 C-120.41311593 120.41461989 -116.75005161 115.78610056 -113.11181641 111.11816406 C-108.87038722 105.67932459 -104.51034778 100.34350868 -100.12304688 95.02172852 C-97.11878527 91.35853965 -94.12000146 87.69089721 -91.12304688 84.02172852 C-90.63288086 83.42199219 -90.14271484 82.82225586 -89.63769531 82.2043457 C-83.85966918 75.13044679 -78.11101849 68.04007045 -72.49804688 60.83422852 C-68.53434554 55.74817083 -64.43314795 50.80539194 -60.2409668 45.90673828 C-56.99905575 42.10146559 -53.87977348 38.2172375 -50.81054688 34.27172852 C-46.59309741 28.85541794 -42.29483752 23.5121265 -37.93554688 18.20922852 C-37.37762451 17.52828125 -36.81970215 16.84733398 -36.24487305 16.14575195 C-35.15736029 14.82714872 -34.04986692 13.52470605 -32.92069244 12.24159908 C-31.07233975 10.09511822 -31.07233975 10.09511822 -29.84836578 7.68797398 C-23.30153212 -2.63412036 -10.76299567 -0.15973406 0 0 Z M17.06445312 139.02172852 C15.45948127 140.12401487 13.85398393 141.22553636 12.24804688 142.32641602 C10.95616455 143.21925293 10.95616455 143.21925293 9.63818359 144.13012695 C5.70387841 146.82535211 1.72451321 149.45081568 -2.25292969 152.08178711 C-10.37356523 157.45614825 -18.44393073 162.87313298 -26.32910156 168.58789062 C-30.80869692 171.82670055 -35.3831813 174.89684519 -39.99243164 177.94580078 C-45.40179546 181.52825545 -50.76641149 185.17347861 -56.12304688 188.83422852 C-64.8281089 194.77822044 -73.53946546 200.7128158 -82.26196289 206.63119507 C-83.60871611 207.54534133 -84.95508195 208.46005861 -86.30102539 209.37539673 C-94.16334966 214.72171321 -102.06172124 219.97805048 -110.12304688 225.02172852 C-106.45053165 227.470072 -103.07449741 227.82803235 -98.80273438 228.42407227 C-97.54439537 228.60762772 -97.54439537 228.60762772 -96.26063538 228.79489136 C-93.50769176 229.19243757 -90.75313526 229.57684695 -87.99804688 229.95922852 C-87.05865265 230.09179047 -86.11925842 230.22435242 -85.15139771 230.3609314 C-67.51992151 232.8411985 -49.88409466 234.75266643 -32.12304688 236.02172852 C-30.85340088 236.11599121 -29.58375488 236.21025391 -28.27563477 236.30737305 C-15.75524075 237.17835449 -3.2322003 237.26383965 9.31445312 237.27172852 C10.99180038 237.27323914 10.99180038 237.27323914 12.70303345 237.27478027 C78.2725657 238.26444269 78.2725657 238.26444269 135.27148438 210.88110352 C139.47904146 206.00811769 140.44738083 201.84654962 140.22070312 195.53735352 C139.05678886 187.0196173 132.86007002 180.33237113 126.47070312 175.02172852 C119.34840161 169.65905443 111.74549121 165.18132473 103.87695312 161.02172852 C103.18005371 160.64822266 102.4831543 160.2747168 101.76513672 159.88989258 C81.46036889 149.16368797 59.06059921 141.99985643 37.00195312 135.77172852 C35.97968628 135.4830188 35.97968628 135.4830188 34.93676758 135.18847656 C26.87040195 133.04751504 23.66813673 134.3638519 17.06445312 139.02172852 Z " fill="#FFFFFF" transform="translate(320.123046875,4.978271484375)"/>
<path d="M0 0 C91.41 0 182.82 0 277 0 C276.27039089 5.10726374 275.5647853 8.72701843 273.85546875 13.421875 C273.42556641 14.61296875 272.99566406 15.8040625 272.55273438 17.03125 C272.10220703 18.2584375 271.65167969 19.485625 271.1875 20.75 C270.74857422 21.96171875 270.30964844 23.1734375 269.85742188 24.421875 C268.57799387 27.95028269 267.28920922 31.47515577 266 35 C264.68 38.63 263.36 42.26 262 46 C208.54 46 155.08 46 100 46 C99.01 49.3 98.02 52.6 97 56 C95.90369064 59.325494 94.79515505 62.64352891 93.6640625 65.95703125 C93.34848892 66.88560944 93.03291534 67.81418762 92.70777893 68.77090454 C91.68231693 71.78550026 90.65386543 74.7990643 89.625 77.8125 C89.270961 78.85133331 88.916922 79.89016663 88.55215454 80.96047974 C83.31185928 96.33386779 77.98719054 111.6755472 72.58007812 126.9909668 C69.21635375 136.52044028 65.89888083 146.06430263 62.625 155.625 C53.44859824 182.40278251 44.12406509 209.12955832 34.63146973 235.79693604 C33.96286087 237.6756499 33.29512981 239.5546764 32.6282959 241.434021 C31.70568072 244.03260226 30.77925646 246.62979075 29.8515625 249.2265625 C29.57625702 250.00352478 29.30095154 250.78048706 29.01730347 251.58099365 C27.11471528 256.88528472 27.11471528 256.88528472 26 258 C24.50716202 258.09571971 23.00980345 258.12188227 21.51390076 258.12025452 C20.54489838 258.12162918 19.575896 258.12300385 18.57752991 258.12442017 C17.50579025 258.12082489 16.4340506 258.11722961 15.32983398 258.11352539 C13.64712402 258.11374443 13.64712402 258.11374443 11.93041992 258.1139679 C8.20229189 258.1132682 4.47421311 258.10547315 0.74609375 258.09765625 C-1.83080518 258.09579227 -4.40770447 258.09436827 -6.98460388 258.09336853 C-13.08675115 258.08993342 -19.18887794 258.0820426 -25.29101747 258.07201904 C-32.2364925 258.06085689 -39.18196835 258.0553472 -46.12745011 258.05032361 C-60.41830966 258.03985996 -74.7091542 258.02226115 -89 258 C-88.44286283 254.30554091 -87.73900884 250.85131964 -86.53222656 247.31616211 C-86.23339066 246.43353195 -85.93455475 245.55090179 -85.62666321 244.64152527 C-85.3012706 243.69634537 -84.97587799 242.75116547 -84.640625 241.77734375 C-84.30020676 240.77701614 -83.95978851 239.77668854 -83.60905457 238.74604797 C-82.49419244 235.47486272 -81.37232657 232.20613104 -80.25 228.9375 C-79.46992622 226.65534426 -78.69006157 224.37311704 -77.91040039 222.09082031 C-72.20276636 205.40648966 -66.38551091 188.76225667 -60.51345825 172.13525391 C-56.97988187 162.12117105 -53.48911486 152.09214349 -50 142.0625 C-49.490634 140.59855804 -49.490634 140.59855804 -48.97097778 139.1050415 C-44.13107527 125.18929549 -39.34050557 111.25737478 -34.58651733 97.31207275 C-29.81194619 83.31108307 -24.94191028 69.34463776 -20.03881836 55.38818359 C-17.3574324 47.75294257 -14.68593904 40.11508692 -12.0703125 32.45703125 C-11.84306992 31.7927562 -11.61582733 31.12848114 -11.38169861 30.44407654 C-10.34342923 27.40772205 -9.3092069 24.37011032 -8.2824707 21.32983398 C-5.79769364 14.04774241 -2.97373898 7.13697354 0 0 Z " fill="#FFFFFF" transform="translate(656,7)"/>
<path d="M0 0 C0.85667267 0.00359528 1.71334534 0.00719055 2.59597778 0.01089478 C3.4934523 0.01074875 4.39092682 0.01060272 5.31559753 0.01045227 C8.29702123 0.01115175 11.27838329 0.01894575 14.25979614 0.02676392 C16.32102932 0.02862797 18.38226293 0.03005193 20.4434967 0.03105164 C25.88017999 0.03487779 31.31683675 0.04470891 36.75350952 0.05575562 C42.29661704 0.06596764 47.83972882 0.07054881 53.38284302 0.07559204 C64.26762033 0.08633109 75.15237791 0.10340868 86.03713989 0.12442017 C85.73322001 1.53995018 85.42631481 2.9548394 85.11819458 4.36946106 C84.86232574 5.55143963 84.86232574 5.55143963 84.60128784 6.75729656 C83.74214529 10.36219599 82.53846807 13.81571676 81.28713989 17.30020142 C81.0283606 18.03264572 80.7695813 18.76509003 80.50296021 19.51972961 C79.96085354 21.05070889 79.41623387 22.58080053 78.86917114 24.11001587 C78.0336486 26.44668411 77.20667276 28.78624748 76.38088989 31.12637329 C75.85013522 32.62199187 75.31890216 34.11744079 74.78713989 35.61270142 C74.54125122 36.30753128 74.29536255 37.00236115 74.04202271 37.71824646 C72.86917449 40.98794 71.59551962 44.00766071 70.03713989 47.12442017 C39.67713989 47.12442017 9.31713989 47.12442017 -21.96286011 47.12442017 C-21.29835771 43.8019082 -20.65413901 40.95991331 -19.58004761 37.80899048 C-19.3030603 36.991745 -19.026073 36.17449951 -18.74069214 35.33248901 C-18.44275757 34.46460754 -18.144823 33.59672607 -17.83786011 32.70254517 C-17.3774231 31.35165802 -17.3774231 31.35165802 -16.90768433 29.97348022 C-16.26030842 28.076812 -15.61134871 26.18068372 -14.96090698 24.2850647 C-13.96216387 21.3723897 -12.96999709 18.45753232 -11.97848511 15.54238892 C-11.34866848 13.69980706 -10.71847338 11.85735452 -10.08786011 10.01504517 C-9.78992554 9.13906677 -9.49199097 8.26308838 -9.18502808 7.36056519 C-8.90804077 6.55592834 -8.63105347 5.7512915 -8.34567261 4.92227173 C-7.98046509 3.85568329 -7.98046509 3.85568329 -7.60787964 2.76754761 C-6.15566675 -0.93183005 -3.59759221 0.00637734 0 0 Z " fill="#FFFFFF" transform="translate(762.9628601074219,109.87557983398438)"/>
<path d="M0 0 C3.3 0 6.6 0 10 0 C10.94444147 3.87310138 11.88626706 7.74682965 12.82592773 11.62109375 C13.29866576 13.56802486 13.77332741 15.51448858 14.24804688 17.4609375 C20 41.1953125 20 41.1953125 20 47 C20.66 47 21.32 47 22 47 C22.0825 45.73285156 22.165 44.46570313 22.25 43.16015625 C23.00468115 35.62530276 24.76836101 28.29357545 26.43847656 20.91967773 C27.00542082 18.4135376 27.56191071 15.9052327 28.1171875 13.39648438 C28.47335151 11.80455161 28.83010053 10.2127496 29.1875 8.62109375 C29.35419189 7.87016953 29.52088379 7.1192453 29.69262695 6.3455658 C30.88435651 1.11564349 30.88435651 1.11564349 32 0 C33.68608966 -0.07205511 35.37500659 -0.08386068 37.0625 -0.0625 C37.98160156 -0.05347656 38.90070312 -0.04445313 39.84765625 -0.03515625 C40.55792969 -0.02355469 41.26820313 -0.01195312 42 0 C42.19634033 0.90129639 42.39268066 1.80259277 42.5949707 2.73120117 C43.33799258 6.14019341 44.08173265 9.54902743 44.82592773 12.95776367 C45.14521697 14.420919 45.46423643 15.88413323 45.78295898 17.34741211 C46.24648699 19.47526115 46.71105148 21.6028819 47.17578125 23.73046875 C47.45333252 25.00301514 47.73088379 26.27556152 48.0168457 27.58666992 C49.31155722 33.39856464 50.66110564 39.19812444 52 45 C55.63 30.15 59.26 15.3 63 0 C66.3 0 69.6 0 73 0 C71.66140514 7.81510865 69.97747713 15.44975891 67.99609375 23.125 C67.71274673 24.23431885 67.42939972 25.3436377 67.13746643 26.48657227 C66.54336621 28.80969835 65.94747263 31.1323665 65.34985352 33.45458984 C64.43314482 37.01692426 63.52176529 40.58058936 62.61132812 44.14453125 C62.03155542 46.40893239 61.45148789 48.67325806 60.87109375 50.9375 C60.59817001 52.00307129 60.32524628 53.06864258 60.04405212 54.16650391 C59.79031326 55.15183105 59.5365744 56.1371582 59.27514648 57.15234375 C59.0524559 58.01851318 58.82976532 58.88468262 58.60032654 59.77709961 C58.12558517 61.53498088 57.57580604 63.27258188 57 65 C53.37 65 49.74 65 46 65 C45.7326001 63.7632251 45.4652002 62.5264502 45.18969727 61.25219727 C44.20011589 56.67992752 43.20566764 52.10872796 42.2097168 47.5378418 C41.77869158 45.55636148 41.34900107 43.57459035 40.9206543 41.5925293 C40.30605027 38.74971923 39.68671198 35.90797688 39.06640625 33.06640625 C38.87470352 32.17474258 38.68300079 31.28307892 38.48548889 30.36439514 C37.92075908 26.35738048 37.92075908 26.35738048 36 23 C33.03 36.86 30.06 50.72 27 65 C23.37 65 19.74 65 16 65 C12.41810169 52.39010546 9.09562316 39.72692049 5.9230957 27.00805664 C5.17507098 24.01273029 4.42068091 21.01904998 3.66601562 18.02539062 C3.18711973 16.11207431 2.70858977 14.19866635 2.23046875 12.28515625 C1.8930793 10.94941307 1.8930793 10.94941307 1.5488739 9.58668518 C1.24273918 8.35280312 1.24273918 8.35280312 0.93041992 7.09399414 C0.75008713 6.37329239 0.56975433 5.65259064 0.38395691 4.91004944 C0 3 0 3 0 0 Z " fill="#FFFFFF" transform="translate(501,364)"/>
<path d="M0 0 C3.3 0 6.6 0 10 0 C10 29.37 10 58.74 10 89 C6.7 89 3.4 89 0 89 C-0.33 87.68 -0.66 86.36 -1 85 C-1.721875 85.61875 -2.44375 86.2375 -3.1875 86.875 C-7.35400662 90.02302723 -10.16174814 91.23727682 -15.375 90.875 C-21.98278885 89.89972105 -26.11709735 87.42724881 -30.25 82.1875 C-38.09622558 70.9307817 -38.56762598 57.07230551 -36.50390625 43.8125 C-34.15139454 35.30624298 -29.85065931 28.4726494 -22.18359375 23.921875 C-17.97716379 22.14599402 -13.46892765 22.45674396 -9 23 C-5.73041014 24.36716578 -3.49769227 26.50230773 -1 29 C-0.67 19.43 -0.34 9.86 0 0 Z M-23 38 C-28.07332581 46.69712996 -28.18198653 57.26441502 -26.46875 67.02734375 C-24.89320941 72.72155295 -22.95261503 77.24439106 -17.6875 80.375 C-13.95572881 81.24285376 -11.69286057 81.10137947 -8 80 C-3.14147674 75.96232313 -0.41462842 71.1541423 0.21899414 64.8059082 C1.12361315 50.23831773 1.12361315 50.23831773 -4 37 C-7.19370353 33.95146481 -9.73272137 32.77181436 -14.0625 32.4375 C-18.85479651 33.12211379 -20.10341328 34.19305745 -23 38 Z " fill="#FFFFFF" transform="translate(755,340)"/>
<path d="M0 0 C6.87098468 2.39957727 10.75311444 7.72875686 14 14 C18.94262398 24.37018466 18.37826662 38.08567526 15.5625 49 C12.87769944 56.52124979 7.710588 63.43933887 0.5 67.1875 C-4.52648135 68.35436174 -9.16627419 68.41390495 -13.87109375 66.06640625 C-15.717838 64.85738664 -17.43569745 63.56430255 -19 62 C-19.33 71.24 -19.66 80.48 -20 90 C-23.3 90 -26.6 90 -30 90 C-30 60.63 -30 31.26 -30 1 C-26.7 1 -23.4 1 -20 1 C-19.67 2.65 -19.34 4.3 -19 6 C-18.05125 5.195625 -17.1025 4.39125 -16.125 3.5625 C-11.08254776 -0.71262255 -6.49641827 -0.74721996 0 0 Z M-14 12 C-19.56812802 18.99356879 -20.19941033 25.07387094 -20.25 33.75 C-20.270625 34.61882812 -20.29125 35.48765625 -20.3125 36.3828125 C-20.35564789 43.56693675 -19.22503166 49.09509755 -14.75 54.9375 C-11.32842901 57.50367824 -9.26571017 58 -5 58 C0.2025159 56.26582803 2.49691705 53.82737427 5 49 C8.33539239 39.61920891 8.53609536 27.35060268 5 18 C3.01836952 14.23200919 1.13903928 11.62375961 -2.625 9.5625 C-7.36426392 8.44004276 -9.95200885 9.40928567 -14 12 Z " fill="#FFFFFF" transform="translate(1021,363)"/>
<path d="M0 0 C3.76574274 2.35256814 6.5572262 4.84292728 7.89537048 9.21835327 C9.17595642 14.83167844 9.63302695 20.16633927 9.69140625 25.9140625 C9.70840073 26.7947641 9.7253952 27.6754657 9.74290466 28.58285522 C9.79552136 31.36766594 9.83609074 34.15246689 9.875 36.9375 C9.91916965 39.72960087 9.96603846 42.52159754 10.01780701 45.31356812 C10.04935105 47.04202315 10.07636243 48.77056907 10.09803772 50.49917603 C10.17807994 55.19420929 10.5425691 59.67895114 11.3125 64.3125 C8.0125 64.3125 4.7125 64.3125 1.3125 64.3125 C0.6525 62.3325 -0.0075 60.3525 -0.6875 58.3125 C-1.26757812 58.72242188 -1.84765625 59.13234375 -2.4453125 59.5546875 C-9.12373228 64.16125428 -14.33790858 67.03229236 -22.6875 66.3125 C-28.8897241 64.90397964 -32.12650401 62.54925881 -35.6875 57.3125 C-38.39055102 52.67869824 -38.32323603 47.52553547 -37.6875 42.3125 C-35.90526629 36.47973512 -32.79899596 32.6880162 -27.6875 29.3125 C-19.85061959 25.67394838 -9.29634141 23.3125 -0.6875 23.3125 C-0.94370684 21.7059324 -1.21805871 20.1022517 -1.5 18.5 C-1.65082031 17.60667969 -1.80164063 16.71335937 -1.95703125 15.79296875 C-2.75223447 13.09267975 -3.51440155 12.04769448 -5.6875 10.3125 C-8.260829 9.0258355 -10.18973038 9.14425449 -13.0625 9.125 C-14.01898438 9.11082031 -14.97546875 9.09664063 -15.9609375 9.08203125 C-18.81685453 9.32343398 -20.37355543 9.63103361 -22.6875 11.3125 C-23.8100649 13.47531282 -23.8100649 13.47531282 -24.4375 15.9375 C-24.67984375 16.75476563 -24.9221875 17.57203125 -25.171875 18.4140625 C-25.34203125 19.04054688 -25.5121875 19.66703125 -25.6875 20.3125 C-28.6575 19.9825 -31.6275 19.6525 -34.6875 19.3125 C-36.22563989 14.0049679 -34.67238417 11.30771914 -32.14453125 6.62109375 C-25.88982414 -3.28917944 -10.05236771 -4.67596012 0 0 Z M-12.0625 35.125 C-13.19558594 35.3734668 -13.19558594 35.3734668 -14.3515625 35.62695312 C-18.602993 36.61176876 -22.11123789 37.68208328 -25.6875 40.3125 C-27.4071266 43.7517532 -27.06969964 47.54414562 -26.6875 51.3125 C-24.96060955 54.60181514 -24.2454199 55.1265267 -20.6875 56.3125 C-15.06874276 56.6809431 -11.53038621 56.50440228 -6.6875 53.3125 C-2.31072088 49.05729808 -0.90833811 44.21397323 -0.5703125 38.2421875 C-0.56365793 36.59850758 -0.61907215 34.95476843 -0.6875 33.3125 C-4.62190689 33.3125 -8.25254577 34.24008664 -12.0625 35.125 Z " fill="#FFFFFF" transform="translate(344.6875,364.6875)"/>
<path d="M0 0 C4.0163074 2.50908387 6.55414954 5.87402301 7.83227539 10.46777344 C8.43011877 14.62856771 8.44665529 18.7543143 8.49609375 22.953125 C8.52904089 24.8554732 8.56225239 26.75781684 8.59570312 28.66015625 C8.64298705 31.63977853 8.68742577 34.61938349 8.72680664 37.59912109 C8.76681889 40.48814899 8.81829529 43.37680627 8.87109375 46.265625 C8.8795079 47.14406067 8.88792206 48.02249634 8.89659119 48.92755127 C9.00972209 54.66549603 9.84471923 59.80729093 11.25 65.375 C7.62 65.045 3.99 64.715 0.25 64.375 C-0.41 62.395 -1.07 60.415 -1.75 58.375 C-2.25789062 58.78492188 -2.76578125 59.19484375 -3.2890625 59.6171875 C-9.22134562 64.26080987 -13.94356377 66.87349413 -21.73828125 66.62109375 C-27.44228555 65.92332235 -31.72834762 63.17134806 -35.5234375 59.03125 C-39.19317268 54.0759388 -39.05212479 48.64300127 -38.2890625 42.8046875 C-37.22427176 38.00541328 -35.01141669 34.71061767 -31.625 31.125 C-22.85741651 25.78821005 -11.71916042 25.00568633 -1.75 23.375 C-1.97886309 21.60131108 -2.2339238 19.83098923 -2.5 18.0625 C-2.63921875 17.07636719 -2.7784375 16.09023438 -2.921875 15.07421875 C-3.55060947 12.3205165 -3.55060947 12.3205165 -5.45703125 10.55078125 C-9.94862471 8.24759619 -14.85659659 8.66542303 -19.75 9.375 C-24.07492016 12.31594571 -25.47054698 15.37350182 -26.75 20.375 C-29.72 20.045 -32.69 19.715 -35.75 19.375 C-36.95930396 14.53778414 -36.18343501 12.96053651 -34.12109375 8.62890625 C-27.38039825 -2.45195217 -11.46833133 -5.20302367 0 0 Z M-14.1875 35.5625 C-15.04666016 35.75908203 -15.90582031 35.95566406 -16.79101562 36.15820312 C-20.85013558 37.18164299 -23.24356341 37.89238668 -26.32421875 40.828125 C-28.22621281 44.22565959 -28.16868108 46.53709012 -27.75 50.375 C-26.88699417 53.03593465 -26.34278185 54.01958751 -23.9453125 55.45703125 C-20.24532044 57.00418095 -16.68620982 56.9421969 -12.75 56.375 C-9.36377224 54.7018025 -9.36377224 54.7018025 -6.75 52.375 C-5.88375 51.694375 -5.88375 51.694375 -5 51 C-0.98947535 45.78631796 -1.528397 39.60450663 -1.75 33.375 C-6.07578791 33.375 -10.00667628 34.51651348 -14.1875 35.5625 Z " fill="#FFFFFF" transform="translate(643.75,364.625)"/>
<path d="M0 0 C7.95483689 4.72008994 12.09536061 12.57388232 14.375 21.3125 C14.75052589 26.00657366 14.625 30.72842926 14.625 35.4375 C1.755 35.7675 -11.115 36.0975 -24.375 36.4375 C-21.9855041 48.18267453 -21.9855041 48.18267453 -14.4375 54.75 C-10.16430002 56.17439999 -7.30179065 55.88235951 -3.25 53.9375 C0.29515485 50.85475665 1.85635091 47.7238731 3.625 43.4375 C7.49486958 43.36307943 10.8985915 43.39047814 14.625 44.4375 C12.52187811 52.40722508 9.32281652 59.50645281 2 63.875 C-4.36890991 66.8235694 -10.59762128 67.54963136 -17.375 65.375 C-24.2008925 62.4995256 -29.66374506 57.46927018 -32.6328125 50.6640625 C-36.85917276 37.98498171 -37.01197546 22.8313727 -31.015625 10.68359375 C-24.10270187 -0.13121124 -12.4707504 -5.59862205 0 0 Z M-20.375 12.4375 C-23.3215149 17.0096783 -23.56344887 19.75664208 -24.375 25.4375 C-15.135 25.4375 -5.895 25.4375 3.625 25.4375 C3.32285345 17.62018864 3.32285345 17.62018864 -0.3125 12.4375 C-0.83714844 11.880625 -1.36179687 11.32375 -1.90234375 10.75 C-5.04810994 7.94634631 -8.00780495 8.10160007 -12.0546875 8.16015625 C-15.69654351 8.59546227 -17.68759534 10.00603864 -20.375 12.4375 Z " fill="#FFFFFF" transform="translate(916.375,364.5625)"/>
<path d="M0 0 C8.71979451 5.21016767 11.64742199 13.21615063 14.23046875 22.6484375 C14.82784089 26.8714445 14.625 31.17245116 14.625 35.4375 C1.425 35.4375 -11.775 35.4375 -25.375 35.4375 C-22.69781429 46.99121795 -22.69781429 46.99121795 -15.125 54.8125 C-10.11363701 55.95144613 -6.0133723 55.38411511 -1.5625 52.8125 C1.17959211 49.83537142 2.2406312 47.22629882 3.625 43.4375 C6.925 43.7675 10.225 44.0975 13.625 44.4375 C13.34439369 51.03174825 10.81888963 55.39310128 6.625 60.4375 C0.96522762 65.03606506 -4.77184555 66.95294727 -12.01171875 66.74609375 C-18.80602207 65.85890373 -24.25959088 62.46458778 -28.87109375 57.5 C-35.820789 47.96898937 -36.35754684 35.78899487 -35.375 24.4375 C-33.62159766 15.05930235 -30.20398026 6.60954698 -22.1875 1 C-15.58984432 -2.66536427 -6.95655857 -3.14861645 0 0 Z M-20.375 12.4375 C-23.41666233 16.97630454 -24.375 19.86982769 -24.375 25.4375 C-15.135 25.4375 -5.895 25.4375 3.625 25.4375 C2.65289409 17.66065274 1.88231052 15.05673391 -3.0625 9.5625 C-9.21670722 6.56856135 -15.4530943 7.85898307 -20.375 12.4375 Z " fill="#FFFFFF" transform="translate(1192.375,364.5625)"/>
<path d="M0 0 C7.96202864 4.71521778 11.44037323 11.10656123 14.12109375 19.765625 C14.99279942 24.94171579 14.75 30.25102042 14.75 35.5 C1.88 35.83 -10.99 36.16 -24.25 36.5 C-22.07281104 47.13134129 -22.07281104 47.13134129 -15.625 54.375 C-11.2078702 55.8473766 -7.69079167 55.98299501 -3.25 54.5 C0.39689726 51.70756901 2.3537557 47.81566419 3.75 43.5 C7.61986958 43.42557943 11.0235915 43.45297814 14.75 44.5 C12.44935174 52.34311906 9.84198712 58.82573576 2.75 63.5 C-3.35214987 66.55763639 -9.06081767 67.54894487 -15.73046875 65.87890625 C-23.28707446 63.30668797 -27.57441215 59.12517778 -31.53125 52.28515625 C-36.84380011 40.8821469 -36.41896471 26.6718494 -32.36328125 14.93359375 C-29.21048783 7.36938187 -25.54436482 2.94783768 -18.03515625 -0.546875 C-11.98755122 -2.61646213 -5.89502775 -2.53782083 0 0 Z M-21.25 14.5 C-23.14420005 18.07943141 -24.25 21.40424164 -24.25 25.5 C-14.68 25.5 -5.11 25.5 4.75 25.5 C3.51074128 17.82434717 3.51074128 17.82434717 -0.25 12.5 C-0.765625 11.943125 -1.28125 11.38625 -1.8125 10.8125 C-4.86835272 8.0223736 -7.88146767 8.03994881 -11.86328125 8.09765625 C-16.11788585 8.81488092 -18.6550178 11.15957576 -21.25 14.5 Z " fill="#FFFFFF" transform="translate(1355.25,364.5)"/>
<path d="M0 0 C7.55558995 4.3712417 12.3834972 10.74964577 14.6640625 19.1171875 C15.6640625 24.1171875 15.6640625 24.1171875 15.6640625 36.1171875 C2.7940625 36.1171875 -10.0759375 36.1171875 -23.3359375 36.1171875 C-20.88389661 47.07381331 -20.88389661 47.07381331 -18.3359375 53.1171875 C-14.46244536 55.39571229 -9.80539798 56.14358195 -5.3359375 56.1171875 C-1.69547765 55.11784558 0.03626796 54.05308174 2.14453125 50.91015625 C3.39429515 48.68718685 4.53686038 46.40474474 5.6640625 44.1171875 C8.9640625 44.4471875 12.2640625 44.7771875 15.6640625 45.1171875 C13.85855563 52.76404014 11.60556255 57.85832788 5.6640625 63.1171875 C-0.11414338 66.62943029 -5.57890891 67.91690443 -12.3359375 67.1171875 C-20.0132566 65.23089783 -25.05566706 61.75898645 -29.3359375 55.1171875 C-35.54521819 44.7806698 -34.79720854 30.05474264 -32.67578125 18.53125 C-30.23350277 10.98238923 -25.49737863 4.70376984 -18.6484375 0.6171875 C-12.81631701 -1.9081773 -5.96444583 -2.25412167 0 0 Z M-20.3359375 15.1171875 C-21.9899472 18.63122234 -23.3359375 22.20030152 -23.3359375 26.1171875 C-13.7659375 26.1171875 -4.1959375 26.1171875 5.6640625 26.1171875 C3.99088047 17.64657979 3.99088047 17.64657979 -0.3359375 11.1171875 C-7.71038331 6.64923186 -15.24477283 8.31517075 -20.3359375 15.1171875 Z " fill="#FFFFFF" transform="translate(1078.3359375,363.8828125)"/>
<path d="M0 0 C5.05576564 3.45271799 8.14565393 6.13558722 10.8125 11.75 C11.31265625 12.78125 11.8128125 13.8125 12.328125 14.875 C15.53228696 22.33785823 14.5625 26.49478525 14.5625 35.75 C1.6925 35.75 -11.1775 35.75 -24.4375 35.75 C-22.04836539 47.70068708 -22.04836539 47.70068708 -14.125 55.1875 C-10.3478087 55.97807492 -7.13474595 55.90492064 -3.4375 54.75 C0.53604643 51.65946388 2.54261857 48.3213106 4.5625 43.75 C7.8625 44.08 11.1625 44.41 14.5625 44.75 C14.02046647 51.9771137 10.38771724 57.3407116 5.125 62.125 C0.12551808 66.08157924 -4.77009519 67.21896065 -11.06640625 67.0703125 C-17.15304737 66.24806444 -23.17777742 63.12804821 -27.4375 58.75 C-35.35043982 47.09975333 -36.06117181 33.59479487 -33.8203125 20.0078125 C-31.43361479 11.03129455 -27.05468589 4.6801372 -19.1875 -0.3125 C-12.72588272 -1.92790432 -6.31438603 -2.29614037 0 0 Z M-20.4375 13.75 C-23.06141254 18.00254792 -23.58512547 20.63575281 -24.4375 25.75 C-14.8675 25.75 -5.2975 25.75 4.5625 25.75 C3.29775747 16.78141032 3.29775747 16.78141032 -1.4375 10.75 C-8.46526617 6.60125569 -14.97982694 7.77254856 -20.4375 13.75 Z " fill="#FFFFFF" transform="translate(482.4375,364.25)"/>
<path d="M0 0 C7.69701202 4.56710672 12.03214683 12.22431775 14.21484375 20.73828125 C15.96286475 32.24192419 15.75132129 46.09508653 8.8125 55.875 C4.54016079 60.94906212 0.29725363 64.9696042 -6.375 66.4375 C-13.99168819 67.05174905 -19.93804042 65.55451132 -26.0625 60.875 C-31.50692163 55.90400634 -35.00816786 48.39251679 -35.55200195 41.04663086 C-36.11023342 16.95816484 -36.11023342 16.95816484 -29.25 6.0625 C-21.08981576 -1.38810301 -10.53839856 -4.62563296 0 0 Z M-22.375 14.4375 C-25.14022309 20.4331239 -25.84470528 25.38178985 -25.75 31.9375 C-25.76160156 32.74058594 -25.77320313 33.54367187 -25.78515625 34.37109375 C-25.75160612 41.27123698 -24.51504232 46.91334752 -19.9375 52.3125 C-16.03154298 55.55158631 -14.70630732 56.4589727 -9.5 56.375 C-4.98546566 55.63518804 -2.48936712 53.84157569 0.625 50.4375 C5.67496886 40.51169914 5.4723462 29.03085252 2.625 18.4375 C1.2086524 14.77318787 -0.59109647 12.13181456 -3.5625 9.5 C-11.06273489 6.66657793 -17.5466942 7.73290957 -22.375 14.4375 Z " fill="#FFFFFF" transform="translate(832.375,364.5625)"/>
<path d="M0 0 C3.3 0 6.6 0 10 0 C10.00410889 1.48846436 10.00821777 2.97692871 10.01245117 4.51049805 C10.03423393 10.03656574 10.08851601 15.56192057 10.15258789 21.08764648 C10.17577514 23.47852747 10.19016528 25.8695107 10.19555664 28.26049805 C10.20484038 31.6990537 10.24582168 35.13599944 10.29296875 38.57421875 C10.2890361 39.64210129 10.28510345 40.70998383 10.28105164 41.81022644 C10.37866674 47.94881263 10.37866674 47.94881263 13.4152832 53.17700195 C16.68041241 55.47989416 18.22921478 55.6367273 22.07421875 55.33984375 C25.16141241 54.79504487 26.69130006 54.17677423 29 52 C31.95221247 45.73234543 32.46290356 39.54539256 32.51171875 32.71484375 C32.52966995 31.77314835 32.54762115 30.83145294 32.56611633 29.86122131 C32.61981099 26.88669158 32.65398296 23.91231847 32.6875 20.9375 C32.72070919 18.90687943 32.75520213 16.87627943 32.79101562 14.84570312 C32.87551356 9.89724922 32.94251814 4.94883846 33 0 C36.3 0 39.6 0 43 0 C43 21.45 43 42.9 43 65 C40.03 65 37.06 65 34 65 C33.505 62.03 33.505 62.03 33 59 C32.319375 59.763125 31.63875 60.52625 30.9375 61.3125 C26.80857911 65.09002337 23.10796853 66.7317131 17.5625 67.4375 C12.32788851 66.79465298 8.0874543 65.22146371 4.41796875 61.31640625 C0.85738042 56.54501267 -0.12798148 52.72837076 -0.11352539 46.77246094 C-0.11344986 45.73168396 -0.11337433 44.69090698 -0.11329651 43.61859131 C-0.10813522 42.50179993 -0.10297394 41.38500854 -0.09765625 40.234375 C-0.0962413 39.08584045 -0.09482635 37.93730591 -0.09336853 36.75396729 C-0.08777143 33.08595169 -0.07521944 29.41799715 -0.0625 25.75 C-0.05748463 23.26302171 -0.05292178 20.77604247 -0.04882812 18.2890625 C-0.03780295 12.19268481 -0.02054027 6.09635276 0 0 Z " fill="#FFFFFF" transform="translate(665,364)"/>
<path d="M0 0 C5.18591112 3.70422223 8.10820407 7.72369145 9.625 13.875 C9.89088858 17.79115216 9.85765486 21.69361695 9.8203125 25.6171875 C9.8174826 26.74069611 9.81465271 27.86420471 9.81173706 29.02175903 C9.80057303 32.59794927 9.77547501 36.1738859 9.75 39.75 C9.73996533 42.17968387 9.73084033 44.60937169 9.72265625 47.0390625 C9.700646 52.9844722 9.6661418 58.92969315 9.625 64.875 C6.325 64.875 3.025 64.875 -0.375 64.875 C-0.404729 62.7410376 -0.404729 62.7410376 -0.43505859 60.56396484 C-0.51125677 55.27472541 -0.59995259 49.98575597 -0.69238281 44.69677734 C-0.73061379 42.40972228 -0.76547685 40.12260829 -0.796875 37.83544922 C-0.84265291 34.54373143 -0.90062711 31.2524172 -0.9609375 27.9609375 C-0.97248871 26.94196381 -0.98403992 25.92299011 -0.99594116 24.87313843 C-1.10027109 19.82960891 -1.38103853 15.59754032 -3.375 10.875 C-8.13312587 10.0945169 -12.13087362 9.51307232 -16.8125 10.875 C-20.65620016 13.8749611 -22.07657457 17.49866751 -22.67196655 22.23971558 C-22.81599963 24.96368393 -22.8683366 27.67464436 -22.88671875 30.40234375 C-22.90466995 31.39126114 -22.92262115 32.38017853 -22.94111633 33.39906311 C-22.99500805 36.53683291 -23.02904739 39.67445242 -23.0625 42.8125 C-23.0956917 44.94858852 -23.13018307 47.08465727 -23.16601562 49.22070312 C-23.2507225 54.4386933 -23.31763449 59.65664052 -23.375 64.875 C-26.675 64.875 -29.975 64.875 -33.375 64.875 C-33.375 43.425 -33.375 21.975 -33.375 -0.125 C-30.405 -0.125 -27.435 -0.125 -24.375 -0.125 C-24.045 1.525 -23.715 3.175 -23.375 4.875 C-22.6325 4.25625 -21.89 3.6375 -21.125 3 C-14.63491715 -2.01506402 -7.80868694 -2.60289565 0 0 Z " fill="#FFFFFF" transform="translate(1250.375,364.125)"/>
<path d="M0 0 C5.18591112 3.70422223 8.10820407 7.72369145 9.625 13.875 C9.89088858 17.79115216 9.85765486 21.69361695 9.8203125 25.6171875 C9.8174826 26.74069611 9.81465271 27.86420471 9.81173706 29.02175903 C9.80057303 32.59794927 9.77547501 36.1738859 9.75 39.75 C9.73996533 42.17968387 9.73084033 44.60937169 9.72265625 47.0390625 C9.700646 52.9844722 9.6661418 58.92969315 9.625 64.875 C6.325 64.875 3.025 64.875 -0.375 64.875 C-0.404729 62.7410376 -0.404729 62.7410376 -0.43505859 60.56396484 C-0.51125677 55.27472541 -0.59995259 49.98575597 -0.69238281 44.69677734 C-0.73061379 42.40972228 -0.76547685 40.12260829 -0.796875 37.83544922 C-0.84265291 34.54373143 -0.90062711 31.2524172 -0.9609375 27.9609375 C-0.97248871 26.94196381 -0.98403992 25.92299011 -0.99594116 24.87313843 C-1.10027109 19.82960891 -1.38103853 15.59754032 -3.375 10.875 C-8.13312587 10.0945169 -12.13087362 9.51307232 -16.8125 10.875 C-20.65620016 13.8749611 -22.07657457 17.49866751 -22.67196655 22.23971558 C-22.81599963 24.96368393 -22.8683366 27.67464436 -22.88671875 30.40234375 C-22.90466995 31.39126114 -22.92262115 32.38017853 -22.94111633 33.39906311 C-22.99500805 36.53683291 -23.02904739 39.67445242 -23.0625 42.8125 C-23.0956917 44.94858852 -23.13018307 47.08465727 -23.16601562 49.22070312 C-23.2507225 54.4386933 -23.31763449 59.65664052 -23.375 64.875 C-26.675 64.875 -29.975 64.875 -33.375 64.875 C-33.375 43.425 -33.375 21.975 -33.375 -0.125 C-30.405 -0.125 -27.435 -0.125 -24.375 -0.125 C-24.045 1.525 -23.715 3.175 -23.375 4.875 C-22.6325 4.25625 -21.89 3.6375 -21.125 3 C-14.63491715 -2.01506402 -7.80868694 -2.60289565 0 0 Z " fill="#FFFFFF" transform="translate(428.375,364.125)"/>
<path d="M0 0 C3.82320932 -0.61225772 7.20020445 -0.84089528 11 0 C13.86378706 2.89393219 15.29369268 6.34009444 17 10 C18.10430404 11.88726325 19.22855973 13.76303204 20.375 15.625 C21.25 17.08333333 22.125 18.54166667 23 20 C23.29245605 19.50072998 23.58491211 19.00145996 23.88623047 18.48706055 C25.21489807 16.2199984 26.54493398 13.95374197 27.875 11.6875 C28.33519531 10.90181641 28.79539062 10.11613281 29.26953125 9.30664062 C29.93662109 8.1706543 29.93662109 8.1706543 30.6171875 7.01171875 C31.22989502 5.96697388 31.22989502 5.96697388 31.85498047 4.90112305 C32.85648124 3.2382901 33.9232503 1.61512455 35 0 C37.6015625 -0.29296875 37.6015625 -0.29296875 40.625 -0.1875 C42.12933594 -0.14689453 42.12933594 -0.14689453 43.6640625 -0.10546875 C44.43492187 -0.07066406 45.20578125 -0.03585937 46 0 C45.38062517 2.96215601 44.43808336 5.23335727 42.890625 7.828125 C42.46523438 8.54613281 42.03984375 9.26414062 41.6015625 10.00390625 C40.93253906 11.11572266 40.93253906 11.11572266 40.25 12.25 C39.81945312 12.97574219 39.38890625 13.70148438 38.9453125 14.44921875 C38.51476562 15.17238281 38.08421875 15.89554687 37.640625 16.640625 C36.99577148 17.7244043 36.99577148 17.7244043 36.33789062 18.83007812 C35.43510171 20.29430949 34.49486666 21.73601331 33.52148438 23.15429688 C33.05548828 23.84072266 32.58949219 24.52714844 32.109375 25.234375 C31.46693848 26.14268066 31.46693848 26.14268066 30.81152344 27.06933594 C29.65895399 29.8113694 30.09702211 31.17703311 31 34 C32.11808622 36.20585027 33.31521538 38.37235628 34.5625 40.5078125 C34.9138501 41.115112 35.2652002 41.7224115 35.62719727 42.34811401 C36.74485512 44.27767472 37.87185038 46.20155788 39 48.125 C40.12662015 50.05641755 41.25119165 51.98897854 42.37280273 53.92330933 C43.38891876 55.67410566 44.41110625 57.42137407 45.43359375 59.16845703 C47 62 47 62 48 65 C44.04 65 40.08 65 36 65 C33.99491947 61.37772653 31.99574934 57.75240928 30 54.125 C29.42765625 53.09246094 28.8553125 52.05992187 28.265625 50.99609375 C27.72421875 50.00996094 27.1828125 49.02382813 26.625 48.0078125 C26.12226562 47.09660645 25.61953125 46.18540039 25.1015625 45.24658203 C24 43 24 43 24 41 C23.34 41 22.68 41 22 41 C21.76023437 41.79792969 21.52046875 42.59585938 21.2734375 43.41796875 C18.61840999 50.88625164 15.29869734 59.00401591 10 65 C5.78193392 66.7674291 2.46716165 66.81360676 -2 66 C-1.31777738 62.0604046 0.55953328 59.05081783 2.5625 55.625 C2.9138501 55.01865723 3.2652002 54.41231445 3.62719727 53.78759766 C5.12538542 51.20244955 6.63499669 48.62402787 8.14355469 46.04492188 C9.24550495 44.15722488 10.34161592 42.26622301 11.4375 40.375 C12.42556641 38.68503906 12.42556641 38.68503906 13.43359375 36.9609375 C15.24459327 33.62577806 15.24459327 33.62577806 16 30 C15.33141298 28.0784987 15.33141298 28.0784987 14.12109375 26.2421875 C13.69683105 25.53852051 13.27256836 24.83485352 12.83544922 24.10986328 C12.37412598 23.3723584 11.91280273 22.63485352 11.4375 21.875 C10.97875488 21.11815918 10.52000977 20.36131836 10.04736328 19.58154297 C8.71053587 17.37984799 7.35862669 15.18829472 6 13 C4.78806463 11.04389378 3.5789046 9.08605905 2.375 7.125 C1.90835938 6.38507813 1.44171875 5.64515625 0.9609375 4.8828125 C0 3 0 3 0 0 Z " fill="#FFFFFF" transform="translate(937,364)"/>
<path d="M0 0 C5.04063462 3.75116995 10.16105224 8.72460365 11.6875 15 C11.8125 17.8125 11.8125 17.8125 11.6875 20 C8.7175 20.66 5.7475 21.32 2.6875 22 C2.36136719 21.30132812 2.03523438 20.60265625 1.69921875 19.8828125 C1.26222656 18.97273438 0.82523438 18.06265625 0.375 17.125 C-0.05425781 16.22007812 -0.48351563 15.31515625 -0.92578125 14.3828125 C-2.2324388 11.73550524 -2.2324388 11.73550524 -5.3125 10 C-9.94595221 9.5442506 -12.37335407 9.57472637 -16.625 11.5 C-21.24882093 15.80122877 -22.44501937 20.96901789 -22.7109375 27.09375 C-22.71880686 28.89583309 -22.71076765 30.69804995 -22.6875 32.5 C-22.69910156 33.39847656 -22.71070313 34.29695313 -22.72265625 35.22265625 C-22.69264394 42.0954758 -21.61889239 47.66854433 -17.625 53.4375 C-14.31950738 55.67094096 -11.27952433 56.20546341 -7.3125 56 C-3.59068311 54.4285662 -1.30326637 52.50754075 0.6875 49 C1.50223817 46.34700883 2.09862685 43.71787609 2.6875 41 C5.9875 41.33 9.2875 41.66 12.6875 42 C12.09453042 50.30157414 10.02644035 56.13631322 3.8125 61.875 C-1.59562365 66.26347742 -6.33651103 67.60137836 -13.3125 67 C-20.03084936 65.24348499 -24.92252058 62.2544067 -28.9375 56.5 C-35.55474482 45.18597257 -35.98681892 30.77060864 -32.9921875 18.23828125 C-30.67527343 10.60844354 -26.93107795 5.56028648 -20.3125 1 C-13.99658893 -2.11653972 -6.66710732 -2.01271164 0 0 Z " fill="#FFFFFF" transform="translate(1304.3125,364)"/>
<path d="M0 0 C3 1.5 3 1.5 5 3 C4.125 10.625 4.125 10.625 3 14 C2.32453125 13.88140625 1.6490625 13.7628125 0.953125 13.640625 C-4.48165895 12.7177922 -4.48165895 12.7177922 -9.5 14.4375 C-13.17385643 20.71367141 -13.31843592 27.66746336 -13.4140625 34.75 C-13.43342865 35.64871826 -13.4527948 36.54743652 -13.4727478 37.47338867 C-13.53204608 40.31549896 -13.57872808 43.15765085 -13.625 46 C-13.66322567 47.93881876 -13.70228 49.87762138 -13.7421875 51.81640625 C-13.8377061 56.5441381 -13.9219186 61.27194932 -14 66 C-17.3 66 -20.6 66 -24 66 C-24 44.55 -24 23.1 -24 1 C-21.03 1 -18.06 1 -15 1 C-14.67 2.65 -14.34 4.3 -14 6 C-13.175 5.01 -12.35 4.02 -11.5 3 C-7.69352183 -0.80647817 -5.24551944 -0.74935992 0 0 Z " fill="#FFFFFF" transform="translate(1128,363)"/>
<path d="M0 0 C3.3 0 6.6 0 10 0 C10 21.45 10 42.9 10 65 C6.7 65 3.4 65 0 65 C0 43.55 0 22.1 0 0 Z " fill="#FFFFFF" transform="translate(1138,364)"/>
<path d="M0 0 C3.3 0 6.6 0 10 0 C10 21.45 10 42.9 10 65 C6.7 65 3.4 65 0 65 C0 43.55 0 22.1 0 0 Z " fill="#FFFFFF" transform="translate(777,364)"/>
<path d="M0 0 C3.3 0 6.6 0 10 0 C10 4.29 10 8.58 10 13 C6.7 13 3.4 13 0 13 C0 8.71 0 4.42 0 0 Z " fill="#FFFFFF" transform="translate(1138,340)"/>
<path d="M0 0 C3.3 0 6.6 0 10 0 C10 4.29 10 8.58 10 13 C6.7 13 3.4 13 0 13 C0 8.71 0 4.42 0 0 Z " fill="#FFFFFF" transform="translate(777,340)"/>
<path d="M0 0 C1.98 0 3.96 0 6 0 C6 0.66 6 1.32 6 2 C4.02 2 2.04 2 0 2 C0 1.34 0 0.68 0 0 Z " fill="#FFFFFF" transform="translate(158,117)"/>
<path d="M0 0 C1.65 0 3.3 0 5 0 C5 0.66 5 1.32 5 2 C3.35 2 1.7 2 0 2 C0 1.34 0 0.68 0 0 Z " fill="#FFFFFF" transform="translate(166,117)"/>
</svg>
