<?xml version="1.0" encoding="UTF-8"?>
<svg version="1.1" xmlns="http://www.w3.org/2000/svg" width="1126" height="578">
<path d="M0 0 C20.79 0 41.58 0 63 0 C63.33 33.33 63.66 66.66 64 101 C64.66 101 65.32 101 66 101 C66 100.34 66 99.68 66 99 C67.3125 97.375 67.3125 97.375 69 96 C69.99 96 70.98 96 72 96 C72 95.01 72 94.02 72 93 C73.32 93 74.64 93 76 93 C76 92.34 76 91.68 76 91 C76.99 91 77.98 91 79 91 C79 90.01 79 89.02 79 88 C80.65 88 82.3 88 84 88 C84 87.34 84 86.68 84 86 C84.99 85.67 85.98 85.34 87 85 C87.33 84.34 87.66 83.68 88 83 C89.98 83 91.96 83 94 83 C94 82.34 94 81.68 94 81 C96.64 80.67 99.28 80.34 102 80 C102 79.34 102 78.68 102 78 C106.455 77.505 106.455 77.505 111 77 C111 76.34 111 75.68 111 75 C125.85 75 140.7 75 156 75 C156 75.66 156 76.32 156 77 C158.97 77.33 161.94 77.66 165 78 C165 78.66 165 79.32 165 80 C167.31 80.33 169.62 80.66 172 81 C172 81.66 172 82.32 172 83 C173.98 83 175.96 83 178 83 C178.33 83.66 178.66 84.32 179 85 C179.99 85.33 180.98 85.66 182 86 C182 86.66 182 87.32 182 88 C183.65 88 185.3 88 187 88 C187 88.99 187 89.98 187 91 C187.99 91 188.98 91 190 91 C190 91.66 190 92.32 190 93 C191.32 93 192.64 93 194 93 C194 93.99 194 94.98 194 96 C194.99 96 195.98 96 197 96 C197 96.99 197 97.98 197 99 C197.99 99 198.98 99 200 99 C200 99.66 200 100.32 200 101 C200.66 101 201.32 101 202 101 C206 105.35294118 206 105.35294118 206 109 C206.66 109 207.32 109 208 109 C208.66 110.65 209.32 112.3 210 114 C210.99 114 211.98 114 213 114 C213 115.65 213 117.3 213 119 C213.99 119.33 214.98 119.66 216 120 C216.5625 121.625 216.5625 121.625 217 124 C217.59793673 126.35188447 218.25881795 128.68925595 219 131 C219.66 131.33 220.32 131.66 221 132 C221 134.64 221 137.28 221 140 C221.66 140 222.32 140 223 140 C223 143.3 223 146.6 223 150 C223.99 150.33 224.98 150.66 226 151 C226 205.12 226 259.24 226 315 C205.54 315 185.08 315 164 315 C163.67 271.11 163.34 227.22 163 182 C162.34 182 161.68 182 161 182 C161 175.73 161 169.46 161 163 C160.34 163 159.68 163 159 163 C158.67 160.69 158.34 158.38 158 156 C157.34 156 156.68 156 156 156 C155.89042969 155.43410156 155.78085938 154.86820313 155.66796875 154.28515625 C155.50941406 153.55167969 155.35085937 152.81820312 155.1875 152.0625 C155.03667969 151.33160156 154.88585937 150.60070312 154.73046875 149.84765625 C154.48941406 149.23792969 154.24835938 148.62820312 154 148 C153.01 147.67 152.02 147.34 151 147 C150.30062468 145.68352881 149.63270867 144.34977849 149 143 C148.34 142.67 147.68 142.34 147 142 C147 141.34 147 140.68 147 140 C146.01 140 145.02 140 144 140 C144 139.01 144 138.02 144 137 C141.03 136.34 138.06 135.68 135 135 C135 134.01 135 133.02 135 132 C132.36 132 129.72 132 127 132 C127 131.34 127 130.68 127 130 C118.09 130 109.18 130 100 130 C100 130.66 100 131.32 100 132 C98.2984375 132.185625 98.2984375 132.185625 96.5625 132.375 C95.386875 132.58125 94.21125 132.7875 93 133 C92.67 133.66 92.34 134.32 92 135 C90.02 135 88.04 135 86 135 C86 135.66 86 136.32 86 137 C84.02709413 139.34869747 82.99693138 140.00102287 80 141 C79.67 141.66 79.34 142.32 79 143 C78.01 143 77.02 143 76 143 C76 144.65 76 146.3 76 148 C75.01 148 74.02 148 73 148 C73 148.66 73 149.32 73 150 C72.34 150 71.68 150 71 150 C71 151.65 71 153.3 71 155 C70.01 155 69.02 155 68 155 C68.020625 155.94875 68.04125 156.8975 68.0625 157.875 C68 161 68 161 67 163 C66.77377919 164.70363822 66.59111527 166.41328701 66.4375 168.125 C66.31181641 169.49011719 66.31181641 169.49011719 66.18359375 170.8828125 C66.12300781 171.58148438 66.06242187 172.28015625 66 173 C65.01 173 64.02 173 63 173 C63 219.86 63 266.72 63 315 C42.21 315 21.42 315 0 315 C0 211.05 0 107.1 0 0 Z " fill="#FFFFFF" transform="translate(0,91)"/>
<path d="M0 0 C18.15 0 36.3 0 55 0 C55 0.66 55 1.32 55 2 C58.3 2.33 61.6 2.66 65 3 C65 3.66 65 4.32 65 5 C66.175625 5.12375 67.35125 5.2475 68.5625 5.375 C72.5563314 5.87955877 76.19340733 6.6793454 80 8 C80.33 8.66 80.66 9.32 81 10 C83.02463255 10.65213292 83.02463255 10.65213292 85 11 C85 11.66 85 12.32 85 13 C86.65 13 88.3 13 90 13 C90 13.99 90 14.98 90 16 C91.32 16 92.64 16 94 16 C94 16.66 94 17.32 94 18 C95.32 18 96.64 18 98 18 C98 18.99 98 19.98 98 21 C99.32 21 100.64 21 102 21 C102 21.99 102 22.98 102 24 C102.99 24 103.98 24 105 24 C105 24.66 105 25.32 105 26 C105.99 26 106.98 26 108 26 C108 26.99 108 27.98 108 29 C108.66 29 109.32 29 110 29 C110 29.66 110 30.32 110 31 C110.99 31 111.98 31 113 31 C113 31.99 113 32.98 113 34 C113.99 34 114.98 34 116 34 C116 34.66 116 35.32 116 36 C116.66 36 117.32 36 118 36 C118 36.99 118 37.98 118 39 C118.66 39 119.32 39 120 39 C120 39.99 120 40.98 120 42 C120.99 42 121.98 42 123 42 C123 42.66 123 43.32 123 44 C123.66 44 124.32 44 125 44 C125.33 45.65 125.66 47.3 126 49 C126.66 49 127.32 49 128 49 C128.33 50.65 128.66 52.3 129 54 C129.66 54 130.32 54 131 54 C131 54.99 131 55.98 131 57 C131.66 57.33 132.32 57.66 133 58 C133 59.32 133 60.64 133 62 C133.99 62.33 134.98 62.66 136 63 C136 65.31 136 67.62 136 70 C136.99 70.33 137.98 70.66 139 71 C139 73.31 139 75.62 139 78 C139.66 78 140.32 78 141 78 C141 81.3 141 84.6 141 88 C141.99 88.33 142.98 88.66 144 89 C144.17203069 93.33314486 144.33193566 97.6665462 144.48217773 102.00048828 C144.53445138 103.46446812 144.58963701 104.92834784 144.64819336 106.39208984 C145.12464667 118.38214089 144.60293439 129.94131226 144 142 C87.57 142 31.14 142 -27 142 C-26.01 144.475 -26.01 144.475 -25 147 C-24.67 147 -24.34 147 -24 147 C-23.92652344 147.97839844 -23.92652344 147.97839844 -23.8515625 148.9765625 C-23.42757771 153.93279853 -22.84334427 158.33019451 -21 163 C-20.34 163 -19.68 163 -19 163 C-19 164.65 -19 166.3 -19 168 C-18.01 168.33 -17.02 168.66 -16 169 C-14.8125 171.0625 -14.8125 171.0625 -14 173 C-13.34 173 -12.68 173 -12 173 C-12 173.99 -12 174.98 -12 176 C-11.01 176 -10.02 176 -9 176 C-9 176.99 -9 177.98 -9 179 C-8.030625 179.28875 -7.06125 179.5775 -6.0625 179.875 C-3 181 -3 181 -2 183 C0.02463255 183.65213292 0.02463255 183.65213292 2 184 C2 184.66 2 185.32 2 186 C3.98 186 5.96 186 8 186 C8.33 186.66 8.66 187.32 9 188 C11.58605332 188.4683265 11.58605332 188.4683265 14.5625 188.625 C15.57441406 188.69976562 16.58632813 188.77453125 17.62890625 188.8515625 C18.80259766 188.92503906 18.80259766 188.92503906 20 189 C20 189.66 20 190.32 20 191 C24.29 191 28.58 191 33 191 C33 190.34 33 189.68 33 189 C36.96 188.67 40.92 188.34 45 188 C45 187.34 45 186.68 45 186 C46.98 186 48.96 186 51 186 C51 185.34 51 184.68 51 184 C53.63904371 182.58622659 56.07120629 181.62759865 59 181 C59 180.34 59 179.68 59 179 C60.375 177.375 60.375 177.375 62 176 C62.66 176 63.32 176 64 176 C64 175.01 64 174.02 64 173 C64.66 173 65.32 173 66 173 C66 172.01 66 171.02 66 170 C66.66 170 67.32 170 68 170 C68.33 168.68 68.66 167.36 69 166 C69.66 166 70.32 166 71 166 C71 165.01 71 164.02 71 163 C79.71844003 162.97687389 88.43686956 162.95908354 97.15533352 162.94818783 C101.20325742 162.94295959 105.25116041 162.93586301 109.29907227 162.92456055 C113.20235971 162.91372957 117.10562699 162.90772272 121.0089283 162.90512276 C122.50133647 162.90326889 123.99374348 162.899649 125.48614311 162.89426994 C127.56948139 162.88705669 129.65273531 162.88600917 131.73608398 162.88647461 C132.92411118 162.884254 134.11213837 162.88203339 135.33616638 162.87974548 C138 163 138 163 139 164 C139.04080783 165.99958364 139.04254356 168.00045254 139 170 C138.01 170.33 137.02 170.66 136 171 C136 173.31 136 175.62 136 178 C135.34 178.33 134.68 178.66 134 179 C133.34444881 181.52733235 133.34444881 181.52733235 133 184 C132.34 184 131.68 184 131 184 C131 185.65 131 187.3 131 189 C130.01 189 129.02 189 128 189 C128 190.65 128 192.3 128 194 C127.01 194 126.02 194 125 194 C125 194.99 125 195.98 125 197 C124.34 197 123.68 197 123 197 C123 197.66 123 198.32 123 199 C122.34 199 121.68 199 121 199 C120.814375 200.175625 120.814375 200.175625 120.625 201.375 C120 204 120 204 118 206 C117.01 206.33 116.02 206.66 115 207 C114.67 207.99 114.34 208.98 114 210 C113.34 210 112.68 210 112 210 C112 210.66 112 211.32 112 212 C111.34 212 110.68 212 110 212 C110 212.99 110 213.98 110 215 C109.01 215 108.02 215 107 215 C107 215.66 107 216.32 107 217 C104.98250297 219.42099644 102.91201404 220.81699429 100 222 C99.01 222 98.02 222 97 222 C97 222.99 97 223.98 97 225 C96.01 225 95.02 225 94 225 C94 225.99 94 226.98 94 228 C92.35 228 90.7 228 89 228 C89 228.66 89 229.32 89 230 C88.360625 230.12375 87.72125 230.2475 87.0625 230.375 C86.381875 230.58125 85.70125 230.7875 85 231 C84.67 231.66 84.34 232.32 84 233 C82.35 233 80.7 233 79 233 C79 233.66 79 234.32 79 235 C78.195625 235.12375 77.39125 235.2475 76.5625 235.375 C75.716875 235.58125 74.87125 235.7875 74 236 C73.67 236.66 73.34 237.32 73 238 C70.67284 238.37400786 68.33882138 238.70764733 66 239 C65.67 239.33 65.34 239.66 65 240 C63.31816052 240.23287008 61.6287584 240.41264166 59.9375 240.5625 C59.01839844 240.64628906 58.09929687 240.73007812 57.15234375 240.81640625 C56.44207031 240.87699219 55.73179687 240.93757812 55 241 C55 241.66 55 242.32 55 243 C37.18 243 19.36 243 1 243 C1 242.34 1 241.68 1 241 C-2.3 240.67 -5.6 240.34 -9 240 C-9 239.34 -9 238.68 -9 238 C-11.64 238 -14.28 238 -17 238 C-17.33 237.34 -17.66 236.68 -18 236 C-20.52733235 235.34444881 -20.52733235 235.34444881 -23 235 C-23 234.34 -23 233.68 -23 233 C-24.98 233 -26.96 233 -29 233 C-29 232.01 -29 231.02 -29 230 C-30.65 230 -32.3 230 -34 230 C-34 229.34 -34 228.68 -34 228 C-35.32 228 -36.64 228 -38 228 C-38 227.01 -38 226.02 -38 225 C-39.32 225 -40.64 225 -42 225 C-42 224.01 -42 223.02 -42 222 C-42.598125 221.855625 -43.19625 221.71125 -43.8125 221.5625 C-47.41294901 220.63667025 -49.59458798 219.86358573 -52 217 C-52 216.34 -52 215.68 -52 215 C-52.99 215 -53.98 215 -55 215 C-55 214.01 -55 213.02 -55 212 C-55.66 212 -56.32 212 -57 212 C-57 211.34 -57 210.68 -57 210 C-57.99 209.67 -58.98 209.34 -60 209 C-60 208.34 -60 207.68 -60 207 C-60.66 207 -61.32 207 -62 207 C-63.625 205.625 -63.625 205.625 -65 204 C-65 203.34 -65 202.68 -65 202 C-65.66 202 -66.32 202 -67 202 C-67.33 200.35 -67.66 198.7 -68 197 C-68.99 196.67 -69.98 196.34 -71 196 C-70.67 195.34 -70.34 194.68 -70 194 C-70.99 194 -71.98 194 -73 194 C-73 192.35 -73 190.7 -73 189 C-73.99 189 -74.98 189 -76 189 C-76 187.35 -76 185.7 -76 184 C-76.66 184 -77.32 184 -78 184 C-78.99 181.525 -78.99 181.525 -80 179 C-80.33 179 -80.66 179 -81 179 C-81 177.02 -81 175.04 -81 173 C-81.99 172.67 -82.98 172.34 -84 172 C-84 170.02 -84 168.04 -84 166 C-84.66 166 -85.32 166 -86 166 C-86 163.36 -86 160.72 -86 158 C-86.99 157.67 -87.98 157.34 -89 157 C-89 153.04 -89 149.08 -89 145 C-89.66 145 -90.32 145 -91 145 C-91 129.82 -91 114.64 -91 99 C-90.34 99 -89.68 99 -89 99 C-89 94.71 -89 90.42 -89 86 C-88.01 86 -87.02 86 -86 86 C-86 83.03 -86 80.06 -86 77 C-85.34 77 -84.68 77 -84 77 C-84 75.02 -84 73.04 -84 71 C-82.515 70.505 -82.515 70.505 -81 70 C-81 67.69 -81 65.38 -81 63 C-79.515 62.505 -79.515 62.505 -78 62 C-78 60.35 -78 58.7 -78 57 C-77.34 57 -76.68 57 -76 57 C-76 55.35 -76 53.7 -76 52 C-75.01 52 -74.02 52 -73 52 C-73 51.01 -73 50.02 -73 49 C-72.34 49 -71.68 49 -71 49 C-70.67 47.35 -70.34 45.7 -70 44 C-69.34 44 -68.68 44 -68 44 C-68 43.34 -68 42.68 -68 42 C-67.01 42 -66.02 42 -65 42 C-65 41.01 -65 40.02 -65 39 C-64.34 39 -63.68 39 -63 39 C-63 38.01 -63 37.02 -63 36 C-62.34 36 -61.68 36 -61 36 C-61 35.34 -61 34.68 -61 34 C-60.01 34 -59.02 34 -58 34 C-58 33.01 -58 32.02 -58 31 C-57.01 31 -56.02 31 -55 31 C-54.34 29.35 -53.68 27.7 -53 26 C-52.01 26 -51.02 26 -50 26 C-50 25.34 -50 24.68 -50 24 C-49.01 24 -48.02 24 -47 24 C-47 23.01 -47 22.02 -47 21 C-45.68 21 -44.36 21 -43 21 C-43 20.01 -43 19.02 -43 18 C-41.68 18 -40.36 18 -39 18 C-39 17.34 -39 16.68 -39 16 C-37.68 15.34 -36.36 14.68 -35 14 C-35 13.67 -35 13.34 -35 13 C-33.35 13 -31.7 13 -30 13 C-30 12.34 -30 11.68 -30 11 C-29.195625 10.87625 -28.39125 10.7525 -27.5625 10.625 C-26.716875 10.41875 -25.87125 10.2125 -25 10 C-24.67 9.34 -24.34 8.68 -24 8 C-21.85546875 7.1484375 -21.85546875 7.1484375 -19.1875 6.375 C-18.31480469 6.11460937 -17.44210937 5.85421875 -16.54296875 5.5859375 C-14 5 -14 5 -10 5 C-10 4.34 -10 3.68 -10 3 C-6.7 2.67 -3.4 2.34 0 2 C0 1.34 0 0.68 0 0 Z M16 52 C16 52.99 16 53.98 16 55 C12.7 55 9.4 55 6 55 C6 55.66 6 56.32 6 57 C4.35 57 2.7 57 1 57 C0.67 57.66 0.34 58.32 0 59 C-2.0625 59.625 -2.0625 59.625 -4 60 C-4 60.66 -4 61.32 -4 62 C-4.99 62.33 -5.98 62.66 -7 63 C-7 63.66 -7 64.32 -7 65 C-7.639375 65.268125 -8.27875 65.53625 -8.9375 65.8125 C-11.33131686 66.88667752 -11.33131686 66.88667752 -12 70 C-12.66 70 -13.32 70 -14 70 C-14 70.99 -14 71.98 -14 73 C-14.99 73 -15.98 73 -17 73 C-17 73.66 -17 74.32 -17 75 C-17.66 75 -18.32 75 -19 75 C-19 76.65 -19 78.3 -19 80 C-19.99 80.33 -20.98 80.66 -22 81 C-22 82.65 -22 84.3 -22 86 C-22.66 86 -23.32 86 -24 86 C-24 89.3 -24 92.6 -24 96 C-25.485 96.495 -25.485 96.495 -27 97 C-27 97.33 -27 97.66 -27 98 C8.31 98 43.62 98 80 98 C79.505 94.535 79.505 94.535 79 91 C78.34 91 77.68 91 77 91 C77 88.36 77 85.72 77 83 C76.01 83 75.02 83 74 83 C73.7834375 81.3603125 73.7834375 81.3603125 73.5625 79.6875 C73.11711896 76.06877013 73.11711896 76.06877013 72 73 C71.01 73 70.02 73 69 73 C69 72.01 69 71.02 69 70 C68.34 70 67.68 70 67 70 C66.505 68.515 66.505 68.515 66 67 C65.34 67 64.68 67 64 67 C64 66.34 64 65.68 64 65 C63.01 65 62.02 65 61 65 C61 64.01 61 63.02 61 62 C60.01 62 59.02 62 58 62 C58 61.34 58 60.68 58 60 C57.360625 59.690625 56.72125 59.38125 56.0625 59.0625 C54 58 54 58 53 57 C51.00041636 56.95919217 48.99954746 56.95745644 47 57 C47 56.34 47 55.68 47 55 C43.7 55 40.4 55 37 55 C37 54.01 37 53.02 37 52 C30.07 52 23.14 52 16 52 Z " fill="#FFFFFF" transform="translate(981,166)"/>
<path d="M0 0 C14.52 0 29.04 0 44 0 C44 0.66 44 1.32 44 2 C46.97 2.33 49.94 2.66 53 3 C53 3.66 53 4.32 53 5 C54.546875 5.185625 54.546875 5.185625 56.125 5.375 C59.64293321 5.94240858 62.70221925 6.66518398 66 8 C66.33 8.66 66.66 9.32 67 10 C69.02463255 10.65213292 69.02463255 10.65213292 71 11 C71 11.66 71 12.32 71 13 C72.32 13 73.64 13 75 13 C75.33 13.66 75.66 14.32 76 15 C76.99 15.33 77.98 15.66 79 16 C79 16.66 79 17.32 79 18 C79.99 18 80.98 18 82 18 C82 18.99 82 19.98 82 21 C82.99 21 83.98 21 85 21 C85 21.66 85 22.32 85 23 C85.66 23 86.32 23 87 23 C88.35386936 24.65002828 89.68678142 26.3174387 91 28 C91.66 28.33 92.32 28.66 93 29 C93 29.66 93 30.32 93 31 C93.66 31 94.32 31 95 31 C95 31.99 95 32.98 95 34 C95.66 34 96.32 34 97 34 C100.52114396 36.49414364 101.01303667 39.97622641 102 44 C102.66 44 103.32 44 104 44 C104.433125 45.2065625 104.433125 45.2065625 104.875 46.4375 C105.73262568 49.1326468 105.73262568 49.1326468 108 50 C108 52.31 108 54.62 108 57 C108.66 57 109.32 57 110 57 C110.12375 58.134375 110.2475 59.26875 110.375 60.4375 C110.58125 61.613125 110.7875 62.78875 111 64 C111.66 64.33 112.32 64.66 113 65 C113.34375 67.65234375 113.34375 67.65234375 113.5 70.9375 C113.49743185 75.49518758 113.49743185 75.49518758 116 79 C116.24609566 81.76049232 116.24609566 81.76049232 116.24050903 85.35269165 C116.24221788 86.01185243 116.24392673 86.67101321 116.24568737 87.35014856 C116.24899363 89.5689906 116.23796018 91.78753327 116.22705078 94.00634766 C116.22648691 95.59282931 116.22680275 97.17931149 116.22793579 98.76579285 C116.22851125 103.08169788 116.21672575 107.39749246 116.20278788 111.71337175 C116.19031266 116.22039771 116.18911256 120.727426 116.18673706 125.23446655 C116.18051283 133.77321417 116.1640893 142.31191077 116.14403808 150.85063589 C116.12170836 160.56995815 116.11069303 170.2892828 116.10064721 180.00862432 C116.07972386 200.00578437 116.0430359 220.00287446 116 240 C94.55 240 73.1 240 51 240 C50.67 190.17 50.34 140.34 50 89 C49.34 89 48.68 89 48 89 C48.33 87.02 48.66 85.04 49 83 C48.01 83 47.02 83 46 83 C46 81.35 46 79.7 46 78 C45.34 77.67 44.68 77.34 44 77 C43.375 74.9375 43.375 74.9375 43 73 C42.34 73 41.68 73 41 73 C41 72.01 41 71.02 41 70 C40.34 70 39.68 70 39 70 C38.7525 69.195625 38.505 68.39125 38.25 67.5625 C37.2976067 64.85095021 37.2976067 64.85095021 35.0625 64.3125 C34.381875 64.209375 33.70125 64.10625 33 64 C32.01 63.34 31.02 62.68 30 62 C30 61.34 30 60.68 30 60 C28.02 60 26.04 60 24 60 C24 59.34 24 58.68 24 58 C21.69 57.67 19.38 57.34 17 57 C17 56.34 17 55.68 17 55 C8.09 55 -0.82 55 -10 55 C-10 55.66 -10 56.32 -10 57 C-13.07617188 57.29296875 -13.07617188 57.29296875 -16.15234375 57.5859375 C-17.06693359 57.79089844 -17.06693359 57.79089844 -18 58 C-18.495 58.99 -18.495 58.99 -19 60 C-20.65 60 -22.3 60 -24 60 C-24 60.66 -24 61.32 -24 62 C-25.485 62.495 -25.485 62.495 -27 63 C-27.33 63.66 -27.66 64.32 -28 65 C-29.485 65.495 -29.485 65.495 -31 66 C-31.33 66.66 -31.66 67.32 -32 68 C-32.66 68 -33.32 68 -34 68 C-34.33 69.65 -34.66 71.3 -35 73 C-35.66 73 -36.32 73 -37 73 C-37 73.66 -37 74.32 -37 75 C-37.66 75.66 -38.32 76.32 -39 77 C-39.495 78.485 -39.495 78.485 -40 80 C-40.66 80 -41.32 80 -42 80 C-41.95875 80.763125 -41.9175 81.52625 -41.875 82.3125 C-42 85 -42 85 -44 88 C-44.41743365 90.24645876 -44.41743365 90.24645876 -44.5625 92.625 C-44.90158172 96.90158172 -44.90158172 96.90158172 -46 98 C-46.10868162 99.83458175 -46.14688416 101.6733605 -46.15821838 103.51112366 C-46.1680072 104.7073082 -46.17779602 105.90349274 -46.18788147 107.13592529 C-46.19378641 108.47351034 -46.19959681 109.81109581 -46.20532227 111.14868164 C-46.21489553 112.54782911 -46.22490528 113.94697366 -46.23532104 115.34611511 C-46.262436 119.15583309 -46.28340975 122.96556354 -46.30332303 126.77532506 C-46.32514208 130.75253799 -46.35255067 134.72971219 -46.37937927 138.70689392 C-46.42936152 146.2433573 -46.47427975 153.77984212 -46.51740164 161.31634754 C-46.57594223 171.49682581 -46.6422587 181.6772532 -46.70815182 191.85768604 C-46.81181301 207.90508978 -46.9050446 223.95253693 -47 240 C-68.45 240 -89.9 240 -112 240 C-112 161.79 -112 83.58 -112 3 C-90.55 3 -69.1 3 -47 3 C-47 10.92 -47 18.84 -47 27 C-46.505 26.505 -46.505 26.505 -46 26 C-45.34 26 -44.68 26 -44 26 C-44 25.34 -44 24.68 -44 24 C-42.625 22.375 -42.625 22.375 -41 21 C-40.34 21 -39.68 21 -39 21 C-39 20.01 -39 19.02 -39 18 C-37.68 18 -36.36 18 -35 18 C-35 17.34 -35 16.68 -35 16 C-34.01 15.67 -33.02 15.34 -32 15 C-31.67 14.34 -31.34 13.68 -31 13 C-29.68 13 -28.36 13 -27 13 C-27 12.34 -27 11.68 -27 11 C-26.360625 10.87625 -25.72125 10.7525 -25.0625 10.625 C-24.381875 10.41875 -23.70125 10.2125 -23 10 C-22.67 9.34 -22.34 8.68 -22 8 C-19.18494497 7.1091598 -16.34118892 6.46234376 -13.46875 5.78125 C-12.6540625 5.5234375 -11.839375 5.265625 -11 5 C-10.67 4.34 -10.34 3.68 -10 3 C-7.71484375 2.5859375 -7.71484375 2.5859375 -4.9375 2.375 C-4.01839844 2.30023438 -3.09929687 2.22546875 -2.15234375 2.1484375 C-1.44207031 2.09945312 -0.73179687 2.05046875 0 2 C0 1.34 0 0.68 0 0 Z " fill="#FFFFFF" transform="translate(738,166)"/>
<path d="M0 0 C21.45 0 42.9 0 65 0 C65 78.21 65 156.42 65 237 C43.55 237 22.1 237 0 237 C0 158.79 0 80.58 0 0 Z " fill="#FFFFFF" transform="translate(510,169)"/>
<path d="M0 0 C21.12 0 42.24 0 64 0 C64 78.21 64 156.42 64 237 C42.88 237 21.76 237 0 237 C0 158.79 0 80.58 0 0 Z " fill="#FFFFFF" transform="translate(278,169)"/>
<path d="M0 0 C10.23 0 20.46 0 31 0 C31 76.23 31 152.46 31 231 C25.72 231 20.44 231 15 231 C15 264.99 15 298.98 15 334 C15.99 333.67 16.98 333.34 18 333 C20.03992808 332.90601957 22.08291414 332.87007931 24.125 332.875 C25.20007813 332.87242187 26.27515625 332.86984375 27.3828125 332.8671875 C30 333 30 333 31 334 C31.09436529 336.23929886 31.11742327 338.4816175 31.11352539 340.72290039 C31.11367142 341.4253035 31.11381744 342.1277066 31.1139679 342.85139465 C31.11326872 345.18351278 31.10547617 347.515552 31.09765625 349.84765625 C31.09579208 351.46048438 31.09436818 353.07331307 31.09336853 354.68614197 C31.08954323 358.93915357 31.07971285 363.19213124 31.06866455 367.44512939 C31.05845069 371.7817743 31.05387096 376.11842467 31.04882812 380.45507812 C31.03809059 388.97006942 31.0204937 397.48502659 31 406 C20.77 406 10.54 406 0 406 C0 272.02 0 138.04 0 0 Z " fill="#FFFFFF" transform="translate(394,0)"/>
<path d="M0 0 C10.23 0 20.46 0 31 0 C31 133.98 31 267.96 31 406 C20.77 406 10.54 406 0 406 C-0.02255243 396.62963746 -0.0409159 387.25929282 -0.05181217 377.88890934 C-0.05704065 373.53831541 -0.06413765 369.18774093 -0.07543945 364.8371582 C-0.08626959 360.64209742 -0.0922771 356.44705541 -0.09487724 352.25198174 C-0.09673126 350.64793032 -0.10035144 349.04387997 -0.10573006 347.4398365 C-0.11294219 345.20083485 -0.11399087 342.9619117 -0.11352539 340.72290039 C-0.115746 339.44604874 -0.11796661 338.16919708 -0.12025452 336.85365295 C0 334 0 334 1 333 C3.49058914 332.90002358 5.94727395 332.86120373 8.4375 332.875 C9.13166016 332.87113281 9.82582031 332.86726563 10.54101562 332.86328125 C15.74672012 332.87336006 15.74672012 332.87336006 18 334 C18 300.34 18 266.68 18 232 C12.06 231.67 6.12 231.34 0 231 C0 154.77 0 78.54 0 0 Z " fill="#FFFFFF" transform="translate(427,0)"/>
<path d="M0 0 C4.95 0 9.9 0 15 0 C15.495 0.99 15.495 0.99 16 2 C17.92469088 2.39368517 17.92469088 2.39368517 20.1875 2.5 C24.04543292 2.85072117 27.40256952 3.47109205 31 5 C31.495 5.99 31.495 5.99 32 7 C32.99 7.33 33.98 7.66 35 8 C35 8.66 35 9.32 35 10 C36.32 10 37.64 10 39 10 C39 10.99 39 11.98 39 13 C39.99 13 40.98 13 42 13 C43.38671875 14.42578125 43.38671875 14.42578125 44.6875 16.3125 C45.12449219 16.92738281 45.56148438 17.54226563 46.01171875 18.17578125 C47 20 47 20 47 23 C47.99 23 48.98 23 50 23 C50 24.65 50 26.3 50 28 C51.485 28.495 51.485 28.495 53 29 C53 32.3 53 35.6 53 39 C53.66 39 54.32 39 55 39 C55 44.94 55 50.88 55 57 C32.23 57.33 9.46 57.66 -14 58 C-13.34 58.33 -12.68 58.66 -12 59 C-12 59.99 -12 60.98 -12 62 C-11.34 62 -10.68 62 -10 62 C-9.67 63.65 -9.34 65.3 -9 67 C-8.13375 67.185625 -8.13375 67.185625 -7.25 67.375 C-4.97664233 68.00648824 -3.0746471 68.88858191 -1 70 C-1 70.66 -1 71.32 -1 72 C7.25 72 15.5 72 24 72 C24 71.34 24 70.68 24 70 C24.639375 69.87625 25.27875 69.7525 25.9375 69.625 C26.618125 69.41875 27.29875 69.2125 28 69 C28.33 68.34 28.66 67.68 29 67 C29.99 67 30.98 67 32 67 C32 66.34 32 65.68 32 65 C35.3125 64.6875 35.3125 64.6875 39 65 C40.95578117 67.39740918 42 68.87586608 42 72 C42.99 72 43.98 72 45 72 C45 72.99 45 73.98 45 75 C46.485 75.495 46.485 75.495 48 76 C47.67 78.31 47.34 80.62 47 83 C46.34 83 45.68 83 45 83 C45 83.66 45 84.32 45 85 C44.01 85 43.02 85 42 85 C42 85.99 42 86.98 42 88 C40.68 88 39.36 88 38 88 C38 88.66 38 89.32 38 90 C36.02 90.33 34.04 90.66 32 91 C32 91.66 32 92.32 32 93 C27.94083289 93.96839168 24.14426205 94.12898441 19.9765625 94.1328125 C19.31216156 94.13376923 18.64776062 94.13472595 17.96322632 94.13571167 C16.56304835 94.13638946 15.16286717 94.13456323 13.76269531 94.13037109 C11.63859863 94.12503417 9.51471502 94.13032089 7.390625 94.13671875 C6.02343704 94.13605757 4.65624921 94.13477557 3.2890625 94.1328125 C2.05881348 94.13168457 0.82856445 94.13055664 -0.43896484 94.12939453 C-4.04443022 93.99838557 -7.45996022 93.70266702 -11 93 C-11.495 92.01 -11.495 92.01 -12 91 C-14.22596002 90.15307099 -16.48363587 89.53153701 -18.7734375 88.87890625 C-21.17914943 87.92928312 -22.4010772 87.01670585 -24 85 C-24 84.34 -24 83.68 -24 83 C-24.99 83 -25.98 83 -27 83 C-27 82.01 -27 81.02 -27 80 C-27.99 80 -28.98 80 -30 80 C-30 79.01 -30 78.02 -30 77 C-30.66 77 -31.32 77 -32 77 C-32.495 74.525 -32.495 74.525 -33 72 C-33.66 72 -34.32 72 -35 72 C-35.12375 71.360625 -35.2475 70.72125 -35.375 70.0625 C-35.58125 69.381875 -35.7875 68.70125 -36 68 C-36.66 67.67 -37.32 67.34 -38 67 C-38 64.36 -38 61.72 -38 59 C-38.66 59 -39.32 59 -40 59 C-40 51.41 -40 43.82 -40 36 C-39.34 36 -38.68 36 -38 36 C-38 33.69 -38 31.38 -38 29 C-37.01 28.67 -36.02 28.34 -35 28 C-35 26.35 -35 24.7 -35 23 C-34.34 23 -33.68 23 -33 23 C-32.7525 22.278125 -32.505 21.55625 -32.25 20.8125 C-30.31232584 16.45273313 -27.96276074 13.6418405 -24 11 C-21.8125 10.375 -21.8125 10.375 -20 10 C-20 9.34 -20 8.68 -20 8 C-19.01 7.67 -18.02 7.34 -17 7 C-16.67 6.34 -16.34 5.68 -16 5 C-12.18309014 3.67576597 -8.63832944 2.91217978 -4.625 2.5 C-3.42875 2.335 -2.2325 2.17 -1 2 C-0.67 1.34 -0.34 0.68 0 0 Z M-2 23 C-2.33 23.99 -2.66 24.98 -3 26 C-4.32 26 -5.64 26 -7 26 C-7 26.66 -7 27.32 -7 28 C-7.99 28.33 -8.98 28.66 -10 29 C-12.28728734 30.83883881 -12.28728734 30.83883881 -12.125 33.625 C-12.063125 34.800625 -12.063125 34.800625 -12 36 C-12.99 36.33 -13.98 36.66 -15 37 C-15 37.66 -15 38.32 -15 39 C-0.15 39 14.7 39 30 39 C30 38.01 30 37.02 30 36 C29.01 36 28.02 36 27 36 C27 34.35 27 32.7 27 31 C26.34 31 25.68 31 25 31 C24.505 29.515 24.505 29.515 24 28 C23.34 28 22.68 28 22 28 C22 27.34 22 26.68 22 26 C21.01 25.34 20.02 24.68 19 24 C18.505 23.505 18.505 23.505 18 23 C16.5112814 22.91330568 15.018555 22.89296506 13.52734375 22.90234375 C12.17866211 22.90717773 12.17866211 22.90717773 10.80273438 22.91210938 C9.85720703 22.92048828 8.91167969 22.92886719 7.9375 22.9375 C6.98810547 22.94201172 6.03871094 22.94652344 5.06054688 22.95117188 C2.70696935 22.9629989 0.35351523 22.97947975 -2 23 Z " fill="#FFFFFF" transform="translate(274,484)"/>
<path d="M0 0 C5.28 0 10.56 0 16 0 C16.495 0.99 16.495 0.99 17 2 C18.92610779 2.26567004 20.85423055 2.52275755 22.7890625 2.71484375 C25.99053057 3.12775394 28.9225394 4.03829356 32 5 C32 5.66 32 6.32 32 7 C33.32 7.33 34.64 7.66 36 8 C36 8.66 36 9.32 36 10 C36.99 10 37.98 10 39 10 C39 10.99 39 11.98 39 13 C39.99 13 40.98 13 42 13 C46.88636364 16.97727273 46.88636364 16.97727273 47.3125 20.8125 C47.209375 21.534375 47.10625 22.25625 47 23 C47.99 23 48.98 23 50 23 C50 24.65 50 26.3 50 28 C51.485 28.495 51.485 28.495 53 29 C53.2165625 30.7015625 53.2165625 30.7015625 53.4375 32.4375 C53.61171478 35.80777201 53.61171478 35.80777201 55 37 C55 43.6 55 50.2 55 57 C32.56 57.33 10.12 57.66 -13 58 C-12.67 59.32 -12.34 60.64 -12 62 C-11.34 62 -10.68 62 -10 62 C-9.67 63.65 -9.34 65.3 -9 67 C-7.68 67 -6.36 67 -5 67 C-5 67.99 -5 68.98 -5 70 C-1.39129392 70.80929482 2.04461938 71.17814083 5.73828125 71.31640625 C6.80498047 71.35830078 7.87167969 71.40019531 8.97070312 71.44335938 C10.07349609 71.48267578 11.17628906 71.52199219 12.3125 71.5625 C13.99569336 71.62727539 13.99569336 71.62727539 15.71289062 71.69335938 C18.47514569 71.79914787 21.2374863 71.90123672 24 72 C24 71.34 24 70.68 24 70 C25.65 70 27.3 70 29 70 C29 69.01 29 68.02 29 67 C29.99 67 30.98 67 32 67 C32 66.34 32 65.68 32 65 C34.31 65 36.62 65 39 65 C39.28875 65.639375 39.5775 66.27875 39.875 66.9375 C40.82823451 69.15206079 40.82823451 69.15206079 43 70 C43 70.66 43 71.32 43 72 C43.66 72 44.32 72 45 72 C45 72.99 45 73.98 45 75 C45.99 75 46.98 75 48 75 C48 77.64 48 80.28 48 83 C47.01 83 46.02 83 45 83 C45 83.66 45 84.32 45 85 C44.01 85 43.02 85 42 85 C42 85.99 42 86.98 42 88 C40.68 88 39.36 88 38 88 C38 88.66 38 89.32 38 90 C37.360625 90.12375 36.72125 90.2475 36.0625 90.375 C35.381875 90.58125 34.70125 90.7875 34 91 C33.67 91.66 33.34 92.32 33 93 C28.62193013 94.03152733 24.36215186 94.12867694 19.87890625 94.1328125 C19.21592026 94.13376923 18.55293427 94.13472595 17.86985779 94.13571167 C16.47565617 94.13638835 15.08145132 94.13456999 13.68725586 94.13037109 C11.57202963 94.12502409 9.45701652 94.1303291 7.34179688 94.13671875 C5.9791662 94.13605771 4.61653567 94.13477602 3.25390625 94.1328125 C2.03002197 94.13168457 0.8061377 94.13055664 -0.45483398 94.12939453 C-4.05458162 93.99800783 -7.46544283 93.70108295 -11 93 C-11.495 92.01 -11.495 92.01 -12 91 C-14.11327425 90.09274566 -14.11327425 90.09274566 -16.5625 89.375 C-17.80193359 88.98441406 -17.80193359 88.98441406 -19.06640625 88.5859375 C-19.70449219 88.39257812 -20.34257812 88.19921875 -21 88 C-21 87.34 -21 86.68 -21 86 C-22.485 85.505 -22.485 85.505 -24 85 C-24 84.34 -24 83.68 -24 83 C-24.99 83 -25.98 83 -27 83 C-27 82.01 -27 81.02 -27 80 C-27.99 80 -28.98 80 -30 80 C-30 79.01 -30 78.02 -30 77 C-30.66 77 -31.32 77 -32 77 C-32.12375 76.360625 -32.2475 75.72125 -32.375 75.0625 C-32.58125 74.381875 -32.7875 73.70125 -33 73 C-33.66 72.67 -34.32 72.34 -35 72 C-35 70.35 -35 68.7 -35 67 C-35.99 67 -36.98 67 -38 67 C-38.98390305 60.44845511 -39.15063921 54.05668838 -39.125 47.4375 C-39.12886719 46.43525391 -39.13273437 45.43300781 -39.13671875 44.40039062 C-39.12981699 39.1585024 -38.91258258 34.16405859 -38 29 C-37.01 28.67 -36.02 28.34 -35 28 C-35 26.35 -35 24.7 -35 23 C-34.01 23 -33.02 23 -32 23 C-32.33 22.01 -32.66 21.02 -33 20 C-32.01 20 -31.02 20 -30 20 C-29.896875 19.360625 -29.79375 18.72125 -29.6875 18.0625 C-29.460625 17.381875 -29.23375 16.70125 -29 16 C-28.01 15.67 -27.02 15.34 -26 15 C-26 14.34 -26 13.68 -26 13 C-25.34 13 -24.68 13 -24 13 C-24 12.01 -24 11.02 -24 10 C-22.68 10 -21.36 10 -20 10 C-20 9.34 -20 8.68 -20 8 C-19.01 7.67 -18.02 7.34 -17 7 C-16.67 6.34 -16.34 5.68 -16 5 C-14.02 5 -12.04 5 -10 5 C-10 4.34 -10 3.68 -10 3 C-9.04287109 2.92652344 -9.04287109 2.92652344 -8.06640625 2.8515625 C-7.24011719 2.77679688 -6.41382813 2.70203125 -5.5625 2.625 C-4.73878906 2.55539062 -3.91507813 2.48578125 -3.06640625 2.4140625 C-2.38449219 2.27742188 -1.70257813 2.14078125 -1 2 C-0.67 1.34 -0.34 0.68 0 0 Z M-2 23 C-2.33 23.66 -2.66 24.32 -3 25 C-5.0625 25.625 -5.0625 25.625 -7 26 C-7 26.66 -7 27.32 -7 28 C-7.99 28.33 -8.98 28.66 -10 29 C-12.36980013 31.95377498 -12.36980013 31.95377498 -12 36 C-12.99 36.33 -13.98 36.66 -15 37 C-15 37.66 -15 38.32 -15 39 C-0.15 39 14.7 39 30 39 C30 38.01 30 37.02 30 36 C29.01 36 28.02 36 27 36 C27 34.35 27 32.7 27 31 C26.34 31 25.68 31 25 31 C24.7525 30.401875 24.505 29.80375 24.25 29.1875 C22.82950464 26.70163312 21.34887389 25.59117263 19 24 C18.505 23.505 18.505 23.505 18 23 C16.5112814 22.91330568 15.018555 22.89296506 13.52734375 22.90234375 C12.17866211 22.90717773 12.17866211 22.90717773 10.80273438 22.91210938 C9.85720703 22.92048828 8.91167969 22.92886719 7.9375 22.9375 C6.98810547 22.94201172 6.03871094 22.94652344 5.06054688 22.95117188 C2.70696935 22.9629989 0.35351523 22.97947975 -2 23 Z " fill="#FFFFFF" transform="translate(39,484)"/>
<path d="M0 0 C5.94 0 11.88 0 18 0 C18 0.66 18 1.32 18 2 C19.08667969 2.07347656 19.08667969 2.07347656 20.1953125 2.1484375 C30.38782477 2.93665845 30.38782477 2.93665845 35 5 C35.495 5.99 35.495 5.99 36 7 C36.99 7.33 37.98 7.66 39 8 C39 8.66 39 9.32 39 10 C39.99 10 40.98 10 42 10 C42 10.99 42 11.98 42 13 C42.99 13 43.98 13 45 13 C45 13.99 45 14.98 45 16 C45.99 16 46.98 16 48 16 C48 17.32 48 18.64 48 20 C48.66 20.33 49.32 20.66 50 21 C50.33333333 23.33333333 50.66666667 25.66666667 51 28 C51.66 28.33 52.32 28.66 53 29 C53 50.45 53 71.9 53 94 C44.42 94 35.84 94 27 94 C27 92.35 27 90.7 27 89 C23.87802522 90.3089572 23.87802522 90.3089572 22 93 C18.11632938 94.11694774 14.32899553 94.12891433 10.30859375 94.1328125 C9.03435547 94.13410156 7.76011719 94.13539063 6.44726562 94.13671875 C5.78895752 94.13462402 5.13064941 94.1325293 4.45239258 94.13037109 C2.44019058 94.12500717 0.42821084 94.13033628 -1.58398438 94.13671875 C-2.85693359 94.13542969 -4.12988281 94.13414062 -5.44140625 94.1328125 C-6.60357666 94.13168457 -7.76574707 94.13055664 -8.96313477 94.12939453 C-11.52042235 94.02043381 -13.60941801 93.89209781 -16 93 C-16.33 92.34 -16.66 91.68 -17 91 C-19.30965848 89.94647157 -21.6429774 88.94280904 -24 88 C-24 87.01 -24 86.02 -24 85 C-24.99 85 -25.98 85 -27 85 C-28.6875 83.9375 -28.6875 83.9375 -30 82 C-30.1875 78.3125 -30.1875 78.3125 -30 75 C-30.66 75 -31.32 75 -32 75 C-32 69.06 -32 63.12 -32 57 C-31.34 57 -30.68 57 -30 57 C-30 55.35 -30 53.7 -30 52 C-29.01 52 -28.02 52 -27 52 C-27 51.01 -27 50.02 -27 49 C-25.625 47.3125 -25.625 47.3125 -24 46 C-23.34 46 -22.68 46 -22 46 C-22 45.34 -22 44.68 -22 44 C-20.35 44 -18.7 44 -17 44 C-17 43.01 -17 42.02 -17 41 C-15.865625 40.855625 -14.73125 40.71125 -13.5625 40.5625 C-10.19222799 40.38828522 -10.19222799 40.38828522 -9 39 C-6.3337397 38.91144839 -3.69352886 38.88475327 -1.02734375 38.90234375 C-0.22970108 38.9037587 0.56794159 38.90517365 1.38975525 38.90663147 C3.94737435 38.91224684 6.50490718 38.92480188 9.0625 38.9375 C10.79231645 38.94251302 12.52213426 38.94707627 14.25195312 38.95117188 C18.50133553 38.96222125 22.75065312 38.97949614 27 39 C26.55123384 37.35153231 26.09069512 35.70626545 25.625 34.0625 C25.36976563 33.14597656 25.11453125 32.22945312 24.8515625 31.28515625 C24.23339896 28.83254913 24.23339896 28.83254913 22 28 C22 27.34 22 26.68 22 26 C20.35 26 18.7 26 17 26 C17 25.34 17 24.68 17 24 C10.4 24 3.8 24 -3 24 C-3.33 24.66 -3.66 25.32 -4 26 C-6.31 26 -8.62 26 -11 26 C-11 26.66 -11 27.32 -11 28 C-12.32 28 -13.64 28 -15 28 C-15 28.99 -15 29.98 -15 31 C-17.31 31 -19.62 31 -22 31 C-22.33 30.01 -22.66 29.02 -23 28 C-23.66 27.67 -24.32 27.34 -25 27 C-25 25.35 -25 23.7 -25 22 C-25.66 22 -26.32 22 -27 22 C-27 20.68 -27 19.36 -27 18 C-27.99 18 -28.98 18 -30 18 C-30 15.69 -30 13.38 -30 11 C-28.02 10.67 -26.04 10.34 -24 10 C-24 9.34 -24 8.68 -24 8 C-22.35 8 -20.7 8 -19 8 C-19 7.01 -19 6.02 -19 5 C-17.2984375 4.7834375 -17.2984375 4.7834375 -15.5625 4.5625 C-12.19222799 4.38828522 -12.19222799 4.38828522 -11 3 C-8.41977858 2.71778828 -5.83969815 2.55179803 -3.25 2.37890625 C-2.5075 2.25386719 -1.765 2.12882812 -1 2 C-0.67 1.34 -0.34 0.68 0 0 Z M-1 57 C-1 57.66 -1 58.32 -1 59 C-2.32 59.33 -3.64 59.66 -5 60 C-5 60.66 -5 61.32 -5 62 C-5.66 62 -6.32 62 -7 62 C-7.103125 63.216875 -7.20625 64.43375 -7.3125 65.6875 C-7.37050781 66.37199219 -7.42851563 67.05648437 -7.48828125 67.76171875 C-6.67833612 71.47450723 -5.04146074 72.78802855 -2 75 C1.2969836 75.59507966 4.47619959 75.47421478 7.8125 75.3125 C8.69615234 75.28994141 9.57980469 75.26738281 10.49023438 75.24414062 C12.6608891 75.18547428 14.8306669 75.09579979 17 75 C17.33 74.34 17.66 73.68 18 73 C20.0625 72.375 20.0625 72.375 22 72 C22 71.34 22 70.68 22 70 C22.99 69.67 23.98 69.34 25 69 C27.97648691 65.08356986 27 62.40752802 27 57 C17.76 57 8.52 57 -1 57 Z " fill="#FFFFFF" transform="translate(545,484)"/>
<path d="M0 0 C5.28 0 10.56 0 16 0 C16.495 0.99 16.495 0.99 17 2 C18.92770559 2.26589043 20.85719463 2.52384702 22.79296875 2.72265625 C26.03737847 3.13036083 28.90874034 3.92752216 32 5 C32.495 5.99 32.495 5.99 33 7 C33.99 7.33 34.98 7.66 36 8 C36 8.66 36 9.32 36 10 C37.32 10 38.64 10 40 10 C40 10.99 40 11.98 40 13 C40.99 13 41.98 13 43 13 C45.94267006 15.45222505 47.73807335 17.09333083 48.8125 20.8125 C48.874375 21.534375 48.93625 22.25625 49 23 C49.66 23 50.32 23 51 23 C51 23.99 51 24.98 51 26 C52.485 26.495 52.485 26.495 54 27 C54 29.31 54 31.62 54 34 C54.66 34 55.32 34 56 34 C56 43.24 56 52.48 56 62 C55.34 62 54.68 62 54 62 C54 64.31 54 66.62 54 69 C52.515 69.495 52.515 69.495 51 70 C51 71.65 51 73.3 51 75 C50.01 75 49.02 75 48 75 C48 75.66 48 76.32 48 77 C47.34 77 46.68 77 46 77 C46 77.99 46 78.98 46 80 C45.34 80 44.68 80 44 80 C44 80.99 44 81.98 44 83 C43.01 83 42.02 83 41 83 C41 83.66 41 84.32 41 85 C40.01 85 39.02 85 38 85 C38 85.99 38 86.98 38 88 C36.68 88 35.36 88 34 88 C34 88.66 34 89.32 34 90 C32.02 90.33 30.04 90.66 28 91 C28 91.66 28 92.32 28 93 C23.91848244 93.97580441 20.09718566 94.12900256 15.90625 94.1328125 C14.90253357 94.13424759 14.90253357 94.13424759 13.87854004 94.13571167 C12.46996974 94.1363893 11.06139625 94.13456421 9.65283203 94.13037109 C7.50676404 94.12501688 5.3609053 94.1303302 3.21484375 94.13671875 C1.84114538 94.13605789 0.46744713 94.13477658 -0.90625 94.1328125 C-2.14697266 94.13168457 -3.38769531 94.13055664 -4.66601562 94.12939453 C-7.57857856 94.01635569 -10.17290419 93.67589874 -13 93 C-13 92.34 -13 91.68 -13 91 C-14.65 90.67 -16.3 90.34 -18 90 C-18 89.34 -18 88.68 -18 88 C-19.65 88 -21.3 88 -23 88 C-23 87.34 -23 86.68 -23 86 C-24.485 85.505 -24.485 85.505 -26 85 C-26 84.34 -26 83.68 -26 83 C-26.99 82.67 -27.98 82.34 -29 82 C-29.66 81.34 -30.32 80.68 -31 80 C-31 79.01 -31 78.02 -31 77 C-31.99 77 -32.98 77 -34 77 C-34.66 75.68 -35.32 74.36 -36 73 C-36.33 73 -36.66 73 -37 73 C-37 71.02 -37 69.04 -37 67 C-37.66 67 -38.32 67 -39 67 C-39 64.36 -39 61.72 -39 59 C-39.99 59 -40.98 59 -42 59 C-42 51.41 -42 43.82 -42 36 C-41.01 36 -40.02 36 -39 36 C-39 33.36 -39 30.72 -39 28 C-38.34 28 -37.68 28 -37 28 C-36.67 26.35 -36.34 24.7 -36 23 C-35.34 23 -34.68 23 -34 23 C-34 22.01 -34 21.02 -34 20 C-33.34 20 -32.68 20 -32 20 C-31.938125 19.4225 -31.87625 18.845 -31.8125 18.25 C-30.6812921 15.11742429 -28.62052199 13.96539149 -26 12 C-25.67 11.34 -25.34 10.68 -25 10 C-23.68 10 -22.36 10 -21 10 C-21 9.34 -21 8.68 -21 8 C-20.01 7.67 -19.02 7.34 -18 7 C-17.67 6.34 -17.34 5.68 -17 5 C-15.02 5 -13.04 5 -11 5 C-11 4.34 -11 3.68 -11 3 C-7.37 2.67 -3.74 2.34 0 2 C0 1.34 0 0.68 0 0 Z M0 23 C-0.33 23.66 -0.66 24.32 -1 25 C-3.5625 25.625 -3.5625 25.625 -6 26 C-6 26.66 -6 27.32 -6 28 C-6.99 28.33 -7.98 28.66 -9 29 C-9 29.66 -9 30.32 -9 31 C-9.66 31 -10.32 31 -11 31 C-11 31.99 -11 32.98 -11 34 C-11.66 34 -12.32 34 -13 34 C-13.12375 34.969375 -13.2475 35.93875 -13.375 36.9375 C-13.58125 37.948125 -13.7875 38.95875 -14 40 C-14.66 40.33 -15.32 40.66 -16 41 C-16 46.28 -16 51.56 -16 57 C-15.34 57 -14.68 57 -14 57 C-13.67 58.65 -13.34 60.3 -13 62 C-12.34 62 -11.68 62 -11 62 C-11 62.99 -11 63.98 -11 65 C-10.34 65 -9.68 65 -9 65 C-9 65.66 -9 66.32 -9 67 C-6.45262409 70.05685109 -3.70526644 71.83092774 0.29003906 72.22705078 C1.10698242 72.21657715 1.92392578 72.20610352 2.765625 72.1953125 C4.09980469 72.18564453 4.09980469 72.18564453 5.4609375 72.17578125 C6.38132812 72.15902344 7.30171875 72.14226562 8.25 72.125 C9.65378906 72.11146484 9.65378906 72.11146484 11.0859375 72.09765625 C13.39088657 72.07413636 15.6953116 72.04126853 18 72 C18 71.34 18 70.68 18 70 C18.78375 69.87625 19.5675 69.7525 20.375 69.625 C23.14057822 69.20882007 23.14057822 69.20882007 25 67 C25 66.01 25 65.02 25 64 C25.66 64 26.32 64 27 64 C27.33 62.35 27.66 60.7 28 59 C28.66 59 29.32 59 30 59 C31.14982602 54.90996141 31.11094256 50.96822949 31.0625 46.75 C31.05798828 46.00492188 31.05347656 45.25984375 31.04882812 44.4921875 C31.03709246 42.6614236 31.0191585 40.83070127 31 39 C30.01 39 29.02 39 28 39 C28 37.35 28 35.7 28 34 C27.34 34 26.68 34 26 34 C26 33.01 26 32.02 26 31 C25.34 31 24.68 31 24 31 C23.505 29.515 23.505 29.515 23 28 C22.34 28 21.68 28 21 28 C21 27.34 21 26.68 21 26 C20.195625 25.87625 19.39125 25.7525 18.5625 25.625 C17.2940625 25.315625 17.2940625 25.315625 16 25 C15.67 24.34 15.34 23.68 15 23 C10.05 23 5.1 23 0 23 Z " fill="#FFFFFF" transform="translate(805,484)"/>
<path d="M0 0 C5.94 0 11.88 0 18 0 C18 0.66 18 1.32 18 2 C18.92683594 2.06058594 19.85367187 2.12117188 20.80859375 2.18359375 C22.60490234 2.30927734 22.60490234 2.30927734 24.4375 2.4375 C25.63246094 2.51871094 26.82742188 2.59992188 28.05859375 2.68359375 C31 3 31 3 32 4 C34.32817964 4.36760731 36.6618385 4.70241581 39 5 C39 5.66 39 6.32 39 7 C40.65 7.33 42.3 7.66 44 8 C44 10.31 44 12.62 44 15 C43.34 15.33 42.68 15.66 42 16 C41.34444881 18.52733235 41.34444881 18.52733235 41 21 C40.34 21 39.68 21 39 21 C38.505 23.475 38.505 23.475 38 26 C37.34 26 36.68 26 36 26 C36 26.66 36 27.32 36 28 C31.18061476 28.23509196 27.53701494 27.45184478 23 26 C23 25.34 23 24.68 23 24 C10.13 23.505 10.13 23.505 -3 23 C-3 23.99 -3 24.98 -3 26 C-3.99 26 -4.98 26 -6 26 C-6 26.66 -6 27.32 -6 28 C-6.66 28 -7.32 28 -8 28 C-8 28.99 -8 29.98 -8 31 C-7.34 31 -6.68 31 -6 31 C-4.375 32.375 -4.375 32.375 -3 34 C-3 34.66 -3 35.32 -3 36 C0.63 36 4.26 36 8 36 C8.33 36.66 8.66 37.32 9 38 C11.78336238 38.43106693 11.78336238 38.43106693 15 38.5625 C20.90362954 38.90362954 20.90362954 38.90362954 22 40 C23.51469448 40.23192865 25.03754562 40.41215238 26.5625 40.5625 C27.38878906 40.64628906 28.21507812 40.73007812 29.06640625 40.81640625 C30.02353516 40.90728516 30.02353516 40.90728516 31 41 C31 41.66 31 42.32 31 43 C32.65 43.33 34.3 43.66 36 44 C36 44.66 36 45.32 36 46 C36.99 46 37.98 46 39 46 C39 46.99 39 47.98 39 49 C39.99 49 40.98 49 42 49 C42 49.66 42 50.32 42 51 C42.66 51 43.32 51 44 51 C44 51.99 44 52.98 44 54 C44.66 54 45.32 54 46 54 C46 61.59 46 69.18 46 77 C45.34 77 44.68 77 44 77 C44 77.99 44 78.98 44 80 C43.34 80 42.68 80 42 80 C41.67 81.65 41.34 83.3 41 85 C39.515 85.495 39.515 85.495 38 86 C37.67 86.66 37.34 87.32 37 88 C35.68 88 34.36 88 33 88 C33 88.66 33 89.32 33 90 C32.360625 90.12375 31.72125 90.2475 31.0625 90.375 C30.381875 90.58125 29.70125 90.7875 29 91 C28.67 91.66 28.34 92.32 28 93 C23.06294731 93.99094121 18.17816526 94.14769581 13.16015625 94.1328125 C12.43436874 94.13376923 11.70858124 94.13472595 10.96080017 94.13571167 C9.43553581 94.13638795 7.91026849 94.13457246 6.38500977 94.13037109 C4.07236143 94.12502281 1.75990796 94.13033091 -0.55273438 94.13671875 C-2.04427126 94.13605772 -3.53580802 94.13477604 -5.02734375 94.1328125 C-5.70780258 94.13483673 -6.38826141 94.13686096 -7.08934021 94.13894653 C-11.82034844 94.11626558 -16.3439161 93.80562148 -21 93 C-21.33 92.34 -21.66 91.68 -22 91 C-24.52733235 90.34444881 -24.52733235 90.34444881 -27 90 C-27 89.34 -27 88.68 -27 88 C-28.98 88 -30.96 88 -33 88 C-34.60725635 84.78548731 -34.05748185 81.56387464 -34 78 C-32.515 77.505 -32.515 77.505 -31 77 C-31 75.35 -31 73.7 -31 72 C-30.01 72 -29.02 72 -28 72 C-28.0928125 70.824375 -28.0928125 70.824375 -28.1875 69.625 C-28.125625 68.75875 -28.06375 67.8925 -28 67 C-25 65 -25 65 -22 65 C-22 65.66 -22 66.32 -22 67 C-20.68 67 -19.36 67 -18 67 C-18 67.99 -18 68.98 -18 70 C-15.69 70 -13.38 70 -11 70 C-11 70.66 -11 71.32 -11 72 C-6.71 72 -2.42 72 2 72 C2 72.66 2 73.32 2 74 C4.64 74 7.28 74 10 74 C10 73.34 10 72.68 10 72 C13.3 72 16.6 72 20 72 C20.74926071 68.33694766 21.2380014 65.57644848 20 62 C17.36 62 14.72 62 12 62 C11.67 61.34 11.34 60.68 11 60 C7.72444392 59.52998967 7.72444392 59.52998967 3.9375 59.375 C2.64714844 59.30023437 1.35679688 59.22546875 0.02734375 59.1484375 C-0.97167969 59.09945312 -1.97070312 59.05046875 -3 59 C-3 58.34 -3 57.68 -3 57 C-6.3 57 -9.6 57 -13 57 C-13 56.01 -13 55.02 -13 54 C-14.98 54 -16.96 54 -19 54 C-19 53.34 -19 52.68 -19 52 C-20.32 52 -21.64 52 -23 52 C-23 51.01 -23 50.02 -23 49 C-23.99 49 -24.98 49 -26 49 C-26 48.01 -26 47.02 -26 46 C-26.66 46 -27.32 46 -28 46 C-28 45.34 -28 44.68 -28 44 C-28.99 44 -29.98 44 -31 44 C-31 35.42 -31 26.84 -31 18 C-30.01 18 -29.02 18 -28 18 C-28 17.01 -28 16.02 -28 15 C-27.34 15 -26.68 15 -26 15 C-26 14.34 -26 13.68 -26 13 C-24 11 -24 11 -21 10 C-21 9.34 -21 8.68 -21 8 C-20.01 7.67 -19.02 7.34 -18 7 C-17.67 6.34 -17.34 5.68 -17 5 C-15.02 5 -13.04 5 -11 5 C-11 4.34 -11 3.68 -11 3 C-7.37 2.67 -3.74 2.34 0 2 C0 1.34 0 0.68 0 0 Z " fill="#FFFFFF" transform="translate(1055,484)"/>
<path d="M0 0 C9.57 0 19.14 0 29 0 C29 0.99 29 1.98 29 3 C29.9075 2.9175 30.815 2.835 31.75 2.75 C35.71789009 3.05522231 36.4477683 4.09573634 39 7 C39.99 7.33 40.98 7.66 42 8 C42 8.99 42 9.98 42 11 C42.66 11 43.32 11 44 11 C44 11.66 44 12.32 44 13 C44.99 13.33 45.98 13.66 47 14 C49 16 49 16 49.5 18.0625 C49.665 18.701875 49.83 19.34125 50 20 C50.66 20.33 51.32 20.66 52 21 C52 23.64 52 26.28 52 29 C52.66 29 53.32 29 54 29 C54 33.95 54 38.9 54 44 C53.34 44 52.68 44 52 44 C52 46.64 52 49.28 52 52 C51.01 52 50.02 52 49 52 C49 53.65 49 55.3 49 57 C48.01 57 47.02 57 46 57 C46 57.99 46 58.98 46 60 C45.34 60 44.68 60 44 60 C44 60.66 44 61.32 44 62 C42.3203125 63.5078125 42.3203125 63.5078125 40.125 65.125 C39.40570312 65.66382813 38.68640625 66.20265625 37.9453125 66.7578125 C36 68 36 68 34 68 C34 68.66 34 69.32 34 70 C32.02 70 30.04 70 28 70 C28 70.99 28 71.98 28 73 C19.42 73 10.84 73 2 73 C2 72.34 2 71.68 2 71 C0.5459375 70.814375 0.5459375 70.814375 -0.9375 70.625 C-1.948125 70.41875 -2.95875 70.2125 -4 70 C-4.495 69.01 -4.495 69.01 -5 68 C-6.485 67.505 -6.485 67.505 -8 67 C-8 66.34 -8 65.68 -8 65 C-9.32 65 -10.64 65 -12 65 C-13.75 63.625 -13.75 63.625 -15 62 C-15 61.34 -15 60.68 -15 60 C-15.66 59.67 -16.32 59.34 -17 59 C-17.625 56.9375 -17.625 56.9375 -18 55 C-18.66 55 -19.32 55 -20 55 C-21 52 -21 52 -20 49 C-20.99 49 -21.98 49 -23 49 C-23 40.75 -23 32.5 -23 24 C-22.34 24 -21.68 24 -21 24 C-20.67 22.02 -20.34 20.04 -20 18 C-19.34 18 -18.68 18 -18 18 C-17.67 16.35 -17.34 14.7 -17 13 C-16.34 13 -15.68 13 -15 13 C-15 12.34 -15 11.68 -15 11 C-12.4264455 7.6695177 -8.62243063 5.98208468 -5 4 C-5 3.67 -5 3.34 -5 3 C-3.35 2.67 -1.7 2.34 0 2 C0 1.34 0 0.68 0 0 Z " fill="#FFFFFF" transform="translate(528,73)"/>
<path d="M0 0 C9.57 0 19.14 0 29 0 C29 0.99 29 1.98 29 3 C30.65 3 32.3 3 34 3 C34 3.66 34 4.32 34 5 C36.475 5.495 36.475 5.495 39 6 C39 6.66 39 7.32 39 8 C39.99 8.33 40.98 8.66 42 9 C43.1875 11.0625 43.1875 11.0625 44 13 C44.99 13 45.98 13 47 13 C47 13.99 47 14.98 47 16 C48.485 16.495 48.485 16.495 50 17 C51.83002987 21.15805292 52.23994228 24.7658296 52.1953125 29.2734375 C52.18886719 30.42714844 52.18242187 31.58085938 52.17578125 32.76953125 C52.15064453 34.55423828 52.15064453 34.55423828 52.125 36.375 C52.11597656 37.58800781 52.10695313 38.80101562 52.09765625 40.05078125 C52.07416588 43.03405773 52.04131682 46.01692594 52 49 C51.34 49 50.68 49 50 49 C50 50.98 50 52.96 50 55 C49.01 55 48.02 55 47 55 C47 56.65 47 58.3 47 60 C46.01 60 45.02 60 44 60 C44 60.66 44 61.32 44 62 C42.6875 63.625 42.6875 63.625 41 65 C40.01 65 39.02 65 38 65 C38 65.66 38 66.32 38 67 C37.01 67.33 36.02 67.66 35 68 C34.67 68.66 34.34 69.32 34 70 C32.02 70 30.04 70 28 70 C28 70.99 28 71.98 28 73 C19.09 73 10.18 73 1 73 C1 72.34 1 71.68 1 71 C-0.65 70.67 -2.3 70.34 -4 70 C-4 69.34 -4 68.68 -4 68 C-5.65 67.67 -7.3 67.34 -9 67 C-9 66.34 -9 65.68 -9 65 C-9.99 65 -10.98 65 -12 65 C-12 64.01 -12 63.02 -12 62 C-12.66 62 -13.32 62 -14 62 C-14 61.34 -14 60.68 -14 60 C-14.99 60 -15.98 60 -17 60 C-18.41377341 57.36095629 -19.37240135 54.92879371 -20 52 C-20.66 52 -21.32 52 -22 52 C-23.60725635 48.78548731 -23.05748185 45.56387464 -23 42 C-23.66 41.67 -24.32 41.34 -25 41 C-25 38.03 -25 35.06 -25 32 C-24.01 31.67 -23.02 31.34 -22 31 C-22.33 30.34 -22.66 29.68 -23 29 C-23.23076923 23.46153846 -23.23076923 23.46153846 -22 21 C-21.34 21 -20.68 21 -20 21 C-20 19.35 -20 17.7 -20 16 C-19.01 16 -18.02 16 -17 16 C-17 15.01 -17 14.02 -17 13 C-16.34 13 -15.68 13 -15 13 C-15 12.34 -15 11.68 -15 11 C-14.01 11 -13.02 11 -12 11 C-12 10.01 -12 9.02 -12 8 C-11.01 8 -10.02 8 -9 8 C-9 7.34 -9 6.68 -9 6 C-7.68 5.67 -6.36 5.34 -5 5 C-5 4.34 -5 3.68 -5 3 C-3.35 2.67 -1.7 2.34 0 2 C0 1.34 0 0.68 0 0 Z " fill="#FFFFFF" transform="translate(295,73)"/>
<path d="M0 0 C8.25 0 16.5 0 25 0 C25 0.66 25 1.32 25 2 C25.99 2 26.98 2 28 2 C28 4.64 28 7.28 28 10 C28.99 9.67 29.98 9.34 31 9 C30.67 10.98 30.34 12.96 30 15 C30.99 15 31.98 15 33 15 C33.66 17.31 34.32 19.62 35 22 C35.33 22 35.66 22 36 22 C36 23.98 36 25.96 36 28 C36.66 28 37.32 28 38 28 C38 29.65 38 31.3 38 33 C38.99 33.33 39.98 33.66 41 34 C41 36.31 41 38.62 41 41 C41.66 41 42.32 41 43 41 C43 42.65 43 44.3 43 46 C43.99 46 44.98 46 46 46 C46.66 48.31 47.32 50.62 48 53 C48.33 53 48.66 53 49 53 C49 54.98 49 56.96 49 59 C49.66 59 50.32 59 51 59 C51 57.35 51 55.7 51 54 C51.99 54 52.98 54 54 54 C54 52.35 54 50.7 54 49 C54.66 49 55.32 49 56 49 C56 46.69 56 44.38 56 42 C56.99 41.67 57.98 41.34 59 41 C59 39.35 59 37.7 59 36 C59.66 35.67 60.32 35.34 61 35 C61.65213292 32.97536745 61.65213292 32.97536745 62 31 C62.66 31 63.32 31 64 31 C64 28.36 64 25.72 64 23 C64.99 23 65.98 23 67 23 C67 21.35 67 19.7 67 18 C67.66 18 68.32 18 69 18 C69 16.02 69 14.04 69 12 C69.66 12 70.32 12 71 12 C71.33 9.69 71.66 7.38 72 5 C72.99 5 73.98 5 75 5 C75 3.35 75 1.7 75 0 C83.25 0 91.5 0 100 0 C100 1.65 100 3.3 100 5 C99.34 5 98.68 5 98 5 C98 7.31 98 9.62 98 12 C97.01 12 96.02 12 95 12 C95 13.98 95 15.96 95 18 C94.34 18 93.68 18 93 18 C92.505 20.475 92.505 20.475 92 23 C91.34 23 90.68 23 90 23 C90 25.31 90 27.62 90 30 C89.34 30.33 88.68 30.66 88 31 C87.34444881 33.52733235 87.34444881 33.52733235 87 36 C86.34 36 85.68 36 85 36 C85 37.65 85 39.3 85 41 C84.01 41 83.02 41 82 41 C82 43.64 82 46.28 82 49 C81.01 49.495 81.01 49.495 80 50 C79.34786708 52.02463255 79.34786708 52.02463255 79 54 C78.34 54 77.68 54 77 54 C77 55.65 77 57.3 77 59 C76.34 59 75.68 59 75 59 C74.67 61.64 74.34 64.28 74 67 C73.34 67 72.68 67 72 67 C72 68.65 72 70.3 72 72 C71.01 72 70.02 72 69 72 C69 73.65 69 75.3 69 77 C68.34 77 67.68 77 67 77 C67 79.31 67 81.62 67 84 C65.515 84.495 65.515 84.495 64 85 C64 86.98 64 88.96 64 91 C54.76 91 45.52 91 36 91 C36 89.02 36 87.04 36 85 C35.01 85 34.02 85 33 85 C33 83.35 33 81.7 33 80 C32.34 80 31.68 80 31 80 C30.67 77.36 30.34 74.72 30 72 C29.34 72 28.68 72 28 72 C28 70.35 28 68.7 28 67 C26.515 66.505 26.515 66.505 25 66 C25.33 64.68 25.66 63.36 26 62 C24.515 61.505 24.515 61.505 23 61 C22.67 58.69 22.34 56.38 22 54 C21.34 54 20.68 54 20 54 C20 52.35 20 50.7 20 49 C19.34 49 18.68 49 18 49 C18 47.02 18 45.04 18 43 C17.01 43 16.02 43 15 43 C14.5978125 41.453125 14.5978125 41.453125 14.1875 39.875 C13.45760064 37.27046702 12.64574749 35.31874517 11.375 32.875 C9.96535231 29.92755483 9.71656639 28.21224754 10 25 C9.01 25 8.02 25 7 25 C7 23.35 7 21.7 7 20 C6.34 20 5.68 20 5 20 C4.67 17.69 4.34 15.38 4 13 C3.34 13 2.68 13 2 13 C2 11.02 2 9.04 2 7 C1.34 7 0.68 7 0 7 C0 4.69 0 2.38 0 0 Z " fill="#FFFFFF" transform="translate(371,487)"/>
<path d="M0 0 C4.14587582 -0.0268245 8.29158038 -0.04675315 12.4375 -0.0625 C13.62150391 -0.07087891 14.80550781 -0.07925781 16.02539062 -0.08789062 C17.15009766 -0.09111328 18.27480469 -0.09433594 19.43359375 -0.09765625 C20.47572021 -0.10289307 21.51784668 -0.10812988 22.59155273 -0.11352539 C25 0 25 0 26 1 C26.08651611 2.41570123 26.10704904 3.835595 26.09765625 5.25390625 C26.09515869 6.0229126 26.09266113 6.79191895 26.09008789 7.58422852 C26.08098389 8.56705811 26.07187988 9.5498877 26.0625 10.5625 C26.041875 13.676875 26.02125 16.79125 26 20 C33.59 20.33 41.18 20.66 49 21 C49 27.6 49 34.2 49 41 C40.75 41 32.5 41 24 41 C24 41.66 24 42.32 24 43 C24.66 43 25.32 43 26 43 C26.33 58.51 26.66 74.02 27 90 C32.61 90 38.22 90 44 90 C44 89.34 44 88.68 44 88 C45.65 88 47.3 88 49 88 C49 90.31 49 92.62 49 95 C49.99 95 50.98 95 52 95 C52 96.98 52 98.96 52 101 C52.66 101 53.32 101 54 101 C54 103.31 54 105.62 54 108 C53.360625 108.12375 52.72125 108.2475 52.0625 108.375 C51.381875 108.58125 50.70125 108.7875 50 109 C49.67 109.66 49.34 110.32 49 111 C45.32942107 112.0348083 41.79656951 112.12866 38 112.1328125 C36.865625 112.13410156 35.73125 112.13539063 34.5625 112.13671875 C33.386875 112.13285156 32.21125 112.12898437 31 112.125 C29.2365625 112.13080078 29.2365625 112.13080078 27.4375 112.13671875 C26.303125 112.13542969 25.16875 112.13414062 24 112.1328125 C22.96875 112.13168457 21.9375 112.13055664 20.875 112.12939453 C18.14410502 112.0064857 15.65894736 111.61524816 13 111 C13 110.34 13 109.68 13 109 C11.515 108.505 11.515 108.505 10 108 C10 107.34 10 106.68 10 106 C8.515 105.505 8.515 105.505 7 105 C5.8125 102.9375 5.8125 102.9375 5 101 C4.34 101 3.68 101 3 101 C2.67 99.02 2.34 97.04 2 95 C1.34 95 0.68 95 0 95 C0 77.18 0 59.36 0 41 C-4.95 41 -9.9 41 -15 41 C-15 34.4 -15 27.8 -15 21 C-10.05 21 -5.1 21 0 21 C0 14.07 0 7.14 0 0 Z " fill="#FFFFFF" transform="translate(665,466)"/>
<path d="M0 0 C1.02544922 -0.00128906 2.05089844 -0.00257813 3.10742188 -0.00390625 C4.72680664 0.00189453 4.72680664 0.00189453 6.37890625 0.0078125 C7.45462891 0.00394531 8.53035156 0.00007813 9.63867188 -0.00390625 C11.1787793 -0.00197266 11.1787793 -0.00197266 12.75 0 C13.69673584 0.00112793 14.64347168 0.00225586 15.61889648 0.00341797 C17.94140625 0.1328125 17.94140625 0.1328125 19.94140625 1.1328125 C19.94140625 43.0428125 19.94140625 84.9528125 19.94140625 128.1328125 C11.36140625 128.1328125 2.78140625 128.1328125 -6.05859375 128.1328125 C-6.08114069 111.59133877 -6.09957287 95.0498781 -6.11040592 78.50839329 C-6.1155689 70.82842523 -6.12261164 63.14846737 -6.1340332 55.46850586 C-6.14397998 48.77703261 -6.15044716 42.08556674 -6.15268224 35.3940863 C-6.15398936 31.84885649 -6.15707528 28.30364782 -6.16432381 24.75842476 C-6.17233755 20.80712605 -6.17258489 16.8558483 -6.17211914 12.90454102 C-6.17571442 11.7205925 -6.17930969 10.53664398 -6.18301392 9.31681824 C-6.18163925 8.24684601 -6.18026459 7.17687378 -6.17884827 6.07447815 C-6.17977006 5.13885827 -6.18069185 4.20323839 -6.18164158 3.2392664 C-5.94232778 -0.85754292 -3.54260166 0.00422565 0 0 Z " fill="#FFFFFF" transform="translate(157.05859375,449.8671875)"/>
<path d="M0 0 C1.64574566 -0.02688151 3.29161413 -0.04634123 4.9375 -0.0625 C6.31228516 -0.07990234 6.31228516 -0.07990234 7.71484375 -0.09765625 C10 0 10 0 11 1 C11.08737645 2.85369611 11.10698153 4.71067541 11.09765625 6.56640625 C11.09443359 7.69111328 11.09121094 8.81582031 11.08789062 9.97460938 C11.07532227 11.75061523 11.07532227 11.75061523 11.0625 13.5625 C11.05798828 14.75037109 11.05347656 15.93824219 11.04882812 17.16210938 C11.03699686 20.10809412 11.01906076 23.05405316 11 26 C4.73 26 -1.54 26 -8 26 C-8 26.66 -8 27.32 -8 28 C-8.99 28.33 -9.98 28.66 -11 29 C-13.5859495 31.08865152 -14.4376049 32.73810844 -15 36 C-15.99 36 -16.98 36 -18 36 C-17.814375 36.5775 -17.62875 37.155 -17.4375 37.75 C-16.95976454 40.20692525 -17.24270636 41.64397534 -18 44 C-18.66 44 -19.32 44 -20 44 C-20 60.5 -20 77 -20 94 C-28.58 94 -37.16 94 -46 94 C-46 63.97 -46 33.94 -46 3 C-37.42 3 -28.84 3 -20 3 C-20 4.98 -20 6.96 -20 9 C-19.67 8.67 -19.34 8.34 -19 8 C-18.01 7.67 -17.02 7.34 -16 7 C-15.67 6.34 -15.34 5.68 -15 5 C-13.35 5 -11.7 5 -10 5 C-10 4.34 -10 3.68 -10 3 C-6.7 2.67 -3.4 2.34 0 2 C0 1.34 0 0.68 0 0 Z " fill="#FFFFFF" transform="translate(964,484)"/>
<path d="" fill="#FFFFFF" transform="translate(0,0)"/>
<path d="" fill="#FFFFFF" transform="translate(0,0)"/>
</svg>
