<?xml version="1.0" encoding="UTF-8"?>
<svg version="1.1" xmlns="http://www.w3.org/2000/svg" width="1580" height="543">
<path d="M0 0 C1.36411901 -0.00389925 2.72823395 -0.00954469 4.0923394 -0.0167709 C7.81696695 -0.03145374 11.54116863 -0.02138755 15.26578212 -0.00703418 C19.29172079 0.00411263 23.31760153 -0.00787912 27.34353638 -0.01687622 C35.22034469 -0.03078476 43.09699231 -0.02327054 50.97379293 -0.00820064 C60.15073853 0.00868649 69.32764441 0.00544586 78.50460075 0.00170528 C94.87955426 -0.00416876 111.25443079 0.00998125 127.62936401 0.03465271 C143.51220585 0.05857999 159.39494489 0.06565332 175.27780151 0.05516052 C192.58399432 0.04374786 209.89013962 0.04182496 227.19633186 0.05625862 C229.04206013 0.05778442 230.88778841 0.05930478 232.73351669 0.06081963 C233.64159751 0.06157744 234.54967832 0.06233525 235.48527674 0.06311603 C241.87964811 0.06785554 248.27399824 0.06600984 254.66836929 0.06175423 C262.46107389 0.05682458 270.25368135 0.06282547 278.04636373 0.08264852 C282.02104395 0.09251076 285.99557636 0.09763715 289.97026443 0.08975601 C293.61079509 0.08268517 297.25102784 0.08953634 300.89151929 0.10735964 C302.82769267 0.11330226 304.76389403 0.10459339 306.70005429 0.09531313 C316.93570282 0.1698319 324.94678477 2.12477854 332.44821167 9.62620544 C337.12501874 16.79730962 338.91945326 23.78166609 338.8984375 32.26098633 C338.91173312 33.19014687 338.92502874 34.11930741 338.93872726 35.07662433 C338.97781061 38.16171354 338.98882843 41.24621938 338.9994812 44.33152771 C339.02129261 46.55483999 339.04463829 48.77813766 339.06939697 51.00141907 C339.13019346 57.01980371 339.16438678 63.03803605 339.18982935 69.05666471 C339.20603194 72.8194153 339.22639341 76.58212275 339.24785995 80.34484673 C339.30574511 90.77905397 339.35579911 101.21323148 339.37710762 111.64758396 C339.37848901 112.31361645 339.3798704 112.97964894 339.38129365 113.66586423 C339.38267768 114.33339728 339.38406171 115.00093034 339.38548768 115.68869168 C339.38831158 117.04115398 339.3911532 118.39361626 339.39401245 119.74607849 C339.39542279 120.41693224 339.39683313 121.08778598 339.39828621 121.77896862 C339.42280982 132.65930589 339.50847519 143.53825306 339.61989285 154.41801298 C339.73356024 165.60884502 339.79323313 176.79917199 339.80313194 187.99063152 C339.80992715 194.26657337 339.83961845 200.54041517 339.92569351 206.81581306 C340.0052158 212.71595251 340.01800762 218.61252646 339.97989273 224.51304245 C339.97736124 226.67504557 339.99869843 228.83723135 340.04592133 230.99872017 C340.3735121 246.90318956 340.3735121 246.90318956 336.95385504 251.2363708 C333.17481127 254.59134556 328.92857088 256.51572039 324.32321167 258.50120544 C322.57767917 259.52456994 320.84404892 260.56923261 319.13571167 261.65354919 C310.16506914 266.89610872 301.08756309 271.74182219 291.63571167 276.06370544 C290.75205933 276.46903503 289.86840698 276.87436462 288.95797729 277.29197693 C274.27380003 283.83076448 274.27380003 283.83076448 269.13082886 283.2563324 C267.32321167 282.50120544 267.32321167 282.50120544 265.79586792 279.57933044 C265.30989786 278.30926572 264.84085121 277.03264186 264.38571167 275.75120544 C264.0050354 274.73945251 264.0050354 274.73945251 263.6166687 273.70726013 C263.0938178 272.31538596 262.57724638 270.92113735 262.06686401 269.52464294 C260.98603141 266.58375634 259.83820204 263.6695808 258.69821167 260.75120544 C257.19437575 256.82877992 255.73786685 252.89408133 254.32321167 248.93870544 C250.90501011 239.49403606 246.90573897 230.43259009 242.32321167 221.50120544 C240.57849939 218.0199913 238.84065368 214.53549528 237.10836792 211.04808044 C235.93282323 208.71242491 234.73278254 206.38891314 233.50680542 204.07933044 C232.95121948 203.02229919 232.39563354 201.96526794 231.82321167 200.87620544 C231.31789917 199.93518982 230.81258667 198.99417419 230.29196167 198.02464294 C229.32321167 195.50120544 229.32321167 195.50120544 229.45211792 193.32542419 C231.50041149 189.03594842 236.63856755 187.15332575 240.86618042 185.51683044 C245.43560837 184.05129531 249.47847798 183.11872647 254.32321167 183.50120544 C254.32321167 182.51120544 254.32321167 181.52120544 254.32321167 180.50120544 C253.20946167 180.53214294 253.20946167 180.53214294 252.07321167 180.56370544 C248.7091301 179.26394666 248.51575523 178.44919723 247.07321167 175.25120544 C245.09136175 170.41029335 244.19181858 165.86713451 244.22555542 160.63792419 C244.22877808 159.75169373 244.23200073 158.86546326 244.23532104 157.95237732 C244.24369995 157.0403656 244.25207886 156.12835388 244.26071167 155.18870544 C244.26522339 154.25735779 244.26973511 153.32601013 244.27438354 152.36643982 C244.28611933 150.07796171 244.30253804 147.78961737 244.32321167 145.50120544 C245.31321167 145.83120544 246.30321167 146.16120544 247.32321167 146.50120544 C247.53469849 147.6136261 247.53469849 147.6136261 247.75045776 148.7485199 C248.39266279 152.10497476 249.04530704 155.45931623 249.69821167 158.81370544 C249.91993042 159.98095154 250.14164917 161.14819763 250.37008667 162.35081482 C250.58922729 163.46907654 250.80836792 164.58733826 251.03414917 165.73948669 C251.23314819 166.77113953 251.43214722 167.80279236 251.63717651 168.8657074 C252.22281991 171.70509397 252.22281991 171.70509397 254.32321167 174.50120544 C259.5081041 173.97964822 263.31157171 171.38089391 267.63571167 168.68870544 C268.81472046 167.96252014 268.81472046 167.96252014 270.01754761 167.22166443 C277.55375479 162.50057675 284.60019581 157.21618649 291.62203979 151.77171326 C293.28077003 150.53290268 294.97546828 149.39416502 296.71383667 148.27073669 C299.36905667 146.76607166 299.36905667 146.76607166 300.32321167 144.62620544 C300.44578585 142.36508491 300.44578585 142.36508491 299.35055542 139.86448669 C298.18781121 136.05793627 297.99638149 132.50400268 297.88571167 128.56370544 C297.00605258 109.5454349 291.45480735 90.87441216 283.64743042 73.57933044 C281.81629141 69.32287752 280.49904101 64.97760838 279.32321167 60.50120544 C272.41187527 60.97243293 266.60117006 63.7075655 260.32321167 66.50120544 C259.66321167 65.84120544 259.00321167 65.18120544 258.32321167 64.50120544 C259.94413297 63.3288786 261.57008 62.16349774 263.19821167 61.00120544 C264.55559448 60.02667419 264.55559448 60.02667419 265.94039917 59.03245544 C268.32321167 57.50120544 268.32321167 57.50120544 270.32321167 57.50120544 C270.32321167 56.84120544 270.32321167 56.18120544 270.32321167 55.50120544 C272.96321167 55.17120544 275.60321167 54.84120544 278.32321167 54.50120544 C276.96394631 51.18203744 275.58290977 47.87233504 274.19821167 44.56370544 C273.81922729 43.63751404 273.44024292 42.71132263 273.04977417 41.75706482 C269.2174943 32.49547236 269.2174943 32.49547236 263.32321167 24.50120544 C260.83498015 23.72267693 260.83498015 23.72267693 258.32321167 23.50120544 C247.45767473 21.73836022 247.45767473 21.73836022 243.57321167 19.81370544 C239.69118251 18.2459629 237.35439829 18.59624518 233.32321167 19.50120544 C233.19946167 20.07870544 233.07571167 20.65620544 232.94821167 21.25120544 C232.31672343 23.52456311 231.43462976 25.42655834 230.32321167 27.50120544 C229.66321167 26.18120544 229.00321167 24.86120544 228.32321167 23.50120544 C227.27133667 23.70745544 226.21946167 23.91370544 225.13571167 24.12620544 C221.27495478 24.50595202 219.71932042 24.15074398 216.32321167 22.50120544 C215.66321167 22.50120544 215.00321167 22.50120544 214.32321167 22.50120544 C213.99321167 23.49120544 213.66321167 24.48120544 213.32321167 25.50120544 C210.68321167 25.17120544 208.04321167 24.84120544 205.32321167 24.50120544 C203.69105726 29.39766867 203.46234207 32.60464349 205.59274292 37.29808044 C207.68554957 41.1476226 209.89269902 44.85543647 212.32321167 48.50120544 C212.32321167 52.50120544 212.32321167 52.50120544 210.93380737 53.93333435 C210.2953186 54.36049744 209.65682983 54.78766052 208.99899292 55.22776794 C207.95001831 55.93933044 207.95001831 55.93933044 206.87985229 56.66526794 C206.13928589 57.14737732 205.39871948 57.62948669 204.63571167 58.12620544 C203.9144812 58.61604919 203.19325073 59.10589294 202.45016479 59.61058044 C198.8564659 62.01294354 195.45172432 64.11689154 191.32321167 65.50120544 C191.32321167 66.16120544 191.32321167 66.82120544 191.32321167 67.50120544 C190.34223511 68.03616638 189.36125854 68.57112732 188.35055542 69.12229919 C183.96484435 71.63046369 179.94831846 74.56913099 175.88571167 77.56370544 C168.02304912 83.30312421 160.05190631 88.85761613 152.01119995 94.3434906 C149.74664869 95.89664393 147.50315518 97.47884833 145.26071167 99.06370544 C141.06320029 102.00695196 136.82710489 104.89030337 132.57321167 107.75120544 C131.63336426 108.38844543 131.63336426 108.38844543 130.67453003 109.03855896 C127.00670335 111.49271989 123.32431986 113.61111139 119.32321167 115.50120544 C118.72895386 114.97011169 118.13469604 114.43901794 117.52243042 113.89183044 C109.87063847 107.37055208 101.87721711 102.65255257 91.52243042 103.17308044 C85.79501447 104.02761497 80.78664573 105.75192083 76.32321167 109.50120544 C75.66321167 109.50120544 75.00321167 109.50120544 74.32321167 109.50120544 C74.32321167 110.16120544 74.32321167 110.82120544 74.32321167 111.50120544 C73.66321167 111.50120544 73.00321167 111.50120544 72.32321167 111.50120544 C72.32321167 112.16120544 72.32321167 112.82120544 72.32321167 113.50120544 C71.66321167 113.50120544 71.00321167 113.50120544 70.32321167 113.50120544 C70.04606323 114.05550232 69.76891479 114.60979919 69.48336792 115.18089294 C68.68700285 116.77362308 67.88182914 118.36197012 67.06930542 119.94651794 C63.35527485 127.55196562 61.44358531 133.95646924 63.07321167 142.37620544 C64.21392141 145.2279798 65.44850056 147.11520949 67.32321167 149.50120544 C67.32321167 150.49120544 67.32321167 151.48120544 67.32321167 152.50120544 C65.86227417 153.88792419 65.86227417 153.88792419 63.94821167 155.18870544 C63.32172729 155.62569763 62.69524292 156.06268982 62.04977417 156.51292419 C60.32321167 157.50120544 60.32321167 157.50120544 58.32321167 157.50120544 C58.32321167 158.16120544 58.32321167 158.82120544 58.32321167 159.50120544 C56.47946167 160.84104919 56.47946167 160.84104919 53.82321167 162.43870544 C48.08255648 165.98287129 42.52910331 169.75201586 36.98336792 173.59275818 C35.70089443 174.48068586 34.41756238 175.3673751 33.13327026 176.25267029 C31.94581633 177.07174763 30.76113568 177.89486326 29.57955933 178.72239685 C25.54753859 181.50120544 25.54753859 181.50120544 23.32321167 181.50120544 C23.32321167 182.16120544 23.32321167 182.82120544 23.32321167 183.50120544 C21.47946167 184.84104919 21.47946167 184.84104919 18.82321167 186.43870544 C13.77120347 189.56176506 8.84137562 192.82212312 3.94821167 196.18870544 C3.27080933 196.65204285 2.59340698 197.11538025 1.89547729 197.59275818 C0.02665262 198.88023762 -1.82790617 200.18529452 -3.67678833 201.50120544 C-4.65905396 202.19987732 -5.64131958 202.89854919 -6.65335083 203.61839294 C-7.32108521 204.23972107 -7.98881958 204.86104919 -8.67678833 205.50120544 C-8.67678833 210.39218612 -7.32163482 213.47643905 -4.67678833 217.50120544 C-4.67678833 218.16120544 -4.67678833 218.82120544 -4.67678833 219.50120544 C-4.01678833 219.50120544 -3.35678833 219.50120544 -2.67678833 219.50120544 C-1.01012166 221.16787211 0.656545 222.83453878 2.32321167 224.50120544 C5.63798998 226.74670043 8.37445405 226.68069443 12.32321167 226.50120544 C14.88734951 220.94557345 14.12720974 217.10167707 12.32321167 211.50120544 C11.27714582 208.92627412 10.1967811 206.38327079 9.03024292 203.86058044 C8.14878451 200.91913913 8.25181469 199.3770605 9.32321167 196.50120544 C11.19430542 194.93870544 11.19430542 194.93870544 13.76071167 193.50120544 C19.0600693 190.34355712 24.03408241 186.89574686 29.01071167 183.25120544 C36.6799905 177.66234157 44.44345402 172.23570672 52.28512573 166.89231873 C55.97141724 164.3762084 59.64648349 161.84375965 63.32321167 159.31370544 C64.67733295 158.38264985 66.0314952 157.45165384 67.38571167 156.52073669 C68.35508667 155.85429138 69.32446167 155.18784607 70.32321167 154.50120544 C73.42421084 156.02531354 76.36681115 157.71180513 79.32321167 159.50120544 C81.72866805 160.70393363 83.2731812 160.60192017 85.94821167 160.56370544 C86.76547729 160.55468201 87.58274292 160.54565857 88.42477417 160.53636169 C89.05125854 160.52476013 89.67774292 160.51315857 90.32321167 160.50120544 C91.38834769 158.39038795 92.4302188 156.27367449 93.43649292 154.13401794 C95.90063539 148.98099036 98.32476235 144.60772096 102.32321167 140.50120544 C102.98321167 140.50120544 103.64321167 140.50120544 104.32321167 140.50120544 C104.32321167 139.84120544 104.32321167 139.18120544 104.32321167 138.50120544 C118.60546973 131.10604415 118.60546973 131.10604415 125.32321167 131.50120544 C124.32321167 133.50120544 124.32321167 133.50120544 122.35446167 134.29026794 C121.51914917 134.56612732 120.68383667 134.84198669 119.82321167 135.12620544 C112.71708307 137.87499444 106.60978464 142.42446129 103.07321167 149.31370544 C102.47131702 150.70163603 101.88974828 152.09847071 101.32321167 153.50120544 C100.47668011 155.42125652 99.62213095 157.3377874 98.76071167 159.25120544 C98.17096558 160.60472107 98.17096558 160.60472107 97.56930542 161.98558044 C95.32398103 166.51846104 95.32398103 166.51846104 93.32321167 168.50120544 C90.40524292 169.11058044 90.40524292 169.11058044 87.13571167 169.25120544 C86.04903198 169.30792419 84.96235229 169.36464294 83.84274292 169.42308044 C82.59557495 169.46175232 82.59557495 169.46175232 81.32321167 169.50120544 C87.66580988 174.65678108 94.30919042 178.55255742 101.93649292 181.51683044 C104.32321167 182.50120544 104.32321167 182.50120544 107.32321167 184.50120544 C107.51071167 187.12620544 107.51071167 187.12620544 107.32321167 189.50120544 C106.33321167 189.83120544 105.34321167 190.16120544 104.32321167 190.50120544 C104.32321167 191.16120544 104.32321167 191.82120544 104.32321167 192.50120544 C103.66321167 192.50120544 103.00321167 192.50120544 102.32321167 192.50120544 C101.99321167 193.82120544 101.66321167 195.14120544 101.32321167 196.50120544 C102.97321167 197.82120544 104.62321167 199.14120544 106.32321167 200.50120544 C105.31543201 205.30753921 104.20818313 209.91120962 102.63571167 214.56370544 C100.77918683 220.68265976 101.10356101 224.91554606 103.88571167 230.81370544 C106.55780359 235.104946 109.66798739 239.11610033 112.71383667 243.14573669 C114.32321167 245.50120544 114.32321167 245.50120544 114.32321167 247.50120544 C114.98321167 247.50120544 115.64321167 247.50120544 116.32321167 247.50120544 C118.02448973 249.55222359 119.62309175 251.60665441 121.19821167 253.75120544 C124.05522994 257.608604 126.90555133 261.11738333 130.32321167 264.50120544 C131.91779709 266.48410959 133.47685376 268.47281842 135.01071167 270.50120544 C135.65665283 271.3512616 135.65665283 271.3512616 136.31564331 272.2184906 C137.20927991 273.3955232 138.10176941 274.57342754 138.99313354 275.75218201 C140.27356733 277.43592423 141.56925914 279.10663003 142.87008667 280.77464294 C150.64232715 290.85823599 150.64232715 290.85823599 152.32321167 296.50120544 C151.99321167 297.49120544 151.66321167 298.48120544 151.32321167 299.50120544 C95.39953593 296.93114443 38.36431505 282.11763707 -11.33694458 256.19261169 C-14.73866289 254.46987014 -18.1585435 252.9667673 -21.67678833 251.50120544 C-20.68678833 252.16120544 -19.69678833 252.82120544 -18.67678833 253.50120544 C-18.67678833 254.16120544 -18.67678833 254.82120544 -18.67678833 255.50120544 C-17.78890625 255.91849915 -17.78890625 255.91849915 -16.88308716 256.34422302 C-14.8263425 257.42277929 -13.17944176 258.56094995 -11.37600708 260.01292419 C12.60319037 278.99670903 38.90881337 294.59882243 66.70797729 307.29930115 C68.58741869 308.16305114 70.46040744 309.04089314 72.32907104 309.92771912 C80.27456301 313.67460401 88.32187352 316.92864681 96.57321167 319.93870544 C97.21906219 320.17454346 97.86491272 320.41038147 98.53033447 320.65336609 C146.65307647 338.84909799 146.65307647 338.84909799 196.36618042 337.37620544 C197.01362717 337.15174744 197.66107391 336.92728943 198.32814026 336.69602966 C205.22175969 334.26204654 211.94181236 331.43605745 218.63571167 328.50120544 C219.59308228 328.08318665 219.59308228 328.08318665 220.5697937 327.65672302 C249.09899584 315.17563768 277.31292386 300.8583373 302.13571167 281.87620544 C305.32321167 279.50120544 305.32321167 279.50120544 307.32321167 279.50120544 C307.32321167 278.84120544 307.32321167 278.18120544 307.32321167 277.50120544 C308.98420871 276.18895867 310.70427511 274.95103379 312.44821167 273.75120544 C315.85462972 271.34873814 319.00526927 269.01812766 321.88571167 266.00120544 C323.09227417 264.76370544 323.09227417 264.76370544 324.32321167 263.50120544 C324.98321167 263.50120544 325.64321167 263.50120544 326.32321167 263.50120544 C326.32321167 262.84120544 326.32321167 262.18120544 326.32321167 261.50120544 C326.98321167 261.50120544 327.64321167 261.50120544 328.32321167 261.50120544 C328.32321167 260.84120544 328.32321167 260.18120544 328.32321167 259.50120544 C330.00289917 257.77464294 330.00289917 257.77464294 332.19821167 255.87620544 C332.91750854 255.24456482 333.63680542 254.61292419 334.37789917 253.96214294 C336.32321167 252.50120544 336.32321167 252.50120544 338.32321167 252.50120544 C338.41481427 286.59997622 338.48527427 320.69871632 338.52747299 354.79758286 C338.53247567 358.82541819 338.53765298 362.85325328 338.54293823 366.88108826 C338.54398747 367.68294053 338.54503672 368.4847928 338.54611775 369.31094362 C338.5635118 382.28577755 338.59504397 395.26054042 338.63182285 408.23533224 C338.66926014 421.55370224 338.69145341 434.87203509 338.69956565 448.19045556 C338.70504765 456.40529607 338.72234727 464.6199357 338.75487754 472.83471437 C338.77605987 478.47178695 338.78240333 484.10875604 338.77721718 489.74586551 C338.77466112 492.99578848 338.78071718 496.24528831 338.80003357 499.49516487 C338.8199877 503.02584762 338.81513007 506.55567675 338.80422974 510.08638 C338.8158811 511.10391668 338.82753247 512.12145336 338.83953691 513.16982448 C338.7644917 522.18693969 336.33820383 530.31565551 330.09664917 537.03245544 C323.60175606 542.41148587 315.75235853 543.62779657 307.5717926 543.62145996 C306.905985 543.62231439 306.24017739 543.62316881 305.55419379 543.62404913 C303.33093185 543.6256917 301.10774593 543.62020265 298.88449097 543.61473083 C297.28771466 543.61444867 295.69093822 543.61460726 294.09416199 543.61517334 C289.76400628 543.61546018 285.43387828 543.60958168 281.10372901 543.60259938 C276.57669703 543.59634707 272.04966441 543.59576056 267.52262878 543.59457397 C258.95212509 543.59146621 250.38163415 543.58326027 241.81113607 543.57322448 C232.05304549 543.56204616 222.2949543 543.55654856 212.53685892 543.55152905 C192.46563605 543.54107721 172.39442466 543.52348847 152.32321167 543.50120544 C152.62049782 540.15688432 152.92621895 536.81338401 153.23336792 533.46995544 C153.31671387 532.53119568 153.40005981 531.59243591 153.4859314 530.62522888 C155.53666323 508.50627659 155.53666323 508.50627659 163.38571167 501.93870544 C164.35508667 501.13433044 165.32446167 500.32995544 166.32321167 499.50120544 C167.50357103 497.42831897 167.50357103 497.42831897 168.32321167 495.50120544 C167.35834839 495.93433044 167.35834839 495.93433044 166.37399292 496.37620544 C155.51631165 500.83699318 146.13011169 500.83699318 135.27243042 496.37620544 C134.62918823 496.08745544 133.98594604 495.79870544 133.32321167 495.50120544 C134.42939195 499.13639395 134.42939195 499.13639395 137.13571167 501.50120544 C137.85758667 501.83120544 138.57946167 502.16120544 139.32321167 502.50120544 C145.30480428 506.87798052 146.17623878 512.58880981 147.32321167 519.50120544 C147.89643381 523.64560801 148.40527504 527.79708814 148.90914917 531.95042419 C149.04603149 533.06268372 149.18291382 534.17494324 149.32394409 535.32090759 C149.65917681 538.04741827 149.99220549 540.77417898 150.32321167 543.50120544 C129.26067253 543.59478233 108.19816784 543.66525002 87.13546276 543.70845413 C77.35495732 543.72905068 67.57458129 543.75711553 57.79415894 543.80296326 C49.26629064 543.84292021 40.73851611 543.86865938 32.21055681 543.87755942 C27.69797899 543.88275921 23.18566932 543.89491956 18.67317772 543.92412567 C14.4189632 543.951435 10.1651253 543.95961936 5.91083145 543.95363617 C4.35608811 543.95472951 2.80133114 543.96259063 1.24666405 543.97802734 C-9.32974998 544.07782248 -19.39971713 543.67236395 -27.61428833 536.25120544 C-34.84423348 528.1370224 -35.83488627 519.55275589 -35.80262947 509.01808548 C-35.80408291 508.18600103 -35.80553635 507.35391657 -35.80703384 506.49661744 C-35.81068354 503.70810958 -35.80721216 500.91965675 -35.80377197 498.13114929 C-35.8049242 496.11179506 -35.80651241 494.09244104 -35.80849922 492.07308745 C-35.81267868 486.52336282 -35.81060804 480.97365535 -35.807513 475.42393064 C-35.80525346 469.43878277 -35.80874133 463.45363788 -35.81149292 457.4684906 C-35.81568663 446.42011083 -35.81531744 435.37173578 -35.81258145 424.32335598 C-35.81006575 414.11430511 -35.80940926 403.90525625 -35.8106041 393.69620514 C-35.81068048 393.01897277 -35.81075687 392.34174039 -35.81083557 391.64398583 C-35.81114691 388.89482449 -35.81146531 386.14566314 -35.81179533 383.3965018 C-35.81485472 357.60351177 -35.81208049 331.81052522 -35.80669843 306.01753573 C-35.80195494 283.11072324 -35.80237561 260.20391632 -35.80715942 237.29710388 C-35.81251692 211.55727991 -35.8146356 185.81745902 -35.81154716 160.07763457 C-35.81122645 157.33224599 -35.81091361 154.5868574 -35.8106041 151.84146881 C-35.81052502 151.16549223 -35.81044594 150.48951565 -35.81036447 149.79305493 C-35.80922796 139.59412959 -35.81055551 129.39520647 -35.81308365 119.19628143 C-35.81594529 107.59416213 -35.81512704 95.99204908 -35.8098029 84.38993052 C-35.8071761 78.47068648 -35.80614355 72.55145373 -35.80945206 66.63220978 C-35.8124361 61.21140008 -35.81078703 55.79061209 -35.8054745 50.36980435 C-35.8043593 48.41088085 -35.80492158 46.45195551 -35.80735029 44.4930332 C-35.82888085 25.68100169 -35.82888085 25.68100169 -34.67678833 16.50120544 C-34.01678833 16.50120544 -33.35678833 16.50120544 -32.67678833 16.50120544 C-32.39835083 15.48026794 -32.39835083 15.48026794 -32.11428833 14.43870544 C-28.78833854 7.64219935 -23.55200838 3.93283102 -16.60210443 1.30426204 C-11.12216685 -0.20008822 -5.6475305 -0.04341554 0 0 Z M192.38571167 420.87620544 C187.83268256 426.67096977 185.83382583 431.03807139 186.32321167 438.50120544 C187.65731575 444.03721212 189.72422935 447.97858069 194.32321167 451.50120544 C202.36307278 455.86447526 210.44710794 456.86816644 219.32321167 454.50120544 C219.32321167 452.52120544 219.32321167 450.54120544 219.32321167 448.50120544 C218.68383667 448.66620544 218.04446167 448.83120544 217.38571167 449.00120544 C210.73942127 450.08631408 205.13027339 450.37257992 199.32321167 446.50120544 C195.55362203 442.26499184 195.16189391 438.03695176 195.32321167 432.50120544 C196.00515779 429.77342096 196.90019375 427.97831071 198.32321167 425.50120544 C198.98321167 425.17120544 199.64321167 424.84120544 200.32321167 424.50120544 C200.32321167 423.84120544 200.32321167 423.18120544 200.32321167 422.50120544 C206.88813279 421.71679391 212.79158545 421.39206137 219.32321167 422.50120544 C218.82821167 419.53120544 218.82821167 419.53120544 218.32321167 416.50120544 C208.78299218 415.26007971 200.21419555 414.54679295 192.38571167 420.87620544 Z M3.32321167 416.50120544 C3.65321167 429.04120544 3.98321167 441.58120544 4.32321167 454.50120544 C6.96321167 454.50120544 9.60321167 454.50120544 12.32321167 454.50120544 C11.99321167 441.96120544 11.66321167 429.42120544 11.32321167 416.50120544 C8.68321167 416.50120544 6.04321167 416.50120544 3.32321167 416.50120544 Z M21.32321167 416.50120544 C21.32321167 429.04120544 21.32321167 441.58120544 21.32321167 454.50120544 C23.63321167 454.50120544 25.94321167 454.50120544 28.32321167 454.50120544 C28.51540882 444.80592722 27.91902491 435.17253112 27.32321167 425.50120544 C31.12717694 428.97477937 33.83709295 432.94752928 36.69821167 437.18870544 C37.18861938 437.89897888 37.6790271 438.60925232 38.18429565 439.34104919 C40.79521995 443.14064823 43.14250373 446.97114418 45.38571167 451.00120544 C46.83977417 452.73370544 46.83977417 452.73370544 48.32321167 454.50120544 C51.62321167 454.50120544 54.92321167 454.50120544 58.32321167 454.50120544 C58.32321167 441.96120544 58.32321167 429.42120544 58.32321167 416.50120544 C56.01321167 416.50120544 53.70321167 416.50120544 51.32321167 416.50120544 C50.99321167 425.74120544 50.66321167 434.98120544 50.32321167 444.50120544 C48.30196167 441.55183044 46.28071167 438.60245544 44.19821167 435.56370544 C43.57414429 434.65370789 42.9500769 433.74371033 42.30709839 432.80613708 C41.53776978 431.68259827 41.53776978 431.68259827 40.75289917 430.53636169 C40.17378784 429.70765564 39.59467651 428.87894958 38.99801636 428.02513123 C37.32321167 425.50120544 37.32321167 425.50120544 35.90621948 422.86399841 C35.44828003 422.04173767 34.99034058 421.21947693 34.51852417 420.37229919 C34.13970093 419.62778503 33.76087769 418.88327087 33.37057495 418.11619568 C30.44926442 415.46899628 30.44926442 415.46899628 21.32321167 416.50120544 Z M67.32321167 416.50120544 C67.32321167 429.04120544 67.32321167 441.58120544 67.32321167 454.50120544 C70.97383667 454.56308044 74.62446167 454.62495544 78.38571167 454.68870544 C79.52274536 454.71601746 80.65977905 454.74332947 81.83126831 454.77146912 C89.35778526 454.8330046 94.29306605 454.12733165 100.13571167 449.06370544 C103.97557922 444.56557489 104.61652748 441.5733039 104.63571167 435.62620544 C104.65246948 434.43253357 104.66922729 433.23886169 104.68649292 432.00901794 C104.2198718 427.50336458 102.89133675 424.22042591 99.82321167 420.85667419 C95.2150411 417.26854138 92.32069801 416.37431465 86.56149292 416.40354919 C85.55384888 416.40604675 84.54620483 416.40854431 83.50802612 416.41111755 C82.23016235 416.42022156 80.95229858 416.42932556 79.63571167 416.43870544 C75.57258667 416.45933044 71.50946167 416.47995544 67.32321167 416.50120544 Z M111.32321167 416.50120544 C111.65321167 429.04120544 111.98321167 441.58120544 112.32321167 454.50120544 C114.96321167 454.50120544 117.60321167 454.50120544 120.32321167 454.50120544 C120.32321167 441.96120544 120.32321167 429.42120544 120.32321167 416.50120544 C117.35321167 416.50120544 114.38321167 416.50120544 111.32321167 416.50120544 Z M142.32321167 416.50120544 C141.61193528 418.02536913 140.90066539 419.54953584 140.18942261 421.07371521 C139.56387821 422.41409702 138.938225 423.75442805 138.31246948 425.0947113 C136.67420842 428.60404325 135.03764508 432.11414392 133.40524292 435.62620544 C132.94420166 436.61705139 132.94420166 436.61705139 132.47384644 437.62791443 C131.61580896 439.4721484 130.75855239 441.31674562 129.90133667 443.16136169 C128.84551866 445.39582802 127.75117615 447.61247628 126.62008667 449.80979919 C125.17851474 452.30356744 125.17851474 452.30356744 125.32321167 454.50120544 C127.96321167 454.50120544 130.60321167 454.50120544 133.32321167 454.50120544 C133.95083622 453.27337683 134.57517232 452.04386708 135.19821167 450.81370544 C135.72028198 449.78696716 135.72028198 449.78696716 136.25289917 448.73948669 C137.38353185 446.37506142 138.34985366 443.93460047 139.32321167 441.50120544 C144.60321167 441.17120544 149.88321167 440.84120544 155.32321167 440.50120544 C156.0393575 442.97516378 156.75550334 445.44912211 157.47164917 447.92308044 C158.24420507 450.26201116 159.15946843 452.33563106 160.32321167 454.50120544 C162.96321167 454.50120544 165.60321167 454.50120544 168.32321167 454.50120544 C165.10703642 445.8344595 161.61791527 437.28779124 158.07321167 428.75120544 C157.40056274 427.1250531 157.40056274 427.1250531 156.71432495 425.46604919 C156.29135132 424.45155701 155.86837769 423.43706482 155.43258667 422.39183044 C154.85975952 421.01559509 154.85975952 421.01559509 154.27536011 419.61155701 C153.49912643 417.55920789 153.49912643 417.55920789 152.32321167 416.50120544 C150.63712201 416.42915033 148.94820508 416.41734477 147.26071167 416.43870544 C146.34161011 416.44772888 145.42250854 416.45675232 144.47555542 416.46604919 C143.76528198 416.47765076 143.05500854 416.48925232 142.32321167 416.50120544 Z M226.32321167 416.50120544 C226.23585704 421.04275022 226.1826992 425.58407776 226.13571167 430.12620544 C226.11057495 431.41140076 226.08543823 432.69659607 226.05953979 434.02073669 C226.04987183 435.26468201 226.04020386 436.50862732 226.03024292 437.79026794 C226.01453247 438.93189392 225.99882202 440.0735199 225.9826355 441.2497406 C226.3722712 444.96957446 227.38351712 447.31959331 229.32321167 450.50120544 C235.50883949 455.47660174 241.60424682 456.22164216 249.32321167 455.50120544 C254.18287822 454.33762331 258.34210051 452.67476106 261.32321167 448.50120544 C262.21313693 444.37221668 262.44173483 440.44288418 262.42086792 436.22776794 C262.41764526 435.07405701 262.41442261 433.92034607 262.41110229 432.73167419 C262.40272339 431.54186951 262.39434448 430.35206482 262.38571167 429.12620544 C262.38119995 427.91319763 262.37668823 426.70018982 262.37203979 425.45042419 C262.36029521 422.46730038 262.34387007 419.48427865 262.32321167 416.50120544 C259.68321167 416.50120544 257.04321167 416.50120544 254.32321167 416.50120544 C254.31386597 417.3284613 254.30452026 418.15571716 254.29489136 419.00804138 C254.24120848 422.7563696 254.15755457 426.50344707 254.07321167 430.25120544 C254.05194214 432.20413513 254.05194214 432.20413513 254.03024292 434.19651794 C253.99801636 435.44690857 253.96578979 436.69729919 253.93258667 437.98558044 C253.90116577 439.71372986 253.90116577 439.71372986 253.86911011 441.47679138 C253.2125599 445.11424396 252.24036043 446.29338582 249.32321167 448.50120544 C245.67701388 449.42932852 243.17163097 449.70859683 239.51071167 448.81370544 C236.87278447 447.23094912 236.41818354 446.34777152 235.32321167 443.50120544 C235.00436401 440.56858826 235.00436401 440.56858826 234.90914917 437.20433044 C234.87047729 435.99905701 234.83180542 434.79378357 234.79196167 433.55198669 C234.76102417 432.29772888 234.73008667 431.04347107 234.69821167 429.75120544 C234.65953979 428.48147888 234.62086792 427.21175232 234.58102417 425.90354919 C234.48676945 422.76957975 234.40116001 419.63561596 234.32321167 416.50120544 C231.68321167 416.50120544 229.04321167 416.50120544 226.32321167 416.50120544 Z M270.32321167 416.50120544 C270.65321167 429.04120544 270.98321167 441.58120544 271.32321167 454.50120544 C273.63321167 454.50120544 275.94321167 454.50120544 278.32321167 454.50120544 C278.42933054 443.44126117 278.33029236 432.52514224 277.32321167 421.50120544 C279.30277608 421.64153656 281.28186308 421.78861775 283.26071167 421.93870544 C284.36286011 422.01991638 285.46500854 422.10112732 286.60055542 422.18479919 C289.32321167 422.50120544 289.32321167 422.50120544 290.32321167 423.50120544 C290.51071167 426.93870544 290.51071167 426.93870544 290.32321167 430.50120544 C287.56097889 433.26343823 285.1161455 433.07976835 281.32321167 433.50120544 C281.65321167 435.15120544 281.98321167 436.80120544 282.32321167 438.50120544 C287.82891631 438.78598327 291.6765899 438.85109556 296.32321167 435.50120544 C298.59763662 431.686041 299.33604768 429.25853019 299.26071167 424.81370544 C298.23691848 421.19630285 297.2422569 419.80105926 294.32321167 417.50120544 C291.81824163 416.24872043 290.11467893 416.38746138 287.31539917 416.40354919 C285.98291138 416.40729553 285.98291138 416.40729553 284.62350464 416.41111755 C283.49315796 416.42022156 282.36281128 416.42932556 281.19821167 416.43870544 C277.60946167 416.45933044 274.02071167 416.47995544 270.32321167 416.50120544 Z M135.32321167 467.50120544 C132.6346673 472.1707825 132.70180799 477.27504114 133.32321167 482.50120544 C134.66598835 487.39639131 136.89345072 490.55894888 141.07321167 493.43870544 C145.77927134 496.00960841 150.02753418 497.19825041 155.42868042 496.05589294 C161.6535031 494.02377447 165.41103295 490.37518809 168.69821167 484.75120544 C171.14805647 479.46312581 170.48463888 474.9509208 168.66696167 469.55198669 C166.52563816 464.98184717 163.28831463 462.59674484 158.81930542 460.38792419 C149.34958634 457.02387689 141.8762233 460.41789229 135.32321167 467.50120544 Z " fill="#E9E9E8" transform="translate(35.676788330078125,-0.5012054443359375)"/>
<path d="M0 0 C0.0916026 34.09877077 0.1620626 68.19751087 0.20426132 102.29637741 C0.209264 106.32421275 0.21444131 110.35204784 0.21972656 114.37988281 C0.2207758 115.18173508 0.22182505 115.98358735 0.22290608 116.80973817 C0.24030013 129.78457211 0.2718323 142.75933498 0.30861118 155.73412679 C0.34604847 169.0524968 0.36824174 182.37082965 0.37635398 195.68925011 C0.38183598 203.90409062 0.3991356 212.11873026 0.43166587 220.33350892 C0.4528482 225.97058151 0.45919166 231.60755059 0.45400551 237.24466006 C0.45144945 240.49458303 0.45750551 243.74408287 0.4768219 246.99395943 C0.49677603 250.52464218 0.4919184 254.05447131 0.48101807 257.58517456 C0.49266943 258.60271124 0.5043208 259.62024791 0.51632524 260.66861904 C0.44128003 269.68573425 -1.98500784 277.81445006 -8.2265625 284.53125 C-14.72145561 289.91028042 -22.57085314 291.12659113 -30.75141907 291.12025452 C-31.75013048 291.12153615 -31.75013048 291.12153615 -32.76901788 291.12284368 C-34.99227982 291.12448625 -37.21546574 291.11899721 -39.4387207 291.11352539 C-41.03549701 291.11324323 -42.63227345 291.11340182 -44.22904968 291.1139679 C-48.55920539 291.11425474 -52.88933339 291.10837623 -57.21948266 291.10139394 C-61.74651464 291.09514162 -66.27354726 291.09455511 -70.80058289 291.09336853 C-79.37108658 291.09026076 -87.94157752 291.08205483 -96.5120756 291.07201904 C-106.27016618 291.06084071 -116.02825737 291.05534311 -125.78635275 291.05032361 C-145.85757562 291.03987176 -165.92878701 291.02228303 -186 291 C-185.70271385 287.65567888 -185.39699272 284.31217857 -185.08984375 280.96875 C-185.0064978 280.02999023 -184.92315186 279.09123047 -184.83728027 278.12402344 C-182.78654844 256.00507114 -182.78654844 256.00507114 -174.9375 249.4375 C-173.968125 248.633125 -172.99875 247.82875 -172 247 C-170.81964064 244.92711353 -170.81964064 244.92711353 -170 243 C-170.96486328 243.433125 -170.96486328 243.433125 -171.94921875 243.875 C-182.80690002 248.33578774 -192.19309998 248.33578774 -203.05078125 243.875 C-203.69402344 243.58625 -204.33726562 243.2975 -205 243 C-203.89381972 246.63518851 -203.89381972 246.63518851 -201.1875 249 C-200.465625 249.33 -199.74375 249.66 -199 250 C-193.01840739 254.37677508 -192.14697289 260.08760436 -191 267 C-190.42677786 271.14440257 -189.91793663 275.29588269 -189.4140625 279.44921875 C-189.27718018 280.56147827 -189.14029785 281.67373779 -188.99926758 282.81970215 C-188.66403486 285.54621282 -188.33100618 288.27297354 -188 291 C-209.06253914 291.09357689 -230.12504383 291.16404457 -251.18774891 291.20724869 C-260.96825435 291.22784523 -270.74863038 291.25591009 -280.52905273 291.30175781 C-289.05692103 291.34171476 -297.58469556 291.36745394 -306.11265486 291.37635398 C-310.62523268 291.38155376 -315.13754235 291.39371412 -319.65003395 291.42292023 C-323.90424846 291.45022956 -328.15808637 291.45841392 -332.41238022 291.45243073 C-333.96712356 291.45352407 -335.52188053 291.46138519 -337.07654762 291.4768219 C-347.65296165 291.57661704 -357.7229288 291.1711585 -365.9375 283.75 C-372.80518441 276.04238296 -374.12814648 268.1808135 -374.12025452 258.0080719 C-374.12110894 257.34055544 -374.12196337 256.67303899 -374.12284368 255.98529476 C-374.12447924 253.7682446 -374.11900891 251.5512716 -374.11352539 249.33422852 C-374.11324308 247.7371572 -374.11340212 246.14008576 -374.1139679 244.54301453 C-374.11425414 240.22124138 -374.10838526 235.89949614 -374.10139394 231.57772946 C-374.09513171 227.05604778 -374.09455433 222.53436541 -374.09336853 218.01268005 C-374.09026367 209.45640932 -374.08206168 200.90015141 -374.07201904 192.34388632 C-374.06083165 182.60025937 -374.05534084 172.85663181 -374.05032361 163.11300004 C-374.03987836 143.07532621 -374.02229529 123.03766391 -374 103 C-373.37959965 103.13803323 -372.7591993 103.27606646 -372.11999893 103.41828251 C-371.30746532 103.59897502 -370.49493172 103.77966753 -369.65777588 103.96583557 C-368.44873785 104.23476041 -368.44873785 104.23476041 -367.21527481 104.50911808 C-363.40058115 105.35441463 -359.57773615 106.15369548 -355.75 106.9375 C-355.01265625 107.09412109 -354.2753125 107.25074219 -353.515625 107.41210938 C-350.68441034 107.9889234 -347.84536925 108.49728753 -345 109 C-344.34205444 109.12459595 -343.68410889 109.24919189 -343.00622559 109.37756348 C-327.11029347 112.32788107 -311.26804462 112.46662744 -295.16357422 112.39111328 C-291.49869896 112.37408574 -287.83448058 112.384148 -284.16962814 112.40143585 C-266.58487174 112.47173465 -249.41824762 111.66928879 -232 109 C-230.93295837 108.84310699 -230.93295837 108.84310699 -229.84436035 108.68304443 C-225.9650436 108.11095728 -222.10635637 107.4596554 -218.25 106.75 C-217.10499023 106.54093018 -215.95998047 106.33186035 -214.78027344 106.11645508 C-193.68795325 102.15340361 -173.17458871 96.86835088 -152.9699707 89.62329102 C-151 89 -151 89 -149 89 C-149 88.34 -149 87.68 -149 87 C-148.08323486 86.70867187 -147.16646973 86.41734375 -146.22192383 86.1171875 C-137.16448628 83.19539929 -128.40998778 79.8242599 -119.6875 76 C-119.04925293 75.7213208 -118.41100586 75.4426416 -117.75341797 75.15551758 C-89.22421582 62.67443223 -61.01028781 48.35713185 -36.1875 29.375 C-33 27 -33 27 -31 27 C-31 26.34 -31 25.68 -31 25 C-29.33900296 23.68775323 -27.61893656 22.44982835 -25.875 21.25 C-22.46858195 18.8475327 -19.3179424 16.51692222 -16.4375 13.5 C-15.2309375 12.2625 -15.2309375 12.2625 -14 11 C-13.34 11 -12.68 11 -12 11 C-12 10.34 -12 9.68 -12 9 C-11.34 9 -10.68 9 -10 9 C-10 8.34 -10 7.68 -10 7 C-8.3203125 5.2734375 -8.3203125 5.2734375 -6.125 3.375 C-5.40570313 2.74335938 -4.68640625 2.11171875 -3.9453125 1.4609375 C-2 0 -2 0 0 0 Z M-145.9375 168.375 C-150.49052911 174.16976432 -152.48938584 178.53686594 -152 186 C-150.66589592 191.53600668 -148.59898232 195.47737525 -144 199 C-135.96013889 203.36326982 -127.87610373 204.366961 -119 202 C-119 200.02 -119 198.04 -119 196 C-119.639375 196.165 -120.27875 196.33 -120.9375 196.5 C-127.5837904 197.58510864 -133.19293828 197.87137448 -139 194 C-142.76958964 189.7637864 -143.16131776 185.53574631 -143 180 C-142.31805388 177.27221552 -141.42301792 175.47710527 -140 173 C-139.34 172.67 -138.68 172.34 -138 172 C-138 171.34 -138 170.68 -138 170 C-131.43507888 169.21558847 -125.53162622 168.89085592 -119 170 C-119.495 167.03 -119.495 167.03 -120 164 C-129.54021949 162.75887427 -138.10901612 162.0455875 -145.9375 168.375 Z M-335 164 C-334.67 176.54 -334.34 189.08 -334 202 C-331.36 202 -328.72 202 -326 202 C-326.33 189.46 -326.66 176.92 -327 164 C-329.64 164 -332.28 164 -335 164 Z M-317 164 C-317 176.54 -317 189.08 -317 202 C-314.69 202 -312.38 202 -310 202 C-309.80780285 192.30472178 -310.40418676 182.67132568 -311 173 C-307.19603473 176.47357392 -304.48611872 180.44632384 -301.625 184.6875 C-301.13459229 185.39777344 -300.64418457 186.10804688 -300.13891602 186.83984375 C-297.52799172 190.63944279 -295.18070794 194.46993874 -292.9375 198.5 C-291.4834375 200.2325 -291.4834375 200.2325 -290 202 C-286.7 202 -283.4 202 -280 202 C-280 189.46 -280 176.92 -280 164 C-282.31 164 -284.62 164 -287 164 C-287.33 173.24 -287.66 182.48 -288 192 C-290.02125 189.050625 -292.0425 186.10125 -294.125 183.0625 C-294.74906738 182.15250244 -295.37313477 181.24250488 -296.01611328 180.30493164 C-296.78544189 179.18139282 -296.78544189 179.18139282 -297.5703125 178.03515625 C-298.14942383 177.2064502 -298.72853516 176.37774414 -299.32519531 175.52392578 C-301 173 -301 173 -302.41699219 170.36279297 C-302.87493164 169.54053223 -303.33287109 168.71827148 -303.8046875 167.87109375 C-304.18351074 167.12657959 -304.56233398 166.38206543 -304.95263672 165.61499023 C-307.87394725 162.96779083 -307.87394725 162.96779083 -317 164 Z M-271 164 C-271 176.54 -271 189.08 -271 202 C-267.349375 202.061875 -263.69875 202.12375 -259.9375 202.1875 C-258.80046631 202.21481201 -257.66343262 202.24212402 -256.49194336 202.27026367 C-248.96542641 202.33179915 -244.03014562 201.6261262 -238.1875 196.5625 C-234.34763245 192.06436945 -233.70668419 189.07209846 -233.6875 183.125 C-233.67074219 181.93132812 -233.65398437 180.73765625 -233.63671875 179.5078125 C-234.10333987 175.00215913 -235.43187492 171.71922046 -238.5 168.35546875 C-243.10817057 164.76733593 -246.00251366 163.87310921 -251.76171875 163.90234375 C-252.76936279 163.90484131 -253.77700684 163.90733887 -254.81518555 163.90991211 C-256.09304932 163.91901611 -257.37091309 163.92812012 -258.6875 163.9375 C-262.750625 163.958125 -266.81375 163.97875 -271 164 Z M-227 164 C-226.67 176.54 -226.34 189.08 -226 202 C-223.36 202 -220.72 202 -218 202 C-218 189.46 -218 176.92 -218 164 C-220.97 164 -223.94 164 -227 164 Z M-196 164 C-196.71127639 165.52416368 -197.42254628 167.0483304 -198.13378906 168.57250977 C-198.75933346 169.91289157 -199.38498667 171.2532226 -200.01074219 172.59350586 C-201.64900325 176.1028378 -203.28556659 179.61293848 -204.91796875 183.125 C-205.37901001 184.11584595 -205.37901001 184.11584595 -205.84936523 185.12670898 C-206.70740271 186.97094295 -207.56465928 188.81554018 -208.421875 190.66015625 C-209.47769301 192.89462257 -210.57203552 195.11127083 -211.703125 197.30859375 C-213.14469693 199.80236199 -213.14469693 199.80236199 -213 202 C-210.36 202 -207.72 202 -205 202 C-204.37237545 200.77217138 -203.74803935 199.54266164 -203.125 198.3125 C-202.60292969 197.28576172 -202.60292969 197.28576172 -202.0703125 196.23828125 C-200.93967982 193.87385597 -199.97335801 191.43339502 -199 189 C-193.72 188.67 -188.44 188.34 -183 188 C-182.28385417 190.47395833 -181.56770833 192.94791667 -180.8515625 195.421875 C-180.0790066 197.76080572 -179.16374324 199.83442562 -178 202 C-175.36 202 -172.72 202 -170 202 C-173.21617525 193.33325406 -176.7052964 184.7865858 -180.25 176.25 C-180.92264893 174.62384766 -180.92264893 174.62384766 -181.60888672 172.96484375 C-182.03186035 171.95035156 -182.45483398 170.93585938 -182.890625 169.890625 C-183.46345215 168.51438965 -183.46345215 168.51438965 -184.04785156 167.11035156 C-184.82408524 165.05800244 -184.82408524 165.05800244 -186 164 C-187.68608966 163.92794489 -189.37500659 163.91613932 -191.0625 163.9375 C-191.98160156 163.94652344 -192.90070313 163.95554687 -193.84765625 163.96484375 C-194.55792969 163.97644531 -195.26820313 163.98804688 -196 164 Z M-112 164 C-112.08735463 168.54154478 -112.14051247 173.08287232 -112.1875 177.625 C-112.21263672 178.91019531 -112.23777344 180.19539063 -112.26367188 181.51953125 C-112.27333984 182.76347656 -112.28300781 184.00742187 -112.29296875 185.2890625 C-112.3086792 186.43068848 -112.32438965 187.57231445 -112.34057617 188.74853516 C-111.95094047 192.46836901 -110.93969455 194.81838787 -109 198 C-102.81437218 202.97539629 -96.71896485 203.72043672 -89 203 C-84.14033345 201.83641787 -79.98111116 200.17355562 -77 196 C-76.11007474 191.87101124 -75.88147684 187.94167874 -75.90234375 183.7265625 C-75.90556641 182.57285156 -75.90878906 181.41914063 -75.91210938 180.23046875 C-75.92048828 179.04066406 -75.92886719 177.85085938 -75.9375 176.625 C-75.94201172 175.41199219 -75.94652344 174.19898438 -75.95117188 172.94921875 C-75.96291646 169.96609493 -75.9793416 166.98307321 -76 164 C-78.64 164 -81.28 164 -84 164 C-84.0093457 164.82725586 -84.01869141 165.65451172 -84.02832031 166.50683594 C-84.08200319 170.25516415 -84.1656571 174.00224162 -84.25 177.75 C-84.27126953 179.70292969 -84.27126953 179.70292969 -84.29296875 181.6953125 C-84.32519531 182.94570313 -84.35742188 184.19609375 -84.390625 185.484375 C-84.4220459 187.21252441 -84.4220459 187.21252441 -84.45410156 188.97558594 C-85.11065177 192.61303852 -86.08285124 193.79218037 -89 196 C-92.64619779 196.92812307 -95.1515807 197.20739139 -98.8125 196.3125 C-101.4504272 194.72974368 -101.90502813 193.84656608 -103 191 C-103.31884766 188.06738281 -103.31884766 188.06738281 -103.4140625 184.703125 C-103.45273437 183.49785156 -103.49140625 182.29257812 -103.53125 181.05078125 C-103.5621875 179.79652344 -103.593125 178.54226563 -103.625 177.25 C-103.66367187 175.98027344 -103.70234375 174.71054687 -103.7421875 173.40234375 C-103.83644222 170.2683743 -103.92205166 167.13441051 -104 164 C-106.64 164 -109.28 164 -112 164 Z M-68 164 C-67.67 176.54 -67.34 189.08 -67 202 C-64.69 202 -62.38 202 -60 202 C-59.89388113 190.94005573 -59.99291931 180.0239368 -61 169 C-59.02043559 169.14033111 -57.04134859 169.2874123 -55.0625 169.4375 C-53.96035156 169.51871094 -52.85820312 169.59992188 -51.72265625 169.68359375 C-49 170 -49 170 -48 171 C-47.8125 174.4375 -47.8125 174.4375 -48 178 C-50.76223278 180.76223278 -53.20706617 180.57856291 -57 181 C-56.67 182.65 -56.34 184.3 -56 186 C-50.49429536 186.28477783 -46.64662177 186.34989011 -42 183 C-39.72557505 179.18483556 -38.98716399 176.75732474 -39.0625 172.3125 C-40.08629319 168.6950974 -41.08095477 167.29985382 -44 165 C-46.50497004 163.74751498 -48.20853274 163.88625594 -51.0078125 163.90234375 C-52.34030029 163.90609009 -52.34030029 163.90609009 -53.69970703 163.90991211 C-54.83005371 163.91901611 -55.96040039 163.92812012 -57.125 163.9375 C-60.71375 163.958125 -64.3025 163.97875 -68 164 Z M-203 215 C-205.68854437 219.66957706 -205.62140368 224.77383569 -205 230 C-203.65722332 234.89518587 -201.42976095 238.05774344 -197.25 240.9375 C-192.54394033 243.50840297 -188.29567749 244.69704496 -182.89453125 243.5546875 C-176.66970857 241.52256903 -172.91217872 237.87398265 -169.625 232.25 C-167.1751552 226.96192037 -167.83857279 222.44971536 -169.65625 217.05078125 C-171.79757351 212.48064172 -175.03489704 210.09553939 -179.50390625 207.88671875 C-188.97362533 204.52267144 -196.44698837 207.91668685 -203 215 Z " fill="#FEFEFE" transform="translate(374,252)"/>
<path d="M0 0 C26 0 26 0 31.5625 4.8125 C32.75696274 6.84722333 33.90413738 8.91052031 35 11 C36.35421476 12.74150965 37.7518074 14.4500253 39.1875 16.125 C39.93 17.0325 40.6725 17.94 41.4375 18.875 C46.33569825 24.85299275 51.25463674 30.81397568 56.16943359 36.77832031 C59.11367588 40.3516205 62.0567964 43.92584428 65 47.5 C66.16666096 48.91667137 67.33332763 50.33333803 68.5 51.75 C70.83333333 54.58333333 73.16666667 57.41666667 75.5 60.25 C76.0779834 60.95181396 76.6559668 61.65362793 77.25146484 62.37670898 C78.41334006 63.78760381 79.57512452 65.19857337 80.73681641 66.60961914 C83.72603701 70.24022598 86.71701928 73.86935939 89.7109375 77.49609375 C90.32453125 78.23988281 90.938125 78.98367187 91.5703125 79.75 C92.723358 81.14763091 93.87694956 82.54481161 95.03125 83.94140625 C99.41091019 89.2520087 103.69826791 94.62283489 108 100 C108.33 67 108.66 34 109 0 C119.89 0 130.78 0 142 0 C142 53.13 142 106.26 142 161 C116 161 116 161 109.0625 154.875 C107.47314453 152.80249023 107.47314453 152.80249023 106.4453125 150.99609375 C104.06377728 147.04059941 101.33741382 143.52257218 98.4375 139.9375 C97.52840686 138.77073034 96.6208457 137.60276536 95.71484375 136.43359375 C93.06217588 133.04731085 90.29814787 129.76640732 87.5 126.5 C83.23118745 121.51580328 79.15117385 116.41187999 75.125 111.23046875 C72.00852082 107.2374798 68.79466379 103.34689437 65.5 99.5 C61.23669222 94.5221037 57.16139953 89.42507639 53.14038086 84.25024414 C49.036458 78.99225378 44.74817279 73.90523165 40.41015625 68.83984375 C38.22589482 66.2661678 36.10873268 63.63591585 34 61 C33.67 94 33.34 127 33 161 C22.11 161 11.22 161 0 161 C0 107.87 0 54.74 0 0 Z " fill="#FFFFFF" transform="translate(509,111)"/>
<path d="M0 0 C94.93491124 0 94.93491124 0 119 21 C119.61488281 21.51949219 120.22976563 22.03898437 120.86328125 22.57421875 C135.5570512 35.984395 142.37821378 56.49984641 143.28515625 75.90234375 C143.83273051 96.14505345 140.05583867 115.95612403 127 132 C126.34386719 132.83015625 125.68773437 133.6603125 125.01171875 134.515625 C111.67821669 150.40857444 94.89363481 156.31914475 75 161 C50.25 161 25.5 161 0 161 C0 107.87 0 54.74 0 0 Z M33 30 C33 63.66 33 97.32 33 132 C67.21841288 133.29176451 67.21841288 133.29176451 94.8125 117.875 C105.59888096 106.56470911 108.86274975 93.2957776 109 78 C108.01607085 63.95948721 103.15377668 51.60800689 92.875 41.8125 C75.09207157 26.78847446 56.59320653 30 33 30 Z " fill="#FFFFFF" transform="translate(687,111)"/>
<path d="M0 0 C2.97 1.65 5.94 3.3 9 5 C9 5.66 9 6.32 9 7 C9.598125 7.28875 10.19625 7.5775 10.8125 7.875 C13 9 13 9 16 11 C16 11.66 16 12.32 16 13 C16.88788208 13.4172937 16.88788208 13.4172937 17.79370117 13.84301758 C19.85044583 14.92157384 21.49734657 16.05974451 23.30078125 17.51171875 C47.2799787 36.49550358 73.5856017 52.09761699 101.38476562 64.7980957 C103.26420702 65.6618457 105.13719577 66.53968769 107.00585938 67.42651367 C114.95135134 71.17339857 122.99866185 74.42744137 131.25 77.4375 C131.89585052 77.67333801 132.54170105 77.90917603 133.2071228 78.15216064 C162.79262438 88.90912585 192.68369116 95.05089762 224 98 C221.05408716 100.43667911 218.4442929 101.70491568 214.80078125 102.83203125 C213.2549939 103.312771 213.2549939 103.312771 211.67797852 103.80322266 C210.56737061 104.13628418 209.4567627 104.4693457 208.3125 104.8125 C206.56634399 105.3391626 206.56634399 105.3391626 204.78491211 105.87646484 C187.07367319 111.13514339 169.25568608 115.10391067 151.0625 118.25 C149.98501999 118.43758881 149.98501999 118.43758881 148.88577271 118.62896729 C143.9328541 119.48391975 138.97165029 120.26241245 134 121 C132.70803711 121.19867676 131.41607422 121.39735352 130.08496094 121.60205078 C115.99525084 123.5721863 101.75142478 123.37461977 87.5546875 123.37060547 C84.61921296 123.37044385 81.68436878 123.3842102 78.74902344 123.41162109 C51.53666548 123.6615836 25.02933533 121.67644511 -1 113 C-0.67 75.71 -0.34 38.42 0 0 Z " fill="#C4C3C3" transform="translate(1,242)"/>
<path d="M0 0 C11.55 0 23.1 0 35 0 C40.62431576 12.37349467 40.62431576 12.37349467 42.36499023 16.83398438 C42.95818054 18.34715744 42.95818054 18.34715744 43.56335449 19.89089966 C43.97428345 20.94784027 44.3852124 22.00478088 44.80859375 23.09375 C45.47296448 24.79118851 45.47296448 24.79118851 46.15075684 26.5229187 C47.33671041 29.55374936 48.52019479 32.58553024 49.70280075 35.61766815 C51.6942968 40.71996879 53.69395234 45.81908328 55.6923542 50.9186821 C56.18915419 52.18652788 56.68585192 53.45441374 57.18244743 54.72233963 C61.06022992 64.62307153 64.97345395 74.50853077 68.9375 84.375 C74.63659544 98.57686359 80.31287872 112.78778948 85.96664333 127.00775909 C87.300245 130.36183312 88.63503564 133.71542175 89.97286987 137.06781006 C91.47269165 140.8262549 92.96704761 144.58684966 94.4609375 148.34765625 C94.91955673 149.49481613 95.37817596 150.64197601 95.85069275 151.82389832 C96.26654129 152.8733815 96.68238983 153.92286469 97.11083984 155.00415039 C97.47720551 155.92450577 97.84357117 156.84486115 98.22103882 157.79310608 C99 160 99 160 99 162 C87.12 162 75.24 162 63 162 C57.555 147.15 57.555 147.15 52 132 C17.845 131.505 17.845 131.505 -17 131 C-17.33 132.65 -17.66 134.3 -18 136 C-18.64417014 137.98494286 -19.32419373 139.9584533 -20.03125 141.921875 C-20.42957031 143.02917969 -20.82789063 144.13648438 -21.23828125 145.27734375 C-21.65464844 146.42332031 -22.07101562 147.56929687 -22.5 148.75 C-22.91636719 149.91144531 -23.33273437 151.07289063 -23.76171875 152.26953125 C-26.86993475 160.86993475 -26.86993475 160.86993475 -28 162 C-30.59359322 162.08851529 -33.16039691 162.11525945 -35.75390625 162.09765625 C-36.52935287 162.0962413 -37.3047995 162.09482635 -38.10374451 162.09336853 C-40.59003494 162.08775345 -43.0762366 162.07519846 -45.5625 162.0625 C-47.24413933 162.05748694 -48.92578006 162.0529237 -50.60742188 162.04882812 C-54.73831566 162.03777913 -58.86914276 162.02050445 -63 162 C-62.38421439 155.84737348 -59.97077284 150.44635237 -57.6796875 144.765625 C-57.0099012 143.08395737 -57.0099012 143.08395737 -56.32658386 141.36831665 C-55.35703122 138.93630549 -54.38537693 136.50526777 -53.40994263 134.07562256 C-51.85401531 130.20001531 -50.30612547 126.3212301 -48.75952148 122.44189453 C-47.14399332 118.39084779 -45.52782696 114.34006058 -43.90873718 110.29043579 C-40.22946376 101.08782671 -36.56648382 91.87890821 -32.91796875 82.6640625 C-32.6730047 82.04543209 -32.42804066 81.42680168 -32.17565346 80.7894249 C-30.95332775 77.70246954 -29.73119089 74.61543947 -28.50912476 71.52838135 C-19.05961988 47.66411059 -9.55400368 23.82261003 0 0 Z M17 39 C14.36672979 46.06153636 11.73415686 53.12333238 9.10205078 60.18530273 C8.2080027 62.583799 7.31379957 64.98223748 6.41943359 67.38061523 C5.12816485 70.84343237 3.83746824 74.30646231 2.546875 77.76953125 C2.15191833 78.82831985 1.75696167 79.88710846 1.35003662 80.97798157 C0.23008232 83.98411612 -0.88529828 86.99191447 -2 90 C-2.3868396 91.03506683 -2.7736792 92.07013367 -3.17224121 93.13656616 C-3.53918091 94.12750275 -3.90612061 95.11843933 -4.28417969 96.1394043 C-4.61440125 97.0267778 -4.9446228 97.91415131 -5.28485107 98.82841492 C-6.10426531 100.93555489 -6.10426531 100.93555489 -6 103 C9.51 103 25.02 103 41 103 C40.26302491 98.57814947 39.52093296 95.3022984 37.99047852 91.20996094 C37.57657364 90.0957074 37.16266876 88.98145386 36.73622131 87.83343506 C36.28830734 86.64574524 35.84039337 85.45805542 35.37890625 84.234375 C34.9189476 83.00462952 34.45898895 81.77488403 33.98509216 80.50787354 C33.0143686 77.91437995 32.03972399 75.32240415 31.06225586 72.73144531 C29.80946598 69.40972511 28.56660816 66.08439056 27.32663059 62.75786972 C26.14103961 59.58136866 24.94711941 56.40802088 23.75390625 53.234375 C23.30801651 52.03858826 22.86212677 50.84280151 22.40272522 49.61077881 C21.98566818 48.50913391 21.56861115 47.40748901 21.13891602 46.27246094 C20.7733107 45.30016541 20.40770538 44.32786987 20.03102112 43.32611084 C19.10883506 40.86888874 19.10883506 40.86888874 17 39 Z " fill="#FFFFFF" transform="translate(969,111)"/>
<path d="M0 0 C10.89 0 21.78 0 33 0 C33.0093457 2.99151123 33.01869141 5.98302246 33.02832031 9.06518555 C33.06220138 18.98782586 33.11781199 28.91026063 33.18390274 38.83273602 C33.22328521 44.84431176 33.25551896 50.85574305 33.27099609 56.86743164 C33.28622343 62.67721718 33.32077669 68.4866053 33.36830902 74.29621315 C33.38306028 76.50434716 33.39103739 78.71253793 33.39188385 80.92072105 C33.4083758 103.50196081 33.4083758 103.50196081 44 123 C51.15484375 130.01606445 59.1604302 132.11887237 69 132.375 C78.80719438 132.11971511 86.88783172 130.03569335 94 123 C102.11940127 113.05787599 104.12631331 102.67939506 104.20532227 90.13916016 C104.21522186 89.16292694 104.22512146 88.18669373 104.23532104 87.18087769 C104.26680742 83.96696362 104.29164249 80.7530348 104.31640625 77.5390625 C104.33698689 75.30560938 104.35798365 73.07216006 104.37937927 70.8387146 C104.4344853 64.96977826 104.48394506 59.10080744 104.53222656 53.23181152 C104.58252545 47.23914534 104.63816769 41.24652902 104.69335938 35.25390625 C104.80080064 23.50264525 104.90178266 11.75134172 105 0 C115.89 0 126.78 0 138 0 C138.09075994 13.52707112 138.16397959 27.05393642 138.20724869 40.58124447 C138.22802699 46.86409352 138.25616462 53.14672149 138.30175781 59.42944336 C138.34556565 65.50491539 138.36921026 71.58017622 138.37950897 77.65579414 C138.38683809 79.96117026 138.40114798 82.26653625 138.42292023 84.57182121 C138.62912744 107.33311811 136.04864699 127.57971388 120.5078125 145.46484375 C112.81808457 153.23841607 104.3649848 158.58076181 94 162 C93.07574219 162.31839844 92.15148438 162.63679687 91.19921875 162.96484375 C72.74812642 168.26800539 51.21029615 166.3452263 34.125 157.8125 C17.62047626 148.22396334 6.46406948 133.06404094 1.421875 114.77978516 C-0.97161782 104.12218397 -0.36845617 93.18643597 -0.29296875 82.32421875 C-0.28736447 79.94383513 -0.28309831 77.56344803 -0.28010559 75.18305969 C-0.26872238 68.95734892 -0.23931199 62.73185245 -0.20599365 56.50622559 C-0.17515134 50.13764341 -0.16157014 43.76902617 -0.14648438 37.40039062 C-0.11443548 24.93348507 -0.0617215 12.46679399 0 0 Z " fill="#FFFFFF" transform="translate(1278,111)"/>
<path d="M0 0 C96.18238994 0 96.18238994 0 113 14 C113.70769531 14.58394531 114.41539063 15.16789062 115.14453125 15.76953125 C123.53591543 23.39076927 129.2626348 34.2394386 130.21728516 45.58154297 C130.99289494 63.71421452 129.19440155 79.15573334 116.5 93.125 C99.33343386 109.18614332 78.68787364 109.58492248 56.5 109.25 C44.8675 109.12625 44.8675 109.12625 33 109 C33 126.49 33 143.98 33 162 C22.11 162 11.22 162 0 162 C0 108.54 0 55.08 0 0 Z M33 30 C33 46.5 33 63 33 80 C39.88875 80.0825 46.7775 80.165 53.875 80.25 C56.0288623 80.28641602 58.18272461 80.32283203 60.40185547 80.36035156 C62.14028939 80.3720518 63.87873442 80.38224045 65.6171875 80.390625 C66.9331189 80.4213208 66.9331189 80.4213208 68.27563477 80.45263672 C76.08106374 80.45696465 82.92021537 78.6210933 88.9375 73.5 C89.618125 72.675 90.29875 71.85 91 71 C91.556875 70.360625 92.11375 69.72125 92.6875 69.0625 C96.63939183 62.85238427 96.71848456 56.14800023 96 49 C94.47543353 42.74734765 91.23939736 38.71972271 86.48828125 34.5078125 C79.65227124 30.36542653 72.78434026 29.56705585 64.93359375 29.70703125 C64.11701294 29.71005249 63.30043213 29.71307373 62.45910645 29.71618652 C59.45177298 29.7317077 56.44462179 29.77358957 53.4375 29.8125 C43.3209375 29.9053125 43.3209375 29.9053125 33 30 Z " fill="#FFFFFF" transform="translate(1450,111)"/>
<path d="M0 0 C1.09795898 0.00491455 2.19591797 0.0098291 3.32714844 0.01489258 C20.83717434 0.26736633 39.48976985 4.98247252 52.875 16.9375 C54.6875 19.3125 54.6875 19.3125 54.58984375 21.07421875 C53.29248623 24.29233935 51.21094761 26.81542241 49.0625 29.5 C48.61535645 30.06936279 48.16821289 30.63872559 47.70751953 31.2253418 C46.80241535 32.37721892 45.89471938 33.52706447 44.984375 34.67480469 C43.16015379 36.97843342 41.36192152 39.30197632 39.5625 41.625 C38.60453899 42.85445687 37.64636875 44.08375097 36.6875 45.3125 C34.13554729 44.04967804 31.60422471 42.75096843 29.078125 41.4375 C27.69803016 40.72894556 26.31781844 40.02061875 24.9375 39.3125 C24.25945312 38.95671875 23.58140625 38.6009375 22.8828125 38.234375 C15.45830472 34.45154594 8.62936699 32.93342702 0.3125 33 C-0.80330444 33.00845947 -0.80330444 33.00845947 -1.94165039 33.01708984 C-12.28833007 33.2446875 -19.76201203 36.59685123 -28.3125 42.3125 C-29.199375 42.89 -30.08625 43.4675 -31 44.0625 C-40.5745573 53.37828548 -46.10190195 65.88249752 -46.61328125 79.1796875 C-46.63269777 80.84884998 -46.63626993 82.51826264 -46.625 84.1875 C-46.61936035 85.06664062 -46.6137207 85.94578125 -46.60791016 86.8515625 C-46.36642728 99.7816554 -42.13355166 113.06463877 -33.13671875 122.72265625 C-27.00003417 128.0709017 -20.04257942 131.87142229 -12.3125 134.3125 C-11.74273438 134.49425781 -11.17296875 134.67601562 -10.5859375 134.86328125 C3.13269957 137.57400851 16.96249191 134.60254599 28.8828125 127.55078125 C31.08576311 126.03923289 32.87601206 124.26890698 34.6875 122.3125 C35.3475 122.3125 36.0075 122.3125 36.6875 122.3125 C38.13623047 123.97729492 38.13623047 123.97729492 39.8046875 126.29296875 C40.41183594 127.12763672 41.01898437 127.96230469 41.64453125 128.82226562 C42.27746094 129.70591797 42.91039062 130.58957031 43.5625 131.5 C44.80902396 133.22328725 46.05639674 134.94596088 47.3046875 136.66796875 C47.88831055 137.48185059 48.47193359 138.29573242 49.07324219 139.13427734 C50.76749385 141.48225315 50.76749385 141.48225315 53.1953125 144.17578125 C54.6875 146.3125 54.6875 146.3125 54.76953125 148.34765625 C50.26729912 156.52318968 38.06364602 161.60022415 29.6875 164.3125 C28.4809375 164.704375 27.274375 165.09625 26.03125 165.5 C3.93732623 171.95944398 -21.00048415 169.78110517 -41.45068359 159.34228516 C-46.49450685 156.55250723 -50.94241498 153.06015912 -55.3125 149.3125 C-56.40111328 148.39210938 -56.40111328 148.39210938 -57.51171875 147.453125 C-72.26392526 133.88921017 -80.90895626 112.54351042 -82.21875 92.765625 C-82.26515625 91.55132812 -82.26515625 91.55132812 -82.3125 90.3125 C-82.3640625 89.37921875 -82.415625 88.4459375 -82.46875 87.484375 C-82.90512243 73.01135593 -80.48984643 58.44156107 -74.3125 45.3125 C-73.64927734 43.90097656 -73.64927734 43.90097656 -72.97265625 42.4609375 C-63.79894499 24.4184583 -48.19886396 10.64180238 -29.125 3.9375 C-19.56241521 0.86944431 -9.99571976 -0.05316872 0 0 Z " fill="#FFFFFF" transform="translate(1203.3125,107.6875)"/>
<path d="M0 0 C14 0 14 0 18.04296875 3.2265625 C19.13582163 4.65971684 20.18310251 6.12852264 21.1875 7.625 C21.76298584 8.39900146 22.33847168 9.17300293 22.93139648 9.97045898 C24.10116642 11.54693648 25.25359712 13.13643864 26.38769531 14.73876953 C28.66834609 17.93734426 31.11275988 20.99304329 33.5625 24.0625 C34.45009726 25.1985329 35.33680807 26.33525893 36.22265625 27.47265625 C39.26483885 31.35617707 42.38052945 35.17847717 45.5 39 C50.00767214 44.52333657 54.44842767 50.09184597 58.8359375 55.7109375 C62.33776455 60.18436975 65.90822679 64.59857554 69.5 69 C75.42550628 76.26436736 81.22581399 83.61441325 87 91 C90.63 95.62 94.26 100.24 98 105 C98.33 70.35 98.66 35.7 99 0 C104.94 0 110.88 0 117 0 C117 45.87 117 91.74 117 139 C104 139 104 139 100.0546875 135.7734375 C98.95348222 134.3380596 97.89459076 132.86945557 96.875 131.375 C96.29500244 130.60099854 95.71500488 129.82699707 95.11743164 129.02954102 C93.937994 127.45225983 92.77470681 125.86276441 91.62841797 124.26123047 C89.3315503 121.07178694 86.88617078 118.01067604 84.4375 114.9375 C83.55000431 113.80138775 82.66329274 112.66466255 81.77734375 111.52734375 C78.73516115 107.64382293 75.61947055 103.82152283 72.5 100 C67.99232786 94.47666343 63.55157233 88.90815403 59.1640625 83.2890625 C55.66223753 78.81563292 52.09188836 74.40132798 48.5 70 C44.4500162 65.0373438 40.44532923 60.04635134 36.5 55 C30.42126522 47.26342847 24.20438913 39.63617123 18 32 C17.67 67.31 17.34 102.62 17 139 C11.39 139 5.78 139 0 139 C0 93.13 0 47.26 0 0 Z " fill="#FFFFFF" transform="translate(440,302)"/>
<path d="M0 0 C82.71201413 0 82.71201413 0 96.875 13.25 C106.9316462 23.97229183 108.66212689 36.35349421 108.3125 50.48046875 C107.71317381 62.35461886 102.94471209 72.52671608 94.375 80.6875 C89.46868525 84.77291383 83.77876084 87.37066382 78 90 C85.33446446 99.62496167 92.70117393 109.22268056 100.15283203 118.75732422 C101.23995039 120.15028478 102.32309646 121.54635644 103.40185547 122.94580078 C104.49753005 124.35414266 105.61227068 125.74779711 106.74267578 127.12841797 C107.29294434 127.81693848 107.84321289 128.50545898 108.41015625 129.21484375 C108.90781494 129.82320068 109.40547363 130.43155762 109.91821289 131.05834961 C111.27663083 133.49651206 111.19649568 135.25232056 111 138 C95.39365596 139.350549 95.39365596 139.350549 90.4453125 136.55859375 C88.33601273 134.17318392 86.70049486 131.69419968 85 129 C83.6211118 127.11569422 82.20762354 125.26033789 80.79223633 123.40332031 C79.23614312 121.35677569 77.70501095 119.29323274 76.17578125 117.2265625 C72.0878223 111.74293195 67.79437238 106.42845798 63.49609375 101.109375 C61 98 61 98 59.92285156 95.84375 C56.73395244 92.78603464 52.99036604 93.39613824 48.73828125 93.390625 C47.53383362 93.36718018 47.53383362 93.36718018 46.30505371 93.34326172 C43.30783561 93.29069134 40.31009541 93.27239997 37.3125 93.25 C27.2578125 93.12625 27.2578125 93.12625 17 93 C17 107.85 17 122.7 17 138 C11.39 138 5.78 138 0 138 C0 92.46 0 46.92 0 0 Z M17 15 C17 35.46 17 55.92 17 77 C24.1775 77.061875 31.355 77.12375 38.75 77.1875 C40.99006836 77.21481201 43.23013672 77.24212402 45.53808594 77.27026367 C65.71894706 77.52096448 65.71894706 77.52096448 83 68 C90.6044193 58.75918668 90.94084837 49.57520218 90 38 C88.64836033 30.84909552 85.15641395 26.23706952 79.5546875 21.69140625 C69.56201289 15.07546113 58.10300931 14.82724064 46.4921875 14.90234375 C45.73558838 14.90335083 44.97898926 14.90435791 44.19946289 14.90539551 C41.42462608 14.91055216 38.6498112 14.92451211 35.875 14.9375 C29.64625 14.958125 23.4175 14.97875 17 15 Z " fill="#FFFFFF" transform="translate(919,302)"/>
<path d="M0 0 C3.08278182 2.23997451 6.07453122 4.55849766 9 7 C7.65070536 10.83663072 5.92248975 13.65172569 3.375 16.8125 C2.42753906 17.99779297 2.42753906 17.99779297 1.4609375 19.20703125 C0.97882813 19.79871094 0.49671875 20.39039063 0 21 C-2.9593064 19.58409603 -5.67502996 17.95305842 -8.4375 16.1875 C-22.40231812 7.7340196 -37.69318834 4.75890527 -53.75390625 7.68359375 C-63.00162708 10.3148815 -70.60929938 14.76841772 -77 22 C-77.55429687 22.62390625 -78.10859375 23.2478125 -78.6796875 23.890625 C-87.98289443 34.99058863 -91.40381931 48.07842878 -91.3125 62.3125 C-91.30686035 63.23603271 -91.3012207 64.15956543 -91.29541016 65.11108398 C-91.0231963 80.45343399 -86.0819423 93.64478001 -75.34375 104.8125 C-65.50026218 113.9997553 -53.42332905 118.10286076 -40 118 C-28.19927483 117.44432769 -16.68280505 113.42876325 -8.4375 104.6875 C-1.41904977 95.86559361 1.91658304 86.29533219 2.75390625 75.13671875 C3 73 3 73 4 71 C-12.17 71 -28.34 71 -45 71 C-45 65.72 -45 60.44 -45 55 C-23.22 55 -1.44 55 21 55 C21 79.76101884 19.10940594 100.86567574 1.48046875 119.67578125 C-11.06660894 131.43249184 -27.6659309 135.57279354 -44.51171875 135.25 C-62.77478309 133.94111297 -79.18496391 127.88753799 -91.9921875 114.40625 C-106.41585842 97.12029419 -111.56247899 76.31540513 -110 54 C-107.81225071 33.23557252 -99.09839077 15.3879728 -83 2 C-60.05126449 -14.50646435 -23.66533897 -15.8141023 0 0 Z " fill="#FFFFFF" transform="translate(748,309)"/>
<path d="M0 0 C32.34 0 64.68 0 98 0 C98 4.95 98 9.9 98 15 C71.27 15 44.54 15 17 15 C17 29.85 17 44.7 17 60 C39.77 60 62.54 60 86 60 C86 65.28 86 70.56 86 76 C63.23 76 40.46 76 17 76 C17 91.51 17 107.02 17 123 C43.73 123 70.46 123 98 123 C98 127.95 98 132.9 98 138 C65.31552818 139.37826086 32.7516531 139 0 139 C0 93.13 0 47.26 0 0 Z " fill="#FFFFFF" transform="translate(794,302)"/>
<path d="M0 0 C5.61 0 11.22 0 17 0 C17.57105469 1.34255859 18.14210938 2.68511719 18.73046875 4.06835938 C27.96145637 25.76779079 37.19292132 47.46700171 46.484375 69.140625 C46.74848679 69.75671631 47.01259857 70.37280762 47.28471375 71.00756836 C50.07598663 77.51820689 52.86923225 84.0279971 55.6640625 90.53710938 C57.97331557 95.91657657 60.27871568 101.29767672 62.58032227 106.68041992 C63.57148125 108.99801042 64.56358084 111.31519878 65.55639648 113.63208008 C67.10983101 117.25800234 68.65671828 120.88669965 70.203125 124.515625 C70.68440857 125.63773376 71.16569214 126.75984253 71.66156006 127.91595459 C72.09970032 128.94690247 72.53784058 129.97785034 72.98925781 131.04003906 C73.37849426 131.95174866 73.76773071 132.86345825 74.16876221 133.80279541 C75 136 75 136 75 138 C69.06 138 63.12 138 57 138 C55.28765195 134.05038769 53.57753748 130.0999608 51.87304688 126.14697266 C51.29231849 124.80200831 50.71029255 123.45760347 50.12695312 122.11376953 C49.28956255 120.18406846 48.45683167 118.25241516 47.625 116.3203125 C46.87089844 114.57645264 46.87089844 114.57645264 46.1015625 112.79736328 C45 110 45 110 45 108 C20.91 108.33 -3.18 108.66 -28 109 C-33.94 123.355 -33.94 123.355 -40 138 C-45.94 138 -51.88 138 -58 138 C-57.24816718 134.24083591 -56.54042216 131.60006547 -55.06420898 128.18041992 C-54.45843521 126.76724991 -54.45843521 126.76724991 -53.84042358 125.32553101 C-53.39679474 124.30416046 -52.95316589 123.28278992 -52.49609375 122.23046875 C-52.02974518 121.14609528 -51.56339661 120.0617218 -51.08291626 118.94448853 C-49.80552836 115.97646562 -48.52392815 113.01030464 -47.24055862 110.04486465 C-45.89105079 106.92363778 -44.54713203 103.80000721 -43.20288086 100.67651367 C-41.23632176 96.10812167 -39.26824061 91.54039147 -37.29826069 86.97347355 C-33.64808474 78.51075328 -30.01172953 70.04216862 -26.3828125 61.5703125 C-26.11536539 60.94595873 -25.84791828 60.32160496 -25.57236671 59.67833138 C-24.24809376 56.58663193 -22.92405818 53.49483095 -21.60012817 50.40298462 C-19.16302123 44.71214521 -16.72403626 39.02211096 -14.28515625 33.33203125 C-13.39208012 31.2482138 -12.49901351 29.16439227 -11.60595703 27.08056641 C-7.73730469 18.05371094 -3.86865234 9.02685547 0 0 Z M8 22 C7.68998047 22.74531982 7.37996094 23.49063965 7.06054688 24.25854492 C5.54294569 27.90261021 4.02230355 31.54539731 2.5 35.1875 C2.07698105 36.20002335 2.07698105 36.20002335 1.64541626 37.23300171 C-1.98841575 45.92233421 -5.67237132 54.58816314 -9.42578125 63.2265625 C-9.79190521 64.06961441 -10.15802917 64.91266632 -10.5352478 65.78126526 C-12.34078465 69.93568083 -14.1516871 74.08767387 -15.96875 78.23706055 C-16.63159223 79.75826513 -17.29435659 81.27950366 -17.95703125 82.80078125 C-18.2657869 83.50147736 -18.57454254 84.20217346 -18.89265442 84.92410278 C-20.46963738 88.3353264 -20.46963738 88.3353264 -21 92 C-1.53 92 17.94 92 38 92 C35.10099246 84.46258039 32.22164522 76.98763565 29.0390625 69.578125 C28.68540619 68.74899597 28.33174988 67.91986694 27.96737671 67.06561279 C26.85541823 64.45947638 25.74044288 61.85464672 24.625 59.25 C23.15742 55.81831955 21.6913151 52.38601321 20.2265625 48.953125 C19.87217102 48.12276733 19.51777954 47.29240967 19.15264893 46.43688965 C15.69651052 38.32071568 12.3352791 30.16646071 9 22 C8.67 22 8.34 22 8 22 Z " fill="#FFFFFF" transform="translate(1153,302)"/>
<path d="M0 0 C0 0.66 0 1.32 0 2 C0.61875 2.268125 1.2375 2.53625 1.875 2.8125 C4 4 4 4 6 7 C5.84253413 9.46696532 5.5172175 11.59621049 5 14 C4.80148437 14.92683594 4.60296875 15.85367188 4.3984375 16.80859375 C3.09407781 22.43454075 1.49661159 27.59442457 -0.97265625 32.8125 C-2.02639453 35.05620129 -2.96164433 37.32076662 -3.875 39.625 C-4.21015625 40.46417969 -4.5453125 41.30335937 -4.890625 42.16796875 C-5.6888433 44.20567392 -6.4678136 46.25095725 -7.234375 48.30078125 C-12.85950817 63.01145255 -20.19818696 76.93848599 -29 90 C-29.39960938 90.62261719 -29.79921875 91.24523437 -30.2109375 91.88671875 C-31.90983297 94.52447751 -33.55733441 97.00145543 -36 99 C-36.66 99 -37.32 99 -38 99 C-38.268125 99.639375 -38.53625 100.27875 -38.8125 100.9375 C-40 103 -40 103 -43 104 C-43 104.66 -43 105.32 -43 106 C-43.66 106 -44.32 106 -45 106 C-45 106.66 -45 107.32 -45 108 C-45.66 108 -46.32 108 -47 108 C-47 108.66 -47 109.32 -47 110 C-51.47058824 114 -51.47058824 114 -54 114 C-54 114.66 -54 115.32 -54 116 C-56.475 116.99 -56.475 116.99 -59 118 C-64 112.25 -64 112.25 -64 110 C-67.14882091 110.65789628 -67.14882091 110.65789628 -68.09765625 113.1796875 C-68.41605469 114.06914062 -68.73445313 114.95859375 -69.0625 115.875 C-70.18204353 118.95936491 -71.16262419 121.24393629 -73 124 C-73.66 124 -74.32 124 -75 124 C-75 124.66 -75 125.32 -75 126 C-76.55780332 126.67756882 -78.12150096 127.34159457 -79.6875 128 C-80.55761719 128.37125 -81.42773438 128.7425 -82.32421875 129.125 C-85.0572002 130.01870488 -87.14700934 130.16449676 -90 130 C-90 129.34 -90 128.68 -90 128 C-86.7 127.01 -83.4 126.02 -80 125 C-80 124.34 -80 123.68 -80 123 C-79.34 123 -78.68 123 -78 123 C-73.49017249 114.35128318 -71.05637997 105.74630134 -73.33203125 96.11328125 C-74.47810155 92.48740971 -75.65379626 90.3284497 -78.4375 87.6875 C-80.86284305 85.14384753 -81.88239826 83.19452611 -83.125 79.9609375 C-85.38805334 74.88927332 -88.90025956 70.36020529 -92.375 66.0625 C-94 64 -94 64 -94 62 C-93.34 62 -92.68 62 -92 62 C-92 61.34 -92 60.68 -92 60 C-89.70041728 58.26613909 -87.3965254 56.6530265 -85 55.0625 C-83.51816364 54.0612949 -82.03639459 53.05999016 -80.5546875 52.05859375 C-79.79381836 51.54796387 -79.03294922 51.03733398 -78.24902344 50.51123047 C-74.86127447 48.2348338 -71.49074898 45.9337649 -68.125 43.625 C-67.14901855 42.95645996 -67.14901855 42.95645996 -66.15332031 42.27441406 C-60.17259373 38.15811272 -54.30173613 33.89537694 -48.43017578 29.62548828 C-43.43659063 26.00527401 -38.36299262 22.54782617 -33.203125 19.16796875 C-28.20987734 15.78839259 -23.35146946 12.22309479 -18.4921875 8.65429688 C-16.34128185 7.08321721 -14.17763695 5.53379223 -12 4 C-11.27876953 3.49130371 -10.55753906 2.98260742 -9.81445312 2.45849609 C-9.11771484 1.99137207 -8.42097656 1.52424805 -7.703125 1.04296875 C-7.08598633 0.62426514 -6.46884766 0.20556152 -5.83300781 -0.22583008 C-3.51049995 -1.2067401 -2.33144376 -0.82746299 0 0 Z " fill="#E8E8E7" transform="translate(253,55)"/>
<path d="M0 0 C10.89 0 21.78 0 33 0 C33 53.46 33 106.92 33 162 C2 162 2 162 0 161 C0 107.87 0 54.74 0 0 Z " fill="#FFFFFF" transform="translate(856,111)"/>
<path d="M0 0 C10.89 0 21.78 0 33 0 C33 53.13 33 106.26 33 161 C22.11 161 11.22 161 0 161 C0 107.87 0 54.74 0 0 Z " fill="#FFFFFF" transform="translate(440,111)"/>
<path d="M0 0 C5.61 0 11.22 0 17 0 C17 45.87 17 91.74 17 139 C11.39 139 5.78 139 0 139 C0 93.13 0 47.26 0 0 Z " fill="#FFFFFF" transform="translate(593,302)"/>
<path d="M0 0 C5.61 0 11.22 0 17 0 C17 45.54 17 91.08 17 138 C11.39 138 5.78 138 0 138 C0 92.46 0 46.92 0 0 Z " fill="#FFFFFF" transform="translate(1057,302)"/>
<path d="M0 0 C3.36448872 0.28838475 4.93789234 0.95120113 7.625 3.0625 C20.05930453 18.44177139 19.2800269 49.49544884 17.72265625 68.359375 C16.77654451 75.17137953 16.77654451 75.17137953 14.01953125 78.11328125 C9.30161153 81.06121815 4.13103791 82.17564503 -1.2265625 83.53515625 C-6.40436268 84.95123423 -6.40436268 84.95123423 -9.9609375 88.8203125 C-10.63879768 90.89466659 -11.289918 92.97800664 -11.91015625 95.0703125 C-13.19852497 98.53366928 -14.83465999 100.26799545 -17.4375 102.875 C-21.59293612 107.27522475 -25.07772115 111.78337434 -28.4375 116.8125 C-33.59381179 124.51988718 -39.15324854 131.80539929 -45 139 C-45.44891602 139.57073242 -45.89783203 140.14146484 -46.36035156 140.72949219 C-47.52865306 142.19008272 -48.75974962 143.59998855 -50 145 C-50.66 145 -51.32 145 -52 145 C-52 145.66 -52 146.32 -52 147 C-53.8125 148.6875 -53.8125 148.6875 -56 150 C-56.99 149.67 -57.98 149.34 -59 149 C-58.51821289 148.48518066 -58.03642578 147.97036133 -57.54003906 147.43994141 C-52.04738178 141.43458312 -47.34467446 135.08357412 -42.75 128.375 C-42.05648437 127.37726563 -41.36296875 126.37953125 -40.6484375 125.3515625 C-37.19215876 120.34591742 -33.90492569 115.34566223 -31 110 C-30.34 110 -29.68 110 -29 110 C-29 109.01 -29 108.02 -29 107 C-28.34 107 -27.68 107 -27 107 C-26.74089844 106.42507812 -26.48179687 105.85015625 -26.21484375 105.2578125 C-24.90467148 102.82282995 -23.36100211 100.97131858 -21.5625 98.875 C-18.40666544 94.91064584 -16.88688889 91.47948091 -15.80078125 86.5546875 C-14.91625588 83.73283584 -13.50902251 81.4479668 -12.00952148 78.91455078 C-10.2628142 75.60193203 -9.33936643 72.10368509 -8.375 68.5 C-8.17132813 67.79875 -7.96765625 67.0975 -7.7578125 66.375 C-4.08525522 53.00312478 -3.64932818 39.3289167 -3.375 25.5625 C-3.33668448 23.9446436 -3.29762573 22.32680462 -3.2578125 20.70898438 C-3.16334493 16.8061364 -3.07880064 12.90319442 -3 9 C-8.79067654 6.20530305 -8.79067654 6.20530305 -14.9375 6.8125 C-15.70964844 7.02519531 -16.48179687 7.23789062 -17.27734375 7.45703125 C-17.84582031 7.63621094 -18.41429687 7.81539062 -19 8 C-18.03845166 5.59612916 -17.35230679 4.24249688 -15.1953125 2.7578125 C-12.62333578 1.86997712 -10.59011735 1.80205655 -7.875 1.875 C-7.00617188 1.89304688 -6.13734375 1.91109375 -5.2421875 1.9296875 C-4.13230469 1.96449219 -4.13230469 1.96449219 -3 2 C-2.34 2 -1.68 2 -1 2 C-0.67 1.34 -0.34 0.68 0 0 Z " fill="#E6E6E5" transform="translate(281,55)"/>
<path d="M0 0 C3.58875 -0.061875 3.58875 -0.061875 7.25 -0.125 C7.99668945 -0.14320801 8.74337891 -0.16141602 9.51269531 -0.18017578 C13.1891524 -0.2108294 15.93572442 -0.11914962 19 2 C22.4108398 6.1688042 23.13156973 10.73721087 23 16 C22.19839668 20.4204921 20.71926304 23.24288101 17.625 26.5 C14 28 14 28 1 28 C0.67 18.76 0.34 9.52 0 0 Z " fill="#FCFCFC" transform="translate(110,421)"/>
<path d="M0 0 C0.66 0 1.32 0 2 0 C2.83986084 1.93467942 3.67168027 3.87285129 4.5 5.8125 C4.9640625 6.89144531 5.428125 7.97039062 5.90625 9.08203125 C7 12 7 12 7 15 C3.04 15 -0.92 15 -5 15 C-4.43174347 9.45949887 -2.37113483 4.96284034 0 0 Z " fill="#F6F6F6" transform="translate(182,421)"/>
<path d="M0 0 C0.98420934 3.06198462 1.12238366 4.96956412 0 8 C-1.3046875 10.03515625 -1.3046875 10.03515625 -2.875 12.0625 C-3.38804687 12.73410156 -3.90109375 13.40570313 -4.4296875 14.09765625 C-5.88123607 15.8561243 -7.28531849 17.49613999 -9 19 C-9.66 19 -10.32 19 -11 19 C-11 19.66 -11 20.32 -11 21 C-12.8125 22.6875 -12.8125 22.6875 -15 24 C-15.99 23.67 -16.98 23.34 -18 23 C-17.30777344 22.26910156 -17.30777344 22.26910156 -16.6015625 21.5234375 C-10.40729862 14.79054198 -5.20618748 7.49989713 0 0 Z " fill="#DADAD9" transform="translate(240,181)"/>
<path d="M0 0 C0.99 0.66 1.98 1.32 3 2 C3 2.99 3 3.98 3 5 C1.44219668 5.67756882 -0.12150096 6.34159457 -1.6875 7 C-2.99267578 7.556875 -2.99267578 7.556875 -4.32421875 8.125 C-7.0572002 9.01870488 -9.14700934 9.16449676 -12 9 C-12 8.34 -12 7.68 -12 7 C-7.05 5.515 -7.05 5.515 -2 4 C-2 3.34 -2 2.68 -2 2 C-1.34 2 -0.68 2 0 2 C0 1.34 0 0.68 0 0 Z " fill="#E0E0E0" transform="translate(175,176)"/>
<path d="M0 0 C-1.40345869 2.80691738 -3.04109067 2.96959375 -5.9375 4.0625 C-9.52024761 5.41423906 -9.52024761 5.41423906 -13 7 C-13 6.34 -13 5.68 -13 5 C-13.99 4.67 -14.98 4.34 -16 4 C-14.274773 3.32320342 -12.54461061 2.65898 -10.8125 2 C-9.84957031 1.62875 -8.88664063 1.2575 -7.89453125 0.875 C-5.07817642 0.02363228 -2.91835561 -0.17072647 0 0 Z " fill="#D7D7D6" transform="translate(161,131)"/>
<path d="M0 0 C0.66 0.33 1.32 0.66 2 1 C0.515 2.485 0.515 2.485 -1 4 C-0.67 4.66 -0.34 5.32 0 6 C-4.455 7.485 -4.455 7.485 -9 9 C-9 8.01 -9 7.02 -9 6 C-7.03125 4.39453125 -7.03125 4.39453125 -4.5 2.8125 C-3.6646875 2.28269531 -2.829375 1.75289062 -1.96875 1.20703125 C-0.99421875 0.60955078 -0.99421875 0.60955078 0 0 Z " fill="#DCDCDC" transform="translate(304,57)"/>
<path d="M0 0 C0 0.99 0 1.98 0 3 C-2.97 3.66 -5.94 4.32 -9 5 C-6.64389875 0.2877975 -5.23968794 -1.74656265 0 0 Z " fill="#DBDBDA" transform="translate(271,58)"/>
<path d="M0 0 C0.33 0.66 0.66 1.32 1 2 C1.66 2.33 2.32 2.66 3 3 C2.34 3 1.68 3 1 3 C1 3.66 1 4.32 1 5 C-0.8125 6.6875 -0.8125 6.6875 -3 8 C-3.99 7.67 -4.98 7.34 -6 7 C-4.02 4.69 -2.04 2.38 0 0 Z " fill="#D4D3D3" transform="translate(228,197)"/>
<path d="M0 0 C-3.13498292 1.85776765 -5.37471432 2.20140476 -9 2 C-9 1.34 -9 0.68 -9 0 C-5.52176885 -1.15941038 -3.54104422 -0.70820884 0 0 Z " fill="#DADADA" transform="translate(172,183)"/>
</svg>
