<?xml version="1.0" encoding="UTF-8"?>
<svg version="1.1" xmlns="http://www.w3.org/2000/svg" width="1605" height="456">
<path d="M0 0 C0.33 31.68 0.66 63.36 1 96 C4.96 92.04 8.92 88.08 13 84 C15.57305582 81.91787237 17.95477352 80.04796286 20.6875 78.25 C21.35265625 77.80446777 22.0178125 77.35893555 22.703125 76.89990234 C52.73893478 57.34153743 91.64339682 51.95475062 126.56640625 58.96484375 C151.99465913 64.68946943 175.10240939 74.98719019 195 92 C195.63164063 92.51046875 196.26328125 93.0209375 196.9140625 93.546875 C227.1874471 118.35237956 237.69534273 158.54508606 241.53515625 195.71801758 C245.57620474 241.36397545 234.24594288 291.06641831 205 327 C202.08673017 330.42035776 199.08051829 333.73008276 196 337 C195.40058594 337.66386719 194.80117188 338.32773437 194.18359375 339.01171875 C183.75540976 350.11559501 170.80824422 357.8621974 157 364 C155.93394531 364.48210937 154.86789062 364.96421875 153.76953125 365.4609375 C128.44200192 376.05420072 96.25502116 378.24363793 70.55078125 368.15234375 C58.20181708 362.57356208 49.15476992 354.45926565 42 343 C41.0409375 341.4840625 41.0409375 341.4840625 40.0625 339.9375 C38.60963033 335.92074269 38.10604241 332.21318903 39 328 C43.21439612 324.25387012 48.01554807 323.92561494 53.48144531 323.70996094 C80.9189873 322.62245927 103.04147978 314.85579642 122.21484375 294.66796875 C145.91986359 267.11381697 150.13228791 226.08029328 147.7265625 191.296875 C145.17875442 162.98753007 134.49921056 132.83186572 112.515625 113.85546875 C97.07026103 101.90587503 78.5398222 96.05165156 59 98 C41.54256414 100.40601996 27.09487931 108.41067594 15 121 C14.38640625 121.60585937 13.7728125 122.21171875 13.140625 122.8359375 C3.77378047 132.73389177 0.69718225 145.08541371 0.7215271 158.24388123 C0.7157347 159.36875555 0.7099423 160.49362987 0.70397437 161.65259129 C0.68698495 165.4174305 0.68409872 169.18214705 0.68115234 172.94702148 C0.67185345 175.64753413 0.66177177 178.34803329 0.65071106 181.04853821 C0.62846636 186.86028463 0.61343633 192.67201352 0.60334396 198.48379326 C0.58874173 206.88658422 0.56320058 215.28931411 0.53501268 223.69206918 C0.48957274 237.32586522 0.45294637 250.95967006 0.421875 264.59350586 C0.39167799 277.83538356 0.35732243 291.07723974 0.31738281 304.3190918 C0.31369049 305.54398838 0.31369049 305.54398838 0.30992357 306.79363035 C0.29754875 310.89037165 0.28509226 314.98711268 0.27259517 319.0838536 C0.16906927 353.05587313 0.0798522 387.02791661 0 421 C-3.5254184 419.3517167 -5.50063059 417.58431831 -8.0625 414.625 C-11.49982634 410.70791547 -14.96840827 406.83165354 -18.5 403 C-19.42606123 401.98983994 -20.35184396 400.97942448 -21.27734375 399.96875 C-23.0564638 398.02673937 -24.84101992 396.09024888 -26.62890625 394.15625 C-27.43199219 393.2796875 -28.23507812 392.403125 -29.0625 391.5 C-29.77535156 390.7265625 -30.48820312 389.953125 -31.22265625 389.15625 C-32.86446836 387.1644252 -33.96755844 385.35375278 -35 383 C-35.66 383 -36.32 383 -37 383 C-37 256.94 -37 130.88 -37 1 C-24.69351713 0.12096551 -12.33783702 0 0 0 Z " fill="#FFFFFF" transform="translate(322,35)"/>
<path d="M0 0 C6.41953881 6.19308269 12.92563832 12.87587888 13.5 22.1875 C12.93490507 26.49634887 12.17425134 28.08312039 9 31 C4.38765122 33.4201678 -0.34426813 33.49697922 -5.4375 33.875 C-30.5405888 36.13690706 -52.64896361 47.72076122 -69 67 C-81.88268503 83.62612132 -89.4633651 104.23498873 -92 125 C-92.11085938 125.886875 -92.22171875 126.77375 -92.3359375 127.6875 C-96.28886511 164.43904319 -87.7626424 206.88290164 -64.27172852 236.13818359 C-52.72690045 249.89565524 -38.00136061 257.14787099 -20.625 260.6875 C-2.07317636 262.28679514 13.96193299 258.45546882 28.75 246.6875 C36.46559733 240.00443114 43.61540294 233.1113036 49.33203125 224.6171875 C51 223 51 223 53.57421875 222.6328125 C56 223 56 223 58 225 C57.53917285 241.40002506 48.22146191 259.34888752 37 271 C36.34 271 35.68 271 35 271 C35 271.66 35 272.32 35 273 C15.22727192 292.44990803 -13.21811293 300.78676952 -40.375 301.25 C-75.59159465 300.62376348 -108.81508007 289.88610666 -135 266 C-135.70253906 265.37996094 -136.40507812 264.75992187 -137.12890625 264.12109375 C-148.84969626 253.18332103 -157.77505054 239.19289921 -165 225 C-165.46696289 224.10063721 -165.46696289 224.10063721 -165.94335938 223.18310547 C-187.21389773 181.83254397 -191.70835652 129.86814332 -177.90551758 85.54125977 C-174.1941526 74.16721603 -169.86993576 63.42064884 -164 53 C-163.42636719 51.94167969 -162.85273438 50.88335937 -162.26171875 49.79296875 C-144.51435945 18.01091612 -117.84987868 -2.48125616 -83.17749023 -12.37719727 C-55.75364436 -19.85868848 -22.46254537 -19.2680217 0 0 Z " fill="#FFFFFF" transform="translate(210,109)"/>
<path d="M0 0 C0 138.93 0 277.86 0 421 C-3.24956601 419.91681133 -3.83392636 419.29783983 -5.9375 416.75 C-9.15878815 412.94983343 -12.48488299 409.27359944 -15.875 405.625 C-20.96728065 400.12879682 -26.03884683 394.61537117 -31 389 C-31.49348737 388.59446425 -31.98697475 388.18892851 -32.49541628 387.7711038 C-36.6331646 383.96439915 -37.45587441 380.75383678 -37.73828697 375.188447 C-37.78545934 372.35558249 -37.75638437 369.52685335 -37.7215271 366.69398499 C-37.72414475 365.11638833 -37.72940045 363.53879423 -37.7370621 361.96121401 C-37.7504666 357.63269456 -37.7264961 353.30506734 -37.69639373 348.97666156 C-37.67047293 344.30666656 -37.6792519 339.63672151 -37.68380737 334.9666748 C-37.68695287 326.87774302 -37.66813458 318.78910172 -37.63438034 310.700243 C-37.58560941 299.00517517 -37.56999078 287.31024773 -37.56245239 275.61508923 C-37.54932196 256.64036724 -37.50939594 237.66580005 -37.45263672 218.69116211 C-37.39755914 200.25952936 -37.35509025 181.82793866 -37.32958984 163.39624023 C-37.3280135 162.26003398 -37.32643716 161.12382773 -37.32481305 159.95319099 C-37.3169828 154.25315455 -37.30940056 148.55311781 -37.30194163 142.85308087 C-37.23974547 95.56861359 -37.13407014 48.28431435 -37 1 C-24.60485043 -0.20299545 -12.54371794 0 0 0 Z " fill="#FFFFFF" transform="translate(619,35)"/>
<path d="M0 0 C1.16058515 0.00201151 1.16058515 0.00201151 2.34461647 0.00406367 C3.16637621 0.00164559 3.98813595 -0.00077248 4.8347975 -0.00326383 C7.65237212 -0.00994493 10.46989063 -0.00898171 13.28747231 -0.00779241 C15.34759923 -0.01015244 17.40772588 -0.01277327 19.46785218 -0.01562971 C25.27403871 -0.02153765 31.08019743 -0.01925436 36.88638431 -0.01469439 C40.67129592 -0.01191752 44.45620553 -0.0107515 48.24111801 -0.00981992 C129.95724409 0.02119683 211.67193645 0.77969229 293.38498896 1.42000455 C309.12769483 1.54327681 324.87041825 1.66408116 340.6131559 1.78322321 C342.27861744 1.79582912 342.27861744 1.79582912 343.97772466 1.8086897 C348.45303668 1.84255672 352.9283488 1.87641172 357.40366104 1.91025069 C492.33355446 2.93064604 492.33355446 2.93064604 550.97172277 3.44245033 C553.10492715 3.46105543 555.23813204 3.47960067 557.37133712 3.49812573 C569.92939483 3.60720392 582.48744198 3.71710665 595.04543126 3.83383381 C606.97486907 3.94445037 618.90431202 4.04104909 630.83399874 4.12039524 C633.80745567 4.14118416 636.78087945 4.1649428 639.75431114 4.18905741 C644.71598773 4.22828381 649.67761958 4.25649668 654.63940853 4.27677339 C656.48642881 4.28584073 658.33343605 4.298303 660.18040818 4.31442946 C662.70105681 4.3357456 665.22144311 4.34442513 667.74216896 4.34985834 C668.47924816 4.35889952 669.21632735 4.3679407 669.97574228 4.37725586 C673.99643656 4.37062756 677.07593384 3.92385327 680.69543129 2.14040095 C682.60373157 4.04870122 681.91358476 7.28813984 681.94543129 9.82790095 C681.97121254 11.04864313 681.99699379 12.26938532 682.02355629 13.5271197 C681.66957485 17.42512962 680.51777321 19.72335949 678.69543129 23.14040095 C607.53625084 23.30379906 536.39256679 22.93217944 465.23731788 22.19358286 C454.89956584 22.08628773 444.56178945 21.98173415 434.22398621 21.87949091 C433.52318923 21.87255918 432.82239226 21.86562744 432.10035901 21.85848566 C428.53656007 21.82324945 424.9727607 21.78805765 421.40896114 21.75288498 C396.53834532 21.50736859 371.66777697 21.25733756 346.79723793 21.00417048 C322.80343982 20.75994821 298.80962849 20.51711744 274.81579262 20.27663141 C274.07056462 20.26916114 273.32533662 20.26169086 272.55752595 20.2539942 C255.50390371 20.08305534 238.45027652 19.91261616 221.39664418 19.74268824 C219.94728478 19.72824483 218.49792538 19.71380138 217.04856598 19.6993579 C208.4432578 19.61360663 208.4432578 19.61360663 199.837949 19.52791691 C183.17805225 19.36207026 166.51817103 19.19481508 149.85831501 19.02492374 C139.45698677 18.91887183 129.05564848 18.81384014 118.6543024 18.70955199 C112.68125559 18.64961023 106.70821517 18.58915392 100.73518807 18.52727801 C88.45777922 18.40035106 76.18037764 18.28219118 63.90270311 18.18400866 C60.5458638 18.15688753 57.18912026 18.12545913 53.83236724 18.08922487 C49.55715579 18.04326901 45.28200701 18.01376247 41.00663429 17.98671442 C39.83240137 17.97168045 38.65816844 17.95664647 37.44835269 17.94115692 C30.433025 17.91542887 23.74184773 18.55887198 16.81562459 19.68236405 C12.3867474 20.33251261 8.03856979 20.43523177 3.57043129 20.39040095 C2.76090004 20.39813532 1.95136879 20.4058697 1.11730629 20.41383845 C-6.0010788 20.39034543 -6.0010788 20.39034543 -9.30456871 18.14040095 C-9.65811913 11.63245429 -9.38889905 6.93894198 -6.30456871 1.14040095 C-4.56760999 -0.59655777 -2.31601311 0.01154291 0 0 Z " fill="#FFFFFF" transform="translate(9.304568707942963,-0.1404009461402893)"/>
<path d="M0 0 C1.31158081 0.00845947 1.31158081 0.00845947 2.6496582 0.01708984 C14.59331143 0.2402531 23.93946147 2.70983476 32.8984375 10.87109375 C43.0437195 21.60861302 45.71299594 37.06157766 45.5625 51.25 C45.57410156 52.33990234 45.58570313 53.42980469 45.59765625 54.55273438 C45.54892783 68.22105726 42.19014689 81.27479034 33.046875 91.76953125 C23.05062633 101.18907327 11.2428306 103.63925598 -2.23046875 103.29101562 C-13.61317567 102.75713645 -24.05835962 100.00753833 -32.8125 92.3125 C-43.13950535 80.67672566 -45.00046159 67.654267 -45.0625 52.6875 C-45.083125 51.46675781 -45.10375 50.24601562 -45.125 48.98828125 C-45.15806651 41.25898514 -44.27649077 34.63358221 -41.8125 27.3125 C-41.53293457 26.4263501 -41.25336914 25.5402002 -40.96533203 24.62719727 C-38.07128029 15.78244466 -32.03490794 8.67985375 -23.8125 4.3125 C-16.24677867 0.73979826 -8.26488378 -0.05607656 0 0 Z M-10.8125 19.3125 C-20.01815117 31.3750774 -16.9238055 59.32076441 -15.0625 73.75 C-14.17525516 78.53988124 -13.17833283 81.75433386 -9.8125 85.3125 C-5.56359741 87.98323877 -0.67754521 87.83732508 4.1875 87.3125 C8.29259759 86.37306421 10.70095274 85.05853913 13.0625 81.4375 C15.00933561 76.02962329 15.39813604 70.86594809 15.57421875 65.15234375 C15.59974319 64.36662491 15.62526764 63.58090607 15.65156555 62.77137756 C15.70344119 61.10978333 15.75288345 59.44811156 15.80004883 57.78637695 C15.87404882 55.28218826 15.96504857 52.77898895 16.05664062 50.27539062 C16.90678952 34.05585722 16.90678952 34.05585722 11.1875 19.3125 C4.63584624 14.67840344 -4.26084624 14.67840344 -10.8125 19.3125 Z " fill="#FFFFFF" transform="translate(218.8125,198.6875)"/>
<path d="M0 0 C10 0 10 0 13.5 3.1875 C14.69234067 4.77267681 15.85641101 6.37930076 17 8 C18.51695298 9.96134065 20.03816565 11.91939057 21.5625 13.875 C22.42445004 15.00293462 23.28506997 16.1318866 24.14453125 17.26171875 C27.89858585 22.18817109 31.70832776 27.07122877 35.51879883 31.95410156 C38.67841106 36.00521728 41.8209233 40.06799608 44.9375 44.15234375 C45.5759082 44.98483643 46.21431641 45.8173291 46.87207031 46.67504883 C48.10561063 48.28432823 49.33429098 49.89734682 50.55761719 51.5144043 C51.11094727 52.234104 51.66427734 52.95380371 52.234375 53.6953125 C52.72131836 54.33484863 53.20826172 54.97438477 53.70996094 55.63330078 C54.13567383 56.08431152 54.56138672 56.53532227 55 57 C55.66 57 56.32 57 57 57 C59.0418102 54.70829661 60.96846088 52.4009701 62.875 50 C63.45362793 49.2795752 64.03225586 48.55915039 64.62841797 47.81689453 C69.06924162 42.25407678 73.36512012 36.58962951 77.60986328 30.87646484 C82.61100851 24.14816261 87.78250627 17.56127117 93 11 C93.80179688 9.99066406 94.60359375 8.98132813 95.4296875 7.94140625 C100.81818182 1.18181818 100.81818182 1.18181818 102 0 C104.97 0 107.94 0 111 0 C111 39.93 111 79.86 111 121 C107.04 121 103.08 121 99 121 C98.505 73.48 98.505 73.48 98 25 C89.98239413 35.30835041 81.97827151 45.61423955 74.05859375 55.99609375 C72.05765791 58.61864268 70.05028688 61.23599847 68.03515625 63.84765625 C67.57399414 64.44537842 67.11283203 65.04310059 66.63769531 65.65893555 C65.40115625 67.2601944 64.16351133 68.8605991 62.92578125 70.4609375 C61.55820043 72.26403595 60.25531992 74.11702012 59 76 C56.15625 76.5234375 56.15625 76.5234375 53 76 C50.71875 73.7890625 50.71875 73.7890625 48.5 70.625 C47.63561869 69.42729847 46.76964097 68.23074796 45.90234375 67.03515625 C45.43940918 66.38562988 44.97647461 65.73610352 44.49951172 65.06689453 C41.78425118 61.32423811 38.91355384 57.702069 36.0625 54.0625 C34.86823299 52.52884561 33.67422111 50.99499252 32.48046875 49.4609375 C26.35914104 41.60977984 20.21916942 33.77396178 14 26 C13.67 57.35 13.34 88.7 13 121 C8.71 121 4.42 121 0 121 C0 81.07 0 41.14 0 0 Z " fill="#FFFFFF" transform="translate(1018,247)"/>
<path d="M0 0 C11 0 11 0 14.09375 2.5703125 C14.93159348 3.73019789 15.73255355 4.91738178 16.5 6.125 C17.41571209 7.41994639 18.3324067 8.71419845 19.25 10.0078125 C19.70375 10.67329102 20.1575 11.33876953 20.625 12.02441406 C22.78214671 15.1237804 25.14244926 18.05212023 27.5 21 C28.42166584 22.17101562 29.34223812 23.34289277 30.26171875 24.515625 C32.05478524 26.79782527 33.849118 29.07902056 35.64453125 31.359375 C41.39179268 38.66177776 47.10684726 45.98858448 52.80786133 53.32714844 C56.35838926 57.89551056 59.92073692 62.45412315 63.5 67 C67.851427 72.52762099 72.1800791 78.07272268 76.5 83.625 C77.10005859 84.39585937 77.70011719 85.16671875 78.31835938 85.9609375 C78.88361328 86.68796875 79.44886719 87.415 80.03125 88.1640625 C80.53205078 88.80811035 81.03285156 89.4521582 81.54882812 90.11572266 C83.04947046 92.06423503 84.5243625 94.03248333 86 96 C86.33 64.32 86.66 32.64 87 0 C91.29 0 95.58 0 100 0 C100 39.93 100 79.86 100 121 C90 121 90 121 86.6015625 118.0625 C85.57723287 116.73248037 84.58634145 115.37623618 83.625 114 C83.08101562 113.278125 82.53703125 112.55625 81.9765625 111.8125 C80.28847373 109.56171497 78.64412607 107.28301469 77 105 C75.49936833 102.98266383 73.98812918 100.97362443 72.47607422 98.96484375 C71.48654773 97.64765731 70.50123245 96.32729735 69.52001953 95.00390625 C65.97200913 90.22823072 62.27829469 85.59498072 58.5 81 C53.66527603 75.12024068 49.04807628 69.11771783 44.51953125 63 C40.46117058 57.54624498 36.19995964 52.28207225 31.88183594 47.03295898 C26.81508526 40.84341023 22.02556408 34.46205074 17.265625 28.03515625 C15.30536915 25.2574801 15.30536915 25.2574801 14 24 C13.67 56.01 13.34 88.02 13 121 C8.71 121 4.42 121 0 121 C0 81.07 0 41.14 0 0 Z " fill="#FFFFFF" transform="translate(1385,247)"/>
<path d="M0 0 C66.23974763 0 66.23974763 0 78 8 C79.3303125 8.86625 79.3303125 8.86625 80.6875 9.75 C89.45630632 18.28181156 92.26091796 28.02189118 92.4375 39.9375 C92.36586955 50.82197139 89.67205375 59.98997032 82 68 C71.93280632 77 71.93280632 77 65 77 C67.67083737 81.81891297 71.03443312 86.00222507 74.4375 90.3125 C75.68952037 91.91610612 76.94080747 93.52028498 78.19140625 95.125 C80.06592001 97.52682534 81.94240962 99.92688499 83.82763672 102.3203125 C85.52161769 104.4756909 87.1997998 106.64251064 88.875 108.8125 C89.39247803 109.46323486 89.90995605 110.11396973 90.44311523 110.78442383 C92.55473595 113.54259943 93.94015854 115.44902072 94.3203125 118.94921875 C94.21460938 119.62597656 94.10890625 120.30273438 94 121 C89.78971614 121.78128979 86.19559483 121.94562636 82 121 C78.434407 118.05244312 75.8848061 114.54579622 73.26074219 110.77929688 C71.56923274 108.39205427 69.75152104 106.1179851 67.92602539 103.83251953 C66.64896805 102.23328247 65.38831347 100.6209858 64.12890625 99.0078125 C63.42302368 98.14712158 63.42302368 98.14712158 62.70288086 97.26904297 C61.28205525 95.37583103 60.09096625 93.50924289 58.87719727 91.48486328 C54.5672414 84.56072639 54.5672414 84.56072639 47.90731812 80.22723389 C42.21925207 79.09964269 36.57997064 79.38803974 30.8125 79.625 C24.934375 79.74875 19.05625 79.8725 13 80 C13 93.53 13 107.06 13 121 C8.71 121 4.42 121 0 121 C0 81.07 0 41.14 0 0 Z M13 12 C13 30.48 13 48.96 13 68 C23.6115625 68.0928125 23.6115625 68.0928125 34.4375 68.1875 C36.65267334 68.21481201 38.86784668 68.24212402 41.15014648 68.27026367 C42.93212338 68.27903643 44.71410636 68.28667849 46.49609375 68.29296875 C47.85208679 68.3159906 47.85208679 68.3159906 49.23547363 68.33947754 C57.87915581 68.3429898 65.41785261 66.35337194 72.20703125 60.8515625 C77.54232313 55.34191468 79.78312504 48.4165811 80.125 40.86328125 C79.76670848 32.65616607 77.94073313 25.6509083 72.1015625 19.6875 C66.14820114 14.90710575 59.26067473 11.86393919 51.59863281 11.88647461 C50.72609863 11.88659546 49.85356445 11.88671631 48.95458984 11.88684082 C48.04660645 11.89195679 47.13862305 11.89707275 46.203125 11.90234375 C45.36185059 11.90335083 44.52057617 11.90435791 43.65380859 11.90539551 C40.51919181 11.91061705 37.3845945 11.92457832 34.25 11.9375 C23.73125 11.9684375 23.73125 11.9684375 13 12 Z " fill="#FFFFFF" transform="translate(1406,102)"/>
<path d="M0 0 C66.23974763 0 66.23974763 0 78 8 C79.3303125 8.86625 79.3303125 8.86625 80.6875 9.75 C89.45630632 18.28181156 92.26091796 28.02189118 92.4375 39.9375 C92.36586955 50.82197139 89.67205375 59.98997032 82 68 C71.93280632 77 71.93280632 77 65 77 C67.67083737 81.81891297 71.03443312 86.00222507 74.4375 90.3125 C75.68952037 91.91610612 76.94080747 93.52028498 78.19140625 95.125 C80.06592001 97.52682534 81.94240962 99.92688499 83.82763672 102.3203125 C85.52161769 104.4756909 87.1997998 106.64251064 88.875 108.8125 C89.39247803 109.46323486 89.90995605 110.11396973 90.44311523 110.78442383 C92.55473595 113.54259943 93.94015854 115.44902072 94.3203125 118.94921875 C94.21460938 119.62597656 94.10890625 120.30273438 94 121 C89.78971614 121.78128979 86.19559483 121.94562636 82 121 C78.434407 118.05244312 75.8848061 114.54579622 73.26074219 110.77929688 C71.56923274 108.39205427 69.75152104 106.1179851 67.92602539 103.83251953 C66.64896805 102.23328247 65.38831347 100.6209858 64.12890625 99.0078125 C63.42302368 98.14712158 63.42302368 98.14712158 62.70288086 97.26904297 C61.28205525 95.37583103 60.09096625 93.50924289 58.87719727 91.48486328 C54.5672414 84.56072639 54.5672414 84.56072639 47.90731812 80.22723389 C42.21925207 79.09964269 36.57997064 79.38803974 30.8125 79.625 C24.934375 79.74875 19.05625 79.8725 13 80 C13 93.53 13 107.06 13 121 C8.71 121 4.42 121 0 121 C0 81.07 0 41.14 0 0 Z M13 12 C13 30.48 13 48.96 13 68 C23.6115625 68.0928125 23.6115625 68.0928125 34.4375 68.1875 C36.65267334 68.21481201 38.86784668 68.24212402 41.15014648 68.27026367 C42.93212338 68.27903643 44.71410636 68.28667849 46.49609375 68.29296875 C47.85208679 68.3159906 47.85208679 68.3159906 49.23547363 68.33947754 C57.87915581 68.3429898 65.41785261 66.35337194 72.20703125 60.8515625 C77.54232313 55.34191468 79.78312504 48.4165811 80.125 40.86328125 C79.76670848 32.65616607 77.94073313 25.6509083 72.1015625 19.6875 C66.14820114 14.90710575 59.26067473 11.86393919 51.59863281 11.88647461 C50.72609863 11.88659546 49.85356445 11.88671631 48.95458984 11.88684082 C48.04660645 11.89195679 47.13862305 11.89707275 46.203125 11.90234375 C45.36185059 11.90335083 44.52057617 11.90435791 43.65380859 11.90539551 C40.51919181 11.91061705 37.3845945 11.92457832 34.25 11.9375 C23.73125 11.9684375 23.73125 11.9684375 13 12 Z " fill="#FFFFFF" transform="translate(1001,102)"/>
<path d="M0 0 C11.52584955 9.31623073 18.17225547 22.90321356 20.69921875 37.328125 C22.08822587 59.4890151 20.29304953 78.38929259 5.79296875 96.1328125 C-4.46398819 106.88730839 -17.37955177 113.00072718 -32.20703125 113.56640625 C-48.43757942 113.88971239 -60.87379723 112.26101661 -74.30078125 102.328125 C-74.93371094 101.88984375 -75.56664062 101.4515625 -76.21875 101 C-87.61876617 92.33911815 -94.18865275 77.59143672 -96.61328125 63.890625 C-99.12184387 43.79800328 -96.03881808 24.14629161 -83.44921875 7.859375 C-62.46628265 -16.86233881 -25.44384976 -18.4889095 0 0 Z M-69.6484375 11.453125 C-81.75928103 25.19592617 -85.24234891 40.40280861 -84.30078125 58.328125 C-82.49351491 72.80283612 -75.73937043 85.22662886 -64.30078125 94.328125 C-53.94502106 101.41364513 -41.86608462 103.24401617 -29.55078125 101.828125 C-16.1636032 99.18047545 -6.09476898 91.64192169 1.57421875 80.453125 C9.12051707 67.31400275 10.87602026 50.69893054 7.57421875 36.015625 C3.85229115 23.33672212 -2.53369705 12.73499663 -13.8359375 5.64453125 C-31.86131311 -3.98233338 -54.23724509 -3.01606298 -69.6484375 11.453125 Z " fill="#FFFFFF" transform="translate(972.30078125,256.671875)"/>
<path d="M0 0 C2.08273277 1.60178043 4.04007759 3.24638521 6 5 C1.85714286 12.57142857 1.85714286 12.57142857 -1 15 C-3.91880986 13.63180788 -6.40172374 12.02449742 -9 10.125 C-16.09143113 5.33886909 -24.47353958 2.64350645 -33 2 C-33.64839844 1.9484375 -34.29679687 1.896875 -34.96484375 1.84375 C-47.34216013 1.30657895 -58.3575239 5.28438103 -67.6875 13.3125 C-68.450625 14.199375 -69.21375 15.08625 -70 16 C-70.55300781 16.60070312 -71.10601563 17.20140625 -71.67578125 17.8203125 C-81.95166117 29.74649434 -83.81221216 44.80862446 -83 60 C-81.29552076 72.7402601 -76.17768966 85.37767484 -66.0078125 93.61328125 C-55.19866459 101.36432504 -43.14791394 104.10027399 -30 102.4375 C-20.27462788 100.50260921 -11.93983923 96.33529842 -5.68359375 88.53125 C0.56509163 79.13647477 1.47497312 70.43770161 3 59 C-11.52 59 -26.04 59 -41 59 C-41 55.04 -41 51.08 -41 47 C-22.19 47 -3.38 47 16 47 C16 66.45350322 14.80148084 82.24252981 3 98 C2.4225 98.86625 1.845 99.7325 1.25 100.625 C-6.72090863 109.03873689 -17.78365754 114.31022522 -29.36499023 115.17700195 C-49.01508254 115.66977577 -64.78854778 113.34534931 -79.765625 99.45703125 C-92.72414773 85.2071872 -97.56138092 67.90034607 -97.25 48.8671875 C-96.10630677 31.17568285 -90.13736825 15.89743054 -77.359375 3.421875 C-56.57737024 -14.51002625 -22.38029087 -16.0269116 0 0 Z " fill="#FFFFFF" transform="translate(1254,110)"/>
<path d="M0 0 C69.42917548 0 69.42917548 0 81.953125 11.84765625 C91.04872166 21.45917961 92.39767844 31.77354602 92.2109375 44.50390625 C91.84223031 55.50367065 87.26644639 64.15386761 79.375 71.75 C65.31504572 83.18366093 46.15887173 82.31674768 29 82.125 C23.72 82.08375 18.44 82.0425 13 82 C13 94.87 13 107.74 13 121 C8.71 121 4.42 121 0 121 C0 81.07 0 41.14 0 0 Z M13 12 C13 31.14 13 50.28 13 70 C22.5596875 70.0928125 22.5596875 70.0928125 32.3125 70.1875 C34.30063721 70.21481201 36.28877441 70.24212402 38.3371582 70.27026367 C51.12110771 70.37380491 62.95970795 69.94939513 73 61 C78.53211708 54.46696198 80.5039696 46.80521318 80.2421875 38.35546875 C79.37890069 29.95930831 76.54228867 23.47217454 70 18 C64.14263939 14.37744774 58.53887579 11.86606213 51.59863281 11.88647461 C50.72609863 11.88659546 49.85356445 11.88671631 48.95458984 11.88684082 C48.04660645 11.89195679 47.13862305 11.89707275 46.203125 11.90234375 C45.36185059 11.90335083 44.52057617 11.90435791 43.65380859 11.90539551 C40.51919181 11.91061705 37.3845945 11.92457832 34.25 11.9375 C23.73125 11.9684375 23.73125 11.9684375 13 12 Z " fill="#FFFFFF" transform="translate(1162,247)"/>
<path d="M0 0 C4.29 0 8.58 0 13 0 C13.33 21.78 13.66 43.56 14 66 C18.21974034 61.78025966 22.10401756 57.73112977 25.96875 53.25390625 C30.75226918 47.94603978 35.9446488 43.00768929 41.02978516 37.99072266 C46.27187616 32.81258011 51.45007477 27.63369823 56.25146484 22.03710938 C59.92169062 17.76115798 63.70712557 13.60921395 67.5625 9.5 C68.36751953 8.5821875 69.17253906 7.664375 70.00195312 6.71875 C73.76037982 2.77548265 76.27306137 0.26998083 81.77294922 -0.58984375 C85.23613538 -0.59333091 88.56502899 -0.42559916 92 0 C91.70561329 5.45634926 88.52301077 7.97808897 84.8046875 11.55078125 C84.17901886 12.16841843 83.55335022 12.7860556 82.90872192 13.42240906 C80.90672429 15.39545199 78.89161921 17.35441381 76.875 19.3125 C74.24324899 21.88771947 71.61689476 24.46838481 68.9921875 27.05078125 C68.36443924 27.66680206 67.73669098 28.28282288 67.08992004 28.91751099 C63.31801998 32.63721846 59.70521012 36.43133827 56.28515625 40.48120117 C54.64181332 42.42330534 52.87919541 44.22038001 51.0625 46 C50.47597656 46.5775 49.88945313 47.155 49.28515625 47.75 C48.86105469 48.1625 48.43695312 48.575 48 49 C49.33827659 52.64755531 50.9722878 55.70480959 53.1328125 58.9296875 C53.76622559 59.87851807 54.39963867 60.82734863 55.05224609 61.80493164 C55.73625488 62.8180542 56.42026367 63.83117676 57.125 64.875 C57.83350098 65.93130615 58.54200195 66.9876123 59.27197266 68.07592773 C64.23691419 75.45321064 69.28575355 82.77043627 74.375 90.0625 C76.91733255 93.70786986 79.45926782 97.3535145 82 101 C82.55075195 101.78922852 83.10150391 102.57845703 83.66894531 103.39160156 C85.12278098 105.48348423 86.56370727 107.58354941 88 109.6875 C88.62334229 110.57804077 88.62334229 110.57804077 89.25927734 111.48657227 C91.44730947 114.72265741 92 115.94244388 92 120 C87.32922192 121.15262749 83.65343052 121.32382075 79 120 C74.51605666 116.26530169 71.70639281 110.70495996 68.72070312 105.77783203 C65.49275157 100.5667604 61.96809338 95.55292739 58.5 90.5 C57.04989217 88.36648943 55.60066201 86.23238205 54.15234375 84.09765625 C50.47736293 78.69576491 46.79489401 73.29992216 43.0625 67.9375 C42.32773437 66.86628906 42.32773437 66.86628906 41.578125 65.7734375 C40.4366676 64.14513371 39.22561278 62.56594111 38 61 C35.88418789 60.77491474 35.88418789 60.77491474 34.39941406 62.46533203 C33.77776367 63.13935059 33.15611328 63.81336914 32.515625 64.5078125 C31.82726562 65.24773437 31.13890625 65.98765625 30.4296875 66.75 C29.71039062 67.53375 28.99109375 68.3175 28.25 69.125 C26.83942115 70.64925187 25.42797654 72.17270304 24.015625 73.6953125 C23.38946289 74.37609863 22.76330078 75.05688477 22.11816406 75.75830078 C20 78 20 78 18.44223022 79.30648804 C15.37800829 81.98058872 13.65355916 83.85286634 13.22705078 87.98583984 C13.18654108 89.47702643 13.17738126 90.96930854 13.1953125 92.4609375 C13.18160614 93.25150543 13.16789978 94.04207336 13.15377808 94.8565979 C13.11660773 97.3633177 13.12018356 99.86804472 13.125 102.375 C13.10686388 104.08206204 13.08605831 105.78909793 13.0625 107.49609375 C13.01077154 111.66439447 12.99556059 115.83139601 13 120 C8.71 120 4.42 120 0 120 C0 80.4 0 40.8 0 0 Z " fill="#FFFFFF" transform="translate(772,102)"/>
<path d="M0 0 C1.65322266 0.01740234 1.65322266 0.01740234 3.33984375 0.03515625 C4.99693359 0.04869141 4.99693359 0.04869141 6.6875 0.0625 C7.54214844 0.07410156 8.39679688 0.08570313 9.27734375 0.09765625 C9.57165283 0.80108154 9.86596191 1.50450684 10.16918945 2.22924805 C16.86372138 18.22407475 23.58134722 34.20909386 30.32388306 50.18374634 C31.12728762 52.08728648 31.93048939 53.99091222 32.73348999 55.8946228 C37.2097512 66.50578454 41.70363514 77.10895759 46.23828125 87.6953125 C47.03099056 89.54888125 47.82363504 91.40247772 48.61621094 93.25610352 C50.10899929 96.74716069 51.60794773 100.23548411 53.11035156 103.72241211 C53.78344294 105.29530755 54.45630752 106.86830008 55.12890625 108.44140625 C55.43524994 109.14761612 55.74159363 109.85382599 56.05722046 110.58143616 C57.57958916 114.15730061 58.50583144 117.24009469 59.27734375 121.09765625 C54.98734375 121.09765625 50.69734375 121.09765625 46.27734375 121.09765625 C40.33734375 107.23765625 40.33734375 107.23765625 34.27734375 93.09765625 C13.48734375 93.09765625 -7.30265625 93.09765625 -28.72265625 93.09765625 C-32.35265625 101.67765625 -35.98265625 110.25765625 -39.72265625 119.09765625 C-40.21765625 120.08765625 -40.21765625 120.08765625 -40.72265625 121.09765625 C-45.01265625 121.09765625 -49.30265625 121.09765625 -53.72265625 121.09765625 C-51.37445457 113.47231315 -48.29266255 106.22665669 -45.11569214 98.92108154 C-43.4338407 95.05160392 -41.76568598 91.17623292 -40.09765625 87.30078125 C-39.74404526 86.4795578 -39.39043427 85.65833435 -39.02610779 84.81222534 C-34.83530234 75.06122912 -30.74825432 65.26703965 -26.66015625 55.47265625 C-25.15018686 51.85788594 -23.63968242 48.24333944 -22.12890625 44.62890625 C-21.76067749 43.74793274 -21.39244873 42.86695923 -21.01306152 41.95928955 C-17.55311777 33.68530361 -14.07861646 25.41753311 -10.58425903 17.15802002 C-9.97227135 15.7107614 -9.36115493 14.26313403 -8.75094604 12.81512451 C-7.91969434 10.84317304 -7.08534187 8.87256536 -6.25 6.90234375 C-5.78327881 5.79874512 -5.31655762 4.69514648 -4.83569336 3.55810547 C-3.27931694 0.11762256 -3.27931694 0.11762256 0 0 Z M2.27734375 17.09765625 C-0.30149503 23.19459493 -2.87905858 29.29207166 -5.45581055 35.38989258 C-6.32922738 37.45641765 -7.20291694 39.52282748 -8.0769043 41.58911133 C-12.36053855 51.71696949 -16.6403209 61.84634228 -20.84375 72.0078125 C-21.13935318 72.71949081 -21.43495636 73.43116913 -21.73951721 74.16441345 C-23.12606892 77.03927125 -23.12606892 77.03927125 -23.72265625 80.09765625 C-6.23265625 80.09765625 11.25734375 80.09765625 29.27734375 80.09765625 C26.98572664 73.10934169 26.98572664 73.10934169 24.36376953 66.30322266 C23.84775681 65.06616074 23.84775681 65.06616074 23.32131958 63.80410767 C22.95876068 62.94449432 22.59620178 62.08488098 22.22265625 61.19921875 C21.83923065 60.28361176 21.45580505 59.36800476 21.0607605 58.4246521 C20.25381138 56.49957204 19.44528564 54.57515218 18.63525391 52.65136719 C17.40930821 49.73919995 16.18862328 46.8248716 14.96875 43.91015625 C11.19666516 34.9145627 7.42428803 25.92857802 3.27734375 17.09765625 C2.94734375 17.09765625 2.61734375 17.09765625 2.27734375 17.09765625 Z " fill="#FFFFFF" transform="translate(1306.72265625,246.90234375)"/>
<path d="M0 0 C1.65322266 0.01740234 1.65322266 0.01740234 3.33984375 0.03515625 C4.99693359 0.04869141 4.99693359 0.04869141 6.6875 0.0625 C7.54214844 0.07410156 8.39679688 0.08570312 9.27734375 0.09765625 C9.57165283 0.80108154 9.86596191 1.50450684 10.16918945 2.22924805 C16.86372138 18.22407475 23.58134722 34.20909386 30.32388306 50.18374634 C31.12728762 52.08728648 31.93048939 53.99091222 32.73348999 55.8946228 C37.2097512 66.50578454 41.70363514 77.10895759 46.23828125 87.6953125 C47.03099056 89.54888125 47.82363504 91.40247772 48.61621094 93.25610352 C50.10899929 96.74716069 51.60794773 100.23548411 53.11035156 103.72241211 C53.78344294 105.29530755 54.45630752 106.86830008 55.12890625 108.44140625 C55.43524994 109.14761612 55.74159363 109.85382599 56.05722046 110.58143616 C57.57958916 114.15730061 58.50583144 117.24009469 59.27734375 121.09765625 C54.98734375 121.09765625 50.69734375 121.09765625 46.27734375 121.09765625 C40.33734375 107.23765625 40.33734375 107.23765625 34.27734375 93.09765625 C13.48734375 93.09765625 -7.30265625 93.09765625 -28.72265625 93.09765625 C-32.35265625 101.67765625 -35.98265625 110.25765625 -39.72265625 119.09765625 C-40.21765625 120.08765625 -40.21765625 120.08765625 -40.72265625 121.09765625 C-45.01265625 121.09765625 -49.30265625 121.09765625 -53.72265625 121.09765625 C-51.37445457 113.47231315 -48.29266255 106.22665669 -45.11569214 98.92108154 C-43.4338407 95.05160392 -41.76568598 91.17623292 -40.09765625 87.30078125 C-39.74404526 86.4795578 -39.39043427 85.65833435 -39.02610779 84.81222534 C-34.83530234 75.06122912 -30.74825432 65.26703965 -26.66015625 55.47265625 C-25.15018686 51.85788594 -23.63968242 48.24333944 -22.12890625 44.62890625 C-21.76067749 43.74793274 -21.39244873 42.86695923 -21.01306152 41.95928955 C-17.55311777 33.68530361 -14.07861646 25.41753311 -10.58425903 17.15802002 C-9.97227135 15.7107614 -9.36115493 14.26313403 -8.75094604 12.81512451 C-7.91969434 10.84317304 -7.08534187 8.87256536 -6.25 6.90234375 C-5.78327881 5.79874512 -5.31655762 4.69514648 -4.83569336 3.55810547 C-3.27931694 0.11762256 -3.27931694 0.11762256 0 0 Z M2.27734375 17.09765625 C-0.30149503 23.19459493 -2.87905858 29.29207166 -5.45581055 35.38989258 C-6.32922738 37.45641765 -7.20291694 39.52282748 -8.0769043 41.58911133 C-12.36053855 51.71696949 -16.6403209 61.84634228 -20.84375 72.0078125 C-21.13935318 72.71949081 -21.43495636 73.43116913 -21.73951721 74.16441345 C-23.12606892 77.03927125 -23.12606892 77.03927125 -23.72265625 80.09765625 C-6.23265625 80.09765625 11.25734375 80.09765625 29.27734375 80.09765625 C26.98572664 73.10934169 26.98572664 73.10934169 24.36376953 66.30322266 C23.84775681 65.06616074 23.84775681 65.06616074 23.32131958 63.80410767 C22.95876068 62.94449432 22.59620178 62.08488098 22.22265625 61.19921875 C21.83923065 60.28361176 21.45580505 59.36800476 21.0607605 58.4246521 C20.25381138 56.49957204 19.44528564 54.57515218 18.63525391 52.65136719 C17.40930821 49.73919995 16.18862328 46.8248716 14.96875 43.91015625 C11.19666516 34.9145627 7.42428803 25.92857802 3.27734375 17.09765625 C2.94734375 17.09765625 2.61734375 17.09765625 2.27734375 17.09765625 Z " fill="#FFFFFF" transform="translate(1328.72265625,101.90234375)"/>
<path d="M0 0 C3.96 0 7.92 0 12 0 C13.07701172 2.57361328 13.07701172 2.57361328 14.17578125 5.19921875 C20.44519933 20.17029944 26.73505226 35.13269351 33.04653931 50.08609009 C33.84994387 51.98963023 34.65314564 53.89325597 35.45614624 55.79696655 C39.93240745 66.40812829 44.42629139 77.01130134 48.9609375 87.59765625 C49.75364681 89.451225 50.54629129 91.30482147 51.33886719 93.15844727 C52.83165554 96.64950444 54.33060398 100.13782786 55.83300781 103.62475586 C56.50609919 105.1976513 57.17896377 106.77064383 57.8515625 108.34375 C58.15790619 109.04995987 58.46424988 109.75616974 58.77987671 110.48377991 C60.30224541 114.05964436 61.22848769 117.14243844 62 121 C57.71 121 53.42 121 49 121 C43.06 107.14 43.06 107.14 37 93 C16.21 93 -4.58 93 -26 93 C-29.63 101.58 -33.26 110.16 -37 119 C-38 120 -38 120 -40.94140625 120.09765625 C-42.13636719 120.08605469 -43.33132813 120.07445312 -44.5625 120.0625 C-45.76003906 120.05347656 -46.95757813 120.04445313 -48.19140625 120.03515625 C-49.58166016 120.01775391 -49.58166016 120.01775391 -51 120 C-41.70688367 97.64987583 -32.36483634 75.32015611 -23 53 C-22.57261536 51.98115723 -22.14523071 50.96231445 -21.70489502 49.91259766 C-19.10046388 43.70503737 -16.49248638 37.49898453 -13.88009644 31.29476929 C-13.05034321 29.32316974 -12.22149041 27.35119097 -11.39358521 25.3788147 C-10.23633861 22.62253649 -9.07563532 19.86773854 -7.9140625 17.11328125 C-7.40734764 15.90351624 -7.40734764 15.90351624 -6.89039612 14.66931152 C-4.77827937 9.6738774 -2.47080717 4.82855515 0 0 Z M5 17 C2.42116122 23.09693868 -0.15640233 29.19441541 -2.7331543 35.29223633 C-3.60657113 37.3587614 -4.48026069 39.42517123 -5.35424805 41.49145508 C-9.6378823 51.61931324 -13.91766465 61.74868603 -18.12109375 71.91015625 C-18.41669693 72.62183456 -18.71230011 73.33351288 -19.01686096 74.0667572 C-20.40341267 76.941615 -20.40341267 76.941615 -21 80 C-3.51 80 13.98 80 32 80 C29.70838289 73.01168544 29.70838289 73.01168544 27.08642578 66.20556641 C26.57041306 64.96850449 26.57041306 64.96850449 26.04397583 63.70645142 C25.68141693 62.84683807 25.31885803 61.98722473 24.9453125 61.1015625 C24.5618869 60.18595551 24.1784613 59.27034851 23.78341675 58.32699585 C22.97646763 56.40191579 22.16794189 54.47749593 21.35791016 52.55371094 C20.13196446 49.6415437 18.91127953 46.72721535 17.69140625 43.8125 C13.91932141 34.81690645 10.14694428 25.83092177 6 17 C5.67 17 5.34 17 5 17 Z " fill="#FFFFFF" transform="translate(921,102)"/>
<path d="M0 0 C2.55000019 2.04766292 4.39470978 4.25993834 6.33984375 6.87890625 C4.35984375 9.84890625 2.37984375 12.81890625 0.33984375 15.87890625 C-2.39837155 14.5097986 -4.66613553 13.24549476 -7.16015625 11.56640625 C-18.85413376 4.1864991 -30.96611177 1.01590423 -44.53515625 4.00390625 C-56.42998669 7.2465734 -65.29508101 13.27574561 -71.84765625 23.69140625 C-79.69322687 37.47359848 -81.99657469 52.69788456 -78.53515625 68.25390625 C-74.73055263 81.18955856 -67.05524243 92.12595555 -55.15625 98.6640625 C-42.81863685 104.66875372 -30.74042966 104.96465457 -17.66015625 100.87890625 C-11.39060182 98.31082789 -6.42629754 95.69707965 -1.66015625 90.87890625 C-1.00015625 90.87890625 -0.34015625 90.87890625 0.33984375 90.87890625 C1.84765625 92.62890625 1.84765625 92.62890625 3.46484375 94.87890625 C4.00367188 95.62140625 4.5425 96.36390625 5.09765625 97.12890625 C5.50757813 97.70640625 5.9175 98.28390625 6.33984375 98.87890625 C3.12053063 106.32657094 -4.62957626 109.5824574 -11.65625 112.80078125 C-19.05773993 115.45723277 -26.13792754 116.2416749 -33.97265625 116.19140625 C-34.89546387 116.1857666 -35.81827148 116.18012695 -36.76904297 116.17431641 C-53.47076878 115.87780132 -66.0269995 109.85012055 -77.66015625 97.87890625 C-90.74891101 83.33584541 -94.45657883 66.21307419 -93.78759766 47.08349609 C-92.81272021 30.2192368 -85.53392756 14.73125294 -72.94140625 3.44140625 C-52.24346319 -13.1169482 -22.1099052 -14.32987841 0 0 Z " fill="#FFFFFF" transform="translate(857.66015625,254.12109375)"/>
<path d="M0 0 C5.12856852 -1.26112341 10.03003193 -2.09021953 15 0 C19.78932013 4.48810503 22.43045331 11.04214654 25.34130859 16.81982422 C28.06918132 22.04991991 31.14611563 27.07010415 34.19290161 32.11810303 C39.93577837 41.66276122 45.54318895 51.28903033 51 61 C56.14126212 52.51911462 61.19646539 43.98858334 66.20581055 35.42919922 C67.69554597 32.88494946 69.19511648 30.34688312 70.70239258 27.81298828 C73.90966351 22.4048531 77.06415524 17.01949048 79.79296875 11.34765625 C85.02565654 0.71513276 85.02565654 0.71513276 88.87109375 -0.67773438 C93.36839512 -1.41311541 97.53811376 -0.91022479 102 0 C98.50506919 7.39032245 94.27002484 14.29167392 90 21.25 C88.84925298 23.13330339 87.69968222 25.01732127 86.55020142 26.90139771 C85.78376748 28.15753218 85.01698404 29.41345348 84.24984741 30.66915894 C80.58714001 36.66684107 76.97068206 42.69178078 73.37109375 48.72753906 C72.95214844 49.4284668 72.53320312 50.12939453 72.1015625 50.8515625 C71.6569165 51.62226074 71.21227051 52.39295898 70.75415039 53.18701172 C69.33088815 55.46938158 67.84745938 57.57075484 66.24389648 59.72314453 C57.14991042 72.43116906 56.47820979 83.31568126 56.8125 98.625 C56.81947785 100.80728138 56.82146107 102.98958466 56.81835938 105.171875 C56.82150635 110.44993871 56.89159667 115.72309213 57 121 C53.04 121 49.08 121 45 121 C45.10380981 119.11571289 45.10380981 119.11571289 45.2097168 117.19335938 C46.59330053 88.53328776 44.71235557 68.24048664 27.25634766 45.03125 C24.50762451 41.33852693 22.11324665 37.50666992 19.75 33.5625 C19.02075059 32.40465808 18.28891907 31.24843897 17.5546875 30.09375 C14.27281071 24.87345475 11.09888465 19.58699437 7.92150879 14.30270386 C6.8901807 12.58774347 5.85672704 10.87406191 4.82324219 9.16040039 C4.19836914 8.11875732 3.57349609 7.07711426 2.9296875 6.00390625 C2.36491699 5.06361572 1.80014648 4.1233252 1.21826172 3.15454102 C0 1 0 1 0 0 Z " fill="#FFFFFF" transform="translate(1503,247)"/>
<path d="M0 0 C4.29 0 8.58 0 13 0 C13 39.93 13 79.86 13 121 C8.71 121 4.42 121 0 121 C0 81.07 0 41.14 0 0 Z " fill="#FFFFFF" transform="translate(1119,102)"/>
</svg>
