<?xml version="1.0" encoding="UTF-8"?>
<svg version="1.1" xmlns="http://www.w3.org/2000/svg" width="1824" height="602">
<path d="M0 0 C2.5787431 1.42933622 5.08948698 2.93123351 7.5859375 4.5 C10.32181217 6.19996096 13.09214153 7.62259336 16 9 C16 9.66 16 10.32 16 11 C16.71414063 11.09539063 17.42828125 11.19078125 18.1640625 11.2890625 C21.45580101 12.11426416 23.57323843 13.47237108 26.375 15.375 C30.49895423 18.09268026 34.38754767 20.25751801 39 22 C39 22.66 39 23.32 39 24 C40.65 24.33 42.3 24.66 44 25 C44 25.66 44 26.32 44 27 C44.56332031 27.11472656 45.12664062 27.22945312 45.70703125 27.34765625 C54.12653435 29.74298337 61.99355015 35.72762941 69.50830078 40.17431641 C74.1687782 42.93120394 78.85215659 45.64180598 83.5625 48.3125 C87.15071843 50.35181776 90.70756761 52.40601477 94.1875 54.625 C97.04318267 56.442798 99.95554139 58.08492045 102.9375 59.6875 C111.51931544 64.31576185 119.86117199 69.36257107 128.24804688 74.33203125 C138.29445925 80.30554951 138.29445925 80.30554951 148.5 86 C153.43046193 88.65603831 158.28430282 91.43461523 163.125 94.25 C163.88490234 94.68699219 164.64480469 95.12398438 165.42773438 95.57421875 C166.13478516 95.98800781 166.84183594 96.40179688 167.5703125 96.828125 C168.52574951 97.3835498 168.52574951 97.3835498 169.50048828 97.95019531 C171 99 171 99 172 101 C173.65249487 101.70105843 175.32367583 102.35800351 177 103 C183.71894973 106.2041891 190.09198466 109.90593716 196.5 113.6875 C203.38315823 117.7292455 210.27097775 121.75090078 217.25 125.625 C224.17744076 129.47610119 230.96860019 133.54144746 237.73730469 137.66455078 C243.74535054 141.30814784 249.81220271 144.62483784 256 148 C256 248.32 256 348.64 256 452 C248.41 456.29 240.82 460.58 233 465 C227.86413167 468.14064986 227.86413167 468.14064986 222.75 471.31640625 C219.26904825 473.44750029 215.69608076 475.36921603 212.09765625 477.29296875 C207.33904406 479.91530611 202.67762034 482.7009194 198.01269531 485.48583984 C187.04927944 492 187.04927944 492 184 492 C184 492.66 184 493.32 184 494 C182.04414675 495.00484204 180.08523763 496.00373805 178.125 497 C177.03445313 497.556875 175.94390625 498.11375 174.8203125 498.6875 C172 500 172 500 170 500 C170 500.66 170 501.32 170 502 C169.02111816 502.54188965 169.02111816 502.54188965 168.02246094 503.09472656 C155.83771896 509.85074987 143.69850867 516.64435877 131.81152344 523.91503906 C126.90385994 526.9066823 121.92120518 529.70997217 116.86474609 532.44238281 C111.95925212 535.10959362 107.10736992 537.87141811 102.25 540.625 C101.26128906 541.18445313 100.27257812 541.74390625 99.25390625 542.3203125 C98.28839844 542.866875 97.32289063 543.4134375 96.328125 543.9765625 C94.95237305 544.75435059 94.95237305 544.75435059 93.54882812 545.54785156 C91.96353488 546.45104354 90.38311777 547.36292045 88.81054688 548.28808594 C84.19766931 551 84.19766931 551 82 551 C82 551.66 82 552.32 82 553 C81.48695313 553.23332031 80.97390625 553.46664062 80.4453125 553.70703125 C73.36146724 557.08199456 66.77183885 561.13581195 60.15869141 565.34106445 C59.4063623 565.8124585 58.6540332 566.28385254 57.87890625 566.76953125 C57.2041626 567.19854736 56.52941895 567.62756348 55.83422852 568.06958008 C54 569 54 569 51 569 C51 569.66 51 570.32 51 571 C50.09378906 571.43570313 49.18757813 571.87140625 48.25390625 572.3203125 C41.94821828 575.38984434 35.99929692 578.53145535 30.23828125 582.5546875 C26.83212705 584.75412389 23.18004723 586.39184032 19.52734375 588.140625 C16.72437992 589.61815632 14.10677667 591.15856756 11.44140625 592.859375 C10.64597412 593.36509033 9.85054199 593.87080566 9.03100586 594.3918457 C7.45073357 595.40703635 5.87950386 596.43647026 4.31860352 597.48120117 C-1.12134426 600.96825502 -1.12134426 600.96825502 -5.02734375 601.109375 C-9.04932451 599.60839926 -12.54708194 597.57064638 -16.1875 595.3125 C-17.70492349 594.39450026 -19.22315246 593.47783061 -20.7421875 592.5625 C-21.47405273 592.1190625 -22.20591797 591.675625 -22.95996094 591.21875 C-25.53988403 589.67746516 -28.16442164 588.23304349 -30.8125 586.8125 C-34.65722691 584.74990334 -38.42927431 582.59150967 -42.1875 580.375 C-46.71216304 577.71447454 -51.27028275 575.27390252 -56 573 C-56 572.34 -56 571.68 -56 571 C-56.69738281 570.91105469 -57.39476562 570.82210937 -58.11328125 570.73046875 C-61.64833006 569.83594354 -64.1171889 568.27585363 -67.1875 566.3125 C-68.34479701 565.5816272 -69.50235155 564.85116204 -70.66015625 564.12109375 C-72.31337891 563.07115234 -72.31337891 563.07115234 -74 562 C-78.9529323 558.95037793 -83.94065564 556.00732373 -89.0625 553.25 C-94.64095067 550.24015797 -100.09010384 547.0308091 -105.54492188 543.8046875 C-109.86492177 541.25144218 -114.19950644 538.72945732 -118.5625 536.25 C-122.89408333 533.78830798 -127.20656055 531.29838528 -131.50390625 528.77734375 C-142.0289511 522.60363952 -152.58434961 516.52994616 -163.30810547 510.70751953 C-168.59199433 507.82254436 -173.68977022 504.74505227 -178.72265625 501.4375 C-182.03141101 499.34895497 -185.46335631 497.66822816 -189 496 C-189 495.34 -189 494.68 -189 494 C-189.55163818 493.89582764 -190.10327637 493.79165527 -190.67163086 493.68432617 C-193.50361866 492.85198248 -195.71518883 491.55844526 -198.25390625 490.05078125 C-199.27419922 489.44943359 -200.29449219 488.84808594 -201.34570312 488.22851562 C-202.40724609 487.59623047 -203.46878906 486.96394531 -204.5625 486.3125 C-211.41658186 482.25129636 -218.28617548 478.26148863 -225.29663086 474.47583008 C-230.8580505 471.43972588 -236.32615778 468.23639469 -241.80859375 465.06054688 C-243.14083984 464.29387695 -243.14083984 464.29387695 -244.5 463.51171875 C-245.2940625 463.05240967 -246.088125 462.59310059 -246.90625 462.11987305 C-249.08931507 460.8765676 -249.08931507 460.8765676 -252 460 C-252 459.34 -252 458.68 -252 458 C-253.32 457.67 -254.64 457.34 -256 457 C-258.97 455.35 -261.94 453.7 -265 452 C-265 351.68 -265 251.36 -265 148 C-261.37 146.02 -257.74 144.04 -254 142 C-245.83962698 137.4509866 -237.81150603 132.70096311 -229.8125 127.875 C-223.9343944 124.32951919 -218.04815184 120.86087753 -211.98828125 117.6328125 C-207.65772722 115.26657514 -203.39389378 112.78785572 -199.125 110.3125 C-198.30314209 109.83611084 -197.48128418 109.35972168 -196.63452148 108.86889648 C-195.85020752 108.41329346 -195.06589355 107.95769043 -194.2578125 107.48828125 C-193.5143457 107.05725098 -192.77087891 106.6262207 -192.00488281 106.18212891 C-190.3560388 105.20992936 -188.73268818 104.19462162 -187.1171875 103.16796875 C-185 102 -185 102 -182 102 C-182 101.34 -182 100.68 -182 100 C-181.35675781 99.6596875 -180.71351563 99.319375 -180.05078125 98.96875 C-173.72623656 95.57641219 -167.59911049 91.95733294 -161.53125 88.125 C-157.74689154 85.79450332 -153.83392677 83.70756806 -149.92626953 81.59277344 C-145.14869834 78.99233339 -140.4195216 76.30717436 -135.6875 73.625 C-134.17712158 72.76974731 -134.17712158 72.76974731 -132.63623047 71.8972168 C-129.75683388 70.26595974 -126.87828274 68.63322137 -124 67 C-123.29343262 66.59958496 -122.58686523 66.19916992 -121.85888672 65.78662109 C-114.87514266 61.82703043 -107.92728689 57.80736848 -101 53.75 C-100.29311035 53.3372583 -99.5862207 52.9245166 -98.85791016 52.49926758 C-95.72481968 50.65748307 -92.66444693 48.78918757 -89.6875 46.703125 C-87 45 -87 45 -84 45 C-84 44.34 -84 43.68 -84 43 C-83.28457031 42.6596875 -82.56914062 42.319375 -81.83203125 41.96875 C-75.05695802 38.67324219 -68.64381285 35.02832996 -62.2578125 31.03515625 C-58.98276908 28.98923584 -55.69154279 26.97793817 -52.375 25 C-50.93253906 24.13375 -50.93253906 24.13375 -49.4609375 23.25 C-47 22 -47 22 -44 22 C-44 21.34 -44 20.68 -44 20 C-43.45214844 19.74347656 -42.90429688 19.48695312 -42.33984375 19.22265625 C-36.01031278 16.16595593 -30.03559006 12.68710664 -24.09155273 8.94750977 C-19.32031415 6 -19.32031415 6 -16 6 C-16 5.34 -16 4.68 -16 4 C-5.31380397 -2.10338074 -5.31380397 -2.10338074 0 0 Z M-7.35595703 29.85864258 C-8.14856934 30.36548584 -8.94118164 30.8723291 -9.7578125 31.39453125 C-10.63050781 31.93787109 -11.50320312 32.48121094 -12.40234375 33.04101562 C-13.30082031 33.62560547 -14.19929687 34.21019531 -15.125 34.8125 C-16.91792177 35.94614684 -18.7121372 37.07775101 -20.5078125 38.20703125 C-21.29816895 38.7172583 -22.08852539 39.22748535 -22.90283203 39.75317383 C-25 41 -25 41 -28 42 C-28 42.66 -28 43.32 -28 44 C-29.65 44.33 -31.3 44.66 -33 45 C-33 45.66 -33 46.32 -33 47 C-33.69738281 47.08894531 -34.39476562 47.17789063 -35.11328125 47.26953125 C-38.64833006 48.16405646 -41.1171889 49.72414637 -44.1875 51.6875 C-45.34352327 52.41702607 -46.49977552 53.14618942 -47.65625 53.875 C-48.7596875 54.57625 -49.863125 55.2775 -51 56 C-55.80297445 58.98115655 -60.59095033 61.84792652 -65.68359375 64.30859375 C-70.91688707 66.90421055 -75.89277638 69.83071376 -80.875 72.875 C-82.64685987 73.94707012 -84.41899354 75.01868785 -86.19140625 76.08984375 C-87.02945801 76.59757324 -87.86750977 77.10530273 -88.73095703 77.62841797 C-102.4705245 85.93365683 -116.51053179 93.78490486 -130.578125 101.51953125 C-136.35921998 104.72414939 -141.98508614 108.18511348 -147.62695312 111.62695312 C-152.65300977 114.66893807 -157.70725649 117.44846931 -163 120 C-163 120.66 -163 121.32 -163 122 C-164.08861328 122.16822266 -164.08861328 122.16822266 -165.19921875 122.33984375 C-168.12563993 123.02961387 -170.22287809 124.05510814 -172.8125 125.5625 C-173.60269531 126.01753906 -174.39289063 126.47257812 -175.20703125 126.94140625 C-175.79871094 127.29074219 -176.39039063 127.64007813 -177 128 C-177 128.66 -177 129.32 -177 130 C-177.7115625 130.27585937 -178.423125 130.55171875 -179.15625 130.8359375 C-187.80054317 134.37439817 -195.76774068 138.98931445 -203.66796875 143.9375 C-215.17841848 151.06237392 -227.17651098 157.43139499 -239 164 C-239 253.76 -239 343.52 -239 436 C-232.565 439.465 -232.565 439.465 -226 443 C-221.8208089 445.39840277 -217.65362365 447.80855709 -213.5 450.25 C-212.45585937 450.86101562 -211.41171875 451.47203125 -210.3359375 452.1015625 C-202.29310468 456.81207073 -202.29310468 456.81207073 -199.35742188 458.69433594 C-197.01174655 460.24225205 -197.01174655 460.24225205 -194 460 C-194 460.66 -194 461.32 -194 462 C-192.10545176 462.96087136 -190.20930419 463.91858969 -188.3125 464.875 C-187.25675781 465.40867187 -186.20101562 465.94234375 -185.11328125 466.4921875 C-182.44004095 467.78688105 -179.7728867 468.94023254 -177 470 C-177 470.66 -177 471.32 -177 472 C-176.03320312 472.50789063 -175.06640625 473.01578125 -174.0703125 473.5390625 C-172.75513148 474.23422961 -171.44003174 474.92955052 -170.125 475.625 C-169.49335938 475.95628906 -168.86171875 476.28757812 -168.2109375 476.62890625 C-162.68570376 479.55728013 -157.34834933 482.76252691 -152 486 C-148.35903116 488.17489152 -144.71115072 490.33802681 -141.0625 492.5 C-140.15048828 493.04269531 -139.23847656 493.58539063 -138.29882812 494.14453125 C-132.76059356 497.42441858 -127.17262102 500.58301612 -121.50561523 503.63525391 C-118.26007941 505.40301628 -115.0653829 507.25222103 -111.875 509.1171875 C-109.89303905 510.21298929 -109.89303905 510.21298929 -107 510 C-107 510.66 -107 511.32 -107 512 C-105.52853516 512.81791016 -105.52853516 512.81791016 -104.02734375 513.65234375 C-93.63806763 519.44938085 -83.27677164 525.32874859 -73.26171875 531.7578125 C-70.99181294 533.24069783 -70.99181294 533.24069783 -68 533 C-68 533.66 -68 534.32 -68 535 C-67.2265625 535.37511719 -66.453125 535.75023437 -65.65625 536.13671875 C-59.54853132 539.13766468 -53.68913419 542.26898642 -48 546 C-44.29972953 548.50612384 -44.29972953 548.50612384 -40 549 C-40 549.66 -40 550.32 -40 551 C-38.89140625 551.53367187 -37.7828125 552.06734375 -36.640625 552.6171875 C-31.51108985 555.18195508 -26.64369692 558.14086137 -21.75 561.125 C-19.99560668 562.19144609 -18.24042761 563.25660088 -16.484375 564.3203125 C-15.33533691 565.02051514 -15.33533691 565.02051514 -14.16308594 565.73486328 C-9.87187793 568.32456227 -9.87187793 568.32456227 -5 569 C-4.67 569.66 -4.34 570.32 -4 571 C-2.68 570.34 -1.36 569.68 0 569 C0 568.34 0 567.68 0 567 C0.69738281 566.91105469 1.39476562 566.82210937 2.11328125 566.73046875 C5.64833006 565.83594354 8.1171889 564.27585363 11.1875 562.3125 C12.34479701 561.5816272 13.50235155 560.85116204 14.66015625 560.12109375 C15.76230469 559.42113281 16.86445313 558.72117187 18 558 C22.95865386 554.94685504 27.95321876 552.0009361 33.08203125 549.2421875 C38.98348153 546.03496335 44.77536815 542.65801983 50.5625 539.25 C57.78535577 535.01224208 65.03016309 530.83518039 72.375 526.8125 C79.29451783 523.01918564 86.03010135 518.97467561 92.74145508 514.82568359 C97.45110585 511.92145939 102.21087996 509.18759078 107.09765625 506.58984375 C110.95032117 504.47943376 114.72139157 502.23963197 118.5 500 C123.92360242 496.78815243 129.37508927 493.67254383 134.9296875 490.69140625 C140.00919203 487.89315503 145.00610814 484.95202936 150.01757812 482.03417969 C154.27140154 479.56263733 158.53683919 477.13424296 162.875 474.8125 C166.62950846 472.79216237 170.25735423 470.63141426 173.875 468.375 C180.52102094 464.23706077 187.30796879 460.37058005 194.11621094 456.50683594 C200.10916096 453.0992493 206.04013342 449.60649712 211.93188477 446.02734375 C216.51532371 443.25533531 221.18319287 440.67967011 225.92578125 438.19140625 C228.12686757 437.04711056 228.12686757 437.04711056 230 435 C230.31188279 432.94329964 230.31188279 432.94329964 230.27402878 430.53835678 C230.28417786 429.59407468 230.29432695 428.64979257 230.30478358 427.67689586 C230.30627685 426.11010298 230.30627685 426.11010298 230.30780029 424.51165771 C230.3165648 423.40753957 230.32532931 422.30342143 230.33435941 421.16584516 C230.36121362 417.44096043 230.37351043 413.7161704 230.38574219 409.99121094 C230.4015379 407.33072689 230.41806463 404.67025516 230.43530273 402.00978088 C230.48437452 394.00759103 230.51360837 386.00537621 230.53942287 378.00308216 C230.54684498 375.7435136 230.55479158 373.48394753 230.5629282 371.22438145 C230.61339931 357.19780357 230.65751282 343.17122187 230.68238449 329.14457321 C230.68824405 325.89472184 230.69416735 322.6448706 230.70019531 319.39501953 C230.70168741 318.58726779 230.70317952 317.77951606 230.70471683 316.94728699 C230.73002865 303.85971901 230.79647859 290.77269419 230.87979898 277.68538019 C230.96461031 264.25395682 231.01177122 250.82281162 231.02222562 237.39112115 C231.02905724 229.84749171 231.05260319 222.30471104 231.11843109 214.76134491 C231.17439879 208.33728688 231.19644776 201.91425137 231.17404017 195.48996845 C231.16365521 192.2113933 231.17493089 188.9354116 231.21897125 185.65705299 C231.26414003 182.10166074 231.24788097 178.551691 231.21600342 174.99627686 C231.24376759 173.96067116 231.27153177 172.92506546 231.30013728 171.85807776 C231.2350714 168.92014755 231.07892747 166.73657892 230 164 C226.96711794 161.2758921 223.6916719 159.67084299 220 158 C218.30685337 157.09380547 216.61857301 156.17840055 214.9375 155.25 C214.03902344 154.76789063 213.14054687 154.28578125 212.21484375 153.7890625 C209.65614484 152.365145 207.14009178 150.90288406 204.62890625 149.3984375 C203.86521729 148.94178711 203.10152832 148.48513672 202.31469727 148.01464844 C200.78964606 147.09907081 199.26789562 146.17796914 197.74975586 145.25097656 C197.04858643 144.83041992 196.34741699 144.40986328 195.625 143.9765625 C194.99851562 143.59580566 194.37203125 143.21504883 193.7265625 142.82275391 C191.8673912 141.78490934 191.8673912 141.78490934 189 142 C189 141.34 189 140.68 189 140 C188.319375 139.68289062 187.63875 139.36578125 186.9375 139.0390625 C179.72941075 135.56921102 173.0307999 131.63895098 166.34570312 127.25244141 C162.49446519 124.66550743 162.49446519 124.66550743 158 124 C158 123.34 158 122.68 158 122 C157.40316406 121.68289062 156.80632812 121.36578125 156.19140625 121.0390625 C149.51281247 117.44671339 142.96682043 113.66569176 136.45532227 109.77978516 C132.57750798 107.47610566 128.66643915 105.25984289 124.69921875 103.11328125 C118.82773535 99.93107344 113.06838731 96.57320585 107.3125 93.1875 C100.41106753 89.14044227 93.49797399 85.12779597 86.5 81.25 C80.27555563 77.79601983 74.22840677 74.0964804 68.22460938 70.27246094 C62.52663745 66.33563709 62.52663745 66.33563709 56 65 C56 64.34 56 63.68 56 63 C55.28457031 62.6596875 54.56914062 62.319375 53.83203125 61.96875 C46.81326855 58.5547076 40.25583837 54.77286993 33.71484375 50.5390625 C31.08515891 48.75341476 31.08515891 48.75341476 28 49 C28 48.34 28 47.68 28 47 C26.89011719 46.46632813 25.78023438 45.93265625 24.63671875 45.3828125 C18.59786603 42.36405106 12.90798762 38.77465907 7.15820312 35.24609375 C6.30806641 34.72917969 5.45792969 34.21226563 4.58203125 33.6796875 C3.82124268 33.21288574 3.0604541 32.74608398 2.27661133 32.26513672 C-2.30608357 29.40091973 -2.30608357 29.40091973 -7.35595703 29.85864258 Z " fill="#FFFFFF" transform="translate(265,1)"/>
<path d="M0 0 C3.70730747 2.77722858 6.52172671 5.67122885 9.375 9.3125 C14.0930167 15.17877573 18.7229745 20.51588418 24.9375 24.8125 C25.948125 25.534375 26.95875 26.25625 28 27 C28 27.66 28 28.32 28 29 C29.09441406 29.39638672 29.09441406 29.39638672 30.2109375 29.80078125 C33.01122 31.00482429 35.16910693 32.39280891 37.625 34.1875 C46.40328694 40.45584712 55.47291481 45.95261937 65 51 C66.21373758 51.6467679 67.42726826 52.29392417 68.640625 52.94140625 C70.57787729 53.97511794 72.51544154 55.00820784 74.4543457 56.03881836 C78.1328865 57.99544928 81.79182352 59.98254294 85.4375 62 C90.48788721 64.7683604 95.6298634 67.32968279 100.78979492 69.88525391 C106.88834757 72.91677027 112.89543914 76.10584429 118.890625 79.3359375 C121.24496007 80.59592084 123.60264299 81.8250577 126 83 C126 83.66 126 84.32 126 85 C126.51691406 85.07476562 127.03382813 85.14953125 127.56640625 85.2265625 C131.06096345 86.33719224 133.91060294 88.359195 136.9375 90.375 C138.15450568 91.1751522 139.37194602 91.97464373 140.58984375 92.7734375 C141.17056641 93.15669189 141.75128906 93.53994629 142.34960938 93.93481445 C143.80118039 94.871679 145.28709307 95.75487737 146.77734375 96.62890625 C149.61257273 98.37787878 151.68194042 100.62093885 154 103 C154.99 103.66 155.98 104.32 157 105 C157 105.66 157 106.32 157 107 C157.66 107 158.32 107 159 107 C159 107.66 159 108.32 159 109 C159.66 109 160.32 109 161 109 C161 109.66 161 110.32 161 111 C161.66 111 162.32 111 163 111 C163 111.66 163 112.32 163 113 C163.66 113 164.32 113 165 113 C166.5078125 114.6796875 166.5078125 114.6796875 168.125 116.875 C168.66382813 117.59429687 169.20265625 118.31359375 169.7578125 119.0546875 C171 121 171 121 171 123 C171.66 123 172.32 123 173 123 C185.68994208 147.68871084 192.4062933 173.25796706 184.05859375 200.78515625 C183.70925781 201.84605469 183.35992187 202.90695312 183 204 C182.67708984 205.29744141 182.67708984 205.29744141 182.34765625 206.62109375 C179.13318123 219.41596493 171.87323373 232.27994313 163 242 C162.34 242 161.68 242 161 242 C160.731875 242.598125 160.46375 243.19625 160.1875 243.8125 C159.00082594 245.99847854 157.90400887 247.41332594 156 249 C155.34 249 154.68 249 154 249 C153.80535156 249.5671875 153.61070312 250.134375 153.41015625 250.71875 C151.42150569 253.93584674 148.5886612 255.5574018 145.4375 257.5 C144.48206299 258.09699707 144.48206299 258.09699707 143.50732422 258.70605469 C131.56493273 266.05382079 117.15127379 271.71656962 103 272 C101.73800781 272.03867187 100.47601563 272.07734375 99.17578125 272.1171875 C78.07386026 272.5636212 59.24771612 268.52230165 40 260 C40.01189865 260.64622314 40.0237973 261.29244629 40.03605652 261.95825195 C40.14945235 268.70761917 40.18533998 275.45429859 40.17700195 282.20458984 C40.1839614 284.72067233 40.21043317 287.23678173 40.25708008 289.75244141 C40.64601558 311.85621383 40.64601558 311.85621383 36.54150391 316.47265625 C33.22982304 318.92519248 30.22612998 321 26 321 C26 321.66 26 322.32 26 323 C25.25169922 323.38478516 25.25169922 323.38478516 24.48828125 323.77734375 C18.87515497 326.77033927 13.69091946 330.19076903 8.51879883 333.87670898 C2.82268956 337.91532604 2.82268956 337.91532604 0 339 C-0.66 338.67 -1.32 338.34 -2 338 C-2 337.34 -2 336.68 -2 336 C-3.02287109 335.64421875 -3.02287109 335.64421875 -4.06640625 335.28125 C-7.6282894 333.72559398 -10.73733034 331.678067 -13.9375 329.5 C-14.58412598 329.06437744 -15.23075195 328.62875488 -15.89697266 328.17993164 C-34.25166907 315.74833093 -34.25166907 315.74833093 -37 313 C-37.09353163 311.31198015 -37.11744791 309.62004793 -37.11352539 307.92944336 C-37.11344986 306.84839828 -37.11337433 305.76735321 -37.11329651 304.65354919 C-37.10813522 303.4775264 -37.10297394 302.3015036 -37.09765625 301.08984375 C-37.09553383 299.29408653 -37.09553383 299.29408653 -37.09336853 297.46205139 C-37.08774979 293.62050934 -37.07519411 289.77902457 -37.0625 285.9375 C-37.05748741 283.34049563 -37.05292409 280.74349035 -37.04882812 278.14648438 C-37.03777427 271.76430321 -37.02101792 265.3821557 -37 259 C-37.80350639 259.4091288 -37.80350639 259.4091288 -38.62324524 259.82652283 C-39.33321152 260.18533035 -40.0431778 260.54413788 -40.7746582 260.91381836 C-41.47532913 261.26907089 -42.17600006 261.62432343 -42.89790344 261.99034119 C-66.53680889 273.34435304 -98.21104981 276.23657011 -123.125 267.75 C-134.05629615 263.55600159 -143.13084526 258.66246702 -152 251 C-152.67546875 250.46890625 -153.3509375 249.9378125 -154.046875 249.390625 C-172.74241312 234.2846302 -182.97249611 208.58418634 -185.79345703 185.18994141 C-187.43340235 167.80186872 -184.96089512 151.97117111 -178 136 C-177.72446289 135.36271973 -177.44892578 134.72543945 -177.16503906 134.06884766 C-171.17972743 120.6555221 -160.94763856 108.61103474 -149 100 C-148.34 100 -147.68 100 -147 100 C-147 99.34 -147 98.68 -147 98 C-145.12890625 96.484375 -145.12890625 96.484375 -142.5625 94.75 C-141.64339844 94.12738281 -140.72429687 93.50476563 -139.77734375 92.86328125 C-138.86082031 92.24839844 -137.94429687 91.63351563 -137 91 C-136.25878906 90.47792969 -135.51757812 89.95585937 -134.75390625 89.41796875 C-129.87403626 86.02444448 -124.8385122 83.35466325 -119.49609375 80.76171875 C-115.30146409 78.64800034 -111.21789925 76.36537378 -107.125 74.0625 C-101.84803094 71.09971258 -96.56029405 68.22887066 -91.125 65.5625 C-84.26961495 62.19902654 -77.59896703 58.52966645 -70.92626953 54.81860352 C-58.65448999 48 -58.65448999 48 -56 48 C-56 47.34 -56 46.68 -56 46 C-55.38253906 45.70867187 -54.76507813 45.41734375 -54.12890625 45.1171875 C-48.70725317 42.49300838 -43.72758761 39.62116479 -38.8125 36.13671875 C-37 35 -37 35 -35 35 C-35 34.34 -35 33.68 -35 33 C-34.01 33 -33.02 33 -32 33 C-32 32.34 -32 31.68 -32 31 C-30.5390625 29.7109375 -30.5390625 29.7109375 -28.625 28.375 C-27.99851563 27.92898437 -27.37203125 27.48296875 -26.7265625 27.0234375 C-25 26 -25 26 -23 26 C-23 25.34 -23 24.68 -23 24 C-22.34 24 -21.68 24 -21 24 C-21 23.34 -21 22.68 -21 22 C-18.525 21.01 -18.525 21.01 -16 20 C-16 19.34 -16 18.68 -16 18 C-15.34 18 -14.68 18 -14 18 C-13.61134766 17.13375 -13.61134766 17.13375 -13.21484375 16.25 C-11.90662543 13.82706189 -10.41134269 12.03571496 -8.5625 10 C-6.72102941 7.96364376 -4.99304129 5.99019996 -3.40234375 3.75 C-2.70818359 2.88375 -2.70818359 2.88375 -2 2 C-1.34 2 -0.68 2 0 2 C0 1.34 0 0.68 0 0 Z M0 38 C-0.48210937 38.68578125 -0.96421875 39.3715625 -1.4609375 40.078125 C-4.78141974 43.8992338 -8.58134698 46.73082954 -12.625 49.75 C-13.40101563 50.33910156 -14.17703125 50.92820312 -14.9765625 51.53515625 C-20.67044005 55.83522003 -20.67044005 55.83522003 -23 57 C-23 57.66 -23 58.32 -23 59 C-23.9590625 59.3403125 -23.9590625 59.3403125 -24.9375 59.6875 C-29.13320261 61.48565826 -33.03900556 63.73904021 -37 66 C-37 66.66 -37 67.32 -37 68 C-38.29357422 68.38671875 -38.29357422 68.38671875 -39.61328125 68.78125 C-43.10629997 70.03825328 -45.99874596 71.60461392 -49.1875 73.5 C-59.98460397 79.81673323 -71.08653097 85.60943711 -82.3125 91.125 C-87.87825057 93.87678171 -93.24274168 96.94625046 -98.61328125 100.0546875 C-101.63656906 101.79124728 -104.68083681 103.4713747 -107.75 105.125 C-111.42245258 107.12220304 -115.07221161 109.15080029 -118.6875 111.25 C-119.51636719 111.72953125 -120.34523437 112.2090625 -121.19921875 112.703125 C-121.79347656 113.13109375 -122.38773438 113.5590625 -123 114 C-123 114.66 -123 115.32 -123 116 C-123.85851562 116.15662109 -123.85851562 116.15662109 -124.734375 116.31640625 C-127.36985768 117.11159499 -129.06031308 118.27901491 -131.25 119.9375 C-131.95640625 120.46214844 -132.6628125 120.98679687 -133.390625 121.52734375 C-134.18726563 122.25630859 -134.18726563 122.25630859 -135 123 C-135 123.66 -135 124.32 -135 125 C-135.58136719 125.25910156 -136.16273438 125.51820313 -136.76171875 125.78515625 C-147.4602024 131.5918376 -154.5208957 144.75847205 -158 156 C-163.24401184 175.50772404 -159.39626519 195.0811748 -150 212.546875 C-148.10174753 215.82432652 -146.24411362 218.95174566 -144 222 C-143.34 222 -142.68 222 -142 222 C-141.773125 222.556875 -141.54625 223.11375 -141.3125 223.6875 C-139.62449964 226.66159588 -137.53323483 228.72008865 -135 231 C-134.34 231 -133.68 231 -133 231 C-133 231.66 -133 232.32 -133 233 C-112.76974814 245.11512949 -92.61715669 248.59396133 -69.24194336 242.83398438 C-53.56417782 238.59279447 -35.19083702 231.27930749 -24 219 C-23.67 218.34 -23.34 217.68 -23 217 C-21.66666667 216.33333333 -20.33333333 215.66666667 -19 215 C-17.77270291 214.15795388 -16.55727804 213.29844949 -15.3515625 212.42578125 C-14.72330566 211.97243408 -14.09504883 211.51908691 -13.44775391 211.05200195 C-12.73111572 210.53126099 -12.73111572 210.53126099 -12 210 C-12.01189865 211.0994545 -12.0237973 212.198909 -12.03605652 213.3316803 C-12.14112181 223.70457985 -12.18818031 234.07634616 -12.17878246 244.44979191 C-12.17580633 249.78288047 -12.19310111 255.11428252 -12.25708008 260.44702148 C-12.3181023 265.59596542 -12.32540824 270.74246804 -12.29583168 275.89166069 C-12.29393144 277.8536681 -12.31122842 279.81579301 -12.34822655 281.77745247 C-12.90487332 292.51453703 -12.90487332 292.51453703 -8.64028931 301.87033081 C-5.70284499 303.90449613 -3.4909716 305.23117743 0 306 C2.72275987 305.29545064 2.72275987 305.29545064 5 304 C5.66 303.67 6.32 303.34 7 303 C7 302.34 7 301.68 7 301 C8.65 300.34 10.3 299.68 12 299 C12 269.63 12 240.26 12 210 C13.32 210 14.64 210 16 210 C16.33 210.99 16.66 211.98 17 213 C18.79644549 214.50901421 20.66273551 215.9358246 22.5625 217.3125 C23.6707632 218.11953043 24.77883622 218.92682207 25.88671875 219.734375 C26.91410156 220.48203125 27.94148437 221.2296875 29 222 C30.29313112 223.01897762 31.58503305 224.03951968 32.875 225.0625 C54.77591947 241.38616668 81.28576173 247.84378711 108.30419922 244.73486328 C120.37112588 242.83916136 130.93726394 235.9509506 140 228 C140 227.34 140 226.68 140 226 C140.66 226 141.32 226 142 226 C143.3606009 224.51363242 143.3606009 224.51363242 144.625 222.625 C145.07101562 221.99851562 145.51703125 221.37203125 145.9765625 220.7265625 C147.16996969 219.04777357 147.16996969 219.04777357 147 217 C147.66 217 148.32 217 149 217 C153.69255262 208.2080545 157.43341414 199.68679178 160 190 C160.1743457 189.38366699 160.34869141 188.76733398 160.52832031 188.13232422 C164.06305147 172.15285116 160.96156258 154.68752885 152.5 140.875 C151.36133302 139.2302588 150.19718987 137.60264548 149 136 C148.50886719 135.33871094 148.01773437 134.67742187 147.51171875 133.99609375 C146.10483777 132.15484461 146.10483777 132.15484461 144 130 C143.34 130 142.68 130 142 130 C141.67 129.01 141.34 128.02 141 127 C137.52064528 123.35986933 137.52064528 123.35986933 133 122 C133 121.34 133 120.68 133 120 C130.67745076 118.28424291 128.3585475 116.69035211 125.9375 115.125 C125.28072266 114.69058594 124.62394531 114.25617188 123.94726562 113.80859375 C119.718148 111.03362593 115.40487102 108.48493317 111 106 C109.47647873 105.06687449 107.95540156 104.12973943 106.4375 103.1875 C101.99860838 100.51483403 97.44792272 98.16913242 92.79980469 95.88305664 C85.24925653 92.16091308 77.8251391 88.20074833 70.38720703 84.25976562 C68.08427924 83.04447544 65.77573311 81.8406941 63.46484375 80.640625 C55.59925433 76.54106404 47.98074355 72.26597651 40.5390625 67.43359375 C38.05057701 65.75417005 38.05057701 65.75417005 35 66 C35 65.34 35 64.68 35 64 C32.79189451 62.38413685 32.79189451 62.38413685 30 60.75 C25.6447385 58.06940679 21.55753553 55.25059482 17.55859375 52.06640625 C16.03964778 50.81177203 16.03964778 50.81177203 14 51 C14 50.34 14 49.68 14 49 C12.47047124 47.62517548 10.87477094 46.32334103 9.25 45.0625 C8.36828125 44.37285156 7.4865625 43.68320313 6.578125 42.97265625 C4.39478097 41.30206725 2.20423948 39.64287942 0 38 Z " fill="#FFFFFF" transform="translate(260,129)"/>
<path d="M0 0 C1.07797852 0.20061035 2.15595703 0.4012207 3.26660156 0.60791016 C12.39810757 2.43676127 20.47157583 5.57341417 28.75 9.8125 C30.21566406 10.55886719 30.21566406 10.55886719 31.7109375 11.3203125 C32.59007812 11.77148438 33.46921875 12.22265625 34.375 12.6875 C35.70744681 13.35593677 37.04040405 14.02336457 38.375 14.6875 C38.375 15.3475 38.375 16.0075 38.375 16.6875 C39.179375 17.0278125 39.179375 17.0278125 40 17.375 C43.19960161 19.14320089 45.66537223 21.22420203 48.375 23.6875 C48.375 24.3475 48.375 25.0075 48.375 25.6875 C49.035 25.6875 49.695 25.6875 50.375 25.6875 C50.375 26.3475 50.375 27.0075 50.375 27.6875 C51.014375 27.790625 51.65375 27.89375 52.3125 28 C52.993125 28.226875 53.67375 28.45375 54.375 28.6875 C54.705 29.6775 55.035 30.6675 55.375 31.6875 C56.055625 32.368125 56.73625 33.04875 57.4375 33.75 C58.076875 34.389375 58.71625 35.02875 59.375 35.6875 C59.375 36.3475 59.375 37.0075 59.375 37.6875 C60.035 37.6875 60.695 37.6875 61.375 37.6875 C62.09816406 39.15123047 62.09816406 39.15123047 62.8359375 40.64453125 C63.47385158 41.92974049 64.11187831 43.21489382 64.75 44.5 C65.06710937 45.14259766 65.38421875 45.78519531 65.7109375 46.44726562 C67.13958611 49.31944461 68.59285473 52.0142821 70.375 54.6875 C75.21327084 66.9139286 76.13936012 78.53392694 75.97192383 91.59179688 C75.93729292 94.58037077 75.95141985 97.56602426 75.97070312 100.5546875 C75.96201833 110.39124517 75.6064547 118.64023136 71.375 127.6875 C71.00740145 129.07470334 70.6722448 130.4710387 70.375 131.875 C69.40386823 135.57743989 68.10123258 138.49694691 66.27734375 141.828125 C65.33852295 143.76266484 64.82509348 145.59015719 64.375 147.6875 C63.715 147.6875 63.055 147.6875 62.375 147.6875 C62.045 149.3375 61.715 150.9875 61.375 152.6875 C60.715 152.6875 60.055 152.6875 59.375 152.6875 C58.715 154.3375 58.055 155.9875 57.375 157.6875 C56.715 157.6875 56.055 157.6875 55.375 157.6875 C55.375 158.3475 55.375 159.0075 55.375 159.6875 C54.715 159.6875 54.055 159.6875 53.375 159.6875 C53.106875 160.326875 52.83875 160.96625 52.5625 161.625 C51.375 163.6875 51.375 163.6875 48.375 164.6875 C48.045 165.6775 47.715 166.6675 47.375 167.6875 C45.37378825 170.05256843 44.40700339 170.6768322 41.375 171.6875 C41.045 172.3475 40.715 173.0075 40.375 173.6875 C8.43591779 191.8347058 -31.99745516 196.02398123 -67.5703125 186.8515625 C-79.68325387 183.48273975 -91.96610819 178.67009445 -101.1875 169.88671875 C-102.73371239 168.44854204 -102.73371239 168.44854204 -105.625 167.6875 C-105.625 167.0275 -105.625 166.3675 -105.625 165.6875 C-106.3675 165.48125 -107.11 165.275 -107.875 165.0625 C-111.41996959 163.29001521 -112.57298396 161.01318116 -114.625 157.6875 C-115.285 157.3575 -115.945 157.0275 -116.625 156.6875 C-116.625 156.0275 -116.625 155.3675 -116.625 154.6875 C-117.285 154.6875 -117.945 154.6875 -118.625 154.6875 C-120.0856285 152.04011084 -120.625 150.79301666 -120.625 147.6875 C-121.285 147.6875 -121.945 147.6875 -122.625 147.6875 C-122.625 147.0275 -122.625 146.3675 -122.625 145.6875 C-123.285 145.6875 -123.945 145.6875 -124.625 145.6875 C-125.29739664 143.67031008 -125.96801828 141.65252066 -126.6328125 139.6328125 C-127.35323372 137.49423928 -128.10179106 135.3650795 -128.8671875 133.2421875 C-135.91789715 113.25822345 -139.19607063 85.96912717 -131.625 65.6875 C-130.91043678 63.39776822 -130.20211606 61.10607914 -129.5 58.8125 C-129.14679688 57.66007812 -128.79359375 56.50765625 -128.4296875 55.3203125 C-128.16414063 54.45148438 -127.89859375 53.58265625 -127.625 52.6875 C-126.965 52.6875 -126.305 52.6875 -125.625 52.6875 C-125.295 50.3775 -124.965 48.0675 -124.625 45.6875 C-123.965 45.6875 -123.305 45.6875 -122.625 45.6875 C-122.521875 45.15125 -122.41875 44.615 -122.3125 44.0625 C-121.44407303 41.06247956 -120.06879704 38.4495465 -118.625 35.6875 C-117.965 35.6875 -117.305 35.6875 -116.625 35.6875 C-116.3775 35.11 -116.13 34.5325 -115.875 33.9375 C-114.44200012 31.35810021 -112.84075324 29.62628408 -110.625 27.6875 C-109.965 27.6875 -109.305 27.6875 -108.625 27.6875 C-108.295 26.6975 -107.965 25.7075 -107.625 24.6875 C-105.95833333 24.02083333 -104.29166667 23.35416667 -102.625 22.6875 C-102.13 21.2025 -102.13 21.2025 -101.625 19.6875 C-100.965 19.6875 -100.305 19.6875 -99.625 19.6875 C-99.625 19.0275 -99.625 18.3675 -99.625 17.6875 C-97.975 17.3575 -96.325 17.0275 -94.625 16.6875 C-94.625 16.0275 -94.625 15.3675 -94.625 14.6875 C-64.13489816 -2.04094978 -34.29235986 -6.45233979 0 0 Z M-58.625 36.6875 C-58.625 37.3475 -58.625 38.0075 -58.625 38.6875 C-59.285 38.6875 -59.945 38.6875 -60.625 38.6875 C-62.31232044 39.95806525 -62.31232044 39.95806525 -63.625 41.6875 C-63.625 42.6775 -63.625 43.6675 -63.625 44.6875 C-64.285 44.6875 -64.945 44.6875 -65.625 44.6875 C-66.80703738 46.88874308 -67.97040108 49.09691829 -69.125 51.3125 C-69.45886719 51.92996094 -69.79273438 52.54742187 -70.13671875 53.18359375 C-72.20969428 57.20262794 -73.01360447 60.17691245 -72.625 64.6875 C-73.615 65.1825 -73.615 65.1825 -74.625 65.6875 C-75.0945746 68.04458033 -75.42900895 70.30469267 -75.6875 72.6875 C-75.76983887 73.39068359 -75.85217773 74.09386719 -75.93701172 74.81835938 C-76.82117457 82.75306442 -77.25005838 90.71505724 -77.625 98.6875 C-76.965 98.6875 -76.305 98.6875 -75.625 98.6875 C-75.65980469 99.66847656 -75.69460938 100.64945312 -75.73046875 101.66015625 C-76.16832643 119.08514933 -72.34253945 131.75620077 -63.625 146.6875 C-62.965 146.6875 -62.305 146.6875 -61.625 146.6875 C-61.356875 147.285625 -61.08875 147.88375 -60.8125 148.5 C-57.63549708 154.35237381 -51.64963469 157.7104995 -45.5625 159.9375 C-31.76997163 163.4589966 -17.23881173 162.22066258 -4.625 155.6875 C-4.625 155.0275 -4.625 154.3675 -4.625 153.6875 C-3.7896875 153.5946875 -3.7896875 153.5946875 -2.9375 153.5 C1.51501497 151.93560285 3.88454295 148.53311561 6.1875 144.5625 C7.56588008 141.74380125 7.56588008 141.74380125 7.375 138.6875 C8.035 138.6875 8.695 138.6875 9.375 138.6875 C16.39555767 124.25437382 18.73430901 109.20000578 18.625 93.25 C18.63273437 92.12529297 18.64046875 91.00058594 18.6484375 89.84179688 C18.61404258 74.87140831 15.6516732 62.16482367 9.375 48.6875 C8.715 48.6875 8.055 48.6875 7.375 48.6875 C7.045 47.0375 6.715 45.3875 6.375 43.6875 C5.715 43.6875 5.055 43.6875 4.375 43.6875 C4.23384766 42.80384766 4.23384766 42.80384766 4.08984375 41.90234375 C2.26527039 36.24915745 -4.40234765 32.59027705 -9.375 29.875 C-26.25587233 21.95557841 -44.43972583 25.45749128 -58.625 36.6875 Z " fill="#FFFFFF" transform="translate(1748.625,207.3125)"/>
<path d="M0 0 C20.68866365 -0.09270405 41.37727705 -0.16403378 62.0661068 -0.20724869 C71.67288674 -0.2278499 81.27953504 -0.25592374 90.88623047 -0.30175781 C99.26210198 -0.34170042 107.63787812 -0.36745055 116.01384223 -0.37635398 C120.44646556 -0.38155618 124.8788161 -0.39373208 129.31135178 -0.42292023 C133.48923285 -0.45020683 137.66673051 -0.45841845 141.84469223 -0.45243073 C143.37244251 -0.45352507 144.90020651 -0.46139991 146.42787933 -0.4768219 C155.03285756 -0.55937944 162.24735141 -0.04281424 170 4 C171.06768647 4.51345789 171.06768647 4.51345789 172.15694237 5.03728867 C174.20487777 6.10701681 175.52337914 7.22805497 177 9 C177 9.66 177 10.32 177 11 C177.598125 11.103125 178.19625 11.20625 178.8125 11.3125 C182.64185316 12.51601099 183.77546002 14.59250152 185.6875 18.0625 C187 21 187 21 187 23 C187.99 23.33 188.98 23.66 190 24 C190 24.66 190 25.32 190 26 C190.66 26.33 191.32 26.66 192 27 C195.2816216 32.72991803 197.02783377 38.1004139 198.25 44.5625 C198.50148804 45.87686035 198.50148804 45.87686035 198.75805664 47.21777344 C202.38579937 67.43870446 198.88561159 84.34209046 189 102 C188.34 102 187.68 102 187 102 C186.67 102.99 186.34 103.98 186 105 C185.34 105 184.68 105 184 105 C184 105.99 184 106.98 184 108 C183.01 108 182.02 108 181 108 C180.62875 108.9590625 180.62875 108.9590625 180.25 109.9375 C179 112 179 112 176.875 112.75 C176.25625 112.8325 175.6375 112.915 175 113 C175 113.66 175 114.32 175 115 C158.38504188 123.92284788 140.15286431 125.18817084 121.59692383 125.13037109 C119.59652278 125.12508982 117.59610242 125.13080915 115.59570312 125.13671875 C104.6744452 125.12613101 93.94455066 124.54722753 83 124 C83 146.11 83 168.22 83 191 C64.19 191 45.38 191 26 191 C26.00112793 186.50318604 26.00225586 182.00637207 26.00341797 177.37329102 C26.00279035 162.51329522 25.96963146 147.65350344 25.9197216 132.79359531 C25.89025583 123.7842918 25.87189079 114.77522372 25.87988281 105.76586914 C25.8868223 97.91100798 25.872705 90.05651136 25.83356392 82.20173973 C25.81357707 78.04463258 25.80395759 73.88809746 25.81957626 69.73095894 C25.83396321 65.81295792 25.82006197 61.89604685 25.78504753 57.97818565 C25.77712008 56.54519717 25.77927063 55.11210941 25.79260826 53.67916107 C25.86704329 44.93846679 25.24825965 38.49343466 19 32 C15.57805114 29.13600689 12.75374764 28.24656693 8.375 27.3125 C7.22773437 27.06113281 6.08046875 26.80976563 4.8984375 26.55078125 C2.16424431 25.93777127 2.16424431 25.93777127 0 26 C0 17.42 0 8.84 0 0 Z M83 36 C83 52.83 83 69.66 83 87 C90.32212773 87.08400147 97.64249966 87.16412198 104.96469116 87.20700073 C108.37478354 87.2280797 111.78447497 87.25622326 115.19433594 87.30175781 C119.11127806 87.3537335 123.02805935 87.37298269 126.9453125 87.390625 C128.76906906 87.42159271 128.76906906 87.42159271 130.62966919 87.45318604 C137.01448981 87.45487706 141.22098083 87.45520952 146 83 C147.38868516 80.89960669 147.38868516 80.89960669 148 79 C148.66 79 149.32 79 150 79 C153.80204389 70.28698276 154.99723022 58.20923155 152 49 C151.34 49 150.68 49 150 49 C149.9175 48.278125 149.835 47.55625 149.75 46.8125 C148.84286169 43.41073132 147.39989121 41.54533916 145 39 C144.34 39 143.68 39 143 39 C143 38.34 143 37.68 143 37 C139.92147409 35.21389983 137.70323477 34.75107081 134.15893555 34.75708008 C133.20081467 34.75400345 132.24269379 34.75092682 131.25553894 34.74775696 C130.22632828 34.75494247 129.19711761 34.76212799 128.13671875 34.76953125 C127.07137405 34.76998947 126.00602936 34.77044769 124.90840149 34.7709198 C122.65482469 34.77393987 120.40124994 34.78181881 118.14770508 34.79418945 C114.71102432 34.81237552 111.27461436 34.8146995 107.83789062 34.81445312 C105.64583102 34.81937145 103.45377323 34.82520113 101.26171875 34.83203125 C99.7270118 34.83370049 99.7270118 34.83370049 98.16130066 34.83540344 C96.70993462 34.84497322 96.70993462 34.84497322 95.22924805 34.85473633 C93.96494209 34.86045403 93.96494209 34.86045403 92.6750946 34.86628723 C89.43204618 35.02838878 86.2144622 35.54079111 83 36 Z " fill="#FFFFFF" transform="translate(556,207)"/>
<path d="M0 0 C8.29266122 -0.11579655 16.58498534 -0.2046645 24.87825489 -0.25906086 C28.72910405 -0.28516727 32.57940058 -0.32058231 36.42993164 -0.37719727 C40.14524967 -0.43148295 43.86003586 -0.46141268 47.57571983 -0.47438622 C48.99398868 -0.48363259 50.41222806 -0.50168912 51.83027077 -0.52865028 C53.81470023 -0.56488313 55.7996637 -0.56704187 57.78442383 -0.56762695 C59.47986076 -0.58428154 59.47986076 -0.58428154 61.20954895 -0.60127258 C64 0 64 0 65.81278992 2.35139465 C67.11043839 5.24638244 68.2841791 8.14537513 69.375 11.125 C71.00660012 15.49076638 72.75618932 19.72514275 74.75 23.9375 C76.47263468 27.63117435 77.66662239 30.88834284 78 35 C78.66 35 79.32 35 80 35 C80.19335938 35.59167969 80.38671875 36.18335938 80.5859375 36.79296875 C81.70737587 40.19614558 82.81899438 43.56177587 84.1875 46.875 C85 49 85 49 85 52 C85.66 52 86.32 52 87 52 C87.39832031 53.07378906 87.79664063 54.14757812 88.20703125 55.25390625 C88.74209782 56.69013758 89.27725914 58.12633362 89.8125 59.5625 C90.07353516 60.26697266 90.33457031 60.97144531 90.60351562 61.69726562 C92.28108711 66.19150033 94.09423622 70.59795409 96 75 C96.71050382 76.90544207 97.42061399 78.81103788 98.125 80.71875 C99.15326633 83.39958721 100.26078443 86.04123803 101.375 88.6875 C103.15131228 92.90823008 104.82737908 97.1507472 106.4375 101.4375 C108.1046245 105.82412133 109.92740552 110.07245695 111.9375 114.3125 C114.55724636 119.86098844 116.71729532 125.48785816 118.8112793 131.24682617 C120.56329711 136.00197256 122.62615237 140.48077008 124.98046875 144.97265625 C126.28477099 147.56626875 127.11825913 150.23721195 128 153 C128.57117023 154.29709102 129.15623122 155.58809705 129.75 156.875 C132.01517141 161.86175796 133.88551142 166.9737591 135.77709961 172.11010742 C137.41773287 176.53516259 139.18525116 180.8521448 141.23828125 185.10546875 C142 187 142 187 143 192 C121.22 192 99.44 192 77 192 C75.02 186.72 73.04 181.44 71 176 C69.4927113 172.53597101 69.4927113 172.53597101 67.9453125 169.08984375 C66.8367547 166.63910646 65.78122053 164.171804 64.75 161.6875 C64.41484375 160.88699219 64.0796875 160.08648437 63.734375 159.26171875 C63 157 63 157 63 153 C62.34 152.67 61.68 152.34 61 152 C59.35 147.05 57.7 142.1 56 137 C31.91 136.67 7.82 136.34 -17 136 C-17 136.66 -17 137.32 -17 138 C-17.66 138 -18.32 138 -19 138 C-19.103125 138.845625 -19.20625 139.69125 -19.3125 140.5625 C-20.0828854 144.41442701 -21.36274514 147.44075031 -23 151 C-23.66 151 -24.32 151 -25 151 C-25.0928125 152.36125 -25.0928125 152.36125 -25.1875 153.75 C-26.23253507 161.12496181 -30.07613944 167.96588078 -33.125 174.6875 C-34.78592803 178.37100974 -36.09432759 182.09874026 -37.2890625 185.95703125 C-38 188 -38 188 -40 192 C-52.54 192 -65.08 192 -78 192 C-75 182 -75 182 -74 179 C-73.34 179 -72.68 179 -72 179 C-71.87625 178.13375 -71.7525 177.2675 -71.625 176.375 C-71.01941879 173.10486147 -70.11693965 170.12743101 -69 167 C-68.34 167 -67.68 167 -67 167 C-66.67 164.69 -66.34 162.38 -66 160 C-65.34 160 -64.68 160 -64 160 C-63.67 157.69 -63.34 155.38 -63 153 C-62.34 153 -61.68 153 -61 153 C-60.88785156 152.16210938 -60.77570312 151.32421875 -60.66015625 150.4609375 C-59.93580244 146.66343766 -58.77179115 143.25153492 -57.4375 139.625 C-57.20353516 138.98433594 -56.96957031 138.34367188 -56.72851562 137.68359375 C-56.15700381 136.1206839 -55.57915771 134.56009273 -55 133 C-54.34 133 -53.68 133 -53 133 C-52.67 130.69 -52.34 128.38 -52 126 C-51.34 126 -50.68 126 -50 126 C-49.9175 125.030625 -49.835 124.06125 -49.75 123.0625 C-49.19254269 119.07142879 -47.69484878 115.78037887 -45.98828125 112.15625 C-44.77160922 109.50169285 -43.85812198 106.78889643 -43 104 C-42.34 104 -41.68 104 -41 104 C-40.67 101.69 -40.34 99.38 -40 97 C-39.34 97 -38.68 97 -38 97 C-37.9175 96.195625 -37.835 95.39125 -37.75 94.5625 C-36.97864266 90.89855263 -35.74648976 88.00658379 -34.1796875 84.6328125 C-31.02805902 77.59904562 -28.39343719 70.32303947 -26 63 C-25.34 63 -24.68 63 -24 63 C-23.67 60.36 -23.34 57.72 -23 55 C-22.34 55 -21.68 55 -21 55 C-20.67 53.02 -20.34 51.04 -20 49 C-19.34 49 -18.68 49 -18 49 C-17.67 46.36 -17.34 43.72 -17 41 C-16.34 41 -15.68 41 -15 41 C-14.938125 40.071875 -14.87625 39.14375 -14.8125 38.1875 C-14.18531481 33.81462547 -12.36733825 30.22409118 -10.4765625 26.265625 C-7.63680824 19.98511028 -5.36297707 13.4717963 -3 7 C-2.34 7 -1.68 7 -1 7 C-0.67 4.69 -0.34 2.38 0 0 Z M18 47 C17.68546875 47.89460938 17.3709375 48.78921875 17.046875 49.7109375 C16.61890625 50.92007813 16.1909375 52.12921875 15.75 53.375 C15.52546143 54.00970215 15.30092285 54.6444043 15.06958008 55.29833984 C13.42686996 59.90303806 11.63753867 64.42451517 9.69921875 68.9140625 C8.78811645 71.26543126 8.78811645 71.26543126 9 75 C8.34 75 7.68 75 7 75 C6.67 77.31 6.34 79.62 6 82 C5.34 82 4.68 82 4 82 C3.67 84.31 3.34 86.62 3 89 C2.34 89 1.68 89 1 89 C0.71125 90.051875 0.4225 91.10375 0.125 92.1875 C-1 96 -1 96 -3 101 C11.52 101 26.04 101 41 101 C40.67 100.01 40.34 99.02 40 98 C39.34 98 38.68 98 38 98 C37.505 94.04 37.505 94.04 37 90 C36.34 90 35.68 90 35 90 C34.505 86.04 34.505 86.04 34 82 C33.34 82 32.68 82 32 82 C31.505 78.04 31.505 78.04 31 74 C30.34 74 29.68 74 29 74 C28.9175 73.01 28.835 72.02 28.75 71 C28.22628465 67.30448749 26.87561009 64.59041874 25.12109375 61.33203125 C22.91818664 56.74967743 21.51767079 51.84363018 20 47 C19.34 47 18.68 47 18 47 Z " fill="#FFFFFF" transform="translate(938,207)"/>
<path d="M0 0 C1.47583955 0.0001591 2.95168467 0.00585225 4.42749023 0.01586914 C5.20293686 0.01728409 5.97838348 0.01869904 6.77732849 0.02015686 C9.26361893 0.02577194 11.74982059 0.03832693 14.23608398 0.05102539 C15.91772331 0.05603845 17.59936405 0.06060169 19.28100586 0.06469727 C23.41189965 0.07574626 27.54272674 0.09302094 31.67358398 0.11352539 C31.67358398 0.77352539 31.67358398 1.43352539 31.67358398 2.11352539 C32.79249023 2.06067383 33.91139648 2.00782227 35.06420898 1.95336914 C40.13332269 1.96117121 44.60613371 3.19014004 49.42358398 4.67602539 C50.29958252 4.9419751 51.17558105 5.2079248 52.078125 5.48193359 C59.31115204 7.78483758 65.35558461 10.88445936 71.67358398 15.11352539 C72.60299805 15.6355957 73.53241211 16.15766602 74.48999023 16.69555664 C75.21057617 17.16348633 75.93116211 17.63141602 76.67358398 18.11352539 C76.67358398 18.77352539 76.67358398 19.43352539 76.67358398 20.11352539 C77.24592773 20.36102539 77.81827148 20.60852539 78.40795898 20.86352539 C81.0236901 22.30668738 82.82131854 23.99568761 84.92358398 26.11352539 C85.62999023 26.81477539 86.33639648 27.51602539 87.06420898 28.23852539 C88.67358398 30.11352539 88.67358398 30.11352539 88.67358398 32.11352539 C89.33358398 32.11352539 89.99358398 32.11352539 90.67358398 32.11352539 C100.67358398 45.65569407 100.67358398 45.65569407 100.67358398 53.11352539 C101.33358398 53.11352539 101.99358398 53.11352539 102.67358398 53.11352539 C102.67358398 54.76352539 102.67358398 56.41352539 102.67358398 58.11352539 C86.50358398 58.11352539 70.33358398 58.11352539 53.67358398 58.11352539 C51.34025065 53.44685872 49.00691732 48.78019206 46.67358398 44.11352539 C46.01358398 44.11352539 45.35358398 44.11352539 44.67358398 44.11352539 C44.34358398 43.12352539 44.01358398 42.13352539 43.67358398 41.11352539 C43.01358398 40.78352539 42.35358398 40.45352539 41.67358398 40.11352539 C41.67358398 39.45352539 41.67358398 38.79352539 41.67358398 38.11352539 C40.68358398 38.11352539 39.69358398 38.11352539 38.67358398 38.11352539 C37.64883632 37.13890125 36.6513424 36.13528294 35.67358398 35.11352539 C33.74386695 33.95033577 33.74386695 33.95033577 31.67358398 32.98852539 C30.99295898 32.65594727 30.31233398 32.32336914 29.61108398 31.98071289 C20.33830914 27.83039834 5.35771789 28.56037632 -4.01391602 32.05102539 C-5.46339409 32.71289836 -6.90409345 33.39515152 -8.32641602 34.11352539 C-9.81141602 34.60852539 -9.81141602 34.60852539 -11.32641602 35.11352539 C-12.03908513 36.42284772 -12.7014089 37.76016353 -13.32641602 39.11352539 C-14.24897583 40.26804311 -15.20910217 41.3933811 -16.20141602 42.48852539 C-19.60737345 46.36915171 -22.6771303 50.16566825 -24.32641602 55.11352539 C-24.98641602 55.11352539 -25.64641602 55.11352539 -26.32641602 55.11352539 C-26.42954102 55.91790039 -26.53266602 56.72227539 -26.63891602 57.55102539 C-27.60460022 62.55502536 -29.04001538 67.54072412 -31.32641602 72.11352539 C-34.99595846 89.44340834 -37.78695643 116.93274185 -29.32641602 133.11352539 C-29.20141602 135.86352539 -29.20141602 135.86352539 -29.32641602 138.11352539 C-28.66641602 138.44352539 -28.00641602 138.77352539 -27.32641602 139.11352539 C-25.32729215 143.20742499 -24.02869652 147.61893015 -23.32641602 152.11352539 C-22.66641602 152.11352539 -22.00641602 152.11352539 -21.32641602 152.11352539 C-19.70141602 153.42602539 -19.70141602 153.42602539 -18.32641602 155.11352539 C-18.32641602 156.10352539 -18.32641602 157.09352539 -18.32641602 158.11352539 C-17.66641602 158.11352539 -17.00641602 158.11352539 -16.32641602 158.11352539 C-16.32641602 159.10352539 -16.32641602 160.09352539 -16.32641602 161.11352539 C-15.00641602 161.44352539 -13.68641602 161.77352539 -12.32641602 162.11352539 C-12.32641602 162.77352539 -12.32641602 163.43352539 -12.32641602 164.11352539 C-11.02704102 164.51571289 -11.02704102 164.51571289 -9.70141602 164.92602539 C-6.32641602 166.11352539 -6.32641602 166.11352539 -3.32641602 167.67602539 C-0.2657801 169.1425801 2.32058273 169.71435857 5.67358398 170.11352539 C5.67358398 170.77352539 5.67358398 171.43352539 5.67358398 172.11352539 C9.63358398 172.11352539 13.59358398 172.11352539 17.67358398 172.11352539 C17.67358398 171.45352539 17.67358398 170.79352539 17.67358398 170.11352539 C18.27944336 170.0271582 18.88530273 169.94079102 19.50952148 169.85180664 C26.28841308 168.71503866 31.67337639 166.39784955 37.67358398 163.11352539 C38.40834961 162.79383789 39.14311523 162.47415039 39.90014648 162.14477539 C42.02107667 161.17295323 42.02107667 161.17295323 42.67358398 158.11352539 C43.33358398 158.11352539 43.99358398 158.11352539 44.67358398 158.11352539 C44.98295898 157.16477539 45.29233398 156.21602539 45.61108398 155.23852539 C46.67358398 152.11352539 46.67358398 152.11352539 47.67358398 150.11352539 C48.33358398 150.11352539 48.99358398 150.11352539 49.67358398 150.11352539 C49.85920898 148.53571289 49.85920898 148.53571289 50.04858398 146.92602539 C50.67358398 143.11352539 50.67358398 143.11352539 51.67358398 140.80102539 C53.20231504 136.69256067 53.35267725 132.4626562 53.67358398 128.11352539 C52.81297363 128.27651123 51.95236328 128.43949707 51.06567383 128.60742188 C47.77816006 129.09792253 44.72039546 129.22761852 41.40014648 129.21118164 C40.35938965 129.20868408 39.31863281 129.20618652 38.24633789 129.20361328 C36.9435791 129.19450928 35.64082031 129.18540527 34.29858398 129.17602539 C30.13233398 129.15540039 25.96608398 129.13477539 21.67358398 129.11352539 C21.67358398 117.89352539 21.67358398 106.67352539 21.67358398 95.11352539 C50.71358398 95.11352539 79.75358398 95.11352539 109.67358398 95.11352539 C112.34535132 103.12882739 110.74110045 112.86925347 109.79858398 121.17602539 C109.72019287 121.88968262 109.64180176 122.60333984 109.56103516 123.33862305 C109.07965349 127.23306072 108.24462266 130.52800971 106.67358398 134.11352539 C106.29765332 136.10595789 105.95378853 138.10539279 105.67358398 140.11352539 C105.01358398 140.11352539 104.35358398 140.11352539 103.67358398 140.11352539 C103.57561523 140.97075195 103.47764648 141.82797852 103.37670898 142.71118164 C101.63802531 151.12447877 96.06983768 159.48384228 90.67358398 166.11352539 C90.01358398 166.11352539 89.35358398 166.11352539 88.67358398 166.11352539 C88.33327148 166.91790039 88.33327148 166.91790039 87.98608398 167.73852539 C84.61315596 173.84191896 80.29113312 177.22445291 74.67358398 181.11352539 C74.34358398 181.77352539 74.01358398 182.43352539 73.67358398 183.11352539 C70.73653943 185.12308219 69.28135913 186.11352539 65.67358398 186.11352539 C65.67358398 186.77352539 65.67358398 187.43352539 65.67358398 188.11352539 C63.69358398 188.44352539 61.71358398 188.77352539 59.67358398 189.11352539 C59.67358398 189.77352539 59.67358398 190.43352539 59.67358398 191.11352539 C57.61243646 191.7222901 55.54956239 192.32520889 53.48608398 192.92602539 C52.3375293 193.2624707 51.18897461 193.59891602 50.00561523 193.94555664 C49.3341748 194.12602539 48.66273438 194.30649414 47.97094727 194.49243164 C46.331265 194.93572087 44.70000664 195.41066683 43.07543945 195.90649414 C33.16590371 198.63076513 23.39557177 198.56972148 13.1809082 198.50463867 C10.17930659 198.48855605 7.17905109 198.50455717 4.17749023 198.52368164 C-12.44919685 198.54105873 -26.09679732 195.92874234 -40.94360352 188.30102539 C-42.92415629 187.31399581 -44.96413989 186.44733263 -47.01391602 185.61352539 C-50.94113758 183.83516091 -53.95338001 181.7981867 -57.32641602 179.11352539 C-57.32641602 178.45352539 -57.32641602 177.79352539 -57.32641602 177.11352539 C-58.19266602 176.75000977 -58.19266602 176.75000977 -59.07641602 176.37915039 C-65.11045102 172.9850057 -69.86357415 166.02921357 -73.32641602 160.11352539 C-73.32641602 159.45352539 -73.32641602 158.79352539 -73.32641602 158.11352539 C-73.98641602 158.11352539 -74.64641602 158.11352539 -75.32641602 158.11352539 C-75.65641602 156.46352539 -75.98641602 154.81352539 -76.32641602 153.11352539 C-76.98641602 153.11352539 -77.64641602 153.11352539 -78.32641602 153.11352539 C-90.28183209 124.33321198 -94.828897 89.44010433 -83.42016602 59.53540039 C-81.62721989 55.5653054 -79.58526674 51.83512759 -77.32641602 48.11352539 C-76.8043457 47.19700195 -76.28227539 46.28047852 -75.74438477 45.33618164 C-72.66420566 39.99270791 -72.66420566 39.99270791 -71.32641602 38.11352539 C-70.66641602 38.11352539 -70.00641602 38.11352539 -69.32641602 38.11352539 C-68.99641602 36.79352539 -68.66641602 35.47352539 -68.32641602 34.11352539 C-67.66641602 34.11352539 -67.00641602 34.11352539 -66.32641602 34.11352539 C-66.09954102 33.55665039 -65.87266602 32.99977539 -65.63891602 32.42602539 C-63.95091565 29.45192952 -61.85965085 27.39343674 -59.32641602 25.11352539 C-58.66641602 25.11352539 -58.00641602 25.11352539 -57.32641602 25.11352539 C-56.83141602 23.62852539 -56.83141602 23.62852539 -56.32641602 22.11352539 C-55.66641602 22.11352539 -55.00641602 22.11352539 -54.32641602 22.11352539 C-54.32641602 21.45352539 -54.32641602 20.79352539 -54.32641602 20.11352539 C-49.94180063 17.11352539 -49.94180063 17.11352539 -47.32641602 17.11352539 C-47.32641602 16.45352539 -47.32641602 15.79352539 -47.32641602 15.11352539 C-39.08251656 10.58724272 -30.98537051 6.67423926 -21.88891602 4.17602539 C-21.16913574 3.97726807 -20.44935547 3.77851074 -19.70776367 3.57373047 C-15.18415477 2.40415383 -10.7473387 1.74785425 -6.09179688 1.35742188 C-3.15478422 0.95165841 -3.57980814 0.12217327 0 0 Z " fill="#FFFFFF" transform="translate(1168.326416015625,201.886474609375)"/>
<path d="M0 0 C6.42289839 -0.05087056 12.84574446 -0.0858051 19.26879883 -0.10986328 C21.45208681 -0.11989692 23.63536143 -0.1335269 25.81860352 -0.15087891 C28.96373805 -0.17524313 32.10869429 -0.18650971 35.25390625 -0.1953125 C36.2239711 -0.20563507 37.19403595 -0.21595764 38.1934967 -0.22659302 C43.5035947 -0.22746452 47.92755689 0.23267999 53 2 C53.79591553 2.26079346 54.59183105 2.52158691 55.41186523 2.7902832 C57.75739308 3.62120771 60.09846659 4.46346246 62.4375 5.3125 C63.24509766 5.59544922 64.05269531 5.87839844 64.88476562 6.16992188 C69.7582164 7.94101478 73.99113696 10.03615787 78.29321289 12.93823242 C80.129696 14.17245426 80.129696 14.17245426 83 15 C83 15.66 83 16.32 83 17 C83.99 17.33 84.98 17.66 86 18 C86 18.66 86 19.32 86 20 C86.59296875 20.10441406 87.1859375 20.20882812 87.796875 20.31640625 C90.32410372 21.1005641 91.4230218 22.05054524 93.25 23.9375 C93.77078125 24.46214844 94.2915625 24.98679688 94.828125 25.52734375 C96 27 96 27 96 29 C96.66 29 97.32 29 98 29 C101.74273476 33.03821382 104.36398714 37.18245925 107 42 C107.66 42.99 108.32 43.98 109 45 C109 45.99 109 46.98 109 48 C109.66 48.33 110.32 48.66 111 49 C111.99 51.97 112.98 54.94 114 58 C97.83 58 81.66 58 65 58 C63.02 54.04 63.02 54.04 61 50 C60.03126968 48.64377755 59.03565785 47.30582947 58 46 C57.2575 44.6696875 57.2575 44.6696875 56.5 43.3125 C55.14900878 40.7031028 55.14900878 40.7031028 52 40 C51.896875 39.360625 51.79375 38.72125 51.6875 38.0625 C51.460625 37.381875 51.23375 36.70125 51 36 C48.19623648 34.87050779 48.19623648 34.87050779 45 34 C43.33333333 33 41.66666667 32 40 31 C34.49409207 28.57671548 29.55812054 28.85927705 23.6875 29.1875 C22.33881836 29.23487305 22.33881836 29.23487305 20.96289062 29.28320312 C14.85900435 29.58773541 9.68995054 30.8116708 4 33 C2.515 33.495 2.515 33.495 1 34 C0.01 34.495 0.01 34.495 -1 35 C-1.33 35.99 -1.66 36.98 -2 38 C-2.66 38 -3.32 38 -4 38 C-4.4021875 38.8353125 -4.4021875 38.8353125 -4.8125 39.6875 C-6.10899496 42.21225334 -7.42476323 44.63714484 -9 47 C-9.66 47 -10.32 47 -11 47 C-12.07525194 49.65228812 -13.09456151 52.28368454 -14 55 C-14.66 55 -15.32 55 -16 55 C-16.18949219 56.06154297 -16.18949219 56.06154297 -16.3828125 57.14453125 C-17.0191984 60.08882297 -17.91261023 62.83390244 -18.875 65.6875 C-24.57899818 84.06936275 -24.83705983 101.15254486 -21.35961914 119.96948242 C-20.82843425 122.96871171 -20.42041393 125.98353004 -20 129 C-19.65273476 131.14696101 -19.29895249 133.29288189 -18.9375 135.4375 C-18.76089844 136.48808594 -18.58429688 137.53867187 -18.40234375 138.62109375 C-18.20318359 139.79865234 -18.20318359 139.79865234 -18 141 C-17.34 141 -16.68 141 -16 141 C-15.63648438 141.71285156 -15.27296875 142.42570313 -14.8984375 143.16015625 C-11.76567991 149.12846109 -8.48051139 153.9860944 -4 159 C-4 159.66 -4 160.32 -4 161 C-3.4328125 161.27714844 -2.865625 161.55429687 -2.28125 161.83984375 C0.80394344 163.4088548 3.78386135 165.14924876 6.78125 166.87890625 C14.90584344 170.98411456 27.73787247 170.46842555 36.2578125 167.8828125 C38.62972476 167.00634388 40.98489303 166.08188503 43.3125 165.09375 C46 164 46 164 49 164 C49.33 163.01 49.66 162.02 50 161 C50.66 161 51.32 161 52 161 C52.33 160.01 52.66 159.02 53 158 C55 156 55 156 57 155 C57.69437747 153.00945124 58.35610218 151.00744615 59 149 C59.99 147.02 60.98 145.04 62 143 C62.99 137.72 63.98 132.44 65 127 C48.665 127.495 48.665 127.495 32 128 C32 116.78 32 105.56 32 94 C61.37 94 90.74 94 121 94 C121 113.42744675 119.52364913 132.17105707 111 150 C110.34 150.33 109.68 150.66 109 151 C108.28293018 152.98248715 107.61709587 154.98415349 107 157 C106.67 157.66 106.34 158.32 106 159 C105.34 159 104.68 159 104 159 C103.01 161.97 103.01 161.97 102 165 C101.34 165 100.68 165 100 165 C99.690625 165.61875 99.38125 166.2375 99.0625 166.875 C98.375 168.25 97.6875 169.625 97 171 C96.34 171 95.68 171 95 171 C95 171.66 95 172.32 95 173 C90.52941176 177 90.52941176 177 88 177 C87.67 177.99 87.34 178.98 87 180 C69.30986462 195.32858818 43.53921544 198.55552538 21.09985352 198.44604492 C18.43623354 198.43749594 15.77474043 198.46649391 13.11132812 198.49804688 C-1.3635895 198.55635808 -13.70900918 195.91163702 -27 190 C-28.66289063 189.28457031 -28.66289063 189.28457031 -30.359375 188.5546875 C-40.02136216 184.28194206 -40.02136216 184.28194206 -44 180 C-44.66 179.67 -45.32 179.34 -46 179 C-46 178.34 -46 177.68 -46 177 C-47.32 176.67 -48.64 176.34 -50 176 C-50 175.34 -50 174.68 -50 174 C-50.66 174 -51.32 174 -52 174 C-52 173.34 -52 172.68 -52 172 C-52.66 172 -53.32 172 -54 172 C-55.2890625 170.5390625 -55.2890625 170.5390625 -56.625 168.625 C-57.07101562 167.99851562 -57.51703125 167.37203125 -57.9765625 166.7265625 C-59 165 -59 165 -59 163 C-59.66 163 -60.32 163 -61 163 C-61 162.34 -61 161.68 -61 161 C-61.66 161 -62.32 161 -63 161 C-67.3111257 152.53171738 -71.26774685 144.11710576 -74 135 C-74.33273926 133.91138672 -74.66547852 132.82277344 -75.00830078 131.70117188 C-77.80955294 121.69136415 -78.56927541 112.4234039 -78.41162109 102.05200195 C-78.37467078 99.54011984 -78.37060657 97.02970648 -78.37109375 94.51757812 C-78.36127303 92.88800829 -78.34962061 91.25844823 -78.3359375 89.62890625 C-78.33371185 88.89434708 -78.33148621 88.1597879 -78.32919312 87.40296936 C-78.18916001 79.62781654 -76.21337974 72.42133206 -74 65 C-73.79632812 64.23945313 -73.59265625 63.47890625 -73.3828125 62.6953125 C-71.63078579 56.37620492 -69.10511613 50.76839755 -66 45 C-65.34 45 -64.68 45 -64 45 C-63.67 43.35 -63.34 41.7 -63 40 C-62.34 40 -61.68 40 -61 40 C-61 39.01 -61 38.02 -61 37 C-59.89184571 35.79110441 -58.76863682 34.59223354 -57.5703125 33.47265625 C-55.13836505 31.19194931 -52.86141621 28.75832417 -50.55078125 26.35546875 C-49 25 -49 25 -47 25 C-46.67 24.01 -46.34 23.02 -46 22 C-45.34 22 -44.68 22 -44 22 C-44 21.34 -44 20.68 -44 20 C-42.989375 19.443125 -41.97875 18.88625 -40.9375 18.3125 C-38.39780751 16.87636436 -36.26441207 15.42954406 -33.9375 13.625 C-24.89692524 7.01293178 -11.38268274 1.27344578 0 2 C0 1.34 0 0.68 0 0 Z " fill="#FFFFFF" transform="translate(1383,202)"/>
<path d="M0 0 C17.82 0 35.64 0 54 0 C54 63.69 54 127.38 54 193 C36.18 193 18.36 193 0 193 C0 129.31 0 65.62 0 0 Z " fill="#FFFFFF" transform="translate(1532,207)"/>
<path d="M0 0 C17.49 0 34.98 0 53 0 C53 63.36 53 126.72 53 192 C35.51 192 18.02 192 0 192 C0 128.64 0 65.28 0 0 Z " fill="#FFFFFF" transform="translate(787,207)"/>
<path d="M0 0 C3.78189287 1.22492241 7.10670833 2.4673882 10.50390625 4.5390625 C11.32076904 5.0333374 12.13763184 5.5276123 12.97924805 6.03686523 C13.83172119 6.56094971 14.68419434 7.08503418 15.5625 7.625 C16.89051636 8.43142944 16.89051636 8.43142944 18.24536133 9.25415039 C23.24038464 12.29205134 28.21474805 15.36332829 33.1875 18.4375 C40.60977613 23.02184702 48.17083894 27.15659366 56 31 C56 31.66 56 32.32 56 33 C56.598125 33.144375 57.19625 33.28875 57.8125 33.4375 C59.56150404 33.8872439 61.28677023 34.42892341 63 35 C63 35.66 63 36.32 63 37 C63.54027832 37.09732422 64.08055664 37.19464844 64.63720703 37.29492188 C67.67443206 38.20125644 70.08030139 39.65960184 72.8046875 41.28125 C73.9395459 41.95446289 75.0744043 42.62767578 76.24365234 43.32128906 C77.45431534 44.04716961 78.66476093 44.77341288 79.875 45.5 C81.10491369 46.23416136 82.33489427 46.96821069 83.56494141 47.70214844 C117.84206127 68.20310455 117.84206127 68.20310455 123.34375 84.9453125 C125.81644331 96.45511111 124.48017895 107.80723694 118.1875 117.75 C115.45121916 121.59171101 112.53003036 124.87110946 109 128 C108.34 128 107.68 128 107 128 C107 128.66 107 129.32 107 130 C105.10667466 130.81832722 103.21022267 131.62942268 101.3125 132.4375 C100.25675781 132.88996094 99.20101562 133.34242188 98.11328125 133.80859375 C88.72731805 137.40046172 78.25065483 137.27665769 68.9765625 133.44140625 C58.08845166 128.16881714 47.81108688 121.72084587 37.46801758 115.46972656 C29.73918629 110.8088684 21.89734864 106.36780735 14 102 C14 101.34 14 100.68 14 100 C13.401875 99.855625 12.80375 99.71125 12.1875 99.5625 C10.43849596 99.1127561 8.71322977 98.57107659 7 98 C7 97.34 7 96.68 7 96 C6.1028125 95.814375 6.1028125 95.814375 5.1875 95.625 C3 95 3 95 0 93 C-0.28606944 90.00964694 -0.37798899 87.22734562 -0.34057617 84.23583984 C-0.34101425 83.32846573 -0.34145233 82.42109161 -0.34190369 81.48622131 C-0.33980839 78.47757686 -0.31644244 75.46948498 -0.29296875 72.4609375 C-0.28737543 70.37871607 -0.28310409 68.2964907 -0.28010559 66.21426392 C-0.26863603 60.72653353 -0.23915067 55.23904031 -0.20599365 49.75140381 C-0.17533823 44.15461435 -0.16160995 38.55778667 -0.14648438 32.9609375 C-0.11428301 21.97385397 -0.06306119 10.98694669 0 0 Z M27 46 C24.05720072 64.11613293 24.05720072 64.11613293 29.09472656 80.77539062 C35.93542171 86.44963061 44.37292818 90.00923401 53 92 C53 92.66 53 93.32 53 94 C55.64738916 95.4606285 56.89448334 96 60 96 C60 96.66 60 97.32 60 98 C61.56511396 99.21331746 61.56511396 99.21331746 63.61328125 100.34765625 C64.36673828 100.78787109 65.12019531 101.22808594 65.89648438 101.68164062 C66.69376953 102.13732422 67.49105469 102.59300781 68.3125 103.0625 C69.49102539 103.75182617 69.49102539 103.75182617 70.69335938 104.45507812 C76.51647605 107.83000787 81.08396283 109.74584715 88 109 C92.12501845 107.21874203 94.6674452 104.83205432 97 101 C98.2698638 97.18311054 98.84514678 93.70720067 97.01147461 90.00317383 C92.91509514 84.46746885 88.41508001 81.32144304 82.4375 78 C80.65576987 76.97479232 78.87452052 75.94874861 77.09375 74.921875 C76.2275 74.42880859 75.36125 73.93574219 74.46875 73.42773438 C70.03781747 70.86522514 65.74443343 68.08616547 61.43359375 65.328125 C59.02317553 63.76047522 59.02317553 63.76047522 56 64 C56 63.34 56 62.68 56 62 C55.43603516 61.69296143 54.87207031 61.38592285 54.29101562 61.06958008 C51.69262673 59.65307508 49.09630946 58.23281255 46.5 56.8125 C45.1696875 56.08836914 45.1696875 56.08836914 43.8125 55.34960938 C38.93058671 52.67532599 34.15267127 49.91375348 29.47851562 46.8894043 C28.14475116 45.91408776 28.14475116 45.91408776 27 46 Z " fill="#FFFFFF" transform="translate(272,213)"/>
<path d="M0 0 C0.07361383 4.07290435 0.14630643 8.14582467 0.21875 12.21875 C0.24144455 13.48770615 0.2641391 14.75666229 0.28752136 16.06407166 C0.41073407 23.02441984 0.52401968 29.98478214 0.62036133 36.94555664 C0.64974961 39.04159645 0.67925086 41.1376346 0.70886803 43.23367119 C0.72849929 44.62375098 0.74797041 46.01383305 0.76728249 47.40391731 C0.87167529 54.78619309 1.0090871 62.16298104 1.31747437 69.54000854 C1.41280558 71.84026139 1.48948396 74.14023426 1.55859375 76.44140625 C1.64193726 79.02505491 1.76308715 81.60788164 1.9296875 84.1875 C2.0081824 87.41326646 1.9848788 89.92866179 1 93 C-1.92504615 95.90034778 -5.27480568 97.32857114 -9 99 C-10.82980584 100.0428562 -12.64751246 101.10720063 -14.453125 102.19140625 C-16.38516954 103.31552902 -18.31747046 104.43921122 -20.25 105.5625 C-28.47279312 110.35068286 -36.68349362 115.15847194 -44.875 120 C-45.74672852 120.51506104 -46.61845703 121.03012207 -47.51660156 121.56079102 C-48.35416992 122.05635498 -49.19173828 122.55191895 -50.0546875 123.0625 C-50.8688916 123.54380371 -51.6830957 124.02510742 -52.52197266 124.52099609 C-54.23651051 125.54431337 -55.94412035 126.57929511 -57.64599609 127.62353516 C-68.62329926 134.34086718 -79.14274911 138.06603996 -92.09375 135.3515625 C-95.7823185 134.37117982 -99.38044715 133.20651762 -103 132 C-103 131.34 -103 130.68 -103 130 C-103.680625 129.79375 -104.36125 129.5875 -105.0625 129.375 C-114.69933421 124.86414143 -119.39049708 116.12665904 -123.4375 106.625 C-125.37118099 94.16350031 -124.45527341 83.56052841 -117.125 73.1875 C-112.07118818 66.47881254 -106.79161292 61.98173605 -99.625 57.75 C-98.83134033 57.27328857 -98.03768066 56.79657715 -97.2199707 56.30541992 C-94.81715795 54.86373227 -92.40891039 53.43146898 -90 52 C-88.01147081 50.80929451 -86.02436596 49.61624803 -84.03759766 48.42260742 C-82.81310175 47.68787756 -81.58752901 46.9549391 -80.36083984 46.22387695 C-77.31280024 44.40504541 -74.285775 42.5602704 -71.28515625 40.6640625 C-70.69001221 40.28983154 -70.09486816 39.91560059 -69.48168945 39.5300293 C-67.8541951 38.50323707 -66.23160943 37.46867616 -64.609375 36.43359375 C-62 35 -62 35 -59 35 C-59 34.34 -59 33.68 -59 33 C-57.56705502 32.15885829 -56.12845595 31.32734313 -54.6875 30.5 C-53.88699219 30.0359375 -53.08648437 29.571875 -52.26171875 29.09375 C-50 28 -50 28 -47 28 C-47 27.34 -47 26.68 -47 26 C-46.26136719 25.64808594 -45.52273437 25.29617187 -44.76171875 24.93359375 C-38.54914002 21.91019139 -32.70507612 18.63975312 -26.92578125 14.859375 C-23.03040058 12.38380598 -19.02747512 10.12298301 -15.00732422 7.85791016 C-11.69671279 5.98733634 -8.44901908 4.05526816 -5.25 2 C-2 0 -2 0 0 0 Z M-31.625 48 C-32.73875 48.66 -33.8525 49.32 -35 50 C-35 50.66 -35 51.32 -35 52 C-36.65 52.33 -38.3 52.66 -40 53 C-40 53.66 -40 54.32 -40 55 C-41.0209375 55.12375 -41.0209375 55.12375 -42.0625 55.25 C-45.8746907 56.22332528 -48.64070329 57.95807455 -52 60 C-52 60.66 -52 61.32 -52 62 C-52.84111328 62.17015625 -52.84111328 62.17015625 -53.69921875 62.34375 C-62.4606069 64.84275375 -70.65084902 71.13893277 -78.421875 75.8515625 C-81.91360649 77.96315536 -85.44988593 79.98826869 -89 82 C-89 82.66 -89 83.32 -89 84 C-89.763125 84.226875 -90.52625 84.45375 -91.3125 84.6875 C-94.71251182 86.34797089 -95.55914733 87.51161986 -97 91 C-97.53218983 96.58799317 -97.25015553 100.23310522 -94 105 C-90.77159719 107.99217821 -87.88858657 109.34539763 -83.5625 109.8125 C-76.40716149 109.51257563 -70.748191 105.08152344 -64.95556641 101.27001953 C-61.85671748 99.25750866 -58.6778912 97.38415157 -55.5 95.5 C-54.25997065 94.75725455 -53.02038871 94.01376163 -51.78125 93.26953125 C-51.16378906 92.89908691 -50.54632813 92.52864258 -49.91015625 92.14697266 C-47.92892329 90.95732127 -45.94874229 89.76593376 -43.96875 88.57421875 C-43.30423828 88.17460937 -42.63972656 87.775 -41.95507812 87.36328125 C-40.69819355 86.60739263 -39.44165404 85.85092978 -38.18554688 85.09375 C-34.15331209 82.66990384 -30.08710684 80.33548962 -26 78 C-26 67.44 -26 56.88 -26 46 C-28.46301423 46 -29.52063278 46.75296757 -31.625 48 Z " fill="#FFFFFF" transform="translate(249,213)"/>
</svg>
