<?xml version="1.0" encoding="UTF-8"?>
<svg version="1.1" xmlns="http://www.w3.org/2000/svg" width="1721" height="426">
<path d="M0 0 C1.41050061 -0.00599382 2.82099797 -0.01280132 4.23149109 -0.02035522 C8.04864049 -0.03795615 11.86570006 -0.04270868 15.68288612 -0.0439868 C18.07985473 -0.04541468 20.47680101 -0.04969672 22.87376404 -0.05498123 C31.27213977 -0.0734766 39.67045224 -0.08165428 48.06884766 -0.08007812 C55.83485936 -0.07888354 63.60059007 -0.09985189 71.3665309 -0.13156545 C78.07700355 -0.15796843 84.78738601 -0.16843519 91.49791002 -0.16716731 C95.48594575 -0.16666375 99.47373277 -0.1719998 103.4617157 -0.19352341 C144.94623783 -0.40163118 180.41584607 7.6086982 214.97851562 31.29052734 C215.96851563 31.95052734 216.95851563 32.61052734 217.97851562 33.29052734 C217.97851562 33.95052734 217.97851562 34.61052734 217.97851562 35.29052734 C219.62851562 35.95052734 221.27851563 36.61052734 222.97851562 37.29052734 C222.97851562 37.95052734 222.97851562 38.61052734 222.97851562 39.29052734 C223.70039063 39.49677734 224.42226563 39.70302734 225.16601562 39.91552734 C228.17967592 41.38887238 229.68978915 43.087542 231.72851562 45.71240234 C234.28422953 48.93899115 237.36952424 51.69783004 240.31445312 54.56396484 C243.06420545 57.37822748 245.60621353 60.31731608 248.10351562 63.35302734 C248.74740234 64.12743164 248.74740234 64.12743164 249.40429688 64.91748047 C250.60497743 66.36753313 251.79217745 67.82871742 252.97851562 69.29052734 C253.5740625 70.01111328 254.16960937 70.73169922 254.78320312 71.47412109 C255.97851562 73.29052734 255.97851562 73.29052734 255.97851562 76.29052734 C256.63851563 76.29052734 257.29851562 76.29052734 257.97851562 76.29052734 C266.40113585 91.51491991 273.5839856 106.37824514 277.97851562 123.29052734 C278.37876953 124.77746094 278.37876953 124.77746094 278.78710938 126.29443359 C288.83644125 166.23141571 284.02296734 211.14280338 262.86132812 246.93115234 C260.95187508 250.08413128 258.96696649 253.18681491 256.97851562 256.29052734 C256.46933594 257.14775391 255.96015625 258.00498047 255.43554688 258.88818359 C254.02428814 261.21505791 252.52923444 263.41218542 250.91601562 265.60302734 C250.15611328 266.64910156 250.15611328 266.64910156 249.38085938 267.71630859 C248.91808594 268.23580078 248.4553125 268.75529297 247.97851562 269.29052734 C247.31851562 269.29052734 246.65851563 269.29052734 245.97851562 269.29052734 C245.97851562 270.28052734 245.97851562 271.27052734 245.97851562 272.29052734 C245.31851562 272.29052734 244.65851563 272.29052734 243.97851562 272.29052734 C243.97851562 272.95052734 243.97851562 273.61052734 243.97851562 274.29052734 C243.31851562 274.29052734 242.65851563 274.29052734 241.97851562 274.29052734 C241.63820313 275.12583984 241.63820313 275.12583984 241.29101562 275.97802734 C239.59278761 278.97014337 237.47087367 280.9065327 234.97851562 283.29052734 C234.44613281 283.85513672 233.91375 284.41974609 233.36523438 285.00146484 C202.38729723 317.50508198 157.8563646 331.67184517 113.97851562 333.29052734 C108.1653233 333.36573669 102.35422832 333.3107749 96.54101562 333.26123047 C80.03895313 333.17437751 64.7837845 333.69375343 52.24414062 345.66162109 C43.10910229 356.26141558 41.69070088 368.34465583 41.56445312 381.75927734 C41.54508698 383.03532837 41.52572083 384.31137939 41.50576782 385.62609863 C41.45633844 388.99286634 41.41497675 392.35953126 41.37762451 395.72644043 C41.33737536 399.17237892 41.28637925 402.61815726 41.23632812 406.06396484 C41.14055812 412.80604879 41.05543337 419.54820337 40.97851562 426.29052734 C33.74197648 426.41882962 26.50573757 426.50549838 19.26831055 426.56518555 C16.81377198 426.59010554 14.35930586 426.62405421 11.9050293 426.66772461 C-8.01783739 427.01297306 -24.14946721 425.8055539 -41.02148438 414.29052734 C-41.8078125 413.78005859 -42.59414062 413.26958984 -43.40429688 412.74365234 C-53.90926208 405.34991377 -61.06592152 393.94613469 -66.02148438 382.29052734 C-66.27841064 381.68845459 -66.53533691 381.08638184 -66.80004883 380.46606445 C-74.03895595 362.53788868 -71.50957195 341.0088263 -65.02148438 323.29052734 C-64.62316406 322.08654297 -64.22484375 320.88255859 -63.81445312 319.64208984 C-61.08934772 311.62772897 -57.58548547 304.21499954 -53.52148438 296.79052734 C-53.07087646 295.96609131 -52.62026855 295.14165527 -52.15600586 294.29223633 C-49.50642091 289.57766725 -46.61991802 285.22161103 -43.29321289 280.95678711 C-41.67765382 278.84002944 -40.37330058 276.58273743 -39.02148438 274.29052734 C-38.18207896 273.00989601 -37.32688982 271.73951781 -36.45898438 270.47802734 C-36.04519531 269.87345703 -35.63140625 269.26888672 -35.20507812 268.64599609 C-34.81449219 268.19869141 -34.42390625 267.75138672 -34.02148438 267.29052734 C-33.36148438 267.29052734 -32.70148438 267.29052734 -32.02148438 267.29052734 C-31.69148438 265.97052734 -31.36148438 264.65052734 -31.02148438 263.29052734 C-30.36148438 263.29052734 -29.70148438 263.29052734 -29.02148438 263.29052734 C-29.02148438 262.63052734 -29.02148438 261.97052734 -29.02148438 261.29052734 C-28.36148438 261.29052734 -27.70148438 261.29052734 -27.02148438 261.29052734 C-27.02148438 260.30052734 -27.02148438 259.31052734 -27.02148438 258.29052734 C-25.64648438 256.60302734 -25.64648438 256.60302734 -24.02148438 255.29052734 C-23.36148438 255.29052734 -22.70148438 255.29052734 -22.02148438 255.29052734 C-21.79460937 254.73365234 -21.56773437 254.17677734 -21.33398438 253.60302734 C-19.6477117 250.63197549 -17.49113038 248.64530609 -15.02148438 246.29052734 C-12.34968912 243.68086686 -10.09578217 241.40197404 -8.02148438 238.29052734 C-7.36148438 238.29052734 -6.70148438 238.29052734 -6.02148438 238.29052734 C-6.02148438 237.63052734 -6.02148438 236.97052734 -6.02148438 236.29052734 C-4.57136727 235.03815348 -3.11521366 233.79132161 -1.61523438 232.59912109 C0.1544427 231.19561807 0.1544427 231.19561807 2.22851562 228.97802734 C3.97851562 227.29052734 3.97851562 227.29052734 5.97851562 227.29052734 C5.97851562 226.63052734 5.97851562 225.97052734 5.97851562 225.29052734 C6.63851562 225.29052734 7.29851562 225.29052734 7.97851562 225.29052734 C7.97851562 224.63052734 7.97851562 223.97052734 7.97851562 223.29052734 C12.44910386 219.29052734 12.44910386 219.29052734 14.97851562 219.29052734 C14.97851562 218.63052734 14.97851562 217.97052734 14.97851562 217.29052734 C16.62851563 216.63052734 18.27851563 215.97052734 19.97851562 215.29052734 C19.97851562 214.63052734 19.97851562 213.97052734 19.97851562 213.29052734 C21.62851563 212.63052734 23.27851563 211.97052734 24.97851562 211.29052734 C24.97851562 210.63052734 24.97851562 209.97052734 24.97851562 209.29052734 C26.63085937 207.71240234 26.63085937 207.71240234 28.91601562 206.04052734 C29.64691406 205.47849609 30.3778125 204.91646484 31.13085938 204.33740234 C35.44899699 202.74993886 38.66138305 204.05101623 42.97851562 205.29052734 C44.82149421 205.77265254 46.66528434 206.25168341 48.50976562 206.72802734 C49.47648193 206.98245605 50.44319824 207.23688477 51.43920898 207.49902344 C85.01914696 216.24399564 120.20095658 216.34419308 150.97851562 198.29052734 C154.26201339 196.20992277 157.47252504 194.03338435 160.65039062 191.79443359 C162.97851562 190.29052734 162.97851562 190.29052734 164.97851562 190.29052734 C164.97851562 189.63052734 164.97851562 188.97052734 164.97851562 188.29052734 C166.55273437 186.95849609 166.55273437 186.95849609 168.66601562 185.47802734 C172.89352365 182.40822911 176.56816545 179.22322944 179.66601562 174.97802734 C180.09914063 174.42115234 180.53226563 173.86427734 180.97851562 173.29052734 C181.63851562 173.29052734 182.29851562 173.29052734 182.97851562 173.29052734 C183.2234375 172.73236328 183.46835937 172.17419922 183.72070312 171.59912109 C185.21816487 168.85067423 187.05814696 166.72266177 189.10351562 164.35302734 C194.07542425 158.36595409 198.0786041 152.01183503 201.97851562 145.29052734 C202.41679687 144.54416016 202.85507812 143.79779297 203.30664062 143.02880859 C209.40955926 132.34870099 214.84003612 121.31972899 219.06835938 109.76708984 C219.97851562 107.29052734 219.97851562 107.29052734 220.97851562 105.29052734 C211.82230767 103.85867265 202.65716245 102.5079765 193.47851562 101.22802734 C192.26292969 101.05464844 191.04734375 100.88126953 189.79492188 100.70263672 C147.15640226 94.76418762 99.46821867 95.91257292 63.47851562 122.47802734 C62.30521029 123.40720545 61.13784502 124.34396899 59.97851562 125.29052734 C58.46257812 126.46615234 58.46257812 126.46615234 56.91601562 127.66552734 C41.03516249 141.85692802 29.15562257 164.43421524 27.35351562 185.79052734 C26.83205974 189.34025453 26.39537073 190.86207145 23.87304688 193.45458984 C20.98622756 195.54576343 18.00040516 197.4004728 14.97851562 199.29052734 C12.09229519 201.44632024 9.29175384 203.71128451 6.4831543 205.96679688 C4.09544478 207.83823477 1.99548208 209.28390056 -0.84179688 210.39208984 C-1.56109375 210.68857422 -2.28039062 210.98505859 -3.02148438 211.29052734 C-3.35148437 212.28052734 -3.68148437 213.27052734 -4.02148438 214.29052734 C-5.77437494 215.91961825 -7.59721614 217.47457081 -9.45898438 218.97802734 C-10.44769531 219.78626953 -11.43640625 220.59451172 -12.45507812 221.42724609 C-15.02148438 223.29052734 -15.02148438 223.29052734 -17.02148438 223.29052734 C-17.35148437 224.28052734 -17.68148437 225.27052734 -18.02148438 226.29052734 C-19.54833984 227.79833984 -19.54833984 227.79833984 -21.51367188 229.41552734 C-26.29928033 233.47785392 -30.72087005 237.84252374 -35.14648438 242.29052734 C-35.91863281 243.05880859 -36.69078125 243.82708984 -37.48632812 244.61865234 C-40.95475662 248.09298958 -44.31588364 251.57318925 -47.45117188 255.35302734 C-48.72347656 256.80708984 -48.72347656 256.80708984 -50.02148438 258.29052734 C-50.68148437 258.29052734 -51.34148437 258.29052734 -52.02148438 258.29052734 C-52.02148438 258.95052734 -52.02148438 259.61052734 -52.02148438 260.29052734 C-52.68148437 260.29052734 -53.34148437 260.29052734 -54.02148438 260.29052734 C-54.39273438 261.12583984 -54.39273438 261.12583984 -54.77148438 261.97802734 C-56.25073256 264.71463648 -57.95615877 266.96703604 -60.02148438 269.29052734 C-60.68148437 269.29052734 -61.34148437 269.29052734 -62.02148438 269.29052734 C-62.02148438 269.95052734 -62.02148438 270.61052734 -62.02148438 271.29052734 C-62.68148437 271.29052734 -63.34148437 271.29052734 -64.02148438 271.29052734 C-64.68148437 272.94052734 -65.34148437 274.59052734 -66.02148438 276.29052734 C-66.68148437 276.29052734 -67.34148437 276.29052734 -68.02148438 276.29052734 C-68.35148437 277.28052734 -68.68148437 278.27052734 -69.02148438 279.29052734 C-69.68148437 279.29052734 -70.34148437 279.29052734 -71.02148438 279.29052734 C-71.06831345 252.22080917 -71.10352652 225.15109711 -71.12510872 198.08134651 C-71.13539838 185.51092292 -71.14941433 172.94052457 -71.17236328 160.37011719 C-71.19236811 149.40709155 -71.20521758 138.44408422 -71.20966136 127.48104084 C-71.21225678 121.68227489 -71.21830847 115.88356126 -71.23294449 110.08481216 C-71.24664074 104.6134451 -71.25068297 99.14215131 -71.24769974 93.67076874 C-71.24824456 91.67552923 -71.25214959 89.68028696 -71.25989532 87.68506241 C-71.29485481 78.20522352 -71.1555845 68.82485445 -70.14401245 59.39157104 C-70.02998241 58.31365585 -70.02998241 58.31365585 -69.91364872 57.21396458 C-68.58758337 46.25495717 -63.89007799 35.92384778 -57.02148438 27.29052734 C-56.36148438 27.29052734 -55.70148438 27.29052734 -55.02148438 27.29052734 C-55.02148438 26.30052734 -55.02148438 25.31052734 -55.02148438 24.29052734 C-52.64648438 21.60302734 -52.64648438 21.60302734 -50.02148438 19.29052734 C-49.36148438 19.29052734 -48.70148438 19.29052734 -48.02148438 19.29052734 C-48.02148438 18.63052734 -48.02148438 17.97052734 -48.02148438 17.29052734 C-42.68044842 12.54008671 -36.23372893 9.19551156 -29.89648438 5.97802734 C-29.24035156 5.64077637 -28.58421875 5.30352539 -27.90820312 4.95605469 C-27.26238281 4.63717285 -26.6165625 4.31829102 -25.95117188 3.98974609 C-25.38640137 3.7096167 -24.82163086 3.4294873 -24.23974609 3.14086914 C-16.16428487 0.04524605 -8.56800478 -0.00593674 0 0 Z " fill="#FFFFFF" transform="translate(177.021484375,-0.29052734375)"/>
<path d="M0 0 C47.5 0 47.5 0 58.125 8.75 C63.14619983 14.77543979 65.37912858 21.53901874 65.27734375 29.30859375 C64.39797777 37.84215942 59.10216854 44.65349409 52.625 49.9375 C52.08875 50.288125 51.5525 50.63875 51 51 C51.7425 51.721875 52.485 52.44375 53.25 53.1875 C61.66253356 61.7912275 66.77129832 72.27822409 72 83 C72.78971615 84.58430709 73.58109778 86.16778642 74.375 87.75 C74.91125 88.8225 75.4475 89.895 76 91 C79.39707009 84.45646336 82.3599347 77.88017017 85 71 C90.22723763 57.47184306 95.63916656 44.06582337 101.47998047 30.78955078 C103.41638593 26.37454633 105.26430593 21.93512417 107.03125 17.44921875 C108.20667427 14.47748078 109.41016968 11.51835168 110.625 8.5625 C111.02976562 7.57378906 111.43453125 6.58507812 111.8515625 5.56640625 C113 3 113 3 115 0 C116.97119141 -0.34057617 116.97119141 -0.34057617 119.3515625 -0.29296875 C120.62773438 -0.2784668 120.62773438 -0.2784668 121.9296875 -0.26367188 C122.81914063 -0.23853516 123.70859375 -0.21339844 124.625 -0.1875 C125.97078125 -0.16719727 125.97078125 -0.16719727 127.34375 -0.14648438 C129.56309789 -0.11106925 131.78125188 -0.06168461 134 0 C134.49628906 1.12535156 134.99257813 2.25070313 135.50390625 3.41015625 C138.84857986 10.97462125 142.21616762 18.52174128 145.75 26 C147.64802182 30.01754952 149.46059917 34.04101596 151.0625 38.1875 C152.91403731 42.97924677 155.22793869 47.48490223 157.55859375 52.05859375 C159.23253701 55.47452674 160.63154567 58.94561002 162 62.4921875 C163.48359772 66.21277241 165.17010879 69.83452764 166.84375 73.47265625 C168.28585971 76.62483526 169.64169146 79.81092778 171 83 C171.52980469 84.14855469 171.52980469 84.14855469 172.0703125 85.3203125 C172.43898438 86.12210937 172.80765625 86.92390625 173.1875 87.75 C173.53167969 88.48734375 173.87585938 89.2246875 174.23046875 89.984375 C175 92 175 92 175 95 C171.72963272 95.14510162 168.46008993 95.23399373 165.1875 95.3125 C164.25873047 95.35439453 163.32996094 95.39628906 162.37304688 95.43945312 C159.82800896 95.48539244 157.50318637 95.4658435 155 95 C152.98828125 92.78515625 152.98828125 92.78515625 152 90 C151.649375 89.19820313 151.29875 88.39640625 150.9375 87.5703125 C150.628125 86.76335937 150.31875 85.95640625 150 85.125 C148.42058984 81.03169534 146.73277763 77.0431478 145 73 C131.8 73 118.6 73 105 73 C103.35 77.29 101.7 81.58 100 86 C98.6874306 89.01536214 97.37959844 92.01729276 96 95 C90.41357741 95.24786175 84.83037158 95.42893257 79.23974609 95.54931641 C77.34009045 95.59950332 75.44081922 95.66767504 73.54248047 95.75439453 C57.7966613 96.45549177 57.7966613 96.45549177 53.51733398 92.98876953 C51.92140892 90.36327177 50.93227533 87.92137884 50 85 C49.35210622 83.68906606 48.68382989 82.38784638 47.98828125 81.1015625 C47.15876953 79.38066406 47.15876953 79.38066406 46.3125 77.625 C44.10761543 73.01212261 44.10761543 73.01212261 41.29296875 68.7734375 C40 67 40 67 40 64 C39.34 64 38.68 64 38 64 C36.65080468 62.34614767 35.31866272 60.678298 34 59 C30.06674136 56.03326123 30.06674136 56.03326123 20 56 C19.67 68.87 19.34 81.74 19 95 C12.73 95 6.46 95 0 95 C0 63.65 0 32.3 0 0 Z M19 15 C19 23.25 19 31.5 19 40 C22.774375 40.0928125 22.774375 40.0928125 26.625 40.1875 C27.40568848 40.21481201 28.18637695 40.24212402 28.99072266 40.27026367 C34.90028893 40.34002626 38.88935662 38.88847039 43.375 34.875 C45.65576668 30.8397974 45.89305252 27.52905208 45 23 C43.11981724 19.66419187 41.6724881 17.70654089 38.0859375 16.19140625 C31.67368734 14.50090393 25.74412306 15 19 15 Z M124 24 C115.41565352 40.0212129 115.41565352 40.0212129 111 57 C119.91 57 128.82 57 138 57 C137.09082388 51.54494329 136.60662411 50.31095526 134 46 C133.53456542 44.67615912 133.10035533 43.34116908 132.6875 42 C130.71893585 35.74504616 127.82095064 29.90665069 125 24 C124.67 24 124.34 24 124 24 Z " fill="#FFFFFF" transform="translate(593,98)"/>
<path d="M0 0 C24.94379804 -0.38948677 50.25389304 3.23679436 72 16 C73.32742224 16.67836009 74.65874638 17.34941491 76 18 C76 18.66 76 19.32 76 20 C76.556875 20.2475 77.11375 20.495 77.6875 20.75 C80.44160479 22.23870529 82.69174514 23.88409972 85 26 C85 26.99 85 27.98 85 29 C85.66 29 86.32 29 87 29 C94.62823688 38.69264422 97.35965761 49.93766328 97.25 62 C97.26160156 63.27617187 97.26160156 63.27617187 97.2734375 64.578125 C97.25671365 70.03010044 96.87733785 74.85301293 95 80 C92.85546875 81.5859375 92.85546875 81.5859375 90.1875 82.375 C89.20523438 82.66632813 88.22296875 82.95765625 87.2109375 83.2578125 C71.29914798 86.93572005 55.02489094 87.61348478 40.2890625 79.45703125 C29.91514248 72.85383643 29.91514248 72.85383643 27.9375 68.84765625 C27.08911459 66.63919317 27.08911459 66.63919317 24 66 C22.40749543 64.02916562 20.97672883 62.09183096 19.5625 60 C19.18029297 59.45988281 18.79808594 58.91976562 18.40429688 58.36328125 C7.86258608 43.00710491 0 18.61164269 0 0 Z " fill="#FFFFFF" transform="translate(0,229)"/>
<path d="M0 0 C5.61 0 11.22 0 17 0 C17.66 1.32 18.32 2.64 19 4 C19.66 4 20.32 4 21 4 C22.43549726 5.59334239 23.79827327 7.25251082 25.125 8.9375 C28.78425918 13.52788347 32.57467159 17.91967522 36.56640625 22.22265625 C38 24 38 24 38 26 C38.66 26 39.32 26 40 26 C40.268125 26.804375 40.53625 27.60875 40.8125 28.4375 C41.4003125 29.7059375 41.4003125 29.7059375 42 31 C42.99 31.33 43.98 31.66 45 32 C46.83984375 34.01171875 46.83984375 34.01171875 48.9375 36.6875 C51.65539906 40.10505624 54.39072882 43.47973446 57.2578125 46.7734375 C57.80574463 47.40290283 58.35367676 48.03236816 58.91821289 48.6809082 C60.00509709 49.9246523 61.09537821 51.16543694 62.18920898 52.40307617 C66 56.78118144 66 56.78118144 66 59 C66.66 59 67.32 59 68 59 C68.66 59.99 69.32 60.98 70 62 C70.33 41.54 70.66 21.08 71 0 C77.27 0 83.54 0 90 0 C90 31.35 90 62.7 90 95 C73 95 73 95 68.0625 90.25 C66.14943108 87.26927302 64.54126082 84.1867615 63 81 C62.34 81 61.68 81 61 81 C59.98648336 79.34151823 58.98879205 77.67334039 58 76 C56.9171875 74.9171875 56.9171875 74.9171875 55.8125 73.8125 C55.214375 73.214375 54.61625 72.61625 54 72 C54 71.34 54 70.68 54 70 C53.34 70 52.68 70 52 70 C47 64.52380952 47 64.52380952 47 62 C46.34 62 45.68 62 45 62 C43.51977579 60.38951606 42.11532547 58.70897882 40.75 57 C39.94691406 55.99839844 39.14382813 54.99679688 38.31640625 53.96484375 C35.91490393 50.89108277 33.5822969 47.77440898 31.265625 44.63671875 C29.67234616 42.57627482 27.87004124 40.80971733 26 39 C21 33.46685879 21 33.46685879 21 31 C20.34 31 19.68 31 19 31 C19 52.12 19 73.24 19 95 C12.73 95 6.46 95 0 95 C0 63.65 0 32.3 0 0 Z " fill="#FFFFFF" transform="translate(775,98)"/>
<path d="M0 0 C6.27 0.33 12.54 0.66 19 1 C21.19824415 5.9240669 23.37606213 10.85636139 25.53198242 15.79907227 C28.28739155 22.11593498 31.08216276 28.4106995 33.9453125 34.6796875 C35.99429624 39.18745173 37.90223277 43.70807967 39.5625 48.375 C40.55605776 52.05577276 40.55605776 52.05577276 43 53 C43.11601563 52.3090625 43.23203125 51.618125 43.3515625 50.90625 C44.0835651 47.62546728 45.16597904 44.63612709 46.375 41.5 C46.79523438 40.3965625 47.21546875 39.293125 47.6484375 38.15625 C48.89640904 35.24191185 50.35335981 32.7001358 52 30 C52.66158156 28.47367404 53.28690205 26.93111758 53.875 25.375 C55.66213121 20.77365068 57.65737148 16.30396241 59.75390625 11.8359375 C60.77451663 9.51316905 61.69396925 7.19876901 62.57788086 4.82275391 C62.97867104 3.74738876 62.97867104 3.74738876 63.38755798 2.65029907 C63.58966385 2.10570038 63.79176971 1.56110168 64 1 C76.668638 0.19075799 89.22763576 -0.09331827 101.91796875 0.12109375 C103.63958476 0.14549454 105.36120884 0.1693324 107.08283997 0.19264221 C111.54281028 0.25449571 116.00263176 0.32382364 120.46246338 0.39489746 C125.04196585 0.46649225 129.62157114 0.5307573 134.20117188 0.59570312 C143.13423139 0.72343607 152.06712787 0.85977302 161 1 C161 5.62 161 10.24 161 15 C151.1 15 141.2 15 131 15 C131 38.76 131 62.52 131 87 C125.39 87 119.78 87 114 87 C114 63.24 114 39.48 114 15 C103.77 15 93.54 15 83 15 C82.505 10.545 82.505 10.545 82 6 C79.10534611 10.50279494 77.24549815 14.93103014 75.5 20 C72.91594828 27.49137931 72.91594828 27.49137931 70.9375 30.75 C68.88726883 34.18909744 67.50509 37.60447293 66.06640625 41.328125 C64.96140948 44.09668834 63.7498273 46.79395191 62.5 49.5 C60.90212525 52.96855738 59.39497595 56.4450613 58 60 C56.23637324 64.49440368 54.2560726 68.8645568 52.23046875 73.24609375 C50.65033868 76.78257534 49.2575112 80.37895958 47.89453125 84.00390625 C47 86 47 86 45 88 C41.875 88.125 41.875 88.125 39 88 C35.61256055 81.32988727 32.32560434 74.63544639 29.265625 67.80859375 C27.9551015 64.90036413 26.60321298 62.01358924 25.25 59.125 C22.57083248 53.33965112 20.05697326 47.49206817 17.5625 41.625 C13.62133072 32.36222263 9.45487485 23.23915019 5.11914062 14.15429688 C4.26212987 12.35514185 3.41219408 10.55262203 2.5625 8.75 C2.06878906 7.71359375 1.57507812 6.6771875 1.06640625 5.609375 C0 3 0 3 0 0 Z " fill="#FFFFFF" transform="translate(1302,241)"/>
<path d="M0 0 C60.90606509 0 60.90606509 0 75.75 11.75 C76.4925 12.4925 77.235 13.235 78 14 C78 14.66 78 15.32 78 16 C78.66 16 79.32 16 80 16 C80.495 17.98 80.495 17.98 81 20 C81.66 20 82.32 20 83 20 C88.54168947 30.8922862 91.40083918 39.76385655 91 52 C91.00644531 52.68578125 91.01289062 53.3715625 91.01953125 54.078125 C90.61858111 64.38827137 84.13708189 74.83938943 77.171875 82.1015625 C65.42209417 92.37205438 51.69148927 95.35283499 36.5234375 95.1953125 C35.12315308 95.19229126 35.12315308 95.19229126 33.69458008 95.18920898 C30.25466904 95.17885708 26.81482884 95.15093585 23.375 95.125 C15.66125 95.08375 7.9475 95.0425 0 95 C0 63.65 0 32.3 0 0 Z M20 16 C20 36.79 20 57.58 20 79 C43.84201349 80.52673485 43.84201349 80.52673485 62.8203125 70.3671875 C64.21776063 69.0485928 64.21776063 69.0485928 64 67 C64.66 67 65.32 67 66 67 C66.64690922 65.3962669 67.29248764 63.79199694 67.9375 62.1875 C68.29714844 61.29417969 68.65679688 60.40085938 69.02734375 59.48046875 C71.84938727 52.28369109 72.40570354 43.84498966 69.625 36.5 C69.08875 35.345 68.5525 34.19 68 33 C67.608125 32.01 67.21625 31.02 66.8125 30 C66.544375 29.34 66.27625 28.68 66 28 C65.34 28 64.68 28 64 28 C63.814375 27.443125 63.62875 26.88625 63.4375 26.3125 C59.43002907 19.86569893 52.92529666 18.30843222 46 16 C37.42 16 28.84 16 20 16 Z " fill="#FFFFFF" transform="translate(1425,98)"/>
<path d="M0 0 C0 0.66 0 1.32 0 2 C0.598125 2.268125 1.19625 2.53625 1.8125 2.8125 C3.99847854 3.99917406 5.41332594 5.09599113 7 7 C7 7.66 7 8.32 7 9 C8.485 9.495 8.485 9.495 10 10 C11.34884455 12.38845618 12.50940754 14.69396178 13.625 17.1875 C13.93695312 17.84814453 14.24890625 18.50878906 14.5703125 19.18945312 C19.37292528 29.67446765 19.76174838 43.09092969 16 54 C12.97041928 61.77503017 9.29088366 68.35433518 3 74 C1.515 74.495 1.515 74.495 0 75 C0 75.66 0 76.32 0 77 C-15.02168783 85.94909062 -30.64615477 89.86171753 -48.09765625 86.27734375 C-54.93529052 84.43959003 -61.04961531 81.84098906 -67 78 C-67 77.34 -67 76.68 -67 76 C-67.7321875 75.78085938 -68.464375 75.56171875 -69.21875 75.3359375 C-76.60351905 71.78875911 -82.37491577 61.08798409 -85.18359375 53.66015625 C-88.03779464 40.86404987 -87.64927466 26.5154105 -81 15 C-78.87704523 11.77446279 -76.58599423 8.86392819 -74 6 C-73.2575 5.13375 -72.515 4.2675 -71.75 3.375 C-50.15237993 -15.27749006 -23.71373722 -12.80401492 0 0 Z M-60.875 19.125 C-67.22046319 27.71003843 -66.22830097 37.37927176 -65.875 47.625 C-63.89060817 55.27908278 -58.55496063 61.68683591 -52 66 C-43.34370113 71.07056923 -33.52094513 71.43476914 -23.83984375 69.3046875 C-18.07299644 67.41677875 -12.94997708 64.71840265 -9 60 C-9 59.34 -9 58.68 -9 58 C-8.34 58 -7.68 58 -7 58 C-1.61591541 49.09703155 -0.44921397 40.17623231 -2 30 C-3.16438554 26.22644033 -4.73265737 23.219376 -7 20 C-7.38414063 19.41992188 -7.76828125 18.83984375 -8.1640625 18.2421875 C-12.69159579 12.1130778 -19.19532899 8.60190857 -26.5859375 7.28125 C-40.32475424 5.68061116 -51.60550951 8.45022232 -60.875 19.125 Z " fill="#FFFFFF" transform="translate(1281,107)"/>
<path d="M0 0 C0 0.66 0 1.32 0 2 C1.0828125 2.3403125 1.0828125 2.3403125 2.1875 2.6875 C9.97367443 6.32104807 12.5908278 13.52962814 16 21 C16.54398438 22.05058594 17.08796875 23.10117188 17.6484375 24.18359375 C19.68952587 29.02103967 19.53199794 34.01056946 19.5 39.1875 C19.49645508 40.21037109 19.49291016 41.23324219 19.48925781 42.28710938 C19.31407715 50.26417682 18.0695074 56.05234823 14 63 C13.68933594 63.66644531 13.37867188 64.33289063 13.05859375 65.01953125 C7.88575866 75.66675684 -4.72110801 82.53055935 -15.421875 86.23828125 C-29.53715082 90.40870365 -45.55512186 89.11647654 -58.6953125 82.6796875 C-71.13485639 75.71810789 -79.1301965 66.31891258 -84 53 C-87.42946528 38.13898377 -84.15816273 24.95018014 -76.85546875 11.96484375 C-75.8125 10.3125 -75.8125 10.3125 -74 8 C-73.34 8 -72.68 8 -72 8 C-71.75894531 7.41089844 -71.51789063 6.82179688 -71.26953125 6.21484375 C-66.68276909 -1.78729208 -55.31633566 -5.44599844 -47 -8 C-30.1423653 -11.6090871 -14.89349329 -8.15973303 0 0 Z M-51 12 C-51 12.66 -51 13.32 -51 14 C-52.65 14.66 -54.3 15.32 -56 16 C-56 16.66 -56 17.32 -56 18 C-56.66 18 -57.32 18 -58 18 C-58.98219627 19.76915475 -59.96065359 21.54038569 -60.9375 23.3125 C-61.75541016 24.79169922 -61.75541016 24.79169922 -62.58984375 26.30078125 C-66.17867138 33.17025464 -66.29773195 42.37442077 -64.2109375 49.8125 C-63.25528588 51.97183496 -62.21152167 53.97496559 -61 56 C-60.46375 57.010625 -59.9275 58.02125 -59.375 59.0625 C-58.694375 60.0215625 -58.694375 60.0215625 -58 61 C-57.34 61 -56.68 61 -56 61 C-55.67 61.99 -55.34 62.98 -55 64 C-46.07480973 71.14015222 -36.17475646 72.02893903 -25 71 C-15.96834033 69.13395461 -9.04731362 63.21561033 -3.484375 56.046875 C0.96300695 48.09169884 0.16104627 36.5235574 -1.66015625 27.859375 C-4.20406809 20.67915631 -9.03891546 15.67565886 -15.4375 11.6875 C-27.72589002 5.86668367 -38.51205636 7.55278319 -51 12 Z " fill="#FFFFFF" transform="translate(1393,106)"/>
<path d="M0 0 C5.46999969 3.70733779 9.2316237 7.4791124 11 14 C11.93377743 22.13720333 10.49388297 28.43731004 5.8125 35.125 C2.65800002 38.64720243 -1.16314425 41.26867896 -5 44 C-1.7 47.96 1.6 51.92 5 56 C8.63202322 54.18398839 9.55911301 53.70008277 11.6875 50.625 C12.31205078 49.74714844 12.31205078 49.74714844 12.94921875 48.8515625 C14.2531145 46.74658158 14.2531145 46.74658158 15 43 C21.27 43 27.54 43 34 43 C30.60497667 53.18506998 30.60497667 53.18506998 27.6875 57.625 C27.08292969 58.54539063 26.47835938 59.46578125 25.85546875 60.4140625 C24.1798439 62.74935439 22.42665011 64.87125372 20.5 67 C19.675 67.99 18.85 68.98 18 70 C18.33 70.99 18.66 71.98 19 73 C20.485 73.495 20.485 73.495 22 74 C23.2109375 75.453125 23.2109375 75.453125 24.375 77.25 C26.05930394 79.74072825 27.58882625 81.58882625 29.75 83.75 C32 86 32 86 33 89 C34.485 89.495 34.485 89.495 36 90 C36 90.66 36 91.32 36 92 C27.75 92 19.5 92 11 92 C10.67 91.01 10.34 90.02 10 89 C9.34 89 8.68 89 8 89 C6.61767557 87.37373596 5.28062485 85.7074998 4 84 C-0.90911386 85.87143015 -5.4958508 88.25448043 -10.16015625 90.66015625 C-17.81911666 94.27366852 -28.00557479 94.29941273 -36.16796875 92.17578125 C-39.75524473 90.75040867 -42.78487598 89.14341602 -46 87 C-46 86.34 -46 85.68 -46 85 C-46.66 85 -47.32 85 -48 85 C-52.3325678 80.28951352 -53.81029447 75.10293471 -54.15234375 68.83203125 C-53.9080961 64.29153009 -52.62173339 60.22383668 -51 56 C-50.34 56 -49.68 56 -49 56 C-48.74863281 55.4121875 -48.49726562 54.824375 -48.23828125 54.21875 C-46.84550617 51.72317825 -45.36828502 50.33469485 -43.1875 48.5 C-42.47980469 47.90058594 -41.77210937 47.30117187 -41.04296875 46.68359375 C-38.7141111 44.76440131 -36.37814075 42.85792246 -34 41 C-34.42152344 40.30132812 -34.84304688 39.60265625 -35.27734375 38.8828125 C-35.82519531 37.97273438 -36.37304688 37.06265625 -36.9375 36.125 C-37.48277344 35.22007812 -38.02804687 34.31515625 -38.58984375 33.3828125 C-42.17458244 27.32549782 -41.98589849 19.89610046 -41 13 C-39.55533629 9.378645 -37.6889865 6.79860945 -35 4 C-34.2575 3.21625 -33.515 2.4325 -32.75 1.625 C-22.94331658 -4.16985838 -10.26235427 -5.30940815 0 0 Z M-23 16 C-23.66614489 21.42432265 -23.33716237 24.09494568 -20 28.5 C-19.01808825 29.68193081 -18.02387802 30.85423174 -17 32 C-12.73166973 31.19174172 -10.9390647 29.17109612 -8 26 C-7.34 25.34 -6.68 24.68 -6 24 C-5.33241215 20.62751384 -5.33241215 20.62751384 -6 17 C-8.70573026 14.0425739 -10.58301902 12.27648409 -14.5625 11.5 C-17.87188332 12.17884786 -20.59437291 13.59437291 -23 16 Z M-27 56 C-27 56.66 -27 57.32 -27 58 C-27.598125 58.268125 -28.19625 58.53625 -28.8125 58.8125 C-31.06469607 60.03512072 -32.37958671 61.02554683 -34 63 C-34.68951216 66.06832911 -34.56837108 68.914557 -34 72 C-31.587616 75.50892218 -29.88752446 76.69824168 -25.875 78.0625 C-20.48967606 77.97563994 -15.76042049 76.52423571 -11 74 C-9.18539255 71.97421721 -9.18539255 71.97421721 -8 70 C-11.38582085 65.31104535 -14.78321162 60.98885388 -19 57 C-19.556875 56.401875 -20.11375 55.80375 -20.6875 55.1875 C-23.22862513 52.88838678 -24.25696181 54.17130787 -27 56 Z " fill="#FFFFFF" transform="translate(1682,101)"/>
<path d="M0 0 C16 0 16 0 18 1 C18 1.66 18 2.32 18 3 C18.99 3.33 19.98 3.66 21 4 C22.83203125 6.0390625 22.83203125 6.0390625 24.8125 8.625 C27.29821155 11.83207332 29.80547665 14.96626112 32.5 18 C35 21 35 21 35 23 C35.66 23 36.32 23 37 23 C37.268125 23.804375 37.53625 24.60875 37.8125 25.4375 C38.4003125 26.7059375 38.4003125 26.7059375 39 28 C39.99 28.33 40.98 28.66 42 29 C42 29.66 42 30.32 42 31 C42.66 31 43.32 31 44 31 C44.268125 31.804375 44.53625 32.60875 44.8125 33.4375 C45.4003125 34.7059375 45.4003125 34.7059375 46 36 C46.99 36.33 47.98 36.66 49 37 C50.83203125 39.0390625 50.83203125 39.0390625 52.8125 41.625 C55.29821155 44.83207332 57.80547665 47.96626112 60.5 51 C63 54 63 54 63 56 C63.66 56 64.32 56 65 56 C65 37.52 65 19.04 65 0 C70.94 0 76.88 0 83 0 C83 28.38 83 56.76 83 86 C67 86 67 86 62.25 81.375 C61.21928373 79.83593046 60.19006328 78.29550943 59.19384766 76.73388672 C56.89938921 73.40152601 54.12376276 70.45542918 51.4375 67.4375 C46 61.29791417 46 61.29791417 46 59 C45.34 59 44.68 59 44 59 C43.731875 58.195625 43.46375 57.39125 43.1875 56.5625 C42.5996875 55.2940625 42.5996875 55.2940625 42 54 C41.01 53.67 40.02 53.34 39 53 C39 52.34 39 51.68 39 51 C38.34 51 37.68 51 37 51 C34.98305577 48.34612602 32.98900922 45.67487447 31 43 C27.04 38.38 23.08 33.76 19 29 C18.67 47.81 18.34 66.62 18 86 C12.06 86 6.12 86 0 86 C0 57.62 0 29.24 0 0 Z " fill="#FFFFFF" transform="translate(778,242)"/>
<path d="M0 0 C1.18613892 0.00785522 1.18613892 0.00785522 2.39624023 0.01586914 C3.67724609 0.02070312 3.67724609 0.02070312 4.98413086 0.02563477 C5.88196289 0.03401367 6.77979492 0.04239258 7.70483398 0.05102539 C8.6065332 0.05553711 9.50823242 0.06004883 10.43725586 0.06469727 C12.67234712 0.07652315 14.90730835 0.09300319 17.14233398 0.11352539 C19.40610803 3.97276596 21.50888285 7.66466984 23.07983398 11.86352539 C24.87820217 16.51937977 26.8941808 21.04346264 28.99389648 25.57055664 C30.11827381 28.06024929 31.13129076 30.57608229 32.14233398 33.11352539 C32.94277264 34.95215676 33.75564477 36.78541722 34.57983398 38.61352539 C34.99104492 39.53133789 35.40225586 40.44915039 35.82592773 41.39477539 C37.10064231 44.13854676 37.10064231 44.13854676 38.72045898 46.70336914 C40.01941473 48.9051705 40.76351225 50.73523641 41.45483398 53.17602539 C43.01273325 58.11210621 45.30455153 62.54247086 47.66577148 67.13696289 C49.36269664 70.55774853 50.76630802 74.03067699 52.13061523 77.59399414 C53.64509241 81.36556857 55.41915548 85.01081318 57.18920898 88.66821289 C58.14233398 91.11352539 58.14233398 91.11352539 58.14233398 95.11352539 C55.05971943 95.28816509 51.97837566 95.39446607 48.89233398 95.48852539 C48.01963867 95.53879883 47.14694336 95.58907227 46.24780273 95.64086914 C43.75253287 95.69801273 41.5786399 95.66221746 39.14233398 95.11352539 C35.98799703 91.7004731 34.50915096 87.97614983 33.01733398 83.61352539 C32.70538086 82.71633789 32.39342773 81.81915039 32.07202148 80.89477539 C31.09377438 77.96825463 30.11811527 75.04086924 29.14233398 72.11352539 C15.61233398 72.11352539 2.08233398 72.11352539 -11.85766602 72.11352539 C-12.18766602 73.43352539 -12.51766602 74.75352539 -12.85766602 76.11352539 C-13.77224545 78.82478924 -14.78973099 81.49727643 -15.79516602 84.17602539 C-16.06006836 84.8959668 -16.3249707 85.6159082 -16.59790039 86.35766602 C-17.79025651 89.54418597 -18.96243584 92.27068013 -20.85766602 95.11352539 C-22.9206543 95.45410156 -22.9206543 95.45410156 -25.42797852 95.40649414 C-26.32387695 95.39682617 -27.21977539 95.3871582 -28.14282227 95.37719727 C-29.0799707 95.35206055 -30.01711914 95.32692383 -30.98266602 95.30102539 C-32.39999023 95.28072266 -32.39999023 95.28072266 -33.84594727 95.26000977 C-36.1837538 95.22458845 -38.52042839 95.1751981 -40.85766602 95.11352539 C-39.1778023 89.81549367 -37.12936679 84.69876779 -35.04516602 79.55102539 C-32.68473382 73.69312353 -30.348164 67.83088923 -28.10766602 61.92602539 C-26.51579014 57.75330093 -24.8034385 53.67602631 -22.95141602 49.61352539 C-21.52545403 46.3541837 -20.22583308 43.04728383 -18.92016602 39.73852539 C-17.21168278 35.41606812 -15.45234945 31.13730141 -13.48266602 26.92602539 C-10.55857711 20.6478345 -8.06181873 14.19943036 -5.53588867 7.75341797 C-5.20379395 6.91061279 -4.87169922 6.06780762 -4.52954102 5.19946289 C-4.08239746 4.05550049 -4.08239746 4.05550049 -3.6262207 2.88842773 C-2.44006519 0.14911688 -2.44006519 0.14911688 0 0 Z M7.14233398 22.11352539 C6.75045898 23.33040039 6.35858398 24.54727539 5.95483398 25.80102539 C2.77562912 35.32371415 -1.01134988 44.61326224 -4.93969727 53.84790039 C-5.92025262 55.86057292 -5.92025262 55.86057292 -5.85766602 57.11352539 C3.38233398 57.11352539 12.62233398 57.11352539 22.14233398 57.11352539 C19.65619283 48.72495432 19.65619283 48.72495432 16.16381836 41.10961914 C14.33997304 37.54562313 12.89039748 33.82332212 11.39233398 30.11352539 C11.07651367 29.33879883 10.76069336 28.56407227 10.43530273 27.76586914 C9.66816646 25.88289829 8.90484149 23.99837541 8.14233398 22.11352539 C7.81233398 22.11352539 7.48233398 22.11352539 7.14233398 22.11352539 Z " fill="#FFFFFF" transform="translate(912.857666015625,97.886474609375)"/>
<path d="M0 0 C11.26125 -0.12375 11.26125 -0.12375 22.75 -0.25 C25.09448242 -0.28641602 27.43896484 -0.32283203 29.85449219 -0.36035156 C46.18425521 -0.50923124 58.13426667 1.25537273 70.75 12.4375 C79.08319223 21.92808004 81.52501796 30.2951331 81.4375 42.9375 C81.45748047 43.95779297 81.47746094 44.97808594 81.49804688 46.02929688 C81.49217892 55.22437988 79.24589768 62.90922709 73.375 70.125 C72.78460937 70.87007813 72.19421875 71.61515625 71.5859375 72.3828125 C71.06257813 72.91648437 70.53921875 73.45015625 70 74 C69.34 74 68.68 74 68 74 C68 74.66 68 75.32 68 76 C62.26856713 80.2955833 55.91201406 83.21749545 49 85 C48.34016113 85.17418457 47.68032227 85.34836914 47.00048828 85.52783203 C42.6269746 86.21606437 38.30698299 86.12211804 33.88671875 86.09765625 C33.02679321 86.09664917 32.16686768 86.09564209 31.28088379 86.09460449 C28.08307554 86.08939106 24.88528636 86.07542983 21.6875 86.0625 C14.530625 86.041875 7.37375 86.02125 0 86 C0 57.62 0 29.24 0 0 Z M17 14 C17 33.14 17 52.28 17 72 C36.73444326 72.80439701 36.73444326 72.80439701 54 66 C54 65.34 54 64.68 54 64 C54.5775 63.814375 55.155 63.62875 55.75 63.4375 C59.94222662 60.759133 61.5256853 56.23321822 63.25 51.75 C65.23054471 41.84727646 64.45821285 32.23672231 58.8125 23.6875 C46.31885153 11.7491248 35.47673349 14 17 14 Z " fill="#FFFFFF" transform="translate(1640,242)"/>
<path d="M0 0 C49.4 0 49.4 0 58 7 C60.6875 9.9375 60.6875 9.9375 63 13 C63.79664063 14.03060547 63.79664063 14.03060547 64.609375 15.08203125 C66.61402354 19.28841456 66.5752166 23.14107896 66.5625 27.75 C66.56008301 28.64726807 66.55766602 29.54453613 66.55517578 30.46899414 C66.36133057 37.41131348 65.16789176 42.09227671 60 47 C59.50886719 47.50402344 59.01773438 48.00804687 58.51171875 48.52734375 C52.31095163 54.29355576 44.69646094 56.14355565 36.48046875 56.09765625 C35.55903076 56.09515869 34.63759277 56.09266113 33.68823242 56.09008789 C32.53299072 56.08098389 31.37774902 56.07187988 30.1875 56.0625 C24.6496875 56.0315625 24.6496875 56.0315625 19 56 C19 68.87 19 81.74 19 95 C12.73 95 6.46 95 0 95 C0 63.65 0 32.3 0 0 Z M19 16 C19 23.92 19 31.84 19 40 C21.990625 40.0825 24.98125 40.165 28.0625 40.25 C29.45480835 40.30462402 29.45480835 40.30462402 30.87524414 40.36035156 C36.78854277 40.4386985 40.18467685 39.48156004 45 36 C47.82493725 31.76259413 47.7788872 27.97534067 47 23 C44.18836683 19.14404593 41.50906422 17.36968886 37 16 C33.88963972 15.76591422 30.80428049 15.81153551 27.6875 15.875 C23.3871875 15.936875 23.3871875 15.936875 19 16 Z " fill="#FFFFFF" transform="translate(516,98)"/>
<path d="M0 0 C0 5.61 0 11.22 0 17 C-3.13851547 16.21537113 -5.06732926 15.54410946 -7.8125 14.0625 C-15.94967165 9.97160018 -23.93386594 9.00336824 -33 10 C-35.28782636 11.16261476 -37.18588574 12.18588574 -39 14 C-39.13568319 17.66344611 -39.16461426 20.50615721 -38 24 C-36.19679679 25.12562211 -36.19679679 25.12562211 -34 26 C-33.2663623 26.34119873 -32.53272461 26.68239746 -31.77685547 27.03393555 C-30.98166504 27.397854 -30.18647461 27.76177246 -29.3671875 28.13671875 C-1.65472841 40.95019633 -1.65472841 40.95019633 3.3125 53.25 C5.12059364 63.11232893 3.93365404 70.35835761 -0.625 79.125 C-5.7845178 85.37073208 -12.04184094 88.63958497 -20 90 C-22.96533638 90.27716545 -25.89790044 90.33481948 -28.875 90.3125 C-29.66656494 90.30686035 -30.45812988 90.3012207 -31.27368164 90.29541016 C-42.11466783 90.07064579 -49.66857511 86.38351436 -59 81 C-59 74.73 -59 68.46 -59 62 C-55.1562926 63.53748296 -53.12261143 64.52084373 -50 66.875 C-42.23263603 72.13509507 -33.46400254 74.9751763 -24.1015625 73.49609375 C-21.60241768 72.90614693 -19.29905548 72.14952774 -17 71 C-15.7934185 64.41677663 -15.7934185 64.41677663 -17 58 C-19.19932935 56.83486387 -19.19932935 56.83486387 -22 56 C-23.67585738 55.04889383 -25.35050987 54.09552235 -27.015625 53.12573242 C-29.02465713 51.98601206 -31.05962524 50.92829017 -33.12109375 49.88671875 C-48.67473791 41.9977823 -48.67473791 41.9977823 -54 36 C-54.52078125 35.46761719 -55.0415625 34.93523437 -55.578125 34.38671875 C-60.44824782 28.35258306 -60.06510536 20.31143935 -59.32958984 12.93945312 C-58.22802063 6.45733026 -53.86445635 2.48910658 -48.9375 -1.4375 C-34.53501197 -11.33067015 -14.49780253 -8.08531295 0 0 Z " fill="#FFFFFF" transform="translate(1583,104)"/>
<path d="M0 0 C2.93902349 -0.13481759 5.87189559 -0.23399416 8.8125 -0.3125 C10.06256836 -0.3753418 10.06256836 -0.3753418 11.33789062 -0.43945312 C13.65622419 -0.48600601 15.72830441 -0.47008525 18 0 C20.6721545 3.09049572 21.6139149 6.60473143 22.98828125 10.4296875 C25.93496706 17.91586226 29.53978693 25.24107679 33.25 32.375 C34.53510168 34.89681041 35.47789929 37.35879351 36.3125 40.0625 C38.96781608 48.4661377 43.177459 56.48337234 47.1875 64.3125 C49.06651201 67.99825432 50.55112078 71.81117987 52.05078125 75.6640625 C52.85765156 77.64969397 53.79148322 79.58296645 54.75 81.5 C56 84 56 84 56 86 C49.73 86 43.46 86 37 86 C35.865625 83.64875 34.73125 81.2975 33.5625 78.875 C33.20615479 78.14651855 32.84980957 77.41803711 32.48266602 76.66748047 C32.20092529 76.07338379 31.91918457 75.47928711 31.62890625 74.8671875 C31.34088135 74.27019043 31.05285645 73.67319336 30.75610352 73.05810547 C30 71 30 71 29 65 C16.46 65 3.92 65 -9 65 C-9.99 68.63 -10.98 72.26 -12 76 C-13.48017177 79.48153079 -15.20826883 82.6586635 -17 86 C-22.94 86 -28.88 86 -35 86 C-32.9701346 77.88053841 -29.74099452 70.31677175 -26.21875 62.74609375 C-24.62941747 59.16500154 -23.33478563 55.507698 -22.02734375 51.81640625 C-19.53086262 44.97244087 -16.61806173 38.29809027 -13.5625 31.6875 C-11.25307159 26.66921374 -9.20011541 21.57137247 -7.17138672 16.43554688 C-4.96855231 10.87321061 -2.67657982 5.35315965 0 0 Z M9 21 C6.3022305 23.6977695 6.03491517 26.34735821 5 30 C4 32 3 34 2 36 C0.91567828 38.97383285 -0.03997131 41.98420306 -1 45 C-1.66 46.98 -2.32 48.96 -3 51 C5.25 51 13.5 51 22 51 C18.86175949 42.30200758 18.86175949 42.30200758 15.4375 33.75 C15.01984375 32.76 14.6021875 31.77 14.171875 30.75 C13.78515625 29.8425 13.3984375 28.935 13 28 C12.67515625 27.236875 12.3503125 26.47375 12.015625 25.6875 C11.34715781 24.12353904 10.67427022 22.56146788 10 21 C9.67 21 9.34 21 9 21 Z " fill="#FFFFFF" transform="translate(1016,242)"/>
<path d="M0 0 C18.48 0 36.96 0 56 0 C56 4.62 56 9.24 56 14 C43.46 14 30.92 14 18 14 C18 20.93 18 27.86 18 35 C30.21 35 42.42 35 55 35 C55 39.62 55 44.24 55 49 C42.79 49 30.58 49 18 49 C18 56.59 18 64.18 18 72 C30.87 72 43.74 72 57 72 C57 76.62 57 81.24 57 86 C38.19 86 19.38 86 0 86 C0 57.62 0 29.24 0 0 Z " fill="#FFFFFF" transform="translate(710,242)"/>
<path d="M0 0 C18.48 0 36.96 0 56 0 C56 4.62 56 9.24 56 14 C43.46 14 30.92 14 18 14 C18 20.93 18 27.86 18 35 C30.21 35 42.42 35 55 35 C55 39.62 55 44.24 55 49 C42.79 49 30.58 49 18 49 C18 56.59 18 64.18 18 72 C30.87 72 43.74 72 57 72 C57 76.62 57 81.24 57 86 C38.19 86 19.38 86 0 86 C0 57.62 0 29.24 0 0 Z " fill="#FFFFFF" transform="translate(513,242)"/>
<path d="M0 0 C19.14 0 38.28 0 58 0 C58 5.28 58 10.56 58 16 C45.13 16 32.26 16 19 16 C19 23.26 19 30.52 19 38 C31.87 38 44.74 38 58 38 C58 43.28 58 48.56 58 54 C45.13 54 32.26 54 19 54 C19 67.53 19 81.06 19 95 C12.73 95 6.46 95 0 95 C0 63.65 0 32.3 0 0 Z " fill="#FFFFFF" transform="translate(1128,98)"/>
<path d="M0 0 C47.80555556 0 47.80555556 0 55 7 C61.06696265 14.20129561 61.51927359 20.74627825 61 30 C59.77171193 36.24379767 57.31231132 40.68768868 52.8125 45.1875 C45.25725993 50.05643249 37.72171 50.40193416 28.9375 50.1875 C25.328125 50.125625 21.71875 50.06375 18 50 C18 61.88 18 73.76 18 86 C12.06 86 6.12 86 0 86 C0 57.62 0 29.24 0 0 Z M18 14 C18 21.26 18 28.52 18 36 C20.68125 36.0825 23.3625 36.165 26.125 36.25 C26.95789551 36.28641602 27.79079102 36.32283203 28.64892578 36.36035156 C33.90410752 36.43809465 36.85351331 35.50371824 41 32 C43.48533404 28.27199894 43.4014703 25.31144196 43 21 C42.13916931 17.81492646 41.28416751 17.17892029 38.46875 15.40625 C34.15588283 13.65779034 30.71033692 13.66213927 26.125 13.8125 C22.103125 13.9053125 22.103125 13.9053125 18 14 Z " fill="#FFFFFF" transform="translate(1240,242)"/>
<path d="M0 0 C0.22107787 2.7885289 0.28107535 5.34653181 0.1875 8.125 C0.16719727 9.25615234 0.16719727 9.25615234 0.14648438 10.41015625 C0.11109985 12.27374127 0.05729167 14.13695978 0 16 C-2.6613792 14.95113232 -5.2942777 13.8696488 -7.91015625 12.7109375 C-15.24968149 9.60050673 -21.99546718 7.58743539 -30 9 C-33.21927551 10.69550078 -33.21927551 10.69550078 -36 13 C-36.58528777 15.82981591 -36.58528777 15.82981591 -36 19 C-31.81627877 23.04855486 -27.42543226 25.49146976 -22.1875 27.9375 C-1.14354865 38.12874721 -1.14354865 38.12874721 2.48828125 47.72265625 C4.08421237 54.82515886 4.28049174 62.50418204 0.875 69.0625 C-3.19803728 75.24663265 -8.93342185 79.73335546 -16.21875 81.5546875 C-28.1360986 83.4628023 -38.09242719 82.06168412 -49 77 C-50.423125 76.443125 -50.423125 76.443125 -51.875 75.875 C-54 74 -54 74 -54.38793945 72.16918945 C-54.49405366 69.86281908 -54.43542714 67.61785658 -54.3125 65.3125 C-54.28994141 64.51521484 -54.26738281 63.71792969 -54.24414062 62.89648438 C-54.18526944 60.93018666 -54.09558755 58.96485509 -54 57 C-50.59930477 57.76473257 -48.30157985 58.95890049 -45.375 60.875 C-37.28199686 65.80685947 -30.3641358 67.86176716 -21 66 C-19.989375 65.814375 -18.97875 65.62875 -17.9375 65.4375 C-16.9784375 65.2209375 -16.9784375 65.2209375 -16 65 C-15.03699066 59.85321011 -15.03699066 59.85321011 -15.5625 54.75 C-19.3758057 50.1077148 -25.43798507 47.71987615 -30.75 45.1875 C-49.08037869 36.17056025 -49.08037869 36.17056025 -53.21875 28.6328125 C-55.39378288 21.3029517 -55.84524567 11.1816679 -52.125 4.3125 C-46.58027399 -2.59899321 -38.73111906 -5.74810122 -30.140625 -6.81640625 C-19.42867089 -7.44260257 -9.07689959 -6.05126639 0 0 Z " fill="#FFFFFF" transform="translate(696,247)"/>
<path d="M0 0 C2 2 2 2 2.1953125 5.6953125 C2.182009 7.17200108 2.15814835 8.64862358 2.125 10.125 C2.11597656 10.87910156 2.10695313 11.63320313 2.09765625 12.41015625 C2.0740687 14.27357254 2.03819719 16.13682593 2 18 C1.27554687 17.66226562 0.55109375 17.32453125 -0.1953125 16.9765625 C-1.16210938 16.53054688 -2.12890625 16.08453125 -3.125 15.625 C-4.07632812 15.18414062 -5.02765625 14.74328125 -6.0078125 14.2890625 C-11.33076059 11.99588643 -15.73251224 10.70814931 -21.5625 10.6875 C-22.65691406 10.67074219 -23.75132813 10.65398437 -24.87890625 10.63671875 C-28.37263671 11.04337323 -30.25098771 11.82390801 -33 14 C-33.83383302 17.41408529 -33.83383302 17.41408529 -33 21 C-29.03058794 25.97372114 -24.17052609 28.10669592 -18.5 30.625 C-7.13720702 35.77566879 -7.13720702 35.77566879 -4 38 C-4 38.66 -4 39.32 -4 40 C-3.39671875 40.268125 -2.7934375 40.53625 -2.171875 40.8125 C1.80803403 42.98856537 3.53801394 45.73539243 5 50 C5.42348362 53.04529187 5.5315292 56.05269635 5.5625 59.125 C5.58425293 60.28902344 5.58425293 60.28902344 5.60644531 61.4765625 C5.49532443 67.80774233 3.4476224 71.30080185 -0.82421875 76.01171875 C-9.15260495 83.50202835 -17.09062819 84.64839224 -28.0546875 84.28515625 C-33.39738718 83.89900073 -38.01228644 82.91773154 -43 81 C-43.80824219 80.77570313 -44.61648438 80.55140625 -45.44921875 80.3203125 C-48.27004083 79.20773695 -49.3606804 78.58984945 -51 76 C-51.98664679 70.0597159 -51.4464061 63.9706816 -51 58 C-50.28714844 58.47050781 -49.57429688 58.94101562 -48.83984375 59.42578125 C-37.54811541 66.76616454 -28.70977828 70.67507869 -15 68 C-15 67.34 -15 66.68 -15 66 C-14.34 66 -13.68 66 -13 66 C-12.896875 64.783125 -12.79375 63.56625 -12.6875 62.3125 C-12.60048828 61.28576172 -12.60048828 61.28576172 -12.51171875 60.23828125 C-13.29434922 56.65070317 -15.19686871 55.32402467 -18 53 C-21.02411309 51.18796489 -24.1511148 49.61982049 -27.3125 48.0625 C-39.23925375 42.1603101 -48.55530946 36.10730169 -53 23 C-54.02924675 15.79527272 -51.038503 10.0577545 -47.125 4.1875 C-34.85180709 -8.44666917 -14.9373329 -6.54279871 0 0 Z " fill="#FFFFFF" transform="translate(1192,245)"/>
<path d="M0 0 C0 5.61 0 11.22 0 17 C-3.25520833 15.47005208 -6.51041667 13.94010417 -9.765625 12.41015625 C-14.56262188 10.31871196 -18.19011764 9.84283169 -23.4375 9.8125 C-24.54996094 9.79832031 -25.66242187 9.78414062 -26.80859375 9.76953125 C-29.96567188 9.99752098 -32.15707747 10.65558991 -35 12 C-35 15.3 -35 18.6 -35 22 C-32.25579855 23.37210072 -29.52534929 24.68743617 -26.734375 25.953125 C-25.92613281 26.32566406 -25.11789062 26.69820313 -24.28515625 27.08203125 C-22.61386504 27.85200979 -20.93942844 28.61520257 -19.26171875 29.37109375 C-10.01323926 33.66555411 -1.30484955 39.39030091 3.375 48.75 C5.10811579 57.76220212 4.08355092 64.83289815 0 73 C-0.66 73 -1.32 73 -2 73 C-2.22816406 73.60457031 -2.45632813 74.20914063 -2.69140625 74.83203125 C-4.37631072 77.62344015 -6.00361352 78.32179954 -8.9375 79.6875 C-9.81277344 80.10386719 -10.68804688 80.52023437 -11.58984375 80.94921875 C-21.44359794 85.24526393 -33.12264474 83.5480861 -43.03515625 80.265625 C-46.49035673 78.79067776 -49.73814563 76.86391678 -53 75 C-53 69.06 -53 63.12 -53 57 C-46 61 -46 61 -43.0859375 62.66796875 C-42.19132813 63.16941406 -41.29671875 63.67085938 -40.375 64.1875 C-39.47523438 64.69667969 -38.57546875 65.20585937 -37.6484375 65.73046875 C-31.62433056 68.61813063 -25.56030004 68.75549837 -19.1875 66.875 C-15.80647795 65.2702023 -15.80647795 65.2702023 -14.5 62.0625 C-14.03200266 59.19601627 -13.83054158 57.63128145 -15 55 C-15.99 54.505 -15.99 54.505 -17 54 C-17 53.34 -17 52.68 -17 52 C-17.99193359 51.62488281 -17.99193359 51.62488281 -19.00390625 51.2421875 C-22.73420707 49.69559603 -26.32619435 47.92897626 -29.9375 46.125 C-30.62779297 45.78597656 -31.31808594 45.44695312 -32.02929688 45.09765625 C-36.23761722 42.99947947 -40.13110148 40.69189737 -44 38 C-44.99 37.34 -45.98 36.68 -47 36 C-47 35.34 -47 34.68 -47 34 C-47.66 34 -48.32 34 -49 34 C-53.22721502 27.04019241 -55.41094541 21.17415483 -54 13 C-51.88085885 5.97337409 -48.51676964 1.93269147 -42.28125 -1.84375 C-28.27347853 -8.94357937 -13.89495723 -5.95498167 0 0 Z " fill="#FFFFFF" transform="translate(631,246)"/>
<path d="M0 0 C28.05 0 56.1 0 85 0 C85 5.28 85 10.56 85 16 C74.11 16 63.22 16 52 16 C52 42.07 52 68.14 52 95 C45.73 95 39.46 95 33 95 C33 68.93 33 42.86 33 16 C22.11 16 11.22 16 0 16 C0 10.72 0 5.44 0 0 Z " fill="#FFFFFF" transform="translate(961,98)"/>
<path d="M0 0 C26.07 0 52.14 0 79 0 C79 4.62 79 9.24 79 14 C69.1 14 59.2 14 49 14 C49 37.76 49 61.52 49 86 C43.06 86 37.12 86 31 86 C31 62.24 31 38.48 31 14 C20.77 14 10.54 14 0 14 C0 9.38 0 4.76 0 0 Z " fill="#FFFFFF" transform="translate(869,242)"/>
<path d="M0 0 C25.74 0 51.48 0 78 0 C78 4.62 78 9.24 78 14 C68.1 14 58.2 14 48 14 C48 37.76 48 61.52 48 86 C42.06 86 36.12 86 30 86 C30 62.24 30 38.48 30 14 C20.1 14 10.2 14 0 14 C0 9.38 0 4.76 0 0 Z " fill="#FFFFFF" transform="translate(1553,242)"/>
<path d="M0 0 C5.94 0 11.88 0 18 0 C18 23.76 18 47.52 18 72 C31.53 72 45.06 72 59 72 C59 76.62 59 81.24 59 86 C39.53 86 20.06 86 0 86 C0 57.62 0 29.24 0 0 Z " fill="#FFFFFF" transform="translate(1504,242)"/>
<path d="M0 0 C5.61 0 11.22 0 17 0 C17 23.76 17 47.52 17 72 C30.86 72 44.72 72 59 72 C59 76.62 59 81.24 59 86 C39.53 86 20.06 86 0 86 C0 57.62 0 29.24 0 0 Z " fill="#FFFFFF" transform="translate(1078,242)"/>
<path d="M0 0 C6.6 0 13.2 0 20 0 C20 31.35 20 62.7 20 95 C13.4 95 6.8 95 0 95 C0 63.65 0 32.3 0 0 Z " fill="#FFFFFF" transform="translate(1056,98)"/>
<path d="M0 0 C5.61 0 11.22 0 17 0 C17 28.38 17 56.76 17 86 C11.39 86 5.78 86 0 86 C0 57.62 0 29.24 0 0 Z " fill="#FFFFFF" transform="translate(957,242)"/>
</svg>
