<?xml version="1.0" encoding="UTF-8"?>
<svg version="1.1" xmlns="http://www.w3.org/2000/svg" width="1221" height="470">
<path d="M0 0 C1.32 0 2.64 0 4 0 C6.43919182 5.37632517 8.23176845 10.77199729 9.875 16.4375 C10.39900978 18.21375713 10.92375959 19.98979609 11.44921875 21.765625 C11.83859619 23.08530273 11.83859619 23.08530273 12.23583984 24.43164062 C16.9315585 40.34447802 16.9315585 40.34447802 22.5625 55.9375 C24 60 24 60 26 70 C344.78 70 663.56 70 992 70 C992 111.91 992 153.82 992 197 C603.26 197 214.52 197 -186 197 C-186 155.09 -186 113.18 -186 70 C-131.55 69.67 -77.1 69.34 -21 69 C-20.01 65.04 -19.02 61.08 -18 57 C-17.07126229 54.4059395 -16.14031831 51.81240525 -15.16796875 49.234375 C-11.23371095 38.33950726 -8.00091129 27.18033359 -4.875 16.03125 C-3.88628776 12.60606832 -2.78556174 9.23340076 -1.61328125 5.8671875 C-0.97672448 3.92913568 -0.47175084 1.98399888 0 0 Z " fill="#FFFFFF" transform="translate(186,0)"/>
<path d="M0 0 C11.768867 8.80729356 18.11603045 22.6484587 23.6796875 35.84375 C25.16939932 39.35618201 26.82386277 42.75486182 28.5625 46.15234375 C36.01616045 60.8409342 42.92962638 75.85667513 49.07421875 91.13989258 C51.15917919 96.31827185 53.47351228 101.35959003 55.84765625 106.41015625 C57.60560346 110.28573297 59.21511548 114.20859359 60.8125 118.15234375 C63.30496394 124.29785311 65.9722233 130.324486 68.81567383 136.31494141 C71.34721089 141.66285795 73.6784924 147.08599157 75.984375 152.53515625 C77.19190139 155.35045654 78.45331745 158.1274431 79.75 160.90234375 C83.2643921 168.556667 86.27999613 176.42406766 89.37548828 184.25439453 C91.03096444 188.43311721 92.70313302 192.6051573 94.375 196.77734375 C97.63574121 189.86917086 100.56555564 182.87943442 103.375 175.77734375 C106.1849679 168.67975243 109.12608999 161.68716322 112.375 154.77734375 C115.39583398 148.23607633 118.03927636 141.58886985 120.58740234 134.85009766 C121.49473517 132.46223166 122.41314978 130.0787578 123.33203125 127.6953125 C127.66124555 116.50068584 127.66124555 116.50068584 131.5625 105.15234375 C132.70936053 101.59757259 134.01884516 98.27367866 135.625 94.90234375 C138.24035685 89.36583448 140.262673 83.66480121 142.3125 77.90234375 C144.84091019 70.83054064 147.48427851 63.93760451 150.75390625 57.16796875 C152.43756032 53.64649469 154.01721264 50.08943757 155.59179688 46.51831055 C165.08064865 25.08638669 174.465238 4.02734124 197.48046875 -5.27734375 C207.53563546 -8.56121736 219.73608734 -8.90270682 229.375 -4.22265625 C232.625 -2.28515625 232.625 -2.28515625 235.375 -0.22265625 C236.5815625 0.58171875 236.5815625 0.58171875 237.8125 1.40234375 C246.98964167 9.90798725 251.93379996 21.45457761 252.46558011 33.89664829 C252.50043797 36.31865995 252.50350601 38.73874458 252.49525452 41.16099548 C252.49653615 42.54816587 252.49653615 42.54816587 252.49784368 43.96335989 C252.4994861 47.05103265 252.49399741 50.13865064 252.48852539 53.22631836 C252.48824323 55.44407144 252.48840183 57.66182461 252.4889679 59.87957764 C252.48925473 65.89344233 252.48337641 71.90728706 252.47639394 77.92114711 C252.47014142 84.20854386 252.4695551 90.49594107 252.46836853 96.78334045 C252.46561387 107.33416075 252.45936824 117.88497451 252.45043945 128.43579102 C252.44125417 139.30102502 252.4341788 150.16625704 252.42993164 161.03149414 C252.42953756 162.03684655 252.42953756 162.03684655 252.42913551 163.06250911 C252.42783043 166.42503069 252.42656673 169.78755228 252.42532361 173.15007389 C252.4148719 201.02583677 252.39653336 228.90158707 252.375 256.77734375 C234.225 256.77734375 216.075 256.77734375 197.375 256.77734375 C196.88 175.59734375 196.88 175.59734375 196.375 92.77734375 C193.075 101.02734375 189.775 109.27734375 186.375 117.77734375 C183.9 123.22234375 183.9 123.22234375 181.375 128.77734375 C180.60460481 130.65688843 179.85128438 132.54384125 179.13671875 134.4453125 C178.61948242 135.81333008 178.61948242 135.81333008 178.09179688 137.20898438 C177.58229492 138.57313477 177.58229492 138.57313477 177.0625 139.96484375 C176.70349609 140.91681641 176.34449219 141.86878906 175.97460938 142.84960938 C175.10475243 145.15762981 174.23825823 147.46684902 173.375 149.77734375 C172.715 149.77734375 172.055 149.77734375 171.375 149.77734375 C171.0346875 151.66453125 171.0346875 151.66453125 170.6875 153.58984375 C169.66245547 158.17780169 167.94428414 162.07323832 165.92578125 166.30078125 C163.89772142 170.84731337 162.17737023 175.48939287 160.4375 180.15234375 C157.81626937 187.14759987 155.02358895 193.93213277 151.80859375 200.67578125 C148.54838704 207.72919848 145.77410458 215.02141419 143.0625 222.30078125 C137.57750631 237.00742059 130.9717123 248.62386812 116.375 255.77734375 C100.80296118 261.52780253 85.63747798 261.37831342 70.484375 254.45703125 C56.35037867 246.52291675 50.92587458 234.43638895 45.63330078 219.78686523 C44.01780068 215.34769189 42.17619431 211.10154844 40.125 206.83984375 C37.73481925 201.82171557 36.3025978 197.25017075 35.375 191.77734375 C34.715 191.77734375 34.055 191.77734375 33.375 191.77734375 C32.99988281 190.7615625 32.62476563 189.74578125 32.23828125 188.69921875 C29.12646643 180.31124919 25.87862233 172.01085623 22.375 163.77734375 C21.08110101 160.71578408 19.79051571 157.65283081 18.5 154.58984375 C18.15743164 153.77773438 17.81486328 152.965625 17.46191406 152.12890625 C14.90008514 146.04787008 12.38124128 139.95008038 9.8815918 133.84326172 C8.07616535 129.44398596 6.21137996 125.07486942 4.3125 120.71484375 C1.80446629 114.91207407 -0.45668902 109.04260793 -2.62133789 103.10522461 C-3.80612875 99.8708888 -5.07973801 96.86786772 -6.625 93.77734375 C-6.955 147.56734375 -7.285 201.35734375 -7.625 256.77734375 C-25.775 256.77734375 -43.925 256.77734375 -62.625 256.77734375 C-62.6690992 227.85064359 -62.70602436 198.92396886 -62.72713066 169.99724343 C-62.72963204 166.58141418 -62.73222069 163.165585 -62.73486328 159.74975586 C-62.7353879 159.06973186 -62.73591252 158.38970787 -62.73645304 157.68907709 C-62.74515331 146.68130039 -62.7609212 135.6735446 -62.77930559 124.6657803 C-62.79801516 113.36901447 -62.80896928 102.07225909 -62.81317699 90.77547699 C-62.81578572 84.43100531 -62.82192289 78.08658105 -62.83646011 71.74212456 C-62.85003124 65.77094091 -62.85422356 59.79982423 -62.85121536 53.82862663 C-62.85176573 51.63687272 -62.85574593 49.44511658 -62.86341095 47.25337601 C-62.87336474 44.2604641 -62.87096717 41.26780487 -62.86550903 38.27488708 C-62.87133472 37.40814076 -62.8771604 36.54139444 -62.88316262 35.64838308 C-62.85843147 30.62929052 -62.22086181 26.53991753 -60.625 21.77734375 C-60.42519531 21.00648438 -60.22539062 20.235625 -60.01953125 19.44140625 C-57.2461711 9.72533916 -50.21005724 1.70571441 -41.58203125 -3.44140625 C-28.04541049 -10.55257663 -12.52980364 -8.00732764 0 0 Z " fill="#FFFFFF" transform="translate(464.625,210.22265625)"/>
<path d="M0 0 C2.6875 2.4375 2.6875 2.4375 5 5 C5.763125 5.825 6.52625 6.65 7.3125 7.5 C14.41540497 16.27417673 19.47595034 26.6243167 24.62670898 36.60522461 C27.14707835 41.48475407 29.71364656 46.33021219 32.37109375 51.13671875 C32.92442383 52.13775635 33.47775391 53.13879395 34.04785156 54.17016602 C35.12410846 56.10970402 36.20533373 58.04649506 37.29199219 59.98022461 C37.77700195 60.85557861 38.26201172 61.73093262 38.76171875 62.6328125 C39.410802 63.79127686 39.410802 63.79127686 40.07299805 64.97314453 C41 67 41 67 41 70 C41.66 70 42.32 70 43 70 C43.50789063 71.11117187 44.01578125 72.22234375 44.5390625 73.3671875 C47.89366591 80.64054412 51.26547999 87.72273811 55.5234375 94.51953125 C57.24012975 97.40339257 58.71041904 100.36133482 60.1875 103.375 C63.14341259 109.39192429 66.30851451 115.26432427 69.5625 121.125 C73.12731125 127.54552259 76.58630497 133.97591791 79.78125 140.58984375 C80.99374712 143.08128316 80.99374712 143.08128316 82.65625 145.62890625 C84 148 84 148 84 151 C84.66 151 85.32 151 86 151 C87.98 155.455 87.98 155.455 90 160 C90.33 105.55 90.66 51.1 91 -5 C108.82 -5 126.64 -5 145 -5 C145.06615643 25.18361518 145.12154122 55.36719023 145.15319599 85.55085769 C145.15694804 89.11561099 145.16083101 92.68036412 145.16479492 96.24511719 C145.16558185 96.95478502 145.16636878 97.66445285 145.16717956 98.39562577 C145.18022778 109.88126272 145.2038784 121.36685454 145.23145839 132.85246474 C145.25952886 144.64078991 145.27617973 156.42909148 145.28226548 168.21744871 C145.28600978 174.83751414 145.29537659 181.45749567 145.31719017 188.07752991 C145.33755673 194.30892303 145.34383337 200.54017175 145.33932304 206.771595 C145.34014816 209.05807403 145.34611267 211.34455791 145.35761642 213.63100815 C145.37256288 216.7550369 145.36894543 219.87852189 145.36076355 223.00256348 C145.36950207 223.90530644 145.3782406 224.8080494 145.38724393 225.73814821 C145.31502452 235.95449206 141.45265174 243.48379754 134.32421875 250.6953125 C127.23291505 256.73886469 117.26170909 259.40685957 108.03955078 259.19580078 C104.51808266 258.8577331 101.28358137 257.85995134 97.9375 256.75 C96.93493164 256.44255859 96.93493164 256.44255859 95.91210938 256.12890625 C91.2121149 254.62161939 87.21525187 252.56532883 83 250 C83 249.34 83 248.68 83 248 C82.443125 247.79375 81.88625 247.5875 81.3125 247.375 C75.272175 243.7834554 72.35301323 237.24934537 69.3125 231.1875 C65.57567843 223.90048505 61.63380515 216.7936042 57.3996582 209.78393555 C55.0936488 205.94698546 53.00197304 202.0706948 51.03173828 198.05151367 C49.18682415 194.38307699 47.14192741 190.82579663 45.125 187.25 C41.65997895 181.06823942 38.33871785 174.86188499 35.25390625 168.48046875 C33.95088404 165.90283915 32.49022609 163.47388416 31 161 C24.90693698 150.46095514 18.81807695 139.92835404 13.52734375 128.9609375 C11.08933526 124.2345681 8.3447559 119.68936111 5.60083008 115.13525391 C2.83084196 110.51623157 0.36346554 105.84083304 -2 101 C-3.32 98.36 -4.64 95.72 -6 93 C-6.33 146.79 -6.66 200.58 -7 256 C-25.15 256 -43.3 256 -62 256 C-62.08832386 227.46426097 -62.1621256 198.92862892 -62.20426132 170.39278686 C-62.20926363 167.01731014 -62.21444097 163.64183371 -62.21972656 160.26635742 C-62.2207758 159.59441314 -62.22182505 158.92246886 -62.22290608 158.23016263 C-62.24027066 147.37648631 -62.27178635 136.52289548 -62.30861118 125.66926973 C-62.34613089 114.51711651 -62.36796002 103.36499233 -62.37635398 92.21277529 C-62.38155424 85.95517483 -62.39371824 79.69776772 -62.42292023 73.44022942 C-62.45022417 67.54119529 -62.4584148 61.64243277 -62.45243073 55.74334145 C-62.45352428 53.58718766 -62.46138821 51.43102406 -62.4768219 49.27492523 C-62.59615059 31.73286509 -61.6884885 15.4596019 -49.05078125 1.91015625 C-34.90701978 -11.23326059 -15.30807077 -11.33806561 0 0 Z " fill="#FFFFFF" transform="translate(1033,211)"/>
<path d="M0 0 C114.07821229 0 114.07821229 0 128 8 C128.91652344 8.52335938 129.83304688 9.04671875 130.77734375 9.5859375 C134.25378449 11.63090264 137.64414982 13.76276654 141 16 C141 16.66 141 17.32 141 18 C141.57621094 18.20496094 142.15242187 18.40992188 142.74609375 18.62109375 C148.77705401 22.31074535 153.6303794 32.64112671 155.5390625 39.37109375 C158.37845174 55.56523748 157.503527 70.81840268 147.83837891 84.6640625 C141.53710767 93.24535065 134.4487652 101.24360701 127.48193359 109.28417969 C120.84634459 116.96703299 114.29801963 124.73059041 107.94921875 132.65234375 C106 135 106 135 104.33203125 136.62890625 C101.31394267 139.59627065 100.50413721 142.22121343 100.125 146.3125 C100.34721003 151.12269351 101.65655032 153.38806711 105 156.8125 C108.66852418 160.05661489 112.52457568 163.04313073 116.56640625 165.80859375 C117.27603516 166.39833984 117.27603516 166.39833984 118 167 C118 167.66 118 168.32 118 169 C118.55558594 169.23589844 119.11117187 169.47179687 119.68359375 169.71484375 C122.56375591 171.3127752 124.66369076 173.305005 127.0625 175.5625 C130.77478591 179.01462571 134.54816138 182.31925184 138.5 185.5 C143.4519656 189.490073 148.13024215 193.70358238 152.78515625 198.03125 C154.83679121 200.02671788 154.83679121 200.02671788 157 201 C157 221.46 157 241.92 157 263 C151.43745374 260.7749815 151.43745374 260.7749815 148.875 257.9375 C146.00299925 254.92873731 142.99307591 252.29304817 139.75 249.6875 C134.84932666 245.74141598 130.18586872 241.59711941 125.5546875 237.33984375 C122.75038187 234.77137422 119.89596649 232.26882297 117.0234375 229.77734375 C114.67525487 227.7147509 112.37140876 225.60643522 110.0625 223.5 C106.07928035 219.88731241 101.95567198 216.58520631 97.6171875 213.41015625 C97.08351563 212.94480469 96.54984375 212.47945312 96 212 C96 211.34 96 210.68 96 210 C95.45472656 209.77441406 94.90945313 209.54882812 94.34765625 209.31640625 C91.30198536 207.60860078 88.94659477 205.3296178 86.4375 202.9375 C82.4878287 199.23544364 78.47948357 195.6984464 74.25 192.3125 C66.12444512 185.70902312 59.92247294 179.88241416 56 170 C55.61050171 169.01978882 55.61050171 169.01978882 55.21313477 168.01977539 C53.12894028 162.36727169 52.48849319 157.3164495 52.5625 151.3125 C52.57007324 150.44254395 52.57764648 149.57258789 52.58544922 148.67626953 C53.02375617 131.31995409 60.33336112 119.34642728 72 107 C74.25558423 104.54057779 76.50705878 102.07756971 78.75463867 99.61083984 C81.14969473 96.99050001 83.56859011 94.40106472 86.0390625 91.8515625 C92.22303763 85.41684485 96.85768572 80.26699541 97.375 70.9375 C96.96465426 66.62886971 96.13837083 63.76058319 94 60 C82.46675556 51.12827351 62.44618734 56 51 56 C51 123.65 51 191.3 51 261 C34.17 261 17.34 261 0 261 C0 174.87 0 88.74 0 0 Z " fill="#FFFFFF" transform="translate(236,206)"/>
<path d="M0 0 C14.29359788 12.08792922 18.86849638 29.1122929 23.90234375 46.38671875 C24.77696267 49.36778081 25.69874594 52.32063739 26.69921875 55.26171875 C29.33911607 63.07362488 31.62518237 71.00369121 33.99804688 78.89990234 C37.21640991 89.62858274 37.21640991 89.62858274 40.68798828 100.27734375 C41.76967569 103.47894165 42.76765157 106.70631073 43.76953125 109.93359375 C43.98633545 110.62912354 44.20313965 111.32465332 44.42651367 112.04125977 C45.67890856 116.0639503 46.91544522 120.09121434 48.14453125 124.12109375 C49.44311708 128.36384178 50.78245366 132.59093633 52.1484375 136.8125 C55.73937991 147.91981174 59.2494209 159.02500519 62.34130859 170.28320312 C63.53304424 174.58218212 64.88461929 178.72342194 66.49487305 182.8894043 C68.40448185 188.12259005 69.95123341 193.48355381 71.58203125 198.80859375 C72.38014313 201.402766 73.18009534 203.99636846 73.98046875 206.58984375 C74.17927643 207.23462677 74.37808411 207.87940979 74.58291626 208.54373169 C76.68050381 215.33480972 78.84397329 222.1046276 81.03613281 228.86572266 C82.71511279 234.08678866 84.22103437 239.33326293 85.62084961 244.63623047 C86.53556007 247.91260842 87.63382039 251.10755935 88.78125 254.30859375 C89.33203125 256.18359375 89.33203125 256.18359375 89.33203125 259.18359375 C70.52203125 259.18359375 51.71203125 259.18359375 32.33203125 259.18359375 C29.62454336 250.5196325 26.95324731 241.94029452 24.5 233.21875 C23.00234759 227.97492617 21.37296321 222.77078881 19.76953125 217.55859375 C17.66414889 210.70589953 15.61035948 203.87730918 14.03515625 196.87890625 C13.42777497 194.55061133 12.71826701 192.32587348 11.94140625 190.05078125 C9.85830997 183.89965545 8.24599433 177.62999621 6.58203125 171.35546875 C5.23159419 166.31946388 3.76240599 161.36879085 2.07763672 156.43505859 C0.7174493 152.32777361 -0.43273666 148.15998613 -1.60546875 143.99609375 C-1.99460449 142.62614258 -1.99460449 142.62614258 -2.39160156 141.22851562 C-3.55959813 137.11519932 -4.72011969 132.99982855 -5.875 128.8828125 C-6.39126953 127.05169922 -6.39126953 127.05169922 -6.91796875 125.18359375 C-7.211875 124.13171875 -7.50578125 123.07984375 -7.80859375 121.99609375 C-8.62188004 119.18988757 -8.62188004 119.18988757 -9.71875 116.57421875 C-10.60587365 114.3399814 -11.14788242 112.28689486 -11.60546875 109.93359375 C-12.42200763 106.08510043 -13.51817283 102.44372079 -14.80859375 98.73046875 C-16.25028264 94.45782714 -17.510658 90.12900648 -18.80078125 85.80859375 C-19.41610134 83.28559119 -19.41610134 83.28559119 -20.66796875 82.18359375 C-21.03148437 83.36501953 -21.03148437 83.36501953 -21.40234375 84.5703125 C-23.15755208 90.27473958 -24.91276042 95.97916667 -26.66796875 101.68359375 C-27.00054688 102.76640625 -27.333125 103.84921875 -27.67578125 104.96484375 C-28.31197458 107.02871504 -28.9522364 109.09133918 -29.59765625 111.15234375 C-32.0222622 118.92711326 -34.27562947 126.74469882 -36.47412109 134.5859375 C-37.86098097 139.49800384 -39.35270926 144.35262168 -40.99145508 149.18652344 C-44.1614473 158.54434963 -46.80729768 168.07459938 -49.47387695 177.58496094 C-50.81805526 182.3460612 -52.26523989 187.04693912 -53.85473633 191.73144531 C-55.17464677 195.71138543 -56.38439302 199.72468724 -57.61035156 203.734375 C-58.66678157 207.17972199 -59.73908848 210.61972548 -60.81640625 214.05859375 C-64.65627584 226.33782147 -68.45227425 238.61838064 -71.90380859 251.01367188 C-73.57519981 256.99805588 -73.57519981 256.99805588 -74.66796875 259.18359375 C-93.80796875 259.18359375 -112.94796875 259.18359375 -132.66796875 259.18359375 C-130.41971241 249.06644021 -130.41971241 249.06644021 -129.1171875 245.2734375 C-128.83367432 244.43772217 -128.55016113 243.60200684 -128.25805664 242.7409668 C-127.81127563 241.44412964 -127.81127563 241.44412964 -127.35546875 240.12109375 C-126.72145009 238.25171073 -126.08864622 236.38191528 -125.45703125 234.51171875 C-125.14926758 233.60099609 -124.84150391 232.69027344 -124.52441406 231.75195312 C-123.37535984 228.30610067 -122.29820888 224.84306506 -121.23046875 221.37109375 C-118.8479674 213.62746259 -116.26735303 205.95287136 -113.69091797 198.27197266 C-111.27142187 191.04099166 -108.92803674 183.78987838 -106.65844727 176.51049805 C-105.52537343 172.87876597 -104.3666172 169.25914544 -103.15625 165.65234375 C-101.54149284 160.83821578 -100.04295132 155.99160107 -98.5625 151.13476562 C-97.53801076 147.81659505 -96.44836914 144.55329706 -95.19921875 141.3125 C-93.43094627 136.6775684 -92.05297063 131.94453773 -90.66796875 127.18359375 C-89.1152773 121.84621688 -87.48807607 116.60506797 -85.48974609 111.41796875 C-83.64450576 106.4008447 -82.09736992 101.27775808 -80.48046875 96.18359375 C-77.54858455 86.99297541 -74.56211286 77.82505482 -71.48046875 68.68359375 C-68.70097737 60.42860014 -66.08238564 52.14172883 -63.6574707 43.77539062 C-62.20951832 38.81462604 -60.52834928 34.0034064 -58.66796875 29.18359375 C-58.31476563 28.19875 -57.9615625 27.21390625 -57.59765625 26.19921875 C-53.32478003 14.99478779 -46.34667164 4.19036413 -35.66796875 -1.81640625 C-24.54322932 -6.418605 -10.25008834 -6.97846425 0 0 Z " fill="#FFFFFF" transform="translate(871.66796875,210.81640625)"/>
<path d="M0 0 C1.99638221 0.00373953 3.99276628 0.00658205 5.989151 0.00857544 C11.19222258 0.01613797 16.3951789 0.03572124 21.59820557 0.0579834 C27.86851368 0.08224084 34.13886077 0.09125802 40.40920258 0.10289001 C49.8887668 0.12215135 59.36807913 0.16052506 68.84765625 0.1953125 C68.84765625 18.3453125 68.84765625 36.4953125 68.84765625 55.1953125 C63.16546875 55.24429688 57.48328125 55.29328125 51.62890625 55.34375 C48.01951393 55.37915415 44.41014489 55.41512434 40.80078125 55.453125 C35.07750867 55.51332799 29.35426852 55.5714855 23.63085938 55.6171875 C19.01420638 55.65418344 14.39773315 55.70058155 9.78123474 55.75337601 C8.02391223 55.77184416 6.26655129 55.7869798 4.50917053 55.79865646 C2.03913135 55.81564937 -0.4305029 55.84471433 -2.90039062 55.87646484 C-3.6196875 55.87862503 -4.33898437 55.88078522 -5.08007812 55.88301086 C-10.9333349 55.97852307 -16.6274693 56.65575491 -21.71484375 59.7578125 C-23.48587131 62.76085924 -23.69534431 65.05510679 -23.16015625 68.48828125 C-20.16927624 76.52192406 -13.15118223 83.2775394 -7.15234375 89.1953125 C-4.84061674 91.61411644 -2.55821099 94.05992523 -0.27734375 96.5078125 C0.34760986 97.1778833 0.97256348 97.8479541 1.61645508 98.53833008 C5.1718579 102.36139882 8.67242789 106.21827499 12.078125 110.17578125 C14.4564993 112.89017311 16.90269362 115.54108526 19.34765625 118.1953125 C22.32769586 121.430414 25.29081115 124.67356085 28.16015625 128.0078125 C31.61821102 132.00174017 35.23508228 135.84183765 38.84765625 139.6953125 C65.50523427 168.16768187 65.50523427 168.16768187 69.84765625 186.1953125 C70.21890625 187.2471875 70.59015625 188.2990625 70.97265625 189.3828125 C75.08729763 202.6084455 74.49660345 220.32403677 68.28515625 232.6953125 C59.97935753 247.04724411 47.67412655 255.45472795 32.17578125 260.65234375 C25.56140853 262.19495752 18.96577717 262.34366497 12.2109375 262.328125 C10.81054733 262.33010391 10.81054733 262.33010391 9.38186646 262.3321228 C6.30792991 262.33404573 3.23408369 262.32766703 0.16015625 262.3203125 C-0.89460907 262.31942627 -1.94937439 262.31854004 -3.03610229 262.31762695 C-28.74900185 262.29255272 -54.44543453 261.74372656 -80.15234375 261.1953125 C-80.15234375 243.0453125 -80.15234375 224.8953125 -80.15234375 206.1953125 C-74.08601563 206.14632812 -68.0196875 206.09734375 -61.76953125 206.046875 C-57.92316054 206.01148363 -54.07681217 205.97552073 -50.23046875 205.9375 C-44.1273114 205.87722529 -38.02418526 205.81905104 -31.92089844 205.7734375 C-26.99951885 205.73652457 -22.07831059 205.69014815 -17.15707779 205.63724899 C-15.28087499 205.61873699 -13.4046355 205.60361727 -11.52837753 205.59196854 C-8.89748394 205.57505143 -6.26697996 205.54600324 -3.63623047 205.51416016 C-2.47636879 205.51091988 -2.47636879 205.51091988 -1.29307556 205.50761414 C3.12063473 205.43950673 6.74246726 204.82437185 10.84765625 203.1953125 C11.4004999 195.31729047 9.11798392 190.78992169 4.09765625 184.8828125 C1.84765625 182.1953125 1.84765625 182.1953125 1.84765625 180.1953125 C1.18765625 180.1953125 0.52765625 180.1953125 -0.15234375 180.1953125 C-3.15234375 176.73377404 -3.15234375 176.73377404 -3.15234375 174.1953125 C-4.14234375 173.8653125 -5.13234375 173.5353125 -6.15234375 173.1953125 C-7.58984375 171.5859375 -7.58984375 171.5859375 -9.15234375 169.4453125 C-12.15574884 165.45344498 -15.28454743 161.61693471 -18.52734375 157.8203125 C-21.92556937 153.83349966 -25.28863746 149.82590518 -28.58984375 145.7578125 C-32.06307196 141.48785811 -35.62044525 137.30043387 -39.21484375 133.1328125 C-43.29002693 128.40529423 -47.26702163 123.62350642 -51.12890625 118.71875 C-52.68241235 116.78136595 -54.25676678 114.87708829 -55.86328125 112.984375 C-56.32589355 112.43797363 -56.78850586 111.89157227 -57.26513672 111.32861328 C-58.58840305 109.77059642 -59.91711341 108.2172082 -61.24609375 106.6640625 C-63.15234375 104.1953125 -63.15234375 104.1953125 -63.15234375 102.1953125 C-63.81234375 102.1953125 -64.47234375 102.1953125 -65.15234375 102.1953125 C-78.37460847 84.47878046 -82.22923043 65.20224391 -79.40234375 43.4453125 C-78.47324199 37.90436504 -76.78724639 33.14534804 -74.15234375 28.1953125 C-73.49234375 28.1953125 -72.83234375 28.1953125 -72.15234375 28.1953125 C-71.96671875 27.5353125 -71.78109375 26.8753125 -71.58984375 26.1953125 C-66.08639292 14.7098499 -53.7356203 7.97418786 -42.15234375 3.7578125 C-28.2738626 -0.14440452 -14.29121808 -0.07960958 0 0 Z " fill="#FFFFFF" transform="translate(82.15234375,205.8046875)"/>
<path d="M0 0 C16.83 0 33.66 0 51 0 C51 86.13 51 172.26 51 261 C34.17 261 17.34 261 0 261 C0 174.87 0 88.74 0 0 Z " fill="#FFFFFF" transform="translate(169,206)"/>
<path d="M0 0 C1.32 0 2.64 0 4 0 C4 6.27 4 12.54 4 19 C2.68 19 1.36 19 0 19 C0 12.73 0 6.46 0 0 Z " fill="#FFFFFF" transform="translate(1217,76)"/>
</svg>
