<?xml version="1.0" encoding="UTF-8"?>
<svg version="1.1" xmlns="http://www.w3.org/2000/svg" width="1391" height="912">
<path d="M0 0 C2.89474426 2.82022609 5.42637109 5.88866648 8 9 C18.770836 21.63823609 30.34317406 33.48296973 44 43 C44.65129883 43.45793945 45.30259766 43.91587891 45.97363281 44.38769531 C100.85949896 82.70810209 165.98717066 102.49064287 228.91796875 123.27734375 C378.03763412 172.55002051 378.03763412 172.55002051 431.75 221.93359375 C433.92667643 223.93265943 436.14082146 225.87812851 438.375 227.8125 C443.92626263 232.66704545 443.92626263 232.66704545 446 235 C446 235.66 446 236.32 446 237 C446.87398437 236.97905273 447.74796875 236.95810547 448.6484375 236.93652344 C467.16654937 236.55315582 484.84971833 236.78574174 503 241 C504.06299316 241.24669434 505.12598633 241.49338867 506.22119141 241.74755859 C526.9550035 246.7006866 546.20989984 253.98019691 565 264 C565.64888184 264.34111816 566.29776367 264.68223633 566.96630859 265.03369141 C583.02718811 273.52487789 597.37609246 284.02631225 611 296 C611.68835937 296.5775 612.37671875 297.155 613.0859375 297.75 C624.77279319 307.61232548 634.91356597 318.73728873 644 331 C644.85023745 332.11980911 645.7004977 333.2396009 646.55078125 334.359375 C653.3070207 343.39515866 658.78858359 353.00780855 664 363 C664.53753906 364.01006104 664.53753906 364.01006104 665.0859375 365.04052734 C677.22577161 388.07084234 684.96066598 416.12153676 685.23828125 442.25 C685.24812042 443.01709793 685.25795959 443.78419586 685.26809692 444.57453918 C685.44616831 462.07838299 685.11826225 478.88836908 681 496 C680.76394043 497.00740234 680.52788086 498.01480469 680.28466797 499.05273438 C673.22642094 528.41431389 660.26081303 555.66352005 641 579 C640.05253906 580.24910156 640.05253906 580.24910156 639.0859375 581.5234375 C627.54227966 596.47040483 613.33440379 610.00165942 598 621 C596.9378125 621.77214844 595.875625 622.54429687 594.78125 623.33984375 C556.88099323 650.24718624 508.3630178 669.72263692 461.34375 668.9765625 C450.727347 668.65953806 450.727347 668.65953806 441.91723633 673.89941406 C439.96271359 676.01356207 438.13251013 678.20878291 436.328125 680.45166016 C433.57925297 683.65631943 430.16783927 686.11199293 426.8659668 688.71386719 C424.16562882 690.86788072 421.5141262 693.07075674 418.86328125 695.28515625 C413.36802804 699.78295018 407.67119416 703.83552898 401.75 707.75 C400.71061279 708.43755371 399.67122559 709.12510742 398.6003418 709.83349609 C341.80671779 746.97455965 275.8871837 767.25276737 211.953125 788.30859375 C176.13027476 800.11465885 140.19881536 811.96601245 106 828 C104.97358398 828.47356934 103.94716797 828.94713867 102.88964844 829.43505859 C65.39537667 846.75633991 27.35287758 869.1254068 2.5078125 903.15234375 C-0.13118446 906.38614054 -2.84814529 908.4068779 -7 909 C-12.2337919 909.39500316 -16.60792884 908.98471933 -21 906 C-23.89474426 903.17977391 -26.42637109 900.11133352 -29 897 C-39.770836 884.36176391 -51.34317406 872.51703027 -65 863 C-65.65129883 862.54206055 -66.30259766 862.08412109 -66.97363281 861.61230469 C-121.95651039 823.22416613 -187.18218808 803.49700497 -250.19921875 782.6171875 C-391.83703578 735.68651636 -391.83703578 735.68651636 -445 691 C-445.5372168 690.55156738 -446.07443359 690.10313477 -446.62792969 689.64111328 C-448.44491916 688.12127625 -450.25481926 686.59339396 -452.0625 685.0625 C-452.61639404 684.59650391 -453.17028809 684.13050781 -453.7409668 683.65039062 C-454.29179932 683.17923828 -454.84263184 682.70808594 -455.41015625 682.22265625 C-455.98846191 681.73192627 -456.56676758 681.24119629 -457.16259766 680.7355957 C-459 679 -459 679 -460.92724609 676.64526367 C-464.06986741 672.94404342 -466.38884103 670.37453183 -471.21899414 669.25170898 C-475.00522327 669.02984442 -478.70946914 669.06356531 -482.5 669.1875 C-485.28417137 669.19946623 -488.067546 669.17313374 -490.8515625 669.14453125 C-491.54549103 669.14062378 -492.23941956 669.13671631 -492.95437622 669.13269043 C-524.89916609 668.81116957 -558.1036597 657.00086224 -586 642 C-586.64743164 641.65888184 -587.29486328 641.31776367 -587.96191406 640.96630859 C-604.02525048 632.47591389 -618.37468216 621.97492723 -632 610 C-632.68835938 609.4225 -633.37671875 608.845 -634.0859375 608.25 C-645.77279319 598.38767452 -655.91356597 587.26271127 -665 575 C-665.85023745 573.88019089 -666.7004977 572.7603991 -667.55078125 571.640625 C-674.3070207 562.60484134 -679.78858359 552.99219145 -685 543 C-685.35835937 542.32662598 -685.71671875 541.65325195 -686.0859375 540.95947266 C-698.22571442 517.92926616 -705.96085899 489.87838402 -706.23828125 463.75 C-706.2480751 462.98272079 -706.25786896 462.21544159 -706.26795959 461.4249115 C-706.88544446 400.45298795 -685.14358973 349.18558373 -642.73046875 305.51123047 C-635.29833685 297.95989686 -627.52321587 291.27873677 -619 285 C-618.43990234 284.57912109 -617.87980469 284.15824219 -617.30273438 283.72460938 C-589.78772853 263.06455309 -558.14541082 248.97127846 -524.6875 241.25 C-523.82938721 241.05132324 -522.97127441 240.85264648 -522.0871582 240.64794922 C-512.12787942 238.44442693 -502.28050939 236.80399399 -492.0546875 237.0078125 C-475.98671214 238.16832459 -475.98671214 238.16832459 -462.04711914 232.09838867 C-459.84775617 229.51278455 -457.94430896 226.78389691 -456 224 C-453.265625 221.51953125 -453.265625 221.51953125 -450.4375 219.3125 C-446.86687338 216.50224385 -443.35739152 213.63259209 -439.87109375 210.71875 C-434.33750598 206.18898767 -428.59069389 202.12454122 -422.625 198.1875 C-421.58553223 197.49954346 -420.54606445 196.81158691 -419.47509766 196.1027832 C-365.0490609 160.44391704 -302.34436578 140.69511836 -241.04355621 120.37664509 C-200.26731068 106.90692072 -200.26731068 106.90692072 -160 92 C-159.05120972 91.63023041 -159.05120972 91.63023041 -158.08325195 91.25299072 C-108.7521389 72.00240038 -55.62735978 46.837471 -23.5078125 2.84765625 C-17.63265927 -4.35168955 -7.68423976 -5.22197799 0 0 Z M-11 14 C-12.74246163 15.97760351 -14.44136197 17.97319831 -16.125 20 C-17.1337901 21.20079351 -18.14290403 22.40131504 -19.15234375 23.6015625 C-20.77129072 25.53239719 -22.38832739 27.46478171 -24.00390625 29.3984375 C-27.9898926 34.07804096 -32.30038858 38.04823294 -37 42 C-37.92425781 42.81210937 -38.84851563 43.62421875 -39.80078125 44.4609375 C-94.78374889 92.52609913 -169.06965855 114.31629413 -237 137 C-237.90824524 137.30333252 -238.81649048 137.60666504 -239.7522583 137.91918945 C-245.27132183 139.76168466 -250.79169529 141.60022982 -256.3125 143.4375 C-261.2009682 145.06486437 -266.08904278 146.69339834 -270.97619629 148.32470703 C-272.3304763 148.77659659 -273.6848882 149.2280911 -275.03942871 149.67919922 C-334.02331308 169.32991394 -395.09876116 192.31386356 -441.62890625 234.8515625 C-444.37668239 237.34131024 -447.20251751 239.72561626 -450.05859375 242.08984375 C-452.13492997 243.99120657 -452.13492997 243.99120657 -453.72265625 246.69140625 C-455.94493027 249.97234058 -457.60859398 251.907704 -461 254 C-466.28305878 254.76306875 -471.62161495 253.95384124 -476.90234375 253.45703125 C-526.32637446 248.97984231 -579.12703588 273.93084473 -616.35205078 304.61328125 C-621.05996294 308.57490215 -625.5563016 312.74642999 -630 317 C-630.49741699 317.47018555 -630.99483398 317.94037109 -631.50732422 318.42480469 C-639.5028848 326.01198296 -646.50066611 334.09953005 -653 343 C-653.62189209 343.84739746 -653.62189209 343.84739746 -654.25634766 344.71191406 C-683.26502588 384.79287018 -695.19023692 434.09368868 -687.5390625 482.94287109 C-680.60955586 522.68758947 -660.62105029 557.09237968 -633 586 C-631.74896484 587.31291016 -631.74896484 587.31291016 -630.47265625 588.65234375 C-624.68317795 594.58815957 -618.58406878 599.964565 -612 605 C-611.35530762 605.4940332 -610.71061523 605.98806641 -610.04638672 606.49707031 C-599.21269484 614.72436671 -588.10704692 621.80529013 -576 628 C-575.19224121 628.41878418 -574.38448242 628.83756836 -573.55224609 629.26904297 C-548.94756495 641.9137137 -518.55793215 653.6578774 -490.43359375 651.53515625 C-462.51683588 649.93303047 -462.51683588 649.93303047 -455.44921875 655.3125 C-452.22596268 658.51757768 -449.78864358 662.07622264 -447.42797852 665.9440918 C-444.8840146 669.60672133 -441.44975303 672.22272085 -438 675 C-436.89149666 675.93829382 -435.78340048 676.87706894 -434.67578125 677.81640625 C-382.75392745 720.588287 -317.2266516 742.52458672 -254.24586487 763.27474976 C-90.82512017 817.17383134 -90.82512017 817.17383134 -36 865 C-35.154375 865.721875 -34.30875 866.44375 -33.4375 867.1875 C-28.4985808 871.45899769 -24.15264552 875.96568877 -20 881 C-19.19691406 881.97324219 -18.39382813 882.94648437 -17.56640625 883.94921875 C-15.36930088 886.62619113 -13.18085555 889.30978363 -11 892 C-4.8202301 885.89747722 1.22666747 879.56218152 6.625 872.75 C9.11235922 869.86989985 11.7240593 867.46862633 14.625 865.015625 C16.2963193 863.5972027 17.94004201 862.14593745 19.5625 860.671875 C80.3874503 806.64120107 168.96122138 784.30923357 244.5859375 759.51171875 C306.65086769 739.15316652 371.65263553 715.9223761 420.62890625 671.1484375 C422.73763367 669.23772896 424.88780105 667.39699852 427.0625 665.5625 C429.31513421 663.65759384 431.11706704 661.84491812 432.90063477 659.48217773 C438.26173709 652.45867832 438.26173709 652.45867832 442.95239258 651.22094727 C446.30754135 651.08609943 449.52810467 651.23216312 452.875 651.5 C455.29530427 651.5943992 457.71589918 651.68161512 460.13671875 651.76171875 C461.90088135 651.83592041 461.90088135 651.83592041 463.70068359 651.91162109 C516.98745712 653.3390158 571.40687762 624.79043506 609.19140625 589.0625 C645.60538127 553.99174707 667.69074513 506.47478001 669 455.75 C669.36438855 417.85359039 658.007554 379.9691886 636 349 C635.29488281 348.00355469 634.58976562 347.00710938 633.86328125 345.98046875 C621.63094667 329.22414688 607.52933489 313.60074455 591 301 C590.39687988 300.53158691 589.79375977 300.06317383 589.17236328 299.58056641 C563.19188829 279.51726146 533.8110612 265.87056618 502 258 C500.73671875 257.68417969 499.4734375 257.36835938 498.171875 257.04296875 C481.68403339 253.35681033 464.76623323 252.2407428 447.98071289 254.15722656 C441.0922236 254.72964783 441.0922236 254.72964783 437.86499023 252.57373047 C436.06902274 250.8023974 434.5270636 249.00526397 433 247 C428.66505301 241.80497136 424.17635102 237.36487685 419 233 C418.07445312 232.18660156 417.14890625 231.37320313 416.1953125 230.53515625 C403.17417307 219.15697763 388.98767632 209.58278356 374 201 C373.3507959 200.62198242 372.7015918 200.24396484 372.03271484 199.85449219 C328.52294229 174.56226876 280.39100942 158.17463652 232.74755859 142.55810547 C67.58785936 88.40251842 67.58785936 88.40251842 16.49462891 42.34326172 C15.065652 41.05900316 13.61721337 39.79649881 12.16796875 38.53515625 C4.35246713 31.68048091 -2.0157003 24.08798262 -8.3984375 15.90625 C-8.92695312 15.2771875 -9.45546875 14.648125 -10 14 C-10.33 14 -10.66 14 -11 14 Z " fill="#FFFFFF" transform="translate(706,3)"/>
<path d="M0 0 C1.04510742 0.00572021 2.09021484 0.01144043 3.16699219 0.01733398 C24.46884742 0.50414924 41.69491015 11.69557603 57.0625 25.75 C73.03487485 42.59648491 78.79833666 64.56635186 78.52734375 87.15234375 C77.94994777 107.51900054 68.41166773 127.03343149 53.84667969 141.11132812 C46.4137173 147.83931827 37.7107069 153.04178534 28.3125 156.5 C27.45011719 156.81839844 26.58773437 157.13679687 25.69921875 157.46484375 C15.37967831 160.63222745 1.82470027 161.26442903 -8.6875 158.5 C-8.75700398 170.27853486 -8.8103134 182.05702095 -8.84293652 193.83571911 C-8.85859381 199.30502248 -8.87983345 204.77418557 -8.91381836 210.2434082 C-8.94640923 215.52130322 -8.96435254 220.79906328 -8.97213173 226.07705116 C-8.9776757 228.09089597 -8.98850167 230.10473337 -9.00469017 232.11852074 C-9.02646065 234.93879547 -9.02946706 237.7585122 -9.02807617 240.57885742 C-9.038862 241.41179825 -9.04964783 242.24473907 -9.0607605 243.10292053 C-9.03599348 247.74260794 -8.65521075 250.70625637 -5.6875 254.5 C-0.96092738 258.21139651 4.35341549 259.00686075 10.2109375 259.32421875 C12.3125 259.5 12.3125 259.5 14.3125 260.5 C14.0196869 263.91615284 13.34295939 265.46147783 11.1875 268.1875 C5.53161727 272.73679698 -0.81208151 272.80865538 -7.76171875 272.80078125 C-8.60797318 272.80506638 -9.4542276 272.8093515 -10.3261261 272.81376648 C-12.10355742 272.81947879 -13.88101211 272.82003306 -15.65844727 272.81567383 C-18.37751748 272.81249706 -21.09551578 272.83606876 -23.81445312 272.86132812 C-25.54687363 272.86359976 -27.27929706 272.86430524 -29.01171875 272.86328125 C-29.82219162 272.872491 -30.63266449 272.88170074 -31.46769714 272.89118958 C-35.79872998 272.85559567 -38.56722663 272.66207908 -41.6875 269.5 C-41.10315743 265.61636938 -39.24640801 263.46138093 -36.75 260.5 C-31.73541578 254.52982351 -30.38973201 250.90125321 -30.27685547 243.06640625 C-30.25705627 242.21702988 -30.23725708 241.3676535 -30.21685791 240.49253845 C-30.15366997 237.68263871 -30.10408785 234.87267324 -30.0546875 232.0625 C-30.01350198 230.10154561 -29.97150788 228.14060805 -29.92874146 226.1796875 C-29.81831651 221.00919937 -29.71957923 215.83854921 -29.62304688 210.66778564 C-29.54291534 206.47533917 -29.45480469 202.28307932 -29.36617851 198.09080505 C-29.03030666 182.5392376 -29.03030666 182.5392376 -28.76873779 166.98632812 C-28.72815655 164.21221928 -28.63878568 161.45845012 -28.50909424 158.68554688 C-28.46887146 157.61369141 -28.42864868 156.54183594 -28.38720703 155.4375 C-28.33903839 154.54933594 -28.29086975 153.66117188 -28.24124146 152.74609375 C-28.50366273 150.29995353 -28.50366273 150.29995353 -30.73849487 148.54052734 C-33.03110903 147.06060812 -35.37935398 145.79086112 -37.80273438 144.54003906 C-41.66071232 142.41115486 -45.25236853 139.87624152 -48.875 137.375 C-49.64191162 136.87162109 -50.40882324 136.36824219 -51.19897461 135.84960938 C-56.53509824 132.1814397 -56.53509824 132.1814397 -57.30078125 128.7578125 C-56.6875 126.5 -56.6875 126.5 -54.6875 124.5 C-50.4475879 124.75887252 -48.50605394 126.24954217 -45.5625 129.1875 C-33.34303237 140.49657683 -17.93358004 144.93393853 -1.578125 144.77734375 C15.85762971 143.53443352 29.45324333 136.12217534 41.28125 123.37890625 C50.92441087 111.85363723 56.231777 96.18584094 55.5859375 81.1328125 C53.66995677 62.68465515 47.02014997 47.46208167 32.71875 35.29296875 C19.57936516 25.11749687 4.78124663 21.27276167 -11.6875 22.5 C-30.44432039 25.18652375 -45.26712312 36.83758544 -57.6875 50.5 C-58.0175 51.16 -58.3475 51.82 -58.6875 52.5 C-59.3475 52.5 -60.0075 52.5 -60.6875 52.5 C-60.90019531 53.03109375 -61.11289062 53.5621875 -61.33203125 54.109375 C-63.20994139 57.42142401 -65.76772567 60.0095595 -68.375 62.75 C-69.47220676 63.91847082 -70.56856602 65.08773806 -71.6640625 66.2578125 C-72.19032227 66.81887695 -72.71658203 67.37994141 -73.25878906 67.95800781 C-74.97155479 69.80657725 -76.61728416 71.70556333 -78.25 73.625 C-82.83543885 78.79404016 -87.80153921 83.61403921 -92.6875 88.5 C-63.6475 88.83 -34.6075 89.16 -4.6875 89.5 C-5.0175 97.75 -5.3475 106 -5.6875 114.5 C-29.7775 114.83 -53.8675 115.16 -78.6875 115.5 C-78.62605942 137.90148657 -78.62605942 137.90148657 -78.52734375 160.30273438 C-78.47880378 169.43904388 -78.43436016 178.57524203 -78.41650391 187.71166992 C-78.4034799 194.36596306 -78.37649636 201.02002968 -78.33288693 207.67419523 C-78.31028862 211.19619938 -78.29458831 214.71792432 -78.29561615 218.2400074 C-78.29650281 222.17594424 -78.26621788 226.11131207 -78.23339844 230.04711914 C-78.2384288 231.209496 -78.24345917 232.37187286 -78.24864197 233.56947327 C-78.16452704 240.08824323 -77.65016611 244.23510281 -73.6875 249.5 C-68.15217743 253.67973337 -62.47194578 254.56759877 -55.6875 255.5 C-55.18092713 260.81901517 -56.36139957 263.36484812 -59.6875 267.5 C-65.32704007 272.71657456 -70.05741366 272.66467315 -77.50390625 272.703125 C-78.35677719 272.70882507 -79.20964813 272.71452515 -80.08836365 272.72039795 C-81.88791672 272.72982718 -83.68748691 272.73637366 -85.48706055 272.74023438 C-88.24362945 272.74997748 -90.99946414 272.78103486 -93.75585938 272.8125 C-95.50520391 272.81902684 -97.25455377 272.82427856 -99.00390625 272.828125 C-100.24147423 272.8466452 -100.24147423 272.8466452 -101.50404358 272.86553955 C-107.25608786 272.84305279 -107.25608786 272.84305279 -109.36607361 271.16522217 C-110.6875 269.5 -110.6875 269.5 -111.6875 266.5 C-125.8824307 293.59286266 -135.13738736 321.8537833 -126.37646484 352.31835938 C-117.10744791 381.66915148 -94.40772166 404.41598669 -67.66796875 418.6953125 C-64.34164112 420.41357993 -60.97696472 422.03915806 -57.58251953 423.61816406 C-55.82731487 424.43493799 -54.08303779 425.27508443 -52.33984375 426.1171875 C-30.35629551 436.23119182 -4.78458912 440.89691725 19.3125 441.5 C20.38371094 441.53996094 21.45492187 441.57992188 22.55859375 441.62109375 C91.1601011 443.02112451 148.98201711 409.28985014 201.23876953 368.1328125 C203.16529243 366.6159082 205.09545156 365.10380662 207.02734375 363.59375 C213.00837548 358.91413493 218.95270695 354.19119773 224.875 349.4375 C231.00391321 344.5242067 237.17993141 339.67820466 243.43652344 334.92822266 C244.77319553 333.91058448 246.10686253 332.888994 247.43847656 331.86474609 C281.65470667 305.5563643 317.29983508 284.32214069 358.3125 270.5 C355.0125 270.17 351.7125 269.84 348.3125 269.5 C347.9825 261.58 347.6525 253.66 347.3125 245.5 C345.0025 247.81 342.6925 250.12 340.3125 252.5 C328.90719734 259.63156169 316.98526895 263.41064955 303.51953125 261 C291.31574249 257.97056866 281.0024597 252.51426845 274.35546875 241.625 C270.63670133 234.04818548 270.08396402 226.08200577 271.89453125 217.85546875 C274.51177852 210.45786118 279.47340748 204.56653336 284.3125 198.5 C296.71350375 183.42643996 296.71350375 183.42643996 300.65234375 164.84765625 C300.48184745 162.26540376 300.48184745 162.26540376 298.25 159.9375 C294.7818184 158.24030475 292.17843868 157.57028979 288.3125 157.5 C285.83144806 158.40235835 285.83144806 158.40235835 284.3125 160.5 C283.35468463 163.96287097 282.66115379 167.19730757 284.3125 170.5 C285.96241582 171.20710678 287.6332762 171.86562656 289.3125 172.5 C291.424841 174.06194229 293.34062906 175.75741638 295.3125 177.5 C293.71263936 182.46342307 290.78710168 186.20198762 287.6875 190.3125 C287.171875 191.00537109 286.65625 191.69824219 286.125 192.41210938 C284.85907074 194.11173663 283.58644735 195.80637435 282.3125 197.5 C272.6756184 194.03211675 265.00125466 187.59977821 260.3125 178.5 C256.21775918 169.4507685 256.77087038 160.70696156 260.03125 151.4765625 C264.05708984 142.12384922 271.05428152 136.39044099 280.51953125 132.62109375 C290.2813556 129.86775868 299.18033282 131.71350465 308 136.3125 C312.05621631 138.62073359 315.27174529 140.9063808 318.3125 144.5 C318.993125 145.221875 319.67375 145.94375 320.375 146.6875 C327.1032266 156.45428054 327.73708384 166.61842668 325.65234375 178.15234375 C322.13525338 191.93142075 314.36579369 202.0519905 305.3984375 212.73828125 C299.76484643 219.08278966 299.76484643 219.08278966 296.8125 226.75 C297.38222018 229.88346099 297.94196453 230.500031 300.3125 232.5 C305.30306769 235.18893115 310.67142144 236.44315096 316.3125 235.5 C328.37524857 231.63797773 340.04235483 222.75041339 346.34675598 211.68211365 C352.4596162 197.87001081 349.79386154 179.10215884 349.28668213 164.41455078 C349.09070641 157.9146693 349.06268778 151.41201278 349.00546265 144.90971375 C348.90082831 135.09858881 348.58759896 125.31444582 348.3125 115.5 C329.5025 115.5 310.6925 115.5 291.3125 115.5 C291.3125 107.25 291.3125 99 291.3125 90.5 C306.62494675 90.32823235 321.9374395 90.16132143 337.25 90 C338.37705479 89.98812275 339.50410957 89.9762455 340.66531754 89.96400833 C376.2164766 89.59116404 411.75932875 89.36093936 447.3125 89.5 C447.3125 97.75 447.3125 106 447.3125 114.5 C422.8925 114.5 398.4725 114.5 373.3125 114.5 C373.3125 164.99 373.3125 215.48 373.3125 267.5 C377.6025 266.51 381.8925 265.52 386.3125 264.5 C389.56398501 264.02608909 392.73733741 263.60682458 396 263.3125 C396.84739746 263.23354492 397.69479492 263.15458984 398.56787109 263.07324219 C433.39647575 260.0784878 465.62390572 268.10101397 497.125 282.8125 C498.03314453 283.23297607 498.94128906 283.65345215 499.87695312 284.08666992 C500.70775391 284.48732666 501.53855469 284.8879834 502.39453125 285.30078125 C503.12905518 285.65309814 503.8635791 286.00541504 504.62036133 286.3684082 C506.3125 287.5 506.3125 287.5 507.3125 290.5 C502.52138138 289.86615551 498.70689232 287.87308403 494.4375 285.75 C455.28851221 266.88240958 408.8014628 265.32373508 367.83642578 279.34765625 C344.95806192 287.53971523 327.03251155 299.81190937 308.90844727 315.66552734 C298.8020092 324.48014546 288.09174612 332.44747456 277.28149414 340.37207031 C266.36198447 348.38037113 255.71356425 356.72832227 245.07861328 365.10888672 C241.57115692 367.87160255 238.05926511 370.62868067 234.54736328 373.38574219 C231.71407901 375.61060437 228.88315293 377.83828713 226.05859375 380.07421875 C210.49943312 392.37702632 194.8489347 404.53069419 178.3125 415.5 C177.63799805 415.95181641 176.96349609 416.40363281 176.26855469 416.86914062 C147.50037897 436.10172187 116.28610894 451.60341983 82.5625 459.875 C81.18312256 460.21494995 81.18312256 460.21494995 79.77587891 460.56176758 C62.34617432 464.57020768 45.0350812 466.0580195 27.1875 465.9375 C26.20970581 465.93412628 25.23191162 465.93075256 24.2244873 465.92727661 C-27.35768607 465.67059404 -77.91544342 449.65786613 -115.6875 413.5 C-116.89599609 412.38625 -116.89599609 412.38625 -118.12890625 411.25 C-140.0174177 390.42337252 -154.19345251 360.49555714 -155.03881836 330.17431641 C-155.2171135 310.98093609 -150.71837745 293.26221673 -143.6875 275.5 C-144.7703125 274.45199219 -144.7703125 274.45199219 -145.875 273.3828125 C-146.803125 272.47273438 -147.73125 271.56265625 -148.6875 270.625 C-149.615625 269.72007812 -150.54375 268.81515625 -151.5 267.8828125 C-153.6875 265.5 -153.6875 265.5 -153.6875 263.5 C-150.47225695 264.90844718 -148.36566132 266.60344786 -145.9375 269.125 C-145.32390625 269.75664062 -144.7103125 270.38828125 -144.078125 271.0390625 C-143.61921875 271.52117187 -143.1603125 272.00328125 -142.6875 272.5 C-142.39617187 271.92668945 -142.10484375 271.35337891 -141.8046875 270.76269531 C-136.27170951 259.91858043 -130.67782869 249.47940589 -123.6875 239.5 C-121.98840755 236.85190225 -120.33654322 234.17969523 -118.6875 231.5 C-119.40607178 231.22889404 -120.12464355 230.95778809 -120.86499023 230.6784668 C-123.6688683 229.50777919 -126.21276745 228.15460874 -128.84765625 226.64453125 C-129.80607422 226.10505859 -130.76449219 225.56558594 -131.75195312 225.00976562 C-133.75864619 223.87372896 -135.76124333 222.73042808 -137.75976562 221.58007812 C-138.71689453 221.04447266 -139.67402344 220.50886719 -140.66015625 219.95703125 C-141.96351929 219.2141687 -141.96351929 219.2141687 -143.29321289 218.45629883 C-146.03776501 217.36010115 -147.00175602 217.35869782 -149.6875 218.5 C-152.07357611 220.25983985 -154.34952002 222.04480019 -156.625 223.9375 C-157.97040056 225.03762558 -159.31677199 226.1365648 -160.6640625 227.234375 C-161.33856445 227.78544922 -162.01306641 228.33652344 -162.70800781 228.90429688 C-165.59144275 231.22868399 -168.54482212 233.45567644 -171.5 235.6875 C-188.58698112 248.73212165 -201.60655333 263.47330608 -209.6875 283.5 C-211.35361905 283.542721 -213.02132885 283.54063832 -214.6875 283.5 C-216.64997334 281.53752666 -216.03617746 277.82090387 -216.14453125 275.1328125 C-216.17479904 274.38345428 -216.20506683 273.63409607 -216.23625183 272.86203003 C-216.29719235 271.26653217 -216.3549813 269.67091138 -216.40991211 268.07519531 C-216.46932645 266.45925405 -216.53812935 264.84362694 -216.61694336 263.22851562 C-217.15059179 252.28026112 -217.60415268 241.60913112 -209.75 232.9375 C-205.5481291 229.17886442 -201.01998575 225.79346395 -196.51953125 222.40234375 C-191.19114441 218.38507852 -185.9484753 214.25699974 -180.69213867 210.14624023 C-179.95584229 209.57204346 -179.2195459 208.99784668 -178.4609375 208.40625 C-177.80528809 207.89384766 -177.14963867 207.38144531 -176.47412109 206.85351562 C-174.92126738 205.67709844 -173.30846383 204.58064255 -171.6875 203.5 C-172.244375 203.12230469 -172.80125 202.74460937 -173.375 202.35546875 C-182.04321125 196.10322854 -188.89850228 187.97352622 -191.6875 177.5 C-193.40678839 165.30856076 -192.08822164 153.82283534 -184.66796875 143.76171875 C-180.01067364 138.25615973 -174.90922985 134.11831098 -168.6875 130.5 C-170.44026411 128.74723589 -172.85556682 128.95601615 -175.20996094 128.60107422 C-195.77294795 125.44866747 -211.12626456 114.97001817 -224.6875 99.5 C-224.6875 98.84 -224.6875 98.18 -224.6875 97.5 C-225.3475 97.5 -226.0075 97.5 -226.6875 97.5 C-226.6875 96.51 -226.6875 95.52 -226.6875 94.5 C-222.88410582 95.1998982 -219.88551971 96.92428011 -216.5 98.75 C-211.06701884 101.57249819 -205.6283431 103.66836344 -199.75 105.375 C-199.05302002 105.57770508 -198.35604004 105.78041016 -197.63793945 105.98925781 C-175.33785177 112.16934673 -151.5698591 108.35797084 -131.47314453 97.27929688 C-121.47499052 91.44539051 -112.87480033 84.65507743 -104.6875 76.5 C-103.56160452 75.39932351 -102.43528712 74.29907848 -101.30859375 73.19921875 C-96.18533054 68.16530211 -91.1844943 63.07931129 -86.515625 57.6171875 C-73.54989954 42.60132597 -59.62656478 27.37766846 -43.6875 15.5 C-42.8625 14.86964844 -42.0375 14.23929688 -41.1875 13.58984375 C-28.82385488 4.49097367 -15.34334618 -0.09867505 0 0 Z M-133.33203125 119.6796875 C-138.36432208 123.5686552 -144.49475862 125.3839936 -150.6875 126.5 C-150.6875 126.83 -150.6875 127.16 -150.6875 127.5 C-149.85347656 127.65855469 -149.01945312 127.81710937 -148.16015625 127.98046875 C-135.77553216 130.54818577 -125.82010027 135.31806301 -118.4375 145.875 C-112.15267595 155.98099708 -110.19983878 166.87878715 -112.6875 178.6875 C-115.12381061 187.08547391 -120.23497116 193.80117886 -125.6875 200.5 C-122.64638251 202.10520934 -119.60450767 203.70897836 -116.5625 205.3125 C-115.27859375 205.99022461 -115.27859375 205.99022461 -113.96875 206.68164062 C-109.56420382 209.00249765 -105.15219523 211.29692907 -100.6875 213.5 C-100.36397622 194.16323283 -100.89833752 174.88480438 -101.625 155.5625 C-101.66856628 154.38814392 -101.71213257 153.21378784 -101.75701904 152.00384521 C-102.22594666 139.48943496 -102.72967214 126.98785799 -103.6875 114.5 C-119.45873619 113.19976121 -119.45873619 113.19976121 -133.33203125 119.6796875 Z M-165.76953125 159.49609375 C-167.80952756 163.9493623 -167.34847194 168.75539943 -166.6875 173.5 C-164.38176664 179.61019341 -158.94671026 182.14447384 -153.5625 185.375 C-150.83574579 186.78423631 -150.83574579 186.78423631 -148.56640625 185.85546875 C-147.94636719 185.40816406 -147.32632813 184.96085937 -146.6875 184.5 C-145.68009766 183.87544922 -145.68009766 183.87544922 -144.65234375 183.23828125 C-139.91610106 179.90739767 -137.16828949 177.32443867 -135.6875 171.5 C-135.37209668 165.77186876 -136.61790477 161.40445155 -140.2421875 156.94140625 C-143.60587128 153.5868135 -147.03667788 152.34646772 -151.6875 152.125 C-157.50340798 152.39087008 -162.16022619 154.83553479 -165.76953125 159.49609375 Z M-110.6875 262.5 C-109.6875 264.5 -109.6875 264.5 -109.6875 264.5 Z " fill="#FFFFFF" transform="translate(538.6875,199.5)"/>
<path d="M0 0 C63.36 0 126.72 0 192 0 C192 8.25 192 16.5 192 25 C168.735 25.495 168.735 25.495 145 26 C145.01773192 42.02965599 145.05613672 58.05881257 145.13209057 74.08827972 C145.16670004 81.53154253 145.19209075 88.97462091 145.19555664 96.41796875 C145.1986022 102.90786627 145.21917163 109.39743501 145.26052457 115.8872056 C145.28180325 119.3215589 145.29448206 122.7554454 145.28615379 126.18986511 C145.281253 130.03007966 145.30732195 133.86893673 145.34057617 137.70898438 C145.33195053 138.83971375 145.32332489 139.97044312 145.31443787 141.13543701 C145.41337373 147.95888305 146.39381988 152.78951181 151 158 C155.99474917 161.56767798 162.0447988 162.09930231 168 163 C168.50657287 168.31901517 167.32610043 170.86484812 164 175 C158.42713781 180.15489753 153.79634085 180.16393481 146.4375 180.203125 C145.19504517 180.21167511 145.19504517 180.21167511 143.92749023 180.22039795 C142.17921214 180.22982696 140.43091644 180.23637357 138.68261719 180.24023438 C136.00945216 180.24996559 133.33704808 180.28101839 130.6640625 180.3125 C128.96354622 180.31902812 127.26302446 180.32427934 125.5625 180.328125 C124.76448975 180.3404718 123.96647949 180.3528186 123.14428711 180.36553955 C119.84254914 180.35228492 117.4314695 180.23335305 114.49780273 178.64672852 C113 177 113 177 112.47265625 174.32421875 C113.18340801 169.84385024 115.10459856 166.65346823 117.4375 162.8125 C118.27161432 161.40357489 119.10372973 159.99346398 119.93359375 158.58203125 C120.30540771 157.96561768 120.67722168 157.3492041 121.06030273 156.71411133 C123.82944341 151.6628937 123.16957699 146.29369446 123.15625 140.69921875 C123.15365173 138.87773567 123.15365173 138.87773567 123.15100098 137.01945496 C123.04745274 118.29874813 122.27786678 99.58852764 121.60931396 80.88140869 C121.31935901 72.74113789 121.03796496 64.6005667 120.75654602 56.45999718 C120.65853964 53.64773191 120.55817451 50.8355589 120.45739746 48.02339172 C120.39668029 46.29529995 120.33600889 44.56720657 120.27539062 42.83911133 C120.2333123 41.69128174 120.2333123 41.69128174 120.19038391 40.52026367 C120.01094935 35.33692084 120 30.19408605 120 25 C109.44 25 98.88 25 88 25 C88.06293472 40.63840843 88.13816426 56.27660329 88.23571491 71.91482544 C88.28062047 79.17643784 88.32004709 86.43800178 88.34643555 93.69970703 C88.36945822 100.03133163 88.4029036 106.36280216 88.44870156 112.69430447 C88.47257686 116.04475173 88.48978764 119.39490646 88.49761391 122.74545288 C88.50725042 126.4919902 88.5353063 130.23797413 88.56762695 133.984375 C88.56619186 135.08705215 88.56475677 136.18972931 88.5632782 137.32582092 C88.65473869 144.83274415 89.47627217 150.65977199 94.125 156.8125 C97.86046079 159.65469843 101.52727474 160.74449817 106 162 C108 162.66666667 110 163.33333333 112 164 C111.77472997 169.51911576 110.42041115 172.32959657 106.86328125 176.51953125 C101.89992457 180.46316266 96.01602935 180.30754112 89.98828125 180.30078125 C89.1382402 180.30506638 88.28819916 180.3093515 87.41239929 180.31376648 C85.62479541 180.31948561 83.83716827 180.32002795 82.04956055 180.31567383 C79.31063628 180.31249784 76.57277657 180.33605753 73.83398438 180.36132812 C72.09375136 180.36359972 70.35351545 180.36430526 68.61328125 180.36328125 C67.79451004 180.372491 66.97573883 180.38170074 66.13215637 180.39118958 C60.43667288 180.34458527 60.43667288 180.34458527 58.2877655 178.64884949 C57 177 57 177 56.5703125 174.24609375 C57.1013347 170.23446242 58.74553596 167.41143219 60.875 164.0625 C61.60905599 162.89138241 62.33570808 161.71558973 63.0546875 160.53515625 C63.37937012 160.023479 63.70405273 159.51180176 64.03857422 158.98461914 C67.41883066 152.00693895 67.26533796 145.3420066 67.1953125 137.72265625 C67.19106766 135.97292763 67.19106766 135.97292763 67.18673706 134.18785095 C67.17558388 130.47929424 67.15048786 126.77098315 67.125 123.0625 C67.11496393 120.54101912 67.10583918 118.01953445 67.09765625 115.49804688 C67.07566044 109.3319481 67.04223118 103.16599161 67 97 C38.46701543 93.28659207 38.46701543 93.28659207 12.29101562 100.40429688 C7.23281073 106.23198261 4.88267614 112.81901181 2.89086914 120.18774414 C0.87162924 126.56199036 -4.26136162 130.85767763 -10 134 C-19.55691646 137.96223734 -27.74560749 138.15472289 -37.35546875 134.32421875 C-46.89801147 129.54589972 -52.53975674 120.86169329 -56 111 C-58.0032864 103.04849397 -56.68151052 94.83644043 -52.70703125 87.66796875 C-47.63889678 80.5617105 -40.89702604 74.15559569 -32.00684452 72.6660471 C-26.51903739 72.05551954 -21.14271855 71.89100159 -15.62475586 71.97827148 C-14.7358667 71.98787903 -13.84697754 71.99748657 -12.93115234 72.00738525 C-10.02562768 72.04007286 -7.12026802 72.08051793 -4.21484375 72.12109375 C-2.18747011 72.14542451 -0.16009056 72.16926654 1.86729431 72.19264221 C7.1789733 72.25518915 12.49054624 72.32433761 17.80212402 72.39489746 C23.23196624 72.46584789 28.66188309 72.5305045 34.09179688 72.59570312 C44.72794662 72.72433611 55.3639949 72.85994875 66 73 C65.67 72.01 65.34 71.02 65 70 C64.88624128 68.51229395 64.82392798 67.02032676 64.79467773 65.52856445 C64.77449585 64.61530396 64.75431396 63.70204346 64.73352051 62.7611084 C64.70880676 61.32668396 64.70880676 61.32668396 64.68359375 59.86328125 C64.66494263 58.98168335 64.6462915 58.10008545 64.6270752 57.19177246 C64.55878056 53.89878352 64.49862988 50.60562974 64.4375 47.3125 C64.2209375 36.2678125 64.2209375 36.2678125 64 25 C42.88 25 21.76 25 0 25 C0 16.75 0 8.5 0 0 Z M-31 100 C-32.17612195 101.78671071 -32.17612195 101.78671071 -32 104 C-30.44025604 107.89935989 -29.53271727 109.64485515 -26 112 C-22.98588911 112.14756827 -22.98588911 112.14756827 -20 111 C-17.76226481 108.36105116 -17.76226481 108.36105116 -16.125 105.0625 C-15.52945313 103.98097656 -14.93390625 102.89945312 -14.3203125 101.78515625 C-12.85721376 99.21250691 -12.85721376 99.21250691 -13 97 C-15.06183633 96.91849256 -17.12461349 96.8605806 -19.1875 96.8125 C-20.33605469 96.77769531 -21.48460937 96.74289062 -22.66796875 96.70703125 C-26.30179454 97.02653528 -28.10624418 97.83100569 -31 100 Z " fill="#FFFFFF" transform="translate(628,292)"/>
<path d="M0 0 C2.90790438 3.12474156 5.03605166 6.56532676 7.14453125 10.26171875 C7.73186035 11.28595947 8.31918945 12.3102002 8.92431641 13.36547852 C9.54741699 14.46174561 10.17051758 15.5580127 10.8125 16.6875 C11.80779314 18.42637041 12.8030936 20.16523668 13.79882812 21.90385437 C14.83502367 23.71418975 15.86944894 25.52552923 16.90380859 27.33691406 C18.97324717 30.95743706 21.05676558 34.56970846 23.14453125 38.1796875 C23.48029678 38.76041519 23.81606232 39.34114288 24.16200256 39.93946838 C25.77016647 42.72050977 27.37883336 45.50126007 28.98754883 48.28198242 C30.66382698 51.18489578 32.33387694 54.09124831 34 57 C34.50756836 57.88155762 35.01513672 58.76311523 35.53808594 59.67138672 C36.22692871 60.8839917 36.22692871 60.8839917 36.9296875 62.12109375 C37.33171387 62.82548584 37.73374023 63.52987793 38.14794922 64.25561523 C39 66 39 66 39 68 C82.89 68 126.78 68 172 68 C172 71.96 172 75.92 172 80 C161.44 80 150.88 80 140 80 C140 108.05 140 136.1 140 165 C135.71 165 131.42 165 127 165 C127 136.95 127 108.9 127 80 C121.39 80 115.78 80 110 80 C110.02094727 81.80597656 110.04189453 83.61195313 110.06347656 85.47265625 C110.12817899 91.46363704 110.17402995 97.45451825 110.20724869 103.44573975 C110.22805515 107.07551731 110.25624354 110.70491415 110.30175781 114.33447266 C110.34546659 117.84231263 110.36918921 121.3497882 110.37950897 124.85787964 C110.39041254 126.83644644 110.42159835 128.81486821 110.45318604 130.79321289 C110.45510538 138.54788262 110.07031396 144.53400368 104.62310791 150.51074219 C100.0939033 154.63528004 95.66994739 156.26958599 89.625 156 C84.31663227 155.23781882 80.75179769 152.73418362 77 149 C73.67806179 144.53614554 73.62147206 140.26342013 73.50390625 134.87890625 C74.78923178 127.41996992 79.93351588 122.69411127 85.1875 117.6875 C86.45389372 116.46438003 87.71831819 115.23921681 88.98046875 114.01171875 C89.53629639 113.48022217 90.09212402 112.94872559 90.66479492 112.40112305 C92.1128413 111.01872487 92.1128413 111.01872487 93 109 C93.99 109.33 94.98 109.66 96 110 C96.33 100.1 96.66 90.2 97 80 C84.46 80 71.92 80 59 80 C59 108.05 59 136.1 59 165 C55.04 165 51.08 165 47 165 C47 136.95 47 108.9 47 80 C42.05 80 37.1 80 32 80 C32 108.05 32 136.1 32 165 C28.04 165 24.08 165 20 165 C20 153.12 20 141.24 20 129 C14.39 129 8.78 129 3 129 C3.103125 130.485 3.20625 131.97 3.3125 133.5 C3.28842734 139.16509881 1.9124639 142.87861812 -2 147 C-6.45248475 150.4264774 -11.17197785 151.7291885 -16.76171875 151.44921875 C-22.2183649 150.35408034 -25.91102324 147.28443413 -29.4375 143.125 C-32.00107755 137.99784491 -32.48759745 133.94438249 -31 128.4375 C-28.75837456 122.4393607 -24.71010846 119.24213304 -19 116.625 C-15.6028707 115.91726473 -12.4617595 115.95917736 -9 116 C-9.06894972 110.39450174 -9.15695228 104.78974421 -9.26245117 99.18481445 C-9.29565962 97.27897369 -9.32370425 95.37303554 -9.34643555 93.46704102 C-9.38005668 90.72369985 -9.43237595 87.98124778 -9.48828125 85.23828125 C-9.49467117 84.38913651 -9.5010611 83.53999176 -9.50764465 82.66511536 C-9.62348163 77.98080475 -9.96056076 74.80375365 -13 71 C-17.76241849 68.59340473 -24.19674412 68.14344959 -29.25 69.6875 C-31.71625153 71.53718865 -32.20777399 73.02915246 -33 76 C-33.39494587 79.75198574 -33.57275853 82.0367243 -31.625 85.3125 C-27.62751733 87.88231029 -23.67884601 88.26123484 -19 89 C-19 92.96 -19 96.92 -19 101 C-26.34233127 101.36711656 -31.96980119 101.52594791 -38 97 C-42.17692943 92.99051986 -45.7063098 88.91783119 -46.30078125 83.01171875 C-46.33415761 73.54395798 -45.19847949 67.60784276 -38.64453125 60.51171875 C-33.18462837 55.49275815 -27.32527439 55.51903567 -20.21484375 55.72265625 C-11.68698664 56.45835231 -5.7415258 59.59757914 0 66 C1.22265625 68.22265625 1.22265625 68.22265625 2 70 C2.33 69.34 2.66 68.68 3 68 C12.9 67.505 12.9 67.505 23 67 C17.95313075 60.24232762 12.87597477 53.51036852 7.75 46.8125 C7.20512939 46.10053467 6.66025879 45.38856934 6.09887695 44.6550293 C3.21942385 40.8944275 0.33704054 37.13608664 -2.546875 33.37890625 C-3.1253418 32.62440186 -3.70380859 31.86989746 -4.29980469 31.0925293 C-5.39841545 29.65963419 -6.49795997 28.22745431 -7.59863281 26.79614258 C-9.07452705 24.87053968 -10.54054001 22.93808255 -12 21 C-12.48331787 20.3611084 -12.96663574 19.7222168 -13.46459961 19.06396484 C-15.53479724 16.26278494 -16.93709734 14.34945921 -17.5625 10.875 C-16.66757889 6.30095879 -14.29916494 4.04654954 -10.75 1.1875 C-6.76469936 -0.53342528 -4.3424344 -0.55142024 0 0 Z M3 73 C3 87.19 3 101.38 3 116 C8.61 116 14.22 116 20 116 C20 104.12 20 92.24 20 80 C14.72 80 9.44 80 4 80 C4 77.69 4 75.38 4 73 C3.67 73 3.34 73 3 73 Z M94.4765625 125.390625 C88.62545746 130.65502024 88.62545746 130.65502024 85.625 137.5625 C85.8519741 139.99740467 85.8519741 139.99740467 87.0625 141.875 C90.14201133 143.66310335 92.64333273 142.74592606 96 142 C97.44388571 140.78571012 97.44388571 140.78571012 97.09765625 137.18359375 C97.09098089 135.60153318 97.07901875 134.01948841 97.0625 132.4375 C97.05798828 131.63119141 97.05347656 130.82488281 97.04882812 129.99414062 C97.03700518 127.99606244 97.01906914 125.99802217 97 124 C95.77931252 123.88763674 95.77931252 123.88763674 94.4765625 125.390625 Z M-19 131 C-19.50014953 133.45741537 -19.50014953 133.45741537 -19 136 C-17.42304368 138.0785608 -17.42304368 138.0785608 -15 139 C-12.60736593 138.33228817 -10.77902615 137.77902615 -9 136 C-8.95907063 133.66702567 -8.95758277 131.33294775 -9 129 C-14.58664846 128.39578469 -14.58664846 128.39578469 -19 131 Z " fill="#FFFFFF" transform="translate(911,512)"/>
<path d="M0 0 C3.125 -0.625 3.125 -0.625 7 0 C8.82607799 2.21100959 10.05139293 4.52803931 11.390625 7.0625 C13.62406881 11.13907706 16.38617226 14.74248248 19.16796875 18.45703125 C24 25.1641791 24 25.1641791 24 28 C24.66 28 25.32 28 26 28 C26.66 29.98 27.32 31.96 28 34 C28.66 34 29.32 34 30 34 C32.91347448 37.58581474 33.46618142 40.59281048 33.296875 45.0625 C32.86280931 47.89534978 31.79206838 49.79437737 30 52 C29.34 52 28.68 52 28 52 C27.34 53.98 26.68 55.96 26 58 C25.34 58 24.68 58 24 58 C23.7525 58.886875 23.505 59.77375 23.25 60.6875 C21.92650745 64.19475526 20.3616228 66.11264491 18 69 C16.43866467 71.17681052 14.89666949 73.35861536 13.375 75.5625 C12.98054688 76.12646484 12.58609375 76.69042969 12.1796875 77.27148438 C10.2255183 80.09380644 8.42275167 82.87147618 7 86 C3.875 86.625 3.875 86.625 0 86 C-1.82607799 83.78899041 -3.05139293 81.47196069 -4.390625 78.9375 C-6.62406881 74.86092294 -9.38617226 71.25751752 -12.16796875 67.54296875 C-17 60.8358209 -17 60.8358209 -17 58 C-17.66 58 -18.32 58 -19 58 C-19.66 56.02 -20.32 54.04 -21 52 C-21.66 52 -22.32 52 -23 52 C-25.91347448 48.41418526 -26.46618142 45.40718952 -26.296875 40.9375 C-25.86280931 38.10465022 -24.79206838 36.20562263 -23 34 C-22.34 34 -21.68 34 -21 34 C-20.34 32.02 -19.68 30.04 -19 28 C-18.34 28 -17.68 28 -17 28 C-16.62875 26.6696875 -16.62875 26.6696875 -16.25 25.3125 C-14.92650745 21.80524474 -13.3616228 19.88735509 -11 17 C-9.43866467 14.82318948 -7.89666949 12.64138464 -6.375 10.4375 C-5.98054688 9.87353516 -5.58609375 9.30957031 -5.1796875 8.72851562 C-3.2255183 5.90619356 -1.42275167 3.12852382 0 0 Z " fill="#FFFFFF" transform="translate(1209,416)"/>
<path d="M0 0 C3.125 -0.625 3.125 -0.625 7 0 C8.82607799 2.21100959 10.05139293 4.52803931 11.390625 7.0625 C13.62406881 11.13907706 16.38617226 14.74248248 19.16796875 18.45703125 C24 25.1641791 24 25.1641791 24 28 C24.66 28 25.32 28 26 28 C26.66 29.98 27.32 31.96 28 34 C28.66 34 29.32 34 30 34 C32.91347448 37.58581474 33.46618142 40.59281048 33.296875 45.0625 C32.86280931 47.89534978 31.79206838 49.79437737 30 52 C29.34 52 28.68 52 28 52 C27.34 53.98 26.68 55.96 26 58 C25.34 58 24.68 58 24 58 C23.7525 58.886875 23.505 59.77375 23.25 60.6875 C21.92650745 64.19475526 20.3616228 66.11264491 18 69 C16.43866467 71.17681052 14.89666949 73.35861536 13.375 75.5625 C12.98054688 76.12646484 12.58609375 76.69042969 12.1796875 77.27148438 C10.2255183 80.09380644 8.42275167 82.87147618 7 86 C3.875 86.625 3.875 86.625 0 86 C-1.82607799 83.78899041 -3.05139293 81.47196069 -4.390625 78.9375 C-6.62406881 74.86092294 -9.38617226 71.25751752 -12.16796875 67.54296875 C-17 60.8358209 -17 60.8358209 -17 58 C-17.66 58 -18.32 58 -19 58 C-19.66 56.02 -20.32 54.04 -21 52 C-21.66 52 -22.32 52 -23 52 C-25.91347448 48.41418526 -26.46618142 45.40718952 -26.296875 40.9375 C-25.86280931 38.10465022 -24.79206838 36.20562263 -23 34 C-22.34 34 -21.68 34 -21 34 C-20.34 32.02 -19.68 30.04 -19 28 C-18.34 28 -17.68 28 -17 28 C-16.62875 26.6696875 -16.62875 26.6696875 -16.25 25.3125 C-14.92650745 21.80524474 -13.3616228 19.88735509 -11 17 C-9.43866467 14.82318948 -7.89666949 12.64138464 -6.375 10.4375 C-5.98054688 9.87353516 -5.58609375 9.30957031 -5.1796875 8.72851562 C-3.2255183 5.90619356 -1.42275167 3.12852382 0 0 Z " fill="#FFFFFF" transform="translate(169,416)"/>
</svg>
